%TF.GenerationSoftware,KiCad,Pcbnew,9.0.4*%
%TF.CreationDate,2025-10-30T20:58:22-05:00*%
%TF.ProjectId,TEST,54455354-2e6b-4696-9361-645f70636258,rev?*%
%TF.SameCoordinates,Original*%
%TF.FileFunction,Legend,Top*%
%TF.FilePolarity,Positive*%
%FSLAX46Y46*%
G04 Gerber Fmt 4.6, Leading zero omitted, Abs format (unit mm)*
G04 Created by KiCad (PCBNEW 9.0.4) date 2025-10-30 20:58:22*
%MOMM*%
%LPD*%
G01*
G04 APERTURE LIST*
%ADD10C,0.150000*%
%ADD11C,0.254000*%
%ADD12C,0.100000*%
%ADD13C,0.120000*%
%ADD14C,0.152400*%
%ADD15C,0.508000*%
%ADD16C,0.200000*%
G04 APERTURE END LIST*
D10*
X128819636Y-58186009D02*
X128962493Y-58233628D01*
X128962493Y-58233628D02*
X129010112Y-58281247D01*
X129010112Y-58281247D02*
X129057731Y-58376485D01*
X129057731Y-58376485D02*
X129057731Y-58519342D01*
X129057731Y-58519342D02*
X129010112Y-58614580D01*
X129010112Y-58614580D02*
X128962493Y-58662200D01*
X128962493Y-58662200D02*
X128867255Y-58709819D01*
X128867255Y-58709819D02*
X128486303Y-58709819D01*
X128486303Y-58709819D02*
X128486303Y-57709819D01*
X128486303Y-57709819D02*
X128819636Y-57709819D01*
X128819636Y-57709819D02*
X128914874Y-57757438D01*
X128914874Y-57757438D02*
X128962493Y-57805057D01*
X128962493Y-57805057D02*
X129010112Y-57900295D01*
X129010112Y-57900295D02*
X129010112Y-57995533D01*
X129010112Y-57995533D02*
X128962493Y-58090771D01*
X128962493Y-58090771D02*
X128914874Y-58138390D01*
X128914874Y-58138390D02*
X128819636Y-58186009D01*
X128819636Y-58186009D02*
X128486303Y-58186009D01*
X129486303Y-57709819D02*
X129486303Y-58519342D01*
X129486303Y-58519342D02*
X129533922Y-58614580D01*
X129533922Y-58614580D02*
X129581541Y-58662200D01*
X129581541Y-58662200D02*
X129676779Y-58709819D01*
X129676779Y-58709819D02*
X129867255Y-58709819D01*
X129867255Y-58709819D02*
X129962493Y-58662200D01*
X129962493Y-58662200D02*
X130010112Y-58614580D01*
X130010112Y-58614580D02*
X130057731Y-58519342D01*
X130057731Y-58519342D02*
X130057731Y-57709819D01*
X130391065Y-57709819D02*
X130962493Y-57709819D01*
X130676779Y-58709819D02*
X130676779Y-57709819D01*
X131152970Y-57709819D02*
X131724398Y-57709819D01*
X131438684Y-58709819D02*
X131438684Y-57709819D01*
X132248208Y-57709819D02*
X132438684Y-57709819D01*
X132438684Y-57709819D02*
X132533922Y-57757438D01*
X132533922Y-57757438D02*
X132629160Y-57852676D01*
X132629160Y-57852676D02*
X132676779Y-58043152D01*
X132676779Y-58043152D02*
X132676779Y-58376485D01*
X132676779Y-58376485D02*
X132629160Y-58566961D01*
X132629160Y-58566961D02*
X132533922Y-58662200D01*
X132533922Y-58662200D02*
X132438684Y-58709819D01*
X132438684Y-58709819D02*
X132248208Y-58709819D01*
X132248208Y-58709819D02*
X132152970Y-58662200D01*
X132152970Y-58662200D02*
X132057732Y-58566961D01*
X132057732Y-58566961D02*
X132010113Y-58376485D01*
X132010113Y-58376485D02*
X132010113Y-58043152D01*
X132010113Y-58043152D02*
X132057732Y-57852676D01*
X132057732Y-57852676D02*
X132152970Y-57757438D01*
X132152970Y-57757438D02*
X132248208Y-57709819D01*
X133105351Y-58709819D02*
X133105351Y-57709819D01*
X133105351Y-57709819D02*
X133676779Y-58709819D01*
X133676779Y-58709819D02*
X133676779Y-57709819D01*
X129748207Y-57209819D02*
X129414874Y-56733628D01*
X129176779Y-57209819D02*
X129176779Y-56209819D01*
X129176779Y-56209819D02*
X129557731Y-56209819D01*
X129557731Y-56209819D02*
X129652969Y-56257438D01*
X129652969Y-56257438D02*
X129700588Y-56305057D01*
X129700588Y-56305057D02*
X129748207Y-56400295D01*
X129748207Y-56400295D02*
X129748207Y-56543152D01*
X129748207Y-56543152D02*
X129700588Y-56638390D01*
X129700588Y-56638390D02*
X129652969Y-56686009D01*
X129652969Y-56686009D02*
X129557731Y-56733628D01*
X129557731Y-56733628D02*
X129176779Y-56733628D01*
X130176779Y-57209819D02*
X130176779Y-56209819D01*
X131176778Y-56257438D02*
X131081540Y-56209819D01*
X131081540Y-56209819D02*
X130938683Y-56209819D01*
X130938683Y-56209819D02*
X130795826Y-56257438D01*
X130795826Y-56257438D02*
X130700588Y-56352676D01*
X130700588Y-56352676D02*
X130652969Y-56447914D01*
X130652969Y-56447914D02*
X130605350Y-56638390D01*
X130605350Y-56638390D02*
X130605350Y-56781247D01*
X130605350Y-56781247D02*
X130652969Y-56971723D01*
X130652969Y-56971723D02*
X130700588Y-57066961D01*
X130700588Y-57066961D02*
X130795826Y-57162200D01*
X130795826Y-57162200D02*
X130938683Y-57209819D01*
X130938683Y-57209819D02*
X131033921Y-57209819D01*
X131033921Y-57209819D02*
X131176778Y-57162200D01*
X131176778Y-57162200D02*
X131224397Y-57114580D01*
X131224397Y-57114580D02*
X131224397Y-56781247D01*
X131224397Y-56781247D02*
X131033921Y-56781247D01*
X131652969Y-57209819D02*
X131652969Y-56209819D01*
X131652969Y-56686009D02*
X132224397Y-56686009D01*
X132224397Y-57209819D02*
X132224397Y-56209819D01*
X132557731Y-56209819D02*
X133129159Y-56209819D01*
X132843445Y-57209819D02*
X132843445Y-56209819D01*
X122822969Y-57139819D02*
X122346779Y-57139819D01*
X122346779Y-57139819D02*
X122346779Y-56139819D01*
X123156303Y-56616009D02*
X123489636Y-56616009D01*
X123632493Y-57139819D02*
X123156303Y-57139819D01*
X123156303Y-57139819D02*
X123156303Y-56139819D01*
X123156303Y-56139819D02*
X123632493Y-56139819D01*
X124394398Y-56616009D02*
X124061065Y-56616009D01*
X124061065Y-57139819D02*
X124061065Y-56139819D01*
X124061065Y-56139819D02*
X124537255Y-56139819D01*
X124775351Y-56139819D02*
X125346779Y-56139819D01*
X125061065Y-57139819D02*
X125061065Y-56139819D01*
X143628683Y-57174636D02*
X143581064Y-57222256D01*
X143581064Y-57222256D02*
X143438207Y-57269875D01*
X143438207Y-57269875D02*
X143342969Y-57269875D01*
X143342969Y-57269875D02*
X143200112Y-57222256D01*
X143200112Y-57222256D02*
X143104874Y-57127017D01*
X143104874Y-57127017D02*
X143057255Y-57031779D01*
X143057255Y-57031779D02*
X143009636Y-56841303D01*
X143009636Y-56841303D02*
X143009636Y-56698446D01*
X143009636Y-56698446D02*
X143057255Y-56507970D01*
X143057255Y-56507970D02*
X143104874Y-56412732D01*
X143104874Y-56412732D02*
X143200112Y-56317494D01*
X143200112Y-56317494D02*
X143342969Y-56269875D01*
X143342969Y-56269875D02*
X143438207Y-56269875D01*
X143438207Y-56269875D02*
X143581064Y-56317494D01*
X143581064Y-56317494D02*
X143628683Y-56365113D01*
X144247731Y-56269875D02*
X144438207Y-56269875D01*
X144438207Y-56269875D02*
X144533445Y-56317494D01*
X144533445Y-56317494D02*
X144628683Y-56412732D01*
X144628683Y-56412732D02*
X144676302Y-56603208D01*
X144676302Y-56603208D02*
X144676302Y-56936541D01*
X144676302Y-56936541D02*
X144628683Y-57127017D01*
X144628683Y-57127017D02*
X144533445Y-57222256D01*
X144533445Y-57222256D02*
X144438207Y-57269875D01*
X144438207Y-57269875D02*
X144247731Y-57269875D01*
X144247731Y-57269875D02*
X144152493Y-57222256D01*
X144152493Y-57222256D02*
X144057255Y-57127017D01*
X144057255Y-57127017D02*
X144009636Y-56936541D01*
X144009636Y-56936541D02*
X144009636Y-56603208D01*
X144009636Y-56603208D02*
X144057255Y-56412732D01*
X144057255Y-56412732D02*
X144152493Y-56317494D01*
X144152493Y-56317494D02*
X144247731Y-56269875D01*
X145676302Y-57174636D02*
X145628683Y-57222256D01*
X145628683Y-57222256D02*
X145485826Y-57269875D01*
X145485826Y-57269875D02*
X145390588Y-57269875D01*
X145390588Y-57269875D02*
X145247731Y-57222256D01*
X145247731Y-57222256D02*
X145152493Y-57127017D01*
X145152493Y-57127017D02*
X145104874Y-57031779D01*
X145104874Y-57031779D02*
X145057255Y-56841303D01*
X145057255Y-56841303D02*
X145057255Y-56698446D01*
X145057255Y-56698446D02*
X145104874Y-56507970D01*
X145104874Y-56507970D02*
X145152493Y-56412732D01*
X145152493Y-56412732D02*
X145247731Y-56317494D01*
X145247731Y-56317494D02*
X145390588Y-56269875D01*
X145390588Y-56269875D02*
X145485826Y-56269875D01*
X145485826Y-56269875D02*
X145628683Y-56317494D01*
X145628683Y-56317494D02*
X145676302Y-56365113D01*
X146104874Y-57269875D02*
X146104874Y-56269875D01*
X146676302Y-57269875D02*
X146247731Y-56698446D01*
X146676302Y-56269875D02*
X146104874Y-56841303D01*
X147104874Y-57269875D02*
X147104874Y-56269875D01*
X147104874Y-56269875D02*
X147485826Y-56269875D01*
X147485826Y-56269875D02*
X147581064Y-56317494D01*
X147581064Y-56317494D02*
X147628683Y-56365113D01*
X147628683Y-56365113D02*
X147676302Y-56460351D01*
X147676302Y-56460351D02*
X147676302Y-56603208D01*
X147676302Y-56603208D02*
X147628683Y-56698446D01*
X147628683Y-56698446D02*
X147581064Y-56746065D01*
X147581064Y-56746065D02*
X147485826Y-56793684D01*
X147485826Y-56793684D02*
X147104874Y-56793684D01*
X148104874Y-57269875D02*
X148104874Y-56269875D01*
X148438207Y-56269875D02*
X149009635Y-56269875D01*
X148723921Y-57269875D02*
X148723921Y-56269875D01*
X136119160Y-58722200D02*
X136262017Y-58769819D01*
X136262017Y-58769819D02*
X136500112Y-58769819D01*
X136500112Y-58769819D02*
X136595350Y-58722200D01*
X136595350Y-58722200D02*
X136642969Y-58674580D01*
X136642969Y-58674580D02*
X136690588Y-58579342D01*
X136690588Y-58579342D02*
X136690588Y-58484104D01*
X136690588Y-58484104D02*
X136642969Y-58388866D01*
X136642969Y-58388866D02*
X136595350Y-58341247D01*
X136595350Y-58341247D02*
X136500112Y-58293628D01*
X136500112Y-58293628D02*
X136309636Y-58246009D01*
X136309636Y-58246009D02*
X136214398Y-58198390D01*
X136214398Y-58198390D02*
X136166779Y-58150771D01*
X136166779Y-58150771D02*
X136119160Y-58055533D01*
X136119160Y-58055533D02*
X136119160Y-57960295D01*
X136119160Y-57960295D02*
X136166779Y-57865057D01*
X136166779Y-57865057D02*
X136214398Y-57817438D01*
X136214398Y-57817438D02*
X136309636Y-57769819D01*
X136309636Y-57769819D02*
X136547731Y-57769819D01*
X136547731Y-57769819D02*
X136690588Y-57817438D01*
X137023922Y-57769819D02*
X137262017Y-58769819D01*
X137262017Y-58769819D02*
X137452493Y-58055533D01*
X137452493Y-58055533D02*
X137642969Y-58769819D01*
X137642969Y-58769819D02*
X137881065Y-57769819D01*
X138262017Y-58769819D02*
X138262017Y-57769819D01*
X138595350Y-57769819D02*
X139166778Y-57769819D01*
X138881064Y-58769819D02*
X138881064Y-57769819D01*
X140071540Y-58674580D02*
X140023921Y-58722200D01*
X140023921Y-58722200D02*
X139881064Y-58769819D01*
X139881064Y-58769819D02*
X139785826Y-58769819D01*
X139785826Y-58769819D02*
X139642969Y-58722200D01*
X139642969Y-58722200D02*
X139547731Y-58626961D01*
X139547731Y-58626961D02*
X139500112Y-58531723D01*
X139500112Y-58531723D02*
X139452493Y-58341247D01*
X139452493Y-58341247D02*
X139452493Y-58198390D01*
X139452493Y-58198390D02*
X139500112Y-58007914D01*
X139500112Y-58007914D02*
X139547731Y-57912676D01*
X139547731Y-57912676D02*
X139642969Y-57817438D01*
X139642969Y-57817438D02*
X139785826Y-57769819D01*
X139785826Y-57769819D02*
X139881064Y-57769819D01*
X139881064Y-57769819D02*
X140023921Y-57817438D01*
X140023921Y-57817438D02*
X140071540Y-57865057D01*
X140500112Y-58769819D02*
X140500112Y-57769819D01*
X140500112Y-58246009D02*
X141071540Y-58246009D01*
X141071540Y-58769819D02*
X141071540Y-57769819D01*
X121620112Y-58236009D02*
X121762969Y-58283628D01*
X121762969Y-58283628D02*
X121810588Y-58331247D01*
X121810588Y-58331247D02*
X121858207Y-58426485D01*
X121858207Y-58426485D02*
X121858207Y-58569342D01*
X121858207Y-58569342D02*
X121810588Y-58664580D01*
X121810588Y-58664580D02*
X121762969Y-58712200D01*
X121762969Y-58712200D02*
X121667731Y-58759819D01*
X121667731Y-58759819D02*
X121286779Y-58759819D01*
X121286779Y-58759819D02*
X121286779Y-57759819D01*
X121286779Y-57759819D02*
X121620112Y-57759819D01*
X121620112Y-57759819D02*
X121715350Y-57807438D01*
X121715350Y-57807438D02*
X121762969Y-57855057D01*
X121762969Y-57855057D02*
X121810588Y-57950295D01*
X121810588Y-57950295D02*
X121810588Y-58045533D01*
X121810588Y-58045533D02*
X121762969Y-58140771D01*
X121762969Y-58140771D02*
X121715350Y-58188390D01*
X121715350Y-58188390D02*
X121620112Y-58236009D01*
X121620112Y-58236009D02*
X121286779Y-58236009D01*
X122286779Y-57759819D02*
X122286779Y-58569342D01*
X122286779Y-58569342D02*
X122334398Y-58664580D01*
X122334398Y-58664580D02*
X122382017Y-58712200D01*
X122382017Y-58712200D02*
X122477255Y-58759819D01*
X122477255Y-58759819D02*
X122667731Y-58759819D01*
X122667731Y-58759819D02*
X122762969Y-58712200D01*
X122762969Y-58712200D02*
X122810588Y-58664580D01*
X122810588Y-58664580D02*
X122858207Y-58569342D01*
X122858207Y-58569342D02*
X122858207Y-57759819D01*
X123191541Y-57759819D02*
X123762969Y-57759819D01*
X123477255Y-58759819D02*
X123477255Y-57759819D01*
X123953446Y-57759819D02*
X124524874Y-57759819D01*
X124239160Y-58759819D02*
X124239160Y-57759819D01*
X125048684Y-57759819D02*
X125239160Y-57759819D01*
X125239160Y-57759819D02*
X125334398Y-57807438D01*
X125334398Y-57807438D02*
X125429636Y-57902676D01*
X125429636Y-57902676D02*
X125477255Y-58093152D01*
X125477255Y-58093152D02*
X125477255Y-58426485D01*
X125477255Y-58426485D02*
X125429636Y-58616961D01*
X125429636Y-58616961D02*
X125334398Y-58712200D01*
X125334398Y-58712200D02*
X125239160Y-58759819D01*
X125239160Y-58759819D02*
X125048684Y-58759819D01*
X125048684Y-58759819D02*
X124953446Y-58712200D01*
X124953446Y-58712200D02*
X124858208Y-58616961D01*
X124858208Y-58616961D02*
X124810589Y-58426485D01*
X124810589Y-58426485D02*
X124810589Y-58093152D01*
X124810589Y-58093152D02*
X124858208Y-57902676D01*
X124858208Y-57902676D02*
X124953446Y-57807438D01*
X124953446Y-57807438D02*
X125048684Y-57759819D01*
X125905827Y-58759819D02*
X125905827Y-57759819D01*
X125905827Y-57759819D02*
X126477255Y-58759819D01*
X126477255Y-58759819D02*
X126477255Y-57759819D01*
X143700112Y-58356009D02*
X143842969Y-58403628D01*
X143842969Y-58403628D02*
X143890588Y-58451247D01*
X143890588Y-58451247D02*
X143938207Y-58546485D01*
X143938207Y-58546485D02*
X143938207Y-58689342D01*
X143938207Y-58689342D02*
X143890588Y-58784580D01*
X143890588Y-58784580D02*
X143842969Y-58832200D01*
X143842969Y-58832200D02*
X143747731Y-58879819D01*
X143747731Y-58879819D02*
X143366779Y-58879819D01*
X143366779Y-58879819D02*
X143366779Y-57879819D01*
X143366779Y-57879819D02*
X143700112Y-57879819D01*
X143700112Y-57879819D02*
X143795350Y-57927438D01*
X143795350Y-57927438D02*
X143842969Y-57975057D01*
X143842969Y-57975057D02*
X143890588Y-58070295D01*
X143890588Y-58070295D02*
X143890588Y-58165533D01*
X143890588Y-58165533D02*
X143842969Y-58260771D01*
X143842969Y-58260771D02*
X143795350Y-58308390D01*
X143795350Y-58308390D02*
X143700112Y-58356009D01*
X143700112Y-58356009D02*
X143366779Y-58356009D01*
X144366779Y-57879819D02*
X144366779Y-58689342D01*
X144366779Y-58689342D02*
X144414398Y-58784580D01*
X144414398Y-58784580D02*
X144462017Y-58832200D01*
X144462017Y-58832200D02*
X144557255Y-58879819D01*
X144557255Y-58879819D02*
X144747731Y-58879819D01*
X144747731Y-58879819D02*
X144842969Y-58832200D01*
X144842969Y-58832200D02*
X144890588Y-58784580D01*
X144890588Y-58784580D02*
X144938207Y-58689342D01*
X144938207Y-58689342D02*
X144938207Y-57879819D01*
X145271541Y-57879819D02*
X145842969Y-57879819D01*
X145557255Y-58879819D02*
X145557255Y-57879819D01*
X146033446Y-57879819D02*
X146604874Y-57879819D01*
X146319160Y-58879819D02*
X146319160Y-57879819D01*
X147128684Y-57879819D02*
X147319160Y-57879819D01*
X147319160Y-57879819D02*
X147414398Y-57927438D01*
X147414398Y-57927438D02*
X147509636Y-58022676D01*
X147509636Y-58022676D02*
X147557255Y-58213152D01*
X147557255Y-58213152D02*
X147557255Y-58546485D01*
X147557255Y-58546485D02*
X147509636Y-58736961D01*
X147509636Y-58736961D02*
X147414398Y-58832200D01*
X147414398Y-58832200D02*
X147319160Y-58879819D01*
X147319160Y-58879819D02*
X147128684Y-58879819D01*
X147128684Y-58879819D02*
X147033446Y-58832200D01*
X147033446Y-58832200D02*
X146938208Y-58736961D01*
X146938208Y-58736961D02*
X146890589Y-58546485D01*
X146890589Y-58546485D02*
X146890589Y-58213152D01*
X146890589Y-58213152D02*
X146938208Y-58022676D01*
X146938208Y-58022676D02*
X147033446Y-57927438D01*
X147033446Y-57927438D02*
X147128684Y-57879819D01*
X147985827Y-58879819D02*
X147985827Y-57879819D01*
X147985827Y-57879819D02*
X148557255Y-58879819D01*
X148557255Y-58879819D02*
X148557255Y-57879819D01*
X158067255Y-57039819D02*
X158257731Y-57039819D01*
X158257731Y-57039819D02*
X158352969Y-57087438D01*
X158352969Y-57087438D02*
X158448207Y-57182676D01*
X158448207Y-57182676D02*
X158495826Y-57373152D01*
X158495826Y-57373152D02*
X158495826Y-57706485D01*
X158495826Y-57706485D02*
X158448207Y-57896961D01*
X158448207Y-57896961D02*
X158352969Y-57992200D01*
X158352969Y-57992200D02*
X158257731Y-58039819D01*
X158257731Y-58039819D02*
X158067255Y-58039819D01*
X158067255Y-58039819D02*
X157972017Y-57992200D01*
X157972017Y-57992200D02*
X157876779Y-57896961D01*
X157876779Y-57896961D02*
X157829160Y-57706485D01*
X157829160Y-57706485D02*
X157829160Y-57373152D01*
X157829160Y-57373152D02*
X157876779Y-57182676D01*
X157876779Y-57182676D02*
X157972017Y-57087438D01*
X157972017Y-57087438D02*
X158067255Y-57039819D01*
X158924398Y-57039819D02*
X158924398Y-57849342D01*
X158924398Y-57849342D02*
X158972017Y-57944580D01*
X158972017Y-57944580D02*
X159019636Y-57992200D01*
X159019636Y-57992200D02*
X159114874Y-58039819D01*
X159114874Y-58039819D02*
X159305350Y-58039819D01*
X159305350Y-58039819D02*
X159400588Y-57992200D01*
X159400588Y-57992200D02*
X159448207Y-57944580D01*
X159448207Y-57944580D02*
X159495826Y-57849342D01*
X159495826Y-57849342D02*
X159495826Y-57039819D01*
X159829160Y-57039819D02*
X160400588Y-57039819D01*
X160114874Y-58039819D02*
X160114874Y-57039819D01*
X160733922Y-58039819D02*
X160733922Y-57039819D01*
X160733922Y-57039819D02*
X161114874Y-57039819D01*
X161114874Y-57039819D02*
X161210112Y-57087438D01*
X161210112Y-57087438D02*
X161257731Y-57135057D01*
X161257731Y-57135057D02*
X161305350Y-57230295D01*
X161305350Y-57230295D02*
X161305350Y-57373152D01*
X161305350Y-57373152D02*
X161257731Y-57468390D01*
X161257731Y-57468390D02*
X161210112Y-57516009D01*
X161210112Y-57516009D02*
X161114874Y-57563628D01*
X161114874Y-57563628D02*
X160733922Y-57563628D01*
X161733922Y-57039819D02*
X161733922Y-57849342D01*
X161733922Y-57849342D02*
X161781541Y-57944580D01*
X161781541Y-57944580D02*
X161829160Y-57992200D01*
X161829160Y-57992200D02*
X161924398Y-58039819D01*
X161924398Y-58039819D02*
X162114874Y-58039819D01*
X162114874Y-58039819D02*
X162210112Y-57992200D01*
X162210112Y-57992200D02*
X162257731Y-57944580D01*
X162257731Y-57944580D02*
X162305350Y-57849342D01*
X162305350Y-57849342D02*
X162305350Y-57039819D01*
X162638684Y-57039819D02*
X163210112Y-57039819D01*
X162924398Y-58039819D02*
X162924398Y-57039819D01*
X136086779Y-57009875D02*
X136086779Y-56009875D01*
X136562969Y-57009875D02*
X136562969Y-56009875D01*
X136562969Y-56009875D02*
X137134397Y-57009875D01*
X137134397Y-57009875D02*
X137134397Y-56009875D01*
X137610588Y-56486065D02*
X137943921Y-56486065D01*
X138086778Y-57009875D02*
X137610588Y-57009875D01*
X137610588Y-57009875D02*
X137610588Y-56009875D01*
X137610588Y-56009875D02*
X138086778Y-56009875D01*
X139086778Y-57009875D02*
X138753445Y-56533684D01*
X138515350Y-57009875D02*
X138515350Y-56009875D01*
X138515350Y-56009875D02*
X138896302Y-56009875D01*
X138896302Y-56009875D02*
X138991540Y-56057494D01*
X138991540Y-56057494D02*
X139039159Y-56105113D01*
X139039159Y-56105113D02*
X139086778Y-56200351D01*
X139086778Y-56200351D02*
X139086778Y-56343208D01*
X139086778Y-56343208D02*
X139039159Y-56438446D01*
X139039159Y-56438446D02*
X138991540Y-56486065D01*
X138991540Y-56486065D02*
X138896302Y-56533684D01*
X138896302Y-56533684D02*
X138515350Y-56533684D01*
X139372493Y-56009875D02*
X139943921Y-56009875D01*
X139658207Y-57009875D02*
X139658207Y-56009875D01*
X140277255Y-57009875D02*
X140277255Y-56009875D01*
X140705826Y-56724160D02*
X141182016Y-56724160D01*
X140610588Y-57009875D02*
X140943921Y-56009875D01*
X140943921Y-56009875D02*
X141277254Y-57009875D01*
X114666779Y-58009819D02*
X114666779Y-57009819D01*
X115142969Y-58009819D02*
X115142969Y-57009819D01*
X115142969Y-57009819D02*
X115714397Y-58009819D01*
X115714397Y-58009819D02*
X115714397Y-57009819D01*
X116190588Y-58009819D02*
X116190588Y-57009819D01*
X116190588Y-57009819D02*
X116571540Y-57009819D01*
X116571540Y-57009819D02*
X116666778Y-57057438D01*
X116666778Y-57057438D02*
X116714397Y-57105057D01*
X116714397Y-57105057D02*
X116762016Y-57200295D01*
X116762016Y-57200295D02*
X116762016Y-57343152D01*
X116762016Y-57343152D02*
X116714397Y-57438390D01*
X116714397Y-57438390D02*
X116666778Y-57486009D01*
X116666778Y-57486009D02*
X116571540Y-57533628D01*
X116571540Y-57533628D02*
X116190588Y-57533628D01*
X117190588Y-57009819D02*
X117190588Y-57819342D01*
X117190588Y-57819342D02*
X117238207Y-57914580D01*
X117238207Y-57914580D02*
X117285826Y-57962200D01*
X117285826Y-57962200D02*
X117381064Y-58009819D01*
X117381064Y-58009819D02*
X117571540Y-58009819D01*
X117571540Y-58009819D02*
X117666778Y-57962200D01*
X117666778Y-57962200D02*
X117714397Y-57914580D01*
X117714397Y-57914580D02*
X117762016Y-57819342D01*
X117762016Y-57819342D02*
X117762016Y-57009819D01*
X118095350Y-57009819D02*
X118666778Y-57009819D01*
X118381064Y-58009819D02*
X118381064Y-57009819D01*
X152200112Y-57366009D02*
X152342969Y-57413628D01*
X152342969Y-57413628D02*
X152390588Y-57461247D01*
X152390588Y-57461247D02*
X152438207Y-57556485D01*
X152438207Y-57556485D02*
X152438207Y-57699342D01*
X152438207Y-57699342D02*
X152390588Y-57794580D01*
X152390588Y-57794580D02*
X152342969Y-57842200D01*
X152342969Y-57842200D02*
X152247731Y-57889819D01*
X152247731Y-57889819D02*
X151866779Y-57889819D01*
X151866779Y-57889819D02*
X151866779Y-56889819D01*
X151866779Y-56889819D02*
X152200112Y-56889819D01*
X152200112Y-56889819D02*
X152295350Y-56937438D01*
X152295350Y-56937438D02*
X152342969Y-56985057D01*
X152342969Y-56985057D02*
X152390588Y-57080295D01*
X152390588Y-57080295D02*
X152390588Y-57175533D01*
X152390588Y-57175533D02*
X152342969Y-57270771D01*
X152342969Y-57270771D02*
X152295350Y-57318390D01*
X152295350Y-57318390D02*
X152200112Y-57366009D01*
X152200112Y-57366009D02*
X151866779Y-57366009D01*
X153057255Y-56889819D02*
X153247731Y-56889819D01*
X153247731Y-56889819D02*
X153342969Y-56937438D01*
X153342969Y-56937438D02*
X153438207Y-57032676D01*
X153438207Y-57032676D02*
X153485826Y-57223152D01*
X153485826Y-57223152D02*
X153485826Y-57556485D01*
X153485826Y-57556485D02*
X153438207Y-57746961D01*
X153438207Y-57746961D02*
X153342969Y-57842200D01*
X153342969Y-57842200D02*
X153247731Y-57889819D01*
X153247731Y-57889819D02*
X153057255Y-57889819D01*
X153057255Y-57889819D02*
X152962017Y-57842200D01*
X152962017Y-57842200D02*
X152866779Y-57746961D01*
X152866779Y-57746961D02*
X152819160Y-57556485D01*
X152819160Y-57556485D02*
X152819160Y-57223152D01*
X152819160Y-57223152D02*
X152866779Y-57032676D01*
X152866779Y-57032676D02*
X152962017Y-56937438D01*
X152962017Y-56937438D02*
X153057255Y-56889819D01*
X153771541Y-56889819D02*
X154342969Y-56889819D01*
X154057255Y-57889819D02*
X154057255Y-56889819D01*
X154628684Y-57842200D02*
X154771541Y-57889819D01*
X154771541Y-57889819D02*
X155009636Y-57889819D01*
X155009636Y-57889819D02*
X155104874Y-57842200D01*
X155104874Y-57842200D02*
X155152493Y-57794580D01*
X155152493Y-57794580D02*
X155200112Y-57699342D01*
X155200112Y-57699342D02*
X155200112Y-57604104D01*
X155200112Y-57604104D02*
X155152493Y-57508866D01*
X155152493Y-57508866D02*
X155104874Y-57461247D01*
X155104874Y-57461247D02*
X155009636Y-57413628D01*
X155009636Y-57413628D02*
X154819160Y-57366009D01*
X154819160Y-57366009D02*
X154723922Y-57318390D01*
X154723922Y-57318390D02*
X154676303Y-57270771D01*
X154676303Y-57270771D02*
X154628684Y-57175533D01*
X154628684Y-57175533D02*
X154628684Y-57080295D01*
X154628684Y-57080295D02*
X154676303Y-56985057D01*
X154676303Y-56985057D02*
X154723922Y-56937438D01*
X154723922Y-56937438D02*
X154819160Y-56889819D01*
X154819160Y-56889819D02*
X155057255Y-56889819D01*
X155057255Y-56889819D02*
X155200112Y-56937438D01*
X133503904Y-69500057D02*
X133408666Y-69452438D01*
X133408666Y-69452438D02*
X133313428Y-69357200D01*
X133313428Y-69357200D02*
X133170571Y-69214342D01*
X133170571Y-69214342D02*
X133075333Y-69166723D01*
X133075333Y-69166723D02*
X132980095Y-69166723D01*
X133027714Y-69404819D02*
X132932476Y-69357200D01*
X132932476Y-69357200D02*
X132837238Y-69261961D01*
X132837238Y-69261961D02*
X132789619Y-69071485D01*
X132789619Y-69071485D02*
X132789619Y-68738152D01*
X132789619Y-68738152D02*
X132837238Y-68547676D01*
X132837238Y-68547676D02*
X132932476Y-68452438D01*
X132932476Y-68452438D02*
X133027714Y-68404819D01*
X133027714Y-68404819D02*
X133218190Y-68404819D01*
X133218190Y-68404819D02*
X133313428Y-68452438D01*
X133313428Y-68452438D02*
X133408666Y-68547676D01*
X133408666Y-68547676D02*
X133456285Y-68738152D01*
X133456285Y-68738152D02*
X133456285Y-69071485D01*
X133456285Y-69071485D02*
X133408666Y-69261961D01*
X133408666Y-69261961D02*
X133313428Y-69357200D01*
X133313428Y-69357200D02*
X133218190Y-69404819D01*
X133218190Y-69404819D02*
X133027714Y-69404819D01*
X133789619Y-68404819D02*
X134408666Y-68404819D01*
X134408666Y-68404819D02*
X134075333Y-68785771D01*
X134075333Y-68785771D02*
X134218190Y-68785771D01*
X134218190Y-68785771D02*
X134313428Y-68833390D01*
X134313428Y-68833390D02*
X134361047Y-68881009D01*
X134361047Y-68881009D02*
X134408666Y-68976247D01*
X134408666Y-68976247D02*
X134408666Y-69214342D01*
X134408666Y-69214342D02*
X134361047Y-69309580D01*
X134361047Y-69309580D02*
X134313428Y-69357200D01*
X134313428Y-69357200D02*
X134218190Y-69404819D01*
X134218190Y-69404819D02*
X133932476Y-69404819D01*
X133932476Y-69404819D02*
X133837238Y-69357200D01*
X133837238Y-69357200D02*
X133789619Y-69309580D01*
X140904571Y-69670057D02*
X140809333Y-69622438D01*
X140809333Y-69622438D02*
X140714095Y-69527200D01*
X140714095Y-69527200D02*
X140571238Y-69384342D01*
X140571238Y-69384342D02*
X140476000Y-69336723D01*
X140476000Y-69336723D02*
X140380762Y-69336723D01*
X140428381Y-69574819D02*
X140333143Y-69527200D01*
X140333143Y-69527200D02*
X140237905Y-69431961D01*
X140237905Y-69431961D02*
X140190286Y-69241485D01*
X140190286Y-69241485D02*
X140190286Y-68908152D01*
X140190286Y-68908152D02*
X140237905Y-68717676D01*
X140237905Y-68717676D02*
X140333143Y-68622438D01*
X140333143Y-68622438D02*
X140428381Y-68574819D01*
X140428381Y-68574819D02*
X140618857Y-68574819D01*
X140618857Y-68574819D02*
X140714095Y-68622438D01*
X140714095Y-68622438D02*
X140809333Y-68717676D01*
X140809333Y-68717676D02*
X140856952Y-68908152D01*
X140856952Y-68908152D02*
X140856952Y-69241485D01*
X140856952Y-69241485D02*
X140809333Y-69431961D01*
X140809333Y-69431961D02*
X140714095Y-69527200D01*
X140714095Y-69527200D02*
X140618857Y-69574819D01*
X140618857Y-69574819D02*
X140428381Y-69574819D01*
X141714095Y-68908152D02*
X141714095Y-69574819D01*
X141476000Y-68527200D02*
X141237905Y-69241485D01*
X141237905Y-69241485D02*
X141856952Y-69241485D01*
X163035571Y-69540057D02*
X162940333Y-69492438D01*
X162940333Y-69492438D02*
X162845095Y-69397200D01*
X162845095Y-69397200D02*
X162702238Y-69254342D01*
X162702238Y-69254342D02*
X162607000Y-69206723D01*
X162607000Y-69206723D02*
X162511762Y-69206723D01*
X162559381Y-69444819D02*
X162464143Y-69397200D01*
X162464143Y-69397200D02*
X162368905Y-69301961D01*
X162368905Y-69301961D02*
X162321286Y-69111485D01*
X162321286Y-69111485D02*
X162321286Y-68778152D01*
X162321286Y-68778152D02*
X162368905Y-68587676D01*
X162368905Y-68587676D02*
X162464143Y-68492438D01*
X162464143Y-68492438D02*
X162559381Y-68444819D01*
X162559381Y-68444819D02*
X162749857Y-68444819D01*
X162749857Y-68444819D02*
X162845095Y-68492438D01*
X162845095Y-68492438D02*
X162940333Y-68587676D01*
X162940333Y-68587676D02*
X162987952Y-68778152D01*
X162987952Y-68778152D02*
X162987952Y-69111485D01*
X162987952Y-69111485D02*
X162940333Y-69301961D01*
X162940333Y-69301961D02*
X162845095Y-69397200D01*
X162845095Y-69397200D02*
X162749857Y-69444819D01*
X162749857Y-69444819D02*
X162559381Y-69444819D01*
X163321286Y-68444819D02*
X163987952Y-68444819D01*
X163987952Y-68444819D02*
X163559381Y-69444819D01*
X155714071Y-69720057D02*
X155618833Y-69672438D01*
X155618833Y-69672438D02*
X155523595Y-69577200D01*
X155523595Y-69577200D02*
X155380738Y-69434342D01*
X155380738Y-69434342D02*
X155285500Y-69386723D01*
X155285500Y-69386723D02*
X155190262Y-69386723D01*
X155237881Y-69624819D02*
X155142643Y-69577200D01*
X155142643Y-69577200D02*
X155047405Y-69481961D01*
X155047405Y-69481961D02*
X154999786Y-69291485D01*
X154999786Y-69291485D02*
X154999786Y-68958152D01*
X154999786Y-68958152D02*
X155047405Y-68767676D01*
X155047405Y-68767676D02*
X155142643Y-68672438D01*
X155142643Y-68672438D02*
X155237881Y-68624819D01*
X155237881Y-68624819D02*
X155428357Y-68624819D01*
X155428357Y-68624819D02*
X155523595Y-68672438D01*
X155523595Y-68672438D02*
X155618833Y-68767676D01*
X155618833Y-68767676D02*
X155666452Y-68958152D01*
X155666452Y-68958152D02*
X155666452Y-69291485D01*
X155666452Y-69291485D02*
X155618833Y-69481961D01*
X155618833Y-69481961D02*
X155523595Y-69577200D01*
X155523595Y-69577200D02*
X155428357Y-69624819D01*
X155428357Y-69624819D02*
X155237881Y-69624819D01*
X156523595Y-68624819D02*
X156333119Y-68624819D01*
X156333119Y-68624819D02*
X156237881Y-68672438D01*
X156237881Y-68672438D02*
X156190262Y-68720057D01*
X156190262Y-68720057D02*
X156095024Y-68862914D01*
X156095024Y-68862914D02*
X156047405Y-69053390D01*
X156047405Y-69053390D02*
X156047405Y-69434342D01*
X156047405Y-69434342D02*
X156095024Y-69529580D01*
X156095024Y-69529580D02*
X156142643Y-69577200D01*
X156142643Y-69577200D02*
X156237881Y-69624819D01*
X156237881Y-69624819D02*
X156428357Y-69624819D01*
X156428357Y-69624819D02*
X156523595Y-69577200D01*
X156523595Y-69577200D02*
X156571214Y-69529580D01*
X156571214Y-69529580D02*
X156618833Y-69434342D01*
X156618833Y-69434342D02*
X156618833Y-69196247D01*
X156618833Y-69196247D02*
X156571214Y-69101009D01*
X156571214Y-69101009D02*
X156523595Y-69053390D01*
X156523595Y-69053390D02*
X156428357Y-69005771D01*
X156428357Y-69005771D02*
X156237881Y-69005771D01*
X156237881Y-69005771D02*
X156142643Y-69053390D01*
X156142643Y-69053390D02*
X156095024Y-69101009D01*
X156095024Y-69101009D02*
X156047405Y-69196247D01*
X111156666Y-66234819D02*
X111156666Y-66949104D01*
X111156666Y-66949104D02*
X111109047Y-67091961D01*
X111109047Y-67091961D02*
X111013809Y-67187200D01*
X111013809Y-67187200D02*
X110870952Y-67234819D01*
X110870952Y-67234819D02*
X110775714Y-67234819D01*
X112156666Y-67234819D02*
X111585238Y-67234819D01*
X111870952Y-67234819D02*
X111870952Y-66234819D01*
X111870952Y-66234819D02*
X111775714Y-66377676D01*
X111775714Y-66377676D02*
X111680476Y-66472914D01*
X111680476Y-66472914D02*
X111585238Y-66520533D01*
D11*
X160006667Y-82314318D02*
X160006667Y-83221461D01*
X160006667Y-83221461D02*
X159946190Y-83402889D01*
X159946190Y-83402889D02*
X159825238Y-83523842D01*
X159825238Y-83523842D02*
X159643809Y-83584318D01*
X159643809Y-83584318D02*
X159522857Y-83584318D01*
X160490476Y-82314318D02*
X161276667Y-82314318D01*
X161276667Y-82314318D02*
X160853333Y-82798127D01*
X160853333Y-82798127D02*
X161034762Y-82798127D01*
X161034762Y-82798127D02*
X161155714Y-82858603D01*
X161155714Y-82858603D02*
X161216190Y-82919080D01*
X161216190Y-82919080D02*
X161276667Y-83040032D01*
X161276667Y-83040032D02*
X161276667Y-83342413D01*
X161276667Y-83342413D02*
X161216190Y-83463365D01*
X161216190Y-83463365D02*
X161155714Y-83523842D01*
X161155714Y-83523842D02*
X161034762Y-83584318D01*
X161034762Y-83584318D02*
X160671905Y-83584318D01*
X160671905Y-83584318D02*
X160550952Y-83523842D01*
X160550952Y-83523842D02*
X160490476Y-83463365D01*
D12*
X118592580Y-74533333D02*
X119068771Y-74200000D01*
X118592580Y-73961905D02*
X119592580Y-73961905D01*
X119592580Y-73961905D02*
X119592580Y-74342857D01*
X119592580Y-74342857D02*
X119544961Y-74438095D01*
X119544961Y-74438095D02*
X119497342Y-74485714D01*
X119497342Y-74485714D02*
X119402104Y-74533333D01*
X119402104Y-74533333D02*
X119259247Y-74533333D01*
X119259247Y-74533333D02*
X119164009Y-74485714D01*
X119164009Y-74485714D02*
X119116390Y-74438095D01*
X119116390Y-74438095D02*
X119068771Y-74342857D01*
X119068771Y-74342857D02*
X119068771Y-73961905D01*
X118592580Y-75485714D02*
X118592580Y-74914286D01*
X118592580Y-75200000D02*
X119592580Y-75200000D01*
X119592580Y-75200000D02*
X119449723Y-75104762D01*
X119449723Y-75104762D02*
X119354485Y-75009524D01*
X119354485Y-75009524D02*
X119306866Y-74914286D01*
X148193333Y-64827419D02*
X147860000Y-64351228D01*
X147621905Y-64827419D02*
X147621905Y-63827419D01*
X147621905Y-63827419D02*
X148002857Y-63827419D01*
X148002857Y-63827419D02*
X148098095Y-63875038D01*
X148098095Y-63875038D02*
X148145714Y-63922657D01*
X148145714Y-63922657D02*
X148193333Y-64017895D01*
X148193333Y-64017895D02*
X148193333Y-64160752D01*
X148193333Y-64160752D02*
X148145714Y-64255990D01*
X148145714Y-64255990D02*
X148098095Y-64303609D01*
X148098095Y-64303609D02*
X148002857Y-64351228D01*
X148002857Y-64351228D02*
X147621905Y-64351228D01*
X149145714Y-64827419D02*
X148574286Y-64827419D01*
X148860000Y-64827419D02*
X148860000Y-63827419D01*
X148860000Y-63827419D02*
X148764762Y-63970276D01*
X148764762Y-63970276D02*
X148669524Y-64065514D01*
X148669524Y-64065514D02*
X148574286Y-64113133D01*
X149764762Y-63827419D02*
X149860000Y-63827419D01*
X149860000Y-63827419D02*
X149955238Y-63875038D01*
X149955238Y-63875038D02*
X150002857Y-63922657D01*
X150002857Y-63922657D02*
X150050476Y-64017895D01*
X150050476Y-64017895D02*
X150098095Y-64208371D01*
X150098095Y-64208371D02*
X150098095Y-64446466D01*
X150098095Y-64446466D02*
X150050476Y-64636942D01*
X150050476Y-64636942D02*
X150002857Y-64732180D01*
X150002857Y-64732180D02*
X149955238Y-64779800D01*
X149955238Y-64779800D02*
X149860000Y-64827419D01*
X149860000Y-64827419D02*
X149764762Y-64827419D01*
X149764762Y-64827419D02*
X149669524Y-64779800D01*
X149669524Y-64779800D02*
X149621905Y-64732180D01*
X149621905Y-64732180D02*
X149574286Y-64636942D01*
X149574286Y-64636942D02*
X149526667Y-64446466D01*
X149526667Y-64446466D02*
X149526667Y-64208371D01*
X149526667Y-64208371D02*
X149574286Y-64017895D01*
X149574286Y-64017895D02*
X149621905Y-63922657D01*
X149621905Y-63922657D02*
X149669524Y-63875038D01*
X149669524Y-63875038D02*
X149764762Y-63827419D01*
X117896905Y-62359419D02*
X117896905Y-61359419D01*
X117896905Y-61359419D02*
X118135000Y-61359419D01*
X118135000Y-61359419D02*
X118277857Y-61407038D01*
X118277857Y-61407038D02*
X118373095Y-61502276D01*
X118373095Y-61502276D02*
X118420714Y-61597514D01*
X118420714Y-61597514D02*
X118468333Y-61787990D01*
X118468333Y-61787990D02*
X118468333Y-61930847D01*
X118468333Y-61930847D02*
X118420714Y-62121323D01*
X118420714Y-62121323D02*
X118373095Y-62216561D01*
X118373095Y-62216561D02*
X118277857Y-62311800D01*
X118277857Y-62311800D02*
X118135000Y-62359419D01*
X118135000Y-62359419D02*
X117896905Y-62359419D01*
X119420714Y-62359419D02*
X118849286Y-62359419D01*
X119135000Y-62359419D02*
X119135000Y-61359419D01*
X119135000Y-61359419D02*
X119039762Y-61502276D01*
X119039762Y-61502276D02*
X118944524Y-61597514D01*
X118944524Y-61597514D02*
X118849286Y-61645133D01*
X118448333Y-64557419D02*
X118115000Y-64081228D01*
X117876905Y-64557419D02*
X117876905Y-63557419D01*
X117876905Y-63557419D02*
X118257857Y-63557419D01*
X118257857Y-63557419D02*
X118353095Y-63605038D01*
X118353095Y-63605038D02*
X118400714Y-63652657D01*
X118400714Y-63652657D02*
X118448333Y-63747895D01*
X118448333Y-63747895D02*
X118448333Y-63890752D01*
X118448333Y-63890752D02*
X118400714Y-63985990D01*
X118400714Y-63985990D02*
X118353095Y-64033609D01*
X118353095Y-64033609D02*
X118257857Y-64081228D01*
X118257857Y-64081228D02*
X117876905Y-64081228D01*
X118829286Y-63652657D02*
X118876905Y-63605038D01*
X118876905Y-63605038D02*
X118972143Y-63557419D01*
X118972143Y-63557419D02*
X119210238Y-63557419D01*
X119210238Y-63557419D02*
X119305476Y-63605038D01*
X119305476Y-63605038D02*
X119353095Y-63652657D01*
X119353095Y-63652657D02*
X119400714Y-63747895D01*
X119400714Y-63747895D02*
X119400714Y-63843133D01*
X119400714Y-63843133D02*
X119353095Y-63985990D01*
X119353095Y-63985990D02*
X118781667Y-64557419D01*
X118781667Y-64557419D02*
X119400714Y-64557419D01*
X133400913Y-74833333D02*
X133877104Y-74500000D01*
X133400913Y-74261905D02*
X134400913Y-74261905D01*
X134400913Y-74261905D02*
X134400913Y-74642857D01*
X134400913Y-74642857D02*
X134353294Y-74738095D01*
X134353294Y-74738095D02*
X134305675Y-74785714D01*
X134305675Y-74785714D02*
X134210437Y-74833333D01*
X134210437Y-74833333D02*
X134067580Y-74833333D01*
X134067580Y-74833333D02*
X133972342Y-74785714D01*
X133972342Y-74785714D02*
X133924723Y-74738095D01*
X133924723Y-74738095D02*
X133877104Y-74642857D01*
X133877104Y-74642857D02*
X133877104Y-74261905D01*
X134400913Y-75738095D02*
X134400913Y-75261905D01*
X134400913Y-75261905D02*
X133924723Y-75214286D01*
X133924723Y-75214286D02*
X133972342Y-75261905D01*
X133972342Y-75261905D02*
X134019961Y-75357143D01*
X134019961Y-75357143D02*
X134019961Y-75595238D01*
X134019961Y-75595238D02*
X133972342Y-75690476D01*
X133972342Y-75690476D02*
X133924723Y-75738095D01*
X133924723Y-75738095D02*
X133829485Y-75785714D01*
X133829485Y-75785714D02*
X133591390Y-75785714D01*
X133591390Y-75785714D02*
X133496152Y-75738095D01*
X133496152Y-75738095D02*
X133448533Y-75690476D01*
X133448533Y-75690476D02*
X133400913Y-75595238D01*
X133400913Y-75595238D02*
X133400913Y-75357143D01*
X133400913Y-75357143D02*
X133448533Y-75261905D01*
X133448533Y-75261905D02*
X133496152Y-75214286D01*
X140754333Y-64817419D02*
X140421000Y-64341228D01*
X140182905Y-64817419D02*
X140182905Y-63817419D01*
X140182905Y-63817419D02*
X140563857Y-63817419D01*
X140563857Y-63817419D02*
X140659095Y-63865038D01*
X140659095Y-63865038D02*
X140706714Y-63912657D01*
X140706714Y-63912657D02*
X140754333Y-64007895D01*
X140754333Y-64007895D02*
X140754333Y-64150752D01*
X140754333Y-64150752D02*
X140706714Y-64245990D01*
X140706714Y-64245990D02*
X140659095Y-64293609D01*
X140659095Y-64293609D02*
X140563857Y-64341228D01*
X140563857Y-64341228D02*
X140182905Y-64341228D01*
X141325762Y-64245990D02*
X141230524Y-64198371D01*
X141230524Y-64198371D02*
X141182905Y-64150752D01*
X141182905Y-64150752D02*
X141135286Y-64055514D01*
X141135286Y-64055514D02*
X141135286Y-64007895D01*
X141135286Y-64007895D02*
X141182905Y-63912657D01*
X141182905Y-63912657D02*
X141230524Y-63865038D01*
X141230524Y-63865038D02*
X141325762Y-63817419D01*
X141325762Y-63817419D02*
X141516238Y-63817419D01*
X141516238Y-63817419D02*
X141611476Y-63865038D01*
X141611476Y-63865038D02*
X141659095Y-63912657D01*
X141659095Y-63912657D02*
X141706714Y-64007895D01*
X141706714Y-64007895D02*
X141706714Y-64055514D01*
X141706714Y-64055514D02*
X141659095Y-64150752D01*
X141659095Y-64150752D02*
X141611476Y-64198371D01*
X141611476Y-64198371D02*
X141516238Y-64245990D01*
X141516238Y-64245990D02*
X141325762Y-64245990D01*
X141325762Y-64245990D02*
X141230524Y-64293609D01*
X141230524Y-64293609D02*
X141182905Y-64341228D01*
X141182905Y-64341228D02*
X141135286Y-64436466D01*
X141135286Y-64436466D02*
X141135286Y-64626942D01*
X141135286Y-64626942D02*
X141182905Y-64722180D01*
X141182905Y-64722180D02*
X141230524Y-64769800D01*
X141230524Y-64769800D02*
X141325762Y-64817419D01*
X141325762Y-64817419D02*
X141516238Y-64817419D01*
X141516238Y-64817419D02*
X141611476Y-64769800D01*
X141611476Y-64769800D02*
X141659095Y-64722180D01*
X141659095Y-64722180D02*
X141706714Y-64626942D01*
X141706714Y-64626942D02*
X141706714Y-64436466D01*
X141706714Y-64436466D02*
X141659095Y-64341228D01*
X141659095Y-64341228D02*
X141611476Y-64293609D01*
X141611476Y-64293609D02*
X141516238Y-64245990D01*
X147641905Y-62597419D02*
X147641905Y-61597419D01*
X147641905Y-61597419D02*
X147880000Y-61597419D01*
X147880000Y-61597419D02*
X148022857Y-61645038D01*
X148022857Y-61645038D02*
X148118095Y-61740276D01*
X148118095Y-61740276D02*
X148165714Y-61835514D01*
X148165714Y-61835514D02*
X148213333Y-62025990D01*
X148213333Y-62025990D02*
X148213333Y-62168847D01*
X148213333Y-62168847D02*
X148165714Y-62359323D01*
X148165714Y-62359323D02*
X148118095Y-62454561D01*
X148118095Y-62454561D02*
X148022857Y-62549800D01*
X148022857Y-62549800D02*
X147880000Y-62597419D01*
X147880000Y-62597419D02*
X147641905Y-62597419D01*
X149118095Y-61597419D02*
X148641905Y-61597419D01*
X148641905Y-61597419D02*
X148594286Y-62073609D01*
X148594286Y-62073609D02*
X148641905Y-62025990D01*
X148641905Y-62025990D02*
X148737143Y-61978371D01*
X148737143Y-61978371D02*
X148975238Y-61978371D01*
X148975238Y-61978371D02*
X149070476Y-62025990D01*
X149070476Y-62025990D02*
X149118095Y-62073609D01*
X149118095Y-62073609D02*
X149165714Y-62168847D01*
X149165714Y-62168847D02*
X149165714Y-62406942D01*
X149165714Y-62406942D02*
X149118095Y-62502180D01*
X149118095Y-62502180D02*
X149070476Y-62549800D01*
X149070476Y-62549800D02*
X148975238Y-62597419D01*
X148975238Y-62597419D02*
X148737143Y-62597419D01*
X148737143Y-62597419D02*
X148641905Y-62549800D01*
X148641905Y-62549800D02*
X148594286Y-62502180D01*
X162333905Y-62409419D02*
X162333905Y-61409419D01*
X162333905Y-61409419D02*
X162572000Y-61409419D01*
X162572000Y-61409419D02*
X162714857Y-61457038D01*
X162714857Y-61457038D02*
X162810095Y-61552276D01*
X162810095Y-61552276D02*
X162857714Y-61647514D01*
X162857714Y-61647514D02*
X162905333Y-61837990D01*
X162905333Y-61837990D02*
X162905333Y-61980847D01*
X162905333Y-61980847D02*
X162857714Y-62171323D01*
X162857714Y-62171323D02*
X162810095Y-62266561D01*
X162810095Y-62266561D02*
X162714857Y-62361800D01*
X162714857Y-62361800D02*
X162572000Y-62409419D01*
X162572000Y-62409419D02*
X162333905Y-62409419D01*
X163238667Y-61409419D02*
X163905333Y-61409419D01*
X163905333Y-61409419D02*
X163476762Y-62409419D01*
X140202905Y-62707419D02*
X140202905Y-61707419D01*
X140202905Y-61707419D02*
X140441000Y-61707419D01*
X140441000Y-61707419D02*
X140583857Y-61755038D01*
X140583857Y-61755038D02*
X140679095Y-61850276D01*
X140679095Y-61850276D02*
X140726714Y-61945514D01*
X140726714Y-61945514D02*
X140774333Y-62135990D01*
X140774333Y-62135990D02*
X140774333Y-62278847D01*
X140774333Y-62278847D02*
X140726714Y-62469323D01*
X140726714Y-62469323D02*
X140679095Y-62564561D01*
X140679095Y-62564561D02*
X140583857Y-62659800D01*
X140583857Y-62659800D02*
X140441000Y-62707419D01*
X140441000Y-62707419D02*
X140202905Y-62707419D01*
X141631476Y-62040752D02*
X141631476Y-62707419D01*
X141393381Y-61659800D02*
X141155286Y-62374085D01*
X141155286Y-62374085D02*
X141774333Y-62374085D01*
X125899000Y-64817419D02*
X125565667Y-64341228D01*
X125327572Y-64817419D02*
X125327572Y-63817419D01*
X125327572Y-63817419D02*
X125708524Y-63817419D01*
X125708524Y-63817419D02*
X125803762Y-63865038D01*
X125803762Y-63865038D02*
X125851381Y-63912657D01*
X125851381Y-63912657D02*
X125899000Y-64007895D01*
X125899000Y-64007895D02*
X125899000Y-64150752D01*
X125899000Y-64150752D02*
X125851381Y-64245990D01*
X125851381Y-64245990D02*
X125803762Y-64293609D01*
X125803762Y-64293609D02*
X125708524Y-64341228D01*
X125708524Y-64341228D02*
X125327572Y-64341228D01*
X126756143Y-64150752D02*
X126756143Y-64817419D01*
X126518048Y-63769800D02*
X126279953Y-64484085D01*
X126279953Y-64484085D02*
X126899000Y-64484085D01*
X133353666Y-64527419D02*
X133020333Y-64051228D01*
X132782238Y-64527419D02*
X132782238Y-63527419D01*
X132782238Y-63527419D02*
X133163190Y-63527419D01*
X133163190Y-63527419D02*
X133258428Y-63575038D01*
X133258428Y-63575038D02*
X133306047Y-63622657D01*
X133306047Y-63622657D02*
X133353666Y-63717895D01*
X133353666Y-63717895D02*
X133353666Y-63860752D01*
X133353666Y-63860752D02*
X133306047Y-63955990D01*
X133306047Y-63955990D02*
X133258428Y-64003609D01*
X133258428Y-64003609D02*
X133163190Y-64051228D01*
X133163190Y-64051228D02*
X132782238Y-64051228D01*
X134210809Y-63527419D02*
X134020333Y-63527419D01*
X134020333Y-63527419D02*
X133925095Y-63575038D01*
X133925095Y-63575038D02*
X133877476Y-63622657D01*
X133877476Y-63622657D02*
X133782238Y-63765514D01*
X133782238Y-63765514D02*
X133734619Y-63955990D01*
X133734619Y-63955990D02*
X133734619Y-64336942D01*
X133734619Y-64336942D02*
X133782238Y-64432180D01*
X133782238Y-64432180D02*
X133829857Y-64479800D01*
X133829857Y-64479800D02*
X133925095Y-64527419D01*
X133925095Y-64527419D02*
X134115571Y-64527419D01*
X134115571Y-64527419D02*
X134210809Y-64479800D01*
X134210809Y-64479800D02*
X134258428Y-64432180D01*
X134258428Y-64432180D02*
X134306047Y-64336942D01*
X134306047Y-64336942D02*
X134306047Y-64098847D01*
X134306047Y-64098847D02*
X134258428Y-64003609D01*
X134258428Y-64003609D02*
X134210809Y-63955990D01*
X134210809Y-63955990D02*
X134115571Y-63908371D01*
X134115571Y-63908371D02*
X133925095Y-63908371D01*
X133925095Y-63908371D02*
X133829857Y-63955990D01*
X133829857Y-63955990D02*
X133782238Y-64003609D01*
X133782238Y-64003609D02*
X133734619Y-64098847D01*
X148184247Y-74583333D02*
X148660438Y-74250000D01*
X148184247Y-74011905D02*
X149184247Y-74011905D01*
X149184247Y-74011905D02*
X149184247Y-74392857D01*
X149184247Y-74392857D02*
X149136628Y-74488095D01*
X149136628Y-74488095D02*
X149089009Y-74535714D01*
X149089009Y-74535714D02*
X148993771Y-74583333D01*
X148993771Y-74583333D02*
X148850914Y-74583333D01*
X148850914Y-74583333D02*
X148755676Y-74535714D01*
X148755676Y-74535714D02*
X148708057Y-74488095D01*
X148708057Y-74488095D02*
X148660438Y-74392857D01*
X148660438Y-74392857D02*
X148660438Y-74011905D01*
X148184247Y-75059524D02*
X148184247Y-75250000D01*
X148184247Y-75250000D02*
X148231867Y-75345238D01*
X148231867Y-75345238D02*
X148279486Y-75392857D01*
X148279486Y-75392857D02*
X148422343Y-75488095D01*
X148422343Y-75488095D02*
X148612819Y-75535714D01*
X148612819Y-75535714D02*
X148993771Y-75535714D01*
X148993771Y-75535714D02*
X149089009Y-75488095D01*
X149089009Y-75488095D02*
X149136628Y-75440476D01*
X149136628Y-75440476D02*
X149184247Y-75345238D01*
X149184247Y-75345238D02*
X149184247Y-75154762D01*
X149184247Y-75154762D02*
X149136628Y-75059524D01*
X149136628Y-75059524D02*
X149089009Y-75011905D01*
X149089009Y-75011905D02*
X148993771Y-74964286D01*
X148993771Y-74964286D02*
X148755676Y-74964286D01*
X148755676Y-74964286D02*
X148660438Y-75011905D01*
X148660438Y-75011905D02*
X148612819Y-75059524D01*
X148612819Y-75059524D02*
X148565200Y-75154762D01*
X148565200Y-75154762D02*
X148565200Y-75345238D01*
X148565200Y-75345238D02*
X148612819Y-75440476D01*
X148612819Y-75440476D02*
X148660438Y-75488095D01*
X148660438Y-75488095D02*
X148755676Y-75535714D01*
X155872580Y-74297142D02*
X156348771Y-73963809D01*
X155872580Y-73725714D02*
X156872580Y-73725714D01*
X156872580Y-73725714D02*
X156872580Y-74106666D01*
X156872580Y-74106666D02*
X156824961Y-74201904D01*
X156824961Y-74201904D02*
X156777342Y-74249523D01*
X156777342Y-74249523D02*
X156682104Y-74297142D01*
X156682104Y-74297142D02*
X156539247Y-74297142D01*
X156539247Y-74297142D02*
X156444009Y-74249523D01*
X156444009Y-74249523D02*
X156396390Y-74201904D01*
X156396390Y-74201904D02*
X156348771Y-74106666D01*
X156348771Y-74106666D02*
X156348771Y-73725714D01*
X155872580Y-75249523D02*
X155872580Y-74678095D01*
X155872580Y-74963809D02*
X156872580Y-74963809D01*
X156872580Y-74963809D02*
X156729723Y-74868571D01*
X156729723Y-74868571D02*
X156634485Y-74773333D01*
X156634485Y-74773333D02*
X156586866Y-74678095D01*
X155872580Y-76201904D02*
X155872580Y-75630476D01*
X155872580Y-75916190D02*
X156872580Y-75916190D01*
X156872580Y-75916190D02*
X156729723Y-75820952D01*
X156729723Y-75820952D02*
X156634485Y-75725714D01*
X156634485Y-75725714D02*
X156586866Y-75630476D01*
X132802238Y-62509419D02*
X132802238Y-61509419D01*
X132802238Y-61509419D02*
X133040333Y-61509419D01*
X133040333Y-61509419D02*
X133183190Y-61557038D01*
X133183190Y-61557038D02*
X133278428Y-61652276D01*
X133278428Y-61652276D02*
X133326047Y-61747514D01*
X133326047Y-61747514D02*
X133373666Y-61937990D01*
X133373666Y-61937990D02*
X133373666Y-62080847D01*
X133373666Y-62080847D02*
X133326047Y-62271323D01*
X133326047Y-62271323D02*
X133278428Y-62366561D01*
X133278428Y-62366561D02*
X133183190Y-62461800D01*
X133183190Y-62461800D02*
X133040333Y-62509419D01*
X133040333Y-62509419D02*
X132802238Y-62509419D01*
X133707000Y-61509419D02*
X134326047Y-61509419D01*
X134326047Y-61509419D02*
X133992714Y-61890371D01*
X133992714Y-61890371D02*
X134135571Y-61890371D01*
X134135571Y-61890371D02*
X134230809Y-61937990D01*
X134230809Y-61937990D02*
X134278428Y-61985609D01*
X134278428Y-61985609D02*
X134326047Y-62080847D01*
X134326047Y-62080847D02*
X134326047Y-62318942D01*
X134326047Y-62318942D02*
X134278428Y-62414180D01*
X134278428Y-62414180D02*
X134230809Y-62461800D01*
X134230809Y-62461800D02*
X134135571Y-62509419D01*
X134135571Y-62509419D02*
X133849857Y-62509419D01*
X133849857Y-62509419D02*
X133754619Y-62461800D01*
X133754619Y-62461800D02*
X133707000Y-62414180D01*
X155012405Y-62509419D02*
X155012405Y-61509419D01*
X155012405Y-61509419D02*
X155250500Y-61509419D01*
X155250500Y-61509419D02*
X155393357Y-61557038D01*
X155393357Y-61557038D02*
X155488595Y-61652276D01*
X155488595Y-61652276D02*
X155536214Y-61747514D01*
X155536214Y-61747514D02*
X155583833Y-61937990D01*
X155583833Y-61937990D02*
X155583833Y-62080847D01*
X155583833Y-62080847D02*
X155536214Y-62271323D01*
X155536214Y-62271323D02*
X155488595Y-62366561D01*
X155488595Y-62366561D02*
X155393357Y-62461800D01*
X155393357Y-62461800D02*
X155250500Y-62509419D01*
X155250500Y-62509419D02*
X155012405Y-62509419D01*
X156440976Y-61509419D02*
X156250500Y-61509419D01*
X156250500Y-61509419D02*
X156155262Y-61557038D01*
X156155262Y-61557038D02*
X156107643Y-61604657D01*
X156107643Y-61604657D02*
X156012405Y-61747514D01*
X156012405Y-61747514D02*
X155964786Y-61937990D01*
X155964786Y-61937990D02*
X155964786Y-62318942D01*
X155964786Y-62318942D02*
X156012405Y-62414180D01*
X156012405Y-62414180D02*
X156060024Y-62461800D01*
X156060024Y-62461800D02*
X156155262Y-62509419D01*
X156155262Y-62509419D02*
X156345738Y-62509419D01*
X156345738Y-62509419D02*
X156440976Y-62461800D01*
X156440976Y-62461800D02*
X156488595Y-62414180D01*
X156488595Y-62414180D02*
X156536214Y-62318942D01*
X156536214Y-62318942D02*
X156536214Y-62080847D01*
X156536214Y-62080847D02*
X156488595Y-61985609D01*
X156488595Y-61985609D02*
X156440976Y-61937990D01*
X156440976Y-61937990D02*
X156345738Y-61890371D01*
X156345738Y-61890371D02*
X156155262Y-61890371D01*
X156155262Y-61890371D02*
X156060024Y-61937990D01*
X156060024Y-61937990D02*
X156012405Y-61985609D01*
X156012405Y-61985609D02*
X155964786Y-62080847D01*
D10*
X126049238Y-69470057D02*
X125954000Y-69422438D01*
X125954000Y-69422438D02*
X125858762Y-69327200D01*
X125858762Y-69327200D02*
X125715905Y-69184342D01*
X125715905Y-69184342D02*
X125620667Y-69136723D01*
X125620667Y-69136723D02*
X125525429Y-69136723D01*
X125573048Y-69374819D02*
X125477810Y-69327200D01*
X125477810Y-69327200D02*
X125382572Y-69231961D01*
X125382572Y-69231961D02*
X125334953Y-69041485D01*
X125334953Y-69041485D02*
X125334953Y-68708152D01*
X125334953Y-68708152D02*
X125382572Y-68517676D01*
X125382572Y-68517676D02*
X125477810Y-68422438D01*
X125477810Y-68422438D02*
X125573048Y-68374819D01*
X125573048Y-68374819D02*
X125763524Y-68374819D01*
X125763524Y-68374819D02*
X125858762Y-68422438D01*
X125858762Y-68422438D02*
X125954000Y-68517676D01*
X125954000Y-68517676D02*
X126001619Y-68708152D01*
X126001619Y-68708152D02*
X126001619Y-69041485D01*
X126001619Y-69041485D02*
X125954000Y-69231961D01*
X125954000Y-69231961D02*
X125858762Y-69327200D01*
X125858762Y-69327200D02*
X125763524Y-69374819D01*
X125763524Y-69374819D02*
X125573048Y-69374819D01*
X126382572Y-68470057D02*
X126430191Y-68422438D01*
X126430191Y-68422438D02*
X126525429Y-68374819D01*
X126525429Y-68374819D02*
X126763524Y-68374819D01*
X126763524Y-68374819D02*
X126858762Y-68422438D01*
X126858762Y-68422438D02*
X126906381Y-68470057D01*
X126906381Y-68470057D02*
X126954000Y-68565295D01*
X126954000Y-68565295D02*
X126954000Y-68660533D01*
X126954000Y-68660533D02*
X126906381Y-68803390D01*
X126906381Y-68803390D02*
X126334953Y-69374819D01*
X126334953Y-69374819D02*
X126954000Y-69374819D01*
X118598571Y-69270057D02*
X118503333Y-69222438D01*
X118503333Y-69222438D02*
X118408095Y-69127200D01*
X118408095Y-69127200D02*
X118265238Y-68984342D01*
X118265238Y-68984342D02*
X118170000Y-68936723D01*
X118170000Y-68936723D02*
X118074762Y-68936723D01*
X118122381Y-69174819D02*
X118027143Y-69127200D01*
X118027143Y-69127200D02*
X117931905Y-69031961D01*
X117931905Y-69031961D02*
X117884286Y-68841485D01*
X117884286Y-68841485D02*
X117884286Y-68508152D01*
X117884286Y-68508152D02*
X117931905Y-68317676D01*
X117931905Y-68317676D02*
X118027143Y-68222438D01*
X118027143Y-68222438D02*
X118122381Y-68174819D01*
X118122381Y-68174819D02*
X118312857Y-68174819D01*
X118312857Y-68174819D02*
X118408095Y-68222438D01*
X118408095Y-68222438D02*
X118503333Y-68317676D01*
X118503333Y-68317676D02*
X118550952Y-68508152D01*
X118550952Y-68508152D02*
X118550952Y-68841485D01*
X118550952Y-68841485D02*
X118503333Y-69031961D01*
X118503333Y-69031961D02*
X118408095Y-69127200D01*
X118408095Y-69127200D02*
X118312857Y-69174819D01*
X118312857Y-69174819D02*
X118122381Y-69174819D01*
X119503333Y-69174819D02*
X118931905Y-69174819D01*
X119217619Y-69174819D02*
X119217619Y-68174819D01*
X119217619Y-68174819D02*
X119122381Y-68317676D01*
X119122381Y-68317676D02*
X119027143Y-68412914D01*
X119027143Y-68412914D02*
X118931905Y-68460533D01*
D12*
X155563833Y-64977419D02*
X155230500Y-64501228D01*
X154992405Y-64977419D02*
X154992405Y-63977419D01*
X154992405Y-63977419D02*
X155373357Y-63977419D01*
X155373357Y-63977419D02*
X155468595Y-64025038D01*
X155468595Y-64025038D02*
X155516214Y-64072657D01*
X155516214Y-64072657D02*
X155563833Y-64167895D01*
X155563833Y-64167895D02*
X155563833Y-64310752D01*
X155563833Y-64310752D02*
X155516214Y-64405990D01*
X155516214Y-64405990D02*
X155468595Y-64453609D01*
X155468595Y-64453609D02*
X155373357Y-64501228D01*
X155373357Y-64501228D02*
X154992405Y-64501228D01*
X156516214Y-64977419D02*
X155944786Y-64977419D01*
X156230500Y-64977419D02*
X156230500Y-63977419D01*
X156230500Y-63977419D02*
X156135262Y-64120276D01*
X156135262Y-64120276D02*
X156040024Y-64215514D01*
X156040024Y-64215514D02*
X155944786Y-64263133D01*
X156897167Y-64072657D02*
X156944786Y-64025038D01*
X156944786Y-64025038D02*
X157040024Y-63977419D01*
X157040024Y-63977419D02*
X157278119Y-63977419D01*
X157278119Y-63977419D02*
X157373357Y-64025038D01*
X157373357Y-64025038D02*
X157420976Y-64072657D01*
X157420976Y-64072657D02*
X157468595Y-64167895D01*
X157468595Y-64167895D02*
X157468595Y-64263133D01*
X157468595Y-64263133D02*
X157420976Y-64405990D01*
X157420976Y-64405990D02*
X156849548Y-64977419D01*
X156849548Y-64977419D02*
X157468595Y-64977419D01*
X125984247Y-74633333D02*
X126460438Y-74300000D01*
X125984247Y-74061905D02*
X126984247Y-74061905D01*
X126984247Y-74061905D02*
X126984247Y-74442857D01*
X126984247Y-74442857D02*
X126936628Y-74538095D01*
X126936628Y-74538095D02*
X126889009Y-74585714D01*
X126889009Y-74585714D02*
X126793771Y-74633333D01*
X126793771Y-74633333D02*
X126650914Y-74633333D01*
X126650914Y-74633333D02*
X126555676Y-74585714D01*
X126555676Y-74585714D02*
X126508057Y-74538095D01*
X126508057Y-74538095D02*
X126460438Y-74442857D01*
X126460438Y-74442857D02*
X126460438Y-74061905D01*
X126984247Y-74966667D02*
X126984247Y-75585714D01*
X126984247Y-75585714D02*
X126603295Y-75252381D01*
X126603295Y-75252381D02*
X126603295Y-75395238D01*
X126603295Y-75395238D02*
X126555676Y-75490476D01*
X126555676Y-75490476D02*
X126508057Y-75538095D01*
X126508057Y-75538095D02*
X126412819Y-75585714D01*
X126412819Y-75585714D02*
X126174724Y-75585714D01*
X126174724Y-75585714D02*
X126079486Y-75538095D01*
X126079486Y-75538095D02*
X126031867Y-75490476D01*
X126031867Y-75490476D02*
X125984247Y-75395238D01*
X125984247Y-75395238D02*
X125984247Y-75109524D01*
X125984247Y-75109524D02*
X126031867Y-75014286D01*
X126031867Y-75014286D02*
X126079486Y-74966667D01*
X125391905Y-62547419D02*
X125391905Y-61547419D01*
X125391905Y-61547419D02*
X125630000Y-61547419D01*
X125630000Y-61547419D02*
X125772857Y-61595038D01*
X125772857Y-61595038D02*
X125868095Y-61690276D01*
X125868095Y-61690276D02*
X125915714Y-61785514D01*
X125915714Y-61785514D02*
X125963333Y-61975990D01*
X125963333Y-61975990D02*
X125963333Y-62118847D01*
X125963333Y-62118847D02*
X125915714Y-62309323D01*
X125915714Y-62309323D02*
X125868095Y-62404561D01*
X125868095Y-62404561D02*
X125772857Y-62499800D01*
X125772857Y-62499800D02*
X125630000Y-62547419D01*
X125630000Y-62547419D02*
X125391905Y-62547419D01*
X126344286Y-61642657D02*
X126391905Y-61595038D01*
X126391905Y-61595038D02*
X126487143Y-61547419D01*
X126487143Y-61547419D02*
X126725238Y-61547419D01*
X126725238Y-61547419D02*
X126820476Y-61595038D01*
X126820476Y-61595038D02*
X126868095Y-61642657D01*
X126868095Y-61642657D02*
X126915714Y-61737895D01*
X126915714Y-61737895D02*
X126915714Y-61833133D01*
X126915714Y-61833133D02*
X126868095Y-61975990D01*
X126868095Y-61975990D02*
X126296667Y-62547419D01*
X126296667Y-62547419D02*
X126915714Y-62547419D01*
X140892580Y-74683333D02*
X141368771Y-74350000D01*
X140892580Y-74111905D02*
X141892580Y-74111905D01*
X141892580Y-74111905D02*
X141892580Y-74492857D01*
X141892580Y-74492857D02*
X141844961Y-74588095D01*
X141844961Y-74588095D02*
X141797342Y-74635714D01*
X141797342Y-74635714D02*
X141702104Y-74683333D01*
X141702104Y-74683333D02*
X141559247Y-74683333D01*
X141559247Y-74683333D02*
X141464009Y-74635714D01*
X141464009Y-74635714D02*
X141416390Y-74588095D01*
X141416390Y-74588095D02*
X141368771Y-74492857D01*
X141368771Y-74492857D02*
X141368771Y-74111905D01*
X141892580Y-75016667D02*
X141892580Y-75683333D01*
X141892580Y-75683333D02*
X140892580Y-75254762D01*
D10*
X148343571Y-69640057D02*
X148248333Y-69592438D01*
X148248333Y-69592438D02*
X148153095Y-69497200D01*
X148153095Y-69497200D02*
X148010238Y-69354342D01*
X148010238Y-69354342D02*
X147915000Y-69306723D01*
X147915000Y-69306723D02*
X147819762Y-69306723D01*
X147867381Y-69544819D02*
X147772143Y-69497200D01*
X147772143Y-69497200D02*
X147676905Y-69401961D01*
X147676905Y-69401961D02*
X147629286Y-69211485D01*
X147629286Y-69211485D02*
X147629286Y-68878152D01*
X147629286Y-68878152D02*
X147676905Y-68687676D01*
X147676905Y-68687676D02*
X147772143Y-68592438D01*
X147772143Y-68592438D02*
X147867381Y-68544819D01*
X147867381Y-68544819D02*
X148057857Y-68544819D01*
X148057857Y-68544819D02*
X148153095Y-68592438D01*
X148153095Y-68592438D02*
X148248333Y-68687676D01*
X148248333Y-68687676D02*
X148295952Y-68878152D01*
X148295952Y-68878152D02*
X148295952Y-69211485D01*
X148295952Y-69211485D02*
X148248333Y-69401961D01*
X148248333Y-69401961D02*
X148153095Y-69497200D01*
X148153095Y-69497200D02*
X148057857Y-69544819D01*
X148057857Y-69544819D02*
X147867381Y-69544819D01*
X149200714Y-68544819D02*
X148724524Y-68544819D01*
X148724524Y-68544819D02*
X148676905Y-69021009D01*
X148676905Y-69021009D02*
X148724524Y-68973390D01*
X148724524Y-68973390D02*
X148819762Y-68925771D01*
X148819762Y-68925771D02*
X149057857Y-68925771D01*
X149057857Y-68925771D02*
X149153095Y-68973390D01*
X149153095Y-68973390D02*
X149200714Y-69021009D01*
X149200714Y-69021009D02*
X149248333Y-69116247D01*
X149248333Y-69116247D02*
X149248333Y-69354342D01*
X149248333Y-69354342D02*
X149200714Y-69449580D01*
X149200714Y-69449580D02*
X149153095Y-69497200D01*
X149153095Y-69497200D02*
X149057857Y-69544819D01*
X149057857Y-69544819D02*
X148819762Y-69544819D01*
X148819762Y-69544819D02*
X148724524Y-69497200D01*
X148724524Y-69497200D02*
X148676905Y-69449580D01*
D12*
X162885333Y-64407419D02*
X162552000Y-63931228D01*
X162313905Y-64407419D02*
X162313905Y-63407419D01*
X162313905Y-63407419D02*
X162694857Y-63407419D01*
X162694857Y-63407419D02*
X162790095Y-63455038D01*
X162790095Y-63455038D02*
X162837714Y-63502657D01*
X162837714Y-63502657D02*
X162885333Y-63597895D01*
X162885333Y-63597895D02*
X162885333Y-63740752D01*
X162885333Y-63740752D02*
X162837714Y-63835990D01*
X162837714Y-63835990D02*
X162790095Y-63883609D01*
X162790095Y-63883609D02*
X162694857Y-63931228D01*
X162694857Y-63931228D02*
X162313905Y-63931228D01*
X163837714Y-64407419D02*
X163266286Y-64407419D01*
X163552000Y-64407419D02*
X163552000Y-63407419D01*
X163552000Y-63407419D02*
X163456762Y-63550276D01*
X163456762Y-63550276D02*
X163361524Y-63645514D01*
X163361524Y-63645514D02*
X163266286Y-63693133D01*
X164694857Y-63740752D02*
X164694857Y-64407419D01*
X164456762Y-63359800D02*
X164218667Y-64074085D01*
X164218667Y-64074085D02*
X164837714Y-64074085D01*
X163192580Y-74207142D02*
X163668771Y-73873809D01*
X163192580Y-73635714D02*
X164192580Y-73635714D01*
X164192580Y-73635714D02*
X164192580Y-74016666D01*
X164192580Y-74016666D02*
X164144961Y-74111904D01*
X164144961Y-74111904D02*
X164097342Y-74159523D01*
X164097342Y-74159523D02*
X164002104Y-74207142D01*
X164002104Y-74207142D02*
X163859247Y-74207142D01*
X163859247Y-74207142D02*
X163764009Y-74159523D01*
X163764009Y-74159523D02*
X163716390Y-74111904D01*
X163716390Y-74111904D02*
X163668771Y-74016666D01*
X163668771Y-74016666D02*
X163668771Y-73635714D01*
X163192580Y-75159523D02*
X163192580Y-74588095D01*
X163192580Y-74873809D02*
X164192580Y-74873809D01*
X164192580Y-74873809D02*
X164049723Y-74778571D01*
X164049723Y-74778571D02*
X163954485Y-74683333D01*
X163954485Y-74683333D02*
X163906866Y-74588095D01*
X164192580Y-75492857D02*
X164192580Y-76111904D01*
X164192580Y-76111904D02*
X163811628Y-75778571D01*
X163811628Y-75778571D02*
X163811628Y-75921428D01*
X163811628Y-75921428D02*
X163764009Y-76016666D01*
X163764009Y-76016666D02*
X163716390Y-76064285D01*
X163716390Y-76064285D02*
X163621152Y-76111904D01*
X163621152Y-76111904D02*
X163383057Y-76111904D01*
X163383057Y-76111904D02*
X163287819Y-76064285D01*
X163287819Y-76064285D02*
X163240200Y-76016666D01*
X163240200Y-76016666D02*
X163192580Y-75921428D01*
X163192580Y-75921428D02*
X163192580Y-75635714D01*
X163192580Y-75635714D02*
X163240200Y-75540476D01*
X163240200Y-75540476D02*
X163287819Y-75492857D01*
D13*
%TO.C,Q3*%
X129470833Y-70690000D02*
X129470833Y-70040000D01*
X129470833Y-70690000D02*
X129470833Y-71340000D01*
X132590833Y-70690000D02*
X132590833Y-70040000D01*
X132590833Y-70690000D02*
X132590833Y-71340000D01*
X129520833Y-71852500D02*
X129190833Y-72092500D01*
X129190833Y-71612500D01*
X129520833Y-71852500D01*
G36*
X129520833Y-71852500D02*
G01*
X129190833Y-72092500D01*
X129190833Y-71612500D01*
X129520833Y-71852500D01*
G37*
%TO.C,Q4*%
X136887500Y-70690000D02*
X136887500Y-70040000D01*
X136887500Y-70690000D02*
X136887500Y-71340000D01*
X140007500Y-70690000D02*
X140007500Y-70040000D01*
X140007500Y-70690000D02*
X140007500Y-71340000D01*
X136937500Y-71852500D02*
X136607500Y-72092500D01*
X136607500Y-71612500D01*
X136937500Y-71852500D01*
G36*
X136937500Y-71852500D02*
G01*
X136607500Y-72092500D01*
X136607500Y-71612500D01*
X136937500Y-71852500D01*
G37*
%TO.C,Q7*%
X159137500Y-70590000D02*
X159137500Y-69940000D01*
X159137500Y-70590000D02*
X159137500Y-71240000D01*
X162257500Y-70590000D02*
X162257500Y-69940000D01*
X162257500Y-70590000D02*
X162257500Y-71240000D01*
X159187500Y-71752500D02*
X158857500Y-71992500D01*
X158857500Y-71512500D01*
X159187500Y-71752500D01*
G36*
X159187500Y-71752500D02*
G01*
X158857500Y-71992500D01*
X158857500Y-71512500D01*
X159187500Y-71752500D01*
G37*
%TO.C,Q6*%
X151720833Y-70690000D02*
X151720833Y-70040000D01*
X151720833Y-70690000D02*
X151720833Y-71340000D01*
X154840833Y-70690000D02*
X154840833Y-70040000D01*
X154840833Y-70690000D02*
X154840833Y-71340000D01*
X151770833Y-71852500D02*
X151440833Y-72092500D01*
X151440833Y-71612500D01*
X151770833Y-71852500D01*
G36*
X151770833Y-71852500D02*
G01*
X151440833Y-72092500D01*
X151440833Y-71612500D01*
X151770833Y-71852500D01*
G37*
D14*
%TO.C,J1*%
X103701200Y-61994801D02*
X103701200Y-70707000D01*
X103701200Y-70707000D02*
X109898800Y-70707000D01*
X104069500Y-60546989D02*
X104069500Y-61994789D01*
X104069500Y-61994789D02*
X103701200Y-61994801D01*
X109530500Y-60546989D02*
X104069500Y-60546989D01*
X109530500Y-61994801D02*
X109530500Y-60546989D01*
X109898800Y-61994801D02*
X109530500Y-61994801D01*
X109898800Y-70707000D02*
X109898800Y-61994801D01*
D15*
X103447200Y-72500000D02*
G75*
G02*
X102685200Y-72500000I-381000J0D01*
G01*
X102685200Y-72500000D02*
G75*
G02*
X103447200Y-72500000I381000J0D01*
G01*
D16*
%TO.C,J3*%
X103495000Y-77900000D02*
X162705000Y-77900000D01*
X103495000Y-94400000D02*
X103495000Y-77900000D01*
X144000000Y-77300000D02*
X144000000Y-77300000D01*
X144000000Y-77500000D02*
X144000000Y-77500000D01*
X162705000Y-77900000D02*
X162705000Y-95650000D01*
X144000000Y-77300000D02*
G75*
G02*
X144000000Y-77500000I0J-100000D01*
G01*
X144000000Y-77500000D02*
G75*
G02*
X144000000Y-77300000I0J100000D01*
G01*
D12*
%TO.C,R1*%
X114650000Y-73850000D02*
X117650000Y-73850000D01*
X114650000Y-75850000D02*
X117650000Y-75850000D01*
%TO.C,R10*%
X144796667Y-64090000D02*
X144796667Y-67090000D01*
X146796667Y-64090000D02*
X146796667Y-67090000D01*
%TO.C,D1*%
X115350000Y-62100000D02*
X115350000Y-60100000D01*
X116950000Y-62100000D02*
X116950000Y-60100000D01*
%TO.C,R2*%
X115130000Y-63940000D02*
X115130000Y-66940000D01*
X117130000Y-63940000D02*
X117130000Y-66940000D01*
%TO.C,R5*%
X129483333Y-73850000D02*
X132483333Y-73850000D01*
X129483333Y-75850000D02*
X132483333Y-75850000D01*
%TO.C,R8*%
X137380000Y-64090000D02*
X137380000Y-67090000D01*
X139380000Y-64090000D02*
X139380000Y-67090000D01*
%TO.C,D5*%
X145016667Y-62250000D02*
X145016667Y-60250000D01*
X146616667Y-62250000D02*
X146616667Y-60250000D01*
%TO.C,D7*%
X159850000Y-62150000D02*
X159850000Y-60150000D01*
X161450000Y-62150000D02*
X161450000Y-60150000D01*
%TO.C,D4*%
X137600000Y-62250000D02*
X137600000Y-60250000D01*
X139200000Y-62250000D02*
X139200000Y-60250000D01*
%TO.C,R4*%
X122546667Y-64090000D02*
X122546667Y-67090000D01*
X124546667Y-64090000D02*
X124546667Y-67090000D01*
%TO.C,R6*%
X129963333Y-64090000D02*
X129963333Y-67090000D01*
X131963333Y-64090000D02*
X131963333Y-67090000D01*
%TO.C,R9*%
X144316667Y-73850000D02*
X147316667Y-73850000D01*
X144316667Y-75850000D02*
X147316667Y-75850000D01*
%TO.C,R11*%
X151733333Y-73850000D02*
X154733333Y-73850000D01*
X151733333Y-75850000D02*
X154733333Y-75850000D01*
%TO.C,D3*%
X130183333Y-62250000D02*
X130183333Y-60250000D01*
X131783333Y-62250000D02*
X131783333Y-60250000D01*
%TO.C,D6*%
X152433333Y-62250000D02*
X152433333Y-60250000D01*
X154033333Y-62250000D02*
X154033333Y-60250000D01*
D13*
%TO.C,Q2*%
X122054167Y-70690000D02*
X122054167Y-70040000D01*
X122054167Y-70690000D02*
X122054167Y-71340000D01*
X125174167Y-70690000D02*
X125174167Y-70040000D01*
X125174167Y-70690000D02*
X125174167Y-71340000D01*
X122104167Y-71852500D02*
X121774167Y-72092500D01*
X121774167Y-71612500D01*
X122104167Y-71852500D01*
G36*
X122104167Y-71852500D02*
G01*
X121774167Y-72092500D01*
X121774167Y-71612500D01*
X122104167Y-71852500D01*
G37*
%TO.C,Q1*%
X114637500Y-70540000D02*
X114637500Y-69890000D01*
X114637500Y-70540000D02*
X114637500Y-71190000D01*
X117757500Y-70540000D02*
X117757500Y-69890000D01*
X117757500Y-70540000D02*
X117757500Y-71190000D01*
X114687500Y-71702500D02*
X114357500Y-71942500D01*
X114357500Y-71462500D01*
X114687500Y-71702500D01*
G36*
X114687500Y-71702500D02*
G01*
X114357500Y-71942500D01*
X114357500Y-71462500D01*
X114687500Y-71702500D01*
G37*
D12*
%TO.C,R12*%
X152213333Y-64090000D02*
X152213333Y-67090000D01*
X154213333Y-64090000D02*
X154213333Y-67090000D01*
%TO.C,R3*%
X122066667Y-73850000D02*
X125066667Y-73850000D01*
X122066667Y-75850000D02*
X125066667Y-75850000D01*
%TO.C,D2*%
X122766667Y-62250000D02*
X122766667Y-60250000D01*
X124366667Y-62250000D02*
X124366667Y-60250000D01*
%TO.C,R7*%
X136900000Y-73850000D02*
X139900000Y-73850000D01*
X136900000Y-75850000D02*
X139900000Y-75850000D01*
D13*
%TO.C,Q5*%
X144304167Y-70690000D02*
X144304167Y-70040000D01*
X144304167Y-70690000D02*
X144304167Y-71340000D01*
X147424167Y-70690000D02*
X147424167Y-70040000D01*
X147424167Y-70690000D02*
X147424167Y-71340000D01*
X144354167Y-71852500D02*
X144024167Y-72092500D01*
X144024167Y-71612500D01*
X144354167Y-71852500D01*
G36*
X144354167Y-71852500D02*
G01*
X144024167Y-72092500D01*
X144024167Y-71612500D01*
X144354167Y-71852500D01*
G37*
D12*
%TO.C,R14*%
X159630000Y-63990000D02*
X159630000Y-66990000D01*
X161630000Y-63990000D02*
X161630000Y-66990000D01*
%TO.C,R13*%
X159150000Y-73850000D02*
X162150000Y-73850000D01*
X159150000Y-75850000D02*
X162150000Y-75850000D01*
%TD*%
M02*
