M48
; DRILL file {KiCad 9.0.4} date 2025-10-30T20:58:26-0500
; FORMAT={-:-/ absolute / metric / decimal}
; #@! TF.CreationDate,2025-10-30T20:58:26-05:00
; #@! TF.GenerationSoftware,Kicad,Pcbnew,9.0.4
; #@! TF.FileFunction,Plated,1,2,PTH
FMAT,2
METRIC
; #@! TA.AperFunction,Plated,PTH,ViaDrill
T1C0.300
; #@! TA.AperFunction,Plated,PTH,ComponentDrill
T2C1.245
; #@! TA.AperFunction,Plated,PTH,ComponentDrill
T3C1.560
%
G90
G05
T1
X101.05Y-79.55
X101.05Y-83.1
X101.15Y-85.85
X101.3Y-88.85
X101.3Y-96.2
X101.45Y-59.75
X101.45Y-92.75
X101.55Y-76.6
X102.75Y-62.9
X102.75Y-68.05
X102.8Y-97.55
X102.85Y-64.85
X102.85Y-70.85
X103.03Y-58.0
X103.35Y-100.35
X104.6Y-95.2
X104.95Y-68.0
X105.05Y-62.75
X106.17Y-57.96
X106.32Y-100.35
X106.65Y-97.48
X107.3Y-86.6
X107.35Y-79.6
X107.4Y-76.15
X107.4Y-82.05
X107.45Y-74.6
X107.8Y-84.35
X107.95Y-62.65
X107.95Y-67.95
X108.8Y-88.85
X109.29Y-100.35
X109.6Y-58.0
X109.9Y-86.6
X110.125Y-76.15
X110.25Y-91.6
X111.05Y-84.75
X111.35Y-73.2
X111.45Y-70.25
X111.5Y-79.8
X111.9Y-86.65
X112.0Y-61.8
X112.0Y-64.1
X112.15Y-88.8
X112.26Y-100.35
X112.74Y-58.0
X112.76Y-60.0
X112.85Y-76.15
X113.2Y-70.2
X113.2Y-73.2
X113.9Y-93.95
X114.0Y-66.45
X114.05Y-64.5
X114.1Y-61.6
X114.45Y-68.75
X114.64Y-89.8
X115.75Y-87.35
X116.0Y-96.6
X116.05Y-91.65
X117.95Y-89.0
X118.2Y-93.7
X118.35Y-66.45
X118.75Y-71.05
X118.75Y-72.7
X119.5Y-86.35
X119.7Y-91.25
X119.7Y-96.75
X120.0Y-58.1
X120.05Y-56.55
X120.25Y-83.95
X120.5Y-74.0
X120.5Y-75.9
X120.85Y-71.05
X121.25Y-66.25
X121.6Y-63.3
X122.0Y-94.25
X122.15Y-68.8
X122.45Y-85.05
X123.3Y-91.35
X124.25Y-84.0
X124.3Y-96.85
X124.45Y-86.25
X125.7Y-66.5
X125.9Y-94.1
X126.05Y-79.25
X126.3Y-71.3
X126.35Y-72.95
X126.5Y-84.35
X127.45Y-58.9
X127.65Y-56.75
X127.7Y-69.25
X128.0Y-96.85
X128.05Y-75.5
X128.15Y-71.35
X128.15Y-72.95
X128.8Y-65.95
X128.8Y-68.2
X128.85Y-63.75
X129.2Y-85.95
X130.2Y-79.15
X130.9Y-84.2
X132.8Y-76.8
X133.3Y-66.3
X133.5Y-71.35
X133.5Y-86.2
X135.0Y-57.75
X135.15Y-76.85
X135.2Y-84.35
X135.45Y-78.9
X135.5Y-75.3
X135.75Y-71.3
X135.95Y-73.0
X136.3Y-63.5
X136.4Y-66.2
X136.85Y-68.6
X137.65Y-96.8
X137.85Y-86.1
X137.85Y-92.2
X139.15Y-76.9
X139.3Y-79.05
X139.3Y-94.55
X139.45Y-91.05
X139.7Y-84.4
X140.62Y-96.8
X140.65Y-66.25
X140.82Y-92.2
X141.1Y-71.5
X142.1Y-86.55
X142.15Y-90.25
X142.2Y-58.85
X142.25Y-56.95
X142.27Y-94.55
X142.5Y-76.9
X142.6Y-79.15
X142.85Y-73.1
X142.9Y-74.85
X143.05Y-71.4
X143.1Y-68.5
X143.3Y-66.2
X143.7Y-85.0
X143.8Y-63.35
X145.95Y-84.35
X146.0Y-79.15
X146.09Y-91.0
X146.14Y-99.05
X146.19Y-95.15
X146.6Y-86.4
X147.64Y-97.2
X147.84Y-93.1
X148.0Y-66.5
X148.4Y-79.05
X148.75Y-71.65
X149.02Y-90.96
X149.11Y-99.05
X149.16Y-95.15
X149.65Y-66.5
X149.8Y-73.15
X150.2Y-69.9
X150.2Y-75.0
X150.35Y-57.7
X150.5Y-71.7
X150.61Y-97.2
X150.81Y-93.1
X151.05Y-64.3
X151.1Y-62.0
X151.15Y-66.4
X151.45Y-68.5
X151.6Y-59.0
X152.03Y-91.0
X152.08Y-99.05
X152.13Y-95.15
X152.4Y-78.95
X153.58Y-97.2
X153.78Y-93.1
X154.7Y-79.1
X155.05Y-99.05
X155.1Y-81.4
X155.1Y-95.15
X155.25Y-67.1
X155.35Y-87.4
X155.35Y-91.0
X155.45Y-59.0
X156.05Y-71.75
X156.55Y-57.8
X156.55Y-97.2
X156.74Y-89.35
X156.75Y-93.1
X157.14Y-85.5
X157.7Y-71.9
X157.7Y-75.7
X157.9Y-69.8
X157.97Y-91.0
X158.02Y-99.05
X158.07Y-95.15
X158.35Y-82.55
X158.5Y-66.3
X158.5Y-79.75
X158.55Y-64.1
X158.59Y-87.35
X158.65Y-62.15
X159.2Y-58.9
X159.2Y-68.35
X159.52Y-97.2
X159.71Y-89.35
X159.72Y-93.1
X160.11Y-85.5
X160.94Y-91.0
X160.99Y-99.05
X161.04Y-95.15
X161.15Y-79.65
X161.56Y-87.35
X161.95Y-58.9
X162.49Y-97.2
X162.68Y-89.35
X162.69Y-93.1
X162.85Y-65.4
X162.85Y-66.95
X163.08Y-85.5
X163.25Y-59.64
X163.4Y-71.2
X164.45Y-84.21
X164.45Y-87.18
X164.45Y-90.15
X164.45Y-93.12
X164.45Y-96.09
X164.45Y-99.06
X164.7Y-67.5
X164.7Y-70.47
X164.7Y-73.44
X164.7Y-76.41
X164.7Y-79.38
X164.7Y-82.35
T2
X105.55Y-72.5
X108.05Y-72.5
T3
X122.0Y-81.9
X122.0Y-88.25
X126.44Y-81.9
X126.44Y-88.25
X130.88Y-81.9
X130.88Y-88.25
X135.32Y-81.9
X135.32Y-88.25
X139.76Y-81.9
X139.76Y-88.25
X144.2Y-81.9
X144.2Y-88.25
M30
