%TF.GenerationSoftware,KiCad,Pcbnew,9.0.4*%
%TF.CreationDate,2025-11-11T22:43:00-06:00*%
%TF.ProjectId,TEST,54455354-2e6b-4696-9361-645f70636258,rev?*%
%TF.SameCoordinates,Original*%
%TF.FileFunction,Copper,L1,Top*%
%TF.FilePolarity,Positive*%
%FSLAX46Y46*%
G04 Gerber Fmt 4.6, Leading zero omitted, Abs format (unit mm)*
G04 Created by KiCad (PCBNEW 9.0.4) date 2025-11-11 22:43:00*
%MOMM*%
%LPD*%
G01*
G04 APERTURE LIST*
G04 Aperture macros list*
%AMRoundRect*
0 Rectangle with rounded corners*
0 $1 Rounding radius*
0 $2 $3 $4 $5 $6 $7 $8 $9 X,Y pos of 4 corners*
0 Add a 4 corners polygon primitive as box body*
4,1,4,$2,$3,$4,$5,$6,$7,$8,$9,$2,$3,0*
0 Add four circle primitives for the rounded corners*
1,1,$1+$1,$2,$3*
1,1,$1+$1,$4,$5*
1,1,$1+$1,$6,$7*
1,1,$1+$1,$8,$9*
0 Add four rect primitives between the rounded corners*
20,1,$1+$1,$2,$3,$4,$5,0*
20,1,$1+$1,$4,$5,$6,$7,0*
20,1,$1+$1,$6,$7,$8,$9,0*
20,1,$1+$1,$8,$9,$2,$3,0*%
G04 Aperture macros list end*
%TA.AperFunction,ComponentPad*%
%ADD10C,1.752600*%
%TD*%
%TA.AperFunction,SMDPad,CuDef*%
%ADD11RoundRect,0.150000X0.150000X-0.587500X0.150000X0.587500X-0.150000X0.587500X-0.150000X-0.587500X0*%
%TD*%
%TA.AperFunction,SMDPad,CuDef*%
%ADD12RoundRect,0.168750X-0.593750X0.393750X-0.593750X-0.393750X0.593750X-0.393750X0.593750X0.393750X0*%
%TD*%
%TA.AperFunction,SMDPad,CuDef*%
%ADD13RoundRect,0.150000X0.400000X-0.350000X0.400000X0.350000X-0.400000X0.350000X-0.400000X-0.350000X0*%
%TD*%
%TA.AperFunction,ViaPad*%
%ADD14C,0.600000*%
%TD*%
%TA.AperFunction,ViaPad*%
%ADD15C,1.000000*%
%TD*%
%TA.AperFunction,ViaPad*%
%ADD16C,0.800000*%
%TD*%
%TA.AperFunction,Conductor*%
%ADD17C,0.800000*%
%TD*%
%TA.AperFunction,Conductor*%
%ADD18C,0.500000*%
%TD*%
%TA.AperFunction,Conductor*%
%ADD19C,0.300000*%
%TD*%
G04 APERTURE END LIST*
D10*
%TO.P,J2,1,1*%
%TO.N,/BOTS_START*%
X116663800Y-90715902D03*
%TO.P,J2,2,2*%
%TO.N,/COCKPIT_BUTTON_START*%
X114163800Y-90715902D03*
%TO.P,J2,3,3*%
%TO.N,/INERTIA_SWITCH_START*%
X111663800Y-90715902D03*
%TO.P,J2,4,4*%
%TO.N,/LEFT_BUTTON_END*%
X109163800Y-90715902D03*
%TO.P,J2,5,5*%
%TO.N,/INPUT*%
X106663800Y-90715902D03*
%TO.P,J2,6,6*%
%TO.N,+12V*%
X104163800Y-90715902D03*
%TO.P,J2,7,7*%
%TO.N,/BOTS_END*%
X116663800Y-93215902D03*
%TO.P,J2,8,8*%
%TO.N,/BOTS_START*%
X114163800Y-93215902D03*
%TO.P,J2,9,9*%
%TO.N,/COCKPIT_BUTTON_START*%
X111663800Y-93215902D03*
%TO.P,J2,10,10*%
%TO.N,/INERTIA_SWITCH_START*%
X109163800Y-93215902D03*
%TO.P,J2,11,11*%
%TO.N,/LEFT_BUTTON_END*%
X106663800Y-93215902D03*
%TO.P,J2,12,12*%
%TO.N,GND*%
X104163800Y-93215902D03*
%TD*%
D11*
%TO.P,Q3,3,D*%
%TO.N,Net-(Q3-D)*%
X131040909Y-74591300D03*
%TO.P,Q3,2,S*%
%TO.N,GND*%
X131990909Y-76466300D03*
%TO.P,Q3,1,G*%
%TO.N,/INERTIA_SWITCH_START*%
X130090909Y-76466300D03*
%TD*%
%TO.P,Q4,3,D*%
%TO.N,Net-(Q4-D)*%
X140051900Y-74554300D03*
%TO.P,Q4,2,S*%
%TO.N,GND*%
X141001900Y-76429300D03*
%TO.P,Q4,1,G*%
%TO.N,/COCKPIT_BUTTON_START*%
X139101900Y-76429300D03*
%TD*%
%TO.P,Q7,1,G*%
%TO.N,/BOTS_END*%
X137850100Y-96769300D03*
%TO.P,Q7,2,S*%
%TO.N,GND*%
X139750100Y-96769300D03*
%TO.P,Q7,3,D*%
%TO.N,Net-(Q7-D)*%
X138800100Y-94894300D03*
%TD*%
%TO.P,Q6,1,G*%
%TO.N,/BOTS_END*%
X130433433Y-96869300D03*
%TO.P,Q6,2,S*%
%TO.N,GND*%
X132333433Y-96869300D03*
%TO.P,Q6,3,D*%
%TO.N,Net-(Q6-D)*%
X131383433Y-94994300D03*
%TD*%
D10*
%TO.P,J1,2,2*%
%TO.N,/INPUT*%
X106671200Y-76531200D03*
%TO.P,J1,1,1*%
%TO.N,/BOTS_END*%
X104171200Y-76531200D03*
%TD*%
D12*
%TO.P,R10,1*%
%TO.N,Net-(D5-K)*%
X123899267Y-89794300D03*
%TO.P,R10,2*%
%TO.N,Net-(Q5-D)*%
X123899267Y-91869300D03*
%TD*%
D13*
%TO.P,D1,1,K*%
%TO.N,Net-(D1-K)*%
X114240400Y-66802800D03*
%TO.P,D1,2,A*%
%TO.N,+12V*%
X114240400Y-65202800D03*
%TD*%
D12*
%TO.P,R2,1*%
%TO.N,Net-(D1-K)*%
X114220400Y-69305300D03*
%TO.P,R2,2*%
%TO.N,Net-(Q1-D)*%
X114220400Y-71380300D03*
%TD*%
%TO.P,R8,2*%
%TO.N,Net-(Q4-D)*%
X139984400Y-71429300D03*
%TO.P,R8,1*%
%TO.N,Net-(D4-K)*%
X139984400Y-69354300D03*
%TD*%
D13*
%TO.P,D5,1,K*%
%TO.N,Net-(D5-K)*%
X123919267Y-87291800D03*
%TO.P,D5,2,A*%
%TO.N,+12V*%
X123919267Y-85691800D03*
%TD*%
%TO.P,D7,1,K*%
%TO.N,Net-(D7-K)*%
X138752600Y-87191800D03*
%TO.P,D7,2,A*%
%TO.N,+12V*%
X138752600Y-85591800D03*
%TD*%
%TO.P,D4,2,A*%
%TO.N,+12V*%
X140004400Y-65251800D03*
%TO.P,D4,1,K*%
%TO.N,Net-(D4-K)*%
X140004400Y-66851800D03*
%TD*%
D12*
%TO.P,R4,2*%
%TO.N,Net-(Q2-D)*%
X122475867Y-71416300D03*
%TO.P,R4,1*%
%TO.N,Net-(D2-K)*%
X122475867Y-69341300D03*
%TD*%
%TO.P,R6,2*%
%TO.N,Net-(Q3-D)*%
X130973409Y-71466300D03*
%TO.P,R6,1*%
%TO.N,Net-(D3-K)*%
X130973409Y-69391300D03*
%TD*%
D13*
%TO.P,D3,2,A*%
%TO.N,+12V*%
X130993409Y-65288800D03*
%TO.P,D3,1,K*%
%TO.N,Net-(D3-K)*%
X130993409Y-66888800D03*
%TD*%
%TO.P,D6,1,K*%
%TO.N,Net-(D6-K)*%
X131335933Y-87291800D03*
%TO.P,D6,2,A*%
%TO.N,+12V*%
X131335933Y-85691800D03*
%TD*%
D11*
%TO.P,Q2,3,D*%
%TO.N,Net-(Q2-D)*%
X122543367Y-74541300D03*
%TO.P,Q2,2,S*%
%TO.N,GND*%
X123493367Y-76416300D03*
%TO.P,Q2,1,G*%
%TO.N,/LEFT_BUTTON_END*%
X121593367Y-76416300D03*
%TD*%
%TO.P,Q1,1,G*%
%TO.N,/INPUT*%
X113337900Y-76380300D03*
%TO.P,Q1,2,S*%
%TO.N,GND*%
X115237900Y-76380300D03*
%TO.P,Q1,3,D*%
%TO.N,Net-(Q1-D)*%
X114287900Y-74505300D03*
%TD*%
D12*
%TO.P,R12,1*%
%TO.N,Net-(D6-K)*%
X131315933Y-89794300D03*
%TO.P,R12,2*%
%TO.N,Net-(Q6-D)*%
X131315933Y-91869300D03*
%TD*%
D13*
%TO.P,D2,2,A*%
%TO.N,+12V*%
X122495867Y-65238800D03*
%TO.P,D2,1,K*%
%TO.N,Net-(D2-K)*%
X122495867Y-66838800D03*
%TD*%
D11*
%TO.P,Q5,1,G*%
%TO.N,/BOTS_START*%
X123016767Y-96869300D03*
%TO.P,Q5,2,S*%
%TO.N,GND*%
X124916767Y-96869300D03*
%TO.P,Q5,3,D*%
%TO.N,Net-(Q5-D)*%
X123966767Y-94994300D03*
%TD*%
D12*
%TO.P,R14,1*%
%TO.N,Net-(D7-K)*%
X138732600Y-89694300D03*
%TO.P,R14,2*%
%TO.N,Net-(Q7-D)*%
X138732600Y-91769300D03*
%TD*%
D14*
%TO.N,GND*%
X117754400Y-85496400D03*
X107238800Y-81127600D03*
X145135600Y-100787200D03*
X126370080Y-100838000D03*
X129169160Y-100838000D03*
X131968240Y-100838000D03*
X134767320Y-100838000D03*
X102692200Y-86741000D03*
X110261400Y-84759800D03*
X110236000Y-86106000D03*
X107543600Y-82600800D03*
X107518200Y-84353400D03*
X107442000Y-86207600D03*
X102565200Y-59969400D03*
X105410000Y-59969400D03*
X108407200Y-60045600D03*
X110083600Y-62890400D03*
X111455200Y-62382400D03*
X111556800Y-59918600D03*
X117881400Y-59918600D03*
X121310400Y-59842400D03*
X123774200Y-59893200D03*
X127889000Y-60020200D03*
X132664200Y-59893200D03*
X136017000Y-63500000D03*
X127000000Y-63627000D03*
X136652000Y-61188600D03*
X135991600Y-59791600D03*
X138607800Y-59842400D03*
X142976600Y-60020200D03*
X145948400Y-59969400D03*
X144348200Y-61315600D03*
X143814800Y-63423800D03*
X117830600Y-61341000D03*
X117881400Y-63601600D03*
X110058200Y-60985400D03*
X112962267Y-60934600D03*
X98780600Y-59893200D03*
X100076000Y-63119000D03*
X103852133Y-61087000D03*
X106756200Y-61036200D03*
X100948067Y-61036200D03*
X105553933Y-63195200D03*
X108458000Y-63144400D03*
X102649867Y-63144400D03*
X133908800Y-97891600D03*
X123571000Y-100838000D03*
X120853200Y-100761800D03*
X115468400Y-98882200D03*
X117729000Y-98856800D03*
X119634000Y-99110800D03*
X121945400Y-99085400D03*
X108077000Y-100812600D03*
X111556800Y-100812600D03*
X106451400Y-99542600D03*
X113038466Y-99542600D03*
X109982000Y-99542600D03*
X104851200Y-97866200D03*
X110964133Y-97866200D03*
X107907667Y-97866200D03*
X114020600Y-97866200D03*
X103327200Y-96189800D03*
X106383667Y-96189800D03*
X109440133Y-96189800D03*
X112496600Y-96189800D03*
X96951800Y-93116400D03*
X93980000Y-93243400D03*
X99771200Y-99847400D03*
X101193600Y-98323400D03*
X99923600Y-96723200D03*
X101295200Y-95300800D03*
X99822000Y-93675200D03*
X116890800Y-95859600D03*
X119557800Y-88569800D03*
X121107200Y-93903800D03*
X122301000Y-94640400D03*
X121996200Y-92887800D03*
X122402600Y-88366600D03*
X125653800Y-88442800D03*
X127838200Y-88315800D03*
X129082800Y-87426800D03*
X129082800Y-89687400D03*
X127279400Y-91211400D03*
X128803400Y-92329000D03*
X125933200Y-92303600D03*
X128244600Y-93776800D03*
X129692400Y-93776800D03*
X126415800Y-95580200D03*
X128854200Y-95453200D03*
X127558800Y-96875600D03*
X126187200Y-98247200D03*
X128498600Y-98094800D03*
X135128000Y-88392000D03*
X133248400Y-91008200D03*
X133451600Y-88417400D03*
X136575800Y-87426800D03*
X136677400Y-89535000D03*
X134493000Y-91440000D03*
X136753600Y-91440000D03*
X135661400Y-93065600D03*
X133299200Y-93014800D03*
X136017000Y-94767400D03*
X137160000Y-93751400D03*
X133985000Y-95783400D03*
X135763000Y-97967800D03*
X134924800Y-96774000D03*
X136042400Y-96367600D03*
X137566400Y-100838000D03*
X139954000Y-100939600D03*
X138785600Y-99390200D03*
X142621000Y-100838000D03*
X143789400Y-99364800D03*
X141452600Y-99288600D03*
X142671800Y-98196400D03*
X142595600Y-95123000D03*
X143840200Y-96723200D03*
X141503400Y-96647000D03*
X144627600Y-94640400D03*
X146202400Y-93370400D03*
X143306800Y-93370400D03*
X147472400Y-67843400D03*
X150723600Y-67792600D03*
X147497800Y-70713600D03*
X150749000Y-70662800D03*
X149047200Y-69189600D03*
X149072600Y-72288400D03*
X150850600Y-76784200D03*
X149250400Y-75285600D03*
X147548600Y-76733400D03*
X150774400Y-73761600D03*
X147523200Y-73812400D03*
X149123400Y-78282800D03*
X147599400Y-82727800D03*
X150901400Y-82778600D03*
X147574000Y-79806800D03*
X150825200Y-79756000D03*
X149301200Y-81280000D03*
X140004800Y-83997800D03*
X142087600Y-82677000D03*
X143027400Y-81203800D03*
X143002000Y-78587600D03*
X141859000Y-79959200D03*
X140741400Y-78486000D03*
X140741400Y-81254600D03*
X142722600Y-76098400D03*
X142265400Y-71678800D03*
X132943600Y-70408800D03*
X137820400Y-69316600D03*
X135407400Y-67081400D03*
X137896600Y-67767200D03*
X133883400Y-71907400D03*
X136575800Y-71831200D03*
X137718800Y-73558400D03*
X136194800Y-75006200D03*
X133781800Y-75006200D03*
X137160000Y-76352400D03*
X134747000Y-76352400D03*
X135839200Y-77901800D03*
X133426200Y-77901800D03*
X129895600Y-79375000D03*
X137185400Y-79375000D03*
X134620000Y-79400400D03*
X132207000Y-79400400D03*
X135890000Y-81051400D03*
X133324600Y-81076800D03*
X130911600Y-81076800D03*
X128600200Y-81051400D03*
X126796800Y-66954400D03*
X125730000Y-71780400D03*
X129032000Y-67259200D03*
X128422400Y-68935600D03*
X128422400Y-71577200D03*
X127508000Y-73202800D03*
X129286000Y-73126600D03*
X126390400Y-75031600D03*
X128549400Y-75107800D03*
X127279400Y-76835000D03*
X125526800Y-78079600D03*
X122580400Y-78232000D03*
X125272800Y-76301600D03*
X123926600Y-79349600D03*
X121183400Y-79146400D03*
X110972600Y-83388200D03*
X112014000Y-82321400D03*
X113487200Y-80975200D03*
X103987600Y-65608200D03*
X107010200Y-65659000D03*
X105460800Y-67360800D03*
X105486200Y-70942200D03*
X104343200Y-72288400D03*
X106629200Y-72186800D03*
X105460800Y-73888600D03*
X110210600Y-72415400D03*
X110007400Y-68503800D03*
X110109000Y-66852800D03*
X110058200Y-65151000D03*
X111658400Y-64287400D03*
X111658400Y-65938400D03*
X111658400Y-67614800D03*
X111556800Y-69570600D03*
X111556800Y-71526400D03*
X111480600Y-73431400D03*
X112852200Y-73431400D03*
X111556800Y-75082400D03*
X109270800Y-78054200D03*
X111963200Y-78105000D03*
X117170200Y-77012800D03*
X118618000Y-76428600D03*
X117195600Y-75031600D03*
X119964200Y-74676000D03*
X118414800Y-66929000D03*
X120523000Y-66903600D03*
X118414800Y-68580000D03*
X118287800Y-70586600D03*
X118516400Y-73279000D03*
X116408200Y-71704200D03*
X120421400Y-71755000D03*
X113233200Y-85674200D03*
X114300000Y-84607400D03*
X115798600Y-83312000D03*
X108839000Y-81127600D03*
X104267000Y-80848200D03*
X104241600Y-85471000D03*
X104241600Y-82448400D03*
X102463600Y-80848200D03*
X102514400Y-84099400D03*
X101117400Y-68986400D03*
X98323400Y-78740000D03*
X99847400Y-77038200D03*
X92693067Y-75387200D03*
X94039267Y-77038200D03*
X97121133Y-73863200D03*
X96943333Y-77089000D03*
X95419334Y-78689200D03*
X101227467Y-78689200D03*
X98501200Y-75514200D03*
X100025200Y-73812400D03*
X94217067Y-73812400D03*
X92515267Y-78613000D03*
X95597134Y-75463400D03*
X101405267Y-75463400D03*
X98213333Y-69037200D03*
X101168200Y-72237600D03*
X96833266Y-67386200D03*
X92405200Y-68910200D03*
X95309267Y-68986400D03*
X93929200Y-67335400D03*
X98264133Y-72288400D03*
X99737333Y-67335400D03*
X92456000Y-72161400D03*
X96884066Y-70637400D03*
X95360067Y-72237600D03*
X93980000Y-70586600D03*
X99788133Y-70586600D03*
X101108933Y-82270600D03*
X98204866Y-82321400D03*
X92396733Y-82194400D03*
X96824799Y-80670400D03*
X95300800Y-82270600D03*
X93920733Y-80619600D03*
X99728866Y-80619600D03*
X92447533Y-85445600D03*
X96875599Y-83921600D03*
X98255666Y-85572600D03*
X99779666Y-83870800D03*
X93971533Y-83870800D03*
X95351600Y-85521800D03*
X101159733Y-85521800D03*
X98044000Y-88722200D03*
X100016733Y-87096600D03*
X94208600Y-87096600D03*
X97112666Y-87147400D03*
X95588667Y-88747600D03*
X101828600Y-88747600D03*
X92684600Y-88671400D03*
X99838933Y-90322400D03*
X96934866Y-90373200D03*
X94030800Y-90322400D03*
X95410867Y-91973400D03*
X92506800Y-91897200D03*
X101219000Y-91973400D03*
X98314933Y-92024200D03*
X146202400Y-84455000D03*
X149106467Y-84404200D03*
X147582466Y-85928200D03*
X144678400Y-85877400D03*
X150486533Y-85877400D03*
X149004867Y-87426800D03*
X146100800Y-87477600D03*
X143383000Y-90474800D03*
X149191133Y-90474800D03*
X146287066Y-90525600D03*
X144712267Y-89052400D03*
X141808200Y-88976200D03*
X150520400Y-89052400D03*
X147616333Y-89103200D03*
X150520400Y-91922600D03*
X147616333Y-91973400D03*
X144712267Y-91922600D03*
X141808200Y-91846400D03*
D15*
%TO.N,+12V*%
X118262400Y-87274400D03*
D14*
%TO.N,/COCKPIT_BUTTON_START*%
X139101900Y-78486000D03*
D16*
X120548400Y-82981800D03*
%TO.N,/BOTS_END*%
X137160000Y-99009200D03*
X129679700Y-99123500D03*
D14*
X120192800Y-94996000D03*
%TD*%
D17*
%TO.N,+12V*%
X119278400Y-86334600D02*
X119921200Y-85691800D01*
X119202200Y-86334600D02*
X119278400Y-86334600D01*
X119921200Y-85691800D02*
X123919267Y-85691800D01*
X118262400Y-87274400D02*
X119202200Y-86334600D01*
D18*
%TO.N,/BOTS_END*%
X130433433Y-98369767D02*
X130433433Y-96869300D01*
X129679700Y-99123500D02*
X130433433Y-98369767D01*
%TO.N,/LEFT_BUTTON_END*%
X119345867Y-78663800D02*
X121593367Y-76416300D01*
X113461800Y-78663800D02*
X119345867Y-78663800D01*
X108813600Y-83312000D02*
X113461800Y-78663800D01*
X108813600Y-90365702D02*
X108813600Y-83312000D01*
%TO.N,/INPUT*%
X105765600Y-77436800D02*
X106671200Y-76531200D01*
X106663800Y-90715902D02*
X105765600Y-89817702D01*
X105765600Y-89817702D02*
X105765600Y-77436800D01*
%TO.N,/INERTIA_SWITCH_START*%
X125933200Y-80670400D02*
X130090909Y-76512691D01*
X111663800Y-84957600D02*
X115951000Y-80670400D01*
X115951000Y-80670400D02*
X125933200Y-80670400D01*
X111663800Y-90715902D02*
X111663800Y-84957600D01*
%TO.N,/COCKPIT_BUTTON_START*%
X114163800Y-87055000D02*
X114163800Y-90715902D01*
X118262400Y-82956400D02*
X114163800Y-87055000D01*
X120523000Y-82956400D02*
X118262400Y-82956400D01*
X120548400Y-82981800D02*
X120523000Y-82956400D01*
D19*
%TO.N,Net-(D7-K)*%
X138732600Y-89694300D02*
X138732600Y-87211800D01*
%TO.N,Net-(Q7-D)*%
X138800100Y-94894300D02*
X138800100Y-91836800D01*
%TO.N,Net-(D6-K)*%
X131315933Y-89794300D02*
X131315933Y-87311800D01*
%TO.N,Net-(Q6-D)*%
X131383433Y-94994300D02*
X131383433Y-91936800D01*
%TO.N,Net-(D5-K)*%
X123899267Y-89794300D02*
X123899267Y-87311800D01*
%TO.N,Net-(Q5-D)*%
X123966767Y-94994300D02*
X123966767Y-91936800D01*
%TO.N,Net-(D4-K)*%
X139984400Y-69354300D02*
X139984400Y-66871800D01*
%TO.N,Net-(Q4-D)*%
X140051900Y-74554300D02*
X140051900Y-71496800D01*
%TO.N,Net-(D3-K)*%
X130973409Y-69391300D02*
X130973409Y-66908800D01*
%TO.N,Net-(Q3-D)*%
X131040909Y-74591300D02*
X131040909Y-71533800D01*
%TO.N,Net-(D1-K)*%
X114220400Y-69305300D02*
X114220400Y-66822800D01*
%TO.N,Net-(Q1-D)*%
X114287900Y-74505300D02*
X114287900Y-71447800D01*
%TO.N,Net-(D2-K)*%
X122475867Y-69341300D02*
X122475867Y-66858800D01*
%TO.N,Net-(Q2-D)*%
X122543367Y-74541300D02*
X122543367Y-71483800D01*
D17*
%TO.N,+12V*%
X122495867Y-65238800D02*
X114276400Y-65238800D01*
X130993409Y-65288800D02*
X122545867Y-65288800D01*
X140004400Y-65251800D02*
X131030409Y-65251800D01*
X143356800Y-65251800D02*
X140004400Y-65251800D01*
X144907000Y-82626200D02*
X144907000Y-66802000D01*
X141941400Y-85591800D02*
X144907000Y-82626200D01*
X144907000Y-66802000D02*
X143356800Y-65251800D01*
X138752600Y-85591800D02*
X141941400Y-85591800D01*
X138752600Y-85591800D02*
X131435933Y-85591800D01*
X123919267Y-85691800D02*
X131335933Y-85691800D01*
D18*
%TO.N,/COCKPIT_BUTTON_START*%
X139101900Y-78486000D02*
X139101900Y-76429300D01*
%TO.N,/BOTS_END*%
X137160000Y-99009200D02*
X137850100Y-98319100D01*
X137850100Y-98319100D02*
X137850100Y-96769300D01*
X118443898Y-94996000D02*
X120192800Y-94996000D01*
X116663800Y-93215902D02*
X118443898Y-94996000D01*
%TO.N,/BOTS_START*%
X122502467Y-97383600D02*
X123016767Y-96869300D01*
X116078000Y-97383600D02*
X122502467Y-97383600D01*
X114163800Y-95469400D02*
X116078000Y-97383600D01*
X114163800Y-93215902D02*
X114163800Y-95469400D01*
%TO.N,/INPUT*%
X113187000Y-76531200D02*
X113337900Y-76380300D01*
X106671200Y-76531200D02*
X113187000Y-76531200D01*
%TD*%
%TA.AperFunction,Conductor*%
%TO.N,GND*%
G36*
X138930429Y-66171985D02*
G01*
X138976184Y-66224789D01*
X138986128Y-66293947D01*
X138982466Y-66310895D01*
X138956802Y-66399226D01*
X138956801Y-66399232D01*
X138953900Y-66436098D01*
X138953900Y-67267501D01*
X138956801Y-67304367D01*
X138956802Y-67304373D01*
X139002654Y-67462193D01*
X139002655Y-67462196D01*
X139002656Y-67462198D01*
X139024538Y-67499198D01*
X139086317Y-67603662D01*
X139086323Y-67603670D01*
X139202529Y-67719876D01*
X139202532Y-67719878D01*
X139202535Y-67719881D01*
X139273022Y-67761566D01*
X139320704Y-67812633D01*
X139333900Y-67868297D01*
X139333900Y-68186003D01*
X139314215Y-68253042D01*
X139261411Y-68298797D01*
X139246791Y-68304388D01*
X139113964Y-68345778D01*
X139113962Y-68345779D01*
X138974885Y-68429853D01*
X138974880Y-68429857D01*
X138859957Y-68544780D01*
X138859953Y-68544785D01*
X138775879Y-68683862D01*
X138775877Y-68683866D01*
X138727528Y-68839026D01*
X138721400Y-68906465D01*
X138721400Y-69802144D01*
X138727526Y-69869567D01*
X138727528Y-69869575D01*
X138775878Y-70024735D01*
X138775879Y-70024737D01*
X138859953Y-70163814D01*
X138859957Y-70163819D01*
X138974880Y-70278742D01*
X138974882Y-70278743D01*
X138986361Y-70285683D01*
X139033549Y-70337211D01*
X139045387Y-70406071D01*
X139018118Y-70470399D01*
X138986361Y-70497917D01*
X138974882Y-70504856D01*
X138974880Y-70504857D01*
X138859957Y-70619780D01*
X138859953Y-70619785D01*
X138775879Y-70758862D01*
X138775877Y-70758866D01*
X138727528Y-70914026D01*
X138721400Y-70981465D01*
X138721400Y-71877144D01*
X138727526Y-71944567D01*
X138727528Y-71944575D01*
X138775878Y-72099735D01*
X138775879Y-72099737D01*
X138859953Y-72238814D01*
X138859957Y-72238819D01*
X138974880Y-72353742D01*
X138974885Y-72353746D01*
X139113962Y-72437820D01*
X139113966Y-72437822D01*
X139155512Y-72450768D01*
X139269128Y-72486172D01*
X139288622Y-72487943D01*
X139353604Y-72513613D01*
X139394393Y-72570341D01*
X139401400Y-72611434D01*
X139401400Y-73501284D01*
X139384132Y-73564405D01*
X139300155Y-73706403D01*
X139300154Y-73706406D01*
X139254302Y-73864226D01*
X139254301Y-73864232D01*
X139251400Y-73901098D01*
X139251400Y-75067300D01*
X139231715Y-75134339D01*
X139178911Y-75180094D01*
X139127400Y-75191300D01*
X138886198Y-75191300D01*
X138849332Y-75194201D01*
X138849326Y-75194202D01*
X138691506Y-75240054D01*
X138691503Y-75240055D01*
X138550037Y-75323717D01*
X138550029Y-75323723D01*
X138433823Y-75439929D01*
X138433817Y-75439937D01*
X138350155Y-75581403D01*
X138350154Y-75581406D01*
X138304302Y-75739226D01*
X138304301Y-75739232D01*
X138301400Y-75776098D01*
X138301400Y-77082501D01*
X138304301Y-77119367D01*
X138304302Y-77119373D01*
X138346476Y-77264533D01*
X138351400Y-77299128D01*
X138351400Y-78181396D01*
X138341962Y-78228844D01*
X138332163Y-78252503D01*
X138332162Y-78252506D01*
X138332160Y-78252511D01*
X138301400Y-78407153D01*
X138301400Y-78564846D01*
X138332161Y-78719489D01*
X138332164Y-78719501D01*
X138392502Y-78865172D01*
X138392509Y-78865185D01*
X138480110Y-78996288D01*
X138480113Y-78996292D01*
X138591607Y-79107786D01*
X138591611Y-79107789D01*
X138722714Y-79195390D01*
X138722727Y-79195397D01*
X138846706Y-79246750D01*
X138868403Y-79255737D01*
X139023053Y-79286499D01*
X139023056Y-79286500D01*
X139023058Y-79286500D01*
X139180744Y-79286500D01*
X139180745Y-79286499D01*
X139335397Y-79255737D01*
X139481079Y-79195394D01*
X139612189Y-79107789D01*
X139723689Y-78996289D01*
X139811294Y-78865179D01*
X139871637Y-78719497D01*
X139902400Y-78564842D01*
X139902400Y-78407158D01*
X139902400Y-78407155D01*
X139902399Y-78407153D01*
X139871639Y-78252511D01*
X139871638Y-78252508D01*
X139871637Y-78252503D01*
X139861837Y-78228844D01*
X139852400Y-78181396D01*
X139852400Y-77299128D01*
X139857324Y-77264533D01*
X139899497Y-77119373D01*
X139899498Y-77119367D01*
X139902399Y-77082501D01*
X139902400Y-77082494D01*
X139902400Y-77082449D01*
X140201900Y-77082449D01*
X140204799Y-77119289D01*
X140204800Y-77119295D01*
X140250616Y-77276993D01*
X140250617Y-77276996D01*
X140334214Y-77418352D01*
X140334221Y-77418361D01*
X140450338Y-77534478D01*
X140450347Y-77534485D01*
X140591701Y-77618081D01*
X140749414Y-77663900D01*
X140749411Y-77663900D01*
X140751898Y-77664095D01*
X140751900Y-77664095D01*
X141251900Y-77664095D01*
X141251901Y-77664095D01*
X141254386Y-77663900D01*
X141412098Y-77618081D01*
X141553452Y-77534485D01*
X141553461Y-77534478D01*
X141669578Y-77418361D01*
X141669585Y-77418352D01*
X141753182Y-77276996D01*
X141753183Y-77276993D01*
X141798999Y-77119295D01*
X141799000Y-77119289D01*
X141801899Y-77082449D01*
X141801900Y-77082434D01*
X141801900Y-76679300D01*
X141251900Y-76679300D01*
X141251900Y-77664095D01*
X140751900Y-77664095D01*
X140751900Y-76679300D01*
X140201900Y-76679300D01*
X140201900Y-77082449D01*
X139902400Y-77082449D01*
X139902400Y-75916300D01*
X139922085Y-75849261D01*
X139974889Y-75803506D01*
X140026400Y-75792300D01*
X140077900Y-75792300D01*
X140144939Y-75811985D01*
X140190694Y-75864789D01*
X140201900Y-75916300D01*
X140201900Y-76179300D01*
X140751900Y-76179300D01*
X141251900Y-76179300D01*
X141801900Y-76179300D01*
X141801900Y-75776165D01*
X141801899Y-75776150D01*
X141799000Y-75739310D01*
X141798999Y-75739304D01*
X141753183Y-75581606D01*
X141753182Y-75581603D01*
X141669585Y-75440247D01*
X141669578Y-75440238D01*
X141553461Y-75324121D01*
X141553452Y-75324114D01*
X141412096Y-75240517D01*
X141412093Y-75240516D01*
X141254394Y-75194700D01*
X141254397Y-75194700D01*
X141251900Y-75194503D01*
X141251900Y-76179300D01*
X140751900Y-76179300D01*
X140751900Y-75523614D01*
X140769167Y-75460494D01*
X140803644Y-75402198D01*
X140849498Y-75244369D01*
X140852400Y-75207494D01*
X140852400Y-73901106D01*
X140849498Y-73864231D01*
X140845977Y-73852113D01*
X140803645Y-73706406D01*
X140803644Y-73706403D01*
X140803644Y-73706402D01*
X140741549Y-73601405D01*
X140719668Y-73564405D01*
X140702400Y-73501284D01*
X140702400Y-72576562D01*
X140722085Y-72509523D01*
X140774889Y-72463768D01*
X140789501Y-72458179D01*
X140854836Y-72437821D01*
X140932714Y-72390742D01*
X140993914Y-72353746D01*
X140993915Y-72353744D01*
X140993920Y-72353742D01*
X141108842Y-72238820D01*
X141116702Y-72225819D01*
X141170554Y-72136735D01*
X141192921Y-72099736D01*
X141241272Y-71944572D01*
X141247400Y-71877137D01*
X141247399Y-70981464D01*
X141247399Y-70981463D01*
X141247399Y-70981455D01*
X141241273Y-70914032D01*
X141241271Y-70914024D01*
X141192921Y-70758864D01*
X141192920Y-70758862D01*
X141108846Y-70619785D01*
X141108842Y-70619780D01*
X140993918Y-70504856D01*
X140982440Y-70497918D01*
X140935252Y-70446392D01*
X140923412Y-70377532D01*
X140950679Y-70313203D01*
X140982440Y-70285682D01*
X140993918Y-70278743D01*
X140993917Y-70278743D01*
X140993920Y-70278742D01*
X141108842Y-70163820D01*
X141116702Y-70150819D01*
X141170554Y-70061735D01*
X141192921Y-70024736D01*
X141241272Y-69869572D01*
X141247400Y-69802137D01*
X141247399Y-68906464D01*
X141247399Y-68906463D01*
X141247399Y-68906455D01*
X141241273Y-68839032D01*
X141241271Y-68839024D01*
X141192921Y-68683864D01*
X141192920Y-68683862D01*
X141108846Y-68544785D01*
X141108842Y-68544780D01*
X140993919Y-68429857D01*
X140993914Y-68429853D01*
X140854837Y-68345779D01*
X140854835Y-68345778D01*
X140722009Y-68304388D01*
X140663862Y-68265651D01*
X140635888Y-68201625D01*
X140634900Y-68186003D01*
X140634900Y-67891953D01*
X140654585Y-67824914D01*
X140695776Y-67785223D01*
X140806265Y-67719881D01*
X140922481Y-67603665D01*
X141006144Y-67462198D01*
X141051998Y-67304369D01*
X141054900Y-67267494D01*
X141054900Y-66436106D01*
X141051998Y-66399231D01*
X141048477Y-66387113D01*
X141026334Y-66310895D01*
X141026533Y-66241026D01*
X141064475Y-66182356D01*
X141128113Y-66153512D01*
X141145410Y-66152300D01*
X142932438Y-66152300D01*
X142999477Y-66171985D01*
X143020119Y-66188619D01*
X143970181Y-67138681D01*
X144003666Y-67200004D01*
X144006500Y-67226362D01*
X144006500Y-82201838D01*
X143986815Y-82268877D01*
X143970181Y-82289519D01*
X141604719Y-84654981D01*
X141543396Y-84688466D01*
X141517038Y-84691300D01*
X139533569Y-84691300D01*
X139470448Y-84674032D01*
X139412996Y-84640055D01*
X139412993Y-84640054D01*
X139255173Y-84594202D01*
X139255167Y-84594201D01*
X139218301Y-84591300D01*
X139218294Y-84591300D01*
X138286906Y-84591300D01*
X138286898Y-84591300D01*
X138250032Y-84594201D01*
X138250026Y-84594202D01*
X138092206Y-84640054D01*
X138092203Y-84640055D01*
X138034752Y-84674032D01*
X137971631Y-84691300D01*
X130870231Y-84691300D01*
X130833365Y-84694201D01*
X130833359Y-84694202D01*
X130675539Y-84740054D01*
X130675536Y-84740055D01*
X130618085Y-84774032D01*
X130554964Y-84791300D01*
X124700236Y-84791300D01*
X124637115Y-84774032D01*
X124579663Y-84740055D01*
X124579660Y-84740054D01*
X124421840Y-84694202D01*
X124421834Y-84694201D01*
X124384968Y-84691300D01*
X124384961Y-84691300D01*
X123453573Y-84691300D01*
X123453565Y-84691300D01*
X123416699Y-84694201D01*
X123416693Y-84694202D01*
X123258873Y-84740054D01*
X123258870Y-84740055D01*
X123201419Y-84774032D01*
X123138298Y-84791300D01*
X119832506Y-84791300D01*
X119658541Y-84825903D01*
X119658532Y-84825906D01*
X119494657Y-84893784D01*
X119494655Y-84893785D01*
X119363529Y-84981401D01*
X119363529Y-84981402D01*
X119352690Y-84988644D01*
X119347159Y-84992340D01*
X119347158Y-84992341D01*
X118839629Y-85499869D01*
X118815870Y-85518442D01*
X118807938Y-85523213D01*
X118775653Y-85536587D01*
X118687240Y-85595663D01*
X118684811Y-85597285D01*
X118684801Y-85597292D01*
X118628161Y-85635137D01*
X117954522Y-86308776D01*
X117914294Y-86335656D01*
X117788489Y-86387766D01*
X117788479Y-86387771D01*
X117624618Y-86497260D01*
X117624614Y-86497263D01*
X117485263Y-86636614D01*
X117485260Y-86636618D01*
X117375771Y-86800479D01*
X117375764Y-86800492D01*
X117300350Y-86982560D01*
X117300347Y-86982570D01*
X117261900Y-87175856D01*
X117261900Y-87175859D01*
X117261900Y-87372941D01*
X117261900Y-87372943D01*
X117261899Y-87372943D01*
X117300347Y-87566229D01*
X117300350Y-87566239D01*
X117375764Y-87748307D01*
X117375771Y-87748320D01*
X117485260Y-87912181D01*
X117485263Y-87912185D01*
X117624614Y-88051536D01*
X117624618Y-88051539D01*
X117788479Y-88161028D01*
X117788492Y-88161035D01*
X117959706Y-88231953D01*
X117970565Y-88236451D01*
X117970569Y-88236451D01*
X117970570Y-88236452D01*
X118163856Y-88274900D01*
X118163859Y-88274900D01*
X118360943Y-88274900D01*
X118548614Y-88237569D01*
X118554235Y-88236451D01*
X118736314Y-88161032D01*
X118900182Y-88051539D01*
X119039539Y-87912182D01*
X119149032Y-87748314D01*
X119201143Y-87622501D01*
X119228019Y-87582279D01*
X119640972Y-87169326D01*
X119664727Y-87150756D01*
X119672646Y-87145991D01*
X119704947Y-87132613D01*
X119793359Y-87073536D01*
X119852436Y-87034064D01*
X120257880Y-86628618D01*
X120319203Y-86595134D01*
X120345561Y-86592300D01*
X122778257Y-86592300D01*
X122845296Y-86611985D01*
X122891051Y-86664789D01*
X122900995Y-86733947D01*
X122897333Y-86750895D01*
X122871669Y-86839226D01*
X122871668Y-86839232D01*
X122868767Y-86876098D01*
X122868767Y-87707501D01*
X122871668Y-87744367D01*
X122871669Y-87744373D01*
X122917521Y-87902193D01*
X122917522Y-87902196D01*
X122917523Y-87902198D01*
X122923429Y-87912185D01*
X123001184Y-88043662D01*
X123001190Y-88043670D01*
X123117396Y-88159876D01*
X123117399Y-88159878D01*
X123117402Y-88159881D01*
X123187889Y-88201566D01*
X123235571Y-88252633D01*
X123248767Y-88308297D01*
X123248767Y-88626003D01*
X123229082Y-88693042D01*
X123176278Y-88738797D01*
X123161658Y-88744388D01*
X123028831Y-88785778D01*
X123028829Y-88785779D01*
X122889752Y-88869853D01*
X122889747Y-88869857D01*
X122774824Y-88984780D01*
X122774820Y-88984785D01*
X122690746Y-89123862D01*
X122690744Y-89123866D01*
X122642395Y-89279026D01*
X122636267Y-89346465D01*
X122636267Y-90242144D01*
X122642393Y-90309567D01*
X122642395Y-90309575D01*
X122690745Y-90464735D01*
X122690746Y-90464737D01*
X122774820Y-90603814D01*
X122774824Y-90603819D01*
X122889747Y-90718742D01*
X122889749Y-90718743D01*
X122901228Y-90725683D01*
X122948416Y-90777211D01*
X122960254Y-90846071D01*
X122932985Y-90910399D01*
X122901228Y-90937917D01*
X122889749Y-90944856D01*
X122889747Y-90944857D01*
X122774824Y-91059780D01*
X122774820Y-91059785D01*
X122690746Y-91198862D01*
X122690744Y-91198866D01*
X122642395Y-91354026D01*
X122636267Y-91421465D01*
X122636267Y-92317144D01*
X122642393Y-92384567D01*
X122642395Y-92384575D01*
X122690745Y-92539735D01*
X122690746Y-92539737D01*
X122774820Y-92678814D01*
X122774824Y-92678819D01*
X122889747Y-92793742D01*
X122889752Y-92793746D01*
X123028829Y-92877820D01*
X123028833Y-92877822D01*
X123079150Y-92893501D01*
X123183995Y-92926172D01*
X123203489Y-92927943D01*
X123268471Y-92953613D01*
X123309260Y-93010341D01*
X123316267Y-93051434D01*
X123316267Y-93941284D01*
X123298999Y-94004405D01*
X123215022Y-94146403D01*
X123215021Y-94146406D01*
X123169169Y-94304226D01*
X123169168Y-94304232D01*
X123166267Y-94341098D01*
X123166267Y-95507300D01*
X123146582Y-95574339D01*
X123093778Y-95620094D01*
X123042267Y-95631300D01*
X122801065Y-95631300D01*
X122764199Y-95634201D01*
X122764193Y-95634202D01*
X122606373Y-95680054D01*
X122606370Y-95680055D01*
X122464904Y-95763717D01*
X122464896Y-95763723D01*
X122348690Y-95879929D01*
X122348684Y-95879937D01*
X122265022Y-96021403D01*
X122265021Y-96021406D01*
X122219169Y-96179226D01*
X122219168Y-96179232D01*
X122216267Y-96216098D01*
X122216267Y-96509100D01*
X122196582Y-96576139D01*
X122143778Y-96621894D01*
X122092267Y-96633100D01*
X116440229Y-96633100D01*
X116373190Y-96613415D01*
X116352548Y-96596781D01*
X114950619Y-95194851D01*
X114917134Y-95133528D01*
X114914300Y-95107170D01*
X114914300Y-94435630D01*
X114933985Y-94368591D01*
X114965414Y-94335312D01*
X115060725Y-94266066D01*
X115213964Y-94112827D01*
X115313482Y-93975851D01*
X115368812Y-93933186D01*
X115438425Y-93927207D01*
X115500220Y-93959813D01*
X115514117Y-93975851D01*
X115613636Y-94112827D01*
X115766875Y-94266066D01*
X115942200Y-94393447D01*
X116123271Y-94485707D01*
X116135294Y-94491833D01*
X116341395Y-94558799D01*
X116341396Y-94558799D01*
X116341399Y-94558800D01*
X116555444Y-94592702D01*
X116555445Y-94592702D01*
X116772154Y-94592702D01*
X116772156Y-94592702D01*
X116888517Y-94574271D01*
X116957806Y-94583225D01*
X116995593Y-94609063D01*
X117965476Y-95578947D01*
X117965483Y-95578953D01*
X118019477Y-95615030D01*
X118019481Y-95615032D01*
X118023607Y-95617789D01*
X118088403Y-95661084D01*
X118134206Y-95680056D01*
X118224986Y-95717659D01*
X118341139Y-95740763D01*
X118360366Y-95744587D01*
X118369979Y-95746500D01*
X118369980Y-95746500D01*
X118369981Y-95746500D01*
X118517816Y-95746500D01*
X119888196Y-95746500D01*
X119935644Y-95755937D01*
X119959303Y-95765737D01*
X119959308Y-95765738D01*
X119959311Y-95765739D01*
X120113953Y-95796499D01*
X120113956Y-95796500D01*
X120113958Y-95796500D01*
X120271644Y-95796500D01*
X120271645Y-95796499D01*
X120426297Y-95765737D01*
X120571979Y-95705394D01*
X120703089Y-95617789D01*
X120814589Y-95506289D01*
X120902194Y-95375179D01*
X120962537Y-95229497D01*
X120993300Y-95074842D01*
X120993300Y-94917158D01*
X120993300Y-94917155D01*
X120993299Y-94917153D01*
X120962538Y-94762510D01*
X120962537Y-94762503D01*
X120962535Y-94762498D01*
X120902197Y-94616827D01*
X120902190Y-94616814D01*
X120814589Y-94485711D01*
X120814586Y-94485707D01*
X120703092Y-94374213D01*
X120703088Y-94374210D01*
X120571985Y-94286609D01*
X120571972Y-94286602D01*
X120426301Y-94226264D01*
X120426289Y-94226261D01*
X120271645Y-94195500D01*
X120271642Y-94195500D01*
X120113958Y-94195500D01*
X120113955Y-94195500D01*
X119959311Y-94226260D01*
X119959306Y-94226262D01*
X119959304Y-94226262D01*
X119959303Y-94226263D01*
X119935644Y-94236062D01*
X119888196Y-94245500D01*
X118806128Y-94245500D01*
X118739089Y-94225815D01*
X118718447Y-94209181D01*
X118056961Y-93547695D01*
X118023476Y-93486372D01*
X118022169Y-93440621D01*
X118040600Y-93324258D01*
X118040600Y-93107546D01*
X118006698Y-92893501D01*
X118006697Y-92893497D01*
X118006697Y-92893496D01*
X117939731Y-92687396D01*
X117904126Y-92617517D01*
X117841345Y-92494302D01*
X117713964Y-92318977D01*
X117560725Y-92165738D01*
X117423749Y-92066219D01*
X117381084Y-92010890D01*
X117375105Y-91941277D01*
X117407711Y-91879482D01*
X117423750Y-91865584D01*
X117560725Y-91766066D01*
X117713964Y-91612827D01*
X117841345Y-91437502D01*
X117939730Y-91244410D01*
X118006698Y-91038303D01*
X118040600Y-90824258D01*
X118040600Y-90607546D01*
X118006698Y-90393501D01*
X118006697Y-90393497D01*
X118006697Y-90393496D01*
X117939731Y-90187396D01*
X117843544Y-89998618D01*
X117841345Y-89994302D01*
X117713964Y-89818977D01*
X117560725Y-89665738D01*
X117385400Y-89538357D01*
X117358852Y-89524830D01*
X117192305Y-89439970D01*
X116986204Y-89373004D01*
X116811496Y-89345333D01*
X116772156Y-89339102D01*
X116555444Y-89339102D01*
X116508963Y-89346464D01*
X116341397Y-89373004D01*
X116341394Y-89373004D01*
X116135294Y-89439970D01*
X115942199Y-89538357D01*
X115766872Y-89665740D01*
X115613638Y-89818974D01*
X115613638Y-89818975D01*
X115613636Y-89818977D01*
X115539418Y-89921130D01*
X115514118Y-89955952D01*
X115458788Y-89998617D01*
X115389174Y-90004596D01*
X115327380Y-89971990D01*
X115313482Y-89955952D01*
X115288182Y-89921130D01*
X115213964Y-89818977D01*
X115060725Y-89665738D01*
X114965413Y-89596489D01*
X114922749Y-89541161D01*
X114914300Y-89496173D01*
X114914300Y-87417230D01*
X114933985Y-87350191D01*
X114950619Y-87329549D01*
X118536949Y-83743219D01*
X118598272Y-83709734D01*
X118624630Y-83706900D01*
X119975117Y-83706900D01*
X120042156Y-83726585D01*
X120043996Y-83727790D01*
X120121853Y-83779813D01*
X120121856Y-83779814D01*
X120121857Y-83779815D01*
X120231107Y-83825067D01*
X120285734Y-83847694D01*
X120285736Y-83847694D01*
X120285741Y-83847696D01*
X120459704Y-83882299D01*
X120459707Y-83882300D01*
X120459709Y-83882300D01*
X120637093Y-83882300D01*
X120637094Y-83882299D01*
X120695082Y-83870764D01*
X120811058Y-83847696D01*
X120811061Y-83847694D01*
X120811066Y-83847694D01*
X120974947Y-83779813D01*
X121122435Y-83681264D01*
X121247864Y-83555835D01*
X121346413Y-83408347D01*
X121414294Y-83244466D01*
X121415565Y-83238079D01*
X121448899Y-83070495D01*
X121448900Y-83070493D01*
X121448900Y-82893106D01*
X121448899Y-82893104D01*
X121414296Y-82719141D01*
X121414293Y-82719132D01*
X121412538Y-82714896D01*
X121397323Y-82678163D01*
X121346416Y-82555259D01*
X121346409Y-82555246D01*
X121247864Y-82407765D01*
X121247861Y-82407761D01*
X121122438Y-82282338D01*
X121122434Y-82282335D01*
X120974953Y-82183790D01*
X120974940Y-82183783D01*
X120811067Y-82115906D01*
X120811058Y-82115903D01*
X120637094Y-82081300D01*
X120637091Y-82081300D01*
X120459709Y-82081300D01*
X120459706Y-82081300D01*
X120285741Y-82115903D01*
X120285732Y-82115906D01*
X120121857Y-82183784D01*
X120121189Y-82184230D01*
X120120032Y-82185003D01*
X120118933Y-82185347D01*
X120116486Y-82186656D01*
X120116237Y-82186191D01*
X120053356Y-82205880D01*
X120051144Y-82205900D01*
X118188476Y-82205900D01*
X118159642Y-82211634D01*
X118159643Y-82211635D01*
X118043493Y-82234739D01*
X118043483Y-82234742D01*
X117963481Y-82267879D01*
X117963482Y-82267880D01*
X117906902Y-82291317D01*
X117857669Y-82324213D01*
X117783988Y-82373444D01*
X117783980Y-82373450D01*
X113580847Y-86576584D01*
X113580843Y-86576589D01*
X113536109Y-86643542D01*
X113536108Y-86643544D01*
X113521913Y-86664789D01*
X113498716Y-86699504D01*
X113498712Y-86699511D01*
X113442143Y-86836082D01*
X113442140Y-86836092D01*
X113413300Y-86981079D01*
X113413300Y-89496173D01*
X113393615Y-89563212D01*
X113362187Y-89596489D01*
X113312501Y-89632589D01*
X113266872Y-89665740D01*
X113113638Y-89818974D01*
X113113638Y-89818975D01*
X113113636Y-89818977D01*
X113039418Y-89921130D01*
X113014118Y-89955952D01*
X112958788Y-89998617D01*
X112889174Y-90004596D01*
X112827380Y-89971990D01*
X112813482Y-89955952D01*
X112788182Y-89921130D01*
X112713964Y-89818977D01*
X112560725Y-89665738D01*
X112465413Y-89596489D01*
X112422749Y-89541161D01*
X112414300Y-89496173D01*
X112414300Y-85319829D01*
X112433985Y-85252790D01*
X112450619Y-85232148D01*
X116225548Y-81457219D01*
X116286871Y-81423734D01*
X116313229Y-81420900D01*
X126007120Y-81420900D01*
X126104662Y-81401496D01*
X126152113Y-81392058D01*
X126288695Y-81335484D01*
X126337929Y-81302586D01*
X126411616Y-81253352D01*
X129924348Y-77740618D01*
X129985671Y-77707134D01*
X130012029Y-77704300D01*
X130306595Y-77704300D01*
X130306603Y-77704300D01*
X130343478Y-77701398D01*
X130343480Y-77701397D01*
X130343482Y-77701397D01*
X130385100Y-77689305D01*
X130501307Y-77655544D01*
X130642774Y-77571881D01*
X130758990Y-77455665D01*
X130842653Y-77314198D01*
X130888507Y-77156369D01*
X130891409Y-77119494D01*
X130891409Y-77119449D01*
X131190909Y-77119449D01*
X131193808Y-77156289D01*
X131193809Y-77156295D01*
X131239625Y-77313993D01*
X131239626Y-77313996D01*
X131323223Y-77455352D01*
X131323230Y-77455361D01*
X131439347Y-77571478D01*
X131439356Y-77571485D01*
X131580710Y-77655081D01*
X131738423Y-77700900D01*
X131738420Y-77700900D01*
X131740907Y-77701095D01*
X131740909Y-77701095D01*
X132240909Y-77701095D01*
X132240910Y-77701095D01*
X132243395Y-77700900D01*
X132401107Y-77655081D01*
X132542461Y-77571485D01*
X132542470Y-77571478D01*
X132658587Y-77455361D01*
X132658594Y-77455352D01*
X132742191Y-77313996D01*
X132742192Y-77313993D01*
X132788008Y-77156295D01*
X132788009Y-77156289D01*
X132790908Y-77119449D01*
X132790909Y-77119434D01*
X132790909Y-76716300D01*
X132240909Y-76716300D01*
X132240909Y-77701095D01*
X131740909Y-77701095D01*
X131740909Y-76716300D01*
X131190909Y-76716300D01*
X131190909Y-77119449D01*
X130891409Y-77119449D01*
X130891409Y-75953300D01*
X130911094Y-75886261D01*
X130963898Y-75840506D01*
X131015409Y-75829300D01*
X131066909Y-75829300D01*
X131133948Y-75848985D01*
X131179703Y-75901789D01*
X131190909Y-75953300D01*
X131190909Y-76216300D01*
X131740909Y-76216300D01*
X132240909Y-76216300D01*
X132790909Y-76216300D01*
X132790909Y-75813165D01*
X132790908Y-75813150D01*
X132788009Y-75776310D01*
X132788008Y-75776304D01*
X132742192Y-75618606D01*
X132742191Y-75618603D01*
X132658594Y-75477247D01*
X132658587Y-75477238D01*
X132542470Y-75361121D01*
X132542461Y-75361114D01*
X132401105Y-75277517D01*
X132401102Y-75277516D01*
X132243403Y-75231700D01*
X132243406Y-75231700D01*
X132240909Y-75231503D01*
X132240909Y-76216300D01*
X131740909Y-76216300D01*
X131740909Y-75560614D01*
X131758176Y-75497494D01*
X131792653Y-75439198D01*
X131838507Y-75281369D01*
X131841409Y-75244494D01*
X131841409Y-73938106D01*
X131838507Y-73901231D01*
X131838468Y-73901098D01*
X131792654Y-73743406D01*
X131792653Y-73743403D01*
X131792653Y-73743402D01*
X131708990Y-73601935D01*
X131708677Y-73601405D01*
X131691409Y-73538284D01*
X131691409Y-72613562D01*
X131711094Y-72546523D01*
X131763898Y-72500768D01*
X131778510Y-72495179D01*
X131843845Y-72474821D01*
X131943185Y-72414768D01*
X131982923Y-72390746D01*
X131982924Y-72390744D01*
X131982929Y-72390742D01*
X132097851Y-72275820D01*
X132181930Y-72136736D01*
X132230281Y-71981572D01*
X132236409Y-71914137D01*
X132236408Y-71018464D01*
X132236408Y-71018463D01*
X132236408Y-71018455D01*
X132230282Y-70951032D01*
X132230280Y-70951024D01*
X132181930Y-70795864D01*
X132181929Y-70795862D01*
X132097855Y-70656785D01*
X132097851Y-70656780D01*
X131982927Y-70541856D01*
X131971449Y-70534918D01*
X131924261Y-70483392D01*
X131912421Y-70414532D01*
X131939688Y-70350203D01*
X131971449Y-70322682D01*
X131982927Y-70315743D01*
X131982926Y-70315743D01*
X131982929Y-70315742D01*
X132097851Y-70200820D01*
X132181930Y-70061736D01*
X132230281Y-69906572D01*
X132236409Y-69839137D01*
X132236408Y-68943464D01*
X132236408Y-68943463D01*
X132236408Y-68943455D01*
X132230282Y-68876032D01*
X132230280Y-68876024D01*
X132181930Y-68720864D01*
X132181929Y-68720862D01*
X132097855Y-68581785D01*
X132097851Y-68581780D01*
X131982928Y-68466857D01*
X131982923Y-68466853D01*
X131843846Y-68382779D01*
X131843844Y-68382778D01*
X131711018Y-68341388D01*
X131652871Y-68302651D01*
X131624897Y-68238625D01*
X131623909Y-68223003D01*
X131623909Y-67928953D01*
X131643594Y-67861914D01*
X131684785Y-67822223D01*
X131795274Y-67756881D01*
X131911490Y-67640665D01*
X131995153Y-67499198D01*
X132041007Y-67341369D01*
X132043909Y-67304494D01*
X132043909Y-66473106D01*
X132041007Y-66436231D01*
X132040971Y-66436106D01*
X132004594Y-66310895D01*
X132004793Y-66241025D01*
X132042735Y-66182355D01*
X132106374Y-66153512D01*
X132123670Y-66152300D01*
X138863390Y-66152300D01*
X138930429Y-66171985D01*
G37*
%TD.AperFunction*%
%TA.AperFunction,Conductor*%
G36*
X105500220Y-91459813D02*
G01*
X105514117Y-91475851D01*
X105613636Y-91612827D01*
X105766875Y-91766066D01*
X105903850Y-91865584D01*
X105946515Y-91920914D01*
X105952494Y-91990528D01*
X105919888Y-92052322D01*
X105903850Y-92066219D01*
X105766875Y-92165738D01*
X105766873Y-92165740D01*
X105766872Y-92165740D01*
X105613637Y-92318975D01*
X105513809Y-92456376D01*
X105458478Y-92499041D01*
X105388865Y-92505020D01*
X105327070Y-92472414D01*
X105313173Y-92456375D01*
X105297901Y-92435355D01*
X105297899Y-92435354D01*
X104743640Y-92989613D01*
X104715275Y-92921132D01*
X104647172Y-92819209D01*
X104560493Y-92732530D01*
X104458570Y-92664427D01*
X104390087Y-92636060D01*
X104944345Y-92081801D01*
X104944345Y-92081800D01*
X104923325Y-92066528D01*
X104880659Y-92011198D01*
X104874680Y-91941585D01*
X104907286Y-91879790D01*
X104923318Y-91865897D01*
X105060725Y-91766066D01*
X105213964Y-91612827D01*
X105313482Y-91475851D01*
X105368812Y-91433186D01*
X105438425Y-91427207D01*
X105500220Y-91459813D01*
G37*
%TD.AperFunction*%
%TA.AperFunction,Conductor*%
G36*
X121421896Y-66158985D02*
G01*
X121467651Y-66211789D01*
X121477595Y-66280947D01*
X121473933Y-66297895D01*
X121448269Y-66386226D01*
X121448268Y-66386232D01*
X121445367Y-66423098D01*
X121445367Y-67254501D01*
X121448268Y-67291367D01*
X121448269Y-67291373D01*
X121494121Y-67449193D01*
X121494122Y-67449196D01*
X121577784Y-67590662D01*
X121577790Y-67590670D01*
X121693996Y-67706876D01*
X121693999Y-67706878D01*
X121694002Y-67706881D01*
X121764489Y-67748566D01*
X121812171Y-67799633D01*
X121825367Y-67855297D01*
X121825367Y-68173003D01*
X121805682Y-68240042D01*
X121752878Y-68285797D01*
X121738258Y-68291388D01*
X121605431Y-68332778D01*
X121605429Y-68332779D01*
X121466352Y-68416853D01*
X121466347Y-68416857D01*
X121351424Y-68531780D01*
X121351420Y-68531785D01*
X121267346Y-68670862D01*
X121267344Y-68670866D01*
X121218995Y-68826026D01*
X121212867Y-68893465D01*
X121212867Y-69789144D01*
X121218993Y-69856567D01*
X121218995Y-69856575D01*
X121267345Y-70011735D01*
X121267346Y-70011737D01*
X121351420Y-70150814D01*
X121351424Y-70150819D01*
X121466347Y-70265742D01*
X121466349Y-70265743D01*
X121477828Y-70272683D01*
X121525016Y-70324211D01*
X121536854Y-70393071D01*
X121509585Y-70457399D01*
X121477828Y-70484917D01*
X121466349Y-70491856D01*
X121466347Y-70491857D01*
X121351424Y-70606780D01*
X121351420Y-70606785D01*
X121267346Y-70745862D01*
X121267344Y-70745866D01*
X121218995Y-70901026D01*
X121212867Y-70968465D01*
X121212867Y-71864144D01*
X121218993Y-71931567D01*
X121218995Y-71931575D01*
X121267345Y-72086735D01*
X121267346Y-72086737D01*
X121351420Y-72225814D01*
X121351424Y-72225819D01*
X121466347Y-72340742D01*
X121466352Y-72340746D01*
X121605429Y-72424820D01*
X121605433Y-72424822D01*
X121650750Y-72438943D01*
X121760595Y-72473172D01*
X121780089Y-72474943D01*
X121845071Y-72500613D01*
X121885860Y-72557341D01*
X121892867Y-72598434D01*
X121892867Y-73488284D01*
X121875599Y-73551405D01*
X121791622Y-73693403D01*
X121791621Y-73693406D01*
X121745769Y-73851226D01*
X121745768Y-73851232D01*
X121742867Y-73888098D01*
X121742867Y-75054300D01*
X121723182Y-75121339D01*
X121670378Y-75167094D01*
X121618867Y-75178300D01*
X121377665Y-75178300D01*
X121340799Y-75181201D01*
X121340793Y-75181202D01*
X121182973Y-75227054D01*
X121182970Y-75227055D01*
X121041504Y-75310717D01*
X121041496Y-75310723D01*
X120925290Y-75426929D01*
X120925284Y-75426937D01*
X120841622Y-75568403D01*
X120841621Y-75568406D01*
X120795769Y-75726226D01*
X120795768Y-75726232D01*
X120792867Y-75763098D01*
X120792867Y-76104070D01*
X120773182Y-76171109D01*
X120756548Y-76191751D01*
X119071318Y-77876981D01*
X119009995Y-77910466D01*
X118983637Y-77913300D01*
X113387880Y-77913300D01*
X113242892Y-77942140D01*
X113242882Y-77942143D01*
X113106311Y-77998712D01*
X113106298Y-77998719D01*
X112983384Y-78080848D01*
X112983380Y-78080851D01*
X108230645Y-82833586D01*
X108193713Y-82888863D01*
X108193711Y-82888866D01*
X108148519Y-82956499D01*
X108148512Y-82956511D01*
X108091943Y-83093082D01*
X108091940Y-83093092D01*
X108063100Y-83238079D01*
X108063100Y-89848243D01*
X108057103Y-89868664D01*
X108055888Y-89889914D01*
X108044559Y-89911383D01*
X108043415Y-89915282D01*
X108039417Y-89921130D01*
X108014116Y-89955953D01*
X107958786Y-89998618D01*
X107889172Y-90004596D01*
X107827378Y-89971989D01*
X107813481Y-89955951D01*
X107783933Y-89915282D01*
X107713964Y-89818977D01*
X107560725Y-89665738D01*
X107385400Y-89538357D01*
X107358852Y-89524830D01*
X107192305Y-89439970D01*
X106986204Y-89373004D01*
X106811496Y-89345333D01*
X106772156Y-89339102D01*
X106640100Y-89339102D01*
X106573061Y-89319417D01*
X106527306Y-89266613D01*
X106516100Y-89215102D01*
X106516100Y-78032000D01*
X106535785Y-77964961D01*
X106588589Y-77919206D01*
X106640100Y-77908000D01*
X106779555Y-77908000D01*
X106779556Y-77908000D01*
X106993601Y-77874098D01*
X106993604Y-77874097D01*
X106993605Y-77874097D01*
X107199705Y-77807131D01*
X107199705Y-77807130D01*
X107199708Y-77807130D01*
X107392800Y-77708745D01*
X107568125Y-77581364D01*
X107721364Y-77428125D01*
X107790612Y-77332813D01*
X107845941Y-77290149D01*
X107890929Y-77281700D01*
X112547068Y-77281700D01*
X112614107Y-77301385D01*
X112653800Y-77342579D01*
X112669816Y-77369661D01*
X112669823Y-77369670D01*
X112786029Y-77485876D01*
X112786033Y-77485879D01*
X112786035Y-77485881D01*
X112927502Y-77569544D01*
X112968176Y-77581361D01*
X113085326Y-77615397D01*
X113085329Y-77615397D01*
X113085331Y-77615398D01*
X113122206Y-77618300D01*
X113122214Y-77618300D01*
X113553586Y-77618300D01*
X113553594Y-77618300D01*
X113590469Y-77615398D01*
X113590471Y-77615397D01*
X113590473Y-77615397D01*
X113632091Y-77603305D01*
X113748298Y-77569544D01*
X113889765Y-77485881D01*
X114005981Y-77369665D01*
X114089644Y-77228198D01*
X114131978Y-77082486D01*
X114135497Y-77070373D01*
X114135498Y-77070367D01*
X114135570Y-77069449D01*
X114138400Y-77033494D01*
X114138400Y-77033449D01*
X114437900Y-77033449D01*
X114440799Y-77070289D01*
X114440800Y-77070295D01*
X114486616Y-77227993D01*
X114486617Y-77227996D01*
X114570214Y-77369352D01*
X114570221Y-77369361D01*
X114686338Y-77485478D01*
X114686347Y-77485485D01*
X114827701Y-77569081D01*
X114985414Y-77614900D01*
X114985411Y-77614900D01*
X114987898Y-77615095D01*
X114987900Y-77615095D01*
X115487900Y-77615095D01*
X115487901Y-77615095D01*
X115490386Y-77614900D01*
X115648098Y-77569081D01*
X115789452Y-77485485D01*
X115789461Y-77485478D01*
X115905578Y-77369361D01*
X115905585Y-77369352D01*
X115989182Y-77227996D01*
X115989183Y-77227993D01*
X116034999Y-77070295D01*
X116035000Y-77070289D01*
X116037899Y-77033449D01*
X116037900Y-77033434D01*
X116037900Y-76630300D01*
X115487900Y-76630300D01*
X115487900Y-77615095D01*
X114987900Y-77615095D01*
X114987900Y-76630300D01*
X114437900Y-76630300D01*
X114437900Y-77033449D01*
X114138400Y-77033449D01*
X114138400Y-75867300D01*
X114158085Y-75800261D01*
X114210889Y-75754506D01*
X114262400Y-75743300D01*
X114313900Y-75743300D01*
X114380939Y-75762985D01*
X114426694Y-75815789D01*
X114437900Y-75867300D01*
X114437900Y-76130300D01*
X114987900Y-76130300D01*
X115487900Y-76130300D01*
X116037900Y-76130300D01*
X116037900Y-75727165D01*
X116037899Y-75727150D01*
X116035000Y-75690310D01*
X116034999Y-75690304D01*
X115989183Y-75532606D01*
X115989182Y-75532603D01*
X115905585Y-75391247D01*
X115905578Y-75391238D01*
X115789461Y-75275121D01*
X115789452Y-75275114D01*
X115648096Y-75191517D01*
X115648093Y-75191516D01*
X115490394Y-75145700D01*
X115490397Y-75145700D01*
X115487900Y-75145503D01*
X115487900Y-76130300D01*
X114987900Y-76130300D01*
X114987900Y-75474614D01*
X115005167Y-75411494D01*
X115039644Y-75353198D01*
X115085498Y-75195369D01*
X115088400Y-75158494D01*
X115088400Y-73852106D01*
X115085498Y-73815231D01*
X115039644Y-73657402D01*
X114955981Y-73515935D01*
X114955668Y-73515405D01*
X114938400Y-73452284D01*
X114938400Y-72527562D01*
X114958085Y-72460523D01*
X115010889Y-72414768D01*
X115025501Y-72409179D01*
X115090836Y-72388821D01*
X115170369Y-72340742D01*
X115229914Y-72304746D01*
X115229915Y-72304744D01*
X115229920Y-72304742D01*
X115344842Y-72189820D01*
X115428921Y-72050736D01*
X115477272Y-71895572D01*
X115483400Y-71828137D01*
X115483399Y-70932464D01*
X115483399Y-70932463D01*
X115483399Y-70932455D01*
X115477273Y-70865032D01*
X115477271Y-70865024D01*
X115428921Y-70709864D01*
X115428920Y-70709862D01*
X115344846Y-70570785D01*
X115344842Y-70570780D01*
X115229918Y-70455856D01*
X115218440Y-70448918D01*
X115171252Y-70397392D01*
X115159412Y-70328532D01*
X115186679Y-70264203D01*
X115218440Y-70236682D01*
X115229918Y-70229743D01*
X115229917Y-70229743D01*
X115229920Y-70229742D01*
X115344842Y-70114820D01*
X115428921Y-69975736D01*
X115431210Y-69968392D01*
X115462002Y-69869575D01*
X115477272Y-69820572D01*
X115483400Y-69753137D01*
X115483399Y-68857464D01*
X115483399Y-68857463D01*
X115483399Y-68857455D01*
X115477273Y-68790032D01*
X115477271Y-68790024D01*
X115428921Y-68634864D01*
X115428920Y-68634862D01*
X115344846Y-68495785D01*
X115344842Y-68495780D01*
X115229919Y-68380857D01*
X115229914Y-68380853D01*
X115090837Y-68296779D01*
X115090835Y-68296778D01*
X114958009Y-68255388D01*
X114899862Y-68216651D01*
X114871888Y-68152625D01*
X114870900Y-68137003D01*
X114870900Y-67842953D01*
X114890585Y-67775914D01*
X114931776Y-67736223D01*
X115042265Y-67670881D01*
X115158481Y-67554665D01*
X115242144Y-67413198D01*
X115287998Y-67255369D01*
X115290900Y-67218494D01*
X115290900Y-66387106D01*
X115287998Y-66350231D01*
X115272793Y-66297895D01*
X115272992Y-66228026D01*
X115310934Y-66169356D01*
X115374572Y-66140512D01*
X115391869Y-66139300D01*
X121354857Y-66139300D01*
X121421896Y-66158985D01*
G37*
%TD.AperFunction*%
%TA.AperFunction,Conductor*%
G36*
X129877588Y-66196696D02*
G01*
X129903589Y-66200359D01*
X129910583Y-66206385D01*
X129919438Y-66208985D01*
X129936626Y-66228821D01*
X129956523Y-66245963D01*
X129959149Y-66254814D01*
X129965193Y-66261789D01*
X129968929Y-66287775D01*
X129976398Y-66312946D01*
X129974493Y-66326468D01*
X129975137Y-66330947D01*
X129971475Y-66347895D01*
X129945811Y-66436226D01*
X129945810Y-66436232D01*
X129942909Y-66473098D01*
X129942909Y-67304501D01*
X129945810Y-67341367D01*
X129945811Y-67341373D01*
X129991663Y-67499193D01*
X129991664Y-67499196D01*
X130075326Y-67640662D01*
X130075332Y-67640670D01*
X130191538Y-67756876D01*
X130191541Y-67756878D01*
X130191544Y-67756881D01*
X130262031Y-67798566D01*
X130309713Y-67849633D01*
X130322909Y-67905297D01*
X130322909Y-68223003D01*
X130303224Y-68290042D01*
X130250420Y-68335797D01*
X130235800Y-68341388D01*
X130102973Y-68382778D01*
X130102971Y-68382779D01*
X129963894Y-68466853D01*
X129963889Y-68466857D01*
X129848966Y-68581780D01*
X129848962Y-68581785D01*
X129764888Y-68720862D01*
X129764886Y-68720866D01*
X129716537Y-68876026D01*
X129710409Y-68943465D01*
X129710409Y-69839144D01*
X129716535Y-69906567D01*
X129716537Y-69906575D01*
X129764887Y-70061735D01*
X129764888Y-70061737D01*
X129848962Y-70200814D01*
X129848966Y-70200819D01*
X129963889Y-70315742D01*
X129963891Y-70315743D01*
X129975370Y-70322683D01*
X130022558Y-70374211D01*
X130034396Y-70443071D01*
X130007127Y-70507399D01*
X129975370Y-70534917D01*
X129963891Y-70541856D01*
X129963889Y-70541857D01*
X129848966Y-70656780D01*
X129848962Y-70656785D01*
X129764888Y-70795862D01*
X129764886Y-70795866D01*
X129716537Y-70951026D01*
X129710409Y-71018465D01*
X129710409Y-71914144D01*
X129716535Y-71981567D01*
X129716537Y-71981575D01*
X129764887Y-72136735D01*
X129764888Y-72136737D01*
X129848962Y-72275814D01*
X129848966Y-72275819D01*
X129963889Y-72390742D01*
X129963894Y-72390746D01*
X130102971Y-72474820D01*
X130102975Y-72474822D01*
X130145083Y-72487943D01*
X130258137Y-72523172D01*
X130277631Y-72524943D01*
X130342613Y-72550613D01*
X130383402Y-72607341D01*
X130390409Y-72648434D01*
X130390409Y-73538284D01*
X130373141Y-73601405D01*
X130289164Y-73743403D01*
X130289163Y-73743406D01*
X130243311Y-73901226D01*
X130243310Y-73901232D01*
X130240409Y-73938098D01*
X130240409Y-75104300D01*
X130220724Y-75171339D01*
X130167920Y-75217094D01*
X130116409Y-75228300D01*
X129875207Y-75228300D01*
X129838341Y-75231201D01*
X129838335Y-75231202D01*
X129680515Y-75277054D01*
X129680512Y-75277055D01*
X129539046Y-75360717D01*
X129539038Y-75360723D01*
X129422832Y-75476929D01*
X129422826Y-75476937D01*
X129339164Y-75618403D01*
X129339163Y-75618406D01*
X129293311Y-75776226D01*
X129293310Y-75776232D01*
X129290409Y-75813098D01*
X129290409Y-76200461D01*
X129270724Y-76267500D01*
X129254090Y-76288142D01*
X125658651Y-79883581D01*
X125597328Y-79917066D01*
X125570970Y-79919900D01*
X115877080Y-79919900D01*
X115732092Y-79948740D01*
X115732082Y-79948743D01*
X115595511Y-80005312D01*
X115595498Y-80005319D01*
X115472584Y-80087448D01*
X115472580Y-80087451D01*
X111080850Y-84479180D01*
X111080844Y-84479188D01*
X111031612Y-84552868D01*
X111031613Y-84552869D01*
X110998721Y-84602096D01*
X110998714Y-84602108D01*
X110942142Y-84738686D01*
X110942140Y-84738692D01*
X110913300Y-84883679D01*
X110913300Y-89496173D01*
X110893615Y-89563212D01*
X110862187Y-89596489D01*
X110812501Y-89632589D01*
X110766872Y-89665740D01*
X110613638Y-89818974D01*
X110613638Y-89818975D01*
X110613636Y-89818977D01*
X110539418Y-89921130D01*
X110514118Y-89955952D01*
X110458788Y-89998617D01*
X110389174Y-90004596D01*
X110327380Y-89971990D01*
X110313482Y-89955952D01*
X110288182Y-89921130D01*
X110213964Y-89818977D01*
X110060725Y-89665738D01*
X109885400Y-89538357D01*
X109858852Y-89524830D01*
X109692308Y-89439971D01*
X109649780Y-89426153D01*
X109592105Y-89386715D01*
X109564908Y-89322356D01*
X109564100Y-89308223D01*
X109564100Y-83674229D01*
X109583785Y-83607190D01*
X109600419Y-83586548D01*
X113736348Y-79450619D01*
X113797671Y-79417134D01*
X113824029Y-79414300D01*
X119419787Y-79414300D01*
X119517329Y-79394896D01*
X119564780Y-79385458D01*
X119701362Y-79328884D01*
X119750596Y-79295986D01*
X119764794Y-79286500D01*
X119774938Y-79279721D01*
X119824283Y-79246752D01*
X121380416Y-77690619D01*
X121441739Y-77657134D01*
X121468097Y-77654300D01*
X121809053Y-77654300D01*
X121809061Y-77654300D01*
X121845936Y-77651398D01*
X121845938Y-77651397D01*
X121845940Y-77651397D01*
X121887558Y-77639305D01*
X122003765Y-77605544D01*
X122145232Y-77521881D01*
X122261448Y-77405665D01*
X122345111Y-77264198D01*
X122390965Y-77106369D01*
X122393867Y-77069494D01*
X122393867Y-77069449D01*
X122693367Y-77069449D01*
X122696266Y-77106289D01*
X122696267Y-77106295D01*
X122742083Y-77263993D01*
X122742084Y-77263996D01*
X122825681Y-77405352D01*
X122825688Y-77405361D01*
X122941805Y-77521478D01*
X122941814Y-77521485D01*
X123083168Y-77605081D01*
X123240881Y-77650900D01*
X123240878Y-77650900D01*
X123243365Y-77651095D01*
X123243367Y-77651095D01*
X123743367Y-77651095D01*
X123743368Y-77651095D01*
X123745853Y-77650900D01*
X123903565Y-77605081D01*
X124044919Y-77521485D01*
X124044928Y-77521478D01*
X124161045Y-77405361D01*
X124161052Y-77405352D01*
X124244649Y-77263996D01*
X124244650Y-77263993D01*
X124290466Y-77106295D01*
X124290467Y-77106289D01*
X124293366Y-77069449D01*
X124293367Y-77069434D01*
X124293367Y-76666300D01*
X123743367Y-76666300D01*
X123743367Y-77651095D01*
X123243367Y-77651095D01*
X123243367Y-76666300D01*
X122693367Y-76666300D01*
X122693367Y-77069449D01*
X122393867Y-77069449D01*
X122393867Y-75903300D01*
X122413552Y-75836261D01*
X122466356Y-75790506D01*
X122517867Y-75779300D01*
X122569367Y-75779300D01*
X122636406Y-75798985D01*
X122682161Y-75851789D01*
X122693367Y-75903300D01*
X122693367Y-76166300D01*
X123243367Y-76166300D01*
X123743367Y-76166300D01*
X124293367Y-76166300D01*
X124293367Y-75763165D01*
X124293366Y-75763150D01*
X124290467Y-75726310D01*
X124290466Y-75726304D01*
X124244650Y-75568606D01*
X124244649Y-75568603D01*
X124161052Y-75427247D01*
X124161045Y-75427238D01*
X124044928Y-75311121D01*
X124044919Y-75311114D01*
X123903563Y-75227517D01*
X123903560Y-75227516D01*
X123745861Y-75181700D01*
X123745864Y-75181700D01*
X123743367Y-75181503D01*
X123743367Y-76166300D01*
X123243367Y-76166300D01*
X123243367Y-75510614D01*
X123260634Y-75447494D01*
X123295111Y-75389198D01*
X123338441Y-75240056D01*
X123340964Y-75231373D01*
X123340965Y-75231367D01*
X123340978Y-75231201D01*
X123343867Y-75194494D01*
X123343867Y-73888106D01*
X123340965Y-73851231D01*
X123330506Y-73815232D01*
X123295112Y-73693406D01*
X123295111Y-73693403D01*
X123295111Y-73693402D01*
X123240704Y-73601405D01*
X123211135Y-73551405D01*
X123193867Y-73488284D01*
X123193867Y-72563562D01*
X123213552Y-72496523D01*
X123266356Y-72450768D01*
X123280968Y-72445179D01*
X123346303Y-72424821D01*
X123463876Y-72353746D01*
X123485381Y-72340746D01*
X123485382Y-72340744D01*
X123485387Y-72340742D01*
X123600309Y-72225820D01*
X123622076Y-72189814D01*
X123654164Y-72136733D01*
X123684388Y-72086736D01*
X123732739Y-71931572D01*
X123738867Y-71864137D01*
X123738866Y-70968464D01*
X123738866Y-70968463D01*
X123738866Y-70968455D01*
X123732740Y-70901032D01*
X123732738Y-70901024D01*
X123684388Y-70745864D01*
X123684387Y-70745862D01*
X123600313Y-70606785D01*
X123600309Y-70606780D01*
X123485385Y-70491856D01*
X123473907Y-70484918D01*
X123426719Y-70433392D01*
X123414879Y-70364532D01*
X123442146Y-70300203D01*
X123473907Y-70272682D01*
X123485385Y-70265743D01*
X123485384Y-70265743D01*
X123485387Y-70265742D01*
X123600309Y-70150820D01*
X123619936Y-70118354D01*
X123654164Y-70061733D01*
X123684388Y-70011736D01*
X123732739Y-69856572D01*
X123738867Y-69789137D01*
X123738866Y-68893464D01*
X123738866Y-68893463D01*
X123738866Y-68893455D01*
X123732740Y-68826032D01*
X123732738Y-68826024D01*
X123684388Y-68670864D01*
X123684387Y-68670862D01*
X123600313Y-68531785D01*
X123600309Y-68531780D01*
X123485386Y-68416857D01*
X123485381Y-68416853D01*
X123346304Y-68332779D01*
X123346302Y-68332778D01*
X123213476Y-68291388D01*
X123155329Y-68252651D01*
X123127355Y-68188625D01*
X123126367Y-68173003D01*
X123126367Y-67878953D01*
X123146052Y-67811914D01*
X123187243Y-67772223D01*
X123297732Y-67706881D01*
X123413948Y-67590665D01*
X123497611Y-67449198D01*
X123543465Y-67291369D01*
X123546367Y-67254494D01*
X123546367Y-66423106D01*
X123543465Y-66386231D01*
X123532327Y-66347894D01*
X123532527Y-66278025D01*
X123570470Y-66219355D01*
X123634108Y-66190512D01*
X123651404Y-66189300D01*
X129852399Y-66189300D01*
X129877588Y-66196696D01*
G37*
%TD.AperFunction*%
%TA.AperFunction,Conductor*%
G36*
X152303600Y-59066285D02*
G01*
X152349355Y-59119089D01*
X152360558Y-59171265D01*
X152199226Y-89179032D01*
X152132939Y-101508467D01*
X152112895Y-101575399D01*
X152059845Y-101620870D01*
X152008941Y-101631800D01*
X117347426Y-101631800D01*
X117280387Y-101612115D01*
X117234632Y-101559311D01*
X117224688Y-101490153D01*
X117253713Y-101426597D01*
X117277443Y-101406476D01*
X117277055Y-101405941D01*
X117280997Y-101403077D01*
X117430955Y-101294126D01*
X117562023Y-101163058D01*
X117670974Y-101013100D01*
X117755124Y-100847944D01*
X117812403Y-100671658D01*
X117841400Y-100488582D01*
X117841400Y-100303224D01*
X117812403Y-100120148D01*
X117755124Y-99943862D01*
X117670974Y-99778706D01*
X117562023Y-99628748D01*
X117430955Y-99497680D01*
X117280997Y-99388729D01*
X117268652Y-99382439D01*
X117115838Y-99304577D01*
X116939552Y-99247299D01*
X116798029Y-99224884D01*
X116756479Y-99218303D01*
X116571121Y-99218303D01*
X116529571Y-99224884D01*
X116388048Y-99247299D01*
X116388047Y-99247299D01*
X116211761Y-99304577D01*
X116046606Y-99388727D01*
X116046598Y-99388732D01*
X115981898Y-99435740D01*
X115896645Y-99497680D01*
X115896643Y-99497682D01*
X115896642Y-99497682D01*
X115765579Y-99628745D01*
X115765579Y-99628746D01*
X115765577Y-99628748D01*
X115715601Y-99697534D01*
X115656629Y-99778701D01*
X115656624Y-99778709D01*
X115572474Y-99943864D01*
X115515196Y-100120150D01*
X115515196Y-100120151D01*
X115486200Y-100303224D01*
X115486200Y-100488581D01*
X115515196Y-100671654D01*
X115515196Y-100671655D01*
X115572474Y-100847941D01*
X115572476Y-100847944D01*
X115656626Y-101013100D01*
X115765577Y-101163058D01*
X115896645Y-101294126D01*
X116046603Y-101403077D01*
X116050545Y-101405941D01*
X116049617Y-101407218D01*
X116091836Y-101453878D01*
X116103263Y-101522807D01*
X116075609Y-101586972D01*
X116017656Y-101625999D01*
X115980174Y-101631800D01*
X104847426Y-101631800D01*
X104780387Y-101612115D01*
X104734632Y-101559311D01*
X104724688Y-101490153D01*
X104753713Y-101426597D01*
X104777443Y-101406476D01*
X104777055Y-101405941D01*
X104780997Y-101403077D01*
X104930955Y-101294126D01*
X105062023Y-101163058D01*
X105170974Y-101013100D01*
X105255124Y-100847944D01*
X105312403Y-100671658D01*
X105341400Y-100488582D01*
X105341400Y-100303224D01*
X105312403Y-100120148D01*
X105255124Y-99943862D01*
X105170974Y-99778706D01*
X105062023Y-99628748D01*
X104930955Y-99497680D01*
X104780997Y-99388729D01*
X104768652Y-99382439D01*
X104615838Y-99304577D01*
X104439552Y-99247299D01*
X104298029Y-99224884D01*
X104256479Y-99218303D01*
X104071121Y-99218303D01*
X104029571Y-99224884D01*
X103888048Y-99247299D01*
X103888047Y-99247299D01*
X103711761Y-99304577D01*
X103546606Y-99388727D01*
X103546598Y-99388732D01*
X103481898Y-99435740D01*
X103396645Y-99497680D01*
X103396643Y-99497682D01*
X103396642Y-99497682D01*
X103265579Y-99628745D01*
X103265579Y-99628746D01*
X103265577Y-99628748D01*
X103215601Y-99697534D01*
X103156629Y-99778701D01*
X103156624Y-99778709D01*
X103072474Y-99943864D01*
X103015196Y-100120150D01*
X103015196Y-100120151D01*
X102986200Y-100303224D01*
X102986200Y-100488581D01*
X103015196Y-100671654D01*
X103015196Y-100671655D01*
X103072474Y-100847941D01*
X103072476Y-100847944D01*
X103156626Y-101013100D01*
X103265577Y-101163058D01*
X103396645Y-101294126D01*
X103546603Y-101403077D01*
X103550545Y-101405941D01*
X103549617Y-101407218D01*
X103591836Y-101453878D01*
X103603263Y-101522807D01*
X103575609Y-101586972D01*
X103517656Y-101625999D01*
X103480174Y-101631800D01*
X91338108Y-101631800D01*
X91271069Y-101612115D01*
X91225314Y-101559311D01*
X91214111Y-101508717D01*
X91206570Y-100488581D01*
X91182102Y-97178711D01*
X93749500Y-97178711D01*
X93749500Y-97421288D01*
X93781161Y-97661785D01*
X93843947Y-97896104D01*
X93928414Y-98100024D01*
X93936776Y-98120212D01*
X94058064Y-98330289D01*
X94058066Y-98330292D01*
X94058067Y-98330293D01*
X94205733Y-98522736D01*
X94205739Y-98522743D01*
X94377256Y-98694260D01*
X94377263Y-98694266D01*
X94490321Y-98781018D01*
X94569711Y-98841936D01*
X94779788Y-98963224D01*
X95003900Y-99056054D01*
X95238211Y-99118838D01*
X95418586Y-99142584D01*
X95478711Y-99150500D01*
X95478712Y-99150500D01*
X95721289Y-99150500D01*
X95769388Y-99144167D01*
X95961789Y-99118838D01*
X96196100Y-99056054D01*
X96420212Y-98963224D01*
X96630289Y-98841936D01*
X96822738Y-98694265D01*
X96994265Y-98522738D01*
X97141936Y-98330289D01*
X97263224Y-98120212D01*
X97356054Y-97896100D01*
X97418838Y-97661789D01*
X97450500Y-97421288D01*
X97450500Y-97178712D01*
X97418838Y-96938211D01*
X97356054Y-96703900D01*
X97263224Y-96479788D01*
X97141936Y-96269711D01*
X97011621Y-96099881D01*
X96994266Y-96077263D01*
X96994260Y-96077256D01*
X96822743Y-95905739D01*
X96822736Y-95905733D01*
X96630293Y-95758067D01*
X96630292Y-95758066D01*
X96630289Y-95758064D01*
X96420212Y-95636776D01*
X96415200Y-95634700D01*
X96196104Y-95543947D01*
X96055560Y-95506288D01*
X95961789Y-95481162D01*
X95961788Y-95481161D01*
X95961785Y-95481161D01*
X95721289Y-95449500D01*
X95721288Y-95449500D01*
X95478712Y-95449500D01*
X95478711Y-95449500D01*
X95238214Y-95481161D01*
X95003895Y-95543947D01*
X94779794Y-95636773D01*
X94779785Y-95636777D01*
X94599681Y-95740761D01*
X94573394Y-95755938D01*
X94569706Y-95758067D01*
X94377263Y-95905733D01*
X94377256Y-95905739D01*
X94205739Y-96077256D01*
X94205733Y-96077263D01*
X94058067Y-96269706D01*
X93936777Y-96479785D01*
X93936773Y-96479794D01*
X93843947Y-96703895D01*
X93781161Y-96938214D01*
X93749500Y-97178711D01*
X91182102Y-97178711D01*
X91133525Y-90607546D01*
X102787000Y-90607546D01*
X102787000Y-90824258D01*
X102796841Y-90886392D01*
X102820902Y-91038304D01*
X102820902Y-91038307D01*
X102887868Y-91244407D01*
X102927126Y-91321455D01*
X102986255Y-91437502D01*
X103113636Y-91612827D01*
X103266875Y-91766066D01*
X103403850Y-91865584D01*
X103404274Y-91865892D01*
X103446939Y-91921222D01*
X103452918Y-91990835D01*
X103420312Y-92052630D01*
X103404273Y-92066528D01*
X103383253Y-92081799D01*
X103383253Y-92081801D01*
X103937512Y-92636060D01*
X103869030Y-92664427D01*
X103767107Y-92732530D01*
X103680428Y-92819209D01*
X103612325Y-92921132D01*
X103583958Y-92989614D01*
X103029699Y-92435355D01*
X103029698Y-92435355D01*
X102986684Y-92494561D01*
X102888334Y-92687581D01*
X102821388Y-92893617D01*
X102787500Y-93107579D01*
X102787500Y-93324224D01*
X102821388Y-93538186D01*
X102888334Y-93744222D01*
X102986685Y-93937244D01*
X103029698Y-93996447D01*
X103029699Y-93996447D01*
X103583958Y-93442188D01*
X103612325Y-93510672D01*
X103680428Y-93612595D01*
X103767107Y-93699274D01*
X103869030Y-93767377D01*
X103937512Y-93795742D01*
X103383252Y-94350001D01*
X103383253Y-94350002D01*
X103442457Y-94393016D01*
X103635479Y-94491367D01*
X103841515Y-94558313D01*
X104055478Y-94592202D01*
X104272122Y-94592202D01*
X104486084Y-94558313D01*
X104692120Y-94491367D01*
X104885131Y-94393022D01*
X104885144Y-94393014D01*
X104944345Y-94350002D01*
X104944346Y-94350001D01*
X104390087Y-93795743D01*
X104458570Y-93767377D01*
X104560493Y-93699274D01*
X104647172Y-93612595D01*
X104715275Y-93510672D01*
X104743640Y-93442189D01*
X105297899Y-93996448D01*
X105297899Y-93996447D01*
X105313173Y-93975426D01*
X105368503Y-93932761D01*
X105438116Y-93926782D01*
X105499911Y-93959388D01*
X105513809Y-93975427D01*
X105529081Y-93996447D01*
X105613636Y-94112827D01*
X105766875Y-94266066D01*
X105942200Y-94393447D01*
X106123271Y-94485707D01*
X106135294Y-94491833D01*
X106341395Y-94558799D01*
X106341396Y-94558799D01*
X106341399Y-94558800D01*
X106555444Y-94592702D01*
X106555445Y-94592702D01*
X106772155Y-94592702D01*
X106772156Y-94592702D01*
X106986201Y-94558800D01*
X106986204Y-94558799D01*
X106986205Y-94558799D01*
X107192305Y-94491833D01*
X107192305Y-94491832D01*
X107192308Y-94491832D01*
X107385400Y-94393447D01*
X107560725Y-94266066D01*
X107713964Y-94112827D01*
X107813482Y-93975851D01*
X107868812Y-93933186D01*
X107938425Y-93927207D01*
X108000220Y-93959813D01*
X108014117Y-93975851D01*
X108113636Y-94112827D01*
X108266875Y-94266066D01*
X108442200Y-94393447D01*
X108623271Y-94485707D01*
X108635294Y-94491833D01*
X108841395Y-94558799D01*
X108841396Y-94558799D01*
X108841399Y-94558800D01*
X109055444Y-94592702D01*
X109055445Y-94592702D01*
X109272155Y-94592702D01*
X109272156Y-94592702D01*
X109486201Y-94558800D01*
X109486204Y-94558799D01*
X109486205Y-94558799D01*
X109692305Y-94491833D01*
X109692305Y-94491832D01*
X109692308Y-94491832D01*
X109885400Y-94393447D01*
X110060725Y-94266066D01*
X110213964Y-94112827D01*
X110313482Y-93975851D01*
X110368812Y-93933186D01*
X110438425Y-93927207D01*
X110500220Y-93959813D01*
X110514117Y-93975851D01*
X110613636Y-94112827D01*
X110766875Y-94266066D01*
X110942200Y-94393447D01*
X111123271Y-94485707D01*
X111135294Y-94491833D01*
X111341395Y-94558799D01*
X111341396Y-94558799D01*
X111341399Y-94558800D01*
X111555444Y-94592702D01*
X111555445Y-94592702D01*
X111772155Y-94592702D01*
X111772156Y-94592702D01*
X111986201Y-94558800D01*
X111986204Y-94558799D01*
X111986205Y-94558799D01*
X112192305Y-94491833D01*
X112192305Y-94491832D01*
X112192308Y-94491832D01*
X112385400Y-94393447D01*
X112560725Y-94266066D01*
X112713964Y-94112827D01*
X112813482Y-93975851D01*
X112868812Y-93933186D01*
X112938425Y-93927207D01*
X113000220Y-93959813D01*
X113014118Y-93975852D01*
X113113633Y-94112823D01*
X113113638Y-94112829D01*
X113266878Y-94266069D01*
X113295146Y-94286606D01*
X113362184Y-94335311D01*
X113404851Y-94390640D01*
X113413300Y-94435630D01*
X113413300Y-95543318D01*
X113413300Y-95543320D01*
X113413299Y-95543320D01*
X113442140Y-95688307D01*
X113442143Y-95688317D01*
X113498714Y-95824892D01*
X113498715Y-95824894D01*
X113498716Y-95824895D01*
X113510277Y-95842198D01*
X113531612Y-95874127D01*
X113531613Y-95874130D01*
X113580846Y-95947814D01*
X113580852Y-95947821D01*
X115155467Y-97522434D01*
X115599585Y-97966552D01*
X115623429Y-97982483D01*
X115636342Y-97991112D01*
X115636345Y-97991113D01*
X115640373Y-97993805D01*
X115722505Y-98048684D01*
X115779080Y-98072118D01*
X115859088Y-98105259D01*
X115975241Y-98128363D01*
X115994468Y-98132187D01*
X116004081Y-98134100D01*
X116004082Y-98134100D01*
X122576387Y-98134100D01*
X122720929Y-98105348D01*
X122757788Y-98105060D01*
X122757880Y-98103901D01*
X122772610Y-98105060D01*
X122801073Y-98107300D01*
X122801081Y-98107300D01*
X123232453Y-98107300D01*
X123232461Y-98107300D01*
X123269336Y-98104398D01*
X123269338Y-98104397D01*
X123269340Y-98104397D01*
X123371986Y-98074575D01*
X123427165Y-98058544D01*
X123568632Y-97974881D01*
X123684848Y-97858665D01*
X123768511Y-97717198D01*
X123814365Y-97559369D01*
X123817267Y-97522494D01*
X123817267Y-97522449D01*
X124116767Y-97522449D01*
X124119666Y-97559289D01*
X124119667Y-97559295D01*
X124165483Y-97716993D01*
X124165484Y-97716996D01*
X124249081Y-97858352D01*
X124249088Y-97858361D01*
X124365205Y-97974478D01*
X124365214Y-97974485D01*
X124506568Y-98058081D01*
X124664281Y-98103900D01*
X124664278Y-98103900D01*
X124666765Y-98104095D01*
X124666767Y-98104095D01*
X125166767Y-98104095D01*
X125166768Y-98104095D01*
X125169253Y-98103900D01*
X125326965Y-98058081D01*
X125468319Y-97974485D01*
X125468328Y-97974478D01*
X125584445Y-97858361D01*
X125584452Y-97858352D01*
X125668049Y-97716996D01*
X125668050Y-97716993D01*
X125713866Y-97559295D01*
X125713867Y-97559289D01*
X125716766Y-97522449D01*
X125716767Y-97522434D01*
X125716767Y-97119300D01*
X125166767Y-97119300D01*
X125166767Y-98104095D01*
X124666767Y-98104095D01*
X124666767Y-97119300D01*
X124116767Y-97119300D01*
X124116767Y-97522449D01*
X123817267Y-97522449D01*
X123817267Y-96356300D01*
X123836952Y-96289261D01*
X123889756Y-96243506D01*
X123941267Y-96232300D01*
X123992767Y-96232300D01*
X124059806Y-96251985D01*
X124105561Y-96304789D01*
X124116767Y-96356300D01*
X124116767Y-96619300D01*
X124666767Y-96619300D01*
X125166767Y-96619300D01*
X125716767Y-96619300D01*
X125716767Y-96216165D01*
X125716766Y-96216150D01*
X125713867Y-96179310D01*
X125713866Y-96179304D01*
X125668050Y-96021606D01*
X125668049Y-96021603D01*
X125584452Y-95880247D01*
X125584445Y-95880238D01*
X125468328Y-95764121D01*
X125468319Y-95764114D01*
X125326963Y-95680517D01*
X125326960Y-95680516D01*
X125169261Y-95634700D01*
X125169264Y-95634700D01*
X125166767Y-95634503D01*
X125166767Y-96619300D01*
X124666767Y-96619300D01*
X124666767Y-95963614D01*
X124684034Y-95900494D01*
X124718511Y-95842198D01*
X124764365Y-95684369D01*
X124767267Y-95647494D01*
X124767267Y-94341106D01*
X124764365Y-94304231D01*
X124759245Y-94286609D01*
X124718512Y-94146406D01*
X124718511Y-94146403D01*
X124718511Y-94146402D01*
X124659372Y-94046403D01*
X124634535Y-94004405D01*
X124617267Y-93941284D01*
X124617267Y-93016562D01*
X124636952Y-92949523D01*
X124689756Y-92903768D01*
X124704368Y-92898179D01*
X124769703Y-92877821D01*
X124845006Y-92832299D01*
X124908781Y-92793746D01*
X124908782Y-92793744D01*
X124908787Y-92793742D01*
X125023709Y-92678820D01*
X125049291Y-92636503D01*
X125084161Y-92578820D01*
X125107788Y-92539736D01*
X125156139Y-92384572D01*
X125162267Y-92317137D01*
X125162266Y-91421464D01*
X125162266Y-91421463D01*
X125162266Y-91421455D01*
X125156140Y-91354032D01*
X125156138Y-91354024D01*
X125107788Y-91198864D01*
X125107787Y-91198862D01*
X125023713Y-91059785D01*
X125023709Y-91059780D01*
X124908785Y-90944856D01*
X124897307Y-90937918D01*
X124850119Y-90886392D01*
X124838279Y-90817532D01*
X124865546Y-90753203D01*
X124897307Y-90725682D01*
X124908785Y-90718743D01*
X124908784Y-90718743D01*
X124908787Y-90718742D01*
X125023709Y-90603820D01*
X125107788Y-90464736D01*
X125156139Y-90309572D01*
X125162267Y-90242137D01*
X125162266Y-89346464D01*
X125162266Y-89346463D01*
X125162266Y-89346455D01*
X125156140Y-89279032D01*
X125156138Y-89279024D01*
X125107788Y-89123864D01*
X125107787Y-89123862D01*
X125023713Y-88984785D01*
X125023709Y-88984780D01*
X124908786Y-88869857D01*
X124908781Y-88869853D01*
X124769704Y-88785779D01*
X124769702Y-88785778D01*
X124636876Y-88744388D01*
X124578729Y-88705651D01*
X124550755Y-88641625D01*
X124549767Y-88626003D01*
X124549767Y-88331953D01*
X124569452Y-88264914D01*
X124610643Y-88225223D01*
X124721132Y-88159881D01*
X124837348Y-88043665D01*
X124921011Y-87902198D01*
X124965717Y-87748320D01*
X124966864Y-87744373D01*
X124966865Y-87744367D01*
X124969766Y-87707501D01*
X124969767Y-87707494D01*
X124969767Y-86876106D01*
X124966865Y-86839231D01*
X124965950Y-86836082D01*
X124941201Y-86750895D01*
X124941400Y-86681026D01*
X124979342Y-86622356D01*
X125042980Y-86593512D01*
X125060277Y-86592300D01*
X130194923Y-86592300D01*
X130261962Y-86611985D01*
X130307717Y-86664789D01*
X130317661Y-86733947D01*
X130313999Y-86750895D01*
X130288335Y-86839226D01*
X130288334Y-86839232D01*
X130285433Y-86876098D01*
X130285433Y-87707501D01*
X130288334Y-87744367D01*
X130288335Y-87744373D01*
X130334187Y-87902193D01*
X130334188Y-87902196D01*
X130334189Y-87902198D01*
X130340095Y-87912185D01*
X130417850Y-88043662D01*
X130417856Y-88043670D01*
X130534062Y-88159876D01*
X130534065Y-88159878D01*
X130534068Y-88159881D01*
X130604555Y-88201566D01*
X130652237Y-88252633D01*
X130665433Y-88308297D01*
X130665433Y-88626003D01*
X130645748Y-88693042D01*
X130592944Y-88738797D01*
X130578324Y-88744388D01*
X130445497Y-88785778D01*
X130445495Y-88785779D01*
X130306418Y-88869853D01*
X130306413Y-88869857D01*
X130191490Y-88984780D01*
X130191486Y-88984785D01*
X130107412Y-89123862D01*
X130107410Y-89123866D01*
X130059061Y-89279026D01*
X130052933Y-89346465D01*
X130052933Y-90242144D01*
X130059059Y-90309567D01*
X130059061Y-90309575D01*
X130107411Y-90464735D01*
X130107412Y-90464737D01*
X130191486Y-90603814D01*
X130191490Y-90603819D01*
X130306413Y-90718742D01*
X130306415Y-90718743D01*
X130317894Y-90725683D01*
X130365082Y-90777211D01*
X130376920Y-90846071D01*
X130349651Y-90910399D01*
X130317894Y-90937917D01*
X130306415Y-90944856D01*
X130306413Y-90944857D01*
X130191490Y-91059780D01*
X130191486Y-91059785D01*
X130107412Y-91198862D01*
X130107410Y-91198866D01*
X130059061Y-91354026D01*
X130052933Y-91421465D01*
X130052933Y-92317144D01*
X130059059Y-92384567D01*
X130059061Y-92384575D01*
X130107411Y-92539735D01*
X130107412Y-92539737D01*
X130191486Y-92678814D01*
X130191490Y-92678819D01*
X130306413Y-92793742D01*
X130306418Y-92793746D01*
X130445495Y-92877820D01*
X130445499Y-92877822D01*
X130495816Y-92893501D01*
X130600661Y-92926172D01*
X130620155Y-92927943D01*
X130685137Y-92953613D01*
X130725926Y-93010341D01*
X130732933Y-93051434D01*
X130732933Y-93941284D01*
X130715665Y-94004405D01*
X130631688Y-94146403D01*
X130631687Y-94146406D01*
X130585835Y-94304226D01*
X130585834Y-94304232D01*
X130582933Y-94341098D01*
X130582933Y-95507300D01*
X130563248Y-95574339D01*
X130510444Y-95620094D01*
X130458933Y-95631300D01*
X130217731Y-95631300D01*
X130180865Y-95634201D01*
X130180859Y-95634202D01*
X130023039Y-95680054D01*
X130023036Y-95680055D01*
X129881570Y-95763717D01*
X129881562Y-95763723D01*
X129765356Y-95879929D01*
X129765350Y-95879937D01*
X129681688Y-96021403D01*
X129681687Y-96021406D01*
X129635835Y-96179226D01*
X129635834Y-96179232D01*
X129632933Y-96216098D01*
X129632933Y-97522501D01*
X129635834Y-97559367D01*
X129635835Y-97559373D01*
X129678009Y-97704533D01*
X129682933Y-97739128D01*
X129682933Y-98007536D01*
X129674288Y-98036976D01*
X129667765Y-98066963D01*
X129664010Y-98071978D01*
X129663248Y-98074575D01*
X129646614Y-98095218D01*
X129527507Y-98214324D01*
X129466184Y-98247808D01*
X129464019Y-98248259D01*
X129417037Y-98257604D01*
X129417031Y-98257606D01*
X129253159Y-98325483D01*
X129253146Y-98325490D01*
X129105665Y-98424035D01*
X129105661Y-98424038D01*
X128980238Y-98549461D01*
X128980235Y-98549465D01*
X128881694Y-98696941D01*
X128881683Y-98696959D01*
X128813806Y-98860832D01*
X128813803Y-98860841D01*
X128779200Y-99034804D01*
X128779200Y-99212195D01*
X128813803Y-99386158D01*
X128813806Y-99386167D01*
X128881683Y-99550040D01*
X128881690Y-99550053D01*
X128980235Y-99697534D01*
X128980238Y-99697538D01*
X129105661Y-99822961D01*
X129105665Y-99822964D01*
X129253146Y-99921509D01*
X129253159Y-99921516D01*
X129376063Y-99972423D01*
X129417034Y-99989394D01*
X129417036Y-99989394D01*
X129417041Y-99989396D01*
X129591004Y-100023999D01*
X129591007Y-100024000D01*
X129591009Y-100024000D01*
X129768393Y-100024000D01*
X129768394Y-100023999D01*
X129826382Y-100012464D01*
X129942358Y-99989396D01*
X129942361Y-99989394D01*
X129942366Y-99989394D01*
X130106247Y-99921513D01*
X130253735Y-99822964D01*
X130379164Y-99697535D01*
X130477713Y-99550047D01*
X130545594Y-99386166D01*
X130554939Y-99339180D01*
X130587322Y-99277272D01*
X130588819Y-99275747D01*
X131016384Y-98848183D01*
X131098517Y-98725262D01*
X131155091Y-98588680D01*
X131156290Y-98582653D01*
X131162892Y-98549465D01*
X131183933Y-98443687D01*
X131183933Y-97739128D01*
X131188857Y-97704533D01*
X131231030Y-97559373D01*
X131231031Y-97559367D01*
X131233932Y-97522501D01*
X131233933Y-97522494D01*
X131233933Y-97522449D01*
X131533433Y-97522449D01*
X131536332Y-97559289D01*
X131536333Y-97559295D01*
X131582149Y-97716993D01*
X131582150Y-97716996D01*
X131665747Y-97858352D01*
X131665754Y-97858361D01*
X131781871Y-97974478D01*
X131781880Y-97974485D01*
X131923234Y-98058081D01*
X132080947Y-98103900D01*
X132080944Y-98103900D01*
X132083431Y-98104095D01*
X132083433Y-98104095D01*
X132583433Y-98104095D01*
X132583434Y-98104095D01*
X132585919Y-98103900D01*
X132743631Y-98058081D01*
X132884985Y-97974485D01*
X132884994Y-97974478D01*
X133001111Y-97858361D01*
X133001118Y-97858352D01*
X133084715Y-97716996D01*
X133084716Y-97716993D01*
X133130532Y-97559295D01*
X133130533Y-97559289D01*
X133133432Y-97522449D01*
X133133433Y-97522434D01*
X133133433Y-97119300D01*
X132583433Y-97119300D01*
X132583433Y-98104095D01*
X132083433Y-98104095D01*
X132083433Y-97119300D01*
X131533433Y-97119300D01*
X131533433Y-97522449D01*
X131233933Y-97522449D01*
X131233933Y-96356300D01*
X131253618Y-96289261D01*
X131306422Y-96243506D01*
X131357933Y-96232300D01*
X131409433Y-96232300D01*
X131476472Y-96251985D01*
X131522227Y-96304789D01*
X131533433Y-96356300D01*
X131533433Y-96619300D01*
X132083433Y-96619300D01*
X132583433Y-96619300D01*
X133133433Y-96619300D01*
X133133433Y-96216165D01*
X133133432Y-96216150D01*
X133130533Y-96179310D01*
X133130532Y-96179304D01*
X133084716Y-96021606D01*
X133084715Y-96021603D01*
X133001118Y-95880247D01*
X133001111Y-95880238D01*
X132884994Y-95764121D01*
X132884985Y-95764114D01*
X132743629Y-95680517D01*
X132743626Y-95680516D01*
X132585927Y-95634700D01*
X132585930Y-95634700D01*
X132583433Y-95634503D01*
X132583433Y-96619300D01*
X132083433Y-96619300D01*
X132083433Y-95963614D01*
X132100700Y-95900494D01*
X132135177Y-95842198D01*
X132181031Y-95684369D01*
X132183933Y-95647494D01*
X132183933Y-94341106D01*
X132181031Y-94304231D01*
X132175911Y-94286609D01*
X132135178Y-94146406D01*
X132135177Y-94146403D01*
X132135177Y-94146402D01*
X132076038Y-94046403D01*
X132051201Y-94004405D01*
X132033933Y-93941284D01*
X132033933Y-93016562D01*
X132053618Y-92949523D01*
X132106422Y-92903768D01*
X132121034Y-92898179D01*
X132186369Y-92877821D01*
X132261672Y-92832299D01*
X132325447Y-92793746D01*
X132325448Y-92793744D01*
X132325453Y-92793742D01*
X132440375Y-92678820D01*
X132465957Y-92636503D01*
X132500827Y-92578820D01*
X132524454Y-92539736D01*
X132572805Y-92384572D01*
X132578933Y-92317137D01*
X132578932Y-91421464D01*
X132578932Y-91421463D01*
X132578932Y-91421455D01*
X132572806Y-91354032D01*
X132572804Y-91354024D01*
X132524454Y-91198864D01*
X132524453Y-91198862D01*
X132440379Y-91059785D01*
X132440375Y-91059780D01*
X132325451Y-90944856D01*
X132313973Y-90937918D01*
X132266785Y-90886392D01*
X132254945Y-90817532D01*
X132282212Y-90753203D01*
X132313973Y-90725682D01*
X132325451Y-90718743D01*
X132325450Y-90718743D01*
X132325453Y-90718742D01*
X132440375Y-90603820D01*
X132524454Y-90464736D01*
X132572805Y-90309572D01*
X132578933Y-90242137D01*
X132578932Y-89346464D01*
X132578932Y-89346463D01*
X132578932Y-89346455D01*
X132572806Y-89279032D01*
X132572804Y-89279024D01*
X132524454Y-89123864D01*
X132524453Y-89123862D01*
X132440379Y-88984785D01*
X132440375Y-88984780D01*
X132325452Y-88869857D01*
X132325447Y-88869853D01*
X132186370Y-88785779D01*
X132186368Y-88785778D01*
X132053542Y-88744388D01*
X131995395Y-88705651D01*
X131967421Y-88641625D01*
X131966433Y-88626003D01*
X131966433Y-88331953D01*
X131986118Y-88264914D01*
X132027309Y-88225223D01*
X132137798Y-88159881D01*
X132254014Y-88043665D01*
X132337677Y-87902198D01*
X132382383Y-87748320D01*
X132383530Y-87744373D01*
X132383531Y-87744367D01*
X132386432Y-87707501D01*
X132386433Y-87707494D01*
X132386433Y-86876106D01*
X132383531Y-86839231D01*
X132382616Y-86836082D01*
X132337678Y-86681406D01*
X132337678Y-86681405D01*
X132337677Y-86681404D01*
X132337677Y-86681402D01*
X132336505Y-86679421D01*
X132336060Y-86677666D01*
X132334580Y-86674246D01*
X132335131Y-86674007D01*
X132319322Y-86611699D01*
X132341481Y-86545436D01*
X132395946Y-86501672D01*
X132443237Y-86492300D01*
X137611590Y-86492300D01*
X137678629Y-86511985D01*
X137724384Y-86564789D01*
X137734328Y-86633947D01*
X137730666Y-86650895D01*
X137705002Y-86739226D01*
X137705001Y-86739232D01*
X137702100Y-86776098D01*
X137702100Y-87607501D01*
X137705001Y-87644367D01*
X137705002Y-87644373D01*
X137750854Y-87802193D01*
X137750855Y-87802196D01*
X137834517Y-87943662D01*
X137834523Y-87943670D01*
X137950729Y-88059876D01*
X137950732Y-88059878D01*
X137950735Y-88059881D01*
X138021222Y-88101566D01*
X138068904Y-88152633D01*
X138082100Y-88208297D01*
X138082100Y-88526003D01*
X138062415Y-88593042D01*
X138009611Y-88638797D01*
X137994991Y-88644388D01*
X137862164Y-88685778D01*
X137862162Y-88685779D01*
X137723085Y-88769853D01*
X137723080Y-88769857D01*
X137608157Y-88884780D01*
X137608153Y-88884785D01*
X137524079Y-89023862D01*
X137524077Y-89023866D01*
X137475728Y-89179026D01*
X137469600Y-89246465D01*
X137469600Y-90142144D01*
X137475726Y-90209567D01*
X137475728Y-90209575D01*
X137524078Y-90364735D01*
X137524079Y-90364737D01*
X137608153Y-90503814D01*
X137608157Y-90503819D01*
X137723080Y-90618742D01*
X137723082Y-90618743D01*
X137734561Y-90625683D01*
X137781749Y-90677211D01*
X137793587Y-90746071D01*
X137766318Y-90810399D01*
X137734561Y-90837917D01*
X137723082Y-90844856D01*
X137723080Y-90844857D01*
X137608157Y-90959780D01*
X137608153Y-90959785D01*
X137524079Y-91098862D01*
X137524077Y-91098866D01*
X137475728Y-91254026D01*
X137469600Y-91321465D01*
X137469600Y-92217144D01*
X137475726Y-92284567D01*
X137475728Y-92284575D01*
X137524078Y-92439735D01*
X137524079Y-92439737D01*
X137608153Y-92578814D01*
X137608157Y-92578819D01*
X137723080Y-92693742D01*
X137723085Y-92693746D01*
X137862162Y-92777820D01*
X137862166Y-92777822D01*
X137913256Y-92793742D01*
X138017328Y-92826172D01*
X138036822Y-92827943D01*
X138101804Y-92853613D01*
X138142593Y-92910341D01*
X138149600Y-92951434D01*
X138149600Y-93841284D01*
X138132332Y-93904405D01*
X138048355Y-94046403D01*
X138048354Y-94046406D01*
X138002502Y-94204226D01*
X138002501Y-94204232D01*
X137999600Y-94241098D01*
X137999600Y-95407300D01*
X137979915Y-95474339D01*
X137927111Y-95520094D01*
X137875600Y-95531300D01*
X137634398Y-95531300D01*
X137597532Y-95534201D01*
X137597526Y-95534202D01*
X137439706Y-95580054D01*
X137439703Y-95580055D01*
X137298237Y-95663717D01*
X137298229Y-95663723D01*
X137182023Y-95779929D01*
X137182017Y-95779937D01*
X137098355Y-95921403D01*
X137098354Y-95921406D01*
X137052502Y-96079226D01*
X137052501Y-96079232D01*
X137049600Y-96116098D01*
X137049600Y-97422501D01*
X137052501Y-97459367D01*
X137052502Y-97459373D01*
X137094676Y-97604533D01*
X137099600Y-97639128D01*
X137099600Y-97956868D01*
X137090955Y-97986305D01*
X137084432Y-98016296D01*
X137080677Y-98021311D01*
X137079915Y-98023907D01*
X137063280Y-98044550D01*
X137007805Y-98100024D01*
X136946482Y-98133508D01*
X136944318Y-98133959D01*
X136897338Y-98143304D01*
X136897331Y-98143306D01*
X136733459Y-98211183D01*
X136733446Y-98211190D01*
X136585965Y-98309735D01*
X136585961Y-98309738D01*
X136460538Y-98435161D01*
X136460535Y-98435165D01*
X136361990Y-98582646D01*
X136361983Y-98582659D01*
X136294106Y-98746532D01*
X136294103Y-98746541D01*
X136259500Y-98920504D01*
X136259500Y-99097895D01*
X136294103Y-99271858D01*
X136294106Y-99271867D01*
X136361983Y-99435740D01*
X136361990Y-99435753D01*
X136460535Y-99583234D01*
X136460538Y-99583238D01*
X136585961Y-99708661D01*
X136585965Y-99708664D01*
X136733446Y-99807209D01*
X136733459Y-99807216D01*
X136856363Y-99858123D01*
X136897334Y-99875094D01*
X136897336Y-99875094D01*
X136897341Y-99875096D01*
X137071304Y-99909699D01*
X137071307Y-99909700D01*
X137071309Y-99909700D01*
X137248693Y-99909700D01*
X137248694Y-99909699D01*
X137306682Y-99898164D01*
X137422658Y-99875096D01*
X137422661Y-99875094D01*
X137422666Y-99875094D01*
X137586547Y-99807213D01*
X137734035Y-99708664D01*
X137859464Y-99583235D01*
X137958013Y-99435747D01*
X138025894Y-99271866D01*
X138035239Y-99224880D01*
X138067622Y-99162972D01*
X138069064Y-99161502D01*
X138433052Y-98797516D01*
X138502041Y-98694265D01*
X138515184Y-98674595D01*
X138571758Y-98538013D01*
X138590521Y-98443687D01*
X138600600Y-98393020D01*
X138600600Y-97639128D01*
X138605524Y-97604533D01*
X138647697Y-97459373D01*
X138647698Y-97459367D01*
X138650599Y-97422501D01*
X138650600Y-97422494D01*
X138650600Y-97422449D01*
X138950100Y-97422449D01*
X138952999Y-97459289D01*
X138953000Y-97459295D01*
X138998816Y-97616993D01*
X138998817Y-97616996D01*
X139082414Y-97758352D01*
X139082421Y-97758361D01*
X139198538Y-97874478D01*
X139198547Y-97874485D01*
X139339901Y-97958081D01*
X139497614Y-98003900D01*
X139497611Y-98003900D01*
X139500098Y-98004095D01*
X139500100Y-98004095D01*
X140000100Y-98004095D01*
X140000101Y-98004095D01*
X140002586Y-98003900D01*
X140160298Y-97958081D01*
X140301652Y-97874485D01*
X140301661Y-97874478D01*
X140417778Y-97758361D01*
X140417785Y-97758352D01*
X140501382Y-97616996D01*
X140501383Y-97616993D01*
X140547199Y-97459295D01*
X140547200Y-97459289D01*
X140550099Y-97422449D01*
X140550100Y-97422434D01*
X140550100Y-97019300D01*
X140000100Y-97019300D01*
X140000100Y-98004095D01*
X139500100Y-98004095D01*
X139500100Y-97019300D01*
X138950100Y-97019300D01*
X138950100Y-97422449D01*
X138650600Y-97422449D01*
X138650600Y-96906711D01*
X146307700Y-96906711D01*
X146307700Y-97149288D01*
X146339361Y-97389785D01*
X146402147Y-97624104D01*
X146494973Y-97848205D01*
X146494977Y-97848214D01*
X146501009Y-97858662D01*
X146616264Y-98058289D01*
X146616266Y-98058292D01*
X146616267Y-98058293D01*
X146763933Y-98250736D01*
X146763939Y-98250743D01*
X146935456Y-98422260D01*
X146935463Y-98422266D01*
X146963377Y-98443685D01*
X147127911Y-98569936D01*
X147337988Y-98691224D01*
X147562100Y-98784054D01*
X147796411Y-98846838D01*
X147976786Y-98870584D01*
X148036911Y-98878500D01*
X148036912Y-98878500D01*
X148279489Y-98878500D01*
X148327588Y-98872167D01*
X148519989Y-98846838D01*
X148754300Y-98784054D01*
X148978412Y-98691224D01*
X149188489Y-98569936D01*
X149380938Y-98422265D01*
X149552465Y-98250738D01*
X149700136Y-98058289D01*
X149821424Y-97848212D01*
X149914254Y-97624100D01*
X149977038Y-97389789D01*
X150008700Y-97149288D01*
X150008700Y-96906712D01*
X149977038Y-96666211D01*
X149914254Y-96431900D01*
X149821424Y-96207788D01*
X149700136Y-95997711D01*
X149629564Y-95905739D01*
X149552466Y-95805263D01*
X149552460Y-95805256D01*
X149380943Y-95633739D01*
X149380936Y-95633733D01*
X149188493Y-95486067D01*
X149188492Y-95486066D01*
X149188489Y-95486064D01*
X148996431Y-95375179D01*
X148978414Y-95364777D01*
X148978405Y-95364773D01*
X148754304Y-95271947D01*
X148637144Y-95240554D01*
X148519989Y-95209162D01*
X148519988Y-95209161D01*
X148519985Y-95209161D01*
X148279489Y-95177500D01*
X148279488Y-95177500D01*
X148036912Y-95177500D01*
X148036911Y-95177500D01*
X147796414Y-95209161D01*
X147562095Y-95271947D01*
X147337994Y-95364773D01*
X147337985Y-95364777D01*
X147127906Y-95486067D01*
X146935463Y-95633733D01*
X146935456Y-95633739D01*
X146763939Y-95805256D01*
X146763933Y-95805263D01*
X146616267Y-95997706D01*
X146494977Y-96207785D01*
X146494973Y-96207794D01*
X146402147Y-96431895D01*
X146339361Y-96666214D01*
X146307700Y-96906711D01*
X138650600Y-96906711D01*
X138650600Y-96256300D01*
X138670285Y-96189261D01*
X138723089Y-96143506D01*
X138774600Y-96132300D01*
X138826100Y-96132300D01*
X138893139Y-96151985D01*
X138938894Y-96204789D01*
X138950100Y-96256300D01*
X138950100Y-96519300D01*
X139500100Y-96519300D01*
X140000100Y-96519300D01*
X140550100Y-96519300D01*
X140550100Y-96116165D01*
X140550099Y-96116150D01*
X140547200Y-96079310D01*
X140547199Y-96079304D01*
X140501383Y-95921606D01*
X140501382Y-95921603D01*
X140417785Y-95780247D01*
X140417778Y-95780238D01*
X140301661Y-95664121D01*
X140301652Y-95664114D01*
X140160296Y-95580517D01*
X140160293Y-95580516D01*
X140002594Y-95534700D01*
X140002597Y-95534700D01*
X140000100Y-95534503D01*
X140000100Y-96519300D01*
X139500100Y-96519300D01*
X139500100Y-95863614D01*
X139517367Y-95800494D01*
X139551844Y-95742198D01*
X139587319Y-95620094D01*
X139597697Y-95584373D01*
X139597698Y-95584367D01*
X139598037Y-95580056D01*
X139600600Y-95547494D01*
X139600600Y-94241106D01*
X139597698Y-94204231D01*
X139595161Y-94195500D01*
X139551845Y-94046406D01*
X139551844Y-94046403D01*
X139551844Y-94046402D01*
X139487441Y-93937502D01*
X139467868Y-93904405D01*
X139450600Y-93841284D01*
X139450600Y-92916562D01*
X139470285Y-92849523D01*
X139523089Y-92803768D01*
X139537701Y-92798179D01*
X139603036Y-92777821D01*
X139677957Y-92732530D01*
X139742114Y-92693746D01*
X139742115Y-92693744D01*
X139742120Y-92693742D01*
X139857042Y-92578820D01*
X139880669Y-92539737D01*
X139908135Y-92494301D01*
X139941121Y-92439736D01*
X139942487Y-92435354D01*
X139958312Y-92384567D01*
X139989472Y-92284572D01*
X139995600Y-92217137D01*
X139995599Y-91321464D01*
X139995599Y-91321463D01*
X139995599Y-91321455D01*
X139989473Y-91254032D01*
X139989471Y-91254024D01*
X139941121Y-91098864D01*
X139941120Y-91098862D01*
X139857046Y-90959785D01*
X139857042Y-90959780D01*
X139742118Y-90844856D01*
X139730640Y-90837918D01*
X139683452Y-90786392D01*
X139671612Y-90717532D01*
X139698879Y-90653203D01*
X139730640Y-90625682D01*
X139742118Y-90618743D01*
X139742117Y-90618743D01*
X139742120Y-90618742D01*
X139857042Y-90503820D01*
X139880669Y-90464737D01*
X139941120Y-90364737D01*
X139941121Y-90364736D01*
X139989472Y-90209572D01*
X139995600Y-90142137D01*
X139995599Y-89246464D01*
X139995599Y-89246463D01*
X139995599Y-89246455D01*
X139989473Y-89179032D01*
X139989471Y-89179024D01*
X139941121Y-89023864D01*
X139941120Y-89023862D01*
X139857046Y-88884785D01*
X139857042Y-88884780D01*
X139742119Y-88769857D01*
X139742114Y-88769853D01*
X139603037Y-88685779D01*
X139603035Y-88685778D01*
X139470209Y-88644388D01*
X139412062Y-88605651D01*
X139384088Y-88541625D01*
X139383100Y-88526003D01*
X139383100Y-88231953D01*
X139402785Y-88164914D01*
X139443976Y-88125223D01*
X139554465Y-88059881D01*
X139670681Y-87943665D01*
X139754344Y-87802198D01*
X139800198Y-87644369D01*
X139803100Y-87607494D01*
X139803100Y-86776106D01*
X139800198Y-86739231D01*
X139788658Y-86699511D01*
X139774534Y-86650895D01*
X139774733Y-86581026D01*
X139812675Y-86522356D01*
X139876313Y-86493512D01*
X139893610Y-86492300D01*
X142030093Y-86492300D01*
X142030094Y-86492299D01*
X142204066Y-86457695D01*
X142287123Y-86423291D01*
X142367947Y-86389813D01*
X142466863Y-86323719D01*
X142515436Y-86291264D01*
X145606464Y-83200235D01*
X145625635Y-83171544D01*
X145705013Y-83052747D01*
X145744877Y-82956506D01*
X145772895Y-82888866D01*
X145807500Y-82714892D01*
X145807500Y-82537508D01*
X145807500Y-66713309D01*
X145807500Y-66713308D01*
X145772895Y-66539334D01*
X145709478Y-66386232D01*
X145705014Y-66375455D01*
X145705009Y-66375446D01*
X145606464Y-66227964D01*
X145606461Y-66227960D01*
X143930838Y-64552337D01*
X143905438Y-64535366D01*
X143849534Y-64498012D01*
X143783347Y-64453787D01*
X143701406Y-64419846D01*
X143696053Y-64417628D01*
X143696048Y-64417626D01*
X143619466Y-64385905D01*
X143619458Y-64385903D01*
X143445496Y-64351300D01*
X143445492Y-64351300D01*
X143445491Y-64351300D01*
X140785369Y-64351300D01*
X140722248Y-64334032D01*
X140700266Y-64321032D01*
X140664798Y-64300056D01*
X140664797Y-64300055D01*
X140664796Y-64300055D01*
X140664793Y-64300054D01*
X140506973Y-64254202D01*
X140506967Y-64254201D01*
X140470101Y-64251300D01*
X140470094Y-64251300D01*
X139538706Y-64251300D01*
X139538698Y-64251300D01*
X139501832Y-64254201D01*
X139501826Y-64254202D01*
X139344006Y-64300054D01*
X139344003Y-64300055D01*
X139286552Y-64334032D01*
X139223431Y-64351300D01*
X131711815Y-64351300D01*
X131662036Y-64337680D01*
X131660966Y-64340154D01*
X131653802Y-64337054D01*
X131495982Y-64291202D01*
X131495976Y-64291201D01*
X131459110Y-64288300D01*
X131459103Y-64288300D01*
X130527715Y-64288300D01*
X130527707Y-64288300D01*
X130490841Y-64291201D01*
X130490835Y-64291202D01*
X130333015Y-64337054D01*
X130333012Y-64337055D01*
X130275561Y-64371032D01*
X130212440Y-64388300D01*
X123361383Y-64388300D01*
X123298262Y-64371032D01*
X123178245Y-64300055D01*
X123156265Y-64287056D01*
X123156264Y-64287055D01*
X123156263Y-64287055D01*
X123156260Y-64287054D01*
X122998440Y-64241202D01*
X122998434Y-64241201D01*
X122961568Y-64238300D01*
X122961561Y-64238300D01*
X122030173Y-64238300D01*
X122030165Y-64238300D01*
X121993299Y-64241201D01*
X121993293Y-64241202D01*
X121835473Y-64287054D01*
X121835470Y-64287055D01*
X121813489Y-64300055D01*
X121793606Y-64311814D01*
X121778019Y-64321032D01*
X121714898Y-64338300D01*
X115082243Y-64338300D01*
X115019122Y-64321032D01*
X114939425Y-64273900D01*
X114900798Y-64251056D01*
X114900797Y-64251055D01*
X114900796Y-64251055D01*
X114900793Y-64251054D01*
X114742973Y-64205202D01*
X114742967Y-64205201D01*
X114706101Y-64202300D01*
X114706094Y-64202300D01*
X113774706Y-64202300D01*
X113774698Y-64202300D01*
X113737832Y-64205201D01*
X113737826Y-64205202D01*
X113580006Y-64251054D01*
X113580003Y-64251055D01*
X113438537Y-64334717D01*
X113438529Y-64334723D01*
X113322323Y-64450929D01*
X113322317Y-64450937D01*
X113238655Y-64592403D01*
X113238654Y-64592406D01*
X113192802Y-64750226D01*
X113192801Y-64750232D01*
X113189900Y-64787098D01*
X113189900Y-65618501D01*
X113192801Y-65655367D01*
X113192802Y-65655373D01*
X113238654Y-65813193D01*
X113238655Y-65813196D01*
X113313456Y-65939679D01*
X113330639Y-66007403D01*
X113313456Y-66065921D01*
X113238655Y-66192403D01*
X113238654Y-66192406D01*
X113192802Y-66350226D01*
X113192801Y-66350232D01*
X113189900Y-66387098D01*
X113189900Y-67218501D01*
X113192801Y-67255367D01*
X113192802Y-67255373D01*
X113238654Y-67413193D01*
X113238655Y-67413196D01*
X113322317Y-67554662D01*
X113322323Y-67554670D01*
X113438529Y-67670876D01*
X113438532Y-67670878D01*
X113438535Y-67670881D01*
X113509022Y-67712566D01*
X113556704Y-67763633D01*
X113569900Y-67819297D01*
X113569900Y-68137003D01*
X113550215Y-68204042D01*
X113497411Y-68249797D01*
X113482791Y-68255388D01*
X113349964Y-68296778D01*
X113349962Y-68296779D01*
X113210885Y-68380853D01*
X113210880Y-68380857D01*
X113095957Y-68495780D01*
X113095953Y-68495785D01*
X113011879Y-68634862D01*
X113011877Y-68634866D01*
X112963528Y-68790026D01*
X112960464Y-68823745D01*
X112959076Y-68839026D01*
X112957400Y-68857465D01*
X112957400Y-69753144D01*
X112963526Y-69820567D01*
X112963528Y-69820575D01*
X113011878Y-69975735D01*
X113011879Y-69975737D01*
X113095953Y-70114814D01*
X113095957Y-70114819D01*
X113210880Y-70229742D01*
X113210882Y-70229743D01*
X113222361Y-70236683D01*
X113269549Y-70288211D01*
X113281387Y-70357071D01*
X113254118Y-70421399D01*
X113222361Y-70448917D01*
X113210882Y-70455856D01*
X113210880Y-70455857D01*
X113095957Y-70570780D01*
X113095953Y-70570785D01*
X113011879Y-70709862D01*
X113011877Y-70709866D01*
X112963528Y-70865026D01*
X112960464Y-70898745D01*
X112959076Y-70914026D01*
X112957400Y-70932465D01*
X112957400Y-71828144D01*
X112963526Y-71895567D01*
X112963528Y-71895575D01*
X113011878Y-72050735D01*
X113011879Y-72050737D01*
X113095953Y-72189814D01*
X113095957Y-72189819D01*
X113210880Y-72304742D01*
X113210885Y-72304746D01*
X113349962Y-72388820D01*
X113349966Y-72388822D01*
X113404850Y-72405924D01*
X113505128Y-72437172D01*
X113524622Y-72438943D01*
X113589604Y-72464613D01*
X113630393Y-72521341D01*
X113637400Y-72562434D01*
X113637400Y-73452284D01*
X113620132Y-73515405D01*
X113536155Y-73657403D01*
X113536154Y-73657406D01*
X113490302Y-73815226D01*
X113490301Y-73815232D01*
X113487400Y-73852098D01*
X113487400Y-75018300D01*
X113467715Y-75085339D01*
X113414911Y-75131094D01*
X113363400Y-75142300D01*
X113122198Y-75142300D01*
X113085332Y-75145201D01*
X113085326Y-75145202D01*
X112927506Y-75191054D01*
X112927503Y-75191055D01*
X112786037Y-75274717D01*
X112786029Y-75274723D01*
X112669823Y-75390929D01*
X112669817Y-75390937D01*
X112586155Y-75532403D01*
X112586153Y-75532406D01*
X112539992Y-75691295D01*
X112502386Y-75750181D01*
X112438913Y-75779387D01*
X112420916Y-75780700D01*
X107890929Y-75780700D01*
X107823890Y-75761015D01*
X107790612Y-75729587D01*
X107721364Y-75634275D01*
X107568125Y-75481036D01*
X107392800Y-75353655D01*
X107334836Y-75324121D01*
X107199705Y-75255268D01*
X106993604Y-75188302D01*
X106805404Y-75158494D01*
X106779556Y-75154400D01*
X106562844Y-75154400D01*
X106536952Y-75158501D01*
X106348797Y-75188302D01*
X106348794Y-75188302D01*
X106142694Y-75255268D01*
X105949599Y-75353655D01*
X105774272Y-75481038D01*
X105621038Y-75634272D01*
X105621038Y-75634273D01*
X105621036Y-75634275D01*
X105533683Y-75754506D01*
X105521518Y-75771250D01*
X105466188Y-75813915D01*
X105396574Y-75819894D01*
X105334780Y-75787288D01*
X105320882Y-75771250D01*
X105308717Y-75754506D01*
X105221364Y-75634275D01*
X105068125Y-75481036D01*
X104892800Y-75353655D01*
X104834836Y-75324121D01*
X104699705Y-75255268D01*
X104493604Y-75188302D01*
X104305404Y-75158494D01*
X104279556Y-75154400D01*
X104062844Y-75154400D01*
X104036952Y-75158501D01*
X103848797Y-75188302D01*
X103848794Y-75188302D01*
X103642694Y-75255268D01*
X103449599Y-75353655D01*
X103274272Y-75481038D01*
X103121038Y-75634272D01*
X102993655Y-75809599D01*
X102895268Y-76002694D01*
X102828302Y-76208794D01*
X102828302Y-76208797D01*
X102794400Y-76422844D01*
X102794400Y-76639555D01*
X102828302Y-76853602D01*
X102828302Y-76853605D01*
X102895268Y-77059705D01*
X102925702Y-77119434D01*
X102993655Y-77252800D01*
X103121036Y-77428125D01*
X103274275Y-77581364D01*
X103449600Y-77708745D01*
X103642692Y-77807130D01*
X103642694Y-77807131D01*
X103848795Y-77874097D01*
X103848796Y-77874097D01*
X103848799Y-77874098D01*
X104062844Y-77908000D01*
X104062845Y-77908000D01*
X104279555Y-77908000D01*
X104279556Y-77908000D01*
X104493601Y-77874098D01*
X104493604Y-77874097D01*
X104493605Y-77874097D01*
X104699705Y-77807131D01*
X104699705Y-77807130D01*
X104699708Y-77807130D01*
X104834807Y-77738293D01*
X104903474Y-77725398D01*
X104968214Y-77751674D01*
X105008472Y-77808780D01*
X105015100Y-77848779D01*
X105015100Y-89402092D01*
X104995415Y-89469131D01*
X104942611Y-89514886D01*
X104873453Y-89524830D01*
X104834806Y-89512577D01*
X104692308Y-89439971D01*
X104486204Y-89373004D01*
X104311496Y-89345333D01*
X104272156Y-89339102D01*
X104055444Y-89339102D01*
X104008963Y-89346464D01*
X103841397Y-89373004D01*
X103841394Y-89373004D01*
X103635294Y-89439970D01*
X103442199Y-89538357D01*
X103266872Y-89665740D01*
X103113638Y-89818974D01*
X102986255Y-89994301D01*
X102887868Y-90187396D01*
X102820902Y-90393496D01*
X102820902Y-90393499D01*
X102820902Y-90393501D01*
X102787000Y-90607546D01*
X91133525Y-90607546D01*
X90975703Y-69258520D01*
X102993600Y-69258520D01*
X102993600Y-69443877D01*
X103022596Y-69626950D01*
X103022596Y-69626951D01*
X103079874Y-69803237D01*
X103132526Y-69906573D01*
X103164026Y-69968396D01*
X103272977Y-70118354D01*
X103404045Y-70249422D01*
X103554003Y-70358373D01*
X103692226Y-70428800D01*
X103719161Y-70442524D01*
X103764942Y-70457399D01*
X103895445Y-70499802D01*
X104078521Y-70528799D01*
X104078522Y-70528799D01*
X104263878Y-70528799D01*
X104263879Y-70528799D01*
X104446955Y-70499802D01*
X104623241Y-70442523D01*
X104788397Y-70358373D01*
X104938355Y-70249422D01*
X105069423Y-70118354D01*
X105178374Y-69968396D01*
X105262524Y-69803240D01*
X105303269Y-69677839D01*
X105342706Y-69620165D01*
X105407065Y-69592966D01*
X105475911Y-69604880D01*
X105527387Y-69652124D01*
X105539131Y-69677840D01*
X105579874Y-69803237D01*
X105632526Y-69906573D01*
X105664026Y-69968396D01*
X105772977Y-70118354D01*
X105904045Y-70249422D01*
X106054003Y-70358373D01*
X106192226Y-70428800D01*
X106219161Y-70442524D01*
X106264942Y-70457399D01*
X106395445Y-70499802D01*
X106578521Y-70528799D01*
X106578522Y-70528799D01*
X106763878Y-70528799D01*
X106763879Y-70528799D01*
X106946955Y-70499802D01*
X107123241Y-70442523D01*
X107288397Y-70358373D01*
X107438355Y-70249422D01*
X107569423Y-70118354D01*
X107678374Y-69968396D01*
X107762524Y-69803240D01*
X107819803Y-69626954D01*
X107848800Y-69443878D01*
X107848800Y-69258520D01*
X107819803Y-69075444D01*
X107776917Y-68943455D01*
X107762525Y-68899160D01*
X107741280Y-68857464D01*
X107678374Y-68734002D01*
X107569423Y-68584044D01*
X107438355Y-68452976D01*
X107288397Y-68344025D01*
X107266323Y-68332778D01*
X107123238Y-68259873D01*
X106946952Y-68202595D01*
X106806318Y-68180320D01*
X106763879Y-68173599D01*
X106578521Y-68173599D01*
X106536081Y-68180320D01*
X106395448Y-68202595D01*
X106395447Y-68202595D01*
X106219161Y-68259873D01*
X106054006Y-68344023D01*
X106053998Y-68344028D01*
X105973566Y-68402465D01*
X105904045Y-68452976D01*
X105904043Y-68452978D01*
X105904042Y-68452978D01*
X105772979Y-68584041D01*
X105772979Y-68584042D01*
X105772977Y-68584044D01*
X105736056Y-68634862D01*
X105664029Y-68733997D01*
X105664024Y-68734005D01*
X105579874Y-68899160D01*
X105579874Y-68899161D01*
X105539131Y-69024557D01*
X105499694Y-69082232D01*
X105435335Y-69109431D01*
X105366489Y-69097517D01*
X105315013Y-69050272D01*
X105303269Y-69024557D01*
X105262525Y-68899161D01*
X105262525Y-68899160D01*
X105241280Y-68857464D01*
X105178374Y-68734002D01*
X105069423Y-68584044D01*
X104938355Y-68452976D01*
X104788397Y-68344025D01*
X104766323Y-68332778D01*
X104623238Y-68259873D01*
X104446952Y-68202595D01*
X104306318Y-68180320D01*
X104263879Y-68173599D01*
X104078521Y-68173599D01*
X104036081Y-68180320D01*
X103895448Y-68202595D01*
X103895447Y-68202595D01*
X103719161Y-68259873D01*
X103554006Y-68344023D01*
X103553998Y-68344028D01*
X103473566Y-68402465D01*
X103404045Y-68452976D01*
X103404043Y-68452978D01*
X103404042Y-68452978D01*
X103272979Y-68584041D01*
X103272979Y-68584042D01*
X103272977Y-68584044D01*
X103236056Y-68634862D01*
X103164029Y-68733997D01*
X103164024Y-68734005D01*
X103079874Y-68899160D01*
X103022596Y-69075446D01*
X103022596Y-69075447D01*
X102993600Y-69258520D01*
X90975703Y-69258520D01*
X90932174Y-63370311D01*
X93707500Y-63370311D01*
X93707500Y-63612888D01*
X93739161Y-63853385D01*
X93801947Y-64087704D01*
X93894773Y-64311805D01*
X93894776Y-64311812D01*
X94016064Y-64521889D01*
X94016066Y-64521892D01*
X94016067Y-64521893D01*
X94163733Y-64714336D01*
X94163739Y-64714343D01*
X94335256Y-64885860D01*
X94335263Y-64885866D01*
X94354384Y-64900538D01*
X94527711Y-65033536D01*
X94737788Y-65154824D01*
X94961900Y-65247654D01*
X95196211Y-65310438D01*
X95376586Y-65334184D01*
X95436711Y-65342100D01*
X95436712Y-65342100D01*
X95679289Y-65342100D01*
X95727388Y-65335767D01*
X95919789Y-65310438D01*
X96154100Y-65247654D01*
X96378212Y-65154824D01*
X96588289Y-65033536D01*
X96780738Y-64885865D01*
X96952265Y-64714338D01*
X97099936Y-64521889D01*
X97221224Y-64311812D01*
X97314054Y-64087700D01*
X97376838Y-63853389D01*
X97408500Y-63612888D01*
X97408500Y-63556512D01*
X146256900Y-63556512D01*
X146256900Y-63799088D01*
X146288562Y-64039589D01*
X146319954Y-64156744D01*
X146351347Y-64273904D01*
X146424676Y-64450935D01*
X146444176Y-64498012D01*
X146565464Y-64708089D01*
X146565466Y-64708092D01*
X146565467Y-64708093D01*
X146713133Y-64900536D01*
X146713139Y-64900543D01*
X146884656Y-65072060D01*
X146884662Y-65072065D01*
X147077111Y-65219736D01*
X147287188Y-65341024D01*
X147511300Y-65433854D01*
X147745611Y-65496638D01*
X147925986Y-65520384D01*
X147986111Y-65528300D01*
X147986112Y-65528300D01*
X148228689Y-65528300D01*
X148276788Y-65521967D01*
X148469189Y-65496638D01*
X148703500Y-65433854D01*
X148927612Y-65341024D01*
X149137689Y-65219736D01*
X149330138Y-65072065D01*
X149501665Y-64900538D01*
X149649336Y-64708089D01*
X149770624Y-64498012D01*
X149863454Y-64273900D01*
X149926238Y-64039589D01*
X149957900Y-63799088D01*
X149957900Y-63556512D01*
X149926238Y-63316011D01*
X149863454Y-63081700D01*
X149770624Y-62857588D01*
X149649336Y-62647511D01*
X149501665Y-62455062D01*
X149501660Y-62455056D01*
X149330143Y-62283539D01*
X149330136Y-62283533D01*
X149137693Y-62135867D01*
X149137692Y-62135866D01*
X149137689Y-62135864D01*
X148927612Y-62014576D01*
X148927605Y-62014573D01*
X148703504Y-61921747D01*
X148469185Y-61858961D01*
X148228689Y-61827300D01*
X148228688Y-61827300D01*
X147986112Y-61827300D01*
X147986111Y-61827300D01*
X147745614Y-61858961D01*
X147511295Y-61921747D01*
X147287194Y-62014573D01*
X147287185Y-62014577D01*
X147077106Y-62135867D01*
X146884663Y-62283533D01*
X146884656Y-62283539D01*
X146713139Y-62455056D01*
X146713133Y-62455063D01*
X146565467Y-62647506D01*
X146444177Y-62857585D01*
X146444173Y-62857594D01*
X146351347Y-63081695D01*
X146288561Y-63316014D01*
X146281413Y-63370311D01*
X146256900Y-63556512D01*
X97408500Y-63556512D01*
X97408500Y-63370312D01*
X97376838Y-63129811D01*
X97314054Y-62895500D01*
X97221224Y-62671388D01*
X97099936Y-62461311D01*
X96963524Y-62283535D01*
X96952266Y-62268863D01*
X96952260Y-62268856D01*
X96780743Y-62097339D01*
X96780736Y-62097333D01*
X96588293Y-61949667D01*
X96588292Y-61949666D01*
X96588289Y-61949664D01*
X96378212Y-61828376D01*
X96378205Y-61828373D01*
X96154104Y-61735547D01*
X95919785Y-61672761D01*
X95679289Y-61641100D01*
X95679288Y-61641100D01*
X95436712Y-61641100D01*
X95436711Y-61641100D01*
X95196214Y-61672761D01*
X94961895Y-61735547D01*
X94737794Y-61828373D01*
X94737785Y-61828377D01*
X94527706Y-61949667D01*
X94335263Y-62097333D01*
X94335256Y-62097339D01*
X94163739Y-62268856D01*
X94163733Y-62268863D01*
X94016067Y-62461306D01*
X93894777Y-62671385D01*
X93894773Y-62671394D01*
X93801947Y-62895495D01*
X93739161Y-63129814D01*
X93707500Y-63370311D01*
X90932174Y-63370311D01*
X90901135Y-59171515D01*
X90920324Y-59104333D01*
X90972788Y-59058189D01*
X91025132Y-59046600D01*
X152236561Y-59046600D01*
X152303600Y-59066285D01*
G37*
%TD.AperFunction*%
%TD*%
M02*
