M48
; DRILL file {KiCad 9.0.4} date 2025-10-28T17:38:52-0500
; FORMAT={-:-/ absolute / metric / decimal}
; #@! TF.CreationDate,2025-10-28T17:38:52-05:00
; #@! TF.GenerationSoftware,Kicad,Pcbnew,9.0.4
; #@! TF.FileFunction,Plated,1,2,PTH
FMAT,2
METRIC
; #@! TA.AperFunction,Plated,PTH,ViaDrill
T1C0.300
; #@! TA.AperFunction,Plated,PTH,ComponentDrill
T2C1.067
; #@! TA.AperFunction,Plated,PTH,ComponentDrill
T3C1.560
%
G90
G05
T1
X100.95Y-61.05
X100.95Y-63.45
X101.1Y-71.65
X101.1Y-90.55
X101.3Y-85.8
X101.55Y-74.2
X101.75Y-77.75
X101.75Y-81.6
X102.75Y-59.45
X102.75Y-72.5
X102.75Y-87.95
X103.25Y-93.15
X103.75Y-75.8
X104.85Y-66.5
X104.9Y-64.6
X105.05Y-81.55
X105.65Y-74.1
X105.85Y-77.55
X105.95Y-90.7
X107.35Y-62.8
X107.75Y-75.85
X108.137Y-59.45
X108.15Y-81.55
X108.55Y-73.9
X109.05Y-64.15
X109.05Y-93.05
X110.15Y-62.95
X110.15Y-65.5
X110.7Y-73.25
X110.85Y-71.25
X110.85Y-90.65
X111.15Y-81.6
X112.3Y-69.05
X113.1Y-71.75
X113.3Y-67.75
X113.45Y-70.15
X113.45Y-85.7
X113.525Y-59.45
X113.55Y-93.0
X114.25Y-88.35
X114.3Y-81.45
X115.4Y-71.7
X115.7Y-90.45
X117.1Y-78.5
X117.5Y-69.85
X117.55Y-66.6
X117.65Y-84.7
X117.65Y-93.0
X117.7Y-64.65
X117.9Y-88.2
X118.912Y-59.45
X119.25Y-78.65
X119.35Y-82.5
X120.0Y-90.6
X120.1Y-86.05
X120.85Y-62.8
X121.25Y-80.45
X121.7Y-69.1
X121.8Y-73.35
X122.0Y-84.8
X122.15Y-93.0
X122.35Y-88.25
X122.9Y-62.95
X122.9Y-82.5
X123.05Y-65.5
X123.25Y-78.9
X124.2Y-72.1
X124.2Y-86.15
X124.3Y-59.45
X125.25Y-70.45
X125.4Y-88.4
X126.0Y-68.3
X126.45Y-72.1
X126.55Y-84.8
X128.4Y-86.2
X128.75Y-72.1
X129.688Y-59.45
X130.2Y-64.65
X130.45Y-66.55
X130.75Y-83.95
X130.85Y-88.4
X131.65Y-86.35
X132.45Y-82.15
X133.9Y-62.85
X134.7Y-82.1
X134.85Y-69.2
X135.075Y-59.45
X135.25Y-64.55
X135.4Y-93.0
X135.45Y-88.65
X135.95Y-63.0
X135.95Y-73.2
X136.2Y-76.75
X137.7Y-82.1
X138.1Y-71.15
X138.1Y-73.0
X138.1Y-90.75
X138.6Y-69.0
X138.65Y-76.7
X140.35Y-88.8
X140.4Y-71.9
X140.4Y-92.85
X140.463Y-59.45
X140.55Y-82.1
X140.85Y-76.75
X142.75Y-64.55
X143.1Y-82.2
X143.15Y-69.9
X143.15Y-76.6
X143.25Y-66.65
X145.1Y-76.7
X145.85Y-59.45
X145.85Y-82.3
X147.3Y-69.2
X147.3Y-76.65
X148.1Y-73.5
X149.05Y-88.0
X149.2Y-82.25
X149.7Y-76.75
X149.85Y-71.6
X149.95Y-92.7
X150.7Y-89.9
X151.05Y-70.2
X151.237Y-59.45
X151.6Y-82.3
X151.85Y-73.3
X152.2Y-91.4
X152.25Y-76.65
X152.5Y-88.3
X152.75Y-71.85
X153.9Y-90.2
X154.05Y-73.5
X154.25Y-92.8
X154.35Y-82.25
X154.45Y-76.75
X155.95Y-64.6
X156.1Y-66.6
X156.3Y-73.55
X156.625Y-59.45
X156.65Y-76.35
X157.25Y-82.1
X158.2Y-62.9
X158.55Y-80.95
X159.25Y-83.5
X159.25Y-86.75
X159.35Y-73.5
X160.75Y-85.45
X161.0Y-64.8
X161.1Y-63.0
X162.012Y-59.45
X162.4Y-66.2
X162.65Y-64.2
X162.85Y-70.7
X162.9Y-68.2
X164.2Y-85.35
X164.35Y-62.8
X164.55Y-72.8
X164.95Y-64.35
X165.9Y-76.65
X166.95Y-85.55
X167.1Y-82.55
X167.25Y-73.2
X167.4Y-59.45
X167.55Y-78.5
X167.85Y-89.8
X168.4Y-71.7
X168.55Y-76.9
X168.6Y-70.0
X168.7Y-64.6
X168.7Y-66.5
X168.7Y-80.55
X168.95Y-83.9
X169.4Y-87.25
X169.4Y-92.9
X169.95Y-78.4
X170.2Y-91.05
X170.55Y-85.6
X170.6Y-82.25
X171.35Y-76.8
X171.45Y-89.35
X171.55Y-92.85
X171.8Y-62.85
X172.1Y-87.0
X172.15Y-78.5
X172.35Y-83.9
X172.4Y-91.0
X172.787Y-59.45
X173.0Y-69.15
X173.75Y-92.9
X174.25Y-73.25
X174.75Y-65.0
X174.85Y-62.95
X175.1Y-79.85
X175.15Y-82.5
X175.25Y-66.65
X175.6Y-84.65
X175.7Y-68.65
X176.4Y-73.45
X176.6Y-90.3
X176.7Y-88.0
X176.85Y-85.8
X177.1Y-62.9
X177.1Y-77.1
X177.35Y-92.95
X178.175Y-59.45
X178.4Y-84.7
X178.75Y-77.05
X179.15Y-90.6
X179.95Y-71.7
X180.8Y-93.0
X181.3Y-73.65
X181.7Y-66.55
X181.8Y-64.7
X181.85Y-88.7
X182.05Y-76.85
X182.05Y-84.8
X182.2Y-90.5
X183.1Y-73.55
X183.4Y-63.15
X183.5Y-92.8
X183.562Y-59.45
X183.6Y-75.3
X184.05Y-77.4
X185.0Y-90.55
X185.45Y-75.65
X185.85Y-69.15
X186.1Y-77.25
X186.1Y-85.0
X186.4Y-61.1
X186.4Y-92.8
X186.9Y-88.55
X186.95Y-72.95
X187.0Y-66.45
X187.0Y-75.25
X187.75Y-86.7
X187.9Y-90.65
X188.2Y-62.5
X188.45Y-84.55
X188.95Y-59.45
X189.05Y-88.7
X189.15Y-82.5
X189.3Y-79.85
X189.35Y-92.8
X189.65Y-64.5
X189.8Y-61.0
X190.0Y-69.0
X190.05Y-66.85
X190.1Y-72.25
X190.1Y-75.35
X190.1Y-77.6
T2
X103.6Y-80.05
X103.6Y-83.05
X106.6Y-80.05
X106.6Y-83.05
X109.6Y-80.05
X109.6Y-83.05
X112.6Y-80.05
X112.6Y-83.05
X177.4Y-79.7
X177.4Y-82.7
X180.4Y-79.7
X180.4Y-82.7
X183.4Y-79.7
X183.4Y-82.7
X186.4Y-79.7
X186.4Y-82.7
T3
X134.19Y-79.19
X134.19Y-85.54
X138.63Y-79.19
X138.63Y-85.54
X143.07Y-79.19
X143.07Y-85.54
X147.51Y-79.19
X147.51Y-85.54
X151.95Y-79.19
X151.95Y-85.54
X156.39Y-79.19
X156.39Y-85.54
M30
