%TF.GenerationSoftware,KiCad,Pcbnew,9.0.4*%
%TF.CreationDate,2025-10-30T20:58:22-05:00*%
%TF.ProjectId,TEST,54455354-2e6b-4696-9361-645f70636258,rev?*%
%TF.SameCoordinates,Original*%
%TF.FileFunction,Soldermask,Top*%
%TF.FilePolarity,Negative*%
%FSLAX46Y46*%
G04 Gerber Fmt 4.6, Leading zero omitted, Abs format (unit mm)*
G04 Created by KiCad (PCBNEW 9.0.4) date 2025-10-30 20:58:22*
%MOMM*%
%LPD*%
G01*
G04 APERTURE LIST*
G04 Aperture macros list*
%AMRoundRect*
0 Rectangle with rounded corners*
0 $1 Rounding radius*
0 $2 $3 $4 $5 $6 $7 $8 $9 X,Y pos of 4 corners*
0 Add a 4 corners polygon primitive as box body*
4,1,4,$2,$3,$4,$5,$6,$7,$8,$9,$2,$3,0*
0 Add four circle primitives for the rounded corners*
1,1,$1+$1,$2,$3*
1,1,$1+$1,$4,$5*
1,1,$1+$1,$6,$7*
1,1,$1+$1,$8,$9*
0 Add four rect primitives between the rounded corners*
20,1,$1+$1,$2,$3,$4,$5,0*
20,1,$1+$1,$4,$5,$6,$7,0*
20,1,$1+$1,$6,$7,$8,$9,0*
20,1,$1+$1,$8,$9,$2,$3,0*%
G04 Aperture macros list end*
%ADD10C,4.750000*%
%ADD11RoundRect,0.150000X0.150000X-0.587500X0.150000X0.587500X-0.150000X0.587500X-0.150000X-0.587500X0*%
%ADD12C,1.752600*%
%ADD13C,6.600000*%
%ADD14C,2.340000*%
%ADD15RoundRect,0.168750X-0.393750X-0.593750X0.393750X-0.593750X0.393750X0.593750X-0.393750X0.593750X0*%
%ADD16RoundRect,0.168750X-0.593750X0.393750X-0.593750X-0.393750X0.593750X-0.393750X0.593750X0.393750X0*%
%ADD17RoundRect,0.150000X0.400000X-0.350000X0.400000X0.350000X-0.400000X0.350000X-0.400000X-0.350000X0*%
G04 APERTURE END LIST*
D10*
%TO.C,REF\u002A\u002A*%
X170130000Y-97170000D03*
%TD*%
D11*
%TO.C,Q3*%
X130080833Y-71627500D03*
X131980833Y-71627500D03*
X131030833Y-69752500D03*
%TD*%
%TO.C,Q4*%
X137497500Y-71627500D03*
X139397500Y-71627500D03*
X138447500Y-69752500D03*
%TD*%
%TO.C,Q7*%
X159747500Y-71527500D03*
X161647500Y-71527500D03*
X160697500Y-69652500D03*
%TD*%
%TO.C,Q6*%
X152330833Y-71627500D03*
X154230833Y-71627500D03*
X153280833Y-69752500D03*
%TD*%
D12*
%TO.C,J1*%
X105550000Y-72500000D03*
X108050000Y-72500000D03*
%TD*%
D13*
%TO.C,J3*%
X150640000Y-82910000D03*
X133100000Y-94340000D03*
X115560000Y-82910000D03*
D14*
X144200000Y-81900000D03*
X139760000Y-81900000D03*
X135320000Y-81900000D03*
X130880000Y-81900000D03*
X126440000Y-81900000D03*
X122000000Y-81900000D03*
X122000000Y-88250000D03*
X126440000Y-88250000D03*
X130880000Y-88250000D03*
X135320000Y-88250000D03*
X139760000Y-88250000D03*
X144200000Y-88250000D03*
%TD*%
D15*
%TO.C,R1*%
X115112500Y-74850000D03*
X117187500Y-74850000D03*
%TD*%
D16*
%TO.C,R10*%
X145796667Y-64552500D03*
X145796667Y-66627500D03*
%TD*%
D17*
%TO.C,D1*%
X116150000Y-61900000D03*
X116150000Y-60300000D03*
%TD*%
D10*
%TO.C,REF\u002A\u002A*%
X95600000Y-97300000D03*
%TD*%
D16*
%TO.C,R2*%
X116130000Y-64402500D03*
X116130000Y-66477500D03*
%TD*%
D15*
%TO.C,R5*%
X129945833Y-74850000D03*
X132020833Y-74850000D03*
%TD*%
D16*
%TO.C,R8*%
X138380000Y-64552500D03*
X138380000Y-66627500D03*
%TD*%
D17*
%TO.C,D5*%
X145816667Y-62050000D03*
X145816667Y-60450000D03*
%TD*%
%TO.C,D7*%
X160650000Y-61950000D03*
X160650000Y-60350000D03*
%TD*%
%TO.C,D4*%
X138400000Y-62050000D03*
X138400000Y-60450000D03*
%TD*%
D16*
%TO.C,R4*%
X123546667Y-64552500D03*
X123546667Y-66627500D03*
%TD*%
%TO.C,R6*%
X130963333Y-64552500D03*
X130963333Y-66627500D03*
%TD*%
D15*
%TO.C,R9*%
X144779167Y-74850000D03*
X146854167Y-74850000D03*
%TD*%
%TO.C,R11*%
X152195833Y-74850000D03*
X154270833Y-74850000D03*
%TD*%
D17*
%TO.C,D3*%
X130983333Y-62050000D03*
X130983333Y-60450000D03*
%TD*%
D10*
%TO.C,REF\u002A\u002A*%
X170130000Y-60570000D03*
%TD*%
D17*
%TO.C,D6*%
X153233333Y-62050000D03*
X153233333Y-60450000D03*
%TD*%
D11*
%TO.C,Q2*%
X122664167Y-71627500D03*
X124564167Y-71627500D03*
X123614167Y-69752500D03*
%TD*%
%TO.C,Q1*%
X115247500Y-71477500D03*
X117147500Y-71477500D03*
X116197500Y-69602500D03*
%TD*%
D16*
%TO.C,R12*%
X153213333Y-64552500D03*
X153213333Y-66627500D03*
%TD*%
D15*
%TO.C,R3*%
X122529167Y-74850000D03*
X124604167Y-74850000D03*
%TD*%
D17*
%TO.C,D2*%
X123566667Y-62050000D03*
X123566667Y-60450000D03*
%TD*%
D15*
%TO.C,R7*%
X137362500Y-74850000D03*
X139437500Y-74850000D03*
%TD*%
D11*
%TO.C,Q5*%
X144914167Y-71627500D03*
X146814167Y-71627500D03*
X145864167Y-69752500D03*
%TD*%
D16*
%TO.C,R14*%
X160630000Y-64452500D03*
X160630000Y-66527500D03*
%TD*%
D15*
%TO.C,R13*%
X159612500Y-74850000D03*
X161687500Y-74850000D03*
%TD*%
D10*
%TO.C,REF\u002A\u002A*%
X95600000Y-60700000D03*
%TD*%
M02*
