%TF.GenerationSoftware,KiCad,Pcbnew,9.0.4*%
%TF.CreationDate,2025-10-28T17:38:43-05:00*%
%TF.ProjectId,TEST,54455354-2e6b-4696-9361-645f70636258,rev?*%
%TF.SameCoordinates,Original*%
%TF.FileFunction,Legend,Bot*%
%TF.FilePolarity,Positive*%
%FSLAX46Y46*%
G04 Gerber Fmt 4.6, Leading zero omitted, Abs format (unit mm)*
G04 Created by KiCad (PCBNEW 9.0.4) date 2025-10-28 17:38:43*
%MOMM*%
%LPD*%
G01*
G04 APERTURE LIST*
%ADD10C,0.254000*%
%ADD11C,0.200000*%
%ADD12C,0.508000*%
G04 APERTURE END LIST*
D10*
X150573332Y-73454318D02*
X150573332Y-74361461D01*
X150573332Y-74361461D02*
X150633809Y-74542889D01*
X150633809Y-74542889D02*
X150754761Y-74663842D01*
X150754761Y-74663842D02*
X150936190Y-74724318D01*
X150936190Y-74724318D02*
X151057142Y-74724318D01*
X150089523Y-73454318D02*
X149303332Y-73454318D01*
X149303332Y-73454318D02*
X149726666Y-73938127D01*
X149726666Y-73938127D02*
X149545237Y-73938127D01*
X149545237Y-73938127D02*
X149424285Y-73998603D01*
X149424285Y-73998603D02*
X149363809Y-74059080D01*
X149363809Y-74059080D02*
X149303332Y-74180032D01*
X149303332Y-74180032D02*
X149303332Y-74482413D01*
X149303332Y-74482413D02*
X149363809Y-74603365D01*
X149363809Y-74603365D02*
X149424285Y-74663842D01*
X149424285Y-74663842D02*
X149545237Y-74724318D01*
X149545237Y-74724318D02*
X149908094Y-74724318D01*
X149908094Y-74724318D02*
X150029047Y-74663842D01*
X150029047Y-74663842D02*
X150089523Y-74603365D01*
D11*
%TO.C,J3*%
X165570000Y-101440000D02*
X165570000Y-101030000D01*
X125010000Y-101030000D02*
X125010000Y-101690000D01*
X115685000Y-75190000D02*
X115685000Y-101030000D01*
X115685000Y-101030000D02*
X174895000Y-101030000D01*
X134390000Y-74590000D02*
X134390000Y-74590000D01*
X134390000Y-74790000D02*
X134390000Y-74790000D01*
X174895000Y-75190000D02*
X115685000Y-75190000D01*
X174895000Y-101030000D02*
X174895000Y-75190000D01*
X134390000Y-74590000D02*
G75*
G02*
X134390000Y-74790000I0J-100000D01*
G01*
X134390000Y-74790000D02*
G75*
G02*
X134390000Y-74590000I0J100000D01*
G01*
D12*
%TO.C,J2*%
X191374198Y-82700000D02*
G75*
G02*
X190612198Y-82700000I-381000J0D01*
G01*
X190612198Y-82700000D02*
G75*
G02*
X191374198Y-82700000I381000J0D01*
G01*
%TO.C,J1*%
X117574201Y-83050000D02*
G75*
G02*
X116812201Y-83050000I-381000J0D01*
G01*
X116812201Y-83050000D02*
G75*
G02*
X117574201Y-83050000I381000J0D01*
G01*
%TD*%
M02*
