%TF.GenerationSoftware,KiCad,Pcbnew,9.0.4*%
%TF.CreationDate,2025-10-30T20:58:22-05:00*%
%TF.ProjectId,TEST,54455354-2e6b-4696-9361-645f70636258,rev?*%
%TF.SameCoordinates,Original*%
%TF.FileFunction,Legend,Bot*%
%TF.FilePolarity,Positive*%
%FSLAX46Y46*%
G04 Gerber Fmt 4.6, Leading zero omitted, Abs format (unit mm)*
G04 Created by KiCad (PCBNEW 9.0.4) date 2025-10-30 20:58:22*
%MOMM*%
%LPD*%
G01*
G04 APERTURE LIST*
%ADD10C,0.100000*%
%ADD11C,0.508000*%
G04 APERTURE END LIST*
D10*
X121850000Y-67980000D02*
G75*
G02*
X120738074Y-67980000I-555963J0D01*
G01*
X120738074Y-67980000D02*
G75*
G02*
X121850000Y-67980000I555963J0D01*
G01*
X125845963Y-64590000D02*
G75*
G02*
X124734037Y-64590000I-555963J0D01*
G01*
X124734037Y-64590000D02*
G75*
G02*
X125845963Y-64590000I555963J0D01*
G01*
X130855963Y-64590000D02*
G75*
G02*
X129744037Y-64590000I-555963J0D01*
G01*
X129744037Y-64590000D02*
G75*
G02*
X130855963Y-64590000I555963J0D01*
G01*
X125850000Y-67980000D02*
G75*
G02*
X124738074Y-67980000I-555963J0D01*
G01*
X124738074Y-67980000D02*
G75*
G02*
X125850000Y-67980000I555963J0D01*
G01*
X144950000Y-67980000D02*
G75*
G02*
X143838074Y-67980000I-555963J0D01*
G01*
X143838074Y-67980000D02*
G75*
G02*
X144950000Y-67980000I555963J0D01*
G01*
X140315963Y-64590000D02*
G75*
G02*
X139204037Y-64590000I-555963J0D01*
G01*
X139204037Y-64590000D02*
G75*
G02*
X140315963Y-64590000I555963J0D01*
G01*
X135554037Y-67980000D02*
G75*
G02*
X134442111Y-67980000I-555963J0D01*
G01*
X134442111Y-67980000D02*
G75*
G02*
X135554037Y-67980000I555963J0D01*
G01*
X103550000Y-79540000D02*
G75*
G02*
X102438074Y-79540000I-555963J0D01*
G01*
X102438074Y-79540000D02*
G75*
G02*
X103550000Y-79540000I555963J0D01*
G01*
X130860000Y-67980000D02*
G75*
G02*
X129748074Y-67980000I-555963J0D01*
G01*
X129748074Y-67980000D02*
G75*
G02*
X130860000Y-67980000I555963J0D01*
G01*
X135550000Y-64590000D02*
G75*
G02*
X134438074Y-64590000I-555963J0D01*
G01*
X134438074Y-64590000D02*
G75*
G02*
X135550000Y-64590000I555963J0D01*
G01*
X121845963Y-64590000D02*
G75*
G02*
X120734037Y-64590000I-555963J0D01*
G01*
X120734037Y-64590000D02*
G75*
G02*
X121845963Y-64590000I555963J0D01*
G01*
X144945963Y-64590000D02*
G75*
G02*
X143834037Y-64590000I-555963J0D01*
G01*
X143834037Y-64590000D02*
G75*
G02*
X144945963Y-64590000I555963J0D01*
G01*
X140320000Y-67980000D02*
G75*
G02*
X139208074Y-67980000I-555963J0D01*
G01*
X139208074Y-67980000D02*
G75*
G02*
X140320000Y-67980000I555963J0D01*
G01*
X110325963Y-79550000D02*
G75*
G02*
X109214037Y-79550000I-555963J0D01*
G01*
X109214037Y-79550000D02*
G75*
G02*
X110325963Y-79550000I555963J0D01*
G01*
X136716115Y-70392419D02*
X136716115Y-69392419D01*
X136287544Y-70344800D02*
X136144687Y-70392419D01*
X136144687Y-70392419D02*
X135906592Y-70392419D01*
X135906592Y-70392419D02*
X135811354Y-70344800D01*
X135811354Y-70344800D02*
X135763735Y-70297180D01*
X135763735Y-70297180D02*
X135716116Y-70201942D01*
X135716116Y-70201942D02*
X135716116Y-70106704D01*
X135716116Y-70106704D02*
X135763735Y-70011466D01*
X135763735Y-70011466D02*
X135811354Y-69963847D01*
X135811354Y-69963847D02*
X135906592Y-69916228D01*
X135906592Y-69916228D02*
X136097068Y-69868609D01*
X136097068Y-69868609D02*
X136192306Y-69820990D01*
X136192306Y-69820990D02*
X136239925Y-69773371D01*
X136239925Y-69773371D02*
X136287544Y-69678133D01*
X136287544Y-69678133D02*
X136287544Y-69582895D01*
X136287544Y-69582895D02*
X136239925Y-69487657D01*
X136239925Y-69487657D02*
X136192306Y-69440038D01*
X136192306Y-69440038D02*
X136097068Y-69392419D01*
X136097068Y-69392419D02*
X135858973Y-69392419D01*
X135858973Y-69392419D02*
X135716116Y-69440038D01*
X135525640Y-70487657D02*
X134763735Y-70487657D01*
X134525639Y-69868609D02*
X134192306Y-69868609D01*
X134049449Y-70392419D02*
X134525639Y-70392419D01*
X134525639Y-70392419D02*
X134525639Y-69392419D01*
X134525639Y-69392419D02*
X134049449Y-69392419D01*
X131394687Y-70392419D02*
X131728020Y-69916228D01*
X131966115Y-70392419D02*
X131966115Y-69392419D01*
X131966115Y-69392419D02*
X131585163Y-69392419D01*
X131585163Y-69392419D02*
X131489925Y-69440038D01*
X131489925Y-69440038D02*
X131442306Y-69487657D01*
X131442306Y-69487657D02*
X131394687Y-69582895D01*
X131394687Y-69582895D02*
X131394687Y-69725752D01*
X131394687Y-69725752D02*
X131442306Y-69820990D01*
X131442306Y-69820990D02*
X131489925Y-69868609D01*
X131489925Y-69868609D02*
X131585163Y-69916228D01*
X131585163Y-69916228D02*
X131966115Y-69916228D01*
X130632782Y-69868609D02*
X130489925Y-69916228D01*
X130489925Y-69916228D02*
X130442306Y-69963847D01*
X130442306Y-69963847D02*
X130394687Y-70059085D01*
X130394687Y-70059085D02*
X130394687Y-70201942D01*
X130394687Y-70201942D02*
X130442306Y-70297180D01*
X130442306Y-70297180D02*
X130489925Y-70344800D01*
X130489925Y-70344800D02*
X130585163Y-70392419D01*
X130585163Y-70392419D02*
X130966115Y-70392419D01*
X130966115Y-70392419D02*
X130966115Y-69392419D01*
X130966115Y-69392419D02*
X130632782Y-69392419D01*
X130632782Y-69392419D02*
X130537544Y-69440038D01*
X130537544Y-69440038D02*
X130489925Y-69487657D01*
X130489925Y-69487657D02*
X130442306Y-69582895D01*
X130442306Y-69582895D02*
X130442306Y-69678133D01*
X130442306Y-69678133D02*
X130489925Y-69773371D01*
X130489925Y-69773371D02*
X130537544Y-69820990D01*
X130537544Y-69820990D02*
X130632782Y-69868609D01*
X130632782Y-69868609D02*
X130966115Y-69868609D01*
X130204211Y-70487657D02*
X129442306Y-70487657D01*
X129204210Y-69868609D02*
X128870877Y-69868609D01*
X128728020Y-70392419D02*
X129204210Y-70392419D01*
X129204210Y-70392419D02*
X129204210Y-69392419D01*
X129204210Y-69392419D02*
X128728020Y-69392419D01*
X110063734Y-83007657D02*
X110016115Y-82960038D01*
X110016115Y-82960038D02*
X109920877Y-82912419D01*
X109920877Y-82912419D02*
X109682782Y-82912419D01*
X109682782Y-82912419D02*
X109587544Y-82960038D01*
X109587544Y-82960038D02*
X109539925Y-83007657D01*
X109539925Y-83007657D02*
X109492306Y-83102895D01*
X109492306Y-83102895D02*
X109492306Y-83198133D01*
X109492306Y-83198133D02*
X109539925Y-83340990D01*
X109539925Y-83340990D02*
X110111353Y-83912419D01*
X110111353Y-83912419D02*
X109492306Y-83912419D01*
X135371353Y-58952419D02*
X134752306Y-58952419D01*
X134752306Y-58952419D02*
X135085639Y-59333371D01*
X135085639Y-59333371D02*
X134942782Y-59333371D01*
X134942782Y-59333371D02*
X134847544Y-59380990D01*
X134847544Y-59380990D02*
X134799925Y-59428609D01*
X134799925Y-59428609D02*
X134752306Y-59523847D01*
X134752306Y-59523847D02*
X134752306Y-59761942D01*
X134752306Y-59761942D02*
X134799925Y-59857180D01*
X134799925Y-59857180D02*
X134847544Y-59904800D01*
X134847544Y-59904800D02*
X134942782Y-59952419D01*
X134942782Y-59952419D02*
X135228496Y-59952419D01*
X135228496Y-59952419D02*
X135323734Y-59904800D01*
X135323734Y-59904800D02*
X135371353Y-59857180D01*
X144722306Y-59952419D02*
X145293734Y-59952419D01*
X145008020Y-59952419D02*
X145008020Y-58952419D01*
X145008020Y-58952419D02*
X145103258Y-59095276D01*
X145103258Y-59095276D02*
X145198496Y-59190514D01*
X145198496Y-59190514D02*
X145293734Y-59238133D01*
X140544687Y-62417180D02*
X140592306Y-62464800D01*
X140592306Y-62464800D02*
X140735163Y-62512419D01*
X140735163Y-62512419D02*
X140830401Y-62512419D01*
X140830401Y-62512419D02*
X140973258Y-62464800D01*
X140973258Y-62464800D02*
X141068496Y-62369561D01*
X141068496Y-62369561D02*
X141116115Y-62274323D01*
X141116115Y-62274323D02*
X141163734Y-62083847D01*
X141163734Y-62083847D02*
X141163734Y-61940990D01*
X141163734Y-61940990D02*
X141116115Y-61750514D01*
X141116115Y-61750514D02*
X141068496Y-61655276D01*
X141068496Y-61655276D02*
X140973258Y-61560038D01*
X140973258Y-61560038D02*
X140830401Y-61512419D01*
X140830401Y-61512419D02*
X140735163Y-61512419D01*
X140735163Y-61512419D02*
X140592306Y-61560038D01*
X140592306Y-61560038D02*
X140544687Y-61607657D01*
X139782782Y-61988609D02*
X139639925Y-62036228D01*
X139639925Y-62036228D02*
X139592306Y-62083847D01*
X139592306Y-62083847D02*
X139544687Y-62179085D01*
X139544687Y-62179085D02*
X139544687Y-62321942D01*
X139544687Y-62321942D02*
X139592306Y-62417180D01*
X139592306Y-62417180D02*
X139639925Y-62464800D01*
X139639925Y-62464800D02*
X139735163Y-62512419D01*
X139735163Y-62512419D02*
X140116115Y-62512419D01*
X140116115Y-62512419D02*
X140116115Y-61512419D01*
X140116115Y-61512419D02*
X139782782Y-61512419D01*
X139782782Y-61512419D02*
X139687544Y-61560038D01*
X139687544Y-61560038D02*
X139639925Y-61607657D01*
X139639925Y-61607657D02*
X139592306Y-61702895D01*
X139592306Y-61702895D02*
X139592306Y-61798133D01*
X139592306Y-61798133D02*
X139639925Y-61893371D01*
X139639925Y-61893371D02*
X139687544Y-61940990D01*
X139687544Y-61940990D02*
X139782782Y-61988609D01*
X139782782Y-61988609D02*
X140116115Y-61988609D01*
X139354211Y-62607657D02*
X138592306Y-62607657D01*
X138401829Y-62464800D02*
X138258972Y-62512419D01*
X138258972Y-62512419D02*
X138020877Y-62512419D01*
X138020877Y-62512419D02*
X137925639Y-62464800D01*
X137925639Y-62464800D02*
X137878020Y-62417180D01*
X137878020Y-62417180D02*
X137830401Y-62321942D01*
X137830401Y-62321942D02*
X137830401Y-62226704D01*
X137830401Y-62226704D02*
X137878020Y-62131466D01*
X137878020Y-62131466D02*
X137925639Y-62083847D01*
X137925639Y-62083847D02*
X138020877Y-62036228D01*
X138020877Y-62036228D02*
X138211353Y-61988609D01*
X138211353Y-61988609D02*
X138306591Y-61940990D01*
X138306591Y-61940990D02*
X138354210Y-61893371D01*
X138354210Y-61893371D02*
X138401829Y-61798133D01*
X138401829Y-61798133D02*
X138401829Y-61702895D01*
X138401829Y-61702895D02*
X138354210Y-61607657D01*
X138354210Y-61607657D02*
X138306591Y-61560038D01*
X138306591Y-61560038D02*
X138211353Y-61512419D01*
X138211353Y-61512419D02*
X137973258Y-61512419D01*
X137973258Y-61512419D02*
X137830401Y-61560038D01*
X147062782Y-61988609D02*
X146919925Y-62036228D01*
X146919925Y-62036228D02*
X146872306Y-62083847D01*
X146872306Y-62083847D02*
X146824687Y-62179085D01*
X146824687Y-62179085D02*
X146824687Y-62321942D01*
X146824687Y-62321942D02*
X146872306Y-62417180D01*
X146872306Y-62417180D02*
X146919925Y-62464800D01*
X146919925Y-62464800D02*
X147015163Y-62512419D01*
X147015163Y-62512419D02*
X147396115Y-62512419D01*
X147396115Y-62512419D02*
X147396115Y-61512419D01*
X147396115Y-61512419D02*
X147062782Y-61512419D01*
X147062782Y-61512419D02*
X146967544Y-61560038D01*
X146967544Y-61560038D02*
X146919925Y-61607657D01*
X146919925Y-61607657D02*
X146872306Y-61702895D01*
X146872306Y-61702895D02*
X146872306Y-61798133D01*
X146872306Y-61798133D02*
X146919925Y-61893371D01*
X146919925Y-61893371D02*
X146967544Y-61940990D01*
X146967544Y-61940990D02*
X147062782Y-61988609D01*
X147062782Y-61988609D02*
X147396115Y-61988609D01*
X146205639Y-61512419D02*
X146015163Y-61512419D01*
X146015163Y-61512419D02*
X145919925Y-61560038D01*
X145919925Y-61560038D02*
X145824687Y-61655276D01*
X145824687Y-61655276D02*
X145777068Y-61845752D01*
X145777068Y-61845752D02*
X145777068Y-62179085D01*
X145777068Y-62179085D02*
X145824687Y-62369561D01*
X145824687Y-62369561D02*
X145919925Y-62464800D01*
X145919925Y-62464800D02*
X146015163Y-62512419D01*
X146015163Y-62512419D02*
X146205639Y-62512419D01*
X146205639Y-62512419D02*
X146300877Y-62464800D01*
X146300877Y-62464800D02*
X146396115Y-62369561D01*
X146396115Y-62369561D02*
X146443734Y-62179085D01*
X146443734Y-62179085D02*
X146443734Y-61845752D01*
X146443734Y-61845752D02*
X146396115Y-61655276D01*
X146396115Y-61655276D02*
X146300877Y-61560038D01*
X146300877Y-61560038D02*
X146205639Y-61512419D01*
X145491353Y-61512419D02*
X144919925Y-61512419D01*
X145205639Y-62512419D02*
X145205639Y-61512419D01*
X144634210Y-62464800D02*
X144491353Y-62512419D01*
X144491353Y-62512419D02*
X144253258Y-62512419D01*
X144253258Y-62512419D02*
X144158020Y-62464800D01*
X144158020Y-62464800D02*
X144110401Y-62417180D01*
X144110401Y-62417180D02*
X144062782Y-62321942D01*
X144062782Y-62321942D02*
X144062782Y-62226704D01*
X144062782Y-62226704D02*
X144110401Y-62131466D01*
X144110401Y-62131466D02*
X144158020Y-62083847D01*
X144158020Y-62083847D02*
X144253258Y-62036228D01*
X144253258Y-62036228D02*
X144443734Y-61988609D01*
X144443734Y-61988609D02*
X144538972Y-61940990D01*
X144538972Y-61940990D02*
X144586591Y-61893371D01*
X144586591Y-61893371D02*
X144634210Y-61798133D01*
X144634210Y-61798133D02*
X144634210Y-61702895D01*
X144634210Y-61702895D02*
X144586591Y-61607657D01*
X144586591Y-61607657D02*
X144538972Y-61560038D01*
X144538972Y-61560038D02*
X144443734Y-61512419D01*
X144443734Y-61512419D02*
X144205639Y-61512419D01*
X144205639Y-61512419D02*
X144062782Y-61560038D01*
X143872306Y-62607657D02*
X143110401Y-62607657D01*
X142919924Y-62464800D02*
X142777067Y-62512419D01*
X142777067Y-62512419D02*
X142538972Y-62512419D01*
X142538972Y-62512419D02*
X142443734Y-62464800D01*
X142443734Y-62464800D02*
X142396115Y-62417180D01*
X142396115Y-62417180D02*
X142348496Y-62321942D01*
X142348496Y-62321942D02*
X142348496Y-62226704D01*
X142348496Y-62226704D02*
X142396115Y-62131466D01*
X142396115Y-62131466D02*
X142443734Y-62083847D01*
X142443734Y-62083847D02*
X142538972Y-62036228D01*
X142538972Y-62036228D02*
X142729448Y-61988609D01*
X142729448Y-61988609D02*
X142824686Y-61940990D01*
X142824686Y-61940990D02*
X142872305Y-61893371D01*
X142872305Y-61893371D02*
X142919924Y-61798133D01*
X142919924Y-61798133D02*
X142919924Y-61702895D01*
X142919924Y-61702895D02*
X142872305Y-61607657D01*
X142872305Y-61607657D02*
X142824686Y-61560038D01*
X142824686Y-61560038D02*
X142729448Y-61512419D01*
X142729448Y-61512419D02*
X142491353Y-61512419D01*
X142491353Y-61512419D02*
X142348496Y-61560038D01*
X124563258Y-72460990D02*
X124658496Y-72413371D01*
X124658496Y-72413371D02*
X124706115Y-72365752D01*
X124706115Y-72365752D02*
X124753734Y-72270514D01*
X124753734Y-72270514D02*
X124753734Y-72222895D01*
X124753734Y-72222895D02*
X124706115Y-72127657D01*
X124706115Y-72127657D02*
X124658496Y-72080038D01*
X124658496Y-72080038D02*
X124563258Y-72032419D01*
X124563258Y-72032419D02*
X124372782Y-72032419D01*
X124372782Y-72032419D02*
X124277544Y-72080038D01*
X124277544Y-72080038D02*
X124229925Y-72127657D01*
X124229925Y-72127657D02*
X124182306Y-72222895D01*
X124182306Y-72222895D02*
X124182306Y-72270514D01*
X124182306Y-72270514D02*
X124229925Y-72365752D01*
X124229925Y-72365752D02*
X124277544Y-72413371D01*
X124277544Y-72413371D02*
X124372782Y-72460990D01*
X124372782Y-72460990D02*
X124563258Y-72460990D01*
X124563258Y-72460990D02*
X124658496Y-72508609D01*
X124658496Y-72508609D02*
X124706115Y-72556228D01*
X124706115Y-72556228D02*
X124753734Y-72651466D01*
X124753734Y-72651466D02*
X124753734Y-72841942D01*
X124753734Y-72841942D02*
X124706115Y-72937180D01*
X124706115Y-72937180D02*
X124658496Y-72984800D01*
X124658496Y-72984800D02*
X124563258Y-73032419D01*
X124563258Y-73032419D02*
X124372782Y-73032419D01*
X124372782Y-73032419D02*
X124277544Y-72984800D01*
X124277544Y-72984800D02*
X124229925Y-72937180D01*
X124229925Y-72937180D02*
X124182306Y-72841942D01*
X124182306Y-72841942D02*
X124182306Y-72651466D01*
X124182306Y-72651466D02*
X124229925Y-72556228D01*
X124229925Y-72556228D02*
X124277544Y-72508609D01*
X124277544Y-72508609D02*
X124372782Y-72460990D01*
X141044687Y-70297180D02*
X141092306Y-70344800D01*
X141092306Y-70344800D02*
X141235163Y-70392419D01*
X141235163Y-70392419D02*
X141330401Y-70392419D01*
X141330401Y-70392419D02*
X141473258Y-70344800D01*
X141473258Y-70344800D02*
X141568496Y-70249561D01*
X141568496Y-70249561D02*
X141616115Y-70154323D01*
X141616115Y-70154323D02*
X141663734Y-69963847D01*
X141663734Y-69963847D02*
X141663734Y-69820990D01*
X141663734Y-69820990D02*
X141616115Y-69630514D01*
X141616115Y-69630514D02*
X141568496Y-69535276D01*
X141568496Y-69535276D02*
X141473258Y-69440038D01*
X141473258Y-69440038D02*
X141330401Y-69392419D01*
X141330401Y-69392419D02*
X141235163Y-69392419D01*
X141235163Y-69392419D02*
X141092306Y-69440038D01*
X141092306Y-69440038D02*
X141044687Y-69487657D01*
X140282782Y-69868609D02*
X140139925Y-69916228D01*
X140139925Y-69916228D02*
X140092306Y-69963847D01*
X140092306Y-69963847D02*
X140044687Y-70059085D01*
X140044687Y-70059085D02*
X140044687Y-70201942D01*
X140044687Y-70201942D02*
X140092306Y-70297180D01*
X140092306Y-70297180D02*
X140139925Y-70344800D01*
X140139925Y-70344800D02*
X140235163Y-70392419D01*
X140235163Y-70392419D02*
X140616115Y-70392419D01*
X140616115Y-70392419D02*
X140616115Y-69392419D01*
X140616115Y-69392419D02*
X140282782Y-69392419D01*
X140282782Y-69392419D02*
X140187544Y-69440038D01*
X140187544Y-69440038D02*
X140139925Y-69487657D01*
X140139925Y-69487657D02*
X140092306Y-69582895D01*
X140092306Y-69582895D02*
X140092306Y-69678133D01*
X140092306Y-69678133D02*
X140139925Y-69773371D01*
X140139925Y-69773371D02*
X140187544Y-69820990D01*
X140187544Y-69820990D02*
X140282782Y-69868609D01*
X140282782Y-69868609D02*
X140616115Y-69868609D01*
X139854211Y-70487657D02*
X139092306Y-70487657D01*
X138854210Y-69868609D02*
X138520877Y-69868609D01*
X138378020Y-70392419D02*
X138854210Y-70392419D01*
X138854210Y-70392419D02*
X138854210Y-69392419D01*
X138854210Y-69392419D02*
X138378020Y-69392419D01*
X131204687Y-62512419D02*
X131538020Y-62036228D01*
X131776115Y-62512419D02*
X131776115Y-61512419D01*
X131776115Y-61512419D02*
X131395163Y-61512419D01*
X131395163Y-61512419D02*
X131299925Y-61560038D01*
X131299925Y-61560038D02*
X131252306Y-61607657D01*
X131252306Y-61607657D02*
X131204687Y-61702895D01*
X131204687Y-61702895D02*
X131204687Y-61845752D01*
X131204687Y-61845752D02*
X131252306Y-61940990D01*
X131252306Y-61940990D02*
X131299925Y-61988609D01*
X131299925Y-61988609D02*
X131395163Y-62036228D01*
X131395163Y-62036228D02*
X131776115Y-62036228D01*
X130442782Y-61988609D02*
X130299925Y-62036228D01*
X130299925Y-62036228D02*
X130252306Y-62083847D01*
X130252306Y-62083847D02*
X130204687Y-62179085D01*
X130204687Y-62179085D02*
X130204687Y-62321942D01*
X130204687Y-62321942D02*
X130252306Y-62417180D01*
X130252306Y-62417180D02*
X130299925Y-62464800D01*
X130299925Y-62464800D02*
X130395163Y-62512419D01*
X130395163Y-62512419D02*
X130776115Y-62512419D01*
X130776115Y-62512419D02*
X130776115Y-61512419D01*
X130776115Y-61512419D02*
X130442782Y-61512419D01*
X130442782Y-61512419D02*
X130347544Y-61560038D01*
X130347544Y-61560038D02*
X130299925Y-61607657D01*
X130299925Y-61607657D02*
X130252306Y-61702895D01*
X130252306Y-61702895D02*
X130252306Y-61798133D01*
X130252306Y-61798133D02*
X130299925Y-61893371D01*
X130299925Y-61893371D02*
X130347544Y-61940990D01*
X130347544Y-61940990D02*
X130442782Y-61988609D01*
X130442782Y-61988609D02*
X130776115Y-61988609D01*
X130014211Y-62607657D02*
X129252306Y-62607657D01*
X129061829Y-62464800D02*
X128918972Y-62512419D01*
X128918972Y-62512419D02*
X128680877Y-62512419D01*
X128680877Y-62512419D02*
X128585639Y-62464800D01*
X128585639Y-62464800D02*
X128538020Y-62417180D01*
X128538020Y-62417180D02*
X128490401Y-62321942D01*
X128490401Y-62321942D02*
X128490401Y-62226704D01*
X128490401Y-62226704D02*
X128538020Y-62131466D01*
X128538020Y-62131466D02*
X128585639Y-62083847D01*
X128585639Y-62083847D02*
X128680877Y-62036228D01*
X128680877Y-62036228D02*
X128871353Y-61988609D01*
X128871353Y-61988609D02*
X128966591Y-61940990D01*
X128966591Y-61940990D02*
X129014210Y-61893371D01*
X129014210Y-61893371D02*
X129061829Y-61798133D01*
X129061829Y-61798133D02*
X129061829Y-61702895D01*
X129061829Y-61702895D02*
X129014210Y-61607657D01*
X129014210Y-61607657D02*
X128966591Y-61560038D01*
X128966591Y-61560038D02*
X128871353Y-61512419D01*
X128871353Y-61512419D02*
X128633258Y-61512419D01*
X128633258Y-61512419D02*
X128490401Y-61560038D01*
X129887544Y-59285752D02*
X129887544Y-59952419D01*
X130125639Y-58904800D02*
X130363734Y-59619085D01*
X130363734Y-59619085D02*
X129744687Y-59619085D01*
X136506115Y-62512419D02*
X136506115Y-61512419D01*
X136077544Y-62464800D02*
X135934687Y-62512419D01*
X135934687Y-62512419D02*
X135696592Y-62512419D01*
X135696592Y-62512419D02*
X135601354Y-62464800D01*
X135601354Y-62464800D02*
X135553735Y-62417180D01*
X135553735Y-62417180D02*
X135506116Y-62321942D01*
X135506116Y-62321942D02*
X135506116Y-62226704D01*
X135506116Y-62226704D02*
X135553735Y-62131466D01*
X135553735Y-62131466D02*
X135601354Y-62083847D01*
X135601354Y-62083847D02*
X135696592Y-62036228D01*
X135696592Y-62036228D02*
X135887068Y-61988609D01*
X135887068Y-61988609D02*
X135982306Y-61940990D01*
X135982306Y-61940990D02*
X136029925Y-61893371D01*
X136029925Y-61893371D02*
X136077544Y-61798133D01*
X136077544Y-61798133D02*
X136077544Y-61702895D01*
X136077544Y-61702895D02*
X136029925Y-61607657D01*
X136029925Y-61607657D02*
X135982306Y-61560038D01*
X135982306Y-61560038D02*
X135887068Y-61512419D01*
X135887068Y-61512419D02*
X135648973Y-61512419D01*
X135648973Y-61512419D02*
X135506116Y-61560038D01*
X135315640Y-62607657D02*
X134553735Y-62607657D01*
X134363258Y-62464800D02*
X134220401Y-62512419D01*
X134220401Y-62512419D02*
X133982306Y-62512419D01*
X133982306Y-62512419D02*
X133887068Y-62464800D01*
X133887068Y-62464800D02*
X133839449Y-62417180D01*
X133839449Y-62417180D02*
X133791830Y-62321942D01*
X133791830Y-62321942D02*
X133791830Y-62226704D01*
X133791830Y-62226704D02*
X133839449Y-62131466D01*
X133839449Y-62131466D02*
X133887068Y-62083847D01*
X133887068Y-62083847D02*
X133982306Y-62036228D01*
X133982306Y-62036228D02*
X134172782Y-61988609D01*
X134172782Y-61988609D02*
X134268020Y-61940990D01*
X134268020Y-61940990D02*
X134315639Y-61893371D01*
X134315639Y-61893371D02*
X134363258Y-61798133D01*
X134363258Y-61798133D02*
X134363258Y-61702895D01*
X134363258Y-61702895D02*
X134315639Y-61607657D01*
X134315639Y-61607657D02*
X134268020Y-61560038D01*
X134268020Y-61560038D02*
X134172782Y-61512419D01*
X134172782Y-61512419D02*
X133934687Y-61512419D01*
X133934687Y-61512419D02*
X133791830Y-61560038D01*
X138962306Y-73032419D02*
X139533734Y-73032419D01*
X139248020Y-73032419D02*
X139248020Y-72032419D01*
X139248020Y-72032419D02*
X139343258Y-72175276D01*
X139343258Y-72175276D02*
X139438496Y-72270514D01*
X139438496Y-72270514D02*
X139533734Y-72318133D01*
X138009925Y-73032419D02*
X138581353Y-73032419D01*
X138295639Y-73032419D02*
X138295639Y-72032419D01*
X138295639Y-72032419D02*
X138390877Y-72175276D01*
X138390877Y-72175276D02*
X138486115Y-72270514D01*
X138486115Y-72270514D02*
X138581353Y-72318133D01*
X121042306Y-62512419D02*
X121613734Y-62512419D01*
X121328020Y-62512419D02*
X121328020Y-61512419D01*
X121328020Y-61512419D02*
X121423258Y-61655276D01*
X121423258Y-61655276D02*
X121518496Y-61750514D01*
X121518496Y-61750514D02*
X121613734Y-61798133D01*
X120661353Y-61607657D02*
X120613734Y-61560038D01*
X120613734Y-61560038D02*
X120518496Y-61512419D01*
X120518496Y-61512419D02*
X120280401Y-61512419D01*
X120280401Y-61512419D02*
X120185163Y-61560038D01*
X120185163Y-61560038D02*
X120137544Y-61607657D01*
X120137544Y-61607657D02*
X120089925Y-61702895D01*
X120089925Y-61702895D02*
X120089925Y-61798133D01*
X120089925Y-61798133D02*
X120137544Y-61940990D01*
X120137544Y-61940990D02*
X120708972Y-62512419D01*
X120708972Y-62512419D02*
X120089925Y-62512419D01*
X119804210Y-61512419D02*
X119470877Y-62512419D01*
X119470877Y-62512419D02*
X119137544Y-61512419D01*
X139503734Y-59047657D02*
X139456115Y-59000038D01*
X139456115Y-59000038D02*
X139360877Y-58952419D01*
X139360877Y-58952419D02*
X139122782Y-58952419D01*
X139122782Y-58952419D02*
X139027544Y-59000038D01*
X139027544Y-59000038D02*
X138979925Y-59047657D01*
X138979925Y-59047657D02*
X138932306Y-59142895D01*
X138932306Y-59142895D02*
X138932306Y-59238133D01*
X138932306Y-59238133D02*
X138979925Y-59380990D01*
X138979925Y-59380990D02*
X139551353Y-59952419D01*
X139551353Y-59952419D02*
X138932306Y-59952419D01*
X121452306Y-69300038D02*
X121547544Y-69252419D01*
X121547544Y-69252419D02*
X121690401Y-69252419D01*
X121690401Y-69252419D02*
X121833258Y-69300038D01*
X121833258Y-69300038D02*
X121928496Y-69395276D01*
X121928496Y-69395276D02*
X121976115Y-69490514D01*
X121976115Y-69490514D02*
X122023734Y-69680990D01*
X122023734Y-69680990D02*
X122023734Y-69823847D01*
X122023734Y-69823847D02*
X121976115Y-70014323D01*
X121976115Y-70014323D02*
X121928496Y-70109561D01*
X121928496Y-70109561D02*
X121833258Y-70204800D01*
X121833258Y-70204800D02*
X121690401Y-70252419D01*
X121690401Y-70252419D02*
X121595163Y-70252419D01*
X121595163Y-70252419D02*
X121452306Y-70204800D01*
X121452306Y-70204800D02*
X121404687Y-70157180D01*
X121404687Y-70157180D02*
X121404687Y-69823847D01*
X121404687Y-69823847D02*
X121595163Y-69823847D01*
X120976115Y-70252419D02*
X120976115Y-69252419D01*
X120976115Y-69252419D02*
X120404687Y-70252419D01*
X120404687Y-70252419D02*
X120404687Y-69252419D01*
X119928496Y-70252419D02*
X119928496Y-69252419D01*
X119928496Y-69252419D02*
X119690401Y-69252419D01*
X119690401Y-69252419D02*
X119547544Y-69300038D01*
X119547544Y-69300038D02*
X119452306Y-69395276D01*
X119452306Y-69395276D02*
X119404687Y-69490514D01*
X119404687Y-69490514D02*
X119357068Y-69680990D01*
X119357068Y-69680990D02*
X119357068Y-69823847D01*
X119357068Y-69823847D02*
X119404687Y-70014323D01*
X119404687Y-70014323D02*
X119452306Y-70109561D01*
X119452306Y-70109561D02*
X119547544Y-70204800D01*
X119547544Y-70204800D02*
X119690401Y-70252419D01*
X119690401Y-70252419D02*
X119928496Y-70252419D01*
X144942306Y-73032419D02*
X145513734Y-73032419D01*
X145228020Y-73032419D02*
X145228020Y-72032419D01*
X145228020Y-72032419D02*
X145323258Y-72175276D01*
X145323258Y-72175276D02*
X145418496Y-72270514D01*
X145418496Y-72270514D02*
X145513734Y-72318133D01*
X144561353Y-72127657D02*
X144513734Y-72080038D01*
X144513734Y-72080038D02*
X144418496Y-72032419D01*
X144418496Y-72032419D02*
X144180401Y-72032419D01*
X144180401Y-72032419D02*
X144085163Y-72080038D01*
X144085163Y-72080038D02*
X144037544Y-72127657D01*
X144037544Y-72127657D02*
X143989925Y-72222895D01*
X143989925Y-72222895D02*
X143989925Y-72318133D01*
X143989925Y-72318133D02*
X144037544Y-72460990D01*
X144037544Y-72460990D02*
X144608972Y-73032419D01*
X144608972Y-73032419D02*
X143989925Y-73032419D01*
X126099925Y-62512419D02*
X126576115Y-62512419D01*
X126576115Y-62512419D02*
X126576115Y-61512419D01*
X125433258Y-61988609D02*
X125290401Y-62036228D01*
X125290401Y-62036228D02*
X125242782Y-62083847D01*
X125242782Y-62083847D02*
X125195163Y-62179085D01*
X125195163Y-62179085D02*
X125195163Y-62321942D01*
X125195163Y-62321942D02*
X125242782Y-62417180D01*
X125242782Y-62417180D02*
X125290401Y-62464800D01*
X125290401Y-62464800D02*
X125385639Y-62512419D01*
X125385639Y-62512419D02*
X125766591Y-62512419D01*
X125766591Y-62512419D02*
X125766591Y-61512419D01*
X125766591Y-61512419D02*
X125433258Y-61512419D01*
X125433258Y-61512419D02*
X125338020Y-61560038D01*
X125338020Y-61560038D02*
X125290401Y-61607657D01*
X125290401Y-61607657D02*
X125242782Y-61702895D01*
X125242782Y-61702895D02*
X125242782Y-61798133D01*
X125242782Y-61798133D02*
X125290401Y-61893371D01*
X125290401Y-61893371D02*
X125338020Y-61940990D01*
X125338020Y-61940990D02*
X125433258Y-61988609D01*
X125433258Y-61988609D02*
X125766591Y-61988609D01*
X125004687Y-62607657D02*
X124242782Y-62607657D01*
X124052305Y-62464800D02*
X123909448Y-62512419D01*
X123909448Y-62512419D02*
X123671353Y-62512419D01*
X123671353Y-62512419D02*
X123576115Y-62464800D01*
X123576115Y-62464800D02*
X123528496Y-62417180D01*
X123528496Y-62417180D02*
X123480877Y-62321942D01*
X123480877Y-62321942D02*
X123480877Y-62226704D01*
X123480877Y-62226704D02*
X123528496Y-62131466D01*
X123528496Y-62131466D02*
X123576115Y-62083847D01*
X123576115Y-62083847D02*
X123671353Y-62036228D01*
X123671353Y-62036228D02*
X123861829Y-61988609D01*
X123861829Y-61988609D02*
X123957067Y-61940990D01*
X123957067Y-61940990D02*
X124004686Y-61893371D01*
X124004686Y-61893371D02*
X124052305Y-61798133D01*
X124052305Y-61798133D02*
X124052305Y-61702895D01*
X124052305Y-61702895D02*
X124004686Y-61607657D01*
X124004686Y-61607657D02*
X123957067Y-61560038D01*
X123957067Y-61560038D02*
X123861829Y-61512419D01*
X123861829Y-61512419D02*
X123623734Y-61512419D01*
X123623734Y-61512419D02*
X123480877Y-61560038D01*
X129778496Y-73032419D02*
X129588020Y-73032419D01*
X129588020Y-73032419D02*
X129492782Y-72984800D01*
X129492782Y-72984800D02*
X129445163Y-72937180D01*
X129445163Y-72937180D02*
X129349925Y-72794323D01*
X129349925Y-72794323D02*
X129302306Y-72603847D01*
X129302306Y-72603847D02*
X129302306Y-72222895D01*
X129302306Y-72222895D02*
X129349925Y-72127657D01*
X129349925Y-72127657D02*
X129397544Y-72080038D01*
X129397544Y-72080038D02*
X129492782Y-72032419D01*
X129492782Y-72032419D02*
X129683258Y-72032419D01*
X129683258Y-72032419D02*
X129778496Y-72080038D01*
X129778496Y-72080038D02*
X129826115Y-72127657D01*
X129826115Y-72127657D02*
X129873734Y-72222895D01*
X129873734Y-72222895D02*
X129873734Y-72460990D01*
X129873734Y-72460990D02*
X129826115Y-72556228D01*
X129826115Y-72556228D02*
X129778496Y-72603847D01*
X129778496Y-72603847D02*
X129683258Y-72651466D01*
X129683258Y-72651466D02*
X129492782Y-72651466D01*
X129492782Y-72651466D02*
X129397544Y-72603847D01*
X129397544Y-72603847D02*
X129349925Y-72556228D01*
X129349925Y-72556228D02*
X129302306Y-72460990D01*
X124349925Y-58952419D02*
X124826115Y-58952419D01*
X124826115Y-58952419D02*
X124873734Y-59428609D01*
X124873734Y-59428609D02*
X124826115Y-59380990D01*
X124826115Y-59380990D02*
X124730877Y-59333371D01*
X124730877Y-59333371D02*
X124492782Y-59333371D01*
X124492782Y-59333371D02*
X124397544Y-59380990D01*
X124397544Y-59380990D02*
X124349925Y-59428609D01*
X124349925Y-59428609D02*
X124302306Y-59523847D01*
X124302306Y-59523847D02*
X124302306Y-59761942D01*
X124302306Y-59761942D02*
X124349925Y-59857180D01*
X124349925Y-59857180D02*
X124397544Y-59904800D01*
X124397544Y-59904800D02*
X124492782Y-59952419D01*
X124492782Y-59952419D02*
X124730877Y-59952419D01*
X124730877Y-59952419D02*
X124826115Y-59904800D01*
X124826115Y-59904800D02*
X124873734Y-59857180D01*
X121001353Y-72032419D02*
X120334687Y-72032419D01*
X120334687Y-72032419D02*
X120763258Y-73032419D01*
X126119925Y-70392419D02*
X126596115Y-70392419D01*
X126596115Y-70392419D02*
X126596115Y-69392419D01*
X125453258Y-69868609D02*
X125310401Y-69916228D01*
X125310401Y-69916228D02*
X125262782Y-69963847D01*
X125262782Y-69963847D02*
X125215163Y-70059085D01*
X125215163Y-70059085D02*
X125215163Y-70201942D01*
X125215163Y-70201942D02*
X125262782Y-70297180D01*
X125262782Y-70297180D02*
X125310401Y-70344800D01*
X125310401Y-70344800D02*
X125405639Y-70392419D01*
X125405639Y-70392419D02*
X125786591Y-70392419D01*
X125786591Y-70392419D02*
X125786591Y-69392419D01*
X125786591Y-69392419D02*
X125453258Y-69392419D01*
X125453258Y-69392419D02*
X125358020Y-69440038D01*
X125358020Y-69440038D02*
X125310401Y-69487657D01*
X125310401Y-69487657D02*
X125262782Y-69582895D01*
X125262782Y-69582895D02*
X125262782Y-69678133D01*
X125262782Y-69678133D02*
X125310401Y-69773371D01*
X125310401Y-69773371D02*
X125358020Y-69820990D01*
X125358020Y-69820990D02*
X125453258Y-69868609D01*
X125453258Y-69868609D02*
X125786591Y-69868609D01*
X125024687Y-70487657D02*
X124262782Y-70487657D01*
X124024686Y-69868609D02*
X123691353Y-69868609D01*
X123548496Y-70392419D02*
X124024686Y-70392419D01*
X124024686Y-70392419D02*
X124024686Y-69392419D01*
X124024686Y-69392419D02*
X123548496Y-69392419D01*
X120017544Y-58952419D02*
X120208020Y-58952419D01*
X120208020Y-58952419D02*
X120303258Y-59000038D01*
X120303258Y-59000038D02*
X120350877Y-59047657D01*
X120350877Y-59047657D02*
X120446115Y-59190514D01*
X120446115Y-59190514D02*
X120493734Y-59380990D01*
X120493734Y-59380990D02*
X120493734Y-59761942D01*
X120493734Y-59761942D02*
X120446115Y-59857180D01*
X120446115Y-59857180D02*
X120398496Y-59904800D01*
X120398496Y-59904800D02*
X120303258Y-59952419D01*
X120303258Y-59952419D02*
X120112782Y-59952419D01*
X120112782Y-59952419D02*
X120017544Y-59904800D01*
X120017544Y-59904800D02*
X119969925Y-59857180D01*
X119969925Y-59857180D02*
X119922306Y-59761942D01*
X119922306Y-59761942D02*
X119922306Y-59523847D01*
X119922306Y-59523847D02*
X119969925Y-59428609D01*
X119969925Y-59428609D02*
X120017544Y-59380990D01*
X120017544Y-59380990D02*
X120112782Y-59333371D01*
X120112782Y-59333371D02*
X120303258Y-59333371D01*
X120303258Y-59333371D02*
X120398496Y-59380990D01*
X120398496Y-59380990D02*
X120446115Y-59428609D01*
X120446115Y-59428609D02*
X120493734Y-59523847D01*
X104025639Y-80972419D02*
X103835163Y-80972419D01*
X103835163Y-80972419D02*
X103739925Y-81020038D01*
X103739925Y-81020038D02*
X103644687Y-81115276D01*
X103644687Y-81115276D02*
X103597068Y-81305752D01*
X103597068Y-81305752D02*
X103597068Y-81639085D01*
X103597068Y-81639085D02*
X103644687Y-81829561D01*
X103644687Y-81829561D02*
X103739925Y-81924800D01*
X103739925Y-81924800D02*
X103835163Y-81972419D01*
X103835163Y-81972419D02*
X104025639Y-81972419D01*
X104025639Y-81972419D02*
X104120877Y-81924800D01*
X104120877Y-81924800D02*
X104216115Y-81829561D01*
X104216115Y-81829561D02*
X104263734Y-81639085D01*
X104263734Y-81639085D02*
X104263734Y-81305752D01*
X104263734Y-81305752D02*
X104216115Y-81115276D01*
X104216115Y-81115276D02*
X104120877Y-81020038D01*
X104120877Y-81020038D02*
X104025639Y-80972419D01*
X103168496Y-80972419D02*
X103168496Y-81781942D01*
X103168496Y-81781942D02*
X103120877Y-81877180D01*
X103120877Y-81877180D02*
X103073258Y-81924800D01*
X103073258Y-81924800D02*
X102978020Y-81972419D01*
X102978020Y-81972419D02*
X102787544Y-81972419D01*
X102787544Y-81972419D02*
X102692306Y-81924800D01*
X102692306Y-81924800D02*
X102644687Y-81877180D01*
X102644687Y-81877180D02*
X102597068Y-81781942D01*
X102597068Y-81781942D02*
X102597068Y-80972419D01*
X102263734Y-80972419D02*
X101692306Y-80972419D01*
X101978020Y-81972419D02*
X101978020Y-80972419D01*
X102772306Y-84002419D02*
X103343734Y-84002419D01*
X103058020Y-84002419D02*
X103058020Y-83002419D01*
X103058020Y-83002419D02*
X103153258Y-83145276D01*
X103153258Y-83145276D02*
X103248496Y-83240514D01*
X103248496Y-83240514D02*
X103343734Y-83288133D01*
X147582782Y-69868609D02*
X147439925Y-69916228D01*
X147439925Y-69916228D02*
X147392306Y-69963847D01*
X147392306Y-69963847D02*
X147344687Y-70059085D01*
X147344687Y-70059085D02*
X147344687Y-70201942D01*
X147344687Y-70201942D02*
X147392306Y-70297180D01*
X147392306Y-70297180D02*
X147439925Y-70344800D01*
X147439925Y-70344800D02*
X147535163Y-70392419D01*
X147535163Y-70392419D02*
X147916115Y-70392419D01*
X147916115Y-70392419D02*
X147916115Y-69392419D01*
X147916115Y-69392419D02*
X147582782Y-69392419D01*
X147582782Y-69392419D02*
X147487544Y-69440038D01*
X147487544Y-69440038D02*
X147439925Y-69487657D01*
X147439925Y-69487657D02*
X147392306Y-69582895D01*
X147392306Y-69582895D02*
X147392306Y-69678133D01*
X147392306Y-69678133D02*
X147439925Y-69773371D01*
X147439925Y-69773371D02*
X147487544Y-69820990D01*
X147487544Y-69820990D02*
X147582782Y-69868609D01*
X147582782Y-69868609D02*
X147916115Y-69868609D01*
X146725639Y-69392419D02*
X146535163Y-69392419D01*
X146535163Y-69392419D02*
X146439925Y-69440038D01*
X146439925Y-69440038D02*
X146344687Y-69535276D01*
X146344687Y-69535276D02*
X146297068Y-69725752D01*
X146297068Y-69725752D02*
X146297068Y-70059085D01*
X146297068Y-70059085D02*
X146344687Y-70249561D01*
X146344687Y-70249561D02*
X146439925Y-70344800D01*
X146439925Y-70344800D02*
X146535163Y-70392419D01*
X146535163Y-70392419D02*
X146725639Y-70392419D01*
X146725639Y-70392419D02*
X146820877Y-70344800D01*
X146820877Y-70344800D02*
X146916115Y-70249561D01*
X146916115Y-70249561D02*
X146963734Y-70059085D01*
X146963734Y-70059085D02*
X146963734Y-69725752D01*
X146963734Y-69725752D02*
X146916115Y-69535276D01*
X146916115Y-69535276D02*
X146820877Y-69440038D01*
X146820877Y-69440038D02*
X146725639Y-69392419D01*
X146011353Y-69392419D02*
X145439925Y-69392419D01*
X145725639Y-70392419D02*
X145725639Y-69392419D01*
X145154210Y-70344800D02*
X145011353Y-70392419D01*
X145011353Y-70392419D02*
X144773258Y-70392419D01*
X144773258Y-70392419D02*
X144678020Y-70344800D01*
X144678020Y-70344800D02*
X144630401Y-70297180D01*
X144630401Y-70297180D02*
X144582782Y-70201942D01*
X144582782Y-70201942D02*
X144582782Y-70106704D01*
X144582782Y-70106704D02*
X144630401Y-70011466D01*
X144630401Y-70011466D02*
X144678020Y-69963847D01*
X144678020Y-69963847D02*
X144773258Y-69916228D01*
X144773258Y-69916228D02*
X144963734Y-69868609D01*
X144963734Y-69868609D02*
X145058972Y-69820990D01*
X145058972Y-69820990D02*
X145106591Y-69773371D01*
X145106591Y-69773371D02*
X145154210Y-69678133D01*
X145154210Y-69678133D02*
X145154210Y-69582895D01*
X145154210Y-69582895D02*
X145106591Y-69487657D01*
X145106591Y-69487657D02*
X145058972Y-69440038D01*
X145058972Y-69440038D02*
X144963734Y-69392419D01*
X144963734Y-69392419D02*
X144725639Y-69392419D01*
X144725639Y-69392419D02*
X144582782Y-69440038D01*
X144392306Y-70487657D02*
X143630401Y-70487657D01*
X143392305Y-69868609D02*
X143058972Y-69868609D01*
X142916115Y-70392419D02*
X143392305Y-70392419D01*
X143392305Y-70392419D02*
X143392305Y-69392419D01*
X143392305Y-69392419D02*
X142916115Y-69392419D01*
X110216115Y-82002419D02*
X110216115Y-81002419D01*
X109739925Y-82002419D02*
X109739925Y-81002419D01*
X109739925Y-81002419D02*
X109168497Y-82002419D01*
X109168497Y-82002419D02*
X109168497Y-81002419D01*
X134582306Y-73032419D02*
X135153734Y-73032419D01*
X134868020Y-73032419D02*
X134868020Y-72032419D01*
X134868020Y-72032419D02*
X134963258Y-72175276D01*
X134963258Y-72175276D02*
X135058496Y-72270514D01*
X135058496Y-72270514D02*
X135153734Y-72318133D01*
X133963258Y-72032419D02*
X133868020Y-72032419D01*
X133868020Y-72032419D02*
X133772782Y-72080038D01*
X133772782Y-72080038D02*
X133725163Y-72127657D01*
X133725163Y-72127657D02*
X133677544Y-72222895D01*
X133677544Y-72222895D02*
X133629925Y-72413371D01*
X133629925Y-72413371D02*
X133629925Y-72651466D01*
X133629925Y-72651466D02*
X133677544Y-72841942D01*
X133677544Y-72841942D02*
X133725163Y-72937180D01*
X133725163Y-72937180D02*
X133772782Y-72984800D01*
X133772782Y-72984800D02*
X133868020Y-73032419D01*
X133868020Y-73032419D02*
X133963258Y-73032419D01*
X133963258Y-73032419D02*
X134058496Y-72984800D01*
X134058496Y-72984800D02*
X134106115Y-72937180D01*
X134106115Y-72937180D02*
X134153734Y-72841942D01*
X134153734Y-72841942D02*
X134201353Y-72651466D01*
X134201353Y-72651466D02*
X134201353Y-72413371D01*
X134201353Y-72413371D02*
X134153734Y-72222895D01*
X134153734Y-72222895D02*
X134106115Y-72127657D01*
X134106115Y-72127657D02*
X134058496Y-72080038D01*
X134058496Y-72080038D02*
X133963258Y-72032419D01*
D11*
%TO.C,J1*%
X103447200Y-72500000D02*
G75*
G02*
X102685200Y-72500000I-381000J0D01*
G01*
X102685200Y-72500000D02*
G75*
G02*
X103447200Y-72500000I381000J0D01*
G01*
%TD*%
M02*
