%TF.GenerationSoftware,KiCad,Pcbnew,9.0.4*%
%TF.CreationDate,2025-10-28T17:38:43-05:00*%
%TF.ProjectId,TEST,54455354-2e6b-4696-9361-645f70636258,rev?*%
%TF.SameCoordinates,Original*%
%TF.FileFunction,Copper,L1,Top*%
%TF.FilePolarity,Positive*%
%FSLAX46Y46*%
G04 Gerber Fmt 4.6, Leading zero omitted, Abs format (unit mm)*
G04 Created by KiCad (PCBNEW 9.0.4) date 2025-10-28 17:38:43*
%MOMM*%
%LPD*%
G01*
G04 APERTURE LIST*
G04 Aperture macros list*
%AMRoundRect*
0 Rectangle with rounded corners*
0 $1 Rounding radius*
0 $2 $3 $4 $5 $6 $7 $8 $9 X,Y pos of 4 corners*
0 Add a 4 corners polygon primitive as box body*
4,1,4,$2,$3,$4,$5,$6,$7,$8,$9,$2,$3,0*
0 Add four circle primitives for the rounded corners*
1,1,$1+$1,$2,$3*
1,1,$1+$1,$4,$5*
1,1,$1+$1,$6,$7*
1,1,$1+$1,$8,$9*
0 Add four rect primitives between the rounded corners*
20,1,$1+$1,$2,$3,$4,$5,0*
20,1,$1+$1,$4,$5,$6,$7,0*
20,1,$1+$1,$6,$7,$8,$9,0*
20,1,$1+$1,$8,$9,$2,$3,0*%
G04 Aperture macros list end*
%TA.AperFunction,ComponentPad*%
%ADD10C,2.340000*%
%TD*%
%TA.AperFunction,SMDPad,CuDef*%
%ADD11RoundRect,0.150000X-0.150000X0.587500X-0.150000X-0.587500X0.150000X-0.587500X0.150000X0.587500X0*%
%TD*%
%TA.AperFunction,SMDPad,CuDef*%
%ADD12RoundRect,0.168750X0.393750X0.593750X-0.393750X0.593750X-0.393750X-0.593750X0.393750X-0.593750X0*%
%TD*%
%TA.AperFunction,SMDPad,CuDef*%
%ADD13RoundRect,0.168750X-0.593750X0.393750X-0.593750X-0.393750X0.593750X-0.393750X0.593750X0.393750X0*%
%TD*%
%TA.AperFunction,SMDPad,CuDef*%
%ADD14RoundRect,0.150000X0.400000X-0.350000X0.400000X0.350000X-0.400000X0.350000X-0.400000X-0.350000X0*%
%TD*%
%TA.AperFunction,ComponentPad*%
%ADD15C,1.574800*%
%TD*%
%TA.AperFunction,ViaPad*%
%ADD16C,0.600000*%
%TD*%
%TA.AperFunction,Conductor*%
%ADD17C,0.300000*%
%TD*%
%TA.AperFunction,Conductor*%
%ADD18C,0.500000*%
%TD*%
G04 APERTURE END LIST*
D10*
%TO.P,J3,1,1*%
%TO.N,/INPUT*%
X134190000Y-79190000D03*
%TO.P,J3,2,2*%
%TO.N,unconnected-(J3-Pad2)*%
X138630000Y-79190000D03*
%TO.P,J3,3,3*%
%TO.N,unconnected-(J3-Pad3)*%
X143070000Y-79190000D03*
%TO.P,J3,4,4*%
%TO.N,unconnected-(J3-Pad4)*%
X147510000Y-79190000D03*
%TO.P,J3,5,5*%
%TO.N,unconnected-(J3-Pad5)*%
X151950000Y-79190000D03*
%TO.P,J3,6,6*%
%TO.N,/OUTPUT*%
X156390000Y-79190000D03*
%TO.P,J3,7,7*%
%TO.N,unconnected-(J3-Pad7)*%
X156390000Y-85540000D03*
%TO.P,J3,8,8*%
%TO.N,unconnected-(J3-Pad8)*%
X151950000Y-85540000D03*
%TO.P,J3,9,9*%
%TO.N,unconnected-(J3-Pad9)*%
X147510000Y-85540000D03*
%TO.P,J3,10,10*%
%TO.N,unconnected-(J3-Pad10)*%
X143070000Y-85540000D03*
%TO.P,J3,11,11*%
%TO.N,unconnected-(J3-Pad11)*%
X138630000Y-85540000D03*
%TO.P,J3,12,12*%
%TO.N,unconnected-(J3-Pad12)*%
X134190000Y-85540000D03*
%TD*%
D11*
%TO.P,Q3,1,G*%
%TO.N,/RIGHT_BUTTON*%
X133958333Y-66626500D03*
%TO.P,Q3,2,S*%
%TO.N,GND*%
X132058333Y-66626500D03*
%TO.P,Q3,3,D*%
%TO.N,Net-(Q3-D)*%
X133008333Y-68501500D03*
%TD*%
%TO.P,Q4,1,G*%
%TO.N,/INERTIA_SWITCH*%
X146806250Y-66626500D03*
%TO.P,Q4,2,S*%
%TO.N,GND*%
X144906250Y-66626500D03*
%TO.P,Q4,3,D*%
%TO.N,Net-(Q4-D)*%
X145856250Y-68501500D03*
%TD*%
%TO.P,Q7,1,G*%
%TO.N,/OUTPUT*%
X185350000Y-66612500D03*
%TO.P,Q7,2,S*%
%TO.N,GND*%
X183450000Y-66612500D03*
%TO.P,Q7,3,D*%
%TO.N,Net-(Q7-D)*%
X184400000Y-68487500D03*
%TD*%
%TO.P,Q6,1,G*%
%TO.N,/BOTS*%
X172502083Y-66612500D03*
%TO.P,Q6,2,S*%
%TO.N,GND*%
X170602083Y-66612500D03*
%TO.P,Q6,3,D*%
%TO.N,Net-(Q6-D)*%
X171552083Y-68487500D03*
%TD*%
D12*
%TO.P,R1,1*%
%TO.N,/INPUT*%
X108437500Y-71400000D03*
%TO.P,R1,2*%
%TO.N,GND*%
X106362500Y-71400000D03*
%TD*%
D13*
%TO.P,R10,1*%
%TO.N,Net-(D5-K)*%
X153800000Y-66526500D03*
%TO.P,R10,2*%
%TO.N,Net-(Q5-D)*%
X153800000Y-68601500D03*
%TD*%
D14*
%TO.P,D1,1,K*%
%TO.N,Net-(D1-K)*%
X102925000Y-62914000D03*
%TO.P,D1,2,A*%
%TO.N,+12V*%
X102925000Y-61314000D03*
%TD*%
D13*
%TO.P,R2,1*%
%TO.N,Net-(D1-K)*%
X102800000Y-66526500D03*
%TO.P,R2,2*%
%TO.N,Net-(Q1-D)*%
X102800000Y-68601500D03*
%TD*%
D12*
%TO.P,R5,1*%
%TO.N,/RIGHT_BUTTON*%
X134104167Y-71400000D03*
%TO.P,R5,2*%
%TO.N,GND*%
X132029167Y-71400000D03*
%TD*%
D15*
%TO.P,J2,1,1*%
%TO.N,GND*%
X186399997Y-82700000D03*
%TO.P,J2,2,2*%
X183399998Y-82700000D03*
%TO.P,J2,3,3*%
%TO.N,/BOTS*%
X180399999Y-82700000D03*
%TO.P,J2,4,4*%
%TO.N,/COCKPIT_BUTTON*%
X177400000Y-82700000D03*
%TO.P,J2,5,5*%
%TO.N,+12V*%
X186399997Y-79700001D03*
%TO.P,J2,6,6*%
%TO.N,unconnected-(J2-Pad6)*%
X183399998Y-79700001D03*
%TO.P,J2,7,7*%
%TO.N,/BOTS*%
X180399999Y-79700001D03*
%TO.P,J2,8,8*%
%TO.N,/COCKPIT_BUTTON*%
X177400000Y-79700001D03*
%TD*%
D13*
%TO.P,R8,1*%
%TO.N,Net-(D4-K)*%
X141050000Y-66526500D03*
%TO.P,R8,2*%
%TO.N,Net-(Q4-D)*%
X141050000Y-68601500D03*
%TD*%
D14*
%TO.P,D5,1,K*%
%TO.N,Net-(D5-K)*%
X153841667Y-62914000D03*
%TO.P,D5,2,A*%
%TO.N,+12V*%
X153841667Y-61314000D03*
%TD*%
%TO.P,D7,1,K*%
%TO.N,Net-(D7-K)*%
X179300000Y-62900000D03*
%TO.P,D7,2,A*%
%TO.N,+12V*%
X179300000Y-61300000D03*
%TD*%
%TO.P,D4,1,K*%
%TO.N,Net-(D4-K)*%
X141112500Y-62914000D03*
%TO.P,D4,2,A*%
%TO.N,+12V*%
X141112500Y-61314000D03*
%TD*%
D15*
%TO.P,J1,1,1*%
%TO.N,/INERTIA_SWITCH*%
X112600000Y-83050000D03*
%TO.P,J1,2,2*%
%TO.N,/RIGHT_BUTTON*%
X109600001Y-83050000D03*
%TO.P,J1,3,3*%
%TO.N,/LEFT_BUTTON*%
X106600002Y-83050000D03*
%TO.P,J1,4,4*%
%TO.N,GND*%
X103600003Y-83050000D03*
%TO.P,J1,5,5*%
%TO.N,/INERTIA_SWITCH*%
X112600000Y-80050001D03*
%TO.P,J1,6,6*%
%TO.N,/RIGHT_BUTTON*%
X109600001Y-80050001D03*
%TO.P,J1,7,7*%
%TO.N,/LEFT_BUTTON*%
X106600002Y-80050001D03*
%TO.P,J1,8,8*%
%TO.N,unconnected-(J1-Pad8)*%
X103600003Y-80050001D03*
%TD*%
D13*
%TO.P,R4,1*%
%TO.N,Net-(D2-K)*%
X115550000Y-66526500D03*
%TO.P,R4,2*%
%TO.N,Net-(Q2-D)*%
X115550000Y-68601500D03*
%TD*%
%TO.P,R6,1*%
%TO.N,Net-(D3-K)*%
X128300000Y-66526500D03*
%TO.P,R6,2*%
%TO.N,Net-(Q3-D)*%
X128300000Y-68601500D03*
%TD*%
D12*
%TO.P,R9,1*%
%TO.N,/COCKPIT_BUTTON*%
X159770833Y-71400000D03*
%TO.P,R9,2*%
%TO.N,GND*%
X157695833Y-71400000D03*
%TD*%
%TO.P,R11,1*%
%TO.N,/BOTS*%
X172604167Y-71386000D03*
%TO.P,R11,2*%
%TO.N,GND*%
X170529167Y-71386000D03*
%TD*%
D14*
%TO.P,D3,1,K*%
%TO.N,Net-(D3-K)*%
X128383333Y-62914000D03*
%TO.P,D3,2,A*%
%TO.N,+12V*%
X128383333Y-61314000D03*
%TD*%
%TO.P,D6,1,K*%
%TO.N,Net-(D6-K)*%
X166570833Y-62914000D03*
%TO.P,D6,2,A*%
%TO.N,+12V*%
X166570833Y-61314000D03*
%TD*%
D11*
%TO.P,Q2,1,G*%
%TO.N,/LEFT_BUTTON*%
X121110417Y-66626500D03*
%TO.P,Q2,2,S*%
%TO.N,GND*%
X119210417Y-66626500D03*
%TO.P,Q2,3,D*%
%TO.N,Net-(Q2-D)*%
X120160417Y-68501500D03*
%TD*%
%TO.P,Q1,1,G*%
%TO.N,/INPUT*%
X108262500Y-66626500D03*
%TO.P,Q1,2,S*%
%TO.N,GND*%
X106362500Y-66626500D03*
%TO.P,Q1,3,D*%
%TO.N,Net-(Q1-D)*%
X107312500Y-68501500D03*
%TD*%
D13*
%TO.P,R12,1*%
%TO.N,Net-(D6-K)*%
X166550000Y-66512500D03*
%TO.P,R12,2*%
%TO.N,Net-(Q6-D)*%
X166550000Y-68587500D03*
%TD*%
D12*
%TO.P,R3,1*%
%TO.N,/LEFT_BUTTON*%
X121270833Y-71400000D03*
%TO.P,R3,2*%
%TO.N,GND*%
X119195833Y-71400000D03*
%TD*%
D14*
%TO.P,D2,1,K*%
%TO.N,Net-(D2-K)*%
X115654167Y-62914000D03*
%TO.P,D2,2,A*%
%TO.N,+12V*%
X115654167Y-61314000D03*
%TD*%
D12*
%TO.P,R7,1*%
%TO.N,/INERTIA_SWITCH*%
X146937500Y-71400000D03*
%TO.P,R7,2*%
%TO.N,GND*%
X144862500Y-71400000D03*
%TD*%
D11*
%TO.P,Q5,1,G*%
%TO.N,/COCKPIT_BUTTON*%
X159654167Y-66626500D03*
%TO.P,Q5,2,S*%
%TO.N,GND*%
X157754167Y-66626500D03*
%TO.P,Q5,3,D*%
%TO.N,Net-(Q5-D)*%
X158704167Y-68501500D03*
%TD*%
D13*
%TO.P,R14,1*%
%TO.N,Net-(D7-K)*%
X179300000Y-66512500D03*
%TO.P,R14,2*%
%TO.N,Net-(Q7-D)*%
X179300000Y-68587500D03*
%TD*%
D12*
%TO.P,R13,1*%
%TO.N,/OUTPUT*%
X185437500Y-71400000D03*
%TO.P,R13,2*%
%TO.N,GND*%
X183362500Y-71400000D03*
%TD*%
D16*
%TO.N,/INPUT*%
X108550000Y-73900000D03*
%TO.N,GND*%
X111150000Y-81600000D03*
X187000000Y-75250000D03*
X107350000Y-62800000D03*
X113450000Y-85700000D03*
X122000000Y-84800000D03*
X110700000Y-73250000D03*
X169400000Y-87250000D03*
X172150000Y-78500000D03*
X113550000Y-93000000D03*
X108150000Y-81550000D03*
X100950000Y-63450000D03*
X147300000Y-69200000D03*
X170600000Y-82250000D03*
X114250000Y-88350000D03*
X110150000Y-65500000D03*
X171450000Y-89350000D03*
X130850000Y-88400000D03*
X159350000Y-73500000D03*
X162012500Y-59450000D03*
X122150000Y-93000000D03*
X187750000Y-86700000D03*
X154350000Y-82250000D03*
X143150000Y-76600000D03*
X119250000Y-78650000D03*
X104900000Y-64600000D03*
X131650000Y-86350000D03*
X149700000Y-76750000D03*
X117500000Y-69850000D03*
X137700000Y-82100000D03*
X164950000Y-64350000D03*
X162900000Y-68200000D03*
X190100000Y-72250000D03*
X117550000Y-66600000D03*
X177350000Y-92950000D03*
X162400000Y-66200000D03*
X175250000Y-66650000D03*
X122900000Y-82500000D03*
X107750000Y-75850000D03*
X174250000Y-73250000D03*
X171800000Y-62850000D03*
X103250000Y-93150000D03*
X129687500Y-59450000D03*
X177100000Y-62900000D03*
X167850000Y-89800000D03*
X145100000Y-76700000D03*
X147300000Y-76650000D03*
X105850000Y-77550000D03*
X181700000Y-66550000D03*
X108137500Y-59450000D03*
X135075000Y-59450000D03*
X130750000Y-83950000D03*
X136200000Y-76750000D03*
X105950000Y-90700000D03*
X190000000Y-69000000D03*
X189300000Y-79850000D03*
X150700000Y-89900000D03*
X135950000Y-73200000D03*
X124200000Y-72100000D03*
X171550000Y-92850000D03*
X175150000Y-82500000D03*
X168400000Y-71700000D03*
X164550000Y-72800000D03*
X135450000Y-88650000D03*
X152250000Y-76650000D03*
X180800000Y-93000000D03*
X176400000Y-73450000D03*
X115700000Y-90450000D03*
X101750000Y-81600000D03*
X138100000Y-71150000D03*
X126550000Y-84800000D03*
X142750000Y-64550000D03*
X189650000Y-64500000D03*
X172787500Y-59450000D03*
X126000000Y-68300000D03*
X172100000Y-87000000D03*
X165900000Y-76650000D03*
X149200000Y-82250000D03*
X154450000Y-76750000D03*
X109050000Y-64150000D03*
X125400000Y-88400000D03*
X118912500Y-59450000D03*
X161000000Y-64800000D03*
X179950000Y-71700000D03*
X151050000Y-70200000D03*
X121250000Y-80450000D03*
X174750000Y-65000000D03*
X133900000Y-62850000D03*
X128400000Y-86200000D03*
X188950000Y-59450000D03*
X117650000Y-84700000D03*
X138100000Y-90750000D03*
X181800000Y-64700000D03*
X149950000Y-92700000D03*
X160750000Y-85450000D03*
X158550000Y-80950000D03*
X103750000Y-75800000D03*
X173000000Y-69150000D03*
X188200000Y-62500000D03*
X140550000Y-82100000D03*
X153900000Y-90200000D03*
X149050000Y-88000000D03*
X119350000Y-82500000D03*
X123050000Y-65500000D03*
X167400000Y-59450000D03*
X189050000Y-88700000D03*
X140850000Y-76750000D03*
X183400000Y-63150000D03*
X112300000Y-69050000D03*
X117650000Y-93000000D03*
X188450000Y-84550000D03*
X176600000Y-90300000D03*
X185450000Y-75650000D03*
X168700000Y-66500000D03*
X148100000Y-73500000D03*
X156625000Y-59450000D03*
X190050000Y-66850000D03*
X175700000Y-68650000D03*
X113450000Y-70150000D03*
X101550000Y-74200000D03*
X168700000Y-80550000D03*
X120850000Y-62800000D03*
X145850000Y-82300000D03*
X168550000Y-76900000D03*
X117700000Y-64650000D03*
X178400000Y-84700000D03*
X113300000Y-67750000D03*
X121700000Y-69100000D03*
X176700000Y-88000000D03*
X105650000Y-74100000D03*
X101300000Y-85800000D03*
X168700000Y-64600000D03*
X110850000Y-90650000D03*
X181300000Y-73650000D03*
X171350000Y-76800000D03*
X113100000Y-71750000D03*
X182050000Y-84800000D03*
X122900000Y-62950000D03*
X100950000Y-61050000D03*
X175600000Y-84650000D03*
X125250000Y-70450000D03*
X164200000Y-85350000D03*
X113525000Y-59450000D03*
X110850000Y-71250000D03*
X173750000Y-92900000D03*
X169400000Y-92900000D03*
X143150000Y-69900000D03*
X143250000Y-66650000D03*
X117100000Y-78500000D03*
X169950000Y-78400000D03*
X176850000Y-85800000D03*
X182050000Y-76850000D03*
X124200000Y-86150000D03*
X172350000Y-83900000D03*
X120000000Y-90600000D03*
X168600000Y-70000000D03*
X151850000Y-73300000D03*
X134700000Y-82100000D03*
X128750000Y-72100000D03*
X170550000Y-85600000D03*
X117900000Y-88200000D03*
X168950000Y-83900000D03*
X157250000Y-82100000D03*
X145850000Y-59450000D03*
X115400000Y-71700000D03*
X101100000Y-90550000D03*
X189150000Y-82500000D03*
X162850000Y-70700000D03*
X135400000Y-93000000D03*
X130450000Y-66550000D03*
X140400000Y-92850000D03*
X185850000Y-69150000D03*
X174850000Y-62950000D03*
X158200000Y-62900000D03*
X152500000Y-88300000D03*
X159250000Y-83500000D03*
X104850000Y-66500000D03*
X140350000Y-88800000D03*
X102750000Y-87950000D03*
X185000000Y-90550000D03*
X149850000Y-71600000D03*
X182200000Y-90500000D03*
X187900000Y-90650000D03*
X121800000Y-73350000D03*
X183100000Y-73550000D03*
X183500000Y-92800000D03*
X156650000Y-76350000D03*
X155950000Y-64600000D03*
X101750000Y-77750000D03*
X154250000Y-92800000D03*
X122350000Y-88250000D03*
X172400000Y-91000000D03*
X140462500Y-59450000D03*
X189350000Y-92800000D03*
X181850000Y-88700000D03*
X154050000Y-73500000D03*
X126450000Y-72100000D03*
X186900000Y-88550000D03*
X186400000Y-92800000D03*
X159250000Y-86750000D03*
X143100000Y-82200000D03*
X132450000Y-82150000D03*
X135950000Y-63000000D03*
X186100000Y-85000000D03*
X130200000Y-64650000D03*
X151600000Y-82300000D03*
X152200000Y-91400000D03*
X140400000Y-71900000D03*
X120100000Y-86050000D03*
X164350000Y-62800000D03*
X124300000Y-59450000D03*
X102750000Y-59450000D03*
X162650000Y-64200000D03*
X156300000Y-73550000D03*
X152750000Y-71850000D03*
X186950000Y-72950000D03*
X134850000Y-69200000D03*
X135250000Y-64550000D03*
X179150000Y-90600000D03*
X190100000Y-77600000D03*
X110150000Y-62950000D03*
X178175000Y-59450000D03*
X101100000Y-71650000D03*
X102750000Y-72500000D03*
X167100000Y-82550000D03*
X151237500Y-59450000D03*
X161100000Y-63000000D03*
X189800000Y-61000000D03*
X156100000Y-66600000D03*
X167550000Y-78500000D03*
X186100000Y-77250000D03*
X123250000Y-78900000D03*
X183562500Y-59450000D03*
X177100000Y-77100000D03*
X190100000Y-75350000D03*
X138650000Y-76700000D03*
X138600000Y-69000000D03*
X114300000Y-81450000D03*
X184050000Y-77400000D03*
X187000000Y-66450000D03*
X167250000Y-73200000D03*
X170200000Y-91050000D03*
X178750000Y-77050000D03*
X138100000Y-73000000D03*
X166950000Y-85550000D03*
X186400000Y-61100000D03*
X109050000Y-93050000D03*
X105050000Y-81550000D03*
X175100000Y-79850000D03*
%TO.N,/OUTPUT*%
X183600000Y-75300000D03*
%TD*%
D17*
%TO.N,Net-(D6-K)*%
X166550000Y-66512500D02*
X166550000Y-62934833D01*
D18*
%TO.N,+12V*%
X188500000Y-65900000D02*
X183900000Y-61300000D01*
X183900000Y-61300000D02*
X179300000Y-61300000D01*
X166570833Y-61314000D02*
X153841667Y-61314000D01*
X186399997Y-79700001D02*
X188500000Y-77599998D01*
X166570833Y-61314000D02*
X179286000Y-61314000D01*
X102925000Y-61314000D02*
X115654167Y-61314000D01*
X188500000Y-77599998D02*
X188500000Y-65900000D01*
X128383333Y-61314000D02*
X115654167Y-61314000D01*
X153841667Y-61314000D02*
X141112500Y-61314000D01*
X141112500Y-61314000D02*
X128383333Y-61314000D01*
D17*
%TO.N,Net-(D7-K)*%
X179300000Y-66512500D02*
X179300000Y-62900000D01*
%TO.N,/INPUT*%
X108550000Y-73900000D02*
X108550000Y-71512500D01*
X109026500Y-66626500D02*
X110800000Y-68400000D01*
X108262500Y-66626500D02*
X109026500Y-66626500D01*
X110800000Y-69037500D02*
X108437500Y-71400000D01*
X110800000Y-68400000D02*
X110800000Y-69037500D01*
%TO.N,Net-(Q1-D)*%
X102800000Y-68601500D02*
X107212500Y-68601500D01*
%TO.N,Net-(Q2-D)*%
X120160417Y-68501500D02*
X115650000Y-68501500D01*
%TO.N,/LEFT_BUTTON*%
X106600002Y-80050001D02*
X113250003Y-73400000D01*
X106600002Y-80050001D02*
X106600002Y-83050000D01*
X119600000Y-73400000D02*
X121270833Y-71729167D01*
X123950000Y-68720833D02*
X121270833Y-71400000D01*
X122026500Y-66626500D02*
X123950000Y-68550000D01*
X123950000Y-68550000D02*
X123950000Y-68720833D01*
X121110417Y-66626500D02*
X122026500Y-66626500D01*
X113250003Y-73400000D02*
X119600000Y-73400000D01*
%TO.N,Net-(Q3-D)*%
X128300000Y-68601500D02*
X132908333Y-68601500D01*
%TO.N,/RIGHT_BUTTON*%
X134976500Y-66626500D02*
X136600000Y-68250000D01*
X109600001Y-80050001D02*
X114500002Y-75150000D01*
X132550000Y-73600000D02*
X134104167Y-72045833D01*
X135550000Y-71400000D02*
X134104167Y-71400000D01*
X114500002Y-75150000D02*
X122450000Y-75150000D01*
X122450000Y-75150000D02*
X124000000Y-73600000D01*
X136600000Y-70350000D02*
X135550000Y-71400000D01*
X134104167Y-72045833D02*
X134104167Y-71400000D01*
X136600000Y-68250000D02*
X136600000Y-70350000D01*
X133958333Y-66626500D02*
X134976500Y-66626500D01*
X109600001Y-80050001D02*
X109600001Y-83050000D01*
X124000000Y-73600000D02*
X132550000Y-73600000D01*
%TO.N,/INERTIA_SWITCH*%
X140000000Y-73550000D02*
X146000000Y-73550000D01*
X148850000Y-69487500D02*
X146937500Y-71400000D01*
X115750001Y-76900000D02*
X124100000Y-76900000D01*
X146806250Y-66626500D02*
X148850000Y-68670250D01*
X112600000Y-80050001D02*
X112600000Y-83050000D01*
X146000000Y-73550000D02*
X146937500Y-72612500D01*
X124100000Y-76900000D02*
X125750000Y-75250000D01*
X146937500Y-72612500D02*
X146937500Y-71400000D01*
X112600000Y-80050001D02*
X115750001Y-76900000D01*
X125750000Y-75250000D02*
X138300000Y-75250000D01*
X148850000Y-68670250D02*
X148850000Y-69487500D01*
X138300000Y-75250000D02*
X140000000Y-73550000D01*
%TO.N,Net-(Q4-D)*%
X141050000Y-68601500D02*
X145756250Y-68601500D01*
%TO.N,Net-(Q5-D)*%
X153800000Y-68601500D02*
X158604167Y-68601500D01*
%TO.N,/COCKPIT_BUTTON*%
X161250000Y-69920833D02*
X161250000Y-68222333D01*
X163570833Y-75200000D02*
X159770833Y-71400000D01*
X161250000Y-68222333D02*
X159654167Y-66626500D01*
X159770833Y-71400000D02*
X161250000Y-69920833D01*
X177400000Y-79700001D02*
X177400000Y-82700000D01*
X172899999Y-75200000D02*
X163570833Y-75200000D01*
X177400000Y-79700001D02*
X172899999Y-75200000D01*
%TO.N,/BOTS*%
X180399999Y-75199999D02*
X176586000Y-71386000D01*
X174350000Y-70000000D02*
X174350000Y-67650000D01*
X180399999Y-79700001D02*
X180399999Y-82700000D01*
X172964000Y-71386000D02*
X174350000Y-70000000D01*
X176586000Y-71386000D02*
X172604167Y-71386000D01*
X174350000Y-67650000D02*
X173312500Y-66612500D01*
X180399999Y-79700001D02*
X180399999Y-75199999D01*
X173312500Y-66612500D02*
X172502083Y-66612500D01*
%TO.N,Net-(Q6-D)*%
X171552083Y-68487500D02*
X166650000Y-68487500D01*
%TO.N,Net-(Q7-D)*%
X184400000Y-68487500D02*
X179400000Y-68487500D01*
%TO.N,/OUTPUT*%
X185437500Y-71400000D02*
X187100000Y-69737500D01*
X185437500Y-73412500D02*
X185437500Y-71400000D01*
X183600000Y-75300000D02*
X183600000Y-75250000D01*
X183600000Y-75250000D02*
X185437500Y-73412500D01*
X187100000Y-68362500D02*
X185350000Y-66612500D01*
X187100000Y-69737500D02*
X187100000Y-68362500D01*
%TO.N,Net-(D1-K)*%
X102800000Y-66526500D02*
X102800000Y-63039000D01*
%TO.N,Net-(D2-K)*%
X115550000Y-66526500D02*
X115550000Y-63018167D01*
%TO.N,Net-(D3-K)*%
X128300000Y-66526500D02*
X128300000Y-62997333D01*
%TO.N,Net-(D4-K)*%
X141050000Y-66526500D02*
X141050000Y-62976500D01*
%TO.N,Net-(D5-K)*%
X153800000Y-66526500D02*
X153800000Y-62955667D01*
%TD*%
%TA.AperFunction,Conductor*%
%TO.N,GND*%
G36*
X127372637Y-62084185D02*
G01*
X127418392Y-62136989D01*
X127428336Y-62206147D01*
X127412331Y-62251620D01*
X127381587Y-62303605D01*
X127381587Y-62303606D01*
X127335735Y-62461426D01*
X127335734Y-62461432D01*
X127332833Y-62498298D01*
X127332833Y-63329701D01*
X127335734Y-63366567D01*
X127335735Y-63366573D01*
X127381587Y-63524393D01*
X127381588Y-63524396D01*
X127465250Y-63665862D01*
X127465256Y-63665870D01*
X127581460Y-63782074D01*
X127581465Y-63782078D01*
X127581468Y-63782081D01*
X127588618Y-63786309D01*
X127636302Y-63837374D01*
X127649500Y-63893042D01*
X127649500Y-65358203D01*
X127629815Y-65425242D01*
X127577011Y-65470997D01*
X127562391Y-65476588D01*
X127429564Y-65517978D01*
X127429562Y-65517979D01*
X127290485Y-65602053D01*
X127290480Y-65602057D01*
X127175557Y-65716980D01*
X127175553Y-65716985D01*
X127091479Y-65856062D01*
X127091477Y-65856066D01*
X127043128Y-66011226D01*
X127037000Y-66078665D01*
X127037000Y-66974344D01*
X127043126Y-67041767D01*
X127043128Y-67041775D01*
X127091478Y-67196935D01*
X127091479Y-67196937D01*
X127175553Y-67336014D01*
X127175557Y-67336019D01*
X127290480Y-67450942D01*
X127290482Y-67450943D01*
X127301961Y-67457883D01*
X127349149Y-67509411D01*
X127360987Y-67578271D01*
X127333718Y-67642599D01*
X127301961Y-67670117D01*
X127290482Y-67677056D01*
X127290480Y-67677057D01*
X127175557Y-67791980D01*
X127175553Y-67791985D01*
X127091479Y-67931062D01*
X127091477Y-67931066D01*
X127043128Y-68086226D01*
X127037000Y-68153665D01*
X127037000Y-69049344D01*
X127043126Y-69116767D01*
X127043128Y-69116775D01*
X127091478Y-69271935D01*
X127091479Y-69271937D01*
X127175553Y-69411014D01*
X127175557Y-69411019D01*
X127290480Y-69525942D01*
X127290485Y-69525946D01*
X127429562Y-69610020D01*
X127429566Y-69610022D01*
X127484450Y-69627124D01*
X127584728Y-69658372D01*
X127652163Y-69664500D01*
X128947836Y-69664499D01*
X128947843Y-69664499D01*
X129015267Y-69658373D01*
X129015270Y-69658372D01*
X129015272Y-69658372D01*
X129170436Y-69610021D01*
X129267128Y-69551569D01*
X129309514Y-69525946D01*
X129309515Y-69525944D01*
X129309520Y-69525942D01*
X129424442Y-69411020D01*
X129461695Y-69349396D01*
X129484393Y-69311850D01*
X129535921Y-69264662D01*
X129590510Y-69252000D01*
X132135190Y-69252000D01*
X132202229Y-69271685D01*
X132247984Y-69324489D01*
X132254266Y-69341404D01*
X132256587Y-69349394D01*
X132256588Y-69349396D01*
X132340250Y-69490862D01*
X132340256Y-69490870D01*
X132456462Y-69607076D01*
X132456466Y-69607079D01*
X132456468Y-69607081D01*
X132597935Y-69690744D01*
X132639557Y-69702836D01*
X132755759Y-69736597D01*
X132755762Y-69736597D01*
X132755764Y-69736598D01*
X132792639Y-69739500D01*
X132792647Y-69739500D01*
X133224019Y-69739500D01*
X133224027Y-69739500D01*
X133260902Y-69736598D01*
X133260904Y-69736597D01*
X133260906Y-69736597D01*
X133309093Y-69722597D01*
X133418731Y-69690744D01*
X133560198Y-69607081D01*
X133676414Y-69490865D01*
X133760077Y-69349398D01*
X133805931Y-69191569D01*
X133808833Y-69154694D01*
X133808833Y-67988500D01*
X133828518Y-67921461D01*
X133881322Y-67875706D01*
X133932833Y-67864500D01*
X134174019Y-67864500D01*
X134174027Y-67864500D01*
X134210902Y-67861598D01*
X134210904Y-67861597D01*
X134210906Y-67861597D01*
X134259396Y-67847509D01*
X134368731Y-67815744D01*
X134510198Y-67732081D01*
X134626414Y-67615865D01*
X134700938Y-67489851D01*
X134752003Y-67442171D01*
X134820745Y-67429667D01*
X134885334Y-67456312D01*
X134895348Y-67465294D01*
X135913181Y-68483127D01*
X135946666Y-68544450D01*
X135949500Y-68570808D01*
X135949500Y-70029192D01*
X135929815Y-70096231D01*
X135913181Y-70116873D01*
X135349864Y-70680189D01*
X135288541Y-70713674D01*
X135218849Y-70708690D01*
X135162916Y-70666818D01*
X135143798Y-70629398D01*
X135112689Y-70529566D01*
X135112687Y-70529562D01*
X135028613Y-70390485D01*
X135028609Y-70390480D01*
X134913686Y-70275557D01*
X134913681Y-70275553D01*
X134774604Y-70191479D01*
X134774600Y-70191477D01*
X134619439Y-70143128D01*
X134619441Y-70143128D01*
X134592465Y-70140676D01*
X134552004Y-70137000D01*
X134552001Y-70137000D01*
X133656322Y-70137000D01*
X133588899Y-70143126D01*
X133588891Y-70143128D01*
X133433731Y-70191478D01*
X133433729Y-70191479D01*
X133294652Y-70275553D01*
X133294647Y-70275557D01*
X133179724Y-70390480D01*
X133179721Y-70390484D01*
X133172490Y-70402446D01*
X133120961Y-70449632D01*
X133052101Y-70461469D01*
X132987773Y-70434198D01*
X132960258Y-70402443D01*
X132953214Y-70390792D01*
X132953213Y-70390790D01*
X132838376Y-70275953D01*
X132838372Y-70275950D01*
X132699399Y-70191939D01*
X132544344Y-70143622D01*
X132476966Y-70137500D01*
X132279167Y-70137500D01*
X132279167Y-72662500D01*
X132283729Y-72667062D01*
X132289436Y-72668738D01*
X132311525Y-72670318D01*
X132322308Y-72678390D01*
X132335230Y-72682185D01*
X132349729Y-72698918D01*
X132367458Y-72712190D01*
X132372165Y-72724810D01*
X132380985Y-72734989D01*
X132384136Y-72756906D01*
X132391875Y-72777654D01*
X132389012Y-72790814D01*
X132390929Y-72804147D01*
X132381729Y-72824290D01*
X132377023Y-72845927D01*
X132363754Y-72863652D01*
X132361904Y-72867703D01*
X132355872Y-72874181D01*
X132316872Y-72913181D01*
X132255549Y-72946666D01*
X132229191Y-72949500D01*
X123935929Y-72949500D01*
X123815102Y-72973535D01*
X123815097Y-72973536D01*
X123810258Y-72974498D01*
X123810257Y-72974498D01*
X123691874Y-73023534D01*
X123585326Y-73094726D01*
X123585325Y-73094727D01*
X122216873Y-74463181D01*
X122155550Y-74496666D01*
X122129192Y-74499500D01*
X114435931Y-74499500D01*
X114323897Y-74521786D01*
X114323882Y-74521789D01*
X114313639Y-74523826D01*
X114310257Y-74524499D01*
X114191876Y-74573534D01*
X114085328Y-74644726D01*
X109976178Y-78753876D01*
X109914855Y-78787361D01*
X109869099Y-78788668D01*
X109735481Y-78767505D01*
X109701361Y-78762101D01*
X109498641Y-78762101D01*
X109460810Y-78768093D01*
X109298420Y-78793813D01*
X109105613Y-78856460D01*
X109003702Y-78908386D01*
X108935033Y-78921282D01*
X108870293Y-78895005D01*
X108830036Y-78837899D01*
X108827044Y-78768093D01*
X108859725Y-78710222D01*
X113483130Y-74086819D01*
X113544453Y-74053334D01*
X113570811Y-74050500D01*
X119664071Y-74050500D01*
X119748615Y-74033682D01*
X119789744Y-74025501D01*
X119908127Y-73976465D01*
X119926679Y-73964069D01*
X120014669Y-73905277D01*
X121220627Y-72699317D01*
X121281950Y-72665833D01*
X121308308Y-72662999D01*
X121718676Y-72662999D01*
X121786100Y-72656873D01*
X121786103Y-72656872D01*
X121786105Y-72656872D01*
X121941269Y-72608521D01*
X122027170Y-72556592D01*
X122080347Y-72524446D01*
X122080348Y-72524444D01*
X122080353Y-72524442D01*
X122195275Y-72409520D01*
X122195465Y-72409207D01*
X122246653Y-72324530D01*
X122279354Y-72270436D01*
X122327705Y-72115272D01*
X122333833Y-72047837D01*
X122333833Y-72047799D01*
X130966667Y-72047799D01*
X130972789Y-72115177D01*
X131021106Y-72270232D01*
X131105117Y-72409205D01*
X131105120Y-72409209D01*
X131219957Y-72524046D01*
X131219961Y-72524049D01*
X131358934Y-72608060D01*
X131513989Y-72656377D01*
X131581368Y-72662500D01*
X131779167Y-72662500D01*
X131779167Y-71650000D01*
X130966667Y-71650000D01*
X130966667Y-72047799D01*
X122333833Y-72047799D01*
X122333832Y-71308306D01*
X122353517Y-71241268D01*
X122370146Y-71220631D01*
X122838577Y-70752200D01*
X130966667Y-70752200D01*
X130966667Y-71150000D01*
X131779167Y-71150000D01*
X131779167Y-70137500D01*
X131581368Y-70137500D01*
X131513989Y-70143622D01*
X131358934Y-70191939D01*
X131219961Y-70275950D01*
X131219957Y-70275953D01*
X131105120Y-70390790D01*
X131105117Y-70390794D01*
X131021106Y-70529767D01*
X130972789Y-70684822D01*
X130966667Y-70752200D01*
X122838577Y-70752200D01*
X124455276Y-69135503D01*
X124526465Y-69028960D01*
X124575501Y-68910577D01*
X124576555Y-68905277D01*
X124600500Y-68784902D01*
X124600500Y-68485931D01*
X124600500Y-68485928D01*
X124575502Y-68360261D01*
X124575501Y-68360260D01*
X124575501Y-68360256D01*
X124526465Y-68241873D01*
X124455277Y-68135331D01*
X124455275Y-68135329D01*
X124455273Y-68135326D01*
X122441173Y-66121226D01*
X122441169Y-66121223D01*
X122334627Y-66050035D01*
X122216244Y-66000999D01*
X122202380Y-65998241D01*
X122202376Y-65998240D01*
X122197286Y-65997228D01*
X122090569Y-65976000D01*
X122005628Y-65976000D01*
X121998684Y-65975215D01*
X121972658Y-65964267D01*
X121945574Y-65956315D01*
X121940884Y-65950903D01*
X121934280Y-65948125D01*
X121918302Y-65924841D01*
X121899819Y-65903511D01*
X121895283Y-65891298D01*
X121894746Y-65890515D01*
X121894724Y-65889791D01*
X121893537Y-65886595D01*
X121862163Y-65778606D01*
X121862161Y-65778603D01*
X121862161Y-65778602D01*
X121778498Y-65637135D01*
X121778496Y-65637133D01*
X121778493Y-65637129D01*
X121662287Y-65520923D01*
X121662279Y-65520917D01*
X121521821Y-65437851D01*
X121520815Y-65437256D01*
X121520814Y-65437255D01*
X121520813Y-65437255D01*
X121520810Y-65437254D01*
X121362990Y-65391402D01*
X121362984Y-65391401D01*
X121326118Y-65388500D01*
X121326111Y-65388500D01*
X120894723Y-65388500D01*
X120894715Y-65388500D01*
X120857849Y-65391401D01*
X120857843Y-65391402D01*
X120700023Y-65437254D01*
X120700020Y-65437255D01*
X120558554Y-65520917D01*
X120558546Y-65520923D01*
X120442340Y-65637129D01*
X120442334Y-65637137D01*
X120358672Y-65778603D01*
X120358671Y-65778606D01*
X120312819Y-65936426D01*
X120312818Y-65936432D01*
X120309917Y-65973298D01*
X120309917Y-67139500D01*
X120307366Y-67148185D01*
X120308655Y-67157147D01*
X120297676Y-67181187D01*
X120290232Y-67206539D01*
X120283391Y-67212466D01*
X120279630Y-67220703D01*
X120257395Y-67234992D01*
X120237428Y-67252294D01*
X120226913Y-67254581D01*
X120220852Y-67258477D01*
X120185917Y-67263500D01*
X120134417Y-67263500D01*
X120067378Y-67243815D01*
X120021623Y-67191011D01*
X120010417Y-67139500D01*
X120010417Y-66876500D01*
X118410417Y-66876500D01*
X118410417Y-67279649D01*
X118413316Y-67316489D01*
X118413317Y-67316495D01*
X118459133Y-67474193D01*
X118459134Y-67474196D01*
X118542731Y-67615552D01*
X118542738Y-67615561D01*
X118566496Y-67639319D01*
X118599981Y-67700642D01*
X118594997Y-67770334D01*
X118553125Y-67826267D01*
X118487661Y-67850684D01*
X118478815Y-67851000D01*
X116780057Y-67851000D01*
X116713018Y-67831315D01*
X116693675Y-67815962D01*
X116682209Y-67804829D01*
X116674442Y-67791980D01*
X116559520Y-67677058D01*
X116535943Y-67662805D01*
X116525806Y-67652962D01*
X116515287Y-67634354D01*
X116500852Y-67618592D01*
X116498436Y-67604545D01*
X116491423Y-67592138D01*
X116492633Y-67570796D01*
X116489012Y-67549732D01*
X116494573Y-67536610D01*
X116495381Y-67522381D01*
X116507937Y-67505082D01*
X116516279Y-67485403D01*
X116532298Y-67471522D01*
X116536425Y-67465837D01*
X116540850Y-67464111D01*
X116548040Y-67457882D01*
X116559518Y-67450943D01*
X116559517Y-67450943D01*
X116559520Y-67450942D01*
X116674442Y-67336020D01*
X116682906Y-67322020D01*
X116726745Y-67249500D01*
X116758521Y-67196936D01*
X116806872Y-67041772D01*
X116813000Y-66974337D01*
X116812999Y-66078664D01*
X116812999Y-66078663D01*
X116812999Y-66078655D01*
X116806873Y-66011232D01*
X116806872Y-66011226D01*
X116805808Y-66007812D01*
X116805807Y-66007810D01*
X116795069Y-65973350D01*
X118410417Y-65973350D01*
X118410417Y-66376500D01*
X118960417Y-66376500D01*
X119460417Y-66376500D01*
X120010417Y-66376500D01*
X120010417Y-65973365D01*
X120010416Y-65973350D01*
X120007517Y-65936510D01*
X120007516Y-65936504D01*
X119961700Y-65778806D01*
X119961699Y-65778803D01*
X119878102Y-65637447D01*
X119878095Y-65637438D01*
X119761978Y-65521321D01*
X119761969Y-65521314D01*
X119620613Y-65437717D01*
X119620610Y-65437716D01*
X119462911Y-65391900D01*
X119462914Y-65391900D01*
X119460417Y-65391703D01*
X119460417Y-66376500D01*
X118960417Y-66376500D01*
X118960417Y-65391703D01*
X118957920Y-65391900D01*
X118800223Y-65437716D01*
X118800220Y-65437717D01*
X118658864Y-65521314D01*
X118658855Y-65521321D01*
X118542738Y-65637438D01*
X118542731Y-65637447D01*
X118459134Y-65778803D01*
X118459133Y-65778806D01*
X118413317Y-65936504D01*
X118413316Y-65936510D01*
X118410417Y-65973350D01*
X116795069Y-65973350D01*
X116758521Y-65856064D01*
X116758520Y-65856062D01*
X116674446Y-65716985D01*
X116674442Y-65716980D01*
X116559519Y-65602057D01*
X116559514Y-65602053D01*
X116420437Y-65517979D01*
X116420435Y-65517978D01*
X116287609Y-65476588D01*
X116229462Y-65437851D01*
X116201488Y-65373825D01*
X116200500Y-65358203D01*
X116200500Y-63991984D01*
X116220185Y-63924945D01*
X116272989Y-63879190D01*
X116289906Y-63872908D01*
X116314565Y-63865744D01*
X116456032Y-63782081D01*
X116572248Y-63665865D01*
X116655911Y-63524398D01*
X116701765Y-63366569D01*
X116704667Y-63329694D01*
X116704667Y-62498306D01*
X116701765Y-62461431D01*
X116697696Y-62447426D01*
X116655912Y-62303606D01*
X116655912Y-62303605D01*
X116655911Y-62303603D01*
X116655911Y-62303602D01*
X116625168Y-62251619D01*
X116607987Y-62183896D01*
X116630148Y-62117634D01*
X116684614Y-62073871D01*
X116731902Y-62064500D01*
X127305598Y-62064500D01*
X127372637Y-62084185D01*
G37*
%TD.AperFunction*%
%TA.AperFunction,Conductor*%
G36*
X140041222Y-62066396D02*
G01*
X140047843Y-62065192D01*
X140074321Y-62076115D01*
X140101804Y-62084185D01*
X140106210Y-62089270D01*
X140112432Y-62091837D01*
X140128803Y-62115343D01*
X140147559Y-62136989D01*
X140148516Y-62143649D01*
X140152363Y-62149172D01*
X140153426Y-62177795D01*
X140157503Y-62206147D01*
X140154768Y-62213916D01*
X140154957Y-62218993D01*
X140141498Y-62251620D01*
X140110754Y-62303605D01*
X140110754Y-62303606D01*
X140064902Y-62461426D01*
X140064901Y-62461432D01*
X140062000Y-62498298D01*
X140062000Y-63329701D01*
X140064901Y-63366567D01*
X140064902Y-63366573D01*
X140110754Y-63524393D01*
X140110755Y-63524396D01*
X140194417Y-63665862D01*
X140194423Y-63665870D01*
X140310629Y-63782076D01*
X140310632Y-63782078D01*
X140310635Y-63782081D01*
X140338622Y-63798632D01*
X140386303Y-63849698D01*
X140399500Y-63905363D01*
X140399500Y-65358203D01*
X140379815Y-65425242D01*
X140327011Y-65470997D01*
X140312391Y-65476588D01*
X140179564Y-65517978D01*
X140179562Y-65517979D01*
X140040485Y-65602053D01*
X140040480Y-65602057D01*
X139925557Y-65716980D01*
X139925553Y-65716985D01*
X139841479Y-65856062D01*
X139841477Y-65856066D01*
X139793128Y-66011226D01*
X139787000Y-66078665D01*
X139787000Y-66974344D01*
X139793126Y-67041767D01*
X139793128Y-67041775D01*
X139841478Y-67196935D01*
X139841479Y-67196937D01*
X139925553Y-67336014D01*
X139925557Y-67336019D01*
X140040480Y-67450942D01*
X140040482Y-67450943D01*
X140051961Y-67457883D01*
X140099149Y-67509411D01*
X140110987Y-67578271D01*
X140083718Y-67642599D01*
X140051961Y-67670117D01*
X140040482Y-67677056D01*
X140040480Y-67677057D01*
X139925557Y-67791980D01*
X139925553Y-67791985D01*
X139841479Y-67931062D01*
X139841477Y-67931066D01*
X139793128Y-68086226D01*
X139787000Y-68153665D01*
X139787000Y-69049344D01*
X139793126Y-69116767D01*
X139793128Y-69116775D01*
X139841478Y-69271935D01*
X139841479Y-69271937D01*
X139925553Y-69411014D01*
X139925557Y-69411019D01*
X140040480Y-69525942D01*
X140040485Y-69525946D01*
X140179562Y-69610020D01*
X140179566Y-69610022D01*
X140234450Y-69627124D01*
X140334728Y-69658372D01*
X140402163Y-69664500D01*
X141697836Y-69664499D01*
X141697843Y-69664499D01*
X141765267Y-69658373D01*
X141765270Y-69658372D01*
X141765272Y-69658372D01*
X141920436Y-69610021D01*
X142017128Y-69551569D01*
X142059514Y-69525946D01*
X142059515Y-69525944D01*
X142059520Y-69525942D01*
X142174442Y-69411020D01*
X142211695Y-69349396D01*
X142234393Y-69311850D01*
X142285921Y-69264662D01*
X142340510Y-69252000D01*
X144983107Y-69252000D01*
X145050146Y-69271685D01*
X145095901Y-69324489D01*
X145102183Y-69341404D01*
X145104504Y-69349394D01*
X145104505Y-69349396D01*
X145188167Y-69490862D01*
X145188173Y-69490870D01*
X145304379Y-69607076D01*
X145304383Y-69607079D01*
X145304385Y-69607081D01*
X145445852Y-69690744D01*
X145487474Y-69702836D01*
X145603676Y-69736597D01*
X145603679Y-69736597D01*
X145603681Y-69736598D01*
X145640556Y-69739500D01*
X145640564Y-69739500D01*
X146071936Y-69739500D01*
X146071944Y-69739500D01*
X146108819Y-69736598D01*
X146108821Y-69736597D01*
X146108823Y-69736597D01*
X146157010Y-69722597D01*
X146266648Y-69690744D01*
X146408115Y-69607081D01*
X146524331Y-69490865D01*
X146607994Y-69349398D01*
X146653848Y-69191569D01*
X146656750Y-69154694D01*
X146656750Y-67988500D01*
X146676435Y-67921461D01*
X146729239Y-67875706D01*
X146780750Y-67864500D01*
X147021936Y-67864500D01*
X147021944Y-67864500D01*
X147057447Y-67861706D01*
X147059849Y-67861517D01*
X147128226Y-67875882D01*
X147157258Y-67897454D01*
X148163181Y-68903377D01*
X148177884Y-68930304D01*
X148194477Y-68956123D01*
X148195368Y-68962323D01*
X148196666Y-68964700D01*
X148199500Y-68991058D01*
X148199500Y-69166691D01*
X148179815Y-69233730D01*
X148163181Y-69254372D01*
X147316871Y-70100681D01*
X147255548Y-70134166D01*
X147229190Y-70137000D01*
X146489655Y-70137000D01*
X146422232Y-70143126D01*
X146422224Y-70143128D01*
X146267064Y-70191478D01*
X146267062Y-70191479D01*
X146127985Y-70275553D01*
X146127980Y-70275557D01*
X146013057Y-70390480D01*
X146013054Y-70390484D01*
X146005823Y-70402446D01*
X145954294Y-70449632D01*
X145885434Y-70461469D01*
X145821106Y-70434198D01*
X145793591Y-70402443D01*
X145786547Y-70390792D01*
X145786546Y-70390790D01*
X145671709Y-70275953D01*
X145671705Y-70275950D01*
X145532732Y-70191939D01*
X145377677Y-70143622D01*
X145310299Y-70137500D01*
X145112500Y-70137500D01*
X145112500Y-71276000D01*
X145092815Y-71343039D01*
X145040011Y-71388794D01*
X144988500Y-71400000D01*
X144862500Y-71400000D01*
X144862500Y-71526000D01*
X144842815Y-71593039D01*
X144790011Y-71638794D01*
X144738500Y-71650000D01*
X143800000Y-71650000D01*
X143800000Y-72047799D01*
X143806122Y-72115177D01*
X143854439Y-72270232D01*
X143938450Y-72409205D01*
X143938453Y-72409209D01*
X144053290Y-72524046D01*
X144053294Y-72524049D01*
X144192267Y-72608060D01*
X144349687Y-72657114D01*
X144407835Y-72695852D01*
X144435809Y-72759877D01*
X144424728Y-72828863D01*
X144378109Y-72880906D01*
X144312797Y-72899500D01*
X139935929Y-72899500D01*
X139810261Y-72924497D01*
X139810255Y-72924499D01*
X139691874Y-72973534D01*
X139585326Y-73044726D01*
X139585325Y-73044727D01*
X138066873Y-74563181D01*
X138005550Y-74596666D01*
X137979192Y-74599500D01*
X125685929Y-74599500D01*
X125565107Y-74623534D01*
X125565102Y-74623535D01*
X125560258Y-74624498D01*
X125560257Y-74624498D01*
X125441870Y-74673535D01*
X125335331Y-74744722D01*
X125335324Y-74744728D01*
X123866873Y-76213181D01*
X123805550Y-76246666D01*
X123779192Y-76249500D01*
X115685930Y-76249500D01*
X115560262Y-76274497D01*
X115560256Y-76274499D01*
X115441876Y-76323533D01*
X115441867Y-76323538D01*
X115335332Y-76394723D01*
X115335328Y-76394726D01*
X112976177Y-78753876D01*
X112914854Y-78787361D01*
X112869098Y-78788668D01*
X112735480Y-78767505D01*
X112701360Y-78762101D01*
X112498640Y-78762101D01*
X112460809Y-78768093D01*
X112298419Y-78793813D01*
X112105612Y-78856460D01*
X112003701Y-78908386D01*
X111935032Y-78921282D01*
X111870292Y-78895005D01*
X111830035Y-78837899D01*
X111827043Y-78768093D01*
X111859724Y-78710222D01*
X114733129Y-75836819D01*
X114794452Y-75803334D01*
X114820810Y-75800500D01*
X122514071Y-75800500D01*
X122598615Y-75783682D01*
X122639744Y-75775501D01*
X122758127Y-75726465D01*
X122775780Y-75714670D01*
X122775781Y-75714670D01*
X122842295Y-75670226D01*
X122864669Y-75655277D01*
X124233127Y-74286819D01*
X124294450Y-74253334D01*
X124320808Y-74250500D01*
X132614071Y-74250500D01*
X132698615Y-74233682D01*
X132739744Y-74225501D01*
X132858127Y-74176465D01*
X132859570Y-74175501D01*
X132964669Y-74105277D01*
X134370627Y-72699317D01*
X134431950Y-72665833D01*
X134458308Y-72662999D01*
X134552010Y-72662999D01*
X134619434Y-72656873D01*
X134619437Y-72656872D01*
X134619439Y-72656872D01*
X134774603Y-72608521D01*
X134860504Y-72556592D01*
X134913681Y-72524446D01*
X134913682Y-72524444D01*
X134913687Y-72524442D01*
X135028609Y-72409520D01*
X135028799Y-72409207D01*
X135058727Y-72359698D01*
X135112688Y-72270436D01*
X135154079Y-72137606D01*
X135192815Y-72079462D01*
X135256840Y-72051488D01*
X135272463Y-72050500D01*
X135614071Y-72050500D01*
X135698615Y-72033682D01*
X135739744Y-72025501D01*
X135858127Y-71976465D01*
X135879774Y-71962001D01*
X135964669Y-71905277D01*
X137105276Y-70764670D01*
X137113608Y-70752200D01*
X143800000Y-70752200D01*
X143800000Y-71150000D01*
X144612500Y-71150000D01*
X144612500Y-70137500D01*
X144414701Y-70137500D01*
X144347322Y-70143622D01*
X144192267Y-70191939D01*
X144053294Y-70275950D01*
X144053290Y-70275953D01*
X143938453Y-70390790D01*
X143938450Y-70390794D01*
X143854439Y-70529767D01*
X143806122Y-70684822D01*
X143800000Y-70752200D01*
X137113608Y-70752200D01*
X137176465Y-70658127D01*
X137225501Y-70539744D01*
X137233944Y-70497298D01*
X137250500Y-70414069D01*
X137250500Y-68185931D01*
X137250500Y-68185928D01*
X137225502Y-68060259D01*
X137225501Y-68060257D01*
X137225501Y-68060256D01*
X137176465Y-67941873D01*
X137159890Y-67917066D01*
X137155861Y-67911036D01*
X137105275Y-67835328D01*
X135391173Y-66121226D01*
X135391169Y-66121223D01*
X135284627Y-66050035D01*
X135166244Y-66000999D01*
X135147286Y-65997228D01*
X135130103Y-65993810D01*
X135040571Y-65976000D01*
X135040569Y-65976000D01*
X134860529Y-65976000D01*
X134793490Y-65956315D01*
X134747735Y-65903511D01*
X134741453Y-65886595D01*
X134710079Y-65778606D01*
X134710077Y-65778603D01*
X134710077Y-65778602D01*
X134626414Y-65637135D01*
X134626412Y-65637133D01*
X134626409Y-65637129D01*
X134510203Y-65520923D01*
X134510195Y-65520917D01*
X134369737Y-65437851D01*
X134368731Y-65437256D01*
X134368730Y-65437255D01*
X134368729Y-65437255D01*
X134368726Y-65437254D01*
X134210906Y-65391402D01*
X134210900Y-65391401D01*
X134174034Y-65388500D01*
X134174027Y-65388500D01*
X133742639Y-65388500D01*
X133742631Y-65388500D01*
X133705765Y-65391401D01*
X133705759Y-65391402D01*
X133547939Y-65437254D01*
X133547936Y-65437255D01*
X133406470Y-65520917D01*
X133406462Y-65520923D01*
X133290256Y-65637129D01*
X133290250Y-65637137D01*
X133206588Y-65778603D01*
X133206587Y-65778606D01*
X133160735Y-65936426D01*
X133160734Y-65936432D01*
X133157833Y-65973298D01*
X133157833Y-67139500D01*
X133155282Y-67148185D01*
X133156571Y-67157147D01*
X133145592Y-67181187D01*
X133138148Y-67206539D01*
X133131307Y-67212466D01*
X133127546Y-67220703D01*
X133105311Y-67234992D01*
X133085344Y-67252294D01*
X133074829Y-67254581D01*
X133068768Y-67258477D01*
X133033833Y-67263500D01*
X132982333Y-67263500D01*
X132915294Y-67243815D01*
X132869539Y-67191011D01*
X132858333Y-67139500D01*
X132858333Y-66876500D01*
X131258333Y-66876500D01*
X131258333Y-67279649D01*
X131261232Y-67316489D01*
X131261233Y-67316495D01*
X131307049Y-67474193D01*
X131307050Y-67474196D01*
X131390647Y-67615552D01*
X131390654Y-67615561D01*
X131512293Y-67737200D01*
X131510526Y-67738966D01*
X131544250Y-67785659D01*
X131548042Y-67855426D01*
X131513513Y-67916168D01*
X131451626Y-67948599D01*
X131427344Y-67951000D01*
X129590510Y-67951000D01*
X129523471Y-67931315D01*
X129484393Y-67891150D01*
X129424443Y-67791981D01*
X129309518Y-67677056D01*
X129298040Y-67670118D01*
X129250852Y-67618592D01*
X129239012Y-67549732D01*
X129266279Y-67485403D01*
X129298040Y-67457882D01*
X129309518Y-67450943D01*
X129309517Y-67450943D01*
X129309520Y-67450942D01*
X129424442Y-67336020D01*
X129432906Y-67322020D01*
X129476745Y-67249500D01*
X129508521Y-67196936D01*
X129556872Y-67041772D01*
X129563000Y-66974337D01*
X129562999Y-66078664D01*
X129562999Y-66078663D01*
X129562999Y-66078655D01*
X129556873Y-66011232D01*
X129556872Y-66011226D01*
X129555808Y-66007812D01*
X129555807Y-66007810D01*
X129545069Y-65973350D01*
X131258333Y-65973350D01*
X131258333Y-66376500D01*
X131808333Y-66376500D01*
X132308333Y-66376500D01*
X132858333Y-66376500D01*
X132858333Y-65973365D01*
X132858332Y-65973350D01*
X132855433Y-65936510D01*
X132855432Y-65936504D01*
X132809616Y-65778806D01*
X132809615Y-65778803D01*
X132726018Y-65637447D01*
X132726011Y-65637438D01*
X132609894Y-65521321D01*
X132609885Y-65521314D01*
X132468529Y-65437717D01*
X132468526Y-65437716D01*
X132310827Y-65391900D01*
X132310830Y-65391900D01*
X132308333Y-65391703D01*
X132308333Y-66376500D01*
X131808333Y-66376500D01*
X131808333Y-65391703D01*
X131805836Y-65391900D01*
X131648139Y-65437716D01*
X131648136Y-65437717D01*
X131506780Y-65521314D01*
X131506771Y-65521321D01*
X131390654Y-65637438D01*
X131390647Y-65637447D01*
X131307050Y-65778803D01*
X131307049Y-65778806D01*
X131261233Y-65936504D01*
X131261232Y-65936510D01*
X131258333Y-65973350D01*
X129545069Y-65973350D01*
X129508521Y-65856064D01*
X129508520Y-65856062D01*
X129424446Y-65716985D01*
X129424442Y-65716980D01*
X129309519Y-65602057D01*
X129309514Y-65602053D01*
X129170437Y-65517979D01*
X129170435Y-65517978D01*
X129037609Y-65476588D01*
X128979462Y-65437851D01*
X128951488Y-65373825D01*
X128950500Y-65358203D01*
X128950500Y-63985931D01*
X128970185Y-63918892D01*
X129022989Y-63873137D01*
X129039902Y-63866856D01*
X129043731Y-63865744D01*
X129185198Y-63782081D01*
X129301414Y-63665865D01*
X129385077Y-63524398D01*
X129430931Y-63366569D01*
X129433833Y-63329694D01*
X129433833Y-62498306D01*
X129430931Y-62461431D01*
X129426862Y-62447426D01*
X129385078Y-62303606D01*
X129385078Y-62303605D01*
X129385077Y-62303603D01*
X129385077Y-62303602D01*
X129354334Y-62251619D01*
X129337153Y-62183896D01*
X129359314Y-62117634D01*
X129413780Y-62073871D01*
X129461068Y-62064500D01*
X140034765Y-62064500D01*
X140041222Y-62066396D01*
G37*
%TD.AperFunction*%
%TA.AperFunction,Conductor*%
G36*
X183604809Y-62070185D02*
G01*
X183625451Y-62086819D01*
X187713181Y-66174548D01*
X187746666Y-66235871D01*
X187749500Y-66262229D01*
X187749500Y-67792691D01*
X187729815Y-67859730D01*
X187677011Y-67905485D01*
X187607853Y-67915429D01*
X187544297Y-67886404D01*
X187537819Y-67880372D01*
X186186819Y-66529372D01*
X186153334Y-66468049D01*
X186150500Y-66441691D01*
X186150500Y-65959313D01*
X186150499Y-65959298D01*
X186150264Y-65956315D01*
X186147598Y-65922431D01*
X186142101Y-65903511D01*
X186105870Y-65778803D01*
X186101744Y-65764602D01*
X186018081Y-65623135D01*
X186018079Y-65623133D01*
X186018076Y-65623129D01*
X185901870Y-65506923D01*
X185901862Y-65506917D01*
X185784850Y-65437717D01*
X185760398Y-65423256D01*
X185760397Y-65423255D01*
X185760396Y-65423255D01*
X185760393Y-65423254D01*
X185602573Y-65377402D01*
X185602567Y-65377401D01*
X185565701Y-65374500D01*
X185565694Y-65374500D01*
X185134306Y-65374500D01*
X185134298Y-65374500D01*
X185097432Y-65377401D01*
X185097426Y-65377402D01*
X184939606Y-65423254D01*
X184939603Y-65423255D01*
X184798137Y-65506917D01*
X184798129Y-65506923D01*
X184681923Y-65623129D01*
X184681917Y-65623137D01*
X184598255Y-65764603D01*
X184598254Y-65764606D01*
X184552402Y-65922426D01*
X184552401Y-65922432D01*
X184549500Y-65959298D01*
X184549500Y-67125500D01*
X184546949Y-67134185D01*
X184548238Y-67143147D01*
X184537259Y-67167187D01*
X184529815Y-67192539D01*
X184522974Y-67198466D01*
X184519213Y-67206703D01*
X184496978Y-67220992D01*
X184477011Y-67238294D01*
X184466496Y-67240581D01*
X184460435Y-67244477D01*
X184425500Y-67249500D01*
X184374000Y-67249500D01*
X184306961Y-67229815D01*
X184261206Y-67177011D01*
X184250000Y-67125500D01*
X184250000Y-66862500D01*
X182650000Y-66862500D01*
X182650000Y-67265649D01*
X182652899Y-67302489D01*
X182652900Y-67302495D01*
X182698716Y-67460193D01*
X182698717Y-67460196D01*
X182782314Y-67601552D01*
X182782321Y-67601561D01*
X182806079Y-67625319D01*
X182839564Y-67686642D01*
X182834580Y-67756334D01*
X182792708Y-67812267D01*
X182727244Y-67836684D01*
X182718398Y-67837000D01*
X180530057Y-67837000D01*
X180463018Y-67817315D01*
X180443675Y-67801962D01*
X180432209Y-67790829D01*
X180424442Y-67777980D01*
X180309520Y-67663058D01*
X180285943Y-67648805D01*
X180275806Y-67638962D01*
X180265287Y-67620354D01*
X180250852Y-67604592D01*
X180248436Y-67590545D01*
X180241423Y-67578138D01*
X180242633Y-67556796D01*
X180239012Y-67535732D01*
X180244573Y-67522610D01*
X180245381Y-67508381D01*
X180257937Y-67491082D01*
X180266279Y-67471403D01*
X180282298Y-67457522D01*
X180286425Y-67451837D01*
X180290850Y-67450111D01*
X180298040Y-67443882D01*
X180309518Y-67436943D01*
X180309517Y-67436943D01*
X180309520Y-67436942D01*
X180424442Y-67322020D01*
X180436246Y-67302495D01*
X180475056Y-67238294D01*
X180508521Y-67182936D01*
X180556872Y-67027772D01*
X180563000Y-66960337D01*
X180562999Y-66064664D01*
X180562999Y-66064663D01*
X180562999Y-66064655D01*
X180556873Y-65997232D01*
X180556872Y-65997226D01*
X180555808Y-65993812D01*
X180555807Y-65993810D01*
X180545069Y-65959350D01*
X182650000Y-65959350D01*
X182650000Y-66362500D01*
X183200000Y-66362500D01*
X183700000Y-66362500D01*
X184250000Y-66362500D01*
X184250000Y-65959365D01*
X184249999Y-65959350D01*
X184247100Y-65922510D01*
X184247099Y-65922504D01*
X184201283Y-65764806D01*
X184201282Y-65764803D01*
X184117685Y-65623447D01*
X184117678Y-65623438D01*
X184001561Y-65507321D01*
X184001552Y-65507314D01*
X183860196Y-65423717D01*
X183860193Y-65423716D01*
X183702494Y-65377900D01*
X183702497Y-65377900D01*
X183700000Y-65377703D01*
X183700000Y-66362500D01*
X183200000Y-66362500D01*
X183200000Y-65377703D01*
X183197503Y-65377900D01*
X183039806Y-65423716D01*
X183039803Y-65423717D01*
X182898447Y-65507314D01*
X182898438Y-65507321D01*
X182782321Y-65623438D01*
X182782314Y-65623447D01*
X182698717Y-65764803D01*
X182698716Y-65764806D01*
X182652900Y-65922504D01*
X182652899Y-65922510D01*
X182650000Y-65959350D01*
X180545069Y-65959350D01*
X180508521Y-65842064D01*
X180508520Y-65842062D01*
X180424446Y-65702985D01*
X180424442Y-65702980D01*
X180309519Y-65588057D01*
X180309514Y-65588053D01*
X180170437Y-65503979D01*
X180170435Y-65503978D01*
X180037609Y-65462588D01*
X179979462Y-65423851D01*
X179951488Y-65359825D01*
X179950500Y-65344203D01*
X179950500Y-63928325D01*
X179970185Y-63861286D01*
X180011376Y-63821595D01*
X180101865Y-63768081D01*
X180218081Y-63651865D01*
X180301744Y-63510398D01*
X180335505Y-63394191D01*
X180347597Y-63352573D01*
X180347598Y-63352567D01*
X180350500Y-63315694D01*
X180350500Y-62484306D01*
X180347598Y-62447431D01*
X180301744Y-62289602D01*
X180271001Y-62237619D01*
X180253820Y-62169896D01*
X180275981Y-62103634D01*
X180330447Y-62059871D01*
X180377735Y-62050500D01*
X183537770Y-62050500D01*
X183604809Y-62070185D01*
G37*
%TD.AperFunction*%
%TA.AperFunction,Conductor*%
G36*
X190846888Y-58619685D02*
G01*
X190892643Y-58672489D01*
X190903846Y-58724665D01*
X190767145Y-84151082D01*
X190713782Y-94076667D01*
X190693738Y-94143599D01*
X190640688Y-94189070D01*
X190589784Y-94200000D01*
X148036114Y-94200000D01*
X147969075Y-94180315D01*
X147923320Y-94127511D01*
X147913376Y-94058353D01*
X147940261Y-93997335D01*
X148012704Y-93909061D01*
X148145228Y-93747581D01*
X148339038Y-93457523D01*
X148503485Y-93149865D01*
X148636984Y-92827570D01*
X148738250Y-92493742D01*
X148738252Y-92493732D01*
X148738255Y-92493721D01*
X148806307Y-92151594D01*
X148840500Y-91804421D01*
X148840500Y-91455578D01*
X148806307Y-91108405D01*
X148738255Y-90766278D01*
X148738252Y-90766267D01*
X148738251Y-90766264D01*
X148738250Y-90766258D01*
X148636984Y-90432430D01*
X148503485Y-90110135D01*
X148339038Y-89802477D01*
X148339027Y-89802460D01*
X148145240Y-89512436D01*
X148145233Y-89512426D01*
X148145228Y-89512419D01*
X147923920Y-89242754D01*
X147923919Y-89242753D01*
X147923915Y-89242748D01*
X147677251Y-88996084D01*
X147407586Y-88774776D01*
X147407563Y-88774759D01*
X147117539Y-88580972D01*
X147117511Y-88580955D01*
X146809872Y-88416518D01*
X146809867Y-88416516D01*
X146487571Y-88283016D01*
X146153732Y-88181747D01*
X146153721Y-88181744D01*
X145811594Y-88113692D01*
X145550120Y-88087940D01*
X145464425Y-88079500D01*
X145115575Y-88079500D01*
X145036394Y-88087298D01*
X144768405Y-88113692D01*
X144426278Y-88181744D01*
X144426267Y-88181747D01*
X144092428Y-88283016D01*
X143770132Y-88416516D01*
X143770127Y-88416518D01*
X143462488Y-88580955D01*
X143462460Y-88580972D01*
X143172436Y-88774759D01*
X143172413Y-88774776D01*
X142902748Y-88996084D01*
X142656084Y-89242748D01*
X142434776Y-89512413D01*
X142434759Y-89512436D01*
X142240972Y-89802460D01*
X142240955Y-89802488D01*
X142076518Y-90110127D01*
X142076516Y-90110132D01*
X141943016Y-90432428D01*
X141841747Y-90766267D01*
X141841744Y-90766278D01*
X141773692Y-91108405D01*
X141739500Y-91455578D01*
X141739500Y-91804421D01*
X141773692Y-92151594D01*
X141841744Y-92493721D01*
X141841747Y-92493732D01*
X141943016Y-92827571D01*
X142076516Y-93149867D01*
X142076518Y-93149872D01*
X142240955Y-93457511D01*
X142240972Y-93457539D01*
X142434759Y-93747563D01*
X142434776Y-93747586D01*
X142639739Y-93997335D01*
X142667052Y-94061645D01*
X142655261Y-94130513D01*
X142608109Y-94182073D01*
X142543886Y-94200000D01*
X100403507Y-94200000D01*
X100336468Y-94180315D01*
X100290713Y-94127511D01*
X100279510Y-94076917D01*
X100277075Y-93747586D01*
X100270274Y-92827571D01*
X100229070Y-87253687D01*
X103975501Y-87253687D01*
X103975501Y-87486316D01*
X103989366Y-87591622D01*
X104005864Y-87716932D01*
X104029870Y-87806523D01*
X104066069Y-87941622D01*
X104155084Y-88156523D01*
X104155089Y-88156534D01*
X104271388Y-88357968D01*
X104271399Y-88357984D01*
X104412997Y-88542519D01*
X104413003Y-88542526D01*
X104577476Y-88706999D01*
X104577482Y-88707004D01*
X104762027Y-88848610D01*
X104762034Y-88848614D01*
X104963468Y-88964913D01*
X104963473Y-88964915D01*
X104963476Y-88964917D01*
X105038720Y-88996084D01*
X105178380Y-89053933D01*
X105178381Y-89053933D01*
X105178383Y-89053934D01*
X105403071Y-89114139D01*
X105633694Y-89144502D01*
X105633701Y-89144502D01*
X105866301Y-89144502D01*
X105866308Y-89144502D01*
X106096931Y-89114139D01*
X106321619Y-89053934D01*
X106536526Y-88964917D01*
X106737975Y-88848610D01*
X106922520Y-88707004D01*
X107087003Y-88542521D01*
X107228609Y-88357976D01*
X107344916Y-88156527D01*
X107433933Y-87941620D01*
X107494138Y-87716932D01*
X107524501Y-87486309D01*
X107524501Y-87253695D01*
X107524500Y-87253687D01*
X108675502Y-87253687D01*
X108675502Y-87486316D01*
X108689367Y-87591622D01*
X108705865Y-87716932D01*
X108729871Y-87806523D01*
X108766070Y-87941622D01*
X108855085Y-88156523D01*
X108855090Y-88156534D01*
X108971389Y-88357968D01*
X108971400Y-88357984D01*
X109112998Y-88542519D01*
X109113004Y-88542526D01*
X109277477Y-88706999D01*
X109277483Y-88707004D01*
X109462028Y-88848610D01*
X109462035Y-88848614D01*
X109663469Y-88964913D01*
X109663474Y-88964915D01*
X109663477Y-88964917D01*
X109738721Y-88996084D01*
X109878381Y-89053933D01*
X109878382Y-89053933D01*
X109878384Y-89053934D01*
X110103072Y-89114139D01*
X110333695Y-89144502D01*
X110333702Y-89144502D01*
X110566302Y-89144502D01*
X110566309Y-89144502D01*
X110796932Y-89114139D01*
X111021620Y-89053934D01*
X111236527Y-88964917D01*
X111437976Y-88848610D01*
X111622521Y-88707004D01*
X111787004Y-88542521D01*
X111928610Y-88357976D01*
X112044917Y-88156527D01*
X112133934Y-87941620D01*
X112194139Y-87716932D01*
X112224502Y-87486309D01*
X112224502Y-87253695D01*
X112194139Y-87023072D01*
X112133934Y-86798384D01*
X112044917Y-86583477D01*
X112044915Y-86583474D01*
X112044913Y-86583469D01*
X111928614Y-86382035D01*
X111928610Y-86382028D01*
X111887835Y-86328889D01*
X111787005Y-86197484D01*
X111786999Y-86197477D01*
X111622526Y-86033004D01*
X111622519Y-86032998D01*
X111437984Y-85891400D01*
X111437982Y-85891398D01*
X111437976Y-85891394D01*
X111437971Y-85891391D01*
X111437968Y-85891389D01*
X111236534Y-85775090D01*
X111236523Y-85775085D01*
X111021622Y-85686070D01*
X110909276Y-85655967D01*
X110796932Y-85625865D01*
X110745682Y-85619117D01*
X110566316Y-85595502D01*
X110566309Y-85595502D01*
X110333695Y-85595502D01*
X110333687Y-85595502D01*
X110128696Y-85622491D01*
X110103072Y-85625865D01*
X110046900Y-85640916D01*
X109878381Y-85686070D01*
X109663480Y-85775085D01*
X109663469Y-85775090D01*
X109462035Y-85891389D01*
X109462019Y-85891400D01*
X109277484Y-86032998D01*
X109277477Y-86033004D01*
X109113004Y-86197477D01*
X109112998Y-86197484D01*
X108971400Y-86382019D01*
X108971389Y-86382035D01*
X108855090Y-86583469D01*
X108855085Y-86583480D01*
X108766070Y-86798381D01*
X108705865Y-87023073D01*
X108675502Y-87253687D01*
X107524500Y-87253687D01*
X107494138Y-87023072D01*
X107433933Y-86798384D01*
X107344916Y-86583477D01*
X107344914Y-86583474D01*
X107344912Y-86583469D01*
X107228613Y-86382035D01*
X107228609Y-86382028D01*
X107187834Y-86328889D01*
X107087004Y-86197484D01*
X107086998Y-86197477D01*
X106922525Y-86033004D01*
X106922518Y-86032998D01*
X106737983Y-85891400D01*
X106737981Y-85891398D01*
X106737975Y-85891394D01*
X106737970Y-85891391D01*
X106737967Y-85891389D01*
X106536533Y-85775090D01*
X106536522Y-85775085D01*
X106321621Y-85686070D01*
X106209275Y-85655967D01*
X106096931Y-85625865D01*
X106045681Y-85619117D01*
X105866315Y-85595502D01*
X105866308Y-85595502D01*
X105633694Y-85595502D01*
X105633686Y-85595502D01*
X105428695Y-85622491D01*
X105403071Y-85625865D01*
X105346899Y-85640916D01*
X105178380Y-85686070D01*
X104963479Y-85775085D01*
X104963468Y-85775090D01*
X104762034Y-85891389D01*
X104762018Y-85891400D01*
X104577483Y-86032998D01*
X104577476Y-86033004D01*
X104413003Y-86197477D01*
X104412997Y-86197484D01*
X104271399Y-86382019D01*
X104271388Y-86382035D01*
X104155089Y-86583469D01*
X104155084Y-86583480D01*
X104066069Y-86798381D01*
X104005864Y-87023073D01*
X103975501Y-87253687D01*
X100229070Y-87253687D01*
X100229047Y-87250553D01*
X100215592Y-85430502D01*
X132519500Y-85430502D01*
X132519500Y-85649497D01*
X132543306Y-85830314D01*
X132548083Y-85866598D01*
X132548084Y-85866600D01*
X132592409Y-86032028D01*
X132604759Y-86078117D01*
X132688560Y-86280428D01*
X132688562Y-86280433D01*
X132688565Y-86280438D01*
X132798049Y-86470070D01*
X132931355Y-86643798D01*
X132931361Y-86643805D01*
X133086194Y-86798638D01*
X133086201Y-86798644D01*
X133259929Y-86931950D01*
X133449561Y-87041434D01*
X133449563Y-87041434D01*
X133449572Y-87041440D01*
X133651883Y-87125241D01*
X133863402Y-87181917D01*
X134080510Y-87210500D01*
X134080517Y-87210500D01*
X134299483Y-87210500D01*
X134299490Y-87210500D01*
X134516598Y-87181917D01*
X134728117Y-87125241D01*
X134930428Y-87041440D01*
X135120071Y-86931950D01*
X135293800Y-86798643D01*
X135448643Y-86643800D01*
X135581950Y-86470071D01*
X135691440Y-86280428D01*
X135775241Y-86078117D01*
X135831917Y-85866598D01*
X135860500Y-85649490D01*
X135860500Y-85430510D01*
X135860499Y-85430502D01*
X136959500Y-85430502D01*
X136959500Y-85649497D01*
X136983306Y-85830314D01*
X136988083Y-85866598D01*
X136988084Y-85866600D01*
X137032409Y-86032028D01*
X137044759Y-86078117D01*
X137128560Y-86280428D01*
X137128562Y-86280433D01*
X137128565Y-86280438D01*
X137238049Y-86470070D01*
X137371355Y-86643798D01*
X137371361Y-86643805D01*
X137526194Y-86798638D01*
X137526201Y-86798644D01*
X137699929Y-86931950D01*
X137889561Y-87041434D01*
X137889563Y-87041434D01*
X137889572Y-87041440D01*
X138091883Y-87125241D01*
X138303402Y-87181917D01*
X138520510Y-87210500D01*
X138520517Y-87210500D01*
X138739483Y-87210500D01*
X138739490Y-87210500D01*
X138956598Y-87181917D01*
X139168117Y-87125241D01*
X139370428Y-87041440D01*
X139560071Y-86931950D01*
X139733800Y-86798643D01*
X139888643Y-86643800D01*
X140021950Y-86470071D01*
X140131440Y-86280428D01*
X140215241Y-86078117D01*
X140271917Y-85866598D01*
X140300500Y-85649490D01*
X140300500Y-85430510D01*
X140300499Y-85430502D01*
X141399500Y-85430502D01*
X141399500Y-85649497D01*
X141423306Y-85830314D01*
X141428083Y-85866598D01*
X141428084Y-85866600D01*
X141472409Y-86032028D01*
X141484759Y-86078117D01*
X141568560Y-86280428D01*
X141568562Y-86280433D01*
X141568565Y-86280438D01*
X141678049Y-86470070D01*
X141811355Y-86643798D01*
X141811361Y-86643805D01*
X141966194Y-86798638D01*
X141966201Y-86798644D01*
X142139929Y-86931950D01*
X142329561Y-87041434D01*
X142329563Y-87041434D01*
X142329572Y-87041440D01*
X142531883Y-87125241D01*
X142743402Y-87181917D01*
X142960510Y-87210500D01*
X142960517Y-87210500D01*
X143179483Y-87210500D01*
X143179490Y-87210500D01*
X143396598Y-87181917D01*
X143608117Y-87125241D01*
X143810428Y-87041440D01*
X144000071Y-86931950D01*
X144173800Y-86798643D01*
X144328643Y-86643800D01*
X144461950Y-86470071D01*
X144571440Y-86280428D01*
X144655241Y-86078117D01*
X144711917Y-85866598D01*
X144740500Y-85649490D01*
X144740500Y-85430510D01*
X144740499Y-85430502D01*
X145839500Y-85430502D01*
X145839500Y-85649497D01*
X145863306Y-85830314D01*
X145868083Y-85866598D01*
X145868084Y-85866600D01*
X145912409Y-86032028D01*
X145924759Y-86078117D01*
X146008560Y-86280428D01*
X146008562Y-86280433D01*
X146008565Y-86280438D01*
X146118049Y-86470070D01*
X146251355Y-86643798D01*
X146251361Y-86643805D01*
X146406194Y-86798638D01*
X146406201Y-86798644D01*
X146579929Y-86931950D01*
X146769561Y-87041434D01*
X146769563Y-87041434D01*
X146769572Y-87041440D01*
X146971883Y-87125241D01*
X147183402Y-87181917D01*
X147400510Y-87210500D01*
X147400517Y-87210500D01*
X147619483Y-87210500D01*
X147619490Y-87210500D01*
X147836598Y-87181917D01*
X148048117Y-87125241D01*
X148250428Y-87041440D01*
X148440071Y-86931950D01*
X148613800Y-86798643D01*
X148768643Y-86643800D01*
X148901950Y-86470071D01*
X149011440Y-86280428D01*
X149095241Y-86078117D01*
X149151917Y-85866598D01*
X149180500Y-85649490D01*
X149180500Y-85430510D01*
X149180499Y-85430502D01*
X150279500Y-85430502D01*
X150279500Y-85649497D01*
X150303306Y-85830314D01*
X150308083Y-85866598D01*
X150308084Y-85866600D01*
X150352409Y-86032028D01*
X150364759Y-86078117D01*
X150448560Y-86280428D01*
X150448562Y-86280433D01*
X150448565Y-86280438D01*
X150558049Y-86470070D01*
X150691355Y-86643798D01*
X150691361Y-86643805D01*
X150846194Y-86798638D01*
X150846201Y-86798644D01*
X151019929Y-86931950D01*
X151209561Y-87041434D01*
X151209563Y-87041434D01*
X151209572Y-87041440D01*
X151411883Y-87125241D01*
X151623402Y-87181917D01*
X151840510Y-87210500D01*
X151840517Y-87210500D01*
X152059483Y-87210500D01*
X152059490Y-87210500D01*
X152276598Y-87181917D01*
X152488117Y-87125241D01*
X152690428Y-87041440D01*
X152880071Y-86931950D01*
X153053800Y-86798643D01*
X153208643Y-86643800D01*
X153341950Y-86470071D01*
X153451440Y-86280428D01*
X153535241Y-86078117D01*
X153591917Y-85866598D01*
X153620500Y-85649490D01*
X153620500Y-85430510D01*
X153620499Y-85430502D01*
X154719500Y-85430502D01*
X154719500Y-85649497D01*
X154743306Y-85830314D01*
X154748083Y-85866598D01*
X154748084Y-85866600D01*
X154792409Y-86032028D01*
X154804759Y-86078117D01*
X154888560Y-86280428D01*
X154888562Y-86280433D01*
X154888565Y-86280438D01*
X154998049Y-86470070D01*
X155131355Y-86643798D01*
X155131361Y-86643805D01*
X155286194Y-86798638D01*
X155286201Y-86798644D01*
X155459929Y-86931950D01*
X155649561Y-87041434D01*
X155649563Y-87041434D01*
X155649572Y-87041440D01*
X155851883Y-87125241D01*
X156063402Y-87181917D01*
X156280510Y-87210500D01*
X156280517Y-87210500D01*
X156499483Y-87210500D01*
X156499490Y-87210500D01*
X156716598Y-87181917D01*
X156928117Y-87125241D01*
X157130428Y-87041440D01*
X157320071Y-86931950D01*
X157356904Y-86903687D01*
X177775498Y-86903687D01*
X177775498Y-87136316D01*
X177790953Y-87253701D01*
X177805861Y-87366932D01*
X177835963Y-87479276D01*
X177866066Y-87591622D01*
X177955081Y-87806523D01*
X177955086Y-87806534D01*
X178071385Y-88007968D01*
X178071396Y-88007984D01*
X178212994Y-88192519D01*
X178213000Y-88192526D01*
X178377473Y-88356999D01*
X178377480Y-88357005D01*
X178378756Y-88357984D01*
X178562024Y-88498610D01*
X178562031Y-88498614D01*
X178763465Y-88614913D01*
X178763470Y-88614915D01*
X178763473Y-88614917D01*
X178870926Y-88659425D01*
X178978377Y-88703933D01*
X178978378Y-88703933D01*
X178978380Y-88703934D01*
X179203068Y-88764139D01*
X179433691Y-88794502D01*
X179433698Y-88794502D01*
X179666298Y-88794502D01*
X179666305Y-88794502D01*
X179896928Y-88764139D01*
X180121616Y-88703934D01*
X180336523Y-88614917D01*
X180537972Y-88498610D01*
X180722517Y-88357004D01*
X180887000Y-88192521D01*
X181028606Y-88007976D01*
X181144913Y-87806527D01*
X181233930Y-87591620D01*
X181294135Y-87366932D01*
X181324498Y-87136309D01*
X181324498Y-86903695D01*
X181324497Y-86903687D01*
X182475499Y-86903687D01*
X182475499Y-87136316D01*
X182490954Y-87253701D01*
X182505862Y-87366932D01*
X182535964Y-87479276D01*
X182566067Y-87591622D01*
X182655082Y-87806523D01*
X182655087Y-87806534D01*
X182771386Y-88007968D01*
X182771397Y-88007984D01*
X182912995Y-88192519D01*
X182913001Y-88192526D01*
X183077474Y-88356999D01*
X183077481Y-88357005D01*
X183078757Y-88357984D01*
X183262025Y-88498610D01*
X183262032Y-88498614D01*
X183463466Y-88614913D01*
X183463471Y-88614915D01*
X183463474Y-88614917D01*
X183570927Y-88659425D01*
X183678378Y-88703933D01*
X183678379Y-88703933D01*
X183678381Y-88703934D01*
X183903069Y-88764139D01*
X184133692Y-88794502D01*
X184133699Y-88794502D01*
X184366299Y-88794502D01*
X184366306Y-88794502D01*
X184596929Y-88764139D01*
X184821617Y-88703934D01*
X185036524Y-88614917D01*
X185237973Y-88498610D01*
X185422518Y-88357004D01*
X185587001Y-88192521D01*
X185728607Y-88007976D01*
X185844914Y-87806527D01*
X185933931Y-87591620D01*
X185994136Y-87366932D01*
X186024499Y-87136309D01*
X186024499Y-86903695D01*
X185994136Y-86673072D01*
X185933931Y-86448384D01*
X185906448Y-86382035D01*
X185844915Y-86233480D01*
X185844910Y-86233469D01*
X185728611Y-86032035D01*
X185728607Y-86032028D01*
X185601670Y-85866600D01*
X185587002Y-85847484D01*
X185586996Y-85847477D01*
X185422523Y-85683004D01*
X185422516Y-85682998D01*
X185237981Y-85541400D01*
X185237979Y-85541398D01*
X185237973Y-85541394D01*
X185237968Y-85541391D01*
X185237965Y-85541389D01*
X185036531Y-85425090D01*
X185036520Y-85425085D01*
X184821619Y-85336070D01*
X184709273Y-85305967D01*
X184596929Y-85275865D01*
X184545679Y-85269117D01*
X184366313Y-85245502D01*
X184366306Y-85245502D01*
X184133692Y-85245502D01*
X184133684Y-85245502D01*
X183928693Y-85272491D01*
X183903069Y-85275865D01*
X183846897Y-85290916D01*
X183678378Y-85336070D01*
X183463477Y-85425085D01*
X183463466Y-85425090D01*
X183262032Y-85541389D01*
X183262016Y-85541400D01*
X183077481Y-85682998D01*
X183077474Y-85683004D01*
X182913001Y-85847477D01*
X182912995Y-85847484D01*
X182771397Y-86032019D01*
X182771386Y-86032035D01*
X182655087Y-86233469D01*
X182655082Y-86233480D01*
X182566067Y-86448381D01*
X182529871Y-86583469D01*
X182513706Y-86643800D01*
X182505862Y-86673073D01*
X182475499Y-86903687D01*
X181324497Y-86903687D01*
X181294135Y-86673072D01*
X181233930Y-86448384D01*
X181206447Y-86382035D01*
X181144914Y-86233480D01*
X181144909Y-86233469D01*
X181028610Y-86032035D01*
X181028606Y-86032028D01*
X180901669Y-85866600D01*
X180887001Y-85847484D01*
X180886995Y-85847477D01*
X180722522Y-85683004D01*
X180722515Y-85682998D01*
X180537980Y-85541400D01*
X180537978Y-85541398D01*
X180537972Y-85541394D01*
X180537967Y-85541391D01*
X180537964Y-85541389D01*
X180336530Y-85425090D01*
X180336519Y-85425085D01*
X180121618Y-85336070D01*
X180009272Y-85305967D01*
X179896928Y-85275865D01*
X179845678Y-85269117D01*
X179666312Y-85245502D01*
X179666305Y-85245502D01*
X179433691Y-85245502D01*
X179433683Y-85245502D01*
X179228692Y-85272491D01*
X179203068Y-85275865D01*
X179146896Y-85290916D01*
X178978377Y-85336070D01*
X178763476Y-85425085D01*
X178763465Y-85425090D01*
X178562031Y-85541389D01*
X178562015Y-85541400D01*
X178377480Y-85682998D01*
X178377473Y-85683004D01*
X178213000Y-85847477D01*
X178212994Y-85847484D01*
X178071396Y-86032019D01*
X178071385Y-86032035D01*
X177955086Y-86233469D01*
X177955081Y-86233480D01*
X177866066Y-86448381D01*
X177829870Y-86583469D01*
X177813705Y-86643800D01*
X177805861Y-86673073D01*
X177775498Y-86903687D01*
X157356904Y-86903687D01*
X157430701Y-86847060D01*
X157490390Y-86801260D01*
X157490391Y-86801259D01*
X157491884Y-86800112D01*
X157493800Y-86798643D01*
X157648643Y-86643800D01*
X157781950Y-86470071D01*
X157891440Y-86280428D01*
X157975241Y-86078117D01*
X158031917Y-85866598D01*
X158060500Y-85649490D01*
X158060500Y-85430510D01*
X158031917Y-85213402D01*
X157975241Y-85001883D01*
X157891440Y-84799572D01*
X157781950Y-84609929D01*
X157648643Y-84436200D01*
X157648638Y-84436194D01*
X157493805Y-84281361D01*
X157493798Y-84281355D01*
X157320070Y-84148049D01*
X157130438Y-84038565D01*
X157130433Y-84038562D01*
X157130428Y-84038560D01*
X156962824Y-83969135D01*
X156928115Y-83954758D01*
X156822357Y-83926421D01*
X156716598Y-83898083D01*
X156678582Y-83893078D01*
X156499497Y-83869500D01*
X156499490Y-83869500D01*
X156280510Y-83869500D01*
X156280502Y-83869500D01*
X156097886Y-83893543D01*
X156063402Y-83898083D01*
X156018699Y-83910060D01*
X155851884Y-83954758D01*
X155733374Y-84003847D01*
X155649572Y-84038560D01*
X155649569Y-84038561D01*
X155649561Y-84038565D01*
X155459929Y-84148049D01*
X155286201Y-84281355D01*
X155286194Y-84281361D01*
X155131361Y-84436194D01*
X155131355Y-84436201D01*
X154998049Y-84609929D01*
X154888565Y-84799561D01*
X154888560Y-84799573D01*
X154804758Y-85001884D01*
X154748084Y-85213399D01*
X154748082Y-85213410D01*
X154719500Y-85430502D01*
X153620499Y-85430502D01*
X153591917Y-85213402D01*
X153535241Y-85001883D01*
X153451440Y-84799572D01*
X153341950Y-84609929D01*
X153208643Y-84436200D01*
X153208638Y-84436194D01*
X153053805Y-84281361D01*
X153053798Y-84281355D01*
X152880070Y-84148049D01*
X152690438Y-84038565D01*
X152690433Y-84038562D01*
X152690428Y-84038560D01*
X152522824Y-83969135D01*
X152488115Y-83954758D01*
X152382357Y-83926421D01*
X152276598Y-83898083D01*
X152238582Y-83893078D01*
X152059497Y-83869500D01*
X152059490Y-83869500D01*
X151840510Y-83869500D01*
X151840502Y-83869500D01*
X151657886Y-83893543D01*
X151623402Y-83898083D01*
X151578699Y-83910060D01*
X151411884Y-83954758D01*
X151293374Y-84003847D01*
X151209572Y-84038560D01*
X151209569Y-84038561D01*
X151209561Y-84038565D01*
X151019929Y-84148049D01*
X150846201Y-84281355D01*
X150846194Y-84281361D01*
X150691361Y-84436194D01*
X150691355Y-84436201D01*
X150558049Y-84609929D01*
X150448565Y-84799561D01*
X150448560Y-84799573D01*
X150364758Y-85001884D01*
X150308084Y-85213399D01*
X150308082Y-85213410D01*
X150279500Y-85430502D01*
X149180499Y-85430502D01*
X149151917Y-85213402D01*
X149095241Y-85001883D01*
X149011440Y-84799572D01*
X148901950Y-84609929D01*
X148768643Y-84436200D01*
X148768638Y-84436194D01*
X148613805Y-84281361D01*
X148613798Y-84281355D01*
X148440070Y-84148049D01*
X148250438Y-84038565D01*
X148250433Y-84038562D01*
X148250428Y-84038560D01*
X148082824Y-83969135D01*
X148048115Y-83954758D01*
X147942357Y-83926421D01*
X147836598Y-83898083D01*
X147798582Y-83893078D01*
X147619497Y-83869500D01*
X147619490Y-83869500D01*
X147400510Y-83869500D01*
X147400502Y-83869500D01*
X147217886Y-83893543D01*
X147183402Y-83898083D01*
X147138699Y-83910060D01*
X146971884Y-83954758D01*
X146853374Y-84003847D01*
X146769572Y-84038560D01*
X146769569Y-84038561D01*
X146769561Y-84038565D01*
X146579929Y-84148049D01*
X146406201Y-84281355D01*
X146406194Y-84281361D01*
X146251361Y-84436194D01*
X146251355Y-84436201D01*
X146118049Y-84609929D01*
X146008565Y-84799561D01*
X146008560Y-84799573D01*
X145924758Y-85001884D01*
X145868084Y-85213399D01*
X145868082Y-85213410D01*
X145839500Y-85430502D01*
X144740499Y-85430502D01*
X144711917Y-85213402D01*
X144655241Y-85001883D01*
X144571440Y-84799572D01*
X144461950Y-84609929D01*
X144328643Y-84436200D01*
X144328638Y-84436194D01*
X144173805Y-84281361D01*
X144173798Y-84281355D01*
X144000070Y-84148049D01*
X143810438Y-84038565D01*
X143810433Y-84038562D01*
X143810428Y-84038560D01*
X143642824Y-83969135D01*
X143608115Y-83954758D01*
X143502357Y-83926421D01*
X143396598Y-83898083D01*
X143358582Y-83893078D01*
X143179497Y-83869500D01*
X143179490Y-83869500D01*
X142960510Y-83869500D01*
X142960502Y-83869500D01*
X142777886Y-83893543D01*
X142743402Y-83898083D01*
X142698699Y-83910060D01*
X142531884Y-83954758D01*
X142413374Y-84003847D01*
X142329572Y-84038560D01*
X142329569Y-84038561D01*
X142329561Y-84038565D01*
X142139929Y-84148049D01*
X141966201Y-84281355D01*
X141966194Y-84281361D01*
X141811361Y-84436194D01*
X141811355Y-84436201D01*
X141678049Y-84609929D01*
X141568565Y-84799561D01*
X141568560Y-84799573D01*
X141484758Y-85001884D01*
X141428084Y-85213399D01*
X141428082Y-85213410D01*
X141399500Y-85430502D01*
X140300499Y-85430502D01*
X140271917Y-85213402D01*
X140215241Y-85001883D01*
X140131440Y-84799572D01*
X140021950Y-84609929D01*
X139888643Y-84436200D01*
X139888638Y-84436194D01*
X139733805Y-84281361D01*
X139733798Y-84281355D01*
X139560070Y-84148049D01*
X139370438Y-84038565D01*
X139370433Y-84038562D01*
X139370428Y-84038560D01*
X139202824Y-83969135D01*
X139168115Y-83954758D01*
X139062357Y-83926421D01*
X138956598Y-83898083D01*
X138918582Y-83893078D01*
X138739497Y-83869500D01*
X138739490Y-83869500D01*
X138520510Y-83869500D01*
X138520502Y-83869500D01*
X138337886Y-83893543D01*
X138303402Y-83898083D01*
X138258699Y-83910060D01*
X138091884Y-83954758D01*
X137973374Y-84003847D01*
X137889572Y-84038560D01*
X137889569Y-84038561D01*
X137889561Y-84038565D01*
X137699929Y-84148049D01*
X137526201Y-84281355D01*
X137526194Y-84281361D01*
X137371361Y-84436194D01*
X137371355Y-84436201D01*
X137238049Y-84609929D01*
X137128565Y-84799561D01*
X137128560Y-84799573D01*
X137044758Y-85001884D01*
X136988084Y-85213399D01*
X136988082Y-85213410D01*
X136959500Y-85430502D01*
X135860499Y-85430502D01*
X135831917Y-85213402D01*
X135775241Y-85001883D01*
X135691440Y-84799572D01*
X135581950Y-84609929D01*
X135448643Y-84436200D01*
X135448638Y-84436194D01*
X135293805Y-84281361D01*
X135293798Y-84281355D01*
X135120070Y-84148049D01*
X134930438Y-84038565D01*
X134930433Y-84038562D01*
X134930428Y-84038560D01*
X134762824Y-83969135D01*
X134728115Y-83954758D01*
X134622357Y-83926421D01*
X134516598Y-83898083D01*
X134478582Y-83893078D01*
X134299497Y-83869500D01*
X134299490Y-83869500D01*
X134080510Y-83869500D01*
X134080502Y-83869500D01*
X133897886Y-83893543D01*
X133863402Y-83898083D01*
X133818699Y-83910060D01*
X133651884Y-83954758D01*
X133533374Y-84003847D01*
X133449572Y-84038560D01*
X133449569Y-84038561D01*
X133449561Y-84038565D01*
X133259929Y-84148049D01*
X133086201Y-84281355D01*
X133086194Y-84281361D01*
X132931361Y-84436194D01*
X132931355Y-84436201D01*
X132798049Y-84609929D01*
X132688565Y-84799561D01*
X132688560Y-84799573D01*
X132604758Y-85001884D01*
X132548084Y-85213399D01*
X132548082Y-85213410D01*
X132519500Y-85430502D01*
X100215592Y-85430502D01*
X100215569Y-85427368D01*
X100205565Y-84074111D01*
X100197245Y-82948679D01*
X102312603Y-82948679D01*
X102312603Y-83151320D01*
X102344302Y-83351463D01*
X102406924Y-83544192D01*
X102498919Y-83724744D01*
X102529548Y-83766899D01*
X102529549Y-83766900D01*
X103089768Y-83206680D01*
X103102953Y-83255885D01*
X103173177Y-83377515D01*
X103272488Y-83476826D01*
X103394118Y-83547050D01*
X103443322Y-83560234D01*
X102883102Y-84120453D01*
X102883102Y-84120454D01*
X102925257Y-84151082D01*
X103105810Y-84243078D01*
X103298539Y-84305700D01*
X103298538Y-84305700D01*
X103498683Y-84337400D01*
X103701323Y-84337400D01*
X103901466Y-84305700D01*
X104094195Y-84243078D01*
X104274750Y-84151081D01*
X104274754Y-84151079D01*
X104316902Y-84120454D01*
X104316903Y-84120454D01*
X103756683Y-83560234D01*
X103805888Y-83547050D01*
X103927518Y-83476826D01*
X104026829Y-83377515D01*
X104097053Y-83255885D01*
X104110237Y-83206680D01*
X104670456Y-83766900D01*
X104670457Y-83766899D01*
X104701082Y-83724751D01*
X104701084Y-83724747D01*
X104793081Y-83544192D01*
X104855703Y-83351463D01*
X104887403Y-83151320D01*
X104887403Y-82948679D01*
X104855703Y-82748536D01*
X104793081Y-82555807D01*
X104701085Y-82375254D01*
X104670456Y-82333099D01*
X104110236Y-82893318D01*
X104097053Y-82844115D01*
X104026829Y-82722485D01*
X103927518Y-82623174D01*
X103805888Y-82552950D01*
X103756683Y-82539765D01*
X104316903Y-81979546D01*
X104316902Y-81979545D01*
X104274747Y-81948916D01*
X104094195Y-81856921D01*
X103901466Y-81794299D01*
X103901467Y-81794299D01*
X103701323Y-81762600D01*
X103498683Y-81762600D01*
X103298539Y-81794299D01*
X103105810Y-81856921D01*
X102925253Y-81948919D01*
X102883102Y-81979544D01*
X102883101Y-81979545D01*
X103443322Y-82539765D01*
X103394118Y-82552950D01*
X103272488Y-82623174D01*
X103173177Y-82722485D01*
X103102953Y-82844115D01*
X103089769Y-82893319D01*
X102529548Y-82333098D01*
X102529547Y-82333099D01*
X102498922Y-82375250D01*
X102406924Y-82555807D01*
X102344302Y-82748536D01*
X102312603Y-82948679D01*
X100197245Y-82948679D01*
X100197216Y-82944724D01*
X100190437Y-82027722D01*
X100175067Y-79948641D01*
X102312103Y-79948641D01*
X102312103Y-80151361D01*
X102321673Y-80211783D01*
X102334663Y-80293800D01*
X102343816Y-80351585D01*
X102406460Y-80544383D01*
X102496754Y-80721595D01*
X102498495Y-80725010D01*
X102617642Y-80889005D01*
X102760998Y-81032361D01*
X102898386Y-81132177D01*
X102924997Y-81151511D01*
X103105621Y-81243544D01*
X103298419Y-81306188D01*
X103498643Y-81337901D01*
X103498644Y-81337901D01*
X103701362Y-81337901D01*
X103701363Y-81337901D01*
X103901587Y-81306188D01*
X104094385Y-81243544D01*
X104275009Y-81151511D01*
X104395814Y-81063742D01*
X104439007Y-81032361D01*
X104439009Y-81032358D01*
X104439013Y-81032356D01*
X104582358Y-80889011D01*
X104582360Y-80889007D01*
X104582363Y-80889005D01*
X104665016Y-80775241D01*
X104701513Y-80725007D01*
X104793546Y-80544383D01*
X104856190Y-80351585D01*
X104887903Y-80151361D01*
X104887903Y-79948641D01*
X104856190Y-79748417D01*
X104793546Y-79555619D01*
X104701513Y-79374995D01*
X104663808Y-79323098D01*
X104582363Y-79210996D01*
X104439007Y-79067640D01*
X104275012Y-78948493D01*
X104275011Y-78948492D01*
X104275009Y-78948491D01*
X104094385Y-78856458D01*
X103901587Y-78793814D01*
X103901585Y-78793813D01*
X103901583Y-78793813D01*
X103739194Y-78768093D01*
X103701363Y-78762101D01*
X103498643Y-78762101D01*
X103460812Y-78768093D01*
X103298422Y-78793813D01*
X103105618Y-78856459D01*
X102924993Y-78948493D01*
X102760998Y-79067640D01*
X102617642Y-79210996D01*
X102498495Y-79374991D01*
X102406461Y-79555616D01*
X102343815Y-79748420D01*
X102338671Y-79780900D01*
X102312103Y-79948641D01*
X100175067Y-79948641D01*
X100175038Y-79944686D01*
X100173315Y-79711607D01*
X100116661Y-72047799D01*
X105300000Y-72047799D01*
X105306122Y-72115177D01*
X105354439Y-72270232D01*
X105438450Y-72409205D01*
X105438453Y-72409209D01*
X105553290Y-72524046D01*
X105553294Y-72524049D01*
X105692267Y-72608060D01*
X105847322Y-72656377D01*
X105914701Y-72662500D01*
X106112500Y-72662500D01*
X106112500Y-71650000D01*
X105300000Y-71650000D01*
X105300000Y-72047799D01*
X100116661Y-72047799D01*
X100107083Y-70752200D01*
X105300000Y-70752200D01*
X105300000Y-71150000D01*
X106112500Y-71150000D01*
X106112500Y-70137500D01*
X105914701Y-70137500D01*
X105847322Y-70143622D01*
X105692267Y-70191939D01*
X105553294Y-70275950D01*
X105553290Y-70275953D01*
X105438453Y-70390790D01*
X105438450Y-70390794D01*
X105354439Y-70529767D01*
X105306122Y-70684822D01*
X105300000Y-70752200D01*
X100107083Y-70752200D01*
X100072534Y-66078665D01*
X101537000Y-66078665D01*
X101537000Y-66974344D01*
X101543126Y-67041767D01*
X101543128Y-67041775D01*
X101591478Y-67196935D01*
X101591479Y-67196937D01*
X101675553Y-67336014D01*
X101675557Y-67336019D01*
X101790480Y-67450942D01*
X101790482Y-67450943D01*
X101801961Y-67457883D01*
X101849149Y-67509411D01*
X101860987Y-67578271D01*
X101833718Y-67642599D01*
X101801961Y-67670117D01*
X101790482Y-67677056D01*
X101790480Y-67677057D01*
X101675557Y-67791980D01*
X101675553Y-67791985D01*
X101591479Y-67931062D01*
X101591477Y-67931066D01*
X101543128Y-68086226D01*
X101537000Y-68153665D01*
X101537000Y-69049344D01*
X101543126Y-69116767D01*
X101543128Y-69116775D01*
X101591478Y-69271935D01*
X101591479Y-69271937D01*
X101675553Y-69411014D01*
X101675557Y-69411019D01*
X101790480Y-69525942D01*
X101790485Y-69525946D01*
X101929562Y-69610020D01*
X101929566Y-69610022D01*
X101984450Y-69627124D01*
X102084728Y-69658372D01*
X102152163Y-69664500D01*
X103447836Y-69664499D01*
X103447843Y-69664499D01*
X103515267Y-69658373D01*
X103515270Y-69658372D01*
X103515272Y-69658372D01*
X103670436Y-69610021D01*
X103767128Y-69551569D01*
X103809514Y-69525946D01*
X103809515Y-69525944D01*
X103809520Y-69525942D01*
X103924442Y-69411020D01*
X103961695Y-69349396D01*
X103984393Y-69311850D01*
X104035921Y-69264662D01*
X104090510Y-69252000D01*
X106439357Y-69252000D01*
X106506396Y-69271685D01*
X106552151Y-69324489D01*
X106558433Y-69341404D01*
X106560754Y-69349394D01*
X106560755Y-69349396D01*
X106644417Y-69490862D01*
X106644423Y-69490870D01*
X106760629Y-69607076D01*
X106760633Y-69607079D01*
X106760635Y-69607081D01*
X106902102Y-69690744D01*
X106943724Y-69702836D01*
X107059926Y-69736597D01*
X107059929Y-69736597D01*
X107059931Y-69736598D01*
X107096806Y-69739500D01*
X107096814Y-69739500D01*
X107528186Y-69739500D01*
X107528194Y-69739500D01*
X107565069Y-69736598D01*
X107565071Y-69736597D01*
X107565073Y-69736597D01*
X107613260Y-69722597D01*
X107722898Y-69690744D01*
X107864365Y-69607081D01*
X107980581Y-69490865D01*
X108064244Y-69349398D01*
X108110098Y-69191569D01*
X108113000Y-69154694D01*
X108113000Y-67988500D01*
X108132685Y-67921461D01*
X108185489Y-67875706D01*
X108237000Y-67864500D01*
X108478186Y-67864500D01*
X108478194Y-67864500D01*
X108515069Y-67861598D01*
X108515071Y-67861597D01*
X108515073Y-67861597D01*
X108563563Y-67847509D01*
X108672898Y-67815744D01*
X108814365Y-67732081D01*
X108925570Y-67620875D01*
X108986891Y-67587392D01*
X109056583Y-67592376D01*
X109100931Y-67620877D01*
X110111122Y-68631068D01*
X110144607Y-68692391D01*
X110139623Y-68762083D01*
X110111122Y-68806430D01*
X108816871Y-70100681D01*
X108755548Y-70134166D01*
X108729190Y-70137000D01*
X107989655Y-70137000D01*
X107922232Y-70143126D01*
X107922224Y-70143128D01*
X107767064Y-70191478D01*
X107767062Y-70191479D01*
X107627985Y-70275553D01*
X107627980Y-70275557D01*
X107513057Y-70390480D01*
X107513054Y-70390484D01*
X107505823Y-70402446D01*
X107454294Y-70449632D01*
X107385434Y-70461469D01*
X107321106Y-70434198D01*
X107293591Y-70402443D01*
X107286547Y-70390792D01*
X107286546Y-70390790D01*
X107171709Y-70275953D01*
X107171705Y-70275950D01*
X107032732Y-70191939D01*
X106877677Y-70143622D01*
X106810299Y-70137500D01*
X106612500Y-70137500D01*
X106612500Y-72662500D01*
X106810299Y-72662500D01*
X106877677Y-72656377D01*
X107032732Y-72608060D01*
X107171705Y-72524049D01*
X107171709Y-72524046D01*
X107286546Y-72409209D01*
X107286547Y-72409207D01*
X107293590Y-72397558D01*
X107345117Y-72350370D01*
X107413976Y-72338530D01*
X107478305Y-72365797D01*
X107505825Y-72397556D01*
X107513056Y-72409517D01*
X107513057Y-72409519D01*
X107627980Y-72524442D01*
X107627985Y-72524446D01*
X107766301Y-72608060D01*
X107767064Y-72608521D01*
X107812390Y-72622645D01*
X107870537Y-72661381D01*
X107898512Y-72725406D01*
X107899500Y-72741030D01*
X107899500Y-73395064D01*
X107879815Y-73462103D01*
X107878603Y-73463954D01*
X107840608Y-73520817D01*
X107840602Y-73520828D01*
X107780264Y-73666498D01*
X107780261Y-73666510D01*
X107749500Y-73821153D01*
X107749500Y-73978846D01*
X107780261Y-74133489D01*
X107780264Y-74133501D01*
X107840602Y-74279172D01*
X107840609Y-74279185D01*
X107928210Y-74410288D01*
X107928213Y-74410292D01*
X108039707Y-74521786D01*
X108039711Y-74521789D01*
X108170814Y-74609390D01*
X108170827Y-74609397D01*
X108316498Y-74669735D01*
X108316503Y-74669737D01*
X108471153Y-74700499D01*
X108471156Y-74700500D01*
X108471158Y-74700500D01*
X108628844Y-74700500D01*
X108628845Y-74700499D01*
X108783497Y-74669737D01*
X108929179Y-74609394D01*
X109060289Y-74521789D01*
X109171789Y-74410289D01*
X109259394Y-74279179D01*
X109319737Y-74133497D01*
X109350500Y-73978842D01*
X109350500Y-73821158D01*
X109350500Y-73821155D01*
X109350499Y-73821153D01*
X109319738Y-73666510D01*
X109319737Y-73666503D01*
X109259394Y-73520821D01*
X109221396Y-73463953D01*
X109200520Y-73397276D01*
X109200500Y-73395064D01*
X109200500Y-72621263D01*
X109220185Y-72554224D01*
X109242115Y-72530145D01*
X109241716Y-72529746D01*
X109284562Y-72486900D01*
X109361942Y-72409520D01*
X109362132Y-72409207D01*
X109413320Y-72324530D01*
X109446021Y-72270436D01*
X109494372Y-72115272D01*
X109500500Y-72047837D01*
X109500499Y-71308306D01*
X109520183Y-71241268D01*
X109536813Y-71220631D01*
X110005245Y-70752200D01*
X118133333Y-70752200D01*
X118133333Y-71150000D01*
X118945833Y-71150000D01*
X118945833Y-70137500D01*
X118748034Y-70137500D01*
X118680655Y-70143622D01*
X118525600Y-70191939D01*
X118386627Y-70275950D01*
X118386623Y-70275953D01*
X118271786Y-70390790D01*
X118271783Y-70390794D01*
X118187772Y-70529767D01*
X118139455Y-70684822D01*
X118133333Y-70752200D01*
X110005245Y-70752200D01*
X111305277Y-69452169D01*
X111376466Y-69345626D01*
X111412788Y-69257936D01*
X111425501Y-69227244D01*
X111439931Y-69154701D01*
X111450500Y-69101571D01*
X111450500Y-68335928D01*
X111425502Y-68210261D01*
X111425501Y-68210260D01*
X111425501Y-68210256D01*
X111376465Y-68091873D01*
X111355340Y-68060257D01*
X111336853Y-68032589D01*
X111305278Y-67985332D01*
X111305272Y-67985325D01*
X109441173Y-66121226D01*
X109441169Y-66121223D01*
X109334627Y-66050035D01*
X109216244Y-66000999D01*
X109197286Y-65997228D01*
X109144300Y-65986688D01*
X109082389Y-65954302D01*
X109082372Y-65954272D01*
X109049417Y-65899666D01*
X109014245Y-65778606D01*
X109014244Y-65778603D01*
X109014244Y-65778602D01*
X108930581Y-65637135D01*
X108930579Y-65637133D01*
X108930576Y-65637129D01*
X108814370Y-65520923D01*
X108814362Y-65520917D01*
X108673904Y-65437851D01*
X108672898Y-65437256D01*
X108672897Y-65437255D01*
X108672896Y-65437255D01*
X108672893Y-65437254D01*
X108515073Y-65391402D01*
X108515067Y-65391401D01*
X108478201Y-65388500D01*
X108478194Y-65388500D01*
X108046806Y-65388500D01*
X108046798Y-65388500D01*
X108009932Y-65391401D01*
X108009926Y-65391402D01*
X107852106Y-65437254D01*
X107852103Y-65437255D01*
X107710637Y-65520917D01*
X107710629Y-65520923D01*
X107594423Y-65637129D01*
X107594417Y-65637137D01*
X107510755Y-65778603D01*
X107510754Y-65778606D01*
X107464902Y-65936426D01*
X107464901Y-65936432D01*
X107462000Y-65973298D01*
X107462000Y-67139500D01*
X107459449Y-67148185D01*
X107460738Y-67157147D01*
X107449759Y-67181187D01*
X107442315Y-67206539D01*
X107435474Y-67212466D01*
X107431713Y-67220703D01*
X107409478Y-67234992D01*
X107389511Y-67252294D01*
X107378996Y-67254581D01*
X107372935Y-67258477D01*
X107338000Y-67263500D01*
X107286500Y-67263500D01*
X107219461Y-67243815D01*
X107173706Y-67191011D01*
X107162500Y-67139500D01*
X107162500Y-66876500D01*
X105562500Y-66876500D01*
X105562500Y-67279649D01*
X105565399Y-67316489D01*
X105565400Y-67316495D01*
X105611216Y-67474193D01*
X105611217Y-67474196D01*
X105694814Y-67615552D01*
X105694821Y-67615561D01*
X105816460Y-67737200D01*
X105814693Y-67738966D01*
X105848417Y-67785659D01*
X105852209Y-67855426D01*
X105817680Y-67916168D01*
X105755793Y-67948599D01*
X105731511Y-67951000D01*
X104090510Y-67951000D01*
X104023471Y-67931315D01*
X103984393Y-67891150D01*
X103924443Y-67791981D01*
X103809518Y-67677056D01*
X103798040Y-67670118D01*
X103750852Y-67618592D01*
X103739012Y-67549732D01*
X103766279Y-67485403D01*
X103798040Y-67457882D01*
X103809518Y-67450943D01*
X103809517Y-67450943D01*
X103809520Y-67450942D01*
X103924442Y-67336020D01*
X103932906Y-67322020D01*
X103976745Y-67249500D01*
X104008521Y-67196936D01*
X104056872Y-67041772D01*
X104063000Y-66974337D01*
X104062999Y-66078664D01*
X104062999Y-66078663D01*
X104062999Y-66078655D01*
X104056873Y-66011232D01*
X104056872Y-66011226D01*
X104055808Y-66007812D01*
X104055807Y-66007810D01*
X104045069Y-65973350D01*
X105562500Y-65973350D01*
X105562500Y-66376500D01*
X106112500Y-66376500D01*
X106612500Y-66376500D01*
X107162500Y-66376500D01*
X107162500Y-65973365D01*
X107162499Y-65973350D01*
X107159600Y-65936510D01*
X107159599Y-65936504D01*
X107113783Y-65778806D01*
X107113782Y-65778803D01*
X107030185Y-65637447D01*
X107030178Y-65637438D01*
X106914061Y-65521321D01*
X106914052Y-65521314D01*
X106772696Y-65437717D01*
X106772693Y-65437716D01*
X106614994Y-65391900D01*
X106614997Y-65391900D01*
X106612500Y-65391703D01*
X106612500Y-66376500D01*
X106112500Y-66376500D01*
X106112500Y-65391703D01*
X106110003Y-65391900D01*
X105952306Y-65437716D01*
X105952303Y-65437717D01*
X105810947Y-65521314D01*
X105810938Y-65521321D01*
X105694821Y-65637438D01*
X105694814Y-65637447D01*
X105611217Y-65778803D01*
X105611216Y-65778806D01*
X105565400Y-65936504D01*
X105565399Y-65936510D01*
X105562500Y-65973350D01*
X104045069Y-65973350D01*
X104008521Y-65856064D01*
X104008520Y-65856062D01*
X103924446Y-65716985D01*
X103924442Y-65716980D01*
X103809519Y-65602057D01*
X103809514Y-65602053D01*
X103670437Y-65517979D01*
X103670435Y-65517978D01*
X103537609Y-65476588D01*
X103479462Y-65437851D01*
X103451488Y-65373825D01*
X103450500Y-65358203D01*
X103450500Y-63998037D01*
X103470185Y-63930998D01*
X103522989Y-63885243D01*
X103539900Y-63878962D01*
X103585398Y-63865744D01*
X103726865Y-63782081D01*
X103843081Y-63665865D01*
X103926744Y-63524398D01*
X103972598Y-63366569D01*
X103975500Y-63329694D01*
X103975500Y-62498306D01*
X103972598Y-62461431D01*
X103968529Y-62447426D01*
X103926745Y-62303606D01*
X103926745Y-62303605D01*
X103926744Y-62303603D01*
X103926744Y-62303602D01*
X103896001Y-62251619D01*
X103878820Y-62183896D01*
X103900981Y-62117634D01*
X103955447Y-62073871D01*
X104002735Y-62064500D01*
X114576432Y-62064500D01*
X114643471Y-62084185D01*
X114689226Y-62136989D01*
X114699170Y-62206147D01*
X114683165Y-62251620D01*
X114652421Y-62303605D01*
X114652421Y-62303606D01*
X114606569Y-62461426D01*
X114606568Y-62461432D01*
X114603667Y-62498298D01*
X114603667Y-63329701D01*
X114606568Y-63366567D01*
X114606569Y-63366573D01*
X114652421Y-63524393D01*
X114652422Y-63524396D01*
X114736084Y-63665862D01*
X114736090Y-63665870D01*
X114857818Y-63787598D01*
X114856721Y-63788694D01*
X114892403Y-63838088D01*
X114899500Y-63879438D01*
X114899500Y-65358203D01*
X114879815Y-65425242D01*
X114827011Y-65470997D01*
X114812391Y-65476588D01*
X114679564Y-65517978D01*
X114679562Y-65517979D01*
X114540485Y-65602053D01*
X114540480Y-65602057D01*
X114425557Y-65716980D01*
X114425553Y-65716985D01*
X114341479Y-65856062D01*
X114341477Y-65856066D01*
X114293128Y-66011226D01*
X114287000Y-66078665D01*
X114287000Y-66974344D01*
X114293126Y-67041767D01*
X114293128Y-67041775D01*
X114341478Y-67196935D01*
X114341479Y-67196937D01*
X114425553Y-67336014D01*
X114425557Y-67336019D01*
X114540480Y-67450942D01*
X114540482Y-67450943D01*
X114551961Y-67457883D01*
X114599149Y-67509411D01*
X114610987Y-67578271D01*
X114583718Y-67642599D01*
X114551961Y-67670117D01*
X114540482Y-67677056D01*
X114540480Y-67677057D01*
X114425557Y-67791980D01*
X114425553Y-67791985D01*
X114341479Y-67931062D01*
X114341477Y-67931066D01*
X114293128Y-68086226D01*
X114287000Y-68153665D01*
X114287000Y-69049344D01*
X114293126Y-69116767D01*
X114293128Y-69116775D01*
X114341478Y-69271935D01*
X114341479Y-69271937D01*
X114425553Y-69411014D01*
X114425557Y-69411019D01*
X114540480Y-69525942D01*
X114540485Y-69525946D01*
X114679562Y-69610020D01*
X114679566Y-69610022D01*
X114734450Y-69627124D01*
X114834728Y-69658372D01*
X114902163Y-69664500D01*
X116197836Y-69664499D01*
X116197843Y-69664499D01*
X116265267Y-69658373D01*
X116265270Y-69658372D01*
X116265272Y-69658372D01*
X116420436Y-69610021D01*
X116517128Y-69551569D01*
X116559514Y-69525946D01*
X116559515Y-69525944D01*
X116559520Y-69525942D01*
X116674442Y-69411020D01*
X116682906Y-69397020D01*
X116758520Y-69271937D01*
X116758521Y-69271936D01*
X116763994Y-69254372D01*
X116768751Y-69239109D01*
X116807489Y-69180961D01*
X116871514Y-69152988D01*
X116887136Y-69152000D01*
X119258221Y-69152000D01*
X119325260Y-69171685D01*
X119371015Y-69224489D01*
X119377297Y-69241405D01*
X119408670Y-69349393D01*
X119408672Y-69349396D01*
X119492334Y-69490862D01*
X119492340Y-69490870D01*
X119608546Y-69607076D01*
X119608550Y-69607079D01*
X119608552Y-69607081D01*
X119750019Y-69690744D01*
X119791641Y-69702836D01*
X119907843Y-69736597D01*
X119907846Y-69736597D01*
X119907848Y-69736598D01*
X119944723Y-69739500D01*
X119944731Y-69739500D01*
X120376103Y-69739500D01*
X120376111Y-69739500D01*
X120412986Y-69736598D01*
X120412988Y-69736597D01*
X120412990Y-69736597D01*
X120461177Y-69722597D01*
X120570815Y-69690744D01*
X120712282Y-69607081D01*
X120828498Y-69490865D01*
X120912161Y-69349398D01*
X120958015Y-69191569D01*
X120960917Y-69154694D01*
X120960917Y-67988500D01*
X120980602Y-67921461D01*
X121033406Y-67875706D01*
X121084917Y-67864500D01*
X121326103Y-67864500D01*
X121326111Y-67864500D01*
X121362986Y-67861598D01*
X121362988Y-67861597D01*
X121362990Y-67861597D01*
X121411480Y-67847509D01*
X121520815Y-67815744D01*
X121662282Y-67732081D01*
X121778498Y-67615865D01*
X121815084Y-67554001D01*
X121866151Y-67506319D01*
X121934893Y-67493815D01*
X121999482Y-67520460D01*
X122009496Y-67529442D01*
X123027789Y-68547735D01*
X123061274Y-68609058D01*
X123056290Y-68678750D01*
X123027789Y-68723097D01*
X121650204Y-70100681D01*
X121588881Y-70134166D01*
X121562523Y-70137000D01*
X120822988Y-70137000D01*
X120755565Y-70143126D01*
X120755557Y-70143128D01*
X120600397Y-70191478D01*
X120600395Y-70191479D01*
X120461318Y-70275553D01*
X120461313Y-70275557D01*
X120346390Y-70390480D01*
X120346387Y-70390484D01*
X120339156Y-70402446D01*
X120287627Y-70449632D01*
X120218767Y-70461469D01*
X120154439Y-70434198D01*
X120126924Y-70402443D01*
X120119880Y-70390792D01*
X120119879Y-70390790D01*
X120005042Y-70275953D01*
X120005038Y-70275950D01*
X119866065Y-70191939D01*
X119711010Y-70143622D01*
X119643632Y-70137500D01*
X119445833Y-70137500D01*
X119445833Y-71276000D01*
X119426148Y-71343039D01*
X119373344Y-71388794D01*
X119321833Y-71400000D01*
X119195833Y-71400000D01*
X119195833Y-71526000D01*
X119176148Y-71593039D01*
X119123344Y-71638794D01*
X119071833Y-71650000D01*
X118133333Y-71650000D01*
X118133333Y-72047799D01*
X118139455Y-72115177D01*
X118187772Y-72270232D01*
X118271783Y-72409205D01*
X118271786Y-72409209D01*
X118386621Y-72524044D01*
X118391532Y-72527892D01*
X118432162Y-72584734D01*
X118435612Y-72654518D01*
X118400785Y-72715090D01*
X118338740Y-72747217D01*
X118315055Y-72749500D01*
X113185932Y-72749500D01*
X113060264Y-72774497D01*
X113060254Y-72774500D01*
X113011223Y-72794810D01*
X112941884Y-72823530D01*
X112941866Y-72823540D01*
X112835335Y-72894721D01*
X112835328Y-72894727D01*
X106976179Y-78753876D01*
X106914856Y-78787361D01*
X106869100Y-78788668D01*
X106735482Y-78767505D01*
X106701362Y-78762101D01*
X106498642Y-78762101D01*
X106460811Y-78768093D01*
X106298421Y-78793813D01*
X106105617Y-78856459D01*
X105924992Y-78948493D01*
X105760997Y-79067640D01*
X105617641Y-79210996D01*
X105498494Y-79374991D01*
X105406460Y-79555616D01*
X105343814Y-79748420D01*
X105338670Y-79780900D01*
X105312102Y-79948641D01*
X105312102Y-80151361D01*
X105321672Y-80211783D01*
X105334662Y-80293800D01*
X105343815Y-80351585D01*
X105406459Y-80544383D01*
X105496753Y-80721595D01*
X105498494Y-80725010D01*
X105617641Y-80889005D01*
X105760995Y-81032359D01*
X105804191Y-81063742D01*
X105898387Y-81132178D01*
X105941053Y-81187507D01*
X105949502Y-81232496D01*
X105949502Y-81867503D01*
X105929817Y-81934542D01*
X105898387Y-81967821D01*
X105760998Y-82067639D01*
X105760993Y-82067643D01*
X105617641Y-82210995D01*
X105498494Y-82374990D01*
X105406460Y-82555615D01*
X105343814Y-82748419D01*
X105335429Y-82801359D01*
X105312102Y-82948640D01*
X105312102Y-83151360D01*
X105319339Y-83197050D01*
X105343795Y-83351463D01*
X105343815Y-83351584D01*
X105406459Y-83544382D01*
X105498362Y-83724751D01*
X105498494Y-83725009D01*
X105617641Y-83889004D01*
X105760997Y-84032360D01*
X105914458Y-84143854D01*
X105924996Y-84151510D01*
X106105620Y-84243543D01*
X106298418Y-84306187D01*
X106498642Y-84337900D01*
X106498643Y-84337900D01*
X106701361Y-84337900D01*
X106701362Y-84337900D01*
X106901586Y-84306187D01*
X107094384Y-84243543D01*
X107275008Y-84151510D01*
X107367087Y-84084610D01*
X107439006Y-84032360D01*
X107439008Y-84032357D01*
X107439012Y-84032355D01*
X107582357Y-83889010D01*
X107582359Y-83889006D01*
X107582362Y-83889004D01*
X107671075Y-83766899D01*
X107701512Y-83725006D01*
X107793545Y-83544382D01*
X107856189Y-83351584D01*
X107887902Y-83151360D01*
X107887902Y-82948640D01*
X107856189Y-82748416D01*
X107793545Y-82555618D01*
X107701512Y-82374994D01*
X107659803Y-82317586D01*
X107582362Y-82210995D01*
X107439010Y-82067643D01*
X107439005Y-82067639D01*
X107301617Y-81967821D01*
X107258951Y-81912491D01*
X107250502Y-81867503D01*
X107250502Y-81232496D01*
X107270187Y-81165457D01*
X107301615Y-81132179D01*
X107439012Y-81032356D01*
X107582357Y-80889011D01*
X107582359Y-80889007D01*
X107582362Y-80889005D01*
X107665015Y-80775241D01*
X107701512Y-80725007D01*
X107793545Y-80544383D01*
X107856189Y-80351585D01*
X107887902Y-80151361D01*
X107887902Y-79948641D01*
X107861334Y-79780900D01*
X107870288Y-79711607D01*
X107896123Y-79673824D01*
X108260223Y-79309724D01*
X108321544Y-79276241D01*
X108391236Y-79281225D01*
X108447169Y-79323097D01*
X108471586Y-79388561D01*
X108458387Y-79453702D01*
X108406459Y-79555616D01*
X108343813Y-79748420D01*
X108338669Y-79780900D01*
X108312101Y-79948641D01*
X108312101Y-80151361D01*
X108321671Y-80211783D01*
X108334661Y-80293800D01*
X108343814Y-80351585D01*
X108406458Y-80544383D01*
X108496752Y-80721595D01*
X108498493Y-80725010D01*
X108617640Y-80889005D01*
X108760994Y-81032359D01*
X108804190Y-81063742D01*
X108898386Y-81132178D01*
X108941052Y-81187507D01*
X108949501Y-81232496D01*
X108949501Y-81867503D01*
X108929816Y-81934542D01*
X108898386Y-81967821D01*
X108760997Y-82067639D01*
X108760992Y-82067643D01*
X108617640Y-82210995D01*
X108498493Y-82374990D01*
X108406459Y-82555615D01*
X108343813Y-82748419D01*
X108335428Y-82801359D01*
X108312101Y-82948640D01*
X108312101Y-83151360D01*
X108319338Y-83197050D01*
X108343794Y-83351463D01*
X108343814Y-83351584D01*
X108406458Y-83544382D01*
X108498361Y-83724751D01*
X108498493Y-83725009D01*
X108617640Y-83889004D01*
X108760996Y-84032360D01*
X108914457Y-84143854D01*
X108924995Y-84151510D01*
X109105619Y-84243543D01*
X109298417Y-84306187D01*
X109498641Y-84337900D01*
X109498642Y-84337900D01*
X109701360Y-84337900D01*
X109701361Y-84337900D01*
X109901585Y-84306187D01*
X110094383Y-84243543D01*
X110275007Y-84151510D01*
X110367086Y-84084610D01*
X110439005Y-84032360D01*
X110439007Y-84032357D01*
X110439011Y-84032355D01*
X110582356Y-83889010D01*
X110582358Y-83889006D01*
X110582361Y-83889004D01*
X110671074Y-83766899D01*
X110701511Y-83725006D01*
X110793544Y-83544382D01*
X110856188Y-83351584D01*
X110887901Y-83151360D01*
X110887901Y-82948640D01*
X110856188Y-82748416D01*
X110793544Y-82555618D01*
X110701511Y-82374994D01*
X110659802Y-82317586D01*
X110582361Y-82210995D01*
X110439009Y-82067643D01*
X110439004Y-82067639D01*
X110301616Y-81967821D01*
X110258950Y-81912491D01*
X110250501Y-81867503D01*
X110250501Y-81232496D01*
X110270186Y-81165457D01*
X110301614Y-81132179D01*
X110439011Y-81032356D01*
X110582356Y-80889011D01*
X110582358Y-80889007D01*
X110582361Y-80889005D01*
X110665014Y-80775241D01*
X110701511Y-80725007D01*
X110793544Y-80544383D01*
X110856188Y-80351585D01*
X110887901Y-80151361D01*
X110887901Y-79948641D01*
X110861333Y-79780900D01*
X110870287Y-79711607D01*
X110896122Y-79673824D01*
X111260220Y-79309726D01*
X111321543Y-79276242D01*
X111391235Y-79281226D01*
X111447168Y-79323098D01*
X111471585Y-79388562D01*
X111458386Y-79453703D01*
X111406458Y-79555616D01*
X111343812Y-79748420D01*
X111338668Y-79780900D01*
X111312100Y-79948641D01*
X111312100Y-80151361D01*
X111321670Y-80211783D01*
X111334660Y-80293800D01*
X111343813Y-80351585D01*
X111406457Y-80544383D01*
X111496751Y-80721595D01*
X111498492Y-80725010D01*
X111617639Y-80889005D01*
X111760993Y-81032359D01*
X111804189Y-81063742D01*
X111898385Y-81132178D01*
X111941051Y-81187507D01*
X111949500Y-81232496D01*
X111949500Y-81867503D01*
X111929815Y-81934542D01*
X111898385Y-81967821D01*
X111760996Y-82067639D01*
X111760991Y-82067643D01*
X111617639Y-82210995D01*
X111498492Y-82374990D01*
X111406458Y-82555615D01*
X111343812Y-82748419D01*
X111335427Y-82801359D01*
X111312100Y-82948640D01*
X111312100Y-83151360D01*
X111319337Y-83197050D01*
X111343793Y-83351463D01*
X111343813Y-83351584D01*
X111406457Y-83544382D01*
X111498360Y-83724751D01*
X111498492Y-83725009D01*
X111617639Y-83889004D01*
X111760995Y-84032360D01*
X111914456Y-84143854D01*
X111924994Y-84151510D01*
X112105618Y-84243543D01*
X112298416Y-84306187D01*
X112498640Y-84337900D01*
X112498641Y-84337900D01*
X112701359Y-84337900D01*
X112701360Y-84337900D01*
X112901584Y-84306187D01*
X113094382Y-84243543D01*
X113275006Y-84151510D01*
X113367085Y-84084610D01*
X113439004Y-84032360D01*
X113439006Y-84032357D01*
X113439010Y-84032355D01*
X113582355Y-83889010D01*
X113582357Y-83889006D01*
X113582360Y-83889004D01*
X113671073Y-83766899D01*
X113701510Y-83725006D01*
X113793543Y-83544382D01*
X113856187Y-83351584D01*
X113887900Y-83151360D01*
X113887900Y-82948640D01*
X113856187Y-82748416D01*
X113793543Y-82555618D01*
X113701510Y-82374994D01*
X113659801Y-82317586D01*
X113582360Y-82210995D01*
X113439008Y-82067643D01*
X113439003Y-82067639D01*
X113301615Y-81967821D01*
X113258949Y-81912491D01*
X113250500Y-81867503D01*
X113250500Y-81232496D01*
X113270185Y-81165457D01*
X113301613Y-81132179D01*
X113439010Y-81032356D01*
X113582355Y-80889011D01*
X113582357Y-80889007D01*
X113582360Y-80889005D01*
X113665013Y-80775241D01*
X113701510Y-80725007D01*
X113793543Y-80544383D01*
X113856187Y-80351585D01*
X113887900Y-80151361D01*
X113887900Y-80025575D01*
X124199500Y-80025575D01*
X124199500Y-80374425D01*
X124199558Y-80375010D01*
X124233692Y-80721594D01*
X124301744Y-81063721D01*
X124301747Y-81063732D01*
X124403016Y-81397571D01*
X124494247Y-81617821D01*
X124535595Y-81717645D01*
X124536516Y-81719867D01*
X124536518Y-81719872D01*
X124700955Y-82027511D01*
X124700972Y-82027539D01*
X124894759Y-82317563D01*
X124894776Y-82317586D01*
X125116084Y-82587251D01*
X125362748Y-82833915D01*
X125362753Y-82833919D01*
X125362754Y-82833920D01*
X125632419Y-83055228D01*
X125632426Y-83055233D01*
X125632436Y-83055240D01*
X125922460Y-83249027D01*
X125922465Y-83249030D01*
X125922477Y-83249038D01*
X125922486Y-83249042D01*
X125922488Y-83249044D01*
X126230127Y-83413481D01*
X126230129Y-83413481D01*
X126230135Y-83413485D01*
X126552430Y-83546984D01*
X126886258Y-83648250D01*
X126886264Y-83648251D01*
X126886267Y-83648252D01*
X126886278Y-83648255D01*
X127228405Y-83716307D01*
X127575575Y-83750500D01*
X127575578Y-83750500D01*
X127924422Y-83750500D01*
X127924425Y-83750500D01*
X128271595Y-83716307D01*
X128338197Y-83703059D01*
X128613721Y-83648255D01*
X128613732Y-83648252D01*
X128613732Y-83648251D01*
X128613742Y-83648250D01*
X128947570Y-83546984D01*
X129269865Y-83413485D01*
X129577523Y-83249038D01*
X129867581Y-83055228D01*
X130137246Y-82833920D01*
X130383920Y-82587246D01*
X130605228Y-82317581D01*
X130799038Y-82027523D01*
X130963485Y-81719865D01*
X131096984Y-81397570D01*
X131198250Y-81063742D01*
X131198252Y-81063732D01*
X131198255Y-81063721D01*
X131266307Y-80721594D01*
X131269277Y-80691439D01*
X131300500Y-80374425D01*
X131300500Y-80025575D01*
X131266307Y-79678405D01*
X131250441Y-79598640D01*
X131198255Y-79336278D01*
X131198252Y-79336267D01*
X131198251Y-79336264D01*
X131198250Y-79336258D01*
X131120667Y-79080502D01*
X132519500Y-79080502D01*
X132519500Y-79299497D01*
X132539803Y-79453703D01*
X132548083Y-79516598D01*
X132548084Y-79516600D01*
X132590210Y-79673821D01*
X132604759Y-79728117D01*
X132688560Y-79930428D01*
X132688562Y-79930433D01*
X132688565Y-79930438D01*
X132798049Y-80120070D01*
X132931355Y-80293798D01*
X132931361Y-80293805D01*
X133086194Y-80448638D01*
X133086201Y-80448644D01*
X133259929Y-80581950D01*
X133449561Y-80691434D01*
X133449563Y-80691434D01*
X133449572Y-80691440D01*
X133651883Y-80775241D01*
X133863402Y-80831917D01*
X134080510Y-80860500D01*
X134080517Y-80860500D01*
X134299483Y-80860500D01*
X134299490Y-80860500D01*
X134516598Y-80831917D01*
X134728117Y-80775241D01*
X134930428Y-80691440D01*
X135120071Y-80581950D01*
X135293800Y-80448643D01*
X135448643Y-80293800D01*
X135581950Y-80120071D01*
X135691440Y-79930428D01*
X135775241Y-79728117D01*
X135831917Y-79516598D01*
X135860500Y-79299490D01*
X135860500Y-79080510D01*
X135860499Y-79080502D01*
X136959500Y-79080502D01*
X136959500Y-79299497D01*
X136979803Y-79453703D01*
X136988083Y-79516598D01*
X136988084Y-79516600D01*
X137030210Y-79673821D01*
X137044759Y-79728117D01*
X137128560Y-79930428D01*
X137128562Y-79930433D01*
X137128565Y-79930438D01*
X137238049Y-80120070D01*
X137371355Y-80293798D01*
X137371361Y-80293805D01*
X137526194Y-80448638D01*
X137526201Y-80448644D01*
X137699929Y-80581950D01*
X137889561Y-80691434D01*
X137889563Y-80691434D01*
X137889572Y-80691440D01*
X138091883Y-80775241D01*
X138303402Y-80831917D01*
X138520510Y-80860500D01*
X138520517Y-80860500D01*
X138739483Y-80860500D01*
X138739490Y-80860500D01*
X138956598Y-80831917D01*
X139168117Y-80775241D01*
X139370428Y-80691440D01*
X139560071Y-80581950D01*
X139733800Y-80448643D01*
X139888643Y-80293800D01*
X140021950Y-80120071D01*
X140131440Y-79930428D01*
X140215241Y-79728117D01*
X140271917Y-79516598D01*
X140300500Y-79299490D01*
X140300500Y-79080510D01*
X140300499Y-79080502D01*
X141399500Y-79080502D01*
X141399500Y-79299497D01*
X141419803Y-79453703D01*
X141428083Y-79516598D01*
X141428084Y-79516600D01*
X141470210Y-79673821D01*
X141484759Y-79728117D01*
X141568560Y-79930428D01*
X141568562Y-79930433D01*
X141568565Y-79930438D01*
X141678049Y-80120070D01*
X141811355Y-80293798D01*
X141811361Y-80293805D01*
X141966194Y-80448638D01*
X141966201Y-80448644D01*
X142139929Y-80581950D01*
X142329561Y-80691434D01*
X142329563Y-80691434D01*
X142329572Y-80691440D01*
X142531883Y-80775241D01*
X142743402Y-80831917D01*
X142960510Y-80860500D01*
X142960517Y-80860500D01*
X143179483Y-80860500D01*
X143179490Y-80860500D01*
X143396598Y-80831917D01*
X143608117Y-80775241D01*
X143810428Y-80691440D01*
X144000071Y-80581950D01*
X144173800Y-80448643D01*
X144328643Y-80293800D01*
X144461950Y-80120071D01*
X144571440Y-79930428D01*
X144655241Y-79728117D01*
X144711917Y-79516598D01*
X144740500Y-79299490D01*
X144740500Y-79080510D01*
X144740499Y-79080502D01*
X145839500Y-79080502D01*
X145839500Y-79299497D01*
X145859803Y-79453703D01*
X145868083Y-79516598D01*
X145868084Y-79516600D01*
X145910210Y-79673821D01*
X145924759Y-79728117D01*
X146008560Y-79930428D01*
X146008562Y-79930433D01*
X146008565Y-79930438D01*
X146118049Y-80120070D01*
X146251355Y-80293798D01*
X146251361Y-80293805D01*
X146406194Y-80448638D01*
X146406201Y-80448644D01*
X146579929Y-80581950D01*
X146769561Y-80691434D01*
X146769563Y-80691434D01*
X146769572Y-80691440D01*
X146971883Y-80775241D01*
X147183402Y-80831917D01*
X147400510Y-80860500D01*
X147400517Y-80860500D01*
X147619483Y-80860500D01*
X147619490Y-80860500D01*
X147836598Y-80831917D01*
X148048117Y-80775241D01*
X148250428Y-80691440D01*
X148440071Y-80581950D01*
X148613800Y-80448643D01*
X148768643Y-80293800D01*
X148901950Y-80120071D01*
X149011440Y-79930428D01*
X149095241Y-79728117D01*
X149151917Y-79516598D01*
X149180500Y-79299490D01*
X149180500Y-79080510D01*
X149180499Y-79080502D01*
X150279500Y-79080502D01*
X150279500Y-79299497D01*
X150299803Y-79453703D01*
X150308083Y-79516598D01*
X150308084Y-79516600D01*
X150350210Y-79673821D01*
X150364759Y-79728117D01*
X150448560Y-79930428D01*
X150448562Y-79930433D01*
X150448565Y-79930438D01*
X150558049Y-80120070D01*
X150691355Y-80293798D01*
X150691361Y-80293805D01*
X150846194Y-80448638D01*
X150846201Y-80448644D01*
X151019929Y-80581950D01*
X151209561Y-80691434D01*
X151209563Y-80691434D01*
X151209572Y-80691440D01*
X151411883Y-80775241D01*
X151623402Y-80831917D01*
X151840510Y-80860500D01*
X151840517Y-80860500D01*
X152059483Y-80860500D01*
X152059490Y-80860500D01*
X152276598Y-80831917D01*
X152488117Y-80775241D01*
X152690428Y-80691440D01*
X152880071Y-80581950D01*
X153053800Y-80448643D01*
X153208643Y-80293800D01*
X153341950Y-80120071D01*
X153451440Y-79930428D01*
X153535241Y-79728117D01*
X153591917Y-79516598D01*
X153620500Y-79299490D01*
X153620500Y-79080510D01*
X153620499Y-79080502D01*
X154719500Y-79080502D01*
X154719500Y-79299497D01*
X154739803Y-79453703D01*
X154748083Y-79516598D01*
X154748084Y-79516600D01*
X154790210Y-79673821D01*
X154804759Y-79728117D01*
X154888560Y-79930428D01*
X154888562Y-79930433D01*
X154888565Y-79930438D01*
X154998049Y-80120070D01*
X155131355Y-80293798D01*
X155131361Y-80293805D01*
X155286194Y-80448638D01*
X155286201Y-80448644D01*
X155459929Y-80581950D01*
X155649561Y-80691434D01*
X155649563Y-80691434D01*
X155649572Y-80691440D01*
X155851883Y-80775241D01*
X156063402Y-80831917D01*
X156280510Y-80860500D01*
X156280517Y-80860500D01*
X156499483Y-80860500D01*
X156499490Y-80860500D01*
X156716598Y-80831917D01*
X156928117Y-80775241D01*
X157130428Y-80691440D01*
X157320071Y-80581950D01*
X157493800Y-80448643D01*
X157648643Y-80293800D01*
X157781950Y-80120071D01*
X157836507Y-80025575D01*
X159279500Y-80025575D01*
X159279500Y-80374425D01*
X159279558Y-80375010D01*
X159313692Y-80721594D01*
X159381744Y-81063721D01*
X159381747Y-81063732D01*
X159483016Y-81397571D01*
X159574247Y-81617821D01*
X159615595Y-81717645D01*
X159616516Y-81719867D01*
X159616518Y-81719872D01*
X159780955Y-82027511D01*
X159780972Y-82027539D01*
X159974759Y-82317563D01*
X159974776Y-82317586D01*
X160196084Y-82587251D01*
X160442748Y-82833915D01*
X160442753Y-82833919D01*
X160442754Y-82833920D01*
X160712419Y-83055228D01*
X160712426Y-83055233D01*
X160712436Y-83055240D01*
X161002460Y-83249027D01*
X161002465Y-83249030D01*
X161002477Y-83249038D01*
X161002486Y-83249042D01*
X161002488Y-83249044D01*
X161310127Y-83413481D01*
X161310129Y-83413481D01*
X161310135Y-83413485D01*
X161632430Y-83546984D01*
X161966258Y-83648250D01*
X161966264Y-83648251D01*
X161966267Y-83648252D01*
X161966278Y-83648255D01*
X162308405Y-83716307D01*
X162655575Y-83750500D01*
X162655578Y-83750500D01*
X163004422Y-83750500D01*
X163004425Y-83750500D01*
X163351595Y-83716307D01*
X163418197Y-83703059D01*
X163693721Y-83648255D01*
X163693732Y-83648252D01*
X163693732Y-83648251D01*
X163693742Y-83648250D01*
X164027570Y-83546984D01*
X164349865Y-83413485D01*
X164657523Y-83249038D01*
X164947581Y-83055228D01*
X165217246Y-82833920D01*
X165463920Y-82587246D01*
X165685228Y-82317581D01*
X165879038Y-82027523D01*
X166043485Y-81719865D01*
X166176984Y-81397570D01*
X166278250Y-81063742D01*
X166278252Y-81063732D01*
X166278255Y-81063721D01*
X166346307Y-80721594D01*
X166349277Y-80691439D01*
X166380500Y-80374425D01*
X166380500Y-80025575D01*
X166346307Y-79678405D01*
X166330441Y-79598640D01*
X166278255Y-79336278D01*
X166278252Y-79336267D01*
X166278251Y-79336264D01*
X166278250Y-79336258D01*
X166176984Y-79002430D01*
X166043485Y-78680135D01*
X166028384Y-78651884D01*
X165879044Y-78372488D01*
X165879042Y-78372486D01*
X165879038Y-78372477D01*
X165879027Y-78372460D01*
X165685240Y-78082436D01*
X165685233Y-78082426D01*
X165685228Y-78082419D01*
X165463920Y-77812754D01*
X165463919Y-77812753D01*
X165463915Y-77812748D01*
X165217251Y-77566084D01*
X164947586Y-77344776D01*
X164947563Y-77344759D01*
X164657539Y-77150972D01*
X164657511Y-77150955D01*
X164349872Y-76986518D01*
X164349867Y-76986516D01*
X164027571Y-76853016D01*
X163693732Y-76751747D01*
X163693721Y-76751744D01*
X163351594Y-76683692D01*
X163090120Y-76657940D01*
X163004425Y-76649500D01*
X162655575Y-76649500D01*
X162576394Y-76657298D01*
X162308405Y-76683692D01*
X161966278Y-76751744D01*
X161966267Y-76751747D01*
X161632428Y-76853016D01*
X161310132Y-76986516D01*
X161310127Y-76986518D01*
X161002488Y-77150955D01*
X161002460Y-77150972D01*
X160712436Y-77344759D01*
X160712413Y-77344776D01*
X160442748Y-77566084D01*
X160196084Y-77812748D01*
X159974776Y-78082413D01*
X159974759Y-78082436D01*
X159780972Y-78372460D01*
X159780955Y-78372488D01*
X159616518Y-78680127D01*
X159616516Y-78680132D01*
X159483016Y-79002428D01*
X159381747Y-79336267D01*
X159381744Y-79336278D01*
X159313692Y-79678405D01*
X159288871Y-79930426D01*
X159279500Y-80025575D01*
X157836507Y-80025575D01*
X157891440Y-79930428D01*
X157975241Y-79728117D01*
X158031917Y-79516598D01*
X158060500Y-79299490D01*
X158060500Y-79080510D01*
X158031917Y-78863402D01*
X157975241Y-78651883D01*
X157891440Y-78449572D01*
X157879974Y-78429713D01*
X157781950Y-78259929D01*
X157648644Y-78086201D01*
X157648638Y-78086194D01*
X157493805Y-77931361D01*
X157493798Y-77931355D01*
X157320070Y-77798049D01*
X157130438Y-77688565D01*
X157130433Y-77688562D01*
X157130428Y-77688560D01*
X156928117Y-77604759D01*
X156928118Y-77604759D01*
X156928115Y-77604758D01*
X156822357Y-77576421D01*
X156716598Y-77548083D01*
X156680314Y-77543306D01*
X156499497Y-77519500D01*
X156499490Y-77519500D01*
X156280510Y-77519500D01*
X156280502Y-77519500D01*
X156073853Y-77546707D01*
X156063402Y-77548083D01*
X156054382Y-77550500D01*
X155851884Y-77604758D01*
X155733374Y-77653847D01*
X155649572Y-77688560D01*
X155649569Y-77688561D01*
X155649561Y-77688565D01*
X155459929Y-77798049D01*
X155286201Y-77931355D01*
X155286194Y-77931361D01*
X155131361Y-78086194D01*
X155131355Y-78086201D01*
X154998049Y-78259929D01*
X154888565Y-78449561D01*
X154888560Y-78449573D01*
X154804758Y-78651884D01*
X154787138Y-78717646D01*
X154749944Y-78856459D01*
X154748084Y-78863399D01*
X154748082Y-78863410D01*
X154719500Y-79080502D01*
X153620499Y-79080502D01*
X153591917Y-78863402D01*
X153535241Y-78651883D01*
X153451440Y-78449572D01*
X153439974Y-78429713D01*
X153341950Y-78259929D01*
X153208644Y-78086201D01*
X153208638Y-78086194D01*
X153053805Y-77931361D01*
X153053798Y-77931355D01*
X152880070Y-77798049D01*
X152690438Y-77688565D01*
X152690433Y-77688562D01*
X152690428Y-77688560D01*
X152488117Y-77604759D01*
X152488118Y-77604759D01*
X152488115Y-77604758D01*
X152382357Y-77576421D01*
X152276598Y-77548083D01*
X152240314Y-77543306D01*
X152059497Y-77519500D01*
X152059490Y-77519500D01*
X151840510Y-77519500D01*
X151840502Y-77519500D01*
X151633853Y-77546707D01*
X151623402Y-77548083D01*
X151614382Y-77550500D01*
X151411884Y-77604758D01*
X151293374Y-77653847D01*
X151209572Y-77688560D01*
X151209569Y-77688561D01*
X151209561Y-77688565D01*
X151019929Y-77798049D01*
X150846201Y-77931355D01*
X150846194Y-77931361D01*
X150691361Y-78086194D01*
X150691355Y-78086201D01*
X150558049Y-78259929D01*
X150448565Y-78449561D01*
X150448560Y-78449573D01*
X150364758Y-78651884D01*
X150347138Y-78717646D01*
X150309944Y-78856459D01*
X150308084Y-78863399D01*
X150308082Y-78863410D01*
X150279500Y-79080502D01*
X149180499Y-79080502D01*
X149151917Y-78863402D01*
X149095241Y-78651883D01*
X149011440Y-78449572D01*
X148999974Y-78429713D01*
X148901950Y-78259929D01*
X148768644Y-78086201D01*
X148768638Y-78086194D01*
X148613805Y-77931361D01*
X148613798Y-77931355D01*
X148440070Y-77798049D01*
X148250438Y-77688565D01*
X148250433Y-77688562D01*
X148250428Y-77688560D01*
X148048117Y-77604759D01*
X148048118Y-77604759D01*
X148048115Y-77604758D01*
X147942357Y-77576421D01*
X147836598Y-77548083D01*
X147800314Y-77543306D01*
X147619497Y-77519500D01*
X147619490Y-77519500D01*
X147400510Y-77519500D01*
X147400502Y-77519500D01*
X147193853Y-77546707D01*
X147183402Y-77548083D01*
X147174382Y-77550500D01*
X146971884Y-77604758D01*
X146853374Y-77653847D01*
X146769572Y-77688560D01*
X146769569Y-77688561D01*
X146769561Y-77688565D01*
X146579929Y-77798049D01*
X146406201Y-77931355D01*
X146406194Y-77931361D01*
X146251361Y-78086194D01*
X146251355Y-78086201D01*
X146118049Y-78259929D01*
X146008565Y-78449561D01*
X146008560Y-78449573D01*
X145924758Y-78651884D01*
X145907138Y-78717646D01*
X145869944Y-78856459D01*
X145868084Y-78863399D01*
X145868082Y-78863410D01*
X145839500Y-79080502D01*
X144740499Y-79080502D01*
X144711917Y-78863402D01*
X144655241Y-78651883D01*
X144571440Y-78449572D01*
X144559974Y-78429713D01*
X144461950Y-78259929D01*
X144328644Y-78086201D01*
X144328638Y-78086194D01*
X144173805Y-77931361D01*
X144173798Y-77931355D01*
X144000070Y-77798049D01*
X143810438Y-77688565D01*
X143810433Y-77688562D01*
X143810428Y-77688560D01*
X143608117Y-77604759D01*
X143608118Y-77604759D01*
X143608115Y-77604758D01*
X143502357Y-77576421D01*
X143396598Y-77548083D01*
X143360314Y-77543306D01*
X143179497Y-77519500D01*
X143179490Y-77519500D01*
X142960510Y-77519500D01*
X142960502Y-77519500D01*
X142753853Y-77546707D01*
X142743402Y-77548083D01*
X142734382Y-77550500D01*
X142531884Y-77604758D01*
X142413374Y-77653847D01*
X142329572Y-77688560D01*
X142329569Y-77688561D01*
X142329561Y-77688565D01*
X142139929Y-77798049D01*
X141966201Y-77931355D01*
X141966194Y-77931361D01*
X141811361Y-78086194D01*
X141811355Y-78086201D01*
X141678049Y-78259929D01*
X141568565Y-78449561D01*
X141568560Y-78449573D01*
X141484758Y-78651884D01*
X141467138Y-78717646D01*
X141429944Y-78856459D01*
X141428084Y-78863399D01*
X141428082Y-78863410D01*
X141399500Y-79080502D01*
X140300499Y-79080502D01*
X140271917Y-78863402D01*
X140215241Y-78651883D01*
X140131440Y-78449572D01*
X140119974Y-78429713D01*
X140021950Y-78259929D01*
X139888644Y-78086201D01*
X139888638Y-78086194D01*
X139733805Y-77931361D01*
X139733798Y-77931355D01*
X139560070Y-77798049D01*
X139370438Y-77688565D01*
X139370433Y-77688562D01*
X139370428Y-77688560D01*
X139168117Y-77604759D01*
X139168118Y-77604759D01*
X139168115Y-77604758D01*
X139062357Y-77576421D01*
X138956598Y-77548083D01*
X138920314Y-77543306D01*
X138739497Y-77519500D01*
X138739490Y-77519500D01*
X138520510Y-77519500D01*
X138520502Y-77519500D01*
X138313853Y-77546707D01*
X138303402Y-77548083D01*
X138294382Y-77550500D01*
X138091884Y-77604758D01*
X137973374Y-77653847D01*
X137889572Y-77688560D01*
X137889569Y-77688561D01*
X137889561Y-77688565D01*
X137699929Y-77798049D01*
X137526201Y-77931355D01*
X137526194Y-77931361D01*
X137371361Y-78086194D01*
X137371355Y-78086201D01*
X137238049Y-78259929D01*
X137128565Y-78449561D01*
X137128560Y-78449573D01*
X137044758Y-78651884D01*
X137027138Y-78717646D01*
X136989944Y-78856459D01*
X136988084Y-78863399D01*
X136988082Y-78863410D01*
X136959500Y-79080502D01*
X135860499Y-79080502D01*
X135831917Y-78863402D01*
X135775241Y-78651883D01*
X135691440Y-78449572D01*
X135679974Y-78429713D01*
X135581950Y-78259929D01*
X135448644Y-78086201D01*
X135448638Y-78086194D01*
X135293805Y-77931361D01*
X135293798Y-77931355D01*
X135120070Y-77798049D01*
X134930438Y-77688565D01*
X134930433Y-77688562D01*
X134930428Y-77688560D01*
X134728117Y-77604759D01*
X134728118Y-77604759D01*
X134728115Y-77604758D01*
X134622357Y-77576421D01*
X134516598Y-77548083D01*
X134480314Y-77543306D01*
X134299497Y-77519500D01*
X134299490Y-77519500D01*
X134080510Y-77519500D01*
X134080502Y-77519500D01*
X133873853Y-77546707D01*
X133863402Y-77548083D01*
X133854382Y-77550500D01*
X133651884Y-77604758D01*
X133533374Y-77653847D01*
X133449572Y-77688560D01*
X133449569Y-77688561D01*
X133449561Y-77688565D01*
X133259929Y-77798049D01*
X133086201Y-77931355D01*
X133086194Y-77931361D01*
X132931361Y-78086194D01*
X132931355Y-78086201D01*
X132798049Y-78259929D01*
X132688565Y-78449561D01*
X132688560Y-78449573D01*
X132604758Y-78651884D01*
X132587138Y-78717646D01*
X132549944Y-78856459D01*
X132548084Y-78863399D01*
X132548082Y-78863410D01*
X132519500Y-79080502D01*
X131120667Y-79080502D01*
X131096984Y-79002430D01*
X130963485Y-78680135D01*
X130948384Y-78651884D01*
X130799044Y-78372488D01*
X130799042Y-78372486D01*
X130799038Y-78372477D01*
X130799027Y-78372460D01*
X130605240Y-78082436D01*
X130605233Y-78082426D01*
X130605228Y-78082419D01*
X130383920Y-77812754D01*
X130383919Y-77812753D01*
X130383915Y-77812748D01*
X130137251Y-77566084D01*
X129867586Y-77344776D01*
X129867563Y-77344759D01*
X129577539Y-77150972D01*
X129577511Y-77150955D01*
X129269872Y-76986518D01*
X129269867Y-76986516D01*
X128947571Y-76853016D01*
X128613732Y-76751747D01*
X128613721Y-76751744D01*
X128271594Y-76683692D01*
X128010120Y-76657940D01*
X127924425Y-76649500D01*
X127575575Y-76649500D01*
X127496394Y-76657298D01*
X127228405Y-76683692D01*
X126886278Y-76751744D01*
X126886267Y-76751747D01*
X126552428Y-76853016D01*
X126230132Y-76986516D01*
X126230127Y-76986518D01*
X125922488Y-77150955D01*
X125922460Y-77150972D01*
X125632436Y-77344759D01*
X125632413Y-77344776D01*
X125362748Y-77566084D01*
X125116084Y-77812748D01*
X124894776Y-78082413D01*
X124894759Y-78082436D01*
X124700972Y-78372460D01*
X124700955Y-78372488D01*
X124536518Y-78680127D01*
X124536516Y-78680132D01*
X124403016Y-79002428D01*
X124301747Y-79336267D01*
X124301744Y-79336278D01*
X124233692Y-79678405D01*
X124208871Y-79930426D01*
X124199500Y-80025575D01*
X113887900Y-80025575D01*
X113887900Y-79948641D01*
X113861332Y-79780900D01*
X113870286Y-79711607D01*
X113896121Y-79673824D01*
X115983127Y-77586819D01*
X116044450Y-77553334D01*
X116070808Y-77550500D01*
X124164071Y-77550500D01*
X124248615Y-77533682D01*
X124289744Y-77525501D01*
X124408127Y-77476465D01*
X124514669Y-77405277D01*
X125983127Y-75936819D01*
X126044450Y-75903334D01*
X126070808Y-75900500D01*
X138364071Y-75900500D01*
X138448615Y-75883682D01*
X138489744Y-75875501D01*
X138608127Y-75826465D01*
X138639839Y-75805276D01*
X138714669Y-75755277D01*
X140233127Y-74236819D01*
X140294450Y-74203334D01*
X140320808Y-74200500D01*
X146064071Y-74200500D01*
X146148615Y-74183682D01*
X146189744Y-74175501D01*
X146308127Y-74126465D01*
X146414669Y-74055277D01*
X147442776Y-73027169D01*
X147513965Y-72920627D01*
X147563001Y-72802244D01*
X147576379Y-72734989D01*
X147589189Y-72670594D01*
X147590968Y-72670947D01*
X147613930Y-72614072D01*
X147647029Y-72584889D01*
X147747014Y-72524446D01*
X147747015Y-72524444D01*
X147747020Y-72524442D01*
X147861942Y-72409520D01*
X147862132Y-72409207D01*
X147913320Y-72324530D01*
X147946021Y-72270436D01*
X147994372Y-72115272D01*
X148000500Y-72047837D01*
X148000500Y-72047799D01*
X156633333Y-72047799D01*
X156639455Y-72115177D01*
X156687772Y-72270232D01*
X156771783Y-72409205D01*
X156771786Y-72409209D01*
X156886623Y-72524046D01*
X156886627Y-72524049D01*
X157025600Y-72608060D01*
X157180655Y-72656377D01*
X157248034Y-72662500D01*
X157445833Y-72662500D01*
X157445833Y-71650000D01*
X156633333Y-71650000D01*
X156633333Y-72047799D01*
X148000500Y-72047799D01*
X148000499Y-71308306D01*
X148020184Y-71241268D01*
X148036813Y-71220631D01*
X148505245Y-70752200D01*
X156633333Y-70752200D01*
X156633333Y-71150000D01*
X157445833Y-71150000D01*
X157445833Y-70137500D01*
X157248034Y-70137500D01*
X157180655Y-70143622D01*
X157025600Y-70191939D01*
X156886627Y-70275950D01*
X156886623Y-70275953D01*
X156771786Y-70390790D01*
X156771783Y-70390794D01*
X156687772Y-70529767D01*
X156639455Y-70684822D01*
X156633333Y-70752200D01*
X148505245Y-70752200D01*
X149355276Y-69902170D01*
X149426465Y-69795627D01*
X149475501Y-69677244D01*
X149488088Y-69613965D01*
X149500500Y-69551569D01*
X149500500Y-68606181D01*
X149500500Y-68606178D01*
X149475502Y-68480511D01*
X149475501Y-68480510D01*
X149475501Y-68480506D01*
X149426465Y-68362123D01*
X149408964Y-68335931D01*
X149355277Y-68255581D01*
X149355275Y-68255579D01*
X149355273Y-68255576D01*
X147643069Y-66543372D01*
X147609584Y-66482049D01*
X147606750Y-66455691D01*
X147606750Y-65973313D01*
X147606749Y-65973298D01*
X147606038Y-65964267D01*
X147603848Y-65936431D01*
X147599779Y-65922426D01*
X147557995Y-65778606D01*
X147557994Y-65778603D01*
X147557994Y-65778602D01*
X147474331Y-65637135D01*
X147474329Y-65637133D01*
X147474326Y-65637129D01*
X147358120Y-65520923D01*
X147358112Y-65520917D01*
X147217654Y-65437851D01*
X147216648Y-65437256D01*
X147216647Y-65437255D01*
X147216646Y-65437255D01*
X147216643Y-65437254D01*
X147058823Y-65391402D01*
X147058817Y-65391401D01*
X147021951Y-65388500D01*
X147021944Y-65388500D01*
X146590556Y-65388500D01*
X146590548Y-65388500D01*
X146553682Y-65391401D01*
X146553676Y-65391402D01*
X146395856Y-65437254D01*
X146395853Y-65437255D01*
X146254387Y-65520917D01*
X146254379Y-65520923D01*
X146138173Y-65637129D01*
X146138167Y-65637137D01*
X146054505Y-65778603D01*
X146054504Y-65778606D01*
X146008652Y-65936426D01*
X146008651Y-65936432D01*
X146005750Y-65973298D01*
X146005750Y-67139500D01*
X146003199Y-67148185D01*
X146004488Y-67157147D01*
X145993509Y-67181187D01*
X145986065Y-67206539D01*
X145979224Y-67212466D01*
X145975463Y-67220703D01*
X145953228Y-67234992D01*
X145933261Y-67252294D01*
X145922746Y-67254581D01*
X145916685Y-67258477D01*
X145881750Y-67263500D01*
X145830250Y-67263500D01*
X145763211Y-67243815D01*
X145717456Y-67191011D01*
X145706250Y-67139500D01*
X145706250Y-66876500D01*
X144106250Y-66876500D01*
X144106250Y-67279649D01*
X144109149Y-67316489D01*
X144109150Y-67316495D01*
X144154966Y-67474193D01*
X144154967Y-67474196D01*
X144238564Y-67615552D01*
X144238571Y-67615561D01*
X144360210Y-67737200D01*
X144358443Y-67738966D01*
X144392167Y-67785659D01*
X144395959Y-67855426D01*
X144361430Y-67916168D01*
X144299543Y-67948599D01*
X144275261Y-67951000D01*
X142340510Y-67951000D01*
X142273471Y-67931315D01*
X142234393Y-67891150D01*
X142174443Y-67791981D01*
X142059518Y-67677056D01*
X142048040Y-67670118D01*
X142000852Y-67618592D01*
X141989012Y-67549732D01*
X142016279Y-67485403D01*
X142048040Y-67457882D01*
X142059518Y-67450943D01*
X142059517Y-67450943D01*
X142059520Y-67450942D01*
X142174442Y-67336020D01*
X142182906Y-67322020D01*
X142226745Y-67249500D01*
X142258521Y-67196936D01*
X142306872Y-67041772D01*
X142313000Y-66974337D01*
X142312999Y-66078664D01*
X142312999Y-66078663D01*
X142312999Y-66078655D01*
X142306873Y-66011232D01*
X142306872Y-66011226D01*
X142305808Y-66007812D01*
X142305807Y-66007810D01*
X142295069Y-65973350D01*
X144106250Y-65973350D01*
X144106250Y-66376500D01*
X144656250Y-66376500D01*
X145156250Y-66376500D01*
X145706250Y-66376500D01*
X145706250Y-65973365D01*
X145706249Y-65973350D01*
X145703350Y-65936510D01*
X145703349Y-65936504D01*
X145657533Y-65778806D01*
X145657532Y-65778803D01*
X145573935Y-65637447D01*
X145573928Y-65637438D01*
X145457811Y-65521321D01*
X145457802Y-65521314D01*
X145316446Y-65437717D01*
X145316443Y-65437716D01*
X145158744Y-65391900D01*
X145158747Y-65391900D01*
X145156250Y-65391703D01*
X145156250Y-66376500D01*
X144656250Y-66376500D01*
X144656250Y-65391703D01*
X144653753Y-65391900D01*
X144496056Y-65437716D01*
X144496053Y-65437717D01*
X144354697Y-65521314D01*
X144354688Y-65521321D01*
X144238571Y-65637438D01*
X144238564Y-65637447D01*
X144154967Y-65778803D01*
X144154966Y-65778806D01*
X144109150Y-65936504D01*
X144109149Y-65936510D01*
X144106250Y-65973350D01*
X142295069Y-65973350D01*
X142258521Y-65856064D01*
X142258520Y-65856062D01*
X142174446Y-65716985D01*
X142174442Y-65716980D01*
X142059519Y-65602057D01*
X142059514Y-65602053D01*
X141920437Y-65517979D01*
X141920435Y-65517978D01*
X141787609Y-65476588D01*
X141729462Y-65437851D01*
X141701488Y-65373825D01*
X141700500Y-65358203D01*
X141700500Y-63978525D01*
X141720185Y-63911486D01*
X141766931Y-63870980D01*
X141766183Y-63869715D01*
X141772898Y-63865744D01*
X141914365Y-63782081D01*
X142030581Y-63665865D01*
X142114244Y-63524398D01*
X142160098Y-63366569D01*
X142163000Y-63329694D01*
X142163000Y-62498306D01*
X142160098Y-62461431D01*
X142156029Y-62447426D01*
X142114245Y-62303606D01*
X142114245Y-62303605D01*
X142114244Y-62303603D01*
X142114244Y-62303602D01*
X142083501Y-62251619D01*
X142066320Y-62183896D01*
X142088481Y-62117634D01*
X142142947Y-62073871D01*
X142190235Y-62064500D01*
X152763932Y-62064500D01*
X152830971Y-62084185D01*
X152876726Y-62136989D01*
X152886670Y-62206147D01*
X152870665Y-62251620D01*
X152839921Y-62303605D01*
X152839921Y-62303606D01*
X152794069Y-62461426D01*
X152794068Y-62461432D01*
X152791167Y-62498298D01*
X152791167Y-63329701D01*
X152794068Y-63366567D01*
X152794069Y-63366573D01*
X152839921Y-63524393D01*
X152839922Y-63524396D01*
X152923584Y-63665862D01*
X152923590Y-63665870D01*
X153039796Y-63782076D01*
X153039800Y-63782079D01*
X153039802Y-63782081D01*
X153088620Y-63810951D01*
X153136304Y-63862020D01*
X153149500Y-63917684D01*
X153149500Y-65358203D01*
X153129815Y-65425242D01*
X153077011Y-65470997D01*
X153062391Y-65476588D01*
X152929564Y-65517978D01*
X152929562Y-65517979D01*
X152790485Y-65602053D01*
X152790480Y-65602057D01*
X152675557Y-65716980D01*
X152675553Y-65716985D01*
X152591479Y-65856062D01*
X152591477Y-65856066D01*
X152543128Y-66011226D01*
X152537000Y-66078665D01*
X152537000Y-66974344D01*
X152543126Y-67041767D01*
X152543128Y-67041775D01*
X152591478Y-67196935D01*
X152591479Y-67196937D01*
X152675553Y-67336014D01*
X152675557Y-67336019D01*
X152790480Y-67450942D01*
X152790482Y-67450943D01*
X152801961Y-67457883D01*
X152849149Y-67509411D01*
X152860987Y-67578271D01*
X152833718Y-67642599D01*
X152801961Y-67670117D01*
X152790482Y-67677056D01*
X152790480Y-67677057D01*
X152675557Y-67791980D01*
X152675553Y-67791985D01*
X152591479Y-67931062D01*
X152591477Y-67931066D01*
X152543128Y-68086226D01*
X152537000Y-68153665D01*
X152537000Y-69049344D01*
X152543126Y-69116767D01*
X152543128Y-69116775D01*
X152591478Y-69271935D01*
X152591479Y-69271937D01*
X152675553Y-69411014D01*
X152675557Y-69411019D01*
X152790480Y-69525942D01*
X152790485Y-69525946D01*
X152929562Y-69610020D01*
X152929566Y-69610022D01*
X152984450Y-69627124D01*
X153084728Y-69658372D01*
X153152163Y-69664500D01*
X154447836Y-69664499D01*
X154447843Y-69664499D01*
X154515267Y-69658373D01*
X154515270Y-69658372D01*
X154515272Y-69658372D01*
X154670436Y-69610021D01*
X154767128Y-69551569D01*
X154809514Y-69525946D01*
X154809515Y-69525944D01*
X154809520Y-69525942D01*
X154924442Y-69411020D01*
X154961695Y-69349396D01*
X154984393Y-69311850D01*
X155035921Y-69264662D01*
X155090510Y-69252000D01*
X157831024Y-69252000D01*
X157898063Y-69271685D01*
X157943818Y-69324489D01*
X157950100Y-69341404D01*
X157952421Y-69349394D01*
X157952422Y-69349396D01*
X158036084Y-69490862D01*
X158036090Y-69490870D01*
X158152296Y-69607076D01*
X158152300Y-69607079D01*
X158152302Y-69607081D01*
X158293769Y-69690744D01*
X158335391Y-69702836D01*
X158451593Y-69736597D01*
X158451596Y-69736597D01*
X158451598Y-69736598D01*
X158488473Y-69739500D01*
X158488481Y-69739500D01*
X158919853Y-69739500D01*
X158919861Y-69739500D01*
X158956736Y-69736598D01*
X158956738Y-69736597D01*
X158956740Y-69736597D01*
X159004927Y-69722597D01*
X159114565Y-69690744D01*
X159256032Y-69607081D01*
X159372248Y-69490865D01*
X159455911Y-69349398D01*
X159501765Y-69191569D01*
X159504667Y-69154694D01*
X159504667Y-67988500D01*
X159524352Y-67921461D01*
X159577156Y-67875706D01*
X159628667Y-67864500D01*
X159869853Y-67864500D01*
X159869861Y-67864500D01*
X159905364Y-67861706D01*
X159907766Y-67861517D01*
X159976143Y-67875882D01*
X160005175Y-67897454D01*
X160563181Y-68455460D01*
X160596666Y-68516783D01*
X160599500Y-68543141D01*
X160599500Y-69600024D01*
X160579815Y-69667063D01*
X160563181Y-69687705D01*
X160150205Y-70100681D01*
X160088882Y-70134166D01*
X160062524Y-70137000D01*
X159322988Y-70137000D01*
X159255565Y-70143126D01*
X159255557Y-70143128D01*
X159100397Y-70191478D01*
X159100395Y-70191479D01*
X158961318Y-70275553D01*
X158961313Y-70275557D01*
X158846390Y-70390480D01*
X158846387Y-70390484D01*
X158839156Y-70402446D01*
X158787627Y-70449632D01*
X158718767Y-70461469D01*
X158654439Y-70434198D01*
X158626924Y-70402443D01*
X158619880Y-70390792D01*
X158619879Y-70390790D01*
X158505042Y-70275953D01*
X158505038Y-70275950D01*
X158366065Y-70191939D01*
X158211010Y-70143622D01*
X158143632Y-70137500D01*
X157945833Y-70137500D01*
X157945833Y-72662500D01*
X158143632Y-72662500D01*
X158211010Y-72656377D01*
X158366065Y-72608060D01*
X158505038Y-72524049D01*
X158505042Y-72524046D01*
X158619879Y-72409209D01*
X158619880Y-72409207D01*
X158626923Y-72397558D01*
X158678450Y-72350370D01*
X158747309Y-72338530D01*
X158811638Y-72365797D01*
X158839158Y-72397556D01*
X158846389Y-72409517D01*
X158846390Y-72409519D01*
X158961313Y-72524442D01*
X158961318Y-72524446D01*
X159100395Y-72608520D01*
X159100399Y-72608522D01*
X159145719Y-72622644D01*
X159255561Y-72656872D01*
X159322996Y-72663000D01*
X160062524Y-72662999D01*
X160129563Y-72682683D01*
X160150205Y-72699318D01*
X163156158Y-75705272D01*
X163156165Y-75705278D01*
X163262696Y-75776459D01*
X163262700Y-75776461D01*
X163262707Y-75776466D01*
X163320729Y-75800499D01*
X163381089Y-75825501D01*
X163381093Y-75825501D01*
X163381094Y-75825502D01*
X163506761Y-75850500D01*
X163506764Y-75850500D01*
X163506765Y-75850500D01*
X163634902Y-75850500D01*
X172579191Y-75850500D01*
X172646230Y-75870185D01*
X172666872Y-75886819D01*
X176103875Y-79323822D01*
X176137360Y-79385145D01*
X176138667Y-79430900D01*
X176112100Y-79598640D01*
X176112100Y-79801360D01*
X176137310Y-79960531D01*
X176143813Y-80001585D01*
X176206457Y-80194383D01*
X176298193Y-80374425D01*
X176298492Y-80375010D01*
X176417639Y-80539005D01*
X176560993Y-80682359D01*
X176628623Y-80731493D01*
X176698385Y-80782178D01*
X176741051Y-80837507D01*
X176749500Y-80882496D01*
X176749500Y-81517503D01*
X176729815Y-81584542D01*
X176698385Y-81617821D01*
X176560996Y-81717639D01*
X176560991Y-81717643D01*
X176417639Y-81860995D01*
X176298492Y-82024990D01*
X176206458Y-82205615D01*
X176143812Y-82398419D01*
X176112100Y-82598640D01*
X176112100Y-82801359D01*
X176143793Y-83001463D01*
X176143813Y-83001584D01*
X176206457Y-83194382D01*
X176298360Y-83374751D01*
X176298492Y-83375009D01*
X176417639Y-83539004D01*
X176560995Y-83682360D01*
X176714456Y-83793854D01*
X176724994Y-83801510D01*
X176905618Y-83893543D01*
X177098416Y-83956187D01*
X177298640Y-83987900D01*
X177298641Y-83987900D01*
X177501359Y-83987900D01*
X177501360Y-83987900D01*
X177701584Y-83956187D01*
X177894382Y-83893543D01*
X178075006Y-83801510D01*
X178167085Y-83734610D01*
X178239004Y-83682360D01*
X178239006Y-83682357D01*
X178239010Y-83682355D01*
X178382355Y-83539010D01*
X178382357Y-83539006D01*
X178382360Y-83539004D01*
X178471073Y-83416899D01*
X178501510Y-83375006D01*
X178593543Y-83194382D01*
X178656187Y-83001584D01*
X178687900Y-82801360D01*
X178687900Y-82598640D01*
X178656187Y-82398416D01*
X178593543Y-82205618D01*
X178501510Y-82024994D01*
X178471071Y-81983098D01*
X178382360Y-81860995D01*
X178239008Y-81717643D01*
X178239003Y-81717639D01*
X178101615Y-81617821D01*
X178058949Y-81562491D01*
X178050500Y-81517503D01*
X178050500Y-80882496D01*
X178070185Y-80815457D01*
X178101613Y-80782179D01*
X178239010Y-80682356D01*
X178382355Y-80539011D01*
X178382357Y-80539007D01*
X178382360Y-80539005D01*
X178448014Y-80448638D01*
X178501510Y-80375007D01*
X178593543Y-80194383D01*
X178656187Y-80001585D01*
X178687900Y-79801361D01*
X178687900Y-79598641D01*
X178656187Y-79398417D01*
X178593543Y-79205619D01*
X178501510Y-79024995D01*
X178485114Y-79002428D01*
X178382360Y-78860996D01*
X178239004Y-78717640D01*
X178075009Y-78598493D01*
X178075008Y-78598492D01*
X178075006Y-78598491D01*
X177894382Y-78506458D01*
X177701584Y-78443814D01*
X177701582Y-78443813D01*
X177701580Y-78443813D01*
X177561782Y-78421671D01*
X177501360Y-78412101D01*
X177298640Y-78412101D01*
X177130899Y-78438668D01*
X177061606Y-78429713D01*
X177023821Y-78403876D01*
X173314673Y-74694727D01*
X173314672Y-74694726D01*
X173314668Y-74694723D01*
X173208126Y-74623535D01*
X173089743Y-74574499D01*
X173089741Y-74574498D01*
X173089740Y-74574498D01*
X173084902Y-74573536D01*
X173084897Y-74573535D01*
X172964070Y-74549500D01*
X172964068Y-74549500D01*
X163891641Y-74549500D01*
X163824602Y-74529815D01*
X163803960Y-74513181D01*
X161324578Y-72033799D01*
X169466667Y-72033799D01*
X169472789Y-72101177D01*
X169521106Y-72256232D01*
X169605117Y-72395205D01*
X169605120Y-72395209D01*
X169719957Y-72510046D01*
X169719961Y-72510049D01*
X169858934Y-72594060D01*
X170013989Y-72642377D01*
X170081368Y-72648500D01*
X170279167Y-72648500D01*
X170279167Y-71636000D01*
X169466667Y-71636000D01*
X169466667Y-72033799D01*
X161324578Y-72033799D01*
X160870151Y-71579372D01*
X160836666Y-71518049D01*
X160833832Y-71491691D01*
X160833832Y-71308308D01*
X160853517Y-71241269D01*
X160870151Y-71220627D01*
X161352579Y-70738200D01*
X169466667Y-70738200D01*
X169466667Y-71136000D01*
X170279167Y-71136000D01*
X170279167Y-70123500D01*
X170081368Y-70123500D01*
X170013989Y-70129622D01*
X169858934Y-70177939D01*
X169719961Y-70261950D01*
X169719957Y-70261953D01*
X169605120Y-70376790D01*
X169605117Y-70376794D01*
X169521106Y-70515767D01*
X169472789Y-70670822D01*
X169466667Y-70738200D01*
X161352579Y-70738200D01*
X161443072Y-70647707D01*
X161755273Y-70335506D01*
X161755273Y-70335505D01*
X161755277Y-70335502D01*
X161826465Y-70228960D01*
X161875501Y-70110577D01*
X161884752Y-70064070D01*
X161884773Y-70063966D01*
X161884773Y-70063965D01*
X161900500Y-69984904D01*
X161900500Y-68158261D01*
X161875502Y-68032594D01*
X161875501Y-68032593D01*
X161875501Y-68032589D01*
X161826465Y-67914206D01*
X161793253Y-67864500D01*
X161793253Y-67864499D01*
X161755275Y-67807661D01*
X160490986Y-66543372D01*
X160457501Y-66482049D01*
X160454667Y-66455691D01*
X160454667Y-65973313D01*
X160454666Y-65973298D01*
X160453955Y-65964267D01*
X160451765Y-65936431D01*
X160447696Y-65922426D01*
X160405912Y-65778606D01*
X160405911Y-65778603D01*
X160405911Y-65778602D01*
X160322248Y-65637135D01*
X160322246Y-65637133D01*
X160322243Y-65637129D01*
X160206037Y-65520923D01*
X160206029Y-65520917D01*
X160065571Y-65437851D01*
X160064565Y-65437256D01*
X160064564Y-65437255D01*
X160064563Y-65437255D01*
X160064560Y-65437254D01*
X159906740Y-65391402D01*
X159906734Y-65391401D01*
X159869868Y-65388500D01*
X159869861Y-65388500D01*
X159438473Y-65388500D01*
X159438465Y-65388500D01*
X159401599Y-65391401D01*
X159401593Y-65391402D01*
X159243773Y-65437254D01*
X159243770Y-65437255D01*
X159102304Y-65520917D01*
X159102296Y-65520923D01*
X158986090Y-65637129D01*
X158986084Y-65637137D01*
X158902422Y-65778603D01*
X158902421Y-65778606D01*
X158856569Y-65936426D01*
X158856568Y-65936432D01*
X158853667Y-65973298D01*
X158853667Y-67139500D01*
X158851116Y-67148185D01*
X158852405Y-67157147D01*
X158841426Y-67181187D01*
X158833982Y-67206539D01*
X158827141Y-67212466D01*
X158823380Y-67220703D01*
X158801145Y-67234992D01*
X158781178Y-67252294D01*
X158770663Y-67254581D01*
X158764602Y-67258477D01*
X158729667Y-67263500D01*
X158678167Y-67263500D01*
X158611128Y-67243815D01*
X158565373Y-67191011D01*
X158554167Y-67139500D01*
X158554167Y-66876500D01*
X156954167Y-66876500D01*
X156954167Y-67279649D01*
X156957066Y-67316489D01*
X156957067Y-67316495D01*
X157002883Y-67474193D01*
X157002884Y-67474196D01*
X157086481Y-67615552D01*
X157086488Y-67615561D01*
X157208127Y-67737200D01*
X157206360Y-67738966D01*
X157240084Y-67785659D01*
X157243876Y-67855426D01*
X157209347Y-67916168D01*
X157147460Y-67948599D01*
X157123178Y-67951000D01*
X155090510Y-67951000D01*
X155023471Y-67931315D01*
X154984393Y-67891150D01*
X154924443Y-67791981D01*
X154809518Y-67677056D01*
X154798040Y-67670118D01*
X154750852Y-67618592D01*
X154739012Y-67549732D01*
X154766279Y-67485403D01*
X154798040Y-67457882D01*
X154809518Y-67450943D01*
X154809517Y-67450943D01*
X154809520Y-67450942D01*
X154924442Y-67336020D01*
X154932906Y-67322020D01*
X154976745Y-67249500D01*
X155008521Y-67196936D01*
X155056872Y-67041772D01*
X155063000Y-66974337D01*
X155062999Y-66078664D01*
X155062999Y-66078663D01*
X155062999Y-66078655D01*
X155056873Y-66011232D01*
X155056872Y-66011226D01*
X155055808Y-66007812D01*
X155055807Y-66007810D01*
X155045069Y-65973350D01*
X156954167Y-65973350D01*
X156954167Y-66376500D01*
X157504167Y-66376500D01*
X158004167Y-66376500D01*
X158554167Y-66376500D01*
X158554167Y-65973365D01*
X158554166Y-65973350D01*
X158551267Y-65936510D01*
X158551266Y-65936504D01*
X158505450Y-65778806D01*
X158505449Y-65778803D01*
X158421852Y-65637447D01*
X158421845Y-65637438D01*
X158305728Y-65521321D01*
X158305719Y-65521314D01*
X158164363Y-65437717D01*
X158164360Y-65437716D01*
X158006661Y-65391900D01*
X158006664Y-65391900D01*
X158004167Y-65391703D01*
X158004167Y-66376500D01*
X157504167Y-66376500D01*
X157504167Y-65391703D01*
X157501670Y-65391900D01*
X157343973Y-65437716D01*
X157343970Y-65437717D01*
X157202614Y-65521314D01*
X157202605Y-65521321D01*
X157086488Y-65637438D01*
X157086481Y-65637447D01*
X157002884Y-65778803D01*
X157002883Y-65778806D01*
X156957067Y-65936504D01*
X156957066Y-65936510D01*
X156954167Y-65973350D01*
X155045069Y-65973350D01*
X155008521Y-65856064D01*
X155008520Y-65856062D01*
X154924446Y-65716985D01*
X154924442Y-65716980D01*
X154809519Y-65602057D01*
X154809514Y-65602053D01*
X154670437Y-65517979D01*
X154670435Y-65517978D01*
X154537609Y-65476588D01*
X154479462Y-65437851D01*
X154451488Y-65373825D01*
X154450500Y-65358203D01*
X154450500Y-63966967D01*
X154470185Y-63899928D01*
X154511380Y-63860235D01*
X154512101Y-63859809D01*
X154573882Y-63823272D01*
X154643526Y-63782085D01*
X154643530Y-63782082D01*
X154643532Y-63782081D01*
X154759748Y-63665865D01*
X154843411Y-63524398D01*
X154889265Y-63366569D01*
X154892167Y-63329694D01*
X154892167Y-62498306D01*
X154889265Y-62461431D01*
X154885196Y-62447426D01*
X154843412Y-62303606D01*
X154843412Y-62303605D01*
X154843411Y-62303603D01*
X154843411Y-62303602D01*
X154812668Y-62251619D01*
X154795487Y-62183896D01*
X154817648Y-62117634D01*
X154872114Y-62073871D01*
X154919402Y-62064500D01*
X165493098Y-62064500D01*
X165560137Y-62084185D01*
X165605892Y-62136989D01*
X165615836Y-62206147D01*
X165599831Y-62251620D01*
X165569087Y-62303605D01*
X165569087Y-62303606D01*
X165523235Y-62461426D01*
X165523234Y-62461432D01*
X165520333Y-62498298D01*
X165520333Y-63329701D01*
X165523234Y-63366567D01*
X165523235Y-63366573D01*
X165569087Y-63524393D01*
X165569088Y-63524396D01*
X165652750Y-63665862D01*
X165652756Y-63665870D01*
X165768962Y-63782076D01*
X165768966Y-63782079D01*
X165768968Y-63782081D01*
X165838621Y-63823273D01*
X165886304Y-63874341D01*
X165899500Y-63930005D01*
X165899500Y-65344203D01*
X165879815Y-65411242D01*
X165827011Y-65456997D01*
X165812391Y-65462588D01*
X165679564Y-65503978D01*
X165679562Y-65503979D01*
X165540485Y-65588053D01*
X165540480Y-65588057D01*
X165425557Y-65702980D01*
X165425553Y-65702985D01*
X165341479Y-65842062D01*
X165341477Y-65842066D01*
X165293128Y-65997226D01*
X165287000Y-66064665D01*
X165287000Y-66960344D01*
X165293126Y-67027767D01*
X165293128Y-67027775D01*
X165341478Y-67182935D01*
X165341479Y-67182937D01*
X165425553Y-67322014D01*
X165425557Y-67322019D01*
X165540480Y-67436942D01*
X165540482Y-67436943D01*
X165551961Y-67443883D01*
X165599149Y-67495411D01*
X165610987Y-67564271D01*
X165583718Y-67628599D01*
X165551961Y-67656117D01*
X165540482Y-67663056D01*
X165540480Y-67663057D01*
X165425557Y-67777980D01*
X165425553Y-67777985D01*
X165341479Y-67917062D01*
X165341477Y-67917066D01*
X165293128Y-68072226D01*
X165287000Y-68139665D01*
X165287000Y-69035344D01*
X165293126Y-69102767D01*
X165293128Y-69102775D01*
X165341478Y-69257935D01*
X165341479Y-69257936D01*
X165425553Y-69397014D01*
X165425557Y-69397019D01*
X165540480Y-69511942D01*
X165540485Y-69511946D01*
X165679562Y-69596020D01*
X165679566Y-69596022D01*
X165724495Y-69610022D01*
X165834728Y-69644372D01*
X165902163Y-69650500D01*
X167197836Y-69650499D01*
X167197843Y-69650499D01*
X167265267Y-69644373D01*
X167265270Y-69644372D01*
X167265272Y-69644372D01*
X167420436Y-69596021D01*
X167493969Y-69551569D01*
X167559514Y-69511946D01*
X167559515Y-69511944D01*
X167559520Y-69511942D01*
X167674442Y-69397020D01*
X167703231Y-69349398D01*
X167750057Y-69271937D01*
X167758521Y-69257936D01*
X167768084Y-69227248D01*
X167768751Y-69225109D01*
X167807489Y-69166961D01*
X167871514Y-69138988D01*
X167887136Y-69138000D01*
X170649887Y-69138000D01*
X170716926Y-69157685D01*
X170762681Y-69210489D01*
X170768963Y-69227405D01*
X170800336Y-69335393D01*
X170800338Y-69335396D01*
X170800339Y-69335398D01*
X170808619Y-69349398D01*
X170884000Y-69476862D01*
X170884006Y-69476870D01*
X171000212Y-69593076D01*
X171000216Y-69593079D01*
X171000218Y-69593081D01*
X171141685Y-69676744D01*
X171150108Y-69679191D01*
X171299509Y-69722597D01*
X171299512Y-69722597D01*
X171299514Y-69722598D01*
X171336389Y-69725500D01*
X171336397Y-69725500D01*
X171767769Y-69725500D01*
X171767777Y-69725500D01*
X171804652Y-69722598D01*
X171804654Y-69722597D01*
X171804656Y-69722597D01*
X171846274Y-69710505D01*
X171962481Y-69676744D01*
X172103948Y-69593081D01*
X172220164Y-69476865D01*
X172303827Y-69335398D01*
X172340117Y-69210489D01*
X172349680Y-69177573D01*
X172349681Y-69177567D01*
X172351246Y-69157685D01*
X172352583Y-69140694D01*
X172352583Y-67974500D01*
X172372268Y-67907461D01*
X172425072Y-67861706D01*
X172476583Y-67850500D01*
X172717769Y-67850500D01*
X172717777Y-67850500D01*
X172754652Y-67847598D01*
X172754654Y-67847597D01*
X172754656Y-67847597D01*
X172828073Y-67826267D01*
X172912481Y-67801744D01*
X173053948Y-67718081D01*
X173170164Y-67601865D01*
X173170167Y-67601858D01*
X173174944Y-67595702D01*
X173177133Y-67597399D01*
X173218503Y-67558740D01*
X173287240Y-67546207D01*
X173351840Y-67572825D01*
X173361894Y-67581840D01*
X173663181Y-67883127D01*
X173696666Y-67944450D01*
X173699500Y-67970808D01*
X173699500Y-69679191D01*
X173679815Y-69746230D01*
X173663181Y-69766872D01*
X173310813Y-70119239D01*
X173249490Y-70152724D01*
X173186244Y-70149944D01*
X173119439Y-70129128D01*
X173119417Y-70129126D01*
X173052004Y-70123000D01*
X173052001Y-70123000D01*
X172156322Y-70123000D01*
X172088899Y-70129126D01*
X172088891Y-70129128D01*
X171933731Y-70177478D01*
X171933729Y-70177479D01*
X171794652Y-70261553D01*
X171794647Y-70261557D01*
X171679724Y-70376480D01*
X171679721Y-70376484D01*
X171672490Y-70388446D01*
X171620961Y-70435632D01*
X171552101Y-70447469D01*
X171487773Y-70420198D01*
X171460258Y-70388443D01*
X171453214Y-70376792D01*
X171453213Y-70376790D01*
X171338376Y-70261953D01*
X171338372Y-70261950D01*
X171199399Y-70177939D01*
X171044344Y-70129622D01*
X170976966Y-70123500D01*
X170779167Y-70123500D01*
X170779167Y-72648500D01*
X170976966Y-72648500D01*
X171044344Y-72642377D01*
X171199399Y-72594060D01*
X171338372Y-72510049D01*
X171338376Y-72510046D01*
X171453213Y-72395209D01*
X171453214Y-72395207D01*
X171460257Y-72383558D01*
X171511784Y-72336370D01*
X171580643Y-72324530D01*
X171644972Y-72351797D01*
X171672492Y-72383556D01*
X171679723Y-72395517D01*
X171679724Y-72395519D01*
X171794647Y-72510442D01*
X171794652Y-72510446D01*
X171933729Y-72594520D01*
X171933733Y-72594522D01*
X171978662Y-72608522D01*
X172088895Y-72642872D01*
X172156330Y-72649000D01*
X173052003Y-72648999D01*
X173052010Y-72648999D01*
X173119434Y-72642873D01*
X173119437Y-72642872D01*
X173119439Y-72642872D01*
X173274603Y-72594521D01*
X173381094Y-72530145D01*
X173413681Y-72510446D01*
X173413682Y-72510444D01*
X173413687Y-72510442D01*
X173528609Y-72395520D01*
X173528799Y-72395207D01*
X173558983Y-72345275D01*
X173612688Y-72256436D01*
X173654079Y-72123606D01*
X173692815Y-72065462D01*
X173756840Y-72037488D01*
X173772463Y-72036500D01*
X176265192Y-72036500D01*
X176332231Y-72056185D01*
X176352873Y-72072819D01*
X179713180Y-75433126D01*
X179746665Y-75494449D01*
X179749499Y-75520807D01*
X179749499Y-78517504D01*
X179729814Y-78584543D01*
X179698384Y-78617822D01*
X179560995Y-78717640D01*
X179560990Y-78717644D01*
X179417638Y-78860996D01*
X179298491Y-79024991D01*
X179206457Y-79205616D01*
X179143811Y-79398420D01*
X179112099Y-79598641D01*
X179112099Y-79801360D01*
X179137309Y-79960531D01*
X179143812Y-80001585D01*
X179206456Y-80194383D01*
X179298192Y-80374425D01*
X179298491Y-80375010D01*
X179417638Y-80539005D01*
X179560992Y-80682359D01*
X179628622Y-80731493D01*
X179698384Y-80782178D01*
X179741050Y-80837507D01*
X179749499Y-80882496D01*
X179749499Y-81517503D01*
X179729814Y-81584542D01*
X179698384Y-81617821D01*
X179560995Y-81717639D01*
X179560990Y-81717643D01*
X179417638Y-81860995D01*
X179298491Y-82024990D01*
X179206457Y-82205615D01*
X179143811Y-82398419D01*
X179112099Y-82598640D01*
X179112099Y-82801359D01*
X179143792Y-83001463D01*
X179143812Y-83001584D01*
X179206456Y-83194382D01*
X179298359Y-83374751D01*
X179298491Y-83375009D01*
X179417638Y-83539004D01*
X179560994Y-83682360D01*
X179714455Y-83793854D01*
X179724993Y-83801510D01*
X179905617Y-83893543D01*
X180098415Y-83956187D01*
X180298639Y-83987900D01*
X180298640Y-83987900D01*
X180501358Y-83987900D01*
X180501359Y-83987900D01*
X180701583Y-83956187D01*
X180894381Y-83893543D01*
X181075005Y-83801510D01*
X181167084Y-83734610D01*
X181239003Y-83682360D01*
X181239005Y-83682357D01*
X181239009Y-83682355D01*
X181382354Y-83539010D01*
X181382356Y-83539006D01*
X181382359Y-83539004D01*
X181471072Y-83416899D01*
X181501509Y-83375006D01*
X181593542Y-83194382D01*
X181656186Y-83001584D01*
X181687899Y-82801360D01*
X181687899Y-82598679D01*
X182112598Y-82598679D01*
X182112598Y-82801320D01*
X182144297Y-83001463D01*
X182206919Y-83194192D01*
X182298914Y-83374744D01*
X182329543Y-83416899D01*
X182329544Y-83416900D01*
X182889763Y-82856680D01*
X182902948Y-82905885D01*
X182973172Y-83027515D01*
X183072483Y-83126826D01*
X183194113Y-83197050D01*
X183243317Y-83210234D01*
X182683097Y-83770453D01*
X182683097Y-83770454D01*
X182725252Y-83801082D01*
X182905805Y-83893078D01*
X183098534Y-83955700D01*
X183098533Y-83955700D01*
X183298678Y-83987400D01*
X183501318Y-83987400D01*
X183701461Y-83955700D01*
X183894190Y-83893078D01*
X184074745Y-83801081D01*
X184074749Y-83801079D01*
X184116897Y-83770454D01*
X184116898Y-83770454D01*
X183556678Y-83210234D01*
X183605883Y-83197050D01*
X183727513Y-83126826D01*
X183826824Y-83027515D01*
X183897048Y-82905885D01*
X183910232Y-82856680D01*
X184470451Y-83416900D01*
X184470452Y-83416899D01*
X184501077Y-83374751D01*
X184501079Y-83374747D01*
X184593076Y-83194192D01*
X184655698Y-83001463D01*
X184687398Y-82801320D01*
X184687398Y-82598679D01*
X185112597Y-82598679D01*
X185112597Y-82801320D01*
X185144296Y-83001463D01*
X185206918Y-83194192D01*
X185298913Y-83374744D01*
X185329542Y-83416899D01*
X185329543Y-83416900D01*
X185889762Y-82856680D01*
X185902947Y-82905885D01*
X185973171Y-83027515D01*
X186072482Y-83126826D01*
X186194112Y-83197050D01*
X186243316Y-83210234D01*
X185683096Y-83770453D01*
X185683096Y-83770454D01*
X185725251Y-83801082D01*
X185905804Y-83893078D01*
X186098533Y-83955700D01*
X186098532Y-83955700D01*
X186298677Y-83987400D01*
X186501317Y-83987400D01*
X186701460Y-83955700D01*
X186894189Y-83893078D01*
X187074744Y-83801081D01*
X187074748Y-83801079D01*
X187116896Y-83770454D01*
X187116897Y-83770454D01*
X186556677Y-83210234D01*
X186605882Y-83197050D01*
X186727512Y-83126826D01*
X186826823Y-83027515D01*
X186897047Y-82905885D01*
X186910231Y-82856680D01*
X187470450Y-83416900D01*
X187470451Y-83416899D01*
X187501076Y-83374751D01*
X187501078Y-83374747D01*
X187593075Y-83194192D01*
X187655697Y-83001463D01*
X187687397Y-82801320D01*
X187687397Y-82598679D01*
X187655697Y-82398536D01*
X187593075Y-82205807D01*
X187501079Y-82025254D01*
X187470450Y-81983099D01*
X186910230Y-82543318D01*
X186897047Y-82494115D01*
X186826823Y-82372485D01*
X186727512Y-82273174D01*
X186605882Y-82202950D01*
X186556677Y-82189765D01*
X187116897Y-81629546D01*
X187116896Y-81629545D01*
X187074741Y-81598916D01*
X186894189Y-81506921D01*
X186701460Y-81444299D01*
X186701461Y-81444299D01*
X186501317Y-81412600D01*
X186298677Y-81412600D01*
X186098533Y-81444299D01*
X185905804Y-81506921D01*
X185725247Y-81598919D01*
X185683096Y-81629544D01*
X185683095Y-81629545D01*
X186243316Y-82189765D01*
X186194112Y-82202950D01*
X186072482Y-82273174D01*
X185973171Y-82372485D01*
X185902947Y-82494115D01*
X185889763Y-82543319D01*
X185329542Y-81983098D01*
X185329541Y-81983099D01*
X185298916Y-82025250D01*
X185206918Y-82205807D01*
X185144296Y-82398536D01*
X185112597Y-82598679D01*
X184687398Y-82598679D01*
X184655698Y-82398536D01*
X184593076Y-82205807D01*
X184501080Y-82025254D01*
X184470451Y-81983099D01*
X183910231Y-82543318D01*
X183897048Y-82494115D01*
X183826824Y-82372485D01*
X183727513Y-82273174D01*
X183605883Y-82202950D01*
X183556678Y-82189765D01*
X184116898Y-81629546D01*
X184116897Y-81629545D01*
X184074742Y-81598916D01*
X183894190Y-81506921D01*
X183701461Y-81444299D01*
X183701462Y-81444299D01*
X183501318Y-81412600D01*
X183298678Y-81412600D01*
X183098534Y-81444299D01*
X182905805Y-81506921D01*
X182725248Y-81598919D01*
X182683097Y-81629544D01*
X182683096Y-81629545D01*
X183243317Y-82189765D01*
X183194113Y-82202950D01*
X183072483Y-82273174D01*
X182973172Y-82372485D01*
X182902948Y-82494115D01*
X182889764Y-82543319D01*
X182329543Y-81983098D01*
X182329542Y-81983099D01*
X182298917Y-82025250D01*
X182206919Y-82205807D01*
X182144297Y-82398536D01*
X182112598Y-82598679D01*
X181687899Y-82598679D01*
X181687899Y-82598640D01*
X181656186Y-82398416D01*
X181593542Y-82205618D01*
X181501509Y-82024994D01*
X181471070Y-81983098D01*
X181382359Y-81860995D01*
X181239007Y-81717643D01*
X181239002Y-81717639D01*
X181101614Y-81617821D01*
X181058948Y-81562491D01*
X181050499Y-81517503D01*
X181050499Y-80882496D01*
X181070184Y-80815457D01*
X181101612Y-80782179D01*
X181239009Y-80682356D01*
X181382354Y-80539011D01*
X181382356Y-80539007D01*
X181382359Y-80539005D01*
X181448013Y-80448638D01*
X181501509Y-80375007D01*
X181593542Y-80194383D01*
X181656186Y-80001585D01*
X181687899Y-79801361D01*
X181687899Y-79598641D01*
X182112098Y-79598641D01*
X182112098Y-79801360D01*
X182137308Y-79960531D01*
X182143811Y-80001585D01*
X182206455Y-80194383D01*
X182298191Y-80374425D01*
X182298490Y-80375010D01*
X182417637Y-80539005D01*
X182560993Y-80682361D01*
X182688834Y-80775241D01*
X182724992Y-80801511D01*
X182905616Y-80893544D01*
X183098414Y-80956188D01*
X183298638Y-80987901D01*
X183298639Y-80987901D01*
X183501357Y-80987901D01*
X183501358Y-80987901D01*
X183701582Y-80956188D01*
X183894380Y-80893544D01*
X184075004Y-80801511D01*
X184167083Y-80734611D01*
X184239002Y-80682361D01*
X184239004Y-80682358D01*
X184239008Y-80682356D01*
X184382353Y-80539011D01*
X184382355Y-80539007D01*
X184382358Y-80539005D01*
X184448012Y-80448638D01*
X184501508Y-80375007D01*
X184593541Y-80194383D01*
X184656185Y-80001585D01*
X184687898Y-79801361D01*
X184687898Y-79598641D01*
X184656185Y-79398417D01*
X184593541Y-79205619D01*
X184501508Y-79024995D01*
X184485112Y-79002428D01*
X184382358Y-78860996D01*
X184239002Y-78717640D01*
X184075007Y-78598493D01*
X184075006Y-78598492D01*
X184075004Y-78598491D01*
X183894380Y-78506458D01*
X183701582Y-78443814D01*
X183701580Y-78443813D01*
X183701578Y-78443813D01*
X183561780Y-78421671D01*
X183501358Y-78412101D01*
X183298638Y-78412101D01*
X183252222Y-78419452D01*
X183098417Y-78443813D01*
X182905613Y-78506459D01*
X182724988Y-78598493D01*
X182560993Y-78717640D01*
X182417637Y-78860996D01*
X182298490Y-79024991D01*
X182206456Y-79205616D01*
X182143810Y-79398420D01*
X182112098Y-79598641D01*
X181687899Y-79598641D01*
X181656186Y-79398417D01*
X181593542Y-79205619D01*
X181501509Y-79024995D01*
X181485113Y-79002428D01*
X181382359Y-78860996D01*
X181239007Y-78717644D01*
X181239002Y-78717640D01*
X181101614Y-78617822D01*
X181058948Y-78562492D01*
X181050499Y-78517504D01*
X181050499Y-75135927D01*
X181025501Y-75010260D01*
X181025500Y-75010259D01*
X181025500Y-75010255D01*
X180976464Y-74891872D01*
X180905276Y-74785330D01*
X180905274Y-74785328D01*
X180905272Y-74785325D01*
X178167746Y-72047799D01*
X182300000Y-72047799D01*
X182306122Y-72115177D01*
X182354439Y-72270232D01*
X182438450Y-72409205D01*
X182438453Y-72409209D01*
X182553290Y-72524046D01*
X182553294Y-72524049D01*
X182692267Y-72608060D01*
X182847322Y-72656377D01*
X182914701Y-72662500D01*
X183112500Y-72662500D01*
X183112500Y-71650000D01*
X182300000Y-71650000D01*
X182300000Y-72047799D01*
X178167746Y-72047799D01*
X177000674Y-70880727D01*
X177000670Y-70880724D01*
X177000669Y-70880723D01*
X176894127Y-70809535D01*
X176894128Y-70809535D01*
X176894126Y-70809534D01*
X176775744Y-70760499D01*
X176775738Y-70760497D01*
X176734027Y-70752200D01*
X182300000Y-70752200D01*
X182300000Y-71150000D01*
X183112500Y-71150000D01*
X183112500Y-70137500D01*
X182914701Y-70137500D01*
X182847322Y-70143622D01*
X182692267Y-70191939D01*
X182553294Y-70275950D01*
X182553290Y-70275953D01*
X182438453Y-70390790D01*
X182438450Y-70390794D01*
X182354439Y-70529767D01*
X182306122Y-70684822D01*
X182300000Y-70752200D01*
X176734027Y-70752200D01*
X176650071Y-70735500D01*
X176650069Y-70735500D01*
X174833809Y-70735500D01*
X174766770Y-70715815D01*
X174721015Y-70663011D01*
X174711071Y-70593853D01*
X174740096Y-70530297D01*
X174746128Y-70523819D01*
X174855272Y-70414674D01*
X174855273Y-70414673D01*
X174855277Y-70414669D01*
X174926465Y-70308127D01*
X174975501Y-70189744D01*
X174982975Y-70152169D01*
X175000500Y-70064069D01*
X175000500Y-67585931D01*
X175000500Y-67585928D01*
X174975502Y-67460261D01*
X174975501Y-67460260D01*
X174975501Y-67460256D01*
X174943053Y-67381919D01*
X174926466Y-67341874D01*
X174913199Y-67322019D01*
X174855278Y-67235332D01*
X174855272Y-67235325D01*
X173727173Y-66107226D01*
X173684428Y-66078665D01*
X173620627Y-66036035D01*
X173560747Y-66011232D01*
X173502244Y-65986999D01*
X173502238Y-65986997D01*
X173381037Y-65962888D01*
X173319126Y-65930503D01*
X173286153Y-65875866D01*
X173257953Y-65778803D01*
X173253827Y-65764602D01*
X173170164Y-65623135D01*
X173170162Y-65623133D01*
X173170159Y-65623129D01*
X173053953Y-65506923D01*
X173053945Y-65506917D01*
X172936933Y-65437717D01*
X172912481Y-65423256D01*
X172912480Y-65423255D01*
X172912479Y-65423255D01*
X172912476Y-65423254D01*
X172754656Y-65377402D01*
X172754650Y-65377401D01*
X172717784Y-65374500D01*
X172717777Y-65374500D01*
X172286389Y-65374500D01*
X172286381Y-65374500D01*
X172249515Y-65377401D01*
X172249509Y-65377402D01*
X172091689Y-65423254D01*
X172091686Y-65423255D01*
X171950220Y-65506917D01*
X171950212Y-65506923D01*
X171834006Y-65623129D01*
X171834000Y-65623137D01*
X171750338Y-65764603D01*
X171750337Y-65764606D01*
X171704485Y-65922426D01*
X171704484Y-65922432D01*
X171701583Y-65959298D01*
X171701583Y-67125500D01*
X171699032Y-67134185D01*
X171700321Y-67143147D01*
X171689342Y-67167187D01*
X171681898Y-67192539D01*
X171675057Y-67198466D01*
X171671296Y-67206703D01*
X171649061Y-67220992D01*
X171629094Y-67238294D01*
X171618579Y-67240581D01*
X171612518Y-67244477D01*
X171577583Y-67249500D01*
X171526083Y-67249500D01*
X171459044Y-67229815D01*
X171413289Y-67177011D01*
X171402083Y-67125500D01*
X171402083Y-66862500D01*
X169802083Y-66862500D01*
X169802083Y-67265649D01*
X169804982Y-67302489D01*
X169804983Y-67302495D01*
X169850799Y-67460193D01*
X169850800Y-67460196D01*
X169934397Y-67601552D01*
X169934404Y-67601561D01*
X169958162Y-67625319D01*
X169991647Y-67686642D01*
X169986663Y-67756334D01*
X169944791Y-67812267D01*
X169879327Y-67836684D01*
X169870481Y-67837000D01*
X167780057Y-67837000D01*
X167713018Y-67817315D01*
X167693675Y-67801962D01*
X167682209Y-67790829D01*
X167674442Y-67777980D01*
X167559520Y-67663058D01*
X167535943Y-67648805D01*
X167525806Y-67638962D01*
X167515287Y-67620354D01*
X167500852Y-67604592D01*
X167498436Y-67590545D01*
X167491423Y-67578138D01*
X167492633Y-67556796D01*
X167489012Y-67535732D01*
X167494573Y-67522610D01*
X167495381Y-67508381D01*
X167507937Y-67491082D01*
X167516279Y-67471403D01*
X167532298Y-67457522D01*
X167536425Y-67451837D01*
X167540850Y-67450111D01*
X167548040Y-67443882D01*
X167559518Y-67436943D01*
X167559517Y-67436943D01*
X167559520Y-67436942D01*
X167674442Y-67322020D01*
X167686246Y-67302495D01*
X167725056Y-67238294D01*
X167758521Y-67182936D01*
X167806872Y-67027772D01*
X167813000Y-66960337D01*
X167812999Y-66064664D01*
X167812999Y-66064663D01*
X167812999Y-66064655D01*
X167806873Y-65997232D01*
X167806872Y-65997226D01*
X167805808Y-65993812D01*
X167805807Y-65993810D01*
X167795069Y-65959350D01*
X169802083Y-65959350D01*
X169802083Y-66362500D01*
X170352083Y-66362500D01*
X170852083Y-66362500D01*
X171402083Y-66362500D01*
X171402083Y-65959365D01*
X171402082Y-65959350D01*
X171399183Y-65922510D01*
X171399182Y-65922504D01*
X171353366Y-65764806D01*
X171353365Y-65764803D01*
X171269768Y-65623447D01*
X171269761Y-65623438D01*
X171153644Y-65507321D01*
X171153635Y-65507314D01*
X171012279Y-65423717D01*
X171012276Y-65423716D01*
X170854577Y-65377900D01*
X170854580Y-65377900D01*
X170852083Y-65377703D01*
X170852083Y-66362500D01*
X170352083Y-66362500D01*
X170352083Y-65377703D01*
X170349586Y-65377900D01*
X170191889Y-65423716D01*
X170191886Y-65423717D01*
X170050530Y-65507314D01*
X170050521Y-65507321D01*
X169934404Y-65623438D01*
X169934397Y-65623447D01*
X169850800Y-65764803D01*
X169850799Y-65764806D01*
X169804983Y-65922504D01*
X169804982Y-65922510D01*
X169802083Y-65959350D01*
X167795069Y-65959350D01*
X167758521Y-65842064D01*
X167758520Y-65842062D01*
X167674446Y-65702985D01*
X167674442Y-65702980D01*
X167559519Y-65588057D01*
X167559514Y-65588053D01*
X167420437Y-65503979D01*
X167420435Y-65503978D01*
X167287609Y-65462588D01*
X167229462Y-65423851D01*
X167201488Y-65359825D01*
X167200500Y-65344203D01*
X167200500Y-63954646D01*
X167220185Y-63887607D01*
X167261380Y-63847914D01*
X167372692Y-63782085D01*
X167372696Y-63782082D01*
X167372698Y-63782081D01*
X167488914Y-63665865D01*
X167572577Y-63524398D01*
X167618431Y-63366569D01*
X167621333Y-63329694D01*
X167621333Y-62498306D01*
X167618431Y-62461431D01*
X167614362Y-62447426D01*
X167572578Y-62303606D01*
X167572578Y-62303605D01*
X167572577Y-62303603D01*
X167572577Y-62303602D01*
X167541834Y-62251619D01*
X167524653Y-62183896D01*
X167546814Y-62117634D01*
X167601280Y-62073871D01*
X167648568Y-62064500D01*
X178213986Y-62064500D01*
X178281025Y-62084185D01*
X178326780Y-62136989D01*
X178336724Y-62206147D01*
X178320718Y-62251621D01*
X178298255Y-62289603D01*
X178298254Y-62289606D01*
X178252402Y-62447426D01*
X178252401Y-62447432D01*
X178249500Y-62484298D01*
X178249500Y-63315701D01*
X178252401Y-63352567D01*
X178252402Y-63352573D01*
X178298254Y-63510393D01*
X178298255Y-63510396D01*
X178298256Y-63510398D01*
X178306536Y-63524398D01*
X178381917Y-63651862D01*
X178381923Y-63651870D01*
X178498129Y-63768076D01*
X178498132Y-63768078D01*
X178498135Y-63768081D01*
X178588623Y-63821595D01*
X178636304Y-63872661D01*
X178649500Y-63928325D01*
X178649500Y-65344203D01*
X178629815Y-65411242D01*
X178577011Y-65456997D01*
X178562391Y-65462588D01*
X178429564Y-65503978D01*
X178429562Y-65503979D01*
X178290485Y-65588053D01*
X178290480Y-65588057D01*
X178175557Y-65702980D01*
X178175553Y-65702985D01*
X178091479Y-65842062D01*
X178091477Y-65842066D01*
X178043128Y-65997226D01*
X178037000Y-66064665D01*
X178037000Y-66960344D01*
X178043126Y-67027767D01*
X178043128Y-67027775D01*
X178091478Y-67182935D01*
X178091479Y-67182937D01*
X178175553Y-67322014D01*
X178175557Y-67322019D01*
X178290480Y-67436942D01*
X178290482Y-67436943D01*
X178301961Y-67443883D01*
X178349149Y-67495411D01*
X178360987Y-67564271D01*
X178333718Y-67628599D01*
X178301961Y-67656117D01*
X178290482Y-67663056D01*
X178290480Y-67663057D01*
X178175557Y-67777980D01*
X178175553Y-67777985D01*
X178091479Y-67917062D01*
X178091477Y-67917066D01*
X178043128Y-68072226D01*
X178037000Y-68139665D01*
X178037000Y-69035344D01*
X178043126Y-69102767D01*
X178043128Y-69102775D01*
X178091478Y-69257935D01*
X178091479Y-69257936D01*
X178175553Y-69397014D01*
X178175557Y-69397019D01*
X178290480Y-69511942D01*
X178290485Y-69511946D01*
X178429562Y-69596020D01*
X178429566Y-69596022D01*
X178474495Y-69610022D01*
X178584728Y-69644372D01*
X178652163Y-69650500D01*
X179947836Y-69650499D01*
X179947843Y-69650499D01*
X180015267Y-69644373D01*
X180015270Y-69644372D01*
X180015272Y-69644372D01*
X180170436Y-69596021D01*
X180243969Y-69551569D01*
X180309514Y-69511946D01*
X180309515Y-69511944D01*
X180309520Y-69511942D01*
X180424442Y-69397020D01*
X180453231Y-69349398D01*
X180500057Y-69271937D01*
X180508521Y-69257936D01*
X180518084Y-69227248D01*
X180518751Y-69225109D01*
X180557489Y-69166961D01*
X180621514Y-69138988D01*
X180637136Y-69138000D01*
X183497804Y-69138000D01*
X183564843Y-69157685D01*
X183610598Y-69210489D01*
X183616880Y-69227405D01*
X183648253Y-69335393D01*
X183648255Y-69335396D01*
X183648256Y-69335398D01*
X183656536Y-69349398D01*
X183731917Y-69476862D01*
X183731923Y-69476870D01*
X183848129Y-69593076D01*
X183848133Y-69593079D01*
X183848135Y-69593081D01*
X183989602Y-69676744D01*
X183998025Y-69679191D01*
X184147426Y-69722597D01*
X184147429Y-69722597D01*
X184147431Y-69722598D01*
X184184306Y-69725500D01*
X184184314Y-69725500D01*
X184615686Y-69725500D01*
X184615694Y-69725500D01*
X184652569Y-69722598D01*
X184652571Y-69722597D01*
X184652573Y-69722597D01*
X184694191Y-69710505D01*
X184810398Y-69676744D01*
X184951865Y-69593081D01*
X185068081Y-69476865D01*
X185151744Y-69335398D01*
X185188034Y-69210489D01*
X185197597Y-69177573D01*
X185197598Y-69177567D01*
X185199163Y-69157685D01*
X185200500Y-69140694D01*
X185200500Y-67974500D01*
X185220185Y-67907461D01*
X185272989Y-67861706D01*
X185324500Y-67850500D01*
X185565686Y-67850500D01*
X185565694Y-67850500D01*
X185599181Y-67847864D01*
X185603599Y-67847517D01*
X185671976Y-67861882D01*
X185701008Y-67883454D01*
X186413181Y-68595627D01*
X186446666Y-68656950D01*
X186449500Y-68683308D01*
X186449500Y-69416691D01*
X186429815Y-69483730D01*
X186413181Y-69504372D01*
X185816871Y-70100681D01*
X185755548Y-70134166D01*
X185729190Y-70137000D01*
X184989655Y-70137000D01*
X184922232Y-70143126D01*
X184922224Y-70143128D01*
X184767064Y-70191478D01*
X184767062Y-70191479D01*
X184627985Y-70275553D01*
X184627980Y-70275557D01*
X184513057Y-70390480D01*
X184513054Y-70390484D01*
X184505823Y-70402446D01*
X184454294Y-70449632D01*
X184385434Y-70461469D01*
X184321106Y-70434198D01*
X184293591Y-70402443D01*
X184286547Y-70390792D01*
X184286546Y-70390790D01*
X184171709Y-70275953D01*
X184171705Y-70275950D01*
X184032732Y-70191939D01*
X183877677Y-70143622D01*
X183810299Y-70137500D01*
X183612500Y-70137500D01*
X183612500Y-72662500D01*
X183810299Y-72662500D01*
X183877677Y-72656377D01*
X184032732Y-72608060D01*
X184171705Y-72524049D01*
X184171709Y-72524046D01*
X184286546Y-72409209D01*
X184286547Y-72409207D01*
X184293590Y-72397558D01*
X184345117Y-72350370D01*
X184413976Y-72338530D01*
X184478305Y-72365797D01*
X184505825Y-72397556D01*
X184513056Y-72409517D01*
X184513057Y-72409519D01*
X184627980Y-72524442D01*
X184627985Y-72524446D01*
X184727149Y-72584392D01*
X184774337Y-72635919D01*
X184787000Y-72690509D01*
X184787000Y-73091691D01*
X184767315Y-73158730D01*
X184750681Y-73179372D01*
X183434653Y-74495399D01*
X183373330Y-74528884D01*
X183371167Y-74529335D01*
X183366504Y-74530262D01*
X183366500Y-74530263D01*
X183220827Y-74590602D01*
X183220814Y-74590609D01*
X183089711Y-74678210D01*
X183089707Y-74678213D01*
X182978213Y-74789707D01*
X182978210Y-74789711D01*
X182890609Y-74920814D01*
X182890602Y-74920827D01*
X182830264Y-75066498D01*
X182830261Y-75066510D01*
X182799500Y-75221153D01*
X182799500Y-75378846D01*
X182830261Y-75533489D01*
X182830264Y-75533501D01*
X182890602Y-75679172D01*
X182890609Y-75679185D01*
X182978210Y-75810288D01*
X182978213Y-75810292D01*
X183089707Y-75921786D01*
X183089711Y-75921789D01*
X183220814Y-76009390D01*
X183220827Y-76009397D01*
X183366498Y-76069735D01*
X183366503Y-76069737D01*
X183521153Y-76100499D01*
X183521156Y-76100500D01*
X183521158Y-76100500D01*
X183678844Y-76100500D01*
X183678845Y-76100499D01*
X183833497Y-76069737D01*
X183979179Y-76009394D01*
X184110289Y-75921789D01*
X184221789Y-75810289D01*
X184309394Y-75679179D01*
X184369737Y-75533497D01*
X184395495Y-75404004D01*
X184427880Y-75342093D01*
X184429375Y-75340570D01*
X185942776Y-73827170D01*
X186013965Y-73720627D01*
X186063001Y-73602244D01*
X186065488Y-73589743D01*
X186079197Y-73520828D01*
X186088000Y-73476571D01*
X186088000Y-72690509D01*
X186107685Y-72623470D01*
X186147851Y-72584392D01*
X186247014Y-72524446D01*
X186247015Y-72524444D01*
X186247020Y-72524442D01*
X186361942Y-72409520D01*
X186362132Y-72409207D01*
X186413320Y-72324530D01*
X186446021Y-72270436D01*
X186494372Y-72115272D01*
X186500500Y-72047837D01*
X186500499Y-71308307D01*
X186520183Y-71241269D01*
X186536818Y-71220627D01*
X187537819Y-70219627D01*
X187599142Y-70186142D01*
X187668834Y-70191126D01*
X187724767Y-70232998D01*
X187749184Y-70298462D01*
X187749500Y-70307308D01*
X187749500Y-77237767D01*
X187729815Y-77304806D01*
X187713181Y-77325448D01*
X186654089Y-78384539D01*
X186592766Y-78418024D01*
X186547010Y-78419331D01*
X186501361Y-78412101D01*
X186501357Y-78412101D01*
X186298637Y-78412101D01*
X186252221Y-78419452D01*
X186098416Y-78443813D01*
X185905612Y-78506459D01*
X185724987Y-78598493D01*
X185560992Y-78717640D01*
X185417636Y-78860996D01*
X185298489Y-79024991D01*
X185206455Y-79205616D01*
X185143809Y-79398420D01*
X185112097Y-79598641D01*
X185112097Y-79801360D01*
X185137307Y-79960531D01*
X185143810Y-80001585D01*
X185206454Y-80194383D01*
X185298190Y-80374425D01*
X185298489Y-80375010D01*
X185417636Y-80539005D01*
X185560992Y-80682361D01*
X185688833Y-80775241D01*
X185724991Y-80801511D01*
X185905615Y-80893544D01*
X186098413Y-80956188D01*
X186298637Y-80987901D01*
X186298638Y-80987901D01*
X186501356Y-80987901D01*
X186501357Y-80987901D01*
X186701581Y-80956188D01*
X186894379Y-80893544D01*
X187075003Y-80801511D01*
X187167082Y-80734611D01*
X187239001Y-80682361D01*
X187239003Y-80682358D01*
X187239007Y-80682356D01*
X187382352Y-80539011D01*
X187382354Y-80539007D01*
X187382357Y-80539005D01*
X187448011Y-80448638D01*
X187501507Y-80375007D01*
X187593540Y-80194383D01*
X187656184Y-80001585D01*
X187687897Y-79801361D01*
X187687897Y-79598641D01*
X187680665Y-79552983D01*
X187689619Y-79483694D01*
X187715454Y-79445910D01*
X189082952Y-78078414D01*
X189133131Y-78003314D01*
X189165084Y-77955493D01*
X189188518Y-77898918D01*
X189221659Y-77818910D01*
X189250500Y-77673915D01*
X189250500Y-77526080D01*
X189250500Y-65826082D01*
X189250500Y-65826079D01*
X189221659Y-65681092D01*
X189221658Y-65681091D01*
X189221658Y-65681087D01*
X189203578Y-65637438D01*
X189165087Y-65544511D01*
X189165080Y-65544498D01*
X189082952Y-65421585D01*
X189035192Y-65373825D01*
X188978416Y-65317049D01*
X184378421Y-60717052D01*
X184378414Y-60717046D01*
X184304729Y-60667812D01*
X184304729Y-60667813D01*
X184255491Y-60634913D01*
X184118917Y-60578343D01*
X184118907Y-60578340D01*
X183973920Y-60549500D01*
X183973918Y-60549500D01*
X180270809Y-60549500D01*
X180203770Y-60529815D01*
X180183128Y-60513181D01*
X180101870Y-60431923D01*
X180101862Y-60431917D01*
X179960396Y-60348255D01*
X179960393Y-60348254D01*
X179802573Y-60302402D01*
X179802567Y-60302401D01*
X179765701Y-60299500D01*
X179765694Y-60299500D01*
X178834306Y-60299500D01*
X178834298Y-60299500D01*
X178797432Y-60302401D01*
X178797426Y-60302402D01*
X178639606Y-60348254D01*
X178639603Y-60348255D01*
X178498137Y-60431917D01*
X178498129Y-60431923D01*
X178402872Y-60527181D01*
X178341549Y-60560666D01*
X178315191Y-60563500D01*
X167541642Y-60563500D01*
X167474603Y-60543815D01*
X167453961Y-60527181D01*
X167372703Y-60445923D01*
X167372695Y-60445917D01*
X167231229Y-60362255D01*
X167231226Y-60362254D01*
X167073406Y-60316402D01*
X167073400Y-60316401D01*
X167036534Y-60313500D01*
X167036527Y-60313500D01*
X166105139Y-60313500D01*
X166105131Y-60313500D01*
X166068265Y-60316401D01*
X166068259Y-60316402D01*
X165910439Y-60362254D01*
X165910436Y-60362255D01*
X165768970Y-60445917D01*
X165768962Y-60445923D01*
X165687705Y-60527181D01*
X165626382Y-60560666D01*
X165600024Y-60563500D01*
X154812476Y-60563500D01*
X154745437Y-60543815D01*
X154724795Y-60527181D01*
X154643537Y-60445923D01*
X154643529Y-60445917D01*
X154502063Y-60362255D01*
X154502060Y-60362254D01*
X154344240Y-60316402D01*
X154344234Y-60316401D01*
X154307368Y-60313500D01*
X154307361Y-60313500D01*
X153375973Y-60313500D01*
X153375965Y-60313500D01*
X153339099Y-60316401D01*
X153339093Y-60316402D01*
X153181273Y-60362254D01*
X153181270Y-60362255D01*
X153039804Y-60445917D01*
X153039796Y-60445923D01*
X152958539Y-60527181D01*
X152897216Y-60560666D01*
X152870858Y-60563500D01*
X142083309Y-60563500D01*
X142016270Y-60543815D01*
X141995628Y-60527181D01*
X141914370Y-60445923D01*
X141914362Y-60445917D01*
X141772896Y-60362255D01*
X141772893Y-60362254D01*
X141615073Y-60316402D01*
X141615067Y-60316401D01*
X141578201Y-60313500D01*
X141578194Y-60313500D01*
X140646806Y-60313500D01*
X140646798Y-60313500D01*
X140609932Y-60316401D01*
X140609926Y-60316402D01*
X140452106Y-60362254D01*
X140452103Y-60362255D01*
X140310637Y-60445917D01*
X140310629Y-60445923D01*
X140229372Y-60527181D01*
X140168049Y-60560666D01*
X140141691Y-60563500D01*
X129354142Y-60563500D01*
X129287103Y-60543815D01*
X129266461Y-60527181D01*
X129185203Y-60445923D01*
X129185195Y-60445917D01*
X129043729Y-60362255D01*
X129043726Y-60362254D01*
X128885906Y-60316402D01*
X128885900Y-60316401D01*
X128849034Y-60313500D01*
X128849027Y-60313500D01*
X127917639Y-60313500D01*
X127917631Y-60313500D01*
X127880765Y-60316401D01*
X127880759Y-60316402D01*
X127722939Y-60362254D01*
X127722936Y-60362255D01*
X127581470Y-60445917D01*
X127581462Y-60445923D01*
X127500205Y-60527181D01*
X127438882Y-60560666D01*
X127412524Y-60563500D01*
X116624976Y-60563500D01*
X116557937Y-60543815D01*
X116537295Y-60527181D01*
X116456037Y-60445923D01*
X116456029Y-60445917D01*
X116314563Y-60362255D01*
X116314560Y-60362254D01*
X116156740Y-60316402D01*
X116156734Y-60316401D01*
X116119868Y-60313500D01*
X116119861Y-60313500D01*
X115188473Y-60313500D01*
X115188465Y-60313500D01*
X115151599Y-60316401D01*
X115151593Y-60316402D01*
X114993773Y-60362254D01*
X114993770Y-60362255D01*
X114852304Y-60445917D01*
X114852296Y-60445923D01*
X114771039Y-60527181D01*
X114709716Y-60560666D01*
X114683358Y-60563500D01*
X103895809Y-60563500D01*
X103828770Y-60543815D01*
X103808128Y-60527181D01*
X103726870Y-60445923D01*
X103726862Y-60445917D01*
X103585396Y-60362255D01*
X103585393Y-60362254D01*
X103427573Y-60316402D01*
X103427567Y-60316401D01*
X103390701Y-60313500D01*
X103390694Y-60313500D01*
X102459306Y-60313500D01*
X102459298Y-60313500D01*
X102422432Y-60316401D01*
X102422426Y-60316402D01*
X102264606Y-60362254D01*
X102264603Y-60362255D01*
X102123137Y-60445917D01*
X102123129Y-60445923D01*
X102006923Y-60562129D01*
X102006917Y-60562137D01*
X101923255Y-60703603D01*
X101923254Y-60703606D01*
X101877402Y-60861426D01*
X101877401Y-60861432D01*
X101874500Y-60898298D01*
X101874500Y-61729701D01*
X101877401Y-61766567D01*
X101877402Y-61766573D01*
X101923254Y-61924393D01*
X101923255Y-61924396D01*
X101998056Y-62050879D01*
X102015239Y-62118603D01*
X101998056Y-62177121D01*
X101923255Y-62303603D01*
X101923254Y-62303606D01*
X101877402Y-62461426D01*
X101877401Y-62461432D01*
X101874500Y-62498298D01*
X101874500Y-63329701D01*
X101877401Y-63366567D01*
X101877402Y-63366573D01*
X101923254Y-63524393D01*
X101923255Y-63524396D01*
X102006917Y-63665862D01*
X102006923Y-63665870D01*
X102113181Y-63772128D01*
X102146666Y-63833451D01*
X102149500Y-63859809D01*
X102149500Y-65358203D01*
X102129815Y-65425242D01*
X102077011Y-65470997D01*
X102062391Y-65476588D01*
X101929564Y-65517978D01*
X101929562Y-65517979D01*
X101790485Y-65602053D01*
X101790480Y-65602057D01*
X101675557Y-65716980D01*
X101675553Y-65716985D01*
X101591479Y-65856062D01*
X101591477Y-65856066D01*
X101543128Y-66011226D01*
X101537000Y-66078665D01*
X100072534Y-66078665D01*
X100018171Y-58724915D01*
X100037360Y-58657733D01*
X100089824Y-58611589D01*
X100142168Y-58600000D01*
X190779849Y-58600000D01*
X190846888Y-58619685D01*
G37*
%TD.AperFunction*%
%TD*%
M02*
