%TF.GenerationSoftware,KiCad,Pcbnew,9.0.4*%
%TF.CreationDate,2025-11-11T22:43:00-06:00*%
%TF.ProjectId,TEST,54455354-2e6b-4696-9361-645f70636258,rev?*%
%TF.SameCoordinates,Original*%
%TF.FileFunction,Copper,L2,Bot*%
%TF.FilePolarity,Positive*%
%FSLAX46Y46*%
G04 Gerber Fmt 4.6, Leading zero omitted, Abs format (unit mm)*
G04 Created by KiCad (PCBNEW 9.0.4) date 2025-11-11 22:43:00*
%MOMM*%
%LPD*%
G01*
G04 APERTURE LIST*
%TA.AperFunction,ComponentPad*%
%ADD10C,1.752600*%
%TD*%
%TA.AperFunction,ViaPad*%
%ADD11C,0.600000*%
%TD*%
%TA.AperFunction,ViaPad*%
%ADD12C,1.000000*%
%TD*%
%TA.AperFunction,ViaPad*%
%ADD13C,0.800000*%
%TD*%
%TA.AperFunction,Conductor*%
%ADD14C,0.400000*%
%TD*%
%TA.AperFunction,Conductor*%
%ADD15C,0.800000*%
%TD*%
%TA.AperFunction,Conductor*%
%ADD16C,0.500000*%
%TD*%
G04 APERTURE END LIST*
D10*
%TO.P,J2,1,1*%
%TO.N,/BOTS_START*%
X116663800Y-90715902D03*
%TO.P,J2,2,2*%
%TO.N,/COCKPIT_BUTTON_START*%
X114163800Y-90715902D03*
%TO.P,J2,3,3*%
%TO.N,/INERTIA_SWITCH_START*%
X111663800Y-90715902D03*
%TO.P,J2,4,4*%
%TO.N,/LEFT_BUTTON_END*%
X109163800Y-90715902D03*
%TO.P,J2,5,5*%
%TO.N,/INPUT*%
X106663800Y-90715902D03*
%TO.P,J2,6,6*%
%TO.N,+12V*%
X104163800Y-90715902D03*
%TO.P,J2,7,7*%
%TO.N,/BOTS_END*%
X116663800Y-93215902D03*
%TO.P,J2,8,8*%
%TO.N,/BOTS_START*%
X114163800Y-93215902D03*
%TO.P,J2,9,9*%
%TO.N,/COCKPIT_BUTTON_START*%
X111663800Y-93215902D03*
%TO.P,J2,10,10*%
%TO.N,/INERTIA_SWITCH_START*%
X109163800Y-93215902D03*
%TO.P,J2,11,11*%
%TO.N,/LEFT_BUTTON_END*%
X106663800Y-93215902D03*
%TO.P,J2,12,12*%
%TO.N,GND*%
X104163800Y-93215902D03*
%TD*%
%TO.P,J1,2,2*%
%TO.N,/INPUT*%
X106671200Y-76531200D03*
%TO.P,J1,1,1*%
%TO.N,/BOTS_END*%
X104171200Y-76531200D03*
%TD*%
D11*
%TO.N,GND*%
X117754400Y-85496400D03*
X107238800Y-81127600D03*
X145135600Y-100787200D03*
X126370080Y-100838000D03*
X129169160Y-100838000D03*
X131968240Y-100838000D03*
X134767320Y-100838000D03*
X102692200Y-86741000D03*
X110261400Y-84759800D03*
X110236000Y-86106000D03*
X107543600Y-82600800D03*
X107518200Y-84353400D03*
X107442000Y-86207600D03*
X102565200Y-59969400D03*
X105410000Y-59969400D03*
X108407200Y-60045600D03*
X110083600Y-62890400D03*
X111455200Y-62382400D03*
X111556800Y-59918600D03*
X117881400Y-59918600D03*
X121310400Y-59842400D03*
X123774200Y-59893200D03*
X127889000Y-60020200D03*
X132664200Y-59893200D03*
X136017000Y-63500000D03*
X127000000Y-63627000D03*
X136652000Y-61188600D03*
X135991600Y-59791600D03*
X138607800Y-59842400D03*
X142976600Y-60020200D03*
X145948400Y-59969400D03*
X144348200Y-61315600D03*
X143814800Y-63423800D03*
X117830600Y-61341000D03*
X117881400Y-63601600D03*
X110058200Y-60985400D03*
X112962267Y-60934600D03*
X98780600Y-59893200D03*
X100076000Y-63119000D03*
X103852133Y-61087000D03*
X106756200Y-61036200D03*
X100948067Y-61036200D03*
X105553933Y-63195200D03*
X108458000Y-63144400D03*
X102649867Y-63144400D03*
X133908800Y-97891600D03*
X123571000Y-100838000D03*
X120853200Y-100761800D03*
X115468400Y-98882200D03*
X117729000Y-98856800D03*
X119634000Y-99110800D03*
X121945400Y-99085400D03*
X108077000Y-100812600D03*
X111556800Y-100812600D03*
X106451400Y-99542600D03*
X113038466Y-99542600D03*
X109982000Y-99542600D03*
X104851200Y-97866200D03*
X110964133Y-97866200D03*
X107907667Y-97866200D03*
X114020600Y-97866200D03*
X103327200Y-96189800D03*
X106383667Y-96189800D03*
X109440133Y-96189800D03*
X112496600Y-96189800D03*
X96951800Y-93116400D03*
X93980000Y-93243400D03*
X99771200Y-99847400D03*
X101193600Y-98323400D03*
X99923600Y-96723200D03*
X101295200Y-95300800D03*
X99822000Y-93675200D03*
X116890800Y-95859600D03*
X119557800Y-88569800D03*
X121107200Y-93903800D03*
X122301000Y-94640400D03*
X121996200Y-92887800D03*
X122402600Y-88366600D03*
X125653800Y-88442800D03*
X127838200Y-88315800D03*
X129082800Y-87426800D03*
X129082800Y-89687400D03*
X127279400Y-91211400D03*
X128803400Y-92329000D03*
X125933200Y-92303600D03*
X128244600Y-93776800D03*
X129692400Y-93776800D03*
X126415800Y-95580200D03*
X128854200Y-95453200D03*
X127558800Y-96875600D03*
X126187200Y-98247200D03*
X128498600Y-98094800D03*
X135128000Y-88392000D03*
X133248400Y-91008200D03*
X133451600Y-88417400D03*
X136575800Y-87426800D03*
X136677400Y-89535000D03*
X134493000Y-91440000D03*
X136753600Y-91440000D03*
X135661400Y-93065600D03*
X133299200Y-93014800D03*
X136017000Y-94767400D03*
X137160000Y-93751400D03*
X133985000Y-95783400D03*
X135763000Y-97967800D03*
X134924800Y-96774000D03*
X136042400Y-96367600D03*
X137566400Y-100838000D03*
X139954000Y-100939600D03*
X138785600Y-99390200D03*
X142621000Y-100838000D03*
X143789400Y-99364800D03*
X141452600Y-99288600D03*
X142671800Y-98196400D03*
X142595600Y-95123000D03*
X143840200Y-96723200D03*
X141503400Y-96647000D03*
X144627600Y-94640400D03*
X146202400Y-93370400D03*
X143306800Y-93370400D03*
X147472400Y-67843400D03*
X150723600Y-67792600D03*
X147497800Y-70713600D03*
X150749000Y-70662800D03*
X149047200Y-69189600D03*
X149072600Y-72288400D03*
X150850600Y-76784200D03*
X149250400Y-75285600D03*
X147548600Y-76733400D03*
X150774400Y-73761600D03*
X147523200Y-73812400D03*
X149123400Y-78282800D03*
X147599400Y-82727800D03*
X150901400Y-82778600D03*
X147574000Y-79806800D03*
X150825200Y-79756000D03*
X149301200Y-81280000D03*
X140004800Y-83997800D03*
X142087600Y-82677000D03*
X143027400Y-81203800D03*
X143002000Y-78587600D03*
X141859000Y-79959200D03*
X140741400Y-78486000D03*
X140741400Y-81254600D03*
X142722600Y-76098400D03*
X142265400Y-71678800D03*
X132943600Y-70408800D03*
X137820400Y-69316600D03*
X135407400Y-67081400D03*
X137896600Y-67767200D03*
X133883400Y-71907400D03*
X136575800Y-71831200D03*
X137718800Y-73558400D03*
X136194800Y-75006200D03*
X133781800Y-75006200D03*
X137160000Y-76352400D03*
X134747000Y-76352400D03*
X135839200Y-77901800D03*
X133426200Y-77901800D03*
X129895600Y-79375000D03*
X137185400Y-79375000D03*
X134620000Y-79400400D03*
X132207000Y-79400400D03*
X135890000Y-81051400D03*
X133324600Y-81076800D03*
X130911600Y-81076800D03*
X128600200Y-81051400D03*
X126796800Y-66954400D03*
X125730000Y-71780400D03*
X129032000Y-67259200D03*
X128422400Y-68935600D03*
X128422400Y-71577200D03*
X127508000Y-73202800D03*
X129286000Y-73126600D03*
X126390400Y-75031600D03*
X128549400Y-75107800D03*
X127279400Y-76835000D03*
X125526800Y-78079600D03*
X122580400Y-78232000D03*
X125272800Y-76301600D03*
X123926600Y-79349600D03*
X121183400Y-79146400D03*
X110972600Y-83388200D03*
X112014000Y-82321400D03*
X113487200Y-80975200D03*
X103987600Y-65608200D03*
X107010200Y-65659000D03*
X105460800Y-67360800D03*
X105486200Y-70942200D03*
X104343200Y-72288400D03*
X106629200Y-72186800D03*
X105460800Y-73888600D03*
X110210600Y-72415400D03*
X110007400Y-68503800D03*
X110109000Y-66852800D03*
X110058200Y-65151000D03*
X111658400Y-64287400D03*
X111658400Y-65938400D03*
X111658400Y-67614800D03*
X111556800Y-69570600D03*
X111556800Y-71526400D03*
X111480600Y-73431400D03*
X112852200Y-73431400D03*
X111556800Y-75082400D03*
X109270800Y-78054200D03*
X111963200Y-78105000D03*
X117170200Y-77012800D03*
X118618000Y-76428600D03*
X117195600Y-75031600D03*
X119964200Y-74676000D03*
X118414800Y-66929000D03*
X120523000Y-66903600D03*
X118414800Y-68580000D03*
X118287800Y-70586600D03*
X118516400Y-73279000D03*
X116408200Y-71704200D03*
X120421400Y-71755000D03*
X113233200Y-85674200D03*
X114300000Y-84607400D03*
X115798600Y-83312000D03*
X108839000Y-81127600D03*
X104267000Y-80848200D03*
X104241600Y-85471000D03*
X104241600Y-82448400D03*
X102463600Y-80848200D03*
X102514400Y-84099400D03*
X101117400Y-68986400D03*
X98323400Y-78740000D03*
X99847400Y-77038200D03*
X92693067Y-75387200D03*
X94039267Y-77038200D03*
X97121133Y-73863200D03*
X96943333Y-77089000D03*
X95419334Y-78689200D03*
X101227467Y-78689200D03*
X98501200Y-75514200D03*
X100025200Y-73812400D03*
X94217067Y-73812400D03*
X92515267Y-78613000D03*
X95597134Y-75463400D03*
X101405267Y-75463400D03*
X98213333Y-69037200D03*
X101168200Y-72237600D03*
X96833266Y-67386200D03*
X92405200Y-68910200D03*
X95309267Y-68986400D03*
X93929200Y-67335400D03*
X98264133Y-72288400D03*
X99737333Y-67335400D03*
X92456000Y-72161400D03*
X96884066Y-70637400D03*
X95360067Y-72237600D03*
X93980000Y-70586600D03*
X99788133Y-70586600D03*
X101108933Y-82270600D03*
X98204866Y-82321400D03*
X92396733Y-82194400D03*
X96824799Y-80670400D03*
X95300800Y-82270600D03*
X93920733Y-80619600D03*
X99728866Y-80619600D03*
X92447533Y-85445600D03*
X96875599Y-83921600D03*
X98255666Y-85572600D03*
X99779666Y-83870800D03*
X93971533Y-83870800D03*
X95351600Y-85521800D03*
X101159733Y-85521800D03*
X98044000Y-88722200D03*
X100016733Y-87096600D03*
X94208600Y-87096600D03*
X97112666Y-87147400D03*
X95588667Y-88747600D03*
X101828600Y-88747600D03*
X92684600Y-88671400D03*
X99838933Y-90322400D03*
X96934866Y-90373200D03*
X94030800Y-90322400D03*
X95410867Y-91973400D03*
X92506800Y-91897200D03*
X101219000Y-91973400D03*
X98314933Y-92024200D03*
X146202400Y-84455000D03*
X149106467Y-84404200D03*
X147582466Y-85928200D03*
X144678400Y-85877400D03*
X150486533Y-85877400D03*
X149004867Y-87426800D03*
X146100800Y-87477600D03*
X143383000Y-90474800D03*
X149191133Y-90474800D03*
X146287066Y-90525600D03*
X144712267Y-89052400D03*
X141808200Y-88976200D03*
X150520400Y-89052400D03*
X147616333Y-89103200D03*
X150520400Y-91922600D03*
X147616333Y-91973400D03*
X144712267Y-91922600D03*
X141808200Y-91846400D03*
D12*
%TO.N,+12V*%
X118262400Y-87274400D03*
D11*
%TO.N,/COCKPIT_BUTTON_START*%
X139101900Y-78486000D03*
D13*
X120548400Y-82981800D03*
%TO.N,/BOTS_END*%
X137160000Y-99009200D03*
X129679700Y-99123500D03*
D11*
X120192800Y-94996000D03*
%TD*%
D14*
%TO.N,/BOTS_START*%
X114163800Y-93215902D02*
X116663800Y-90715902D01*
%TO.N,/COCKPIT_BUTTON_START*%
X111663800Y-93215902D02*
X114163800Y-90715902D01*
%TO.N,/INERTIA_SWITCH_START*%
X109163800Y-93215902D02*
X111663800Y-90715902D01*
%TO.N,/LEFT_BUTTON_END*%
X106663800Y-93215902D02*
X109163800Y-90715902D01*
D15*
%TO.N,+12V*%
X104140000Y-88595200D02*
X104163800Y-88619000D01*
X104163800Y-88619000D02*
X104163800Y-90715902D01*
X117424200Y-87807800D02*
X104927400Y-87807800D01*
X104927400Y-87807800D02*
X104140000Y-88595200D01*
X117957600Y-87274400D02*
X117424200Y-87807800D01*
X118262400Y-87274400D02*
X117957600Y-87274400D01*
D16*
%TO.N,/BOTS_END*%
X137033000Y-99136200D02*
X137160000Y-99009200D01*
X129692400Y-99136200D02*
X137033000Y-99136200D01*
X129679700Y-99123500D02*
X129692400Y-99136200D01*
X124295000Y-99098200D02*
X120192800Y-94996000D01*
X126552496Y-99085400D02*
X126539696Y-99098200D01*
X129641600Y-99085400D02*
X126552496Y-99085400D01*
X126539696Y-99098200D02*
X124295000Y-99098200D01*
X129679700Y-99123500D02*
X129641600Y-99085400D01*
%TO.N,/COCKPIT_BUTTON_START*%
X139101900Y-81141500D02*
X139101900Y-78486000D01*
X137236200Y-83007200D02*
X139101900Y-81141500D01*
X120573800Y-83007200D02*
X137236200Y-83007200D01*
X120548400Y-82981800D02*
X120573800Y-83007200D01*
%TO.N,/BOTS_END*%
X121081800Y-86385400D02*
X121081800Y-91744800D01*
X114274600Y-79578200D02*
X121081800Y-86385400D01*
X121081800Y-91744800D02*
X119610698Y-93215902D01*
X119610698Y-93215902D02*
X116663800Y-93215902D01*
X105079800Y-79578200D02*
X114274600Y-79578200D01*
X104171200Y-78669600D02*
X105079800Y-79578200D01*
X104171200Y-76531200D02*
X104171200Y-78669600D01*
%TD*%
%TA.AperFunction,Conductor*%
%TO.N,GND*%
G36*
X105500220Y-91459813D02*
G01*
X105514117Y-91475851D01*
X105613636Y-91612827D01*
X105766875Y-91766066D01*
X105903850Y-91865584D01*
X105946515Y-91920914D01*
X105952494Y-91990528D01*
X105919888Y-92052322D01*
X105903850Y-92066219D01*
X105766875Y-92165738D01*
X105766873Y-92165740D01*
X105766872Y-92165740D01*
X105613637Y-92318975D01*
X105513809Y-92456376D01*
X105458478Y-92499041D01*
X105388865Y-92505020D01*
X105327070Y-92472414D01*
X105313173Y-92456375D01*
X105297901Y-92435355D01*
X105297899Y-92435354D01*
X104743640Y-92989613D01*
X104715275Y-92921132D01*
X104647172Y-92819209D01*
X104560493Y-92732530D01*
X104458570Y-92664427D01*
X104390087Y-92636060D01*
X104944345Y-92081801D01*
X104944345Y-92081800D01*
X104923325Y-92066528D01*
X104880659Y-92011198D01*
X104874680Y-91941585D01*
X104907286Y-91879790D01*
X104923318Y-91865897D01*
X105060725Y-91766066D01*
X105213964Y-91612827D01*
X105313482Y-91475851D01*
X105368812Y-91433186D01*
X105438425Y-91427207D01*
X105500220Y-91459813D01*
G37*
%TD.AperFunction*%
%TA.AperFunction,Conductor*%
G36*
X152303600Y-59066285D02*
G01*
X152349355Y-59119089D01*
X152360558Y-59171265D01*
X152201757Y-88708299D01*
X152132939Y-101508467D01*
X152112895Y-101575399D01*
X152059845Y-101620870D01*
X152008941Y-101631800D01*
X117347426Y-101631800D01*
X117280387Y-101612115D01*
X117234632Y-101559311D01*
X117224688Y-101490153D01*
X117253713Y-101426597D01*
X117277443Y-101406476D01*
X117277055Y-101405941D01*
X117280997Y-101403077D01*
X117430955Y-101294126D01*
X117562023Y-101163058D01*
X117670974Y-101013100D01*
X117755124Y-100847944D01*
X117812403Y-100671658D01*
X117841400Y-100488582D01*
X117841400Y-100303224D01*
X117812403Y-100120148D01*
X117755124Y-99943862D01*
X117670974Y-99778706D01*
X117562023Y-99628748D01*
X117430955Y-99497680D01*
X117280997Y-99388729D01*
X117268652Y-99382439D01*
X117115838Y-99304577D01*
X116939552Y-99247299D01*
X116798918Y-99225024D01*
X116756479Y-99218303D01*
X116571121Y-99218303D01*
X116528681Y-99225024D01*
X116388048Y-99247299D01*
X116388047Y-99247299D01*
X116211761Y-99304577D01*
X116046606Y-99388727D01*
X116046598Y-99388732D01*
X115981898Y-99435740D01*
X115896645Y-99497680D01*
X115896643Y-99497682D01*
X115896642Y-99497682D01*
X115765579Y-99628745D01*
X115765579Y-99628746D01*
X115765577Y-99628748D01*
X115727503Y-99681152D01*
X115656629Y-99778701D01*
X115656624Y-99778709D01*
X115572474Y-99943864D01*
X115515196Y-100120150D01*
X115515196Y-100120151D01*
X115486200Y-100303224D01*
X115486200Y-100488581D01*
X115515196Y-100671654D01*
X115515196Y-100671655D01*
X115572474Y-100847941D01*
X115572476Y-100847944D01*
X115656626Y-101013100D01*
X115765577Y-101163058D01*
X115896645Y-101294126D01*
X116046603Y-101403077D01*
X116050545Y-101405941D01*
X116049617Y-101407218D01*
X116091836Y-101453878D01*
X116103263Y-101522807D01*
X116075609Y-101586972D01*
X116017656Y-101625999D01*
X115980174Y-101631800D01*
X104847426Y-101631800D01*
X104780387Y-101612115D01*
X104734632Y-101559311D01*
X104724688Y-101490153D01*
X104753713Y-101426597D01*
X104777443Y-101406476D01*
X104777055Y-101405941D01*
X104780997Y-101403077D01*
X104930955Y-101294126D01*
X105062023Y-101163058D01*
X105170974Y-101013100D01*
X105255124Y-100847944D01*
X105312403Y-100671658D01*
X105341400Y-100488582D01*
X105341400Y-100303224D01*
X105312403Y-100120148D01*
X105255124Y-99943862D01*
X105170974Y-99778706D01*
X105062023Y-99628748D01*
X104930955Y-99497680D01*
X104780997Y-99388729D01*
X104768652Y-99382439D01*
X104615838Y-99304577D01*
X104439552Y-99247299D01*
X104298918Y-99225024D01*
X104256479Y-99218303D01*
X104071121Y-99218303D01*
X104028681Y-99225024D01*
X103888048Y-99247299D01*
X103888047Y-99247299D01*
X103711761Y-99304577D01*
X103546606Y-99388727D01*
X103546598Y-99388732D01*
X103481898Y-99435740D01*
X103396645Y-99497680D01*
X103396643Y-99497682D01*
X103396642Y-99497682D01*
X103265579Y-99628745D01*
X103265579Y-99628746D01*
X103265577Y-99628748D01*
X103227503Y-99681152D01*
X103156629Y-99778701D01*
X103156624Y-99778709D01*
X103072474Y-99943864D01*
X103015196Y-100120150D01*
X103015196Y-100120151D01*
X102986200Y-100303224D01*
X102986200Y-100488581D01*
X103015196Y-100671654D01*
X103015196Y-100671655D01*
X103072474Y-100847941D01*
X103072476Y-100847944D01*
X103156626Y-101013100D01*
X103265577Y-101163058D01*
X103396645Y-101294126D01*
X103546603Y-101403077D01*
X103550545Y-101405941D01*
X103549617Y-101407218D01*
X103591836Y-101453878D01*
X103603263Y-101522807D01*
X103575609Y-101586972D01*
X103517656Y-101625999D01*
X103480174Y-101631800D01*
X91338108Y-101631800D01*
X91271069Y-101612115D01*
X91225314Y-101559311D01*
X91214111Y-101508717D01*
X91206570Y-100488581D01*
X91182102Y-97178711D01*
X93749500Y-97178711D01*
X93749500Y-97421288D01*
X93781161Y-97661785D01*
X93843947Y-97896104D01*
X93936773Y-98120205D01*
X93936776Y-98120212D01*
X94058064Y-98330289D01*
X94058066Y-98330292D01*
X94058067Y-98330293D01*
X94205733Y-98522736D01*
X94205739Y-98522743D01*
X94377256Y-98694260D01*
X94377263Y-98694266D01*
X94490321Y-98781018D01*
X94569711Y-98841936D01*
X94779788Y-98963224D01*
X95003900Y-99056054D01*
X95238211Y-99118838D01*
X95418586Y-99142584D01*
X95478711Y-99150500D01*
X95478712Y-99150500D01*
X95721289Y-99150500D01*
X95769388Y-99144167D01*
X95961789Y-99118838D01*
X96196100Y-99056054D01*
X96420212Y-98963224D01*
X96630289Y-98841936D01*
X96822738Y-98694265D01*
X96994265Y-98522738D01*
X97141936Y-98330289D01*
X97263224Y-98120212D01*
X97356054Y-97896100D01*
X97418838Y-97661789D01*
X97450500Y-97421288D01*
X97450500Y-97178712D01*
X97418838Y-96938211D01*
X97356054Y-96703900D01*
X97263224Y-96479788D01*
X97141936Y-96269711D01*
X96994265Y-96077262D01*
X96994260Y-96077256D01*
X96822743Y-95905739D01*
X96822736Y-95905733D01*
X96630293Y-95758067D01*
X96630292Y-95758066D01*
X96630289Y-95758064D01*
X96420212Y-95636776D01*
X96412880Y-95633739D01*
X96196104Y-95543947D01*
X96055560Y-95506288D01*
X95961789Y-95481162D01*
X95961788Y-95481161D01*
X95961785Y-95481161D01*
X95721289Y-95449500D01*
X95721288Y-95449500D01*
X95478712Y-95449500D01*
X95478711Y-95449500D01*
X95238214Y-95481161D01*
X95003895Y-95543947D01*
X94779794Y-95636773D01*
X94779785Y-95636777D01*
X94569706Y-95758067D01*
X94377263Y-95905733D01*
X94377256Y-95905739D01*
X94205739Y-96077256D01*
X94205733Y-96077263D01*
X94058067Y-96269706D01*
X93936777Y-96479785D01*
X93936773Y-96479794D01*
X93843947Y-96703895D01*
X93781161Y-96938214D01*
X93749500Y-97178711D01*
X91182102Y-97178711D01*
X91165384Y-94917153D01*
X119392300Y-94917153D01*
X119392300Y-95074846D01*
X119423061Y-95229489D01*
X119423064Y-95229501D01*
X119483402Y-95375172D01*
X119483409Y-95375185D01*
X119571010Y-95506288D01*
X119571013Y-95506292D01*
X119682510Y-95617789D01*
X119813615Y-95705390D01*
X119813621Y-95705394D01*
X119837275Y-95715191D01*
X119877503Y-95742071D01*
X123816586Y-99681154D01*
X123846058Y-99700845D01*
X123890270Y-99730386D01*
X123939505Y-99763284D01*
X123939506Y-99763284D01*
X123939507Y-99763285D01*
X123939509Y-99763286D01*
X124045559Y-99807213D01*
X124076087Y-99819858D01*
X124076091Y-99819858D01*
X124076092Y-99819859D01*
X124221079Y-99848700D01*
X124221082Y-99848700D01*
X126613615Y-99848700D01*
X126665982Y-99838283D01*
X126690175Y-99835900D01*
X129087410Y-99835900D01*
X129154449Y-99855585D01*
X129156245Y-99856760D01*
X129253153Y-99921513D01*
X129253155Y-99921514D01*
X129253159Y-99921516D01*
X129376063Y-99972423D01*
X129417034Y-99989394D01*
X129417036Y-99989394D01*
X129417041Y-99989396D01*
X129591004Y-100023999D01*
X129591007Y-100024000D01*
X129591009Y-100024000D01*
X129768393Y-100024000D01*
X129768394Y-100023999D01*
X129826382Y-100012464D01*
X129942358Y-99989396D01*
X129942361Y-99989394D01*
X129942366Y-99989394D01*
X130106247Y-99921513D01*
X130106253Y-99921509D01*
X130127073Y-99907598D01*
X130193750Y-99886720D01*
X130195964Y-99886700D01*
X136943470Y-99886700D01*
X136967660Y-99889082D01*
X136992263Y-99893976D01*
X137071306Y-99909700D01*
X137071309Y-99909700D01*
X137248693Y-99909700D01*
X137248694Y-99909699D01*
X137306682Y-99898164D01*
X137422658Y-99875096D01*
X137422661Y-99875094D01*
X137422666Y-99875094D01*
X137586547Y-99807213D01*
X137734035Y-99708664D01*
X137859464Y-99583235D01*
X137958013Y-99435747D01*
X138025894Y-99271866D01*
X138036549Y-99218303D01*
X138060499Y-99097895D01*
X138060500Y-99097893D01*
X138060500Y-98920506D01*
X138060499Y-98920504D01*
X138025896Y-98746541D01*
X138025893Y-98746532D01*
X137958016Y-98582659D01*
X137958009Y-98582646D01*
X137859464Y-98435165D01*
X137859461Y-98435161D01*
X137734038Y-98309738D01*
X137734034Y-98309735D01*
X137586553Y-98211190D01*
X137586540Y-98211183D01*
X137422667Y-98143306D01*
X137422658Y-98143303D01*
X137248694Y-98108700D01*
X137248691Y-98108700D01*
X137071309Y-98108700D01*
X137071306Y-98108700D01*
X136897341Y-98143303D01*
X136897332Y-98143306D01*
X136733459Y-98211183D01*
X136733446Y-98211190D01*
X136585965Y-98309735D01*
X136585961Y-98309738D01*
X136546321Y-98349380D01*
X136484998Y-98382866D01*
X136458639Y-98385700D01*
X130233977Y-98385700D01*
X130166938Y-98366015D01*
X130165133Y-98364833D01*
X130113434Y-98330289D01*
X130106246Y-98325486D01*
X129942367Y-98257606D01*
X129942358Y-98257603D01*
X129768394Y-98223000D01*
X129768391Y-98223000D01*
X129591009Y-98223000D01*
X129591006Y-98223000D01*
X129417041Y-98257603D01*
X129417032Y-98257606D01*
X129253214Y-98325461D01*
X129205762Y-98334900D01*
X126478577Y-98334900D01*
X126426210Y-98345317D01*
X126402017Y-98347700D01*
X124657230Y-98347700D01*
X124590191Y-98328015D01*
X124569549Y-98311381D01*
X123164879Y-96906711D01*
X146307700Y-96906711D01*
X146307700Y-97149288D01*
X146339361Y-97389785D01*
X146402147Y-97624104D01*
X146417757Y-97661789D01*
X146494976Y-97848212D01*
X146616264Y-98058289D01*
X146616266Y-98058292D01*
X146616267Y-98058293D01*
X146763933Y-98250736D01*
X146763939Y-98250743D01*
X146935456Y-98422260D01*
X146935463Y-98422266D01*
X147048521Y-98509018D01*
X147127911Y-98569936D01*
X147337988Y-98691224D01*
X147562100Y-98784054D01*
X147796411Y-98846838D01*
X147976786Y-98870584D01*
X148036911Y-98878500D01*
X148036912Y-98878500D01*
X148279489Y-98878500D01*
X148327588Y-98872167D01*
X148519989Y-98846838D01*
X148754300Y-98784054D01*
X148978412Y-98691224D01*
X149188489Y-98569936D01*
X149380938Y-98422265D01*
X149552465Y-98250738D01*
X149700136Y-98058289D01*
X149821424Y-97848212D01*
X149914254Y-97624100D01*
X149977038Y-97389789D01*
X150008700Y-97149288D01*
X150008700Y-96906712D01*
X149977038Y-96666211D01*
X149914254Y-96431900D01*
X149821424Y-96207788D01*
X149700136Y-95997711D01*
X149629564Y-95905739D01*
X149552466Y-95805263D01*
X149552460Y-95805256D01*
X149380943Y-95633739D01*
X149380936Y-95633733D01*
X149188493Y-95486067D01*
X149188492Y-95486066D01*
X149188489Y-95486064D01*
X148996431Y-95375179D01*
X148978414Y-95364777D01*
X148978405Y-95364773D01*
X148754304Y-95271947D01*
X148637144Y-95240554D01*
X148519989Y-95209162D01*
X148519988Y-95209161D01*
X148519985Y-95209161D01*
X148279489Y-95177500D01*
X148279488Y-95177500D01*
X148036912Y-95177500D01*
X148036911Y-95177500D01*
X147796414Y-95209161D01*
X147562095Y-95271947D01*
X147337994Y-95364773D01*
X147337985Y-95364777D01*
X147127906Y-95486067D01*
X146935463Y-95633733D01*
X146935456Y-95633739D01*
X146763939Y-95805256D01*
X146763933Y-95805263D01*
X146616267Y-95997706D01*
X146494977Y-96207785D01*
X146494973Y-96207794D01*
X146402147Y-96431895D01*
X146339361Y-96666214D01*
X146307700Y-96906711D01*
X123164879Y-96906711D01*
X120938871Y-94680703D01*
X120911991Y-94640475D01*
X120902194Y-94616821D01*
X120818680Y-94491833D01*
X120814589Y-94485710D01*
X120703092Y-94374213D01*
X120703088Y-94374210D01*
X120571985Y-94286609D01*
X120571972Y-94286602D01*
X120426301Y-94226264D01*
X120426289Y-94226261D01*
X120271645Y-94195500D01*
X120271642Y-94195500D01*
X120113958Y-94195500D01*
X120113955Y-94195500D01*
X119959310Y-94226261D01*
X119959298Y-94226264D01*
X119813627Y-94286602D01*
X119813614Y-94286609D01*
X119682511Y-94374210D01*
X119682507Y-94374213D01*
X119571013Y-94485707D01*
X119571010Y-94485711D01*
X119483409Y-94616814D01*
X119483402Y-94616827D01*
X119423064Y-94762498D01*
X119423061Y-94762510D01*
X119392300Y-94917153D01*
X91165384Y-94917153D01*
X91133525Y-90607546D01*
X102787000Y-90607546D01*
X102787000Y-90824257D01*
X102820902Y-91038304D01*
X102820902Y-91038307D01*
X102887868Y-91244407D01*
X102958266Y-91382570D01*
X102986255Y-91437502D01*
X103113636Y-91612827D01*
X103266875Y-91766066D01*
X103403850Y-91865584D01*
X103404274Y-91865892D01*
X103446939Y-91921222D01*
X103452918Y-91990835D01*
X103420312Y-92052630D01*
X103404273Y-92066528D01*
X103383253Y-92081799D01*
X103383253Y-92081801D01*
X103937512Y-92636060D01*
X103869030Y-92664427D01*
X103767107Y-92732530D01*
X103680428Y-92819209D01*
X103612325Y-92921132D01*
X103583958Y-92989614D01*
X103029699Y-92435355D01*
X103029698Y-92435355D01*
X102986684Y-92494561D01*
X102888334Y-92687581D01*
X102821388Y-92893617D01*
X102787500Y-93107579D01*
X102787500Y-93324224D01*
X102821388Y-93538186D01*
X102888334Y-93744222D01*
X102986685Y-93937244D01*
X103029698Y-93996447D01*
X103029699Y-93996447D01*
X103583958Y-93442188D01*
X103612325Y-93510672D01*
X103680428Y-93612595D01*
X103767107Y-93699274D01*
X103869030Y-93767377D01*
X103937512Y-93795742D01*
X103383252Y-94350001D01*
X103383253Y-94350002D01*
X103442457Y-94393016D01*
X103635479Y-94491367D01*
X103841515Y-94558313D01*
X104055478Y-94592202D01*
X104272122Y-94592202D01*
X104486084Y-94558313D01*
X104692120Y-94491367D01*
X104885131Y-94393022D01*
X104885144Y-94393014D01*
X104944345Y-94350002D01*
X104944346Y-94350001D01*
X104390087Y-93795743D01*
X104458570Y-93767377D01*
X104560493Y-93699274D01*
X104647172Y-93612595D01*
X104715275Y-93510672D01*
X104743640Y-93442189D01*
X105297899Y-93996448D01*
X105297899Y-93996447D01*
X105313173Y-93975426D01*
X105368503Y-93932761D01*
X105438116Y-93926782D01*
X105499911Y-93959388D01*
X105513809Y-93975427D01*
X105613633Y-94112823D01*
X105613636Y-94112827D01*
X105766875Y-94266066D01*
X105942200Y-94393447D01*
X106123271Y-94485707D01*
X106135294Y-94491833D01*
X106341395Y-94558799D01*
X106341396Y-94558799D01*
X106341399Y-94558800D01*
X106555444Y-94592702D01*
X106555445Y-94592702D01*
X106772155Y-94592702D01*
X106772156Y-94592702D01*
X106986201Y-94558800D01*
X106986204Y-94558799D01*
X106986205Y-94558799D01*
X107192305Y-94491833D01*
X107192305Y-94491832D01*
X107192308Y-94491832D01*
X107385400Y-94393447D01*
X107560725Y-94266066D01*
X107713964Y-94112827D01*
X107813482Y-93975851D01*
X107868812Y-93933186D01*
X107938425Y-93927207D01*
X108000220Y-93959813D01*
X108014117Y-93975851D01*
X108113636Y-94112827D01*
X108266875Y-94266066D01*
X108442200Y-94393447D01*
X108623271Y-94485707D01*
X108635294Y-94491833D01*
X108841395Y-94558799D01*
X108841396Y-94558799D01*
X108841399Y-94558800D01*
X109055444Y-94592702D01*
X109055445Y-94592702D01*
X109272155Y-94592702D01*
X109272156Y-94592702D01*
X109486201Y-94558800D01*
X109486204Y-94558799D01*
X109486205Y-94558799D01*
X109692305Y-94491833D01*
X109692305Y-94491832D01*
X109692308Y-94491832D01*
X109885400Y-94393447D01*
X110060725Y-94266066D01*
X110213964Y-94112827D01*
X110313482Y-93975851D01*
X110368812Y-93933186D01*
X110438425Y-93927207D01*
X110500220Y-93959813D01*
X110514117Y-93975851D01*
X110613636Y-94112827D01*
X110766875Y-94266066D01*
X110942200Y-94393447D01*
X111123271Y-94485707D01*
X111135294Y-94491833D01*
X111341395Y-94558799D01*
X111341396Y-94558799D01*
X111341399Y-94558800D01*
X111555444Y-94592702D01*
X111555445Y-94592702D01*
X111772155Y-94592702D01*
X111772156Y-94592702D01*
X111986201Y-94558800D01*
X111986204Y-94558799D01*
X111986205Y-94558799D01*
X112192305Y-94491833D01*
X112192305Y-94491832D01*
X112192308Y-94491832D01*
X112385400Y-94393447D01*
X112560725Y-94266066D01*
X112713964Y-94112827D01*
X112813482Y-93975851D01*
X112868812Y-93933186D01*
X112938425Y-93927207D01*
X113000220Y-93959813D01*
X113014117Y-93975851D01*
X113113636Y-94112827D01*
X113266875Y-94266066D01*
X113442200Y-94393447D01*
X113623271Y-94485707D01*
X113635294Y-94491833D01*
X113841395Y-94558799D01*
X113841396Y-94558799D01*
X113841399Y-94558800D01*
X114055444Y-94592702D01*
X114055445Y-94592702D01*
X114272155Y-94592702D01*
X114272156Y-94592702D01*
X114486201Y-94558800D01*
X114486204Y-94558799D01*
X114486205Y-94558799D01*
X114692305Y-94491833D01*
X114692305Y-94491832D01*
X114692308Y-94491832D01*
X114885400Y-94393447D01*
X115060725Y-94266066D01*
X115213964Y-94112827D01*
X115313482Y-93975851D01*
X115368812Y-93933186D01*
X115438425Y-93927207D01*
X115500220Y-93959813D01*
X115514117Y-93975851D01*
X115613636Y-94112827D01*
X115766875Y-94266066D01*
X115942200Y-94393447D01*
X116123271Y-94485707D01*
X116135294Y-94491833D01*
X116341395Y-94558799D01*
X116341396Y-94558799D01*
X116341399Y-94558800D01*
X116555444Y-94592702D01*
X116555445Y-94592702D01*
X116772155Y-94592702D01*
X116772156Y-94592702D01*
X116986201Y-94558800D01*
X116986204Y-94558799D01*
X116986205Y-94558799D01*
X117192305Y-94491833D01*
X117192305Y-94491832D01*
X117192308Y-94491832D01*
X117385400Y-94393447D01*
X117560725Y-94266066D01*
X117713964Y-94112827D01*
X117783212Y-94017515D01*
X117838541Y-93974851D01*
X117883529Y-93966402D01*
X119684618Y-93966402D01*
X119782160Y-93946998D01*
X119829611Y-93937560D01*
X119966193Y-93880986D01*
X120015427Y-93848088D01*
X120089114Y-93798854D01*
X121664751Y-92223216D01*
X121746884Y-92100295D01*
X121803458Y-91963713D01*
X121832300Y-91818718D01*
X121832300Y-91670883D01*
X121832300Y-86311482D01*
X121824824Y-86273900D01*
X121803459Y-86166488D01*
X121749208Y-86035517D01*
X121747564Y-86030922D01*
X121664754Y-85906988D01*
X121664753Y-85906987D01*
X121664751Y-85906984D01*
X121560216Y-85802449D01*
X118732466Y-82974698D01*
X118650872Y-82893104D01*
X119647900Y-82893104D01*
X119647900Y-83070495D01*
X119682503Y-83244458D01*
X119682506Y-83244467D01*
X119750383Y-83408340D01*
X119750390Y-83408353D01*
X119848935Y-83555834D01*
X119848938Y-83555838D01*
X119974361Y-83681261D01*
X119974365Y-83681264D01*
X120121846Y-83779809D01*
X120121859Y-83779816D01*
X120244763Y-83830723D01*
X120285734Y-83847694D01*
X120285736Y-83847694D01*
X120285741Y-83847696D01*
X120459704Y-83882299D01*
X120459707Y-83882300D01*
X120459709Y-83882300D01*
X120637093Y-83882300D01*
X120637094Y-83882299D01*
X120695082Y-83870764D01*
X120811058Y-83847696D01*
X120811061Y-83847694D01*
X120811066Y-83847694D01*
X120974947Y-83779813D01*
X120976767Y-83778596D01*
X120977866Y-83778252D01*
X120980314Y-83776944D01*
X120980562Y-83777408D01*
X121043444Y-83757720D01*
X121045656Y-83757700D01*
X137310120Y-83757700D01*
X137407662Y-83738296D01*
X137455113Y-83728858D01*
X137591695Y-83672284D01*
X137640929Y-83639386D01*
X137714616Y-83590152D01*
X139684851Y-81619916D01*
X139766984Y-81496995D01*
X139823558Y-81360413D01*
X139852400Y-81215418D01*
X139852400Y-81067583D01*
X139852400Y-78790604D01*
X139861839Y-78743151D01*
X139871637Y-78719497D01*
X139902400Y-78564842D01*
X139902400Y-78407158D01*
X139902400Y-78407155D01*
X139902399Y-78407153D01*
X139871638Y-78252510D01*
X139871637Y-78252503D01*
X139871635Y-78252498D01*
X139811297Y-78106827D01*
X139811290Y-78106814D01*
X139723689Y-77975711D01*
X139723686Y-77975707D01*
X139612192Y-77864213D01*
X139612188Y-77864210D01*
X139481085Y-77776609D01*
X139481072Y-77776602D01*
X139335401Y-77716264D01*
X139335389Y-77716261D01*
X139180745Y-77685500D01*
X139180742Y-77685500D01*
X139023058Y-77685500D01*
X139023055Y-77685500D01*
X138868410Y-77716261D01*
X138868398Y-77716264D01*
X138722727Y-77776602D01*
X138722714Y-77776609D01*
X138591611Y-77864210D01*
X138591607Y-77864213D01*
X138480113Y-77975707D01*
X138480110Y-77975711D01*
X138392509Y-78106814D01*
X138392502Y-78106827D01*
X138332164Y-78252498D01*
X138332161Y-78252510D01*
X138301400Y-78407153D01*
X138301400Y-78564846D01*
X138332161Y-78719489D01*
X138332163Y-78719497D01*
X138341961Y-78743151D01*
X138351400Y-78790604D01*
X138351400Y-80779270D01*
X138331715Y-80846309D01*
X138315081Y-80866951D01*
X136961651Y-82220381D01*
X136900328Y-82253866D01*
X136873970Y-82256700D01*
X121121683Y-82256700D01*
X121054644Y-82237015D01*
X121052792Y-82235802D01*
X121029713Y-82220381D01*
X120974947Y-82183787D01*
X120974944Y-82183785D01*
X120974943Y-82183785D01*
X120974942Y-82183784D01*
X120811067Y-82115906D01*
X120811058Y-82115903D01*
X120637094Y-82081300D01*
X120637091Y-82081300D01*
X120459709Y-82081300D01*
X120459706Y-82081300D01*
X120285741Y-82115903D01*
X120285732Y-82115906D01*
X120121859Y-82183783D01*
X120121846Y-82183790D01*
X119974365Y-82282335D01*
X119974361Y-82282338D01*
X119848938Y-82407761D01*
X119848935Y-82407765D01*
X119750390Y-82555246D01*
X119750383Y-82555259D01*
X119682506Y-82719132D01*
X119682503Y-82719141D01*
X119647900Y-82893104D01*
X118650872Y-82893104D01*
X114753021Y-78995252D01*
X114753014Y-78995246D01*
X114679329Y-78946012D01*
X114679329Y-78946013D01*
X114630091Y-78913113D01*
X114493517Y-78856543D01*
X114493507Y-78856540D01*
X114348520Y-78827700D01*
X114348518Y-78827700D01*
X105442029Y-78827700D01*
X105374990Y-78808015D01*
X105354348Y-78791381D01*
X104958019Y-78395051D01*
X104924534Y-78333728D01*
X104921700Y-78307370D01*
X104921700Y-77750928D01*
X104941385Y-77683889D01*
X104972814Y-77650610D01*
X105068125Y-77581364D01*
X105221364Y-77428125D01*
X105320882Y-77291149D01*
X105376212Y-77248484D01*
X105445825Y-77242505D01*
X105507620Y-77275111D01*
X105521517Y-77291149D01*
X105621036Y-77428125D01*
X105774275Y-77581364D01*
X105949600Y-77708745D01*
X106082785Y-77776606D01*
X106142694Y-77807131D01*
X106348795Y-77874097D01*
X106348796Y-77874097D01*
X106348799Y-77874098D01*
X106562844Y-77908000D01*
X106562845Y-77908000D01*
X106779555Y-77908000D01*
X106779556Y-77908000D01*
X106993601Y-77874098D01*
X106993604Y-77874097D01*
X106993605Y-77874097D01*
X107199705Y-77807131D01*
X107199705Y-77807130D01*
X107199708Y-77807130D01*
X107392800Y-77708745D01*
X107568125Y-77581364D01*
X107721364Y-77428125D01*
X107848745Y-77252800D01*
X107947130Y-77059708D01*
X108014098Y-76853601D01*
X108048000Y-76639556D01*
X108048000Y-76422844D01*
X108014098Y-76208799D01*
X108014097Y-76208795D01*
X108014097Y-76208794D01*
X107947131Y-76002694D01*
X107853990Y-75819894D01*
X107848745Y-75809600D01*
X107721364Y-75634275D01*
X107568125Y-75481036D01*
X107392800Y-75353655D01*
X107199705Y-75255268D01*
X106993604Y-75188302D01*
X106833067Y-75162875D01*
X106779556Y-75154400D01*
X106562844Y-75154400D01*
X106491495Y-75165700D01*
X106348797Y-75188302D01*
X106348794Y-75188302D01*
X106142694Y-75255268D01*
X105949599Y-75353655D01*
X105774272Y-75481038D01*
X105621038Y-75634272D01*
X105621038Y-75634273D01*
X105621036Y-75634275D01*
X105521518Y-75771250D01*
X105466188Y-75813915D01*
X105396574Y-75819894D01*
X105334780Y-75787288D01*
X105320882Y-75771250D01*
X105221364Y-75634275D01*
X105068125Y-75481036D01*
X104892800Y-75353655D01*
X104699705Y-75255268D01*
X104493604Y-75188302D01*
X104333067Y-75162875D01*
X104279556Y-75154400D01*
X104062844Y-75154400D01*
X103991495Y-75165700D01*
X103848797Y-75188302D01*
X103848794Y-75188302D01*
X103642694Y-75255268D01*
X103449599Y-75353655D01*
X103274272Y-75481038D01*
X103121038Y-75634272D01*
X102993655Y-75809599D01*
X102895268Y-76002694D01*
X102828302Y-76208794D01*
X102828302Y-76208797D01*
X102794400Y-76422844D01*
X102794400Y-76639555D01*
X102828302Y-76853602D01*
X102828302Y-76853605D01*
X102895268Y-77059705D01*
X102988409Y-77242505D01*
X102993655Y-77252800D01*
X103121036Y-77428125D01*
X103121038Y-77428127D01*
X103274278Y-77581367D01*
X103338471Y-77628004D01*
X103369584Y-77650609D01*
X103412251Y-77705938D01*
X103420700Y-77750928D01*
X103420700Y-78743518D01*
X103420700Y-78743520D01*
X103420699Y-78743520D01*
X103449540Y-78888507D01*
X103449543Y-78888517D01*
X103506113Y-79025090D01*
X103506114Y-79025091D01*
X103506116Y-79025095D01*
X103531085Y-79062463D01*
X103531086Y-79062465D01*
X103588251Y-79148020D01*
X103588252Y-79148021D01*
X104496848Y-80056615D01*
X104496849Y-80056616D01*
X104601384Y-80161151D01*
X104601385Y-80161152D01*
X104724298Y-80243280D01*
X104724311Y-80243287D01*
X104860882Y-80299856D01*
X104860887Y-80299858D01*
X104860891Y-80299858D01*
X104860892Y-80299859D01*
X105005879Y-80328700D01*
X105005882Y-80328700D01*
X113912370Y-80328700D01*
X113979409Y-80348385D01*
X114000051Y-80365019D01*
X120294981Y-86659948D01*
X120328466Y-86721271D01*
X120331300Y-86747629D01*
X120331300Y-91382570D01*
X120311615Y-91449609D01*
X120294981Y-91470251D01*
X119336149Y-92429083D01*
X119274826Y-92462568D01*
X119248468Y-92465402D01*
X117883529Y-92465402D01*
X117816490Y-92445717D01*
X117783212Y-92414289D01*
X117713964Y-92318977D01*
X117560725Y-92165738D01*
X117423749Y-92066219D01*
X117381084Y-92010890D01*
X117375105Y-91941277D01*
X117407711Y-91879482D01*
X117423750Y-91865584D01*
X117560725Y-91766066D01*
X117713964Y-91612827D01*
X117841345Y-91437502D01*
X117939730Y-91244410D01*
X118006698Y-91038303D01*
X118040600Y-90824258D01*
X118040600Y-90607546D01*
X118006698Y-90393501D01*
X118006697Y-90393497D01*
X118006697Y-90393496D01*
X117939731Y-90187396D01*
X117846590Y-90004596D01*
X117841345Y-89994302D01*
X117713964Y-89818977D01*
X117560725Y-89665738D01*
X117385400Y-89538357D01*
X117192305Y-89439970D01*
X116986204Y-89373004D01*
X116825667Y-89347577D01*
X116772156Y-89339102D01*
X116555444Y-89339102D01*
X116484095Y-89350402D01*
X116341397Y-89373004D01*
X116341394Y-89373004D01*
X116135294Y-89439970D01*
X115942199Y-89538357D01*
X115766872Y-89665740D01*
X115613638Y-89818974D01*
X115613638Y-89818975D01*
X115613636Y-89818977D01*
X115514118Y-89955952D01*
X115458788Y-89998617D01*
X115389174Y-90004596D01*
X115327380Y-89971990D01*
X115313482Y-89955952D01*
X115213964Y-89818977D01*
X115060725Y-89665738D01*
X114885400Y-89538357D01*
X114692305Y-89439970D01*
X114486204Y-89373004D01*
X114325667Y-89347577D01*
X114272156Y-89339102D01*
X114055444Y-89339102D01*
X113984095Y-89350402D01*
X113841397Y-89373004D01*
X113841394Y-89373004D01*
X113635294Y-89439970D01*
X113442199Y-89538357D01*
X113266872Y-89665740D01*
X113113638Y-89818974D01*
X113113638Y-89818975D01*
X113113636Y-89818977D01*
X113014118Y-89955952D01*
X112958788Y-89998617D01*
X112889174Y-90004596D01*
X112827380Y-89971990D01*
X112813482Y-89955952D01*
X112713964Y-89818977D01*
X112560725Y-89665738D01*
X112385400Y-89538357D01*
X112192305Y-89439970D01*
X111986204Y-89373004D01*
X111825667Y-89347577D01*
X111772156Y-89339102D01*
X111555444Y-89339102D01*
X111484095Y-89350402D01*
X111341397Y-89373004D01*
X111341394Y-89373004D01*
X111135294Y-89439970D01*
X110942199Y-89538357D01*
X110766872Y-89665740D01*
X110613638Y-89818974D01*
X110613638Y-89818975D01*
X110613636Y-89818977D01*
X110514118Y-89955952D01*
X110458788Y-89998617D01*
X110389174Y-90004596D01*
X110327380Y-89971990D01*
X110313482Y-89955952D01*
X110213964Y-89818977D01*
X110060725Y-89665738D01*
X109885400Y-89538357D01*
X109692305Y-89439970D01*
X109486204Y-89373004D01*
X109325667Y-89347577D01*
X109272156Y-89339102D01*
X109055444Y-89339102D01*
X108984095Y-89350402D01*
X108841397Y-89373004D01*
X108841394Y-89373004D01*
X108635294Y-89439970D01*
X108442199Y-89538357D01*
X108266872Y-89665740D01*
X108113638Y-89818974D01*
X108113638Y-89818975D01*
X108113636Y-89818977D01*
X108014118Y-89955952D01*
X107958788Y-89998617D01*
X107889174Y-90004596D01*
X107827380Y-89971990D01*
X107813482Y-89955952D01*
X107713964Y-89818977D01*
X107560725Y-89665738D01*
X107385400Y-89538357D01*
X107192305Y-89439970D01*
X106986204Y-89373004D01*
X106825667Y-89347577D01*
X106772156Y-89339102D01*
X106555444Y-89339102D01*
X106484095Y-89350402D01*
X106341397Y-89373004D01*
X106341394Y-89373004D01*
X106135294Y-89439970D01*
X105942199Y-89538357D01*
X105766872Y-89665740D01*
X105613638Y-89818974D01*
X105613638Y-89818975D01*
X105613636Y-89818977D01*
X105514118Y-89955952D01*
X105458788Y-89998617D01*
X105389174Y-90004596D01*
X105327380Y-89971990D01*
X105313482Y-89955952D01*
X105213964Y-89818977D01*
X105100619Y-89705632D01*
X105067134Y-89644309D01*
X105064300Y-89617951D01*
X105064300Y-88995761D01*
X105072944Y-88966320D01*
X105079468Y-88936334D01*
X105083222Y-88931318D01*
X105083985Y-88928722D01*
X105100619Y-88908080D01*
X105264080Y-88744619D01*
X105325403Y-88711134D01*
X105351761Y-88708300D01*
X117512893Y-88708300D01*
X117512894Y-88708299D01*
X117686866Y-88673695D01*
X117768806Y-88639753D01*
X117850747Y-88605813D01*
X117963746Y-88530309D01*
X117998236Y-88507264D01*
X118194281Y-88311219D01*
X118255604Y-88277734D01*
X118281962Y-88274900D01*
X118360943Y-88274900D01*
X118490982Y-88249032D01*
X118554235Y-88236451D01*
X118736314Y-88161032D01*
X118900182Y-88051539D01*
X119039539Y-87912182D01*
X119149032Y-87748314D01*
X119224451Y-87566235D01*
X119262900Y-87372941D01*
X119262900Y-87175859D01*
X119262900Y-87175856D01*
X119224451Y-86982565D01*
X119224449Y-86982560D01*
X119149035Y-86800492D01*
X119149028Y-86800479D01*
X119039539Y-86636618D01*
X119039536Y-86636614D01*
X118900185Y-86497263D01*
X118900181Y-86497260D01*
X118736320Y-86387771D01*
X118736307Y-86387764D01*
X118554239Y-86312350D01*
X118554229Y-86312347D01*
X118360943Y-86273900D01*
X118360941Y-86273900D01*
X118163859Y-86273900D01*
X118163857Y-86273900D01*
X117970570Y-86312347D01*
X117970560Y-86312350D01*
X117789880Y-86387189D01*
X117766620Y-86394245D01*
X117694940Y-86408503D01*
X117694935Y-86408504D01*
X117694934Y-86408505D01*
X117670935Y-86418445D01*
X117579053Y-86456502D01*
X117579054Y-86456503D01*
X117531054Y-86476386D01*
X117383565Y-86574935D01*
X117383561Y-86574938D01*
X117087519Y-86870981D01*
X117026196Y-86904466D01*
X116999838Y-86907300D01*
X104838703Y-86907300D01*
X104664741Y-86941903D01*
X104664733Y-86941905D01*
X104566573Y-86982565D01*
X104566572Y-86982565D01*
X104500859Y-87009783D01*
X104500846Y-87009790D01*
X104355274Y-87107060D01*
X104353368Y-87108332D01*
X104353360Y-87108339D01*
X103440540Y-88021158D01*
X103440534Y-88021165D01*
X103341988Y-88168651D01*
X103274105Y-88332533D01*
X103274103Y-88332541D01*
X103239500Y-88506503D01*
X103239500Y-88683893D01*
X103260917Y-88791562D01*
X103263300Y-88815754D01*
X103263300Y-89617951D01*
X103243615Y-89684990D01*
X103226981Y-89705632D01*
X103113638Y-89818974D01*
X102986255Y-89994301D01*
X102887868Y-90187396D01*
X102820902Y-90393496D01*
X102820902Y-90393499D01*
X102787000Y-90607546D01*
X91133525Y-90607546D01*
X90975703Y-69258520D01*
X102993600Y-69258520D01*
X102993600Y-69443877D01*
X103022596Y-69626950D01*
X103022596Y-69626951D01*
X103079874Y-69803237D01*
X103079876Y-69803240D01*
X103164026Y-69968396D01*
X103272977Y-70118354D01*
X103404045Y-70249422D01*
X103554003Y-70358373D01*
X103719159Y-70442523D01*
X103719161Y-70442524D01*
X103780889Y-70462580D01*
X103895445Y-70499802D01*
X104078521Y-70528799D01*
X104078522Y-70528799D01*
X104263878Y-70528799D01*
X104263879Y-70528799D01*
X104446955Y-70499802D01*
X104623241Y-70442523D01*
X104788397Y-70358373D01*
X104938355Y-70249422D01*
X105069423Y-70118354D01*
X105178374Y-69968396D01*
X105262524Y-69803240D01*
X105303269Y-69677839D01*
X105342706Y-69620165D01*
X105407065Y-69592966D01*
X105475911Y-69604880D01*
X105527387Y-69652124D01*
X105539131Y-69677840D01*
X105579874Y-69803237D01*
X105579876Y-69803240D01*
X105664026Y-69968396D01*
X105772977Y-70118354D01*
X105904045Y-70249422D01*
X106054003Y-70358373D01*
X106219159Y-70442523D01*
X106219161Y-70442524D01*
X106280889Y-70462580D01*
X106395445Y-70499802D01*
X106578521Y-70528799D01*
X106578522Y-70528799D01*
X106763878Y-70528799D01*
X106763879Y-70528799D01*
X106946955Y-70499802D01*
X107123241Y-70442523D01*
X107288397Y-70358373D01*
X107438355Y-70249422D01*
X107569423Y-70118354D01*
X107678374Y-69968396D01*
X107762524Y-69803240D01*
X107819803Y-69626954D01*
X107848800Y-69443878D01*
X107848800Y-69258520D01*
X107819803Y-69075444D01*
X107762524Y-68899158D01*
X107678374Y-68734002D01*
X107569423Y-68584044D01*
X107438355Y-68452976D01*
X107288397Y-68344025D01*
X107276052Y-68337735D01*
X107123238Y-68259873D01*
X106946952Y-68202595D01*
X106806318Y-68180320D01*
X106763879Y-68173599D01*
X106578521Y-68173599D01*
X106536081Y-68180320D01*
X106395448Y-68202595D01*
X106395447Y-68202595D01*
X106219161Y-68259873D01*
X106054006Y-68344023D01*
X106053998Y-68344028D01*
X105973566Y-68402465D01*
X105904045Y-68452976D01*
X105904043Y-68452978D01*
X105904042Y-68452978D01*
X105772979Y-68584041D01*
X105772979Y-68584042D01*
X105772977Y-68584044D01*
X105722466Y-68653565D01*
X105664029Y-68733997D01*
X105664024Y-68734005D01*
X105579874Y-68899160D01*
X105579874Y-68899161D01*
X105539131Y-69024557D01*
X105499694Y-69082232D01*
X105435335Y-69109431D01*
X105366489Y-69097517D01*
X105315013Y-69050272D01*
X105303269Y-69024557D01*
X105262525Y-68899161D01*
X105262525Y-68899160D01*
X105262524Y-68899158D01*
X105178374Y-68734002D01*
X105069423Y-68584044D01*
X104938355Y-68452976D01*
X104788397Y-68344025D01*
X104776052Y-68337735D01*
X104623238Y-68259873D01*
X104446952Y-68202595D01*
X104306318Y-68180320D01*
X104263879Y-68173599D01*
X104078521Y-68173599D01*
X104036081Y-68180320D01*
X103895448Y-68202595D01*
X103895447Y-68202595D01*
X103719161Y-68259873D01*
X103554006Y-68344023D01*
X103553998Y-68344028D01*
X103473566Y-68402465D01*
X103404045Y-68452976D01*
X103404043Y-68452978D01*
X103404042Y-68452978D01*
X103272979Y-68584041D01*
X103272979Y-68584042D01*
X103272977Y-68584044D01*
X103222466Y-68653565D01*
X103164029Y-68733997D01*
X103164024Y-68734005D01*
X103079874Y-68899160D01*
X103022596Y-69075446D01*
X103022596Y-69075447D01*
X102993600Y-69258520D01*
X90975703Y-69258520D01*
X90932174Y-63370311D01*
X93707500Y-63370311D01*
X93707500Y-63612888D01*
X93739161Y-63853385D01*
X93801947Y-64087704D01*
X93879072Y-64273900D01*
X93894776Y-64311812D01*
X94016064Y-64521889D01*
X94016066Y-64521892D01*
X94016067Y-64521893D01*
X94163733Y-64714336D01*
X94163739Y-64714343D01*
X94335256Y-64885860D01*
X94335263Y-64885866D01*
X94354384Y-64900538D01*
X94527711Y-65033536D01*
X94737788Y-65154824D01*
X94961900Y-65247654D01*
X95196211Y-65310438D01*
X95376586Y-65334184D01*
X95436711Y-65342100D01*
X95436712Y-65342100D01*
X95679289Y-65342100D01*
X95727388Y-65335767D01*
X95919789Y-65310438D01*
X96154100Y-65247654D01*
X96378212Y-65154824D01*
X96588289Y-65033536D01*
X96780738Y-64885865D01*
X96952265Y-64714338D01*
X97099936Y-64521889D01*
X97221224Y-64311812D01*
X97314054Y-64087700D01*
X97376838Y-63853389D01*
X97408500Y-63612888D01*
X97408500Y-63556512D01*
X146256900Y-63556512D01*
X146256900Y-63799088D01*
X146288562Y-64039589D01*
X146319954Y-64156744D01*
X146351347Y-64273904D01*
X146367050Y-64311814D01*
X146444176Y-64498012D01*
X146565464Y-64708089D01*
X146565466Y-64708092D01*
X146565467Y-64708093D01*
X146713133Y-64900536D01*
X146713139Y-64900543D01*
X146884656Y-65072060D01*
X146884662Y-65072065D01*
X147077111Y-65219736D01*
X147287188Y-65341024D01*
X147511300Y-65433854D01*
X147745611Y-65496638D01*
X147925986Y-65520384D01*
X147986111Y-65528300D01*
X147986112Y-65528300D01*
X148228689Y-65528300D01*
X148276788Y-65521967D01*
X148469189Y-65496638D01*
X148703500Y-65433854D01*
X148927612Y-65341024D01*
X149137689Y-65219736D01*
X149330138Y-65072065D01*
X149501665Y-64900538D01*
X149649336Y-64708089D01*
X149770624Y-64498012D01*
X149863454Y-64273900D01*
X149926238Y-64039589D01*
X149957900Y-63799088D01*
X149957900Y-63556512D01*
X149926238Y-63316011D01*
X149863454Y-63081700D01*
X149770624Y-62857588D01*
X149649336Y-62647511D01*
X149501665Y-62455062D01*
X149501660Y-62455056D01*
X149330143Y-62283539D01*
X149330136Y-62283533D01*
X149137693Y-62135867D01*
X149137692Y-62135866D01*
X149137689Y-62135864D01*
X148927612Y-62014576D01*
X148927605Y-62014573D01*
X148703504Y-61921747D01*
X148469185Y-61858961D01*
X148228689Y-61827300D01*
X148228688Y-61827300D01*
X147986112Y-61827300D01*
X147986111Y-61827300D01*
X147745614Y-61858961D01*
X147511295Y-61921747D01*
X147287194Y-62014573D01*
X147287185Y-62014577D01*
X147077106Y-62135867D01*
X146884663Y-62283533D01*
X146884656Y-62283539D01*
X146713139Y-62455056D01*
X146713133Y-62455063D01*
X146565467Y-62647506D01*
X146444177Y-62857585D01*
X146444173Y-62857594D01*
X146351347Y-63081695D01*
X146288561Y-63316014D01*
X146281413Y-63370311D01*
X146256900Y-63556512D01*
X97408500Y-63556512D01*
X97408500Y-63370312D01*
X97376838Y-63129811D01*
X97314054Y-62895500D01*
X97221224Y-62671388D01*
X97099936Y-62461311D01*
X96963524Y-62283535D01*
X96952266Y-62268863D01*
X96952260Y-62268856D01*
X96780743Y-62097339D01*
X96780736Y-62097333D01*
X96588293Y-61949667D01*
X96588292Y-61949666D01*
X96588289Y-61949664D01*
X96378212Y-61828376D01*
X96378205Y-61828373D01*
X96154104Y-61735547D01*
X95919785Y-61672761D01*
X95679289Y-61641100D01*
X95679288Y-61641100D01*
X95436712Y-61641100D01*
X95436711Y-61641100D01*
X95196214Y-61672761D01*
X94961895Y-61735547D01*
X94737794Y-61828373D01*
X94737785Y-61828377D01*
X94527706Y-61949667D01*
X94335263Y-62097333D01*
X94335256Y-62097339D01*
X94163739Y-62268856D01*
X94163733Y-62268863D01*
X94016067Y-62461306D01*
X93894777Y-62671385D01*
X93894773Y-62671394D01*
X93801947Y-62895495D01*
X93739161Y-63129814D01*
X93707500Y-63370311D01*
X90932174Y-63370311D01*
X90901135Y-59171515D01*
X90920324Y-59104333D01*
X90972788Y-59058189D01*
X91025132Y-59046600D01*
X152236561Y-59046600D01*
X152303600Y-59066285D01*
G37*
%TD.AperFunction*%
%TD*%
M02*
