M48
; DRILL file {KiCad 9.0.4} date 2025-11-11T22:43:13-0600
; FORMAT={-:-/ absolute / metric / decimal}
; #@! TF.CreationDate,2025-11-11T22:43:13-06:00
; #@! TF.GenerationSoftware,Kicad,Pcbnew,9.0.4
; #@! TF.FileFunction,Plated,1,2,PTH
FMAT,2
METRIC
; #@! TA.AperFunction,Plated,PTH,ViaDrill
T1C0.300
; #@! TA.AperFunction,Plated,PTH,ComponentDrill
T2C1.245
%
G90
G05
T1
X92.397Y-82.194
X92.405Y-68.91
X92.448Y-85.446
X92.456Y-72.161
X92.507Y-91.897
X92.515Y-78.613
X92.685Y-88.671
X92.693Y-75.387
X93.921Y-80.62
X93.929Y-67.335
X93.972Y-83.871
X93.98Y-70.587
X93.98Y-93.243
X94.031Y-90.322
X94.039Y-77.038
X94.209Y-87.097
X94.217Y-73.812
X95.301Y-82.271
X95.309Y-68.986
X95.352Y-85.522
X95.36Y-72.238
X95.411Y-91.973
X95.419Y-78.689
X95.589Y-88.748
X95.597Y-75.463
X96.825Y-80.67
X96.833Y-67.386
X96.876Y-83.922
X96.884Y-70.637
X96.935Y-90.373
X96.943Y-77.089
X96.952Y-93.116
X97.113Y-87.147
X97.121Y-73.863
X98.044Y-88.722
X98.205Y-82.321
X98.213Y-69.037
X98.256Y-85.573
X98.264Y-72.288
X98.315Y-92.024
X98.323Y-78.74
X98.501Y-75.514
X98.781Y-59.893
X99.729Y-80.62
X99.737Y-67.335
X99.771Y-99.847
X99.78Y-83.871
X99.788Y-70.587
X99.822Y-93.675
X99.839Y-90.322
X99.847Y-77.038
X99.924Y-96.723
X100.017Y-87.097
X100.025Y-73.812
X100.076Y-63.119
X100.948Y-61.036
X101.109Y-82.271
X101.117Y-68.986
X101.16Y-85.522
X101.168Y-72.238
X101.194Y-98.323
X101.219Y-91.973
X101.227Y-78.689
X101.295Y-95.301
X101.405Y-75.463
X101.829Y-88.748
X102.464Y-80.848
X102.514Y-84.099
X102.565Y-59.969
X102.65Y-63.144
X102.692Y-86.741
X103.327Y-96.19
X103.852Y-61.087
X103.988Y-65.608
X104.242Y-82.448
X104.242Y-85.471
X104.267Y-80.848
X104.343Y-72.288
X104.851Y-97.866
X105.41Y-59.969
X105.461Y-67.361
X105.461Y-73.889
X105.486Y-70.942
X105.554Y-63.195
X106.384Y-96.19
X106.451Y-99.543
X106.629Y-72.187
X106.756Y-61.036
X107.01Y-65.659
X107.239Y-81.128
X107.442Y-86.208
X107.518Y-84.353
X107.544Y-82.601
X107.908Y-97.866
X108.077Y-100.813
X108.407Y-60.046
X108.458Y-63.144
X108.839Y-81.128
X109.271Y-78.054
X109.44Y-96.19
X109.982Y-99.543
X110.007Y-68.504
X110.058Y-60.985
X110.058Y-65.151
X110.084Y-62.89
X110.109Y-66.853
X110.211Y-72.415
X110.236Y-86.106
X110.261Y-84.76
X110.964Y-97.866
X110.973Y-83.388
X111.455Y-62.382
X111.481Y-73.431
X111.557Y-59.919
X111.557Y-69.571
X111.557Y-71.526
X111.557Y-75.082
X111.557Y-100.813
X111.658Y-64.287
X111.658Y-65.938
X111.658Y-67.615
X111.963Y-78.105
X112.014Y-82.321
X112.497Y-96.19
X112.852Y-73.431
X112.962Y-60.935
X113.038Y-99.543
X113.233Y-85.674
X113.487Y-80.975
X114.021Y-97.866
X114.3Y-84.607
X115.468Y-98.882
X115.799Y-83.312
X116.408Y-71.704
X116.891Y-95.86
X117.17Y-77.013
X117.196Y-75.032
X117.729Y-98.857
X117.754Y-85.496
X117.831Y-61.341
X117.881Y-59.919
X117.881Y-63.602
X118.262Y-87.274
X118.288Y-70.587
X118.415Y-66.929
X118.415Y-68.58
X118.516Y-73.279
X118.618Y-76.429
X119.558Y-88.57
X119.634Y-99.111
X119.964Y-74.676
X120.193Y-94.996
X120.421Y-71.755
X120.523Y-66.904
X120.548Y-82.982
X120.853Y-100.762
X121.107Y-93.904
X121.183Y-79.146
X121.31Y-59.842
X121.945Y-99.085
X121.996Y-92.888
X122.301Y-94.64
X122.403Y-88.367
X122.58Y-78.232
X123.571Y-100.838
X123.774Y-59.893
X123.927Y-79.35
X125.273Y-76.302
X125.527Y-78.08
X125.654Y-88.443
X125.73Y-71.78
X125.933Y-92.304
X126.187Y-98.247
X126.37Y-100.838
X126.39Y-75.032
X126.416Y-95.58
X126.797Y-66.954
X127.0Y-63.627
X127.279Y-76.835
X127.279Y-91.211
X127.508Y-73.203
X127.559Y-96.876
X127.838Y-88.316
X127.889Y-60.02
X128.245Y-93.777
X128.422Y-68.936
X128.422Y-71.577
X128.499Y-98.095
X128.549Y-75.108
X128.6Y-81.051
X128.803Y-92.329
X128.854Y-95.453
X129.032Y-67.259
X129.083Y-87.427
X129.083Y-89.687
X129.169Y-100.838
X129.286Y-73.127
X129.68Y-99.123
X129.692Y-93.777
X129.896Y-79.375
X130.912Y-81.077
X131.968Y-100.838
X132.207Y-79.4
X132.664Y-59.893
X132.944Y-70.409
X133.248Y-91.008
X133.299Y-93.015
X133.325Y-81.077
X133.426Y-77.902
X133.452Y-88.417
X133.782Y-75.006
X133.883Y-71.907
X133.909Y-97.892
X133.985Y-95.783
X134.493Y-91.44
X134.62Y-79.4
X134.747Y-76.352
X134.767Y-100.838
X134.925Y-96.774
X135.128Y-88.392
X135.407Y-67.081
X135.661Y-93.066
X135.763Y-97.968
X135.839Y-77.902
X135.89Y-81.051
X135.992Y-59.792
X136.017Y-63.5
X136.017Y-94.767
X136.042Y-96.368
X136.195Y-75.006
X136.576Y-71.831
X136.576Y-87.427
X136.652Y-61.189
X136.677Y-89.535
X136.754Y-91.44
X137.16Y-76.352
X137.16Y-93.751
X137.16Y-99.009
X137.185Y-79.375
X137.566Y-100.838
X137.719Y-73.558
X137.82Y-69.317
X137.897Y-67.767
X138.608Y-59.842
X138.786Y-99.39
X139.102Y-78.486
X139.954Y-100.94
X140.005Y-83.998
X140.741Y-78.486
X140.741Y-81.255
X141.453Y-99.289
X141.503Y-96.647
X141.808Y-88.976
X141.808Y-91.846
X141.859Y-79.959
X142.088Y-82.677
X142.265Y-71.679
X142.596Y-95.123
X142.621Y-100.838
X142.672Y-98.196
X142.723Y-76.098
X142.977Y-60.02
X143.002Y-78.588
X143.027Y-81.204
X143.307Y-93.37
X143.383Y-90.475
X143.789Y-99.365
X143.815Y-63.424
X143.84Y-96.723
X144.348Y-61.316
X144.628Y-94.64
X144.678Y-85.877
X144.712Y-89.052
X144.712Y-91.923
X145.136Y-100.787
X145.948Y-59.969
X146.101Y-87.478
X146.202Y-84.455
X146.202Y-93.37
X146.287Y-90.526
X147.472Y-67.843
X147.498Y-70.714
X147.523Y-73.812
X147.549Y-76.733
X147.574Y-79.807
X147.582Y-85.928
X147.599Y-82.728
X147.616Y-89.103
X147.616Y-91.973
X149.005Y-87.427
X149.047Y-69.19
X149.073Y-72.288
X149.106Y-84.404
X149.123Y-78.283
X149.191Y-90.475
X149.25Y-75.286
X149.301Y-81.28
X150.487Y-85.877
X150.52Y-89.052
X150.52Y-91.923
X150.724Y-67.793
X150.749Y-70.663
X150.774Y-73.762
X150.825Y-79.756
X150.851Y-76.784
X150.901Y-82.779
T2
X104.164Y-90.716
X104.164Y-93.216
X104.171Y-76.531
X106.664Y-90.716
X106.664Y-93.216
X106.671Y-76.531
X109.164Y-90.716
X109.164Y-93.216
X111.664Y-90.716
X111.664Y-93.216
X114.164Y-90.716
X114.164Y-93.216
X116.664Y-90.716
X116.664Y-93.216
M30
