%TF.GenerationSoftware,KiCad,Pcbnew,9.0.4*%
%TF.CreationDate,2025-10-30T20:58:22-05:00*%
%TF.ProjectId,TEST,54455354-2e6b-4696-9361-645f70636258,rev?*%
%TF.SameCoordinates,Original*%
%TF.FileFunction,Copper,L2,Bot*%
%TF.FilePolarity,Positive*%
%FSLAX46Y46*%
G04 Gerber Fmt 4.6, Leading zero omitted, Abs format (unit mm)*
G04 Created by KiCad (PCBNEW 9.0.4) date 2025-10-30 20:58:22*
%MOMM*%
%LPD*%
G01*
G04 APERTURE LIST*
%TA.AperFunction,ComponentPad*%
%ADD10C,1.752600*%
%TD*%
%TA.AperFunction,ComponentPad*%
%ADD11C,2.340000*%
%TD*%
%TA.AperFunction,ViaPad*%
%ADD12C,0.600000*%
%TD*%
%TA.AperFunction,Conductor*%
%ADD13C,0.300000*%
%TD*%
G04 APERTURE END LIST*
D10*
%TO.P,J1,1,1*%
%TO.N,/BOTS_END*%
X105550000Y-72500000D03*
%TO.P,J1,2,2*%
%TO.N,/INPUT*%
X108050000Y-72500000D03*
%TD*%
D11*
%TO.P,J3,1,1*%
%TO.N,/BOTS_START*%
X144200000Y-81900000D03*
%TO.P,J3,2,2*%
%TO.N,/COCKPIT_BUTTON_START*%
X139760000Y-81900000D03*
%TO.P,J3,3,3*%
%TO.N,/INERTIA_SWITCH_START*%
X135320000Y-81900000D03*
%TO.P,J3,4,4*%
%TO.N,/LEFT_BUTTON_END*%
X130880000Y-81900000D03*
%TO.P,J3,5,5*%
%TO.N,/INPUT*%
X126440000Y-81900000D03*
%TO.P,J3,6,6*%
%TO.N,+12V*%
X122000000Y-81900000D03*
%TO.P,J3,7,7*%
%TO.N,GND*%
X122000000Y-88250000D03*
%TO.P,J3,8,8*%
%TO.N,/LEFT_BUTTON_END*%
X126440000Y-88250000D03*
%TO.P,J3,9,9*%
%TO.N,/INERTIA_SWITCH_START*%
X130880000Y-88250000D03*
%TO.P,J3,10,10*%
%TO.N,/COCKPIT_BUTTON_START*%
X135320000Y-88250000D03*
%TO.P,J3,11,11*%
%TO.N,/BOTS_START*%
X139760000Y-88250000D03*
%TO.P,J3,12,12*%
%TO.N,/BOTS_END*%
X144200000Y-88250000D03*
%TD*%
D12*
%TO.N,+12V*%
X112760000Y-60000000D03*
%TO.N,GND*%
X118350000Y-66450000D03*
X139700000Y-84400000D03*
X135750000Y-71300000D03*
X164700000Y-82350000D03*
X137650000Y-96800000D03*
X120000000Y-58100000D03*
X142250000Y-56950000D03*
X106650000Y-97480000D03*
X142850000Y-73100000D03*
X118200000Y-93700000D03*
X107800000Y-84350000D03*
X135950000Y-73000000D03*
X112740000Y-58000000D03*
X143700000Y-85000000D03*
X143100000Y-68500000D03*
X133500000Y-86200000D03*
X139150000Y-76900000D03*
X127450000Y-58900000D03*
X137850000Y-86100000D03*
X142270000Y-94550000D03*
X156550000Y-57800000D03*
X148400000Y-79050000D03*
X109600000Y-58000000D03*
X158500000Y-79750000D03*
X112000000Y-61800000D03*
X152400000Y-78950000D03*
X146140000Y-99050000D03*
X132800000Y-76800000D03*
X114450000Y-68750000D03*
X112260000Y-100350000D03*
X159720000Y-93100000D03*
X111500000Y-79800000D03*
X147840000Y-93100000D03*
X101300000Y-88850000D03*
X157970000Y-91000000D03*
X127650000Y-56750000D03*
X102800000Y-97550000D03*
X156050000Y-71750000D03*
X155050000Y-99050000D03*
X151050000Y-64300000D03*
X149020000Y-90960000D03*
X128150000Y-72950000D03*
X162680000Y-89350000D03*
X155350000Y-91000000D03*
X128850000Y-63750000D03*
X122150000Y-68800000D03*
X149650000Y-66500000D03*
X155450000Y-59000000D03*
X153580000Y-97200000D03*
X118750000Y-72700000D03*
X163400000Y-71200000D03*
X164450000Y-93120000D03*
X162490000Y-97200000D03*
X139300000Y-94550000D03*
X119500000Y-86350000D03*
X112000000Y-64100000D03*
X155350000Y-87400000D03*
X157140000Y-85500000D03*
X124250000Y-84000000D03*
X103350000Y-100350000D03*
X151150000Y-66400000D03*
X159710000Y-89350000D03*
X130200000Y-79150000D03*
X164700000Y-79380000D03*
X125900000Y-94100000D03*
X163250000Y-59640000D03*
X156750000Y-93100000D03*
X104950000Y-68000000D03*
X148750000Y-71650000D03*
X150350000Y-57700000D03*
X114100000Y-61600000D03*
X116050000Y-91650000D03*
X101050000Y-79550000D03*
X112850000Y-76150000D03*
X143300000Y-66200000D03*
X135000000Y-57750000D03*
X150200000Y-69900000D03*
X139450000Y-91050000D03*
X140620000Y-96800000D03*
X120250000Y-83950000D03*
X119700000Y-91250000D03*
X113200000Y-73200000D03*
X102750000Y-62900000D03*
X155100000Y-81400000D03*
X158350000Y-82550000D03*
X133300000Y-66300000D03*
X107300000Y-86600000D03*
X145950000Y-84350000D03*
X121600000Y-63300000D03*
X158500000Y-66300000D03*
X114050000Y-64500000D03*
X111450000Y-70250000D03*
X109900000Y-86600000D03*
X113900000Y-93950000D03*
X142500000Y-76900000D03*
X111050000Y-84750000D03*
X164450000Y-84210000D03*
X128800000Y-65950000D03*
X101550000Y-76600000D03*
X102750000Y-68050000D03*
X155250000Y-67100000D03*
X109290000Y-100350000D03*
X126050000Y-79250000D03*
X133500000Y-71350000D03*
X142600000Y-79150000D03*
X164700000Y-73440000D03*
X128050000Y-75500000D03*
X164450000Y-90150000D03*
X151450000Y-68500000D03*
X107400000Y-82050000D03*
X159200000Y-68350000D03*
X149800000Y-73150000D03*
X162850000Y-65400000D03*
X163080000Y-85500000D03*
X113200000Y-70200000D03*
X101300000Y-96200000D03*
X142150000Y-90250000D03*
X111350000Y-73200000D03*
X151600000Y-59000000D03*
X156740000Y-89350000D03*
X126350000Y-72950000D03*
X149110000Y-99050000D03*
X103030000Y-58000000D03*
X107350000Y-79600000D03*
X115750000Y-87350000D03*
X164450000Y-99060000D03*
X110125000Y-76150000D03*
X146190000Y-95150000D03*
X160940000Y-91000000D03*
X107450000Y-74600000D03*
X107950000Y-67950000D03*
X164700000Y-76410000D03*
X102850000Y-64850000D03*
X130900000Y-84200000D03*
X128800000Y-68200000D03*
X157700000Y-71900000D03*
X142900000Y-74850000D03*
X123300000Y-91350000D03*
X104600000Y-95200000D03*
X143050000Y-71400000D03*
X126500000Y-84350000D03*
X127700000Y-69250000D03*
X162690000Y-93100000D03*
X101150000Y-85850000D03*
X128150000Y-71350000D03*
X114000000Y-66450000D03*
X158550000Y-64100000D03*
X151100000Y-62000000D03*
X162850000Y-66950000D03*
X143800000Y-63350000D03*
X146090000Y-91000000D03*
X140820000Y-92200000D03*
X112150000Y-88800000D03*
X136850000Y-68600000D03*
X158590000Y-87350000D03*
X124300000Y-96850000D03*
X148000000Y-66500000D03*
X150500000Y-71700000D03*
X121250000Y-66250000D03*
X125700000Y-66500000D03*
X150200000Y-75000000D03*
X152130000Y-95150000D03*
X146000000Y-79150000D03*
X106170000Y-57960000D03*
X153780000Y-93100000D03*
X120850000Y-71050000D03*
X161150000Y-79650000D03*
X164450000Y-96090000D03*
X164700000Y-70470000D03*
X101450000Y-92750000D03*
X150810000Y-93100000D03*
X122450000Y-85050000D03*
X157700000Y-75700000D03*
X137850000Y-92200000D03*
X135500000Y-75300000D03*
X150610000Y-97200000D03*
X120500000Y-74000000D03*
X160990000Y-99050000D03*
X142200000Y-58850000D03*
X161560000Y-87350000D03*
X106320000Y-100350000D03*
X157900000Y-69800000D03*
X101050000Y-83100000D03*
X108800000Y-88850000D03*
X160110000Y-85500000D03*
X124450000Y-86250000D03*
X136400000Y-66200000D03*
X156550000Y-97200000D03*
X118750000Y-71050000D03*
X161040000Y-95150000D03*
X161950000Y-58900000D03*
X158650000Y-62150000D03*
X141100000Y-71500000D03*
X146600000Y-86400000D03*
X120500000Y-75900000D03*
X139300000Y-79050000D03*
X159200000Y-58900000D03*
X136300000Y-63500000D03*
X119700000Y-96750000D03*
X142100000Y-86550000D03*
X111900000Y-86650000D03*
X155100000Y-95150000D03*
X147640000Y-97200000D03*
X102850000Y-70850000D03*
X126300000Y-71300000D03*
X117950000Y-89000000D03*
X120050000Y-56550000D03*
X116000000Y-96600000D03*
X107950000Y-62650000D03*
X164700000Y-67500000D03*
X107400000Y-76150000D03*
X154700000Y-79100000D03*
X152080000Y-99050000D03*
X114640000Y-89800000D03*
X140650000Y-66250000D03*
X135450000Y-78900000D03*
X164450000Y-87180000D03*
X135200000Y-84350000D03*
X149160000Y-95150000D03*
X122000000Y-94250000D03*
X110250000Y-91600000D03*
X158020000Y-99050000D03*
X158070000Y-95150000D03*
X105050000Y-62750000D03*
X128000000Y-96850000D03*
X152030000Y-91000000D03*
X135150000Y-76850000D03*
X129200000Y-85950000D03*
X159520000Y-97200000D03*
X101450000Y-59750000D03*
%TD*%
D13*
%TO.N,+12V*%
X106600000Y-77940000D02*
X118040000Y-77940000D01*
X101160000Y-72500000D02*
X106600000Y-77940000D01*
X103510000Y-60000000D02*
X112760000Y-60000000D01*
X122000000Y-81900000D02*
X118040000Y-77940000D01*
X101160000Y-72500000D02*
X101160000Y-62350000D01*
X101160000Y-62350000D02*
X103510000Y-60000000D01*
%TD*%
%TA.AperFunction,Conductor*%
%TO.N,GND*%
G36*
X165476353Y-55789685D02*
G01*
X165522108Y-55842489D01*
X165533311Y-55894665D01*
X165357602Y-88576589D01*
X165290397Y-101076667D01*
X165270353Y-101143599D01*
X165217303Y-101189070D01*
X165166399Y-101200000D01*
X100455254Y-101200000D01*
X100388215Y-101180315D01*
X100342460Y-101127511D01*
X100331257Y-101076917D01*
X100331255Y-101076667D01*
X100280165Y-94165578D01*
X129549500Y-94165578D01*
X129549500Y-94514421D01*
X129583692Y-94861594D01*
X129651744Y-95203721D01*
X129651747Y-95203732D01*
X129753016Y-95537571D01*
X129886516Y-95859867D01*
X129886518Y-95859872D01*
X130050955Y-96167511D01*
X130050972Y-96167539D01*
X130244759Y-96457563D01*
X130244776Y-96457586D01*
X130466084Y-96727251D01*
X130712748Y-96973915D01*
X130712753Y-96973919D01*
X130712754Y-96973920D01*
X130982419Y-97195228D01*
X130982426Y-97195233D01*
X130982436Y-97195240D01*
X131272460Y-97389027D01*
X131272465Y-97389030D01*
X131272477Y-97389038D01*
X131272486Y-97389042D01*
X131272488Y-97389044D01*
X131580127Y-97553481D01*
X131580129Y-97553481D01*
X131580135Y-97553485D01*
X131902430Y-97686984D01*
X132236258Y-97788250D01*
X132236264Y-97788251D01*
X132236267Y-97788252D01*
X132236278Y-97788255D01*
X132578405Y-97856307D01*
X132925575Y-97890500D01*
X132925578Y-97890500D01*
X133274422Y-97890500D01*
X133274425Y-97890500D01*
X133621595Y-97856307D01*
X133688197Y-97843059D01*
X133963721Y-97788255D01*
X133963732Y-97788252D01*
X133963732Y-97788251D01*
X133963742Y-97788250D01*
X134297570Y-97686984D01*
X134619865Y-97553485D01*
X134927523Y-97389038D01*
X135217581Y-97195228D01*
X135487246Y-96973920D01*
X135733920Y-96727246D01*
X135955228Y-96457581D01*
X136149038Y-96167523D01*
X136313485Y-95859865D01*
X136446984Y-95537570D01*
X136548250Y-95203742D01*
X136548252Y-95203732D01*
X136548255Y-95203721D01*
X136616307Y-94861594D01*
X136650500Y-94514421D01*
X136650500Y-94165578D01*
X136616307Y-93818405D01*
X136548255Y-93476278D01*
X136548252Y-93476267D01*
X136548251Y-93476264D01*
X136548250Y-93476258D01*
X136446984Y-93142430D01*
X136313485Y-92820135D01*
X136149038Y-92512477D01*
X136149027Y-92512460D01*
X135955240Y-92222436D01*
X135955233Y-92222426D01*
X135955228Y-92222419D01*
X135733920Y-91952754D01*
X135733919Y-91952753D01*
X135733915Y-91952748D01*
X135487251Y-91706084D01*
X135217586Y-91484776D01*
X135217563Y-91484759D01*
X134927539Y-91290972D01*
X134927511Y-91290955D01*
X134619872Y-91126518D01*
X134619867Y-91126516D01*
X134297571Y-90993016D01*
X133963732Y-90891747D01*
X133963721Y-90891744D01*
X133621594Y-90823692D01*
X133360120Y-90797940D01*
X133274425Y-90789500D01*
X132925575Y-90789500D01*
X132846394Y-90797298D01*
X132578405Y-90823692D01*
X132236278Y-90891744D01*
X132236267Y-90891747D01*
X131902428Y-90993016D01*
X131580132Y-91126516D01*
X131580127Y-91126518D01*
X131272488Y-91290955D01*
X131272460Y-91290972D01*
X130982436Y-91484759D01*
X130982413Y-91484776D01*
X130712748Y-91706084D01*
X130466084Y-91952748D01*
X130244776Y-92222413D01*
X130244759Y-92222436D01*
X130050972Y-92512460D01*
X130050955Y-92512488D01*
X129886518Y-92820127D01*
X129886516Y-92820132D01*
X129753016Y-93142428D01*
X129651747Y-93476267D01*
X129651744Y-93476278D01*
X129583692Y-93818405D01*
X129549500Y-94165578D01*
X100280165Y-94165578D01*
X100235625Y-88140548D01*
X120330000Y-88140548D01*
X120330000Y-88359451D01*
X120330001Y-88359467D01*
X120358573Y-88576496D01*
X120415234Y-88787956D01*
X120499004Y-88990198D01*
X120499012Y-88990214D01*
X120608460Y-89179782D01*
X120608466Y-89179790D01*
X120655438Y-89241007D01*
X121299460Y-88596985D01*
X121308773Y-88619469D01*
X121394135Y-88747221D01*
X121502779Y-88855865D01*
X121630531Y-88941227D01*
X121653012Y-88950539D01*
X121008991Y-89594560D01*
X121008991Y-89594561D01*
X121070200Y-89641527D01*
X121070208Y-89641532D01*
X121259792Y-89750990D01*
X121259801Y-89750995D01*
X121462043Y-89834765D01*
X121673503Y-89891426D01*
X121890532Y-89919998D01*
X121890549Y-89920000D01*
X122109451Y-89920000D01*
X122109467Y-89919998D01*
X122326496Y-89891426D01*
X122537956Y-89834765D01*
X122740198Y-89750995D01*
X122740214Y-89750987D01*
X122929785Y-89641537D01*
X122929793Y-89641531D01*
X122991007Y-89594560D01*
X122346986Y-88950539D01*
X122369469Y-88941227D01*
X122497221Y-88855865D01*
X122605865Y-88747221D01*
X122691227Y-88619469D01*
X122700539Y-88596986D01*
X123344560Y-89241007D01*
X123391531Y-89179793D01*
X123391537Y-89179785D01*
X123500987Y-88990214D01*
X123500995Y-88990198D01*
X123584765Y-88787956D01*
X123641426Y-88576496D01*
X123669998Y-88359467D01*
X123670000Y-88359451D01*
X123670000Y-88140540D01*
X123669995Y-88140502D01*
X124769500Y-88140502D01*
X124769500Y-88359497D01*
X124793306Y-88540314D01*
X124798083Y-88576598D01*
X124798084Y-88576600D01*
X124854715Y-88787956D01*
X124854759Y-88788117D01*
X124938560Y-88990428D01*
X124938562Y-88990433D01*
X124938565Y-88990438D01*
X125048049Y-89180070D01*
X125181355Y-89353798D01*
X125181361Y-89353805D01*
X125336194Y-89508638D01*
X125336201Y-89508644D01*
X125509929Y-89641950D01*
X125699561Y-89751434D01*
X125699563Y-89751434D01*
X125699572Y-89751440D01*
X125901883Y-89835241D01*
X126113402Y-89891917D01*
X126330510Y-89920500D01*
X126330517Y-89920500D01*
X126549483Y-89920500D01*
X126549490Y-89920500D01*
X126766598Y-89891917D01*
X126978117Y-89835241D01*
X127180428Y-89751440D01*
X127370071Y-89641950D01*
X127543800Y-89508643D01*
X127698643Y-89353800D01*
X127831950Y-89180071D01*
X127941440Y-88990428D01*
X128025241Y-88788117D01*
X128081917Y-88576598D01*
X128110500Y-88359490D01*
X128110500Y-88140510D01*
X128110499Y-88140502D01*
X129209500Y-88140502D01*
X129209500Y-88359497D01*
X129233306Y-88540314D01*
X129238083Y-88576598D01*
X129238084Y-88576600D01*
X129294715Y-88787956D01*
X129294759Y-88788117D01*
X129378560Y-88990428D01*
X129378562Y-88990433D01*
X129378565Y-88990438D01*
X129488049Y-89180070D01*
X129621355Y-89353798D01*
X129621361Y-89353805D01*
X129776194Y-89508638D01*
X129776201Y-89508644D01*
X129949929Y-89641950D01*
X130139561Y-89751434D01*
X130139563Y-89751434D01*
X130139572Y-89751440D01*
X130341883Y-89835241D01*
X130553402Y-89891917D01*
X130770510Y-89920500D01*
X130770517Y-89920500D01*
X130989483Y-89920500D01*
X130989490Y-89920500D01*
X131206598Y-89891917D01*
X131418117Y-89835241D01*
X131620428Y-89751440D01*
X131810071Y-89641950D01*
X131983800Y-89508643D01*
X132138643Y-89353800D01*
X132271950Y-89180071D01*
X132381440Y-88990428D01*
X132465241Y-88788117D01*
X132521917Y-88576598D01*
X132550500Y-88359490D01*
X132550500Y-88140510D01*
X132550499Y-88140502D01*
X133649500Y-88140502D01*
X133649500Y-88359497D01*
X133673306Y-88540314D01*
X133678083Y-88576598D01*
X133678084Y-88576600D01*
X133734715Y-88787956D01*
X133734759Y-88788117D01*
X133818560Y-88990428D01*
X133818562Y-88990433D01*
X133818565Y-88990438D01*
X133928049Y-89180070D01*
X134061355Y-89353798D01*
X134061361Y-89353805D01*
X134216194Y-89508638D01*
X134216201Y-89508644D01*
X134389929Y-89641950D01*
X134579561Y-89751434D01*
X134579563Y-89751434D01*
X134579572Y-89751440D01*
X134781883Y-89835241D01*
X134993402Y-89891917D01*
X135210510Y-89920500D01*
X135210517Y-89920500D01*
X135429483Y-89920500D01*
X135429490Y-89920500D01*
X135646598Y-89891917D01*
X135858117Y-89835241D01*
X136060428Y-89751440D01*
X136250071Y-89641950D01*
X136423800Y-89508643D01*
X136578643Y-89353800D01*
X136711950Y-89180071D01*
X136821440Y-88990428D01*
X136905241Y-88788117D01*
X136961917Y-88576598D01*
X136990500Y-88359490D01*
X136990500Y-88140510D01*
X136990499Y-88140502D01*
X138089500Y-88140502D01*
X138089500Y-88359497D01*
X138113306Y-88540314D01*
X138118083Y-88576598D01*
X138118084Y-88576600D01*
X138174715Y-88787956D01*
X138174759Y-88788117D01*
X138258560Y-88990428D01*
X138258562Y-88990433D01*
X138258565Y-88990438D01*
X138368049Y-89180070D01*
X138501355Y-89353798D01*
X138501361Y-89353805D01*
X138656194Y-89508638D01*
X138656201Y-89508644D01*
X138829929Y-89641950D01*
X139019561Y-89751434D01*
X139019563Y-89751434D01*
X139019572Y-89751440D01*
X139221883Y-89835241D01*
X139433402Y-89891917D01*
X139650510Y-89920500D01*
X139650517Y-89920500D01*
X139869483Y-89920500D01*
X139869490Y-89920500D01*
X140086598Y-89891917D01*
X140298117Y-89835241D01*
X140500428Y-89751440D01*
X140690071Y-89641950D01*
X140863800Y-89508643D01*
X141018643Y-89353800D01*
X141151950Y-89180071D01*
X141261440Y-88990428D01*
X141345241Y-88788117D01*
X141401917Y-88576598D01*
X141430500Y-88359490D01*
X141430500Y-88140510D01*
X141430499Y-88140502D01*
X142529500Y-88140502D01*
X142529500Y-88359497D01*
X142553306Y-88540314D01*
X142558083Y-88576598D01*
X142558084Y-88576600D01*
X142614715Y-88787956D01*
X142614759Y-88788117D01*
X142698560Y-88990428D01*
X142698562Y-88990433D01*
X142698565Y-88990438D01*
X142808049Y-89180070D01*
X142941355Y-89353798D01*
X142941361Y-89353805D01*
X143096194Y-89508638D01*
X143096201Y-89508644D01*
X143269929Y-89641950D01*
X143459561Y-89751434D01*
X143459563Y-89751434D01*
X143459572Y-89751440D01*
X143661883Y-89835241D01*
X143873402Y-89891917D01*
X144090510Y-89920500D01*
X144090517Y-89920500D01*
X144309483Y-89920500D01*
X144309490Y-89920500D01*
X144526598Y-89891917D01*
X144738117Y-89835241D01*
X144940428Y-89751440D01*
X145130071Y-89641950D01*
X145303800Y-89508643D01*
X145458643Y-89353800D01*
X145591950Y-89180071D01*
X145701440Y-88990428D01*
X145785241Y-88788117D01*
X145841917Y-88576598D01*
X145870500Y-88359490D01*
X145870500Y-88140510D01*
X145841917Y-87923402D01*
X145785241Y-87711883D01*
X145701440Y-87509572D01*
X145695899Y-87499975D01*
X145591950Y-87319929D01*
X145458644Y-87146201D01*
X145458638Y-87146194D01*
X145303805Y-86991361D01*
X145303798Y-86991355D01*
X145130070Y-86858049D01*
X144940438Y-86748565D01*
X144940433Y-86748562D01*
X144940428Y-86748560D01*
X144738117Y-86664759D01*
X144738118Y-86664759D01*
X144738115Y-86664758D01*
X144632357Y-86636421D01*
X144526598Y-86608083D01*
X144490314Y-86603306D01*
X144309497Y-86579500D01*
X144309490Y-86579500D01*
X144090510Y-86579500D01*
X144090502Y-86579500D01*
X143883853Y-86606707D01*
X143873402Y-86608083D01*
X143828699Y-86620060D01*
X143661884Y-86664758D01*
X143543374Y-86713847D01*
X143459572Y-86748560D01*
X143459569Y-86748561D01*
X143459561Y-86748565D01*
X143269929Y-86858049D01*
X143096201Y-86991355D01*
X143096194Y-86991361D01*
X142941361Y-87146194D01*
X142941355Y-87146201D01*
X142808049Y-87319929D01*
X142698565Y-87509561D01*
X142698561Y-87509569D01*
X142698560Y-87509572D01*
X142678180Y-87558773D01*
X142614758Y-87711884D01*
X142558084Y-87923399D01*
X142558082Y-87923410D01*
X142529500Y-88140502D01*
X141430499Y-88140502D01*
X141401917Y-87923402D01*
X141345241Y-87711883D01*
X141261440Y-87509572D01*
X141255899Y-87499975D01*
X141151950Y-87319929D01*
X141018644Y-87146201D01*
X141018638Y-87146194D01*
X140863805Y-86991361D01*
X140863798Y-86991355D01*
X140690070Y-86858049D01*
X140500438Y-86748565D01*
X140500433Y-86748562D01*
X140500428Y-86748560D01*
X140298117Y-86664759D01*
X140298118Y-86664759D01*
X140298115Y-86664758D01*
X140192357Y-86636421D01*
X140086598Y-86608083D01*
X140050314Y-86603306D01*
X139869497Y-86579500D01*
X139869490Y-86579500D01*
X139650510Y-86579500D01*
X139650502Y-86579500D01*
X139443853Y-86606707D01*
X139433402Y-86608083D01*
X139388699Y-86620060D01*
X139221884Y-86664758D01*
X139103374Y-86713847D01*
X139019572Y-86748560D01*
X139019569Y-86748561D01*
X139019561Y-86748565D01*
X138829929Y-86858049D01*
X138656201Y-86991355D01*
X138656194Y-86991361D01*
X138501361Y-87146194D01*
X138501355Y-87146201D01*
X138368049Y-87319929D01*
X138258565Y-87509561D01*
X138258561Y-87509569D01*
X138258560Y-87509572D01*
X138238180Y-87558773D01*
X138174758Y-87711884D01*
X138118084Y-87923399D01*
X138118082Y-87923410D01*
X138089500Y-88140502D01*
X136990499Y-88140502D01*
X136961917Y-87923402D01*
X136905241Y-87711883D01*
X136821440Y-87509572D01*
X136815899Y-87499975D01*
X136711950Y-87319929D01*
X136578644Y-87146201D01*
X136578638Y-87146194D01*
X136423805Y-86991361D01*
X136423798Y-86991355D01*
X136250070Y-86858049D01*
X136060438Y-86748565D01*
X136060433Y-86748562D01*
X136060428Y-86748560D01*
X135858117Y-86664759D01*
X135858118Y-86664759D01*
X135858115Y-86664758D01*
X135752357Y-86636421D01*
X135646598Y-86608083D01*
X135610314Y-86603306D01*
X135429497Y-86579500D01*
X135429490Y-86579500D01*
X135210510Y-86579500D01*
X135210502Y-86579500D01*
X135003853Y-86606707D01*
X134993402Y-86608083D01*
X134948699Y-86620060D01*
X134781884Y-86664758D01*
X134663374Y-86713847D01*
X134579572Y-86748560D01*
X134579569Y-86748561D01*
X134579561Y-86748565D01*
X134389929Y-86858049D01*
X134216201Y-86991355D01*
X134216194Y-86991361D01*
X134061361Y-87146194D01*
X134061355Y-87146201D01*
X133928049Y-87319929D01*
X133818565Y-87509561D01*
X133818561Y-87509569D01*
X133818560Y-87509572D01*
X133798180Y-87558773D01*
X133734758Y-87711884D01*
X133678084Y-87923399D01*
X133678082Y-87923410D01*
X133649500Y-88140502D01*
X132550499Y-88140502D01*
X132521917Y-87923402D01*
X132465241Y-87711883D01*
X132381440Y-87509572D01*
X132375899Y-87499975D01*
X132271950Y-87319929D01*
X132138644Y-87146201D01*
X132138638Y-87146194D01*
X131983805Y-86991361D01*
X131983798Y-86991355D01*
X131810070Y-86858049D01*
X131620438Y-86748565D01*
X131620433Y-86748562D01*
X131620428Y-86748560D01*
X131418117Y-86664759D01*
X131418118Y-86664759D01*
X131418115Y-86664758D01*
X131312357Y-86636421D01*
X131206598Y-86608083D01*
X131170314Y-86603306D01*
X130989497Y-86579500D01*
X130989490Y-86579500D01*
X130770510Y-86579500D01*
X130770502Y-86579500D01*
X130563853Y-86606707D01*
X130553402Y-86608083D01*
X130508699Y-86620060D01*
X130341884Y-86664758D01*
X130223374Y-86713847D01*
X130139572Y-86748560D01*
X130139569Y-86748561D01*
X130139561Y-86748565D01*
X129949929Y-86858049D01*
X129776201Y-86991355D01*
X129776194Y-86991361D01*
X129621361Y-87146194D01*
X129621355Y-87146201D01*
X129488049Y-87319929D01*
X129378565Y-87509561D01*
X129378561Y-87509569D01*
X129378560Y-87509572D01*
X129358180Y-87558773D01*
X129294758Y-87711884D01*
X129238084Y-87923399D01*
X129238082Y-87923410D01*
X129209500Y-88140502D01*
X128110499Y-88140502D01*
X128081917Y-87923402D01*
X128025241Y-87711883D01*
X127941440Y-87509572D01*
X127935899Y-87499975D01*
X127831950Y-87319929D01*
X127698644Y-87146201D01*
X127698638Y-87146194D01*
X127543805Y-86991361D01*
X127543798Y-86991355D01*
X127370070Y-86858049D01*
X127180438Y-86748565D01*
X127180433Y-86748562D01*
X127180428Y-86748560D01*
X126978117Y-86664759D01*
X126978118Y-86664759D01*
X126978115Y-86664758D01*
X126872357Y-86636421D01*
X126766598Y-86608083D01*
X126730314Y-86603306D01*
X126549497Y-86579500D01*
X126549490Y-86579500D01*
X126330510Y-86579500D01*
X126330502Y-86579500D01*
X126123853Y-86606707D01*
X126113402Y-86608083D01*
X126068699Y-86620060D01*
X125901884Y-86664758D01*
X125783374Y-86713847D01*
X125699572Y-86748560D01*
X125699569Y-86748561D01*
X125699561Y-86748565D01*
X125509929Y-86858049D01*
X125336201Y-86991355D01*
X125336194Y-86991361D01*
X125181361Y-87146194D01*
X125181355Y-87146201D01*
X125048049Y-87319929D01*
X124938565Y-87509561D01*
X124938561Y-87509569D01*
X124938560Y-87509572D01*
X124918180Y-87558773D01*
X124854758Y-87711884D01*
X124798084Y-87923399D01*
X124798082Y-87923410D01*
X124769500Y-88140502D01*
X123669995Y-88140502D01*
X123641426Y-87923503D01*
X123584765Y-87712043D01*
X123500995Y-87509801D01*
X123500990Y-87509792D01*
X123391532Y-87320208D01*
X123391527Y-87320200D01*
X123344560Y-87258991D01*
X122700539Y-87903012D01*
X122691227Y-87880531D01*
X122605865Y-87752779D01*
X122497221Y-87644135D01*
X122369469Y-87558773D01*
X122346985Y-87549459D01*
X122991007Y-86905438D01*
X122991007Y-86905437D01*
X122929790Y-86858466D01*
X122929782Y-86858460D01*
X122740214Y-86749012D01*
X122740198Y-86749004D01*
X122537956Y-86665234D01*
X122326496Y-86608573D01*
X122109467Y-86580001D01*
X122109451Y-86580000D01*
X121890549Y-86580000D01*
X121890532Y-86580001D01*
X121673503Y-86608573D01*
X121462043Y-86665234D01*
X121259801Y-86749004D01*
X121259785Y-86749012D01*
X121070215Y-86858461D01*
X121070200Y-86858471D01*
X121008990Y-86905438D01*
X121653013Y-87549460D01*
X121630531Y-87558773D01*
X121502779Y-87644135D01*
X121394135Y-87752779D01*
X121308773Y-87880531D01*
X121299460Y-87903013D01*
X120655438Y-87258990D01*
X120608471Y-87320200D01*
X120608461Y-87320215D01*
X120499012Y-87509785D01*
X120499004Y-87509801D01*
X120415234Y-87712043D01*
X120358573Y-87923503D01*
X120330001Y-88140532D01*
X120330000Y-88140548D01*
X100235625Y-88140548D01*
X100198797Y-83158638D01*
X100195670Y-82735578D01*
X112009500Y-82735578D01*
X112009500Y-83084421D01*
X112043692Y-83431594D01*
X112111744Y-83773721D01*
X112111747Y-83773732D01*
X112213016Y-84107571D01*
X112346516Y-84429867D01*
X112346518Y-84429872D01*
X112510955Y-84737511D01*
X112510972Y-84737539D01*
X112704759Y-85027563D01*
X112704776Y-85027586D01*
X112926084Y-85297251D01*
X113172748Y-85543915D01*
X113172753Y-85543919D01*
X113172754Y-85543920D01*
X113442419Y-85765228D01*
X113442426Y-85765233D01*
X113442436Y-85765240D01*
X113732460Y-85959027D01*
X113732465Y-85959030D01*
X113732477Y-85959038D01*
X113732486Y-85959042D01*
X113732488Y-85959044D01*
X114040127Y-86123481D01*
X114040129Y-86123481D01*
X114040135Y-86123485D01*
X114362430Y-86256984D01*
X114696258Y-86358250D01*
X114696264Y-86358251D01*
X114696267Y-86358252D01*
X114696278Y-86358255D01*
X115038405Y-86426307D01*
X115385575Y-86460500D01*
X115385578Y-86460500D01*
X115734422Y-86460500D01*
X115734425Y-86460500D01*
X116081595Y-86426307D01*
X116148197Y-86413059D01*
X116423721Y-86358255D01*
X116423732Y-86358252D01*
X116423732Y-86358251D01*
X116423742Y-86358250D01*
X116757570Y-86256984D01*
X117079865Y-86123485D01*
X117387523Y-85959038D01*
X117677581Y-85765228D01*
X117947246Y-85543920D01*
X118193920Y-85297246D01*
X118415228Y-85027581D01*
X118609038Y-84737523D01*
X118773485Y-84429865D01*
X118906984Y-84107570D01*
X119008250Y-83773742D01*
X119008252Y-83773732D01*
X119008255Y-83773721D01*
X119076307Y-83431594D01*
X119079277Y-83401439D01*
X119110500Y-83084425D01*
X119110500Y-82735575D01*
X119076307Y-82388405D01*
X119008255Y-82046278D01*
X119008252Y-82046267D01*
X119008251Y-82046264D01*
X119008250Y-82046258D01*
X118906984Y-81712430D01*
X118773485Y-81390135D01*
X118758384Y-81361884D01*
X118609044Y-81082488D01*
X118609042Y-81082486D01*
X118609038Y-81082477D01*
X118609027Y-81082460D01*
X118415240Y-80792436D01*
X118415233Y-80792426D01*
X118415228Y-80792419D01*
X118193920Y-80522754D01*
X118193919Y-80522753D01*
X118193915Y-80522748D01*
X117947251Y-80276084D01*
X117677586Y-80054776D01*
X117677563Y-80054759D01*
X117387539Y-79860972D01*
X117387511Y-79860955D01*
X117079872Y-79696518D01*
X117079867Y-79696516D01*
X116757571Y-79563016D01*
X116423732Y-79461747D01*
X116423721Y-79461744D01*
X116081594Y-79393692D01*
X115820120Y-79367940D01*
X115734425Y-79359500D01*
X115385575Y-79359500D01*
X115306394Y-79367298D01*
X115038405Y-79393692D01*
X114696278Y-79461744D01*
X114696267Y-79461747D01*
X114362428Y-79563016D01*
X114040132Y-79696516D01*
X114040127Y-79696518D01*
X113732488Y-79860955D01*
X113732460Y-79860972D01*
X113442436Y-80054759D01*
X113442413Y-80054776D01*
X113172748Y-80276084D01*
X112926084Y-80522748D01*
X112704776Y-80792413D01*
X112704759Y-80792436D01*
X112510972Y-81082460D01*
X112510955Y-81082488D01*
X112346518Y-81390127D01*
X112346516Y-81390132D01*
X112213016Y-81712428D01*
X112111747Y-82046267D01*
X112111744Y-82046278D01*
X112043692Y-82388405D01*
X112018871Y-82640426D01*
X112009710Y-82733448D01*
X112009500Y-82735578D01*
X100195670Y-82735578D01*
X100195654Y-82733448D01*
X100155141Y-77253181D01*
X100120477Y-72564071D01*
X100509499Y-72564071D01*
X100534497Y-72689738D01*
X100534499Y-72689744D01*
X100583535Y-72808127D01*
X100593073Y-72822402D01*
X100654726Y-72914673D01*
X106185326Y-78445273D01*
X106185329Y-78445275D01*
X106185331Y-78445277D01*
X106291873Y-78516465D01*
X106410256Y-78565501D01*
X106410260Y-78565501D01*
X106410261Y-78565502D01*
X106535928Y-78590500D01*
X106535931Y-78590500D01*
X106664069Y-78590500D01*
X117719192Y-78590500D01*
X117786231Y-78610185D01*
X117806873Y-78626819D01*
X120393421Y-81213367D01*
X120426906Y-81274690D01*
X120421922Y-81344382D01*
X120420303Y-81348497D01*
X120414761Y-81361875D01*
X120414759Y-81361883D01*
X120358084Y-81573399D01*
X120358082Y-81573410D01*
X120329500Y-81790502D01*
X120329500Y-82009497D01*
X120334343Y-82046278D01*
X120358083Y-82226598D01*
X120414759Y-82438117D01*
X120498560Y-82640428D01*
X120498562Y-82640433D01*
X120498565Y-82640438D01*
X120608049Y-82830070D01*
X120741355Y-83003798D01*
X120741361Y-83003805D01*
X120896194Y-83158638D01*
X120896201Y-83158644D01*
X121069929Y-83291950D01*
X121259561Y-83401434D01*
X121259563Y-83401434D01*
X121259572Y-83401440D01*
X121461883Y-83485241D01*
X121673402Y-83541917D01*
X121890510Y-83570500D01*
X121890517Y-83570500D01*
X122109483Y-83570500D01*
X122109490Y-83570500D01*
X122326598Y-83541917D01*
X122538117Y-83485241D01*
X122740428Y-83401440D01*
X122930071Y-83291950D01*
X123103800Y-83158643D01*
X123258643Y-83003800D01*
X123391950Y-82830071D01*
X123501440Y-82640428D01*
X123585241Y-82438117D01*
X123641917Y-82226598D01*
X123670500Y-82009490D01*
X123670500Y-81790510D01*
X123670499Y-81790502D01*
X124769500Y-81790502D01*
X124769500Y-82009497D01*
X124774343Y-82046278D01*
X124798083Y-82226598D01*
X124854759Y-82438117D01*
X124938560Y-82640428D01*
X124938562Y-82640433D01*
X124938565Y-82640438D01*
X125048049Y-82830070D01*
X125181355Y-83003798D01*
X125181361Y-83003805D01*
X125336194Y-83158638D01*
X125336201Y-83158644D01*
X125509929Y-83291950D01*
X125699561Y-83401434D01*
X125699563Y-83401434D01*
X125699572Y-83401440D01*
X125901883Y-83485241D01*
X126113402Y-83541917D01*
X126330510Y-83570500D01*
X126330517Y-83570500D01*
X126549483Y-83570500D01*
X126549490Y-83570500D01*
X126766598Y-83541917D01*
X126978117Y-83485241D01*
X127180428Y-83401440D01*
X127370071Y-83291950D01*
X127543800Y-83158643D01*
X127698643Y-83003800D01*
X127831950Y-82830071D01*
X127941440Y-82640428D01*
X128025241Y-82438117D01*
X128081917Y-82226598D01*
X128110500Y-82009490D01*
X128110500Y-81790510D01*
X128110499Y-81790502D01*
X129209500Y-81790502D01*
X129209500Y-82009497D01*
X129214343Y-82046278D01*
X129238083Y-82226598D01*
X129294759Y-82438117D01*
X129378560Y-82640428D01*
X129378562Y-82640433D01*
X129378565Y-82640438D01*
X129488049Y-82830070D01*
X129621355Y-83003798D01*
X129621361Y-83003805D01*
X129776194Y-83158638D01*
X129776201Y-83158644D01*
X129949929Y-83291950D01*
X130139561Y-83401434D01*
X130139563Y-83401434D01*
X130139572Y-83401440D01*
X130341883Y-83485241D01*
X130553402Y-83541917D01*
X130770510Y-83570500D01*
X130770517Y-83570500D01*
X130989483Y-83570500D01*
X130989490Y-83570500D01*
X131206598Y-83541917D01*
X131418117Y-83485241D01*
X131620428Y-83401440D01*
X131810071Y-83291950D01*
X131983800Y-83158643D01*
X132138643Y-83003800D01*
X132271950Y-82830071D01*
X132381440Y-82640428D01*
X132465241Y-82438117D01*
X132521917Y-82226598D01*
X132550500Y-82009490D01*
X132550500Y-81790510D01*
X132550499Y-81790502D01*
X133649500Y-81790502D01*
X133649500Y-82009497D01*
X133654343Y-82046278D01*
X133678083Y-82226598D01*
X133734759Y-82438117D01*
X133818560Y-82640428D01*
X133818562Y-82640433D01*
X133818565Y-82640438D01*
X133928049Y-82830070D01*
X134061355Y-83003798D01*
X134061361Y-83003805D01*
X134216194Y-83158638D01*
X134216201Y-83158644D01*
X134389929Y-83291950D01*
X134579561Y-83401434D01*
X134579563Y-83401434D01*
X134579572Y-83401440D01*
X134781883Y-83485241D01*
X134993402Y-83541917D01*
X135210510Y-83570500D01*
X135210517Y-83570500D01*
X135429483Y-83570500D01*
X135429490Y-83570500D01*
X135646598Y-83541917D01*
X135858117Y-83485241D01*
X136060428Y-83401440D01*
X136250071Y-83291950D01*
X136423800Y-83158643D01*
X136578643Y-83003800D01*
X136711950Y-82830071D01*
X136821440Y-82640428D01*
X136905241Y-82438117D01*
X136961917Y-82226598D01*
X136990500Y-82009490D01*
X136990500Y-81790510D01*
X136990499Y-81790502D01*
X138089500Y-81790502D01*
X138089500Y-82009497D01*
X138094343Y-82046278D01*
X138118083Y-82226598D01*
X138174759Y-82438117D01*
X138258560Y-82640428D01*
X138258562Y-82640433D01*
X138258565Y-82640438D01*
X138368049Y-82830070D01*
X138501355Y-83003798D01*
X138501361Y-83003805D01*
X138656194Y-83158638D01*
X138656201Y-83158644D01*
X138829929Y-83291950D01*
X139019561Y-83401434D01*
X139019563Y-83401434D01*
X139019572Y-83401440D01*
X139221883Y-83485241D01*
X139433402Y-83541917D01*
X139650510Y-83570500D01*
X139650517Y-83570500D01*
X139869483Y-83570500D01*
X139869490Y-83570500D01*
X140086598Y-83541917D01*
X140298117Y-83485241D01*
X140500428Y-83401440D01*
X140690071Y-83291950D01*
X140863800Y-83158643D01*
X141018643Y-83003800D01*
X141151950Y-82830071D01*
X141261440Y-82640428D01*
X141345241Y-82438117D01*
X141401917Y-82226598D01*
X141430500Y-82009490D01*
X141430500Y-81790510D01*
X141430499Y-81790502D01*
X142529500Y-81790502D01*
X142529500Y-82009497D01*
X142534343Y-82046278D01*
X142558083Y-82226598D01*
X142614759Y-82438117D01*
X142698560Y-82640428D01*
X142698562Y-82640433D01*
X142698565Y-82640438D01*
X142808049Y-82830070D01*
X142941355Y-83003798D01*
X142941361Y-83003805D01*
X143096194Y-83158638D01*
X143096201Y-83158644D01*
X143269929Y-83291950D01*
X143459561Y-83401434D01*
X143459563Y-83401434D01*
X143459572Y-83401440D01*
X143661883Y-83485241D01*
X143873402Y-83541917D01*
X144090510Y-83570500D01*
X144090517Y-83570500D01*
X144309483Y-83570500D01*
X144309490Y-83570500D01*
X144526598Y-83541917D01*
X144738117Y-83485241D01*
X144940428Y-83401440D01*
X145130071Y-83291950D01*
X145303800Y-83158643D01*
X145458643Y-83003800D01*
X145591950Y-82830071D01*
X145646505Y-82735578D01*
X147089500Y-82735578D01*
X147089500Y-83084421D01*
X147123692Y-83431594D01*
X147191744Y-83773721D01*
X147191747Y-83773732D01*
X147293016Y-84107571D01*
X147426516Y-84429867D01*
X147426518Y-84429872D01*
X147590955Y-84737511D01*
X147590972Y-84737539D01*
X147784759Y-85027563D01*
X147784776Y-85027586D01*
X148006084Y-85297251D01*
X148252748Y-85543915D01*
X148252753Y-85543919D01*
X148252754Y-85543920D01*
X148522419Y-85765228D01*
X148522426Y-85765233D01*
X148522436Y-85765240D01*
X148812460Y-85959027D01*
X148812465Y-85959030D01*
X148812477Y-85959038D01*
X148812486Y-85959042D01*
X148812488Y-85959044D01*
X149120127Y-86123481D01*
X149120129Y-86123481D01*
X149120135Y-86123485D01*
X149442430Y-86256984D01*
X149776258Y-86358250D01*
X149776264Y-86358251D01*
X149776267Y-86358252D01*
X149776278Y-86358255D01*
X150118405Y-86426307D01*
X150465575Y-86460500D01*
X150465578Y-86460500D01*
X150814422Y-86460500D01*
X150814425Y-86460500D01*
X151161595Y-86426307D01*
X151228197Y-86413059D01*
X151503721Y-86358255D01*
X151503732Y-86358252D01*
X151503732Y-86358251D01*
X151503742Y-86358250D01*
X151837570Y-86256984D01*
X152159865Y-86123485D01*
X152467523Y-85959038D01*
X152757581Y-85765228D01*
X153027246Y-85543920D01*
X153273920Y-85297246D01*
X153495228Y-85027581D01*
X153689038Y-84737523D01*
X153853485Y-84429865D01*
X153986984Y-84107570D01*
X154088250Y-83773742D01*
X154088252Y-83773732D01*
X154088255Y-83773721D01*
X154156307Y-83431594D01*
X154159277Y-83401439D01*
X154190500Y-83084425D01*
X154190500Y-82735575D01*
X154156307Y-82388405D01*
X154088255Y-82046278D01*
X154088252Y-82046267D01*
X154088251Y-82046264D01*
X154088250Y-82046258D01*
X153986984Y-81712430D01*
X153853485Y-81390135D01*
X153838384Y-81361884D01*
X153689044Y-81082488D01*
X153689042Y-81082486D01*
X153689038Y-81082477D01*
X153689027Y-81082460D01*
X153495240Y-80792436D01*
X153495233Y-80792426D01*
X153495228Y-80792419D01*
X153273920Y-80522754D01*
X153273919Y-80522753D01*
X153273915Y-80522748D01*
X153027251Y-80276084D01*
X152757586Y-80054776D01*
X152757563Y-80054759D01*
X152467539Y-79860972D01*
X152467511Y-79860955D01*
X152159872Y-79696518D01*
X152159867Y-79696516D01*
X151837571Y-79563016D01*
X151503732Y-79461747D01*
X151503721Y-79461744D01*
X151161594Y-79393692D01*
X150900120Y-79367940D01*
X150814425Y-79359500D01*
X150465575Y-79359500D01*
X150386394Y-79367298D01*
X150118405Y-79393692D01*
X149776278Y-79461744D01*
X149776267Y-79461747D01*
X149442428Y-79563016D01*
X149120132Y-79696516D01*
X149120127Y-79696518D01*
X148812488Y-79860955D01*
X148812460Y-79860972D01*
X148522436Y-80054759D01*
X148522413Y-80054776D01*
X148252748Y-80276084D01*
X148006084Y-80522748D01*
X147784776Y-80792413D01*
X147784759Y-80792436D01*
X147590972Y-81082460D01*
X147590955Y-81082488D01*
X147426518Y-81390127D01*
X147426516Y-81390132D01*
X147293016Y-81712428D01*
X147191747Y-82046267D01*
X147191744Y-82046278D01*
X147123692Y-82388405D01*
X147098871Y-82640426D01*
X147089710Y-82733448D01*
X147089500Y-82735578D01*
X145646505Y-82735578D01*
X145701440Y-82640428D01*
X145785241Y-82438117D01*
X145841917Y-82226598D01*
X145870500Y-82009490D01*
X145870500Y-81790510D01*
X145841917Y-81573402D01*
X145785241Y-81361883D01*
X145701440Y-81159572D01*
X145656929Y-81082477D01*
X145591950Y-80969929D01*
X145458644Y-80796201D01*
X145458638Y-80796194D01*
X145303805Y-80641361D01*
X145303798Y-80641355D01*
X145130070Y-80508049D01*
X144940438Y-80398565D01*
X144940433Y-80398562D01*
X144940428Y-80398560D01*
X144738117Y-80314759D01*
X144738118Y-80314759D01*
X144738115Y-80314758D01*
X144632357Y-80286421D01*
X144526598Y-80258083D01*
X144490314Y-80253306D01*
X144309497Y-80229500D01*
X144309490Y-80229500D01*
X144090510Y-80229500D01*
X144090502Y-80229500D01*
X143883853Y-80256707D01*
X143873402Y-80258083D01*
X143828699Y-80270060D01*
X143661884Y-80314758D01*
X143571957Y-80352008D01*
X143459572Y-80398560D01*
X143459569Y-80398561D01*
X143459561Y-80398565D01*
X143269929Y-80508049D01*
X143096201Y-80641355D01*
X143096194Y-80641361D01*
X142941361Y-80796194D01*
X142941355Y-80796201D01*
X142808049Y-80969929D01*
X142698565Y-81159561D01*
X142698560Y-81159573D01*
X142614758Y-81361884D01*
X142558084Y-81573399D01*
X142558082Y-81573410D01*
X142529500Y-81790502D01*
X141430499Y-81790502D01*
X141401917Y-81573402D01*
X141345241Y-81361883D01*
X141261440Y-81159572D01*
X141216929Y-81082477D01*
X141151950Y-80969929D01*
X141018644Y-80796201D01*
X141018638Y-80796194D01*
X140863805Y-80641361D01*
X140863798Y-80641355D01*
X140690070Y-80508049D01*
X140500438Y-80398565D01*
X140500433Y-80398562D01*
X140500428Y-80398560D01*
X140298117Y-80314759D01*
X140298118Y-80314759D01*
X140298115Y-80314758D01*
X140192357Y-80286421D01*
X140086598Y-80258083D01*
X140050314Y-80253306D01*
X139869497Y-80229500D01*
X139869490Y-80229500D01*
X139650510Y-80229500D01*
X139650502Y-80229500D01*
X139443853Y-80256707D01*
X139433402Y-80258083D01*
X139388699Y-80270060D01*
X139221884Y-80314758D01*
X139131957Y-80352008D01*
X139019572Y-80398560D01*
X139019569Y-80398561D01*
X139019561Y-80398565D01*
X138829929Y-80508049D01*
X138656201Y-80641355D01*
X138656194Y-80641361D01*
X138501361Y-80796194D01*
X138501355Y-80796201D01*
X138368049Y-80969929D01*
X138258565Y-81159561D01*
X138258560Y-81159573D01*
X138174758Y-81361884D01*
X138118084Y-81573399D01*
X138118082Y-81573410D01*
X138089500Y-81790502D01*
X136990499Y-81790502D01*
X136961917Y-81573402D01*
X136905241Y-81361883D01*
X136821440Y-81159572D01*
X136776929Y-81082477D01*
X136711950Y-80969929D01*
X136578644Y-80796201D01*
X136578638Y-80796194D01*
X136423805Y-80641361D01*
X136423798Y-80641355D01*
X136250070Y-80508049D01*
X136060438Y-80398565D01*
X136060433Y-80398562D01*
X136060428Y-80398560D01*
X135858117Y-80314759D01*
X135858118Y-80314759D01*
X135858115Y-80314758D01*
X135752357Y-80286421D01*
X135646598Y-80258083D01*
X135610314Y-80253306D01*
X135429497Y-80229500D01*
X135429490Y-80229500D01*
X135210510Y-80229500D01*
X135210502Y-80229500D01*
X135003853Y-80256707D01*
X134993402Y-80258083D01*
X134948699Y-80270060D01*
X134781884Y-80314758D01*
X134691957Y-80352008D01*
X134579572Y-80398560D01*
X134579569Y-80398561D01*
X134579561Y-80398565D01*
X134389929Y-80508049D01*
X134216201Y-80641355D01*
X134216194Y-80641361D01*
X134061361Y-80796194D01*
X134061355Y-80796201D01*
X133928049Y-80969929D01*
X133818565Y-81159561D01*
X133818560Y-81159573D01*
X133734758Y-81361884D01*
X133678084Y-81573399D01*
X133678082Y-81573410D01*
X133649500Y-81790502D01*
X132550499Y-81790502D01*
X132521917Y-81573402D01*
X132465241Y-81361883D01*
X132381440Y-81159572D01*
X132336929Y-81082477D01*
X132271950Y-80969929D01*
X132138644Y-80796201D01*
X132138638Y-80796194D01*
X131983805Y-80641361D01*
X131983798Y-80641355D01*
X131810070Y-80508049D01*
X131620438Y-80398565D01*
X131620433Y-80398562D01*
X131620428Y-80398560D01*
X131418117Y-80314759D01*
X131418118Y-80314759D01*
X131418115Y-80314758D01*
X131312357Y-80286421D01*
X131206598Y-80258083D01*
X131170314Y-80253306D01*
X130989497Y-80229500D01*
X130989490Y-80229500D01*
X130770510Y-80229500D01*
X130770502Y-80229500D01*
X130563853Y-80256707D01*
X130553402Y-80258083D01*
X130508699Y-80270060D01*
X130341884Y-80314758D01*
X130251957Y-80352008D01*
X130139572Y-80398560D01*
X130139569Y-80398561D01*
X130139561Y-80398565D01*
X129949929Y-80508049D01*
X129776201Y-80641355D01*
X129776194Y-80641361D01*
X129621361Y-80796194D01*
X129621355Y-80796201D01*
X129488049Y-80969929D01*
X129378565Y-81159561D01*
X129378560Y-81159573D01*
X129294758Y-81361884D01*
X129238084Y-81573399D01*
X129238082Y-81573410D01*
X129209500Y-81790502D01*
X128110499Y-81790502D01*
X128081917Y-81573402D01*
X128025241Y-81361883D01*
X127941440Y-81159572D01*
X127896929Y-81082477D01*
X127831950Y-80969929D01*
X127698644Y-80796201D01*
X127698638Y-80796194D01*
X127543805Y-80641361D01*
X127543798Y-80641355D01*
X127370070Y-80508049D01*
X127180438Y-80398565D01*
X127180433Y-80398562D01*
X127180428Y-80398560D01*
X126978117Y-80314759D01*
X126978118Y-80314759D01*
X126978115Y-80314758D01*
X126872357Y-80286421D01*
X126766598Y-80258083D01*
X126730314Y-80253306D01*
X126549497Y-80229500D01*
X126549490Y-80229500D01*
X126330510Y-80229500D01*
X126330502Y-80229500D01*
X126123853Y-80256707D01*
X126113402Y-80258083D01*
X126068699Y-80270060D01*
X125901884Y-80314758D01*
X125811957Y-80352008D01*
X125699572Y-80398560D01*
X125699569Y-80398561D01*
X125699561Y-80398565D01*
X125509929Y-80508049D01*
X125336201Y-80641355D01*
X125336194Y-80641361D01*
X125181361Y-80796194D01*
X125181355Y-80796201D01*
X125048049Y-80969929D01*
X124938565Y-81159561D01*
X124938560Y-81159573D01*
X124854758Y-81361884D01*
X124798084Y-81573399D01*
X124798082Y-81573410D01*
X124769500Y-81790502D01*
X123670499Y-81790502D01*
X123641917Y-81573402D01*
X123585241Y-81361883D01*
X123501440Y-81159572D01*
X123456929Y-81082477D01*
X123391950Y-80969929D01*
X123258644Y-80796201D01*
X123258638Y-80796194D01*
X123103805Y-80641361D01*
X123103798Y-80641355D01*
X122930070Y-80508049D01*
X122740438Y-80398565D01*
X122740433Y-80398562D01*
X122740428Y-80398560D01*
X122538117Y-80314759D01*
X122538118Y-80314759D01*
X122538115Y-80314758D01*
X122432357Y-80286421D01*
X122326598Y-80258083D01*
X122290314Y-80253306D01*
X122109497Y-80229500D01*
X122109490Y-80229500D01*
X121890510Y-80229500D01*
X121890502Y-80229500D01*
X121683853Y-80256707D01*
X121673402Y-80258083D01*
X121606236Y-80276080D01*
X121461883Y-80314759D01*
X121461875Y-80314761D01*
X121448497Y-80320303D01*
X121379027Y-80327769D01*
X121316549Y-80296492D01*
X121313367Y-80293421D01*
X118454674Y-77434727D01*
X118454673Y-77434726D01*
X118454669Y-77434723D01*
X118348127Y-77363535D01*
X118229744Y-77314499D01*
X118229738Y-77314497D01*
X118104071Y-77289500D01*
X118104069Y-77289500D01*
X106920808Y-77289500D01*
X106853769Y-77269815D01*
X106833127Y-77253181D01*
X101971590Y-72391644D01*
X104173200Y-72391644D01*
X104173200Y-72608355D01*
X104207102Y-72822402D01*
X104207102Y-72822405D01*
X104274068Y-73028505D01*
X104367209Y-73211305D01*
X104372455Y-73221600D01*
X104499836Y-73396925D01*
X104653075Y-73550164D01*
X104828400Y-73677545D01*
X105021492Y-73775930D01*
X105021494Y-73775931D01*
X105227595Y-73842897D01*
X105227596Y-73842897D01*
X105227599Y-73842898D01*
X105441644Y-73876800D01*
X105441645Y-73876800D01*
X105658355Y-73876800D01*
X105658356Y-73876800D01*
X105872401Y-73842898D01*
X105872404Y-73842897D01*
X105872405Y-73842897D01*
X106078505Y-73775931D01*
X106078505Y-73775930D01*
X106078508Y-73775930D01*
X106271600Y-73677545D01*
X106446925Y-73550164D01*
X106600164Y-73396925D01*
X106699682Y-73259949D01*
X106755012Y-73217284D01*
X106824625Y-73211305D01*
X106886420Y-73243911D01*
X106900317Y-73259949D01*
X106999836Y-73396925D01*
X107153075Y-73550164D01*
X107328400Y-73677545D01*
X107521492Y-73775930D01*
X107521494Y-73775931D01*
X107727595Y-73842897D01*
X107727596Y-73842897D01*
X107727599Y-73842898D01*
X107941644Y-73876800D01*
X107941645Y-73876800D01*
X108158355Y-73876800D01*
X108158356Y-73876800D01*
X108372401Y-73842898D01*
X108372404Y-73842897D01*
X108372405Y-73842897D01*
X108578505Y-73775931D01*
X108578505Y-73775930D01*
X108578508Y-73775930D01*
X108771600Y-73677545D01*
X108946925Y-73550164D01*
X109100164Y-73396925D01*
X109227545Y-73221600D01*
X109325930Y-73028508D01*
X109362917Y-72914673D01*
X109392897Y-72822405D01*
X109392897Y-72822404D01*
X109392898Y-72822401D01*
X109426800Y-72608356D01*
X109426800Y-72391644D01*
X109392898Y-72177599D01*
X109392897Y-72177595D01*
X109392897Y-72177594D01*
X109325931Y-71971494D01*
X109232790Y-71788694D01*
X109227545Y-71778400D01*
X109100164Y-71603075D01*
X108946925Y-71449836D01*
X108771600Y-71322455D01*
X108578505Y-71224068D01*
X108372404Y-71157102D01*
X108211867Y-71131675D01*
X108158356Y-71123200D01*
X107941644Y-71123200D01*
X107870295Y-71134500D01*
X107727597Y-71157102D01*
X107727594Y-71157102D01*
X107521494Y-71224068D01*
X107328399Y-71322455D01*
X107153072Y-71449838D01*
X106999838Y-71603072D01*
X106999838Y-71603073D01*
X106999836Y-71603075D01*
X106900318Y-71740050D01*
X106844988Y-71782715D01*
X106775374Y-71788694D01*
X106713580Y-71756088D01*
X106699682Y-71740050D01*
X106600164Y-71603075D01*
X106446925Y-71449836D01*
X106271600Y-71322455D01*
X106078505Y-71224068D01*
X105872404Y-71157102D01*
X105711867Y-71131675D01*
X105658356Y-71123200D01*
X105441644Y-71123200D01*
X105370295Y-71134500D01*
X105227597Y-71157102D01*
X105227594Y-71157102D01*
X105021494Y-71224068D01*
X104828399Y-71322455D01*
X104653072Y-71449838D01*
X104499838Y-71603072D01*
X104372455Y-71778399D01*
X104274068Y-71971494D01*
X104207102Y-72177594D01*
X104207102Y-72177597D01*
X104173200Y-72391644D01*
X101971590Y-72391644D01*
X101846819Y-72266873D01*
X101813334Y-72205550D01*
X101810500Y-72179192D01*
X101810500Y-65227320D01*
X104372400Y-65227320D01*
X104372400Y-65412677D01*
X104401396Y-65595750D01*
X104401396Y-65595751D01*
X104458674Y-65772037D01*
X104458676Y-65772040D01*
X104542826Y-65937196D01*
X104651777Y-66087154D01*
X104782845Y-66218222D01*
X104932803Y-66327173D01*
X105097959Y-66411323D01*
X105097961Y-66411324D01*
X105159689Y-66431380D01*
X105274245Y-66468602D01*
X105457321Y-66497599D01*
X105457322Y-66497599D01*
X105642678Y-66497599D01*
X105642679Y-66497599D01*
X105825755Y-66468602D01*
X106002041Y-66411323D01*
X106167197Y-66327173D01*
X106317155Y-66218222D01*
X106448223Y-66087154D01*
X106557174Y-65937196D01*
X106641324Y-65772040D01*
X106682069Y-65646639D01*
X106721506Y-65588965D01*
X106785865Y-65561766D01*
X106854711Y-65573680D01*
X106906187Y-65620924D01*
X106917931Y-65646640D01*
X106958674Y-65772037D01*
X106958676Y-65772040D01*
X107042826Y-65937196D01*
X107151777Y-66087154D01*
X107282845Y-66218222D01*
X107432803Y-66327173D01*
X107597959Y-66411323D01*
X107597961Y-66411324D01*
X107659689Y-66431380D01*
X107774245Y-66468602D01*
X107957321Y-66497599D01*
X107957322Y-66497599D01*
X108142678Y-66497599D01*
X108142679Y-66497599D01*
X108325755Y-66468602D01*
X108502041Y-66411323D01*
X108667197Y-66327173D01*
X108817155Y-66218222D01*
X108948223Y-66087154D01*
X109057174Y-65937196D01*
X109141324Y-65772040D01*
X109198603Y-65595754D01*
X109227600Y-65412678D01*
X109227600Y-65227320D01*
X109198603Y-65044244D01*
X109141324Y-64867958D01*
X109057174Y-64702802D01*
X108948223Y-64552844D01*
X108817155Y-64421776D01*
X108667197Y-64312825D01*
X108654852Y-64306535D01*
X108502038Y-64228673D01*
X108325752Y-64171395D01*
X108185118Y-64149120D01*
X108142679Y-64142399D01*
X107957321Y-64142399D01*
X107914881Y-64149120D01*
X107774248Y-64171395D01*
X107774247Y-64171395D01*
X107597961Y-64228673D01*
X107432806Y-64312823D01*
X107432798Y-64312828D01*
X107352366Y-64371265D01*
X107282845Y-64421776D01*
X107282843Y-64421778D01*
X107282842Y-64421778D01*
X107151779Y-64552841D01*
X107151779Y-64552842D01*
X107151777Y-64552844D01*
X107101266Y-64622365D01*
X107042829Y-64702797D01*
X107042824Y-64702805D01*
X106958674Y-64867960D01*
X106958674Y-64867961D01*
X106917931Y-64993357D01*
X106878494Y-65051032D01*
X106814135Y-65078231D01*
X106745289Y-65066317D01*
X106693813Y-65019072D01*
X106682069Y-64993357D01*
X106641325Y-64867961D01*
X106641325Y-64867960D01*
X106641324Y-64867958D01*
X106557174Y-64702802D01*
X106448223Y-64552844D01*
X106317155Y-64421776D01*
X106167197Y-64312825D01*
X106154852Y-64306535D01*
X106002038Y-64228673D01*
X105825752Y-64171395D01*
X105685118Y-64149120D01*
X105642679Y-64142399D01*
X105457321Y-64142399D01*
X105414881Y-64149120D01*
X105274248Y-64171395D01*
X105274247Y-64171395D01*
X105097961Y-64228673D01*
X104932806Y-64312823D01*
X104932798Y-64312828D01*
X104852366Y-64371265D01*
X104782845Y-64421776D01*
X104782843Y-64421778D01*
X104782842Y-64421778D01*
X104651779Y-64552841D01*
X104651779Y-64552842D01*
X104651777Y-64552844D01*
X104601266Y-64622365D01*
X104542829Y-64702797D01*
X104542824Y-64702805D01*
X104458674Y-64867960D01*
X104401396Y-65044246D01*
X104401396Y-65044247D01*
X104372400Y-65227320D01*
X101810500Y-65227320D01*
X101810500Y-62670808D01*
X101830185Y-62603769D01*
X101846819Y-62583127D01*
X103743127Y-60686819D01*
X103804450Y-60653334D01*
X103830808Y-60650500D01*
X112255065Y-60650500D01*
X112322104Y-60670185D01*
X112323909Y-60671366D01*
X112380821Y-60709394D01*
X112380823Y-60709395D01*
X112380827Y-60709397D01*
X112526498Y-60769735D01*
X112526503Y-60769737D01*
X112681153Y-60800499D01*
X112681156Y-60800500D01*
X112681158Y-60800500D01*
X112838844Y-60800500D01*
X112838845Y-60800499D01*
X112993497Y-60769737D01*
X113139179Y-60709394D01*
X113270289Y-60621789D01*
X113381789Y-60510289D01*
X113469394Y-60379179D01*
X113529737Y-60233497D01*
X113560500Y-60078842D01*
X113560500Y-59921158D01*
X113560500Y-59921155D01*
X113560499Y-59921153D01*
X113529738Y-59766510D01*
X113529737Y-59766503D01*
X113529735Y-59766498D01*
X113469397Y-59620827D01*
X113469390Y-59620814D01*
X113381789Y-59489711D01*
X113381786Y-59489707D01*
X113270292Y-59378213D01*
X113270288Y-59378210D01*
X113139185Y-59290609D01*
X113139172Y-59290602D01*
X112993501Y-59230264D01*
X112993489Y-59230261D01*
X112838845Y-59199500D01*
X112838842Y-59199500D01*
X112681158Y-59199500D01*
X112681155Y-59199500D01*
X112526510Y-59230261D01*
X112526498Y-59230264D01*
X112380827Y-59290602D01*
X112380820Y-59290606D01*
X112351928Y-59309911D01*
X112323955Y-59328602D01*
X112257279Y-59349480D01*
X112255065Y-59349500D01*
X103445929Y-59349500D01*
X103320261Y-59374497D01*
X103320255Y-59374499D01*
X103201874Y-59423534D01*
X103095326Y-59494726D01*
X100654726Y-61935326D01*
X100583534Y-62041874D01*
X100534499Y-62160255D01*
X100534497Y-62160261D01*
X100509500Y-62285928D01*
X100509500Y-62285931D01*
X100509500Y-72564069D01*
X100509500Y-72564071D01*
X100509499Y-72564071D01*
X100120477Y-72564071D01*
X99997251Y-55894915D01*
X100016440Y-55827733D01*
X100068904Y-55781589D01*
X100121248Y-55770000D01*
X165409314Y-55770000D01*
X165476353Y-55789685D01*
G37*
%TD.AperFunction*%
%TD*%
M02*
