%TF.GenerationSoftware,KiCad,Pcbnew,9.0.0*%
%TF.CreationDate,2025-10-06T07:12:43-05:00*%
%TF.ProjectId,BPSD-2025,42505344-2d32-4303-9235-2e6b69636164,rev?*%
%TF.SameCoordinates,Original*%
%TF.FileFunction,Legend,Bot*%
%TF.FilePolarity,Positive*%
%FSLAX46Y46*%
G04 Gerber Fmt 4.6, Leading zero omitted, Abs format (unit mm)*
G04 Created by KiCad (PCBNEW 9.0.0) date 2025-10-06 07:12:43*
%MOMM*%
%LPD*%
G01*
G04 APERTURE LIST*
%ADD10C,0.100000*%
%ADD11C,0.508000*%
G04 APERTURE END LIST*
D10*
X183619925Y-132472419D02*
X184096115Y-132472419D01*
X184096115Y-132472419D02*
X184096115Y-131472419D01*
X183334210Y-132424800D02*
X183191353Y-132472419D01*
X183191353Y-132472419D02*
X182953258Y-132472419D01*
X182953258Y-132472419D02*
X182858020Y-132424800D01*
X182858020Y-132424800D02*
X182810401Y-132377180D01*
X182810401Y-132377180D02*
X182762782Y-132281942D01*
X182762782Y-132281942D02*
X182762782Y-132186704D01*
X182762782Y-132186704D02*
X182810401Y-132091466D01*
X182810401Y-132091466D02*
X182858020Y-132043847D01*
X182858020Y-132043847D02*
X182953258Y-131996228D01*
X182953258Y-131996228D02*
X183143734Y-131948609D01*
X183143734Y-131948609D02*
X183238972Y-131900990D01*
X183238972Y-131900990D02*
X183286591Y-131853371D01*
X183286591Y-131853371D02*
X183334210Y-131758133D01*
X183334210Y-131758133D02*
X183334210Y-131662895D01*
X183334210Y-131662895D02*
X183286591Y-131567657D01*
X183286591Y-131567657D02*
X183238972Y-131520038D01*
X183238972Y-131520038D02*
X183143734Y-131472419D01*
X183143734Y-131472419D02*
X182905639Y-131472419D01*
X182905639Y-131472419D02*
X182762782Y-131520038D01*
X182334210Y-131472419D02*
X182334210Y-132281942D01*
X182334210Y-132281942D02*
X182286591Y-132377180D01*
X182286591Y-132377180D02*
X182238972Y-132424800D01*
X182238972Y-132424800D02*
X182143734Y-132472419D01*
X182143734Y-132472419D02*
X181953258Y-132472419D01*
X181953258Y-132472419D02*
X181858020Y-132424800D01*
X181858020Y-132424800D02*
X181810401Y-132377180D01*
X181810401Y-132377180D02*
X181762782Y-132281942D01*
X181762782Y-132281942D02*
X181762782Y-131472419D01*
X180667543Y-131472419D02*
X180096115Y-131472419D01*
X180381829Y-132472419D02*
X180381829Y-131472419D01*
X179762781Y-132472419D02*
X179762781Y-131805752D01*
X179762781Y-131472419D02*
X179810400Y-131520038D01*
X179810400Y-131520038D02*
X179762781Y-131567657D01*
X179762781Y-131567657D02*
X179715162Y-131520038D01*
X179715162Y-131520038D02*
X179762781Y-131472419D01*
X179762781Y-131472419D02*
X179762781Y-131567657D01*
X178858020Y-131805752D02*
X178858020Y-132615276D01*
X178858020Y-132615276D02*
X178905639Y-132710514D01*
X178905639Y-132710514D02*
X178953258Y-132758133D01*
X178953258Y-132758133D02*
X179048496Y-132805752D01*
X179048496Y-132805752D02*
X179191353Y-132805752D01*
X179191353Y-132805752D02*
X179286591Y-132758133D01*
X178858020Y-132424800D02*
X178953258Y-132472419D01*
X178953258Y-132472419D02*
X179143734Y-132472419D01*
X179143734Y-132472419D02*
X179238972Y-132424800D01*
X179238972Y-132424800D02*
X179286591Y-132377180D01*
X179286591Y-132377180D02*
X179334210Y-132281942D01*
X179334210Y-132281942D02*
X179334210Y-131996228D01*
X179334210Y-131996228D02*
X179286591Y-131900990D01*
X179286591Y-131900990D02*
X179238972Y-131853371D01*
X179238972Y-131853371D02*
X179143734Y-131805752D01*
X179143734Y-131805752D02*
X178953258Y-131805752D01*
X178953258Y-131805752D02*
X178858020Y-131853371D01*
X178000877Y-132424800D02*
X178096115Y-132472419D01*
X178096115Y-132472419D02*
X178286591Y-132472419D01*
X178286591Y-132472419D02*
X178381829Y-132424800D01*
X178381829Y-132424800D02*
X178429448Y-132329561D01*
X178429448Y-132329561D02*
X178429448Y-131948609D01*
X178429448Y-131948609D02*
X178381829Y-131853371D01*
X178381829Y-131853371D02*
X178286591Y-131805752D01*
X178286591Y-131805752D02*
X178096115Y-131805752D01*
X178096115Y-131805752D02*
X178000877Y-131853371D01*
X178000877Y-131853371D02*
X177953258Y-131948609D01*
X177953258Y-131948609D02*
X177953258Y-132043847D01*
X177953258Y-132043847D02*
X178429448Y-132139085D01*
X177524686Y-132472419D02*
X177524686Y-131805752D01*
X177524686Y-131996228D02*
X177477067Y-131900990D01*
X177477067Y-131900990D02*
X177429448Y-131853371D01*
X177429448Y-131853371D02*
X177334210Y-131805752D01*
X177334210Y-131805752D02*
X177238972Y-131805752D01*
X176334210Y-132472419D02*
X176667543Y-131996228D01*
X176905638Y-132472419D02*
X176905638Y-131472419D01*
X176905638Y-131472419D02*
X176524686Y-131472419D01*
X176524686Y-131472419D02*
X176429448Y-131520038D01*
X176429448Y-131520038D02*
X176381829Y-131567657D01*
X176381829Y-131567657D02*
X176334210Y-131662895D01*
X176334210Y-131662895D02*
X176334210Y-131805752D01*
X176334210Y-131805752D02*
X176381829Y-131900990D01*
X176381829Y-131900990D02*
X176429448Y-131948609D01*
X176429448Y-131948609D02*
X176524686Y-131996228D01*
X176524686Y-131996228D02*
X176905638Y-131996228D01*
X175477067Y-132472419D02*
X175477067Y-131948609D01*
X175477067Y-131948609D02*
X175524686Y-131853371D01*
X175524686Y-131853371D02*
X175619924Y-131805752D01*
X175619924Y-131805752D02*
X175810400Y-131805752D01*
X175810400Y-131805752D02*
X175905638Y-131853371D01*
X175477067Y-132424800D02*
X175572305Y-132472419D01*
X175572305Y-132472419D02*
X175810400Y-132472419D01*
X175810400Y-132472419D02*
X175905638Y-132424800D01*
X175905638Y-132424800D02*
X175953257Y-132329561D01*
X175953257Y-132329561D02*
X175953257Y-132234323D01*
X175953257Y-132234323D02*
X175905638Y-132139085D01*
X175905638Y-132139085D02*
X175810400Y-132091466D01*
X175810400Y-132091466D02*
X175572305Y-132091466D01*
X175572305Y-132091466D02*
X175477067Y-132043847D01*
X174572305Y-132424800D02*
X174667543Y-132472419D01*
X174667543Y-132472419D02*
X174858019Y-132472419D01*
X174858019Y-132472419D02*
X174953257Y-132424800D01*
X174953257Y-132424800D02*
X175000876Y-132377180D01*
X175000876Y-132377180D02*
X175048495Y-132281942D01*
X175048495Y-132281942D02*
X175048495Y-131996228D01*
X175048495Y-131996228D02*
X175000876Y-131900990D01*
X175000876Y-131900990D02*
X174953257Y-131853371D01*
X174953257Y-131853371D02*
X174858019Y-131805752D01*
X174858019Y-131805752D02*
X174667543Y-131805752D01*
X174667543Y-131805752D02*
X174572305Y-131853371D01*
X174143733Y-132472419D02*
X174143733Y-131805752D01*
X174143733Y-131472419D02*
X174191352Y-131520038D01*
X174191352Y-131520038D02*
X174143733Y-131567657D01*
X174143733Y-131567657D02*
X174096114Y-131520038D01*
X174096114Y-131520038D02*
X174143733Y-131472419D01*
X174143733Y-131472419D02*
X174143733Y-131567657D01*
X173667543Y-131805752D02*
X173667543Y-132472419D01*
X173667543Y-131900990D02*
X173619924Y-131853371D01*
X173619924Y-131853371D02*
X173524686Y-131805752D01*
X173524686Y-131805752D02*
X173381829Y-131805752D01*
X173381829Y-131805752D02*
X173286591Y-131853371D01*
X173286591Y-131853371D02*
X173238972Y-131948609D01*
X173238972Y-131948609D02*
X173238972Y-132472419D01*
X172334210Y-131805752D02*
X172334210Y-132615276D01*
X172334210Y-132615276D02*
X172381829Y-132710514D01*
X172381829Y-132710514D02*
X172429448Y-132758133D01*
X172429448Y-132758133D02*
X172524686Y-132805752D01*
X172524686Y-132805752D02*
X172667543Y-132805752D01*
X172667543Y-132805752D02*
X172762781Y-132758133D01*
X172334210Y-132424800D02*
X172429448Y-132472419D01*
X172429448Y-132472419D02*
X172619924Y-132472419D01*
X172619924Y-132472419D02*
X172715162Y-132424800D01*
X172715162Y-132424800D02*
X172762781Y-132377180D01*
X172762781Y-132377180D02*
X172810400Y-132281942D01*
X172810400Y-132281942D02*
X172810400Y-131996228D01*
X172810400Y-131996228D02*
X172762781Y-131900990D01*
X172762781Y-131900990D02*
X172715162Y-131853371D01*
X172715162Y-131853371D02*
X172619924Y-131805752D01*
X172619924Y-131805752D02*
X172429448Y-131805752D01*
X172429448Y-131805752D02*
X172334210Y-131853371D01*
X171096114Y-131948609D02*
X170762781Y-131948609D01*
X170619924Y-132472419D02*
X171096114Y-132472419D01*
X171096114Y-132472419D02*
X171096114Y-131472419D01*
X171096114Y-131472419D02*
X170619924Y-131472419D01*
X170048495Y-132472419D02*
X170143733Y-132424800D01*
X170143733Y-132424800D02*
X170191352Y-132329561D01*
X170191352Y-132329561D02*
X170191352Y-131472419D01*
X169286590Y-132424800D02*
X169381828Y-132472419D01*
X169381828Y-132472419D02*
X169572304Y-132472419D01*
X169572304Y-132472419D02*
X169667542Y-132424800D01*
X169667542Y-132424800D02*
X169715161Y-132329561D01*
X169715161Y-132329561D02*
X169715161Y-131948609D01*
X169715161Y-131948609D02*
X169667542Y-131853371D01*
X169667542Y-131853371D02*
X169572304Y-131805752D01*
X169572304Y-131805752D02*
X169381828Y-131805752D01*
X169381828Y-131805752D02*
X169286590Y-131853371D01*
X169286590Y-131853371D02*
X169238971Y-131948609D01*
X169238971Y-131948609D02*
X169238971Y-132043847D01*
X169238971Y-132043847D02*
X169715161Y-132139085D01*
X168381828Y-132424800D02*
X168477066Y-132472419D01*
X168477066Y-132472419D02*
X168667542Y-132472419D01*
X168667542Y-132472419D02*
X168762780Y-132424800D01*
X168762780Y-132424800D02*
X168810399Y-132377180D01*
X168810399Y-132377180D02*
X168858018Y-132281942D01*
X168858018Y-132281942D02*
X168858018Y-131996228D01*
X168858018Y-131996228D02*
X168810399Y-131900990D01*
X168810399Y-131900990D02*
X168762780Y-131853371D01*
X168762780Y-131853371D02*
X168667542Y-131805752D01*
X168667542Y-131805752D02*
X168477066Y-131805752D01*
X168477066Y-131805752D02*
X168381828Y-131853371D01*
X168096113Y-131805752D02*
X167715161Y-131805752D01*
X167953256Y-131472419D02*
X167953256Y-132329561D01*
X167953256Y-132329561D02*
X167905637Y-132424800D01*
X167905637Y-132424800D02*
X167810399Y-132472419D01*
X167810399Y-132472419D02*
X167715161Y-132472419D01*
X167381827Y-132472419D02*
X167381827Y-131805752D01*
X167381827Y-131996228D02*
X167334208Y-131900990D01*
X167334208Y-131900990D02*
X167286589Y-131853371D01*
X167286589Y-131853371D02*
X167191351Y-131805752D01*
X167191351Y-131805752D02*
X167096113Y-131805752D01*
X166619922Y-132472419D02*
X166715160Y-132424800D01*
X166715160Y-132424800D02*
X166762779Y-132377180D01*
X166762779Y-132377180D02*
X166810398Y-132281942D01*
X166810398Y-132281942D02*
X166810398Y-131996228D01*
X166810398Y-131996228D02*
X166762779Y-131900990D01*
X166762779Y-131900990D02*
X166715160Y-131853371D01*
X166715160Y-131853371D02*
X166619922Y-131805752D01*
X166619922Y-131805752D02*
X166477065Y-131805752D01*
X166477065Y-131805752D02*
X166381827Y-131853371D01*
X166381827Y-131853371D02*
X166334208Y-131900990D01*
X166334208Y-131900990D02*
X166286589Y-131996228D01*
X166286589Y-131996228D02*
X166286589Y-132281942D01*
X166286589Y-132281942D02*
X166334208Y-132377180D01*
X166334208Y-132377180D02*
X166381827Y-132424800D01*
X166381827Y-132424800D02*
X166477065Y-132472419D01*
X166477065Y-132472419D02*
X166619922Y-132472419D01*
X165858017Y-131805752D02*
X165858017Y-132472419D01*
X165858017Y-131900990D02*
X165810398Y-131853371D01*
X165810398Y-131853371D02*
X165715160Y-131805752D01*
X165715160Y-131805752D02*
X165572303Y-131805752D01*
X165572303Y-131805752D02*
X165477065Y-131853371D01*
X165477065Y-131853371D02*
X165429446Y-131948609D01*
X165429446Y-131948609D02*
X165429446Y-132472419D01*
X164953255Y-132472419D02*
X164953255Y-131805752D01*
X164953255Y-131472419D02*
X165000874Y-131520038D01*
X165000874Y-131520038D02*
X164953255Y-131567657D01*
X164953255Y-131567657D02*
X164905636Y-131520038D01*
X164905636Y-131520038D02*
X164953255Y-131472419D01*
X164953255Y-131472419D02*
X164953255Y-131567657D01*
X164048494Y-132424800D02*
X164143732Y-132472419D01*
X164143732Y-132472419D02*
X164334208Y-132472419D01*
X164334208Y-132472419D02*
X164429446Y-132424800D01*
X164429446Y-132424800D02*
X164477065Y-132377180D01*
X164477065Y-132377180D02*
X164524684Y-132281942D01*
X164524684Y-132281942D02*
X164524684Y-131996228D01*
X164524684Y-131996228D02*
X164477065Y-131900990D01*
X164477065Y-131900990D02*
X164429446Y-131853371D01*
X164429446Y-131853371D02*
X164334208Y-131805752D01*
X164334208Y-131805752D02*
X164143732Y-131805752D01*
X164143732Y-131805752D02*
X164048494Y-131853371D01*
X163667541Y-132424800D02*
X163572303Y-132472419D01*
X163572303Y-132472419D02*
X163381827Y-132472419D01*
X163381827Y-132472419D02*
X163286589Y-132424800D01*
X163286589Y-132424800D02*
X163238970Y-132329561D01*
X163238970Y-132329561D02*
X163238970Y-132281942D01*
X163238970Y-132281942D02*
X163286589Y-132186704D01*
X163286589Y-132186704D02*
X163381827Y-132139085D01*
X163381827Y-132139085D02*
X163524684Y-132139085D01*
X163524684Y-132139085D02*
X163619922Y-132091466D01*
X163619922Y-132091466D02*
X163667541Y-131996228D01*
X163667541Y-131996228D02*
X163667541Y-131948609D01*
X163667541Y-131948609D02*
X163619922Y-131853371D01*
X163619922Y-131853371D02*
X163524684Y-131805752D01*
X163524684Y-131805752D02*
X163381827Y-131805752D01*
X163381827Y-131805752D02*
X163286589Y-131853371D01*
X162191350Y-131472419D02*
X161619922Y-131472419D01*
X161905636Y-132472419D02*
X161905636Y-131472419D01*
X160905636Y-132424800D02*
X161000874Y-132472419D01*
X161000874Y-132472419D02*
X161191350Y-132472419D01*
X161191350Y-132472419D02*
X161286588Y-132424800D01*
X161286588Y-132424800D02*
X161334207Y-132329561D01*
X161334207Y-132329561D02*
X161334207Y-131948609D01*
X161334207Y-131948609D02*
X161286588Y-131853371D01*
X161286588Y-131853371D02*
X161191350Y-131805752D01*
X161191350Y-131805752D02*
X161000874Y-131805752D01*
X161000874Y-131805752D02*
X160905636Y-131853371D01*
X160905636Y-131853371D02*
X160858017Y-131948609D01*
X160858017Y-131948609D02*
X160858017Y-132043847D01*
X160858017Y-132043847D02*
X161334207Y-132139085D01*
X160000874Y-132472419D02*
X160000874Y-131948609D01*
X160000874Y-131948609D02*
X160048493Y-131853371D01*
X160048493Y-131853371D02*
X160143731Y-131805752D01*
X160143731Y-131805752D02*
X160334207Y-131805752D01*
X160334207Y-131805752D02*
X160429445Y-131853371D01*
X160000874Y-132424800D02*
X160096112Y-132472419D01*
X160096112Y-132472419D02*
X160334207Y-132472419D01*
X160334207Y-132472419D02*
X160429445Y-132424800D01*
X160429445Y-132424800D02*
X160477064Y-132329561D01*
X160477064Y-132329561D02*
X160477064Y-132234323D01*
X160477064Y-132234323D02*
X160429445Y-132139085D01*
X160429445Y-132139085D02*
X160334207Y-132091466D01*
X160334207Y-132091466D02*
X160096112Y-132091466D01*
X160096112Y-132091466D02*
X160000874Y-132043847D01*
X159524683Y-132472419D02*
X159524683Y-131805752D01*
X159524683Y-131900990D02*
X159477064Y-131853371D01*
X159477064Y-131853371D02*
X159381826Y-131805752D01*
X159381826Y-131805752D02*
X159238969Y-131805752D01*
X159238969Y-131805752D02*
X159143731Y-131853371D01*
X159143731Y-131853371D02*
X159096112Y-131948609D01*
X159096112Y-131948609D02*
X159096112Y-132472419D01*
X159096112Y-131948609D02*
X159048493Y-131853371D01*
X159048493Y-131853371D02*
X158953255Y-131805752D01*
X158953255Y-131805752D02*
X158810398Y-131805752D01*
X158810398Y-131805752D02*
X158715159Y-131853371D01*
X158715159Y-131853371D02*
X158667540Y-131948609D01*
X158667540Y-131948609D02*
X158667540Y-132472419D01*
D11*
%TO.C,J4*%
X112591606Y-127371900D02*
G75*
G02*
X111829606Y-127371900I-381000J0D01*
G01*
X111829606Y-127371900D02*
G75*
G02*
X112591606Y-127371900I381000J0D01*
G01*
%TO.C,J5*%
X175822895Y-106299600D02*
G75*
G02*
X175060895Y-106299600I-381000J0D01*
G01*
X175060895Y-106299600D02*
G75*
G02*
X175822895Y-106299600I381000J0D01*
G01*
%TO.C,J1*%
X112591606Y-111370000D02*
G75*
G02*
X111829606Y-111370000I-381000J0D01*
G01*
X111829606Y-111370000D02*
G75*
G02*
X112591606Y-111370000I381000J0D01*
G01*
%TO.C,J3*%
X112591606Y-89625400D02*
G75*
G02*
X111829606Y-89625400I-381000J0D01*
G01*
X111829606Y-89625400D02*
G75*
G02*
X112591606Y-89625400I381000J0D01*
G01*
%TO.C,J2*%
X112591606Y-100370000D02*
G75*
G02*
X111829606Y-100370000I-381000J0D01*
G01*
X111829606Y-100370000D02*
G75*
G02*
X112591606Y-100370000I381000J0D01*
G01*
%TD*%
M02*
