%TF.GenerationSoftware,KiCad,Pcbnew,9.0.4*%
%TF.CreationDate,2025-11-04T22:38:34-06:00*%
%TF.ProjectId,BPSD-2025,42505344-2d32-4303-9235-2e6b69636164,rev?*%
%TF.SameCoordinates,Original*%
%TF.FileFunction,Soldermask,Top*%
%TF.FilePolarity,Negative*%
%FSLAX46Y46*%
G04 Gerber Fmt 4.6, Leading zero omitted, Abs format (unit mm)*
G04 Created by KiCad (PCBNEW 9.0.4) date 2025-11-04 22:38:34*
%MOMM*%
%LPD*%
G01*
G04 APERTURE LIST*
G04 Aperture macros list*
%AMRoundRect*
0 Rectangle with rounded corners*
0 $1 Rounding radius*
0 $2 $3 $4 $5 $6 $7 $8 $9 X,Y pos of 4 corners*
0 Add a 4 corners polygon primitive as box body*
4,1,4,$2,$3,$4,$5,$6,$7,$8,$9,$2,$3,0*
0 Add four circle primitives for the rounded corners*
1,1,$1+$1,$2,$3*
1,1,$1+$1,$4,$5*
1,1,$1+$1,$6,$7*
1,1,$1+$1,$8,$9*
0 Add four rect primitives between the rounded corners*
20,1,$1+$1,$2,$3,$4,$5,0*
20,1,$1+$1,$4,$5,$6,$7,0*
20,1,$1+$1,$6,$7,$8,$9,0*
20,1,$1+$1,$8,$9,$2,$3,0*%
G04 Aperture macros list end*
%ADD10RoundRect,0.250000X0.650000X-0.325000X0.650000X0.325000X-0.650000X0.325000X-0.650000X-0.325000X0*%
%ADD11RoundRect,0.250000X-0.650000X0.325000X-0.650000X-0.325000X0.650000X-0.325000X0.650000X0.325000X0*%
%ADD12RoundRect,0.250000X0.312500X1.075000X-0.312500X1.075000X-0.312500X-1.075000X0.312500X-1.075000X0*%
%ADD13RoundRect,0.250000X0.850000X0.350000X-0.850000X0.350000X-0.850000X-0.350000X0.850000X-0.350000X0*%
%ADD14RoundRect,0.249997X2.950003X2.650003X-2.950003X2.650003X-2.950003X-2.650003X2.950003X-2.650003X0*%
%ADD15C,1.752600*%
%ADD16C,1.500000*%
%ADD17RoundRect,0.250000X-0.312500X-1.075000X0.312500X-1.075000X0.312500X1.075000X-0.312500X1.075000X0*%
%ADD18RoundRect,0.150000X0.150000X-0.512500X0.150000X0.512500X-0.150000X0.512500X-0.150000X-0.512500X0*%
%ADD19C,5.200000*%
%ADD20RoundRect,0.250000X1.075000X-0.312500X1.075000X0.312500X-1.075000X0.312500X-1.075000X-0.312500X0*%
%ADD21RoundRect,0.250000X0.325000X0.650000X-0.325000X0.650000X-0.325000X-0.650000X0.325000X-0.650000X0*%
%ADD22RoundRect,0.150000X0.825000X0.150000X-0.825000X0.150000X-0.825000X-0.150000X0.825000X-0.150000X0*%
%ADD23RoundRect,0.250000X-0.325000X-0.650000X0.325000X-0.650000X0.325000X0.650000X-0.325000X0.650000X0*%
%ADD24RoundRect,0.250000X-0.312500X-0.625000X0.312500X-0.625000X0.312500X0.625000X-0.312500X0.625000X0*%
%ADD25RoundRect,0.150000X-0.150000X0.512500X-0.150000X-0.512500X0.150000X-0.512500X0.150000X0.512500X0*%
%ADD26RoundRect,0.150000X-0.150000X0.587500X-0.150000X-0.587500X0.150000X-0.587500X0.150000X0.587500X0*%
%ADD27C,1.440000*%
%ADD28RoundRect,0.250000X-1.075000X0.312500X-1.075000X-0.312500X1.075000X-0.312500X1.075000X0.312500X0*%
G04 APERTURE END LIST*
D10*
%TO.C,C20*%
X157592900Y-102291600D03*
X157592900Y-99341600D03*
%TD*%
D11*
%TO.C,C24*%
X128320800Y-86942400D03*
X128320800Y-89892400D03*
%TD*%
D10*
%TO.C,C18*%
X136423400Y-102313000D03*
X136423400Y-99363000D03*
%TD*%
D11*
%TO.C,C25*%
X118160800Y-87018600D03*
X118160800Y-89968600D03*
%TD*%
D12*
%TO.C,R17*%
X153058300Y-105333800D03*
X150133300Y-105333800D03*
%TD*%
D13*
%TO.C,U3*%
X110399200Y-85163900D03*
X110399200Y-82883900D03*
D14*
X104099200Y-82883900D03*
D13*
X110399200Y-80603900D03*
%TD*%
D15*
%TO.C,J4*%
X122258800Y-110964695D03*
X119758800Y-110964695D03*
X117258800Y-110964695D03*
X114758800Y-110964695D03*
X112258800Y-110964695D03*
%TD*%
D12*
%TO.C,R11*%
X114725300Y-96266000D03*
X111800300Y-96266000D03*
%TD*%
D16*
%TO.C,TP8*%
X105765600Y-100787200D03*
%TD*%
D17*
%TO.C,R1*%
X131682500Y-73126600D03*
X134607500Y-73126600D03*
%TD*%
D18*
%TO.C,U12*%
X160275100Y-102204100D03*
X161225100Y-102204100D03*
X162175100Y-102204100D03*
X162175100Y-99929100D03*
X160275100Y-99929100D03*
%TD*%
D10*
%TO.C,C15*%
X109347000Y-102313000D03*
X109347000Y-99363000D03*
%TD*%
%TO.C,C19*%
X145237200Y-102313000D03*
X145237200Y-99363000D03*
%TD*%
D18*
%TO.C,U9*%
X139232600Y-102204100D03*
X140182600Y-102204100D03*
X141132600Y-102204100D03*
X141132600Y-99929100D03*
X139232600Y-99929100D03*
%TD*%
D19*
%TO.C,REF\u002A\u002A*%
X167500000Y-119507400D03*
%TD*%
D18*
%TO.C,U6*%
X130164800Y-102204100D03*
X131114800Y-102204100D03*
X132064800Y-102204100D03*
X132064800Y-99929100D03*
X130164800Y-99929100D03*
%TD*%
D19*
%TO.C,REF\u002A\u002A*%
X103750000Y-73000000D03*
%TD*%
D11*
%TO.C,C14*%
X128930400Y-110869200D03*
X128930400Y-113819200D03*
%TD*%
D20*
%TO.C,R18*%
X138455400Y-80634300D03*
X138455400Y-77709300D03*
%TD*%
D12*
%TO.C,R12*%
X123285100Y-96266000D03*
X120360100Y-96266000D03*
%TD*%
D21*
%TO.C,C26*%
X111990400Y-107035600D03*
X109040400Y-107035600D03*
%TD*%
D18*
%TO.C,U7*%
X150583600Y-88919900D03*
X151533600Y-88919900D03*
X152483600Y-88919900D03*
X152483600Y-86644900D03*
X150583600Y-86644900D03*
%TD*%
D11*
%TO.C,C11*%
X146634200Y-77646000D03*
X146634200Y-80596000D03*
%TD*%
D16*
%TO.C,TP9*%
X101828600Y-100634800D03*
%TD*%
D11*
%TO.C,C13*%
X145071800Y-111503800D03*
X145071800Y-114453800D03*
%TD*%
D18*
%TO.C,U5*%
X121452600Y-102204100D03*
X122402600Y-102204100D03*
X123352600Y-102204100D03*
X123352600Y-99929100D03*
X121452600Y-99929100D03*
%TD*%
D11*
%TO.C,C2*%
X113842800Y-82700600D03*
X113842800Y-85650600D03*
%TD*%
D12*
%TO.C,R21*%
X149523300Y-96266000D03*
X146598300Y-96266000D03*
%TD*%
D15*
%TO.C,J5*%
X157574095Y-91485400D03*
X157574095Y-93985400D03*
%TD*%
D22*
%TO.C,U1*%
X128381000Y-78028800D03*
X128381000Y-76758800D03*
X128381000Y-75488800D03*
X128381000Y-74218800D03*
X123431000Y-74218800D03*
X123431000Y-75488800D03*
X123431000Y-76758800D03*
X123431000Y-78028800D03*
%TD*%
D12*
%TO.C,R4*%
X120309100Y-77012800D03*
X117384100Y-77012800D03*
%TD*%
%TO.C,R23*%
X163870100Y-112039400D03*
X160945100Y-112039400D03*
%TD*%
D18*
%TO.C,U18*%
X131917400Y-89427900D03*
X132867400Y-89427900D03*
X133817400Y-89427900D03*
X133817400Y-87152900D03*
X131917400Y-87152900D03*
%TD*%
D15*
%TO.C,J1*%
X138783400Y-111040895D03*
X136283400Y-111040895D03*
X133783400Y-111040895D03*
%TD*%
D23*
%TO.C,C1*%
X131770000Y-80896600D03*
X134720000Y-80896600D03*
%TD*%
D24*
%TO.C,R3*%
X123529100Y-80949800D03*
X126454100Y-80949800D03*
%TD*%
D18*
%TO.C,U10*%
X147690800Y-102204100D03*
X148640800Y-102204100D03*
X149590800Y-102204100D03*
X149590800Y-99929100D03*
X147690800Y-99929100D03*
%TD*%
D10*
%TO.C,C16*%
X118670767Y-102313000D03*
X118670767Y-99363000D03*
%TD*%
D19*
%TO.C,REF\u002A\u002A*%
X103750000Y-119507400D03*
%TD*%
D12*
%TO.C,R15*%
X141065100Y-96266000D03*
X138140100Y-96266000D03*
%TD*%
D11*
%TO.C,C23*%
X138517500Y-86485200D03*
X138517500Y-89435200D03*
%TD*%
D12*
%TO.C,R16*%
X166460900Y-105359200D03*
X163535900Y-105359200D03*
%TD*%
D20*
%TO.C,R20*%
X142773400Y-80761300D03*
X142773400Y-77836300D03*
%TD*%
D21*
%TO.C,C10*%
X146788400Y-73837800D03*
X143838400Y-73837800D03*
%TD*%
%TO.C,C5*%
X128701800Y-71628000D03*
X125751800Y-71628000D03*
%TD*%
D25*
%TO.C,U17*%
X151662300Y-79101100D03*
X150712300Y-79101100D03*
X149762300Y-79101100D03*
X149762300Y-81376100D03*
X151662300Y-81376100D03*
%TD*%
D26*
%TO.C,Q1*%
X157199500Y-85473300D03*
X155299500Y-85473300D03*
X156249500Y-87348300D03*
%TD*%
D18*
%TO.C,U8*%
X142063300Y-89097700D03*
X143013300Y-89097700D03*
X143963300Y-89097700D03*
X143963300Y-86822700D03*
X142063300Y-86822700D03*
%TD*%
%TO.C,U11*%
X121463900Y-89707300D03*
X122413900Y-89707300D03*
X123363900Y-89707300D03*
X123363900Y-87432300D03*
X121463900Y-87432300D03*
%TD*%
D10*
%TO.C,C17*%
X126949200Y-102313000D03*
X126949200Y-99363000D03*
%TD*%
D15*
%TO.C,J3*%
X158107495Y-79547400D03*
X158107495Y-82047400D03*
%TD*%
D27*
%TO.C,RV6*%
X103301800Y-111277400D03*
X103301800Y-108737400D03*
X103301800Y-106197400D03*
%TD*%
D23*
%TO.C,C4*%
X117395200Y-73304400D03*
X120345200Y-73304400D03*
%TD*%
D28*
%TO.C,R22*%
X160934400Y-116825300D03*
X160934400Y-119750300D03*
%TD*%
D18*
%TO.C,U4*%
X112892800Y-102204100D03*
X113842800Y-102204100D03*
X114792800Y-102204100D03*
X114792800Y-99929100D03*
X112892800Y-99929100D03*
%TD*%
D19*
%TO.C,REF\u002A\u002A*%
X167500000Y-73000000D03*
%TD*%
D27*
%TO.C,RV7*%
X103281400Y-95707200D03*
X103281400Y-93167200D03*
X103281400Y-90627200D03*
%TD*%
D17*
%TO.C,R2*%
X131852500Y-77246600D03*
X134777500Y-77246600D03*
%TD*%
D28*
%TO.C,R24*%
X165136700Y-99374100D03*
X165136700Y-102299100D03*
%TD*%
D15*
%TO.C,J2*%
X154765567Y-111269095D03*
X152265567Y-111269095D03*
X149765567Y-111269095D03*
%TD*%
D11*
%TO.C,C21*%
X154736800Y-78890600D03*
X154736800Y-81840600D03*
%TD*%
D12*
%TO.C,R14*%
X144600100Y-105333800D03*
X141675100Y-105333800D03*
%TD*%
%TO.C,R13*%
X131997300Y-96266000D03*
X129072300Y-96266000D03*
%TD*%
D11*
%TO.C,C22*%
X147585300Y-86409000D03*
X147585300Y-89359000D03*
%TD*%
D16*
%TO.C,TP10*%
X110591600Y-88011000D03*
%TD*%
M02*
