%TF.GenerationSoftware,KiCad,Pcbnew,9.0.4*%
%TF.CreationDate,2025-11-03T23:40:34-06:00*%
%TF.ProjectId,BPSD-2025,42505344-2d32-4303-9235-2e6b69636164,rev?*%
%TF.SameCoordinates,Original*%
%TF.FileFunction,Paste,Top*%
%TF.FilePolarity,Positive*%
%FSLAX46Y46*%
G04 Gerber Fmt 4.6, Leading zero omitted, Abs format (unit mm)*
G04 Created by KiCad (PCBNEW 9.0.4) date 2025-11-03 23:40:34*
%MOMM*%
%LPD*%
G01*
G04 APERTURE LIST*
G04 Aperture macros list*
%AMRoundRect*
0 Rectangle with rounded corners*
0 $1 Rounding radius*
0 $2 $3 $4 $5 $6 $7 $8 $9 X,Y pos of 4 corners*
0 Add a 4 corners polygon primitive as box body*
4,1,4,$2,$3,$4,$5,$6,$7,$8,$9,$2,$3,0*
0 Add four circle primitives for the rounded corners*
1,1,$1+$1,$2,$3*
1,1,$1+$1,$4,$5*
1,1,$1+$1,$6,$7*
1,1,$1+$1,$8,$9*
0 Add four rect primitives between the rounded corners*
20,1,$1+$1,$2,$3,$4,$5,0*
20,1,$1+$1,$4,$5,$6,$7,0*
20,1,$1+$1,$6,$7,$8,$9,0*
20,1,$1+$1,$8,$9,$2,$3,0*%
G04 Aperture macros list end*
%ADD10RoundRect,0.250000X0.650000X-0.325000X0.650000X0.325000X-0.650000X0.325000X-0.650000X-0.325000X0*%
%ADD11RoundRect,0.250000X-0.650000X0.325000X-0.650000X-0.325000X0.650000X-0.325000X0.650000X0.325000X0*%
%ADD12RoundRect,0.250000X-0.325000X-0.650000X0.325000X-0.650000X0.325000X0.650000X-0.325000X0.650000X0*%
%ADD13RoundRect,0.250000X-1.075000X0.312500X-1.075000X-0.312500X1.075000X-0.312500X1.075000X0.312500X0*%
%ADD14RoundRect,0.250000X1.275000X1.125000X-1.275000X1.125000X-1.275000X-1.125000X1.275000X-1.125000X0*%
%ADD15RoundRect,0.250000X0.850000X0.350000X-0.850000X0.350000X-0.850000X-0.350000X0.850000X-0.350000X0*%
%ADD16RoundRect,0.250000X-0.312500X-1.075000X0.312500X-1.075000X0.312500X1.075000X-0.312500X1.075000X0*%
%ADD17RoundRect,0.150000X0.150000X-0.512500X0.150000X0.512500X-0.150000X0.512500X-0.150000X-0.512500X0*%
%ADD18RoundRect,0.250000X0.325000X0.650000X-0.325000X0.650000X-0.325000X-0.650000X0.325000X-0.650000X0*%
%ADD19RoundRect,0.150000X-0.512500X-0.150000X0.512500X-0.150000X0.512500X0.150000X-0.512500X0.150000X0*%
%ADD20RoundRect,0.250000X0.312500X1.075000X-0.312500X1.075000X-0.312500X-1.075000X0.312500X-1.075000X0*%
%ADD21RoundRect,0.150000X0.825000X0.150000X-0.825000X0.150000X-0.825000X-0.150000X0.825000X-0.150000X0*%
%ADD22RoundRect,0.250000X1.075000X-0.312500X1.075000X0.312500X-1.075000X0.312500X-1.075000X-0.312500X0*%
%ADD23RoundRect,0.250000X0.312500X0.625000X-0.312500X0.625000X-0.312500X-0.625000X0.312500X-0.625000X0*%
%ADD24RoundRect,0.150000X-0.587500X-0.150000X0.587500X-0.150000X0.587500X0.150000X-0.587500X0.150000X0*%
G04 APERTURE END LIST*
D10*
%TO.C,C20*%
X125108000Y-105107400D03*
X125108000Y-102157400D03*
%TD*%
D11*
%TO.C,C24*%
X145072400Y-90117800D03*
X145072400Y-93067800D03*
%TD*%
D12*
%TO.C,C18*%
X104918767Y-95429767D03*
X107868767Y-95429767D03*
%TD*%
D11*
%TO.C,C25*%
X117183200Y-89787600D03*
X117183200Y-92737600D03*
%TD*%
D13*
%TO.C,R17*%
X147160767Y-101993667D03*
X147160767Y-104918667D03*
%TD*%
D14*
%TO.C,U3*%
X114995000Y-76332500D03*
X114995000Y-73282500D03*
X111645000Y-76332500D03*
X111645000Y-73282500D03*
D15*
X119620000Y-77087500D03*
X119620000Y-74807500D03*
X119620000Y-72527500D03*
%TD*%
D16*
%TO.C,R11*%
X110234300Y-89636600D03*
X113159300Y-89636600D03*
%TD*%
%TO.C,R1*%
X148307500Y-71510000D03*
X151232500Y-71510000D03*
%TD*%
D17*
%TO.C,U12*%
X128552200Y-104820700D03*
X129502200Y-104820700D03*
X130452200Y-104820700D03*
X130452200Y-102545700D03*
X128552200Y-102545700D03*
%TD*%
D18*
%TO.C,C15*%
X113412800Y-84150200D03*
X110462800Y-84150200D03*
%TD*%
D10*
%TO.C,C19*%
X138519200Y-105056600D03*
X138519200Y-102106600D03*
%TD*%
D19*
%TO.C,U9*%
X105103867Y-98543767D03*
X105103867Y-99493767D03*
X105103867Y-100443767D03*
X107378867Y-100443767D03*
X107378867Y-98543767D03*
%TD*%
D17*
%TO.C,U6*%
X118962300Y-104998500D03*
X119912300Y-104998500D03*
X120862300Y-104998500D03*
X120862300Y-102723500D03*
X118962300Y-102723500D03*
%TD*%
D18*
%TO.C,C14*%
X151023367Y-110771367D03*
X148073367Y-110771367D03*
%TD*%
D16*
%TO.C,R18*%
X119974900Y-85064600D03*
X122899900Y-85064600D03*
%TD*%
%TO.C,R12*%
X154437500Y-98600000D03*
X157362500Y-98600000D03*
%TD*%
D11*
%TO.C,C26*%
X109233000Y-111276000D03*
X109233000Y-114226000D03*
%TD*%
D17*
%TO.C,U7*%
X140236200Y-92603300D03*
X141186200Y-92603300D03*
X142136200Y-92603300D03*
X142136200Y-90328300D03*
X140236200Y-90328300D03*
%TD*%
D18*
%TO.C,C11*%
X122836200Y-81051400D03*
X119886200Y-81051400D03*
%TD*%
D11*
%TO.C,C13*%
X129781600Y-111250600D03*
X129781600Y-114200600D03*
%TD*%
D17*
%TO.C,U5*%
X155589100Y-104820700D03*
X156539100Y-104820700D03*
X157489100Y-104820700D03*
X157489100Y-102545700D03*
X155589100Y-102545700D03*
%TD*%
D11*
%TO.C,C2*%
X123112500Y-74852000D03*
X123112500Y-77802000D03*
%TD*%
D20*
%TO.C,R21*%
X143969500Y-98527000D03*
X141044500Y-98527000D03*
%TD*%
D21*
%TO.C,U1*%
X145575000Y-77855000D03*
X145575000Y-76585000D03*
X145575000Y-75315000D03*
X145575000Y-74045000D03*
X140625000Y-74045000D03*
X140625000Y-75315000D03*
X140625000Y-76585000D03*
X140625000Y-77855000D03*
%TD*%
D20*
%TO.C,R4*%
X137622500Y-74700000D03*
X134697500Y-74700000D03*
%TD*%
D22*
%TO.C,R23*%
X162725400Y-105196500D03*
X162725400Y-102271500D03*
%TD*%
D17*
%TO.C,U18*%
X148669000Y-92603300D03*
X149619000Y-92603300D03*
X150569000Y-92603300D03*
X150569000Y-90328300D03*
X148669000Y-90328300D03*
%TD*%
D12*
%TO.C,C1*%
X148395000Y-79280000D03*
X151345000Y-79280000D03*
%TD*%
D23*
%TO.C,R3*%
X137842500Y-78640000D03*
X134917500Y-78640000D03*
%TD*%
D17*
%TO.C,U10*%
X141644500Y-104693700D03*
X142594500Y-104693700D03*
X143544500Y-104693700D03*
X143544500Y-102418700D03*
X141644500Y-102418700D03*
%TD*%
D10*
%TO.C,C16*%
X153263600Y-105030800D03*
X153263600Y-102080800D03*
%TD*%
D22*
%TO.C,R15*%
X110965767Y-100245067D03*
X110965767Y-97320067D03*
%TD*%
D11*
%TO.C,C23*%
X126700000Y-89850000D03*
X126700000Y-92800000D03*
%TD*%
D13*
%TO.C,R16*%
X133794800Y-102068300D03*
X133794800Y-104993300D03*
%TD*%
D16*
%TO.C,R20*%
X129652300Y-84886800D03*
X132577300Y-84886800D03*
%TD*%
D18*
%TO.C,C10*%
X132615200Y-81280000D03*
X129665200Y-81280000D03*
%TD*%
%TO.C,C5*%
X144465000Y-71370000D03*
X141515000Y-71370000D03*
%TD*%
D19*
%TO.C,U17*%
X142169300Y-84013000D03*
X142169300Y-84963000D03*
X142169300Y-85913000D03*
X144444300Y-85913000D03*
X144444300Y-84013000D03*
%TD*%
D24*
%TO.C,Q1*%
X148439900Y-82616000D03*
X148439900Y-84516000D03*
X150314900Y-83566000D03*
%TD*%
D17*
%TO.C,U8*%
X129837500Y-92412500D03*
X130787500Y-92412500D03*
X131737500Y-92412500D03*
X131737500Y-90137500D03*
X129837500Y-90137500D03*
%TD*%
%TO.C,U11*%
X120486300Y-92476300D03*
X121436300Y-92476300D03*
X122386300Y-92476300D03*
X122386300Y-90201300D03*
X120486300Y-90201300D03*
%TD*%
D10*
%TO.C,C17*%
X115537767Y-105312167D03*
X115537767Y-102362167D03*
%TD*%
D12*
%TO.C,C4*%
X127938000Y-73304400D03*
X130888000Y-73304400D03*
%TD*%
D20*
%TO.C,R22*%
X162937500Y-98650000D03*
X160012500Y-98650000D03*
%TD*%
D19*
%TO.C,U4*%
X104920500Y-85726500D03*
X104920500Y-86676500D03*
X104920500Y-87626500D03*
X107195500Y-87626500D03*
X107195500Y-85726500D03*
%TD*%
D16*
%TO.C,R2*%
X148477500Y-75630000D03*
X151402500Y-75630000D03*
%TD*%
D20*
%TO.C,R24*%
X130736100Y-98882600D03*
X127811100Y-98882600D03*
%TD*%
D12*
%TO.C,C21*%
X141806400Y-81407000D03*
X144756400Y-81407000D03*
%TD*%
D20*
%TO.C,R14*%
X107825300Y-90486500D03*
X104900300Y-90486500D03*
%TD*%
%TO.C,R13*%
X120906300Y-98984200D03*
X117981300Y-98984200D03*
%TD*%
D11*
%TO.C,C22*%
X137795000Y-89787200D03*
X137795000Y-92737200D03*
%TD*%
M02*
