M48
; DRILL file {KiCad 9.0.4} date 2025-11-03T23:40:36-0600
; FORMAT={-:-/ absolute / metric / decimal}
; #@! TF.CreationDate,2025-11-03T23:40:36-06:00
; #@! TF.GenerationSoftware,Kicad,Pcbnew,9.0.4
; #@! TF.FileFunction,Plated,1,2,PTH
FMAT,2
METRIC
; #@! TA.AperFunction,Plated,PTH,ViaDrill
T1C0.300
; #@! TA.AperFunction,Plated,PTH,ComponentDrill
T2C0.800
; #@! TA.AperFunction,Plated,PTH,ComponentDrill
T3C1.245
%
G90
G05
T1
X100.152Y-84.963
X100.152Y-87.466
X100.152Y-99.983
X100.152Y-102.486
X100.152Y-104.989
X100.152Y-107.493
X100.228Y-89.97
X100.228Y-92.473
X100.228Y-94.976
X100.228Y-97.48
X100.254Y-82.88
X100.33Y-112.979
X100.406Y-109.982
X100.889Y-79.985
X101.575Y-114.681
X101.6Y-111.608
X101.905Y-81.991
X102.972Y-113.055
X103.035Y-107.62
X103.073Y-86.487
X103.073Y-104.191
X103.099Y-110.617
X103.124Y-90.526
X103.149Y-83.591
X103.226Y-94.793
X103.226Y-96.19
X103.226Y-99.492
X103.556Y-80.162
X103.573Y-91.813
X103.625Y-100.875
X103.95Y-93.345
X104.318Y-114.706
X104.775Y-101.752
X105.181Y-81.915
X105.994Y-80.112
X106.25Y-97.25
X106.68Y-114.275
X107.29Y-112.116
X107.899Y-78.308
X107.925Y-107.366
X108.0Y-104.0
X108.522Y-92.888
X108.636Y-83.718
X108.687Y-81.585
X108.864Y-72.72
X108.864Y-75.362
X109.042Y-70.637
X109.322Y-86.893
X109.423Y-103.911
X109.753Y-93.751
X110.058Y-120.396
X110.084Y-118.415
X110.16Y-122.301
X110.211Y-116.357
X110.287Y-80.086
X110.909Y-107.315
X111.0Y-94.8
X111.214Y-101.88
X111.468Y-110.75
X111.722Y-120.422
X112.039Y-95.733
X112.497Y-93.35
X112.547Y-107.213
X112.573Y-80.061
X113.195Y-94.768
X113.297Y-113.767
X113.741Y-92.177
X113.75Y-100.2
X114.021Y-79.197
X114.097Y-115.443
X114.3Y-81.966
X114.313Y-121.031
X114.63Y-122.809
X114.706Y-87.732
X115.011Y-70.663
X115.011Y-89.383
X115.316Y-84.303
X115.341Y-99.974
X115.443Y-80.213
X115.75Y-95.75
X116.053Y-120.828
X116.307Y-115.646
X116.561Y-82.017
X116.688Y-85.319
X116.764Y-79.121
X117.094Y-118.415
X117.412Y-104.217
X117.653Y-94.92
X117.958Y-120.802
X118.085Y-81.051
X118.339Y-82.753
X118.466Y-113.233
X118.593Y-79.045
X118.643Y-70.612
X119.101Y-115.672
X119.101Y-122.377
X119.228Y-88.697
X119.444Y-101.067
X119.575Y-94.15
X119.71Y-118.364
X120.117Y-120.802
X120.955Y-122.352
X121.183Y-113.284
X121.222Y-109.093
X121.26Y-79.045
X121.387Y-82.855
X121.448Y-94.609
X121.59Y-70.663
X122.149Y-120.752
X122.225Y-115.748
X122.352Y-118.389
X122.847Y-101.626
X123.101Y-105.791
X123.749Y-113.309
X123.774Y-93.269
X124.155Y-122.784
X124.282Y-89.332
X124.308Y-82.906
X124.333Y-120.853
X124.485Y-70.637
X124.739Y-85.065
X124.75Y-100.225
X125.07Y-115.722
X125.197Y-74.473
X125.222Y-78.105
X125.73Y-86.792
X125.755Y-98.704
X126.111Y-113.208
X126.263Y-81.509
X126.263Y-83.363
X126.556Y-94.666
X126.568Y-75.006
X127.0Y-80.086
X127.064Y-103.632
X127.102Y-70.663
X127.178Y-106.147
X127.254Y-110.769
X127.533Y-115.291
X127.711Y-86.284
X127.737Y-81.407
X127.889Y-83.439
X128.041Y-122.352
X128.143Y-119.456
X128.791Y-106.807
X128.803Y-115.799
X129.125Y-94.35
X129.591Y-118.288
X129.718Y-107.747
X129.819Y-120.828
X129.896Y-70.053
X130.785Y-94.793
X131.191Y-79.197
X131.242Y-115.748
X131.293Y-77.089
X131.293Y-122.428
X131.496Y-119.456
X131.674Y-110.058
X132.525Y-113.975
X132.537Y-69.977
X132.791Y-75.413
X132.817Y-72.212
X132.893Y-73.558
X133.025Y-89.225
X133.096Y-98.882
X133.248Y-91.186
X133.299Y-122.86
X133.629Y-107.823
X134.061Y-115.062
X134.163Y-120.853
X134.493Y-86.284
X135.255Y-70.028
X135.484Y-115.799
X135.814Y-80.747
X136.169Y-76.937
X136.259Y-103.963
X136.259Y-105.385
X136.309Y-102.0
X136.449Y-72.187
X136.804Y-86.335
X136.931Y-109.652
X136.982Y-122.631
X137.008Y-118.542
X137.033Y-120.955
X137.084Y-82.118
X137.25Y-99.0
X137.427Y-94.666
X137.465Y-69.977
X137.897Y-115.824
X138.481Y-113.563
X139.37Y-79.096
X139.522Y-84.531
X139.573Y-93.9
X139.751Y-86.182
X139.776Y-71.501
X139.852Y-108.229
X140.056Y-121.031
X140.106Y-81.229
X140.132Y-95.225
X140.272Y-103.607
X140.411Y-115.773
X140.64Y-122.885
X141.097Y-117.297
X141.427Y-88.875
X141.643Y-107.011
X141.859Y-109.296
X142.164Y-116.002
X142.367Y-121.463
X142.392Y-113.36
X142.5Y-101.0
X143.301Y-88.824
X143.358Y-107.975
X143.408Y-91.491
X143.434Y-122.86
X143.51Y-110.617
X143.535Y-96.241
X143.586Y-112.141
X143.879Y-120.32
X144.704Y-121.691
X144.729Y-109.296
X144.996Y-103.201
X145.669Y-113.284
X145.758Y-98.527
X145.821Y-122.885
X145.974Y-120.371
X146.126Y-85.928
X146.126Y-94.31
X146.228Y-107.798
X146.406Y-70.129
X146.431Y-71.907
X146.507Y-82.753
X146.634Y-80.772
X147.168Y-112.598
X147.218Y-97.714
X147.269Y-108.687
X147.295Y-93.574
X147.726Y-120.015
X147.828Y-122.53
X148.438Y-85.928
X148.488Y-81.534
X148.7Y-94.031
X148.996Y-108.687
X149.047Y-98.222
X149.276Y-112.649
X149.428Y-103.276
X149.619Y-101.169
X149.657Y-105.08
X150.356Y-108.114
X150.368Y-85.928
X150.393Y-87.376
X151.105Y-105.156
X151.282Y-122.758
X151.308Y-119.812
X151.409Y-84.938
X151.486Y-101.27
X151.587Y-96.215
X152.07Y-86.919
X152.07Y-107.544
X152.502Y-99.543
X152.667Y-89.027
X153.035Y-70.409
X153.06Y-73.025
X153.124Y-120.93
X153.137Y-119.304
X153.187Y-76.124
X153.187Y-97.257
X153.213Y-117.577
X153.391Y-93.624
X153.48Y-110.49
X153.594Y-91.745
X153.746Y-81.102
X153.949Y-84.938
X153.975Y-83.185
X154.051Y-107.417
X154.28Y-78.181
X154.375Y-100.8
X154.838Y-122.809
X154.889Y-76.606
X154.965Y-109.753
X155.169Y-71.984
X155.804Y-115.875
X155.854Y-121.082
X155.88Y-114.021
X156.134Y-75.311
X156.515Y-87.046
X157.15Y-116.942
X157.226Y-109.728
X157.251Y-79.07
X157.455Y-77.038
X157.48Y-71.069
X158.052Y-90.094
X158.135Y-108.604
X158.217Y-81.483
X158.471Y-115.875
X158.521Y-121.082
X158.521Y-122.682
X158.547Y-114.021
X158.572Y-118.669
X158.712Y-95.835
X158.826Y-85.065
X158.979Y-107.442
X159.156Y-72.847
X159.156Y-103.149
X159.375Y-101.525
X159.614Y-109.753
X159.627Y-106.249
X160.0Y-94.25
X160.045Y-70.485
X160.122Y-116.891
X160.477Y-87.833
X160.782Y-84.506
X161.087Y-81.305
X161.239Y-74.549
X161.239Y-77.038
X161.275Y-100.725
X161.315Y-72.06
X161.392Y-115.875
X161.442Y-121.082
X161.468Y-114.021
X161.976Y-108.331
X162.052Y-122.733
X162.433Y-109.728
X163.754Y-108.255
X163.754Y-113.36
X164.109Y-78.791
X164.109Y-96.317
X164.236Y-100.635
X164.541Y-88.113
X164.541Y-98.882
X165.011Y-93.295
X165.202Y-105.385
X165.316Y-91.009
X165.989Y-81.712
X166.065Y-84.531
X167.513Y-88.087
X168.605Y-107.036
X168.605Y-108.89
X168.605Y-110.719
X168.605Y-112.624
X169.189Y-78.867
X169.189Y-81.758
X169.189Y-84.648
X169.189Y-87.539
X169.189Y-90.429
X169.189Y-93.32
T2
X104.128Y-105.818
X106.668Y-105.818
X109.208Y-105.818
X149.456Y-116.121
X149.456Y-118.661
X149.456Y-121.201
T3
X114.825Y-111.55
X117.325Y-111.55
X119.825Y-111.55
X122.325Y-111.55
X124.825Y-111.55
X134.475Y-111.55
X136.975Y-111.55
X139.475Y-111.55
X155.812Y-81.873
X155.812Y-84.373
X155.812Y-90.973
X155.812Y-93.473
X156.08Y-111.55
X158.58Y-111.55
X161.08Y-111.55
M30
