%TF.GenerationSoftware,KiCad,Pcbnew,9.0.0*%
%TF.CreationDate,2025-10-06T07:12:43-05:00*%
%TF.ProjectId,BPSD-2025,42505344-2d32-4303-9235-2e6b69636164,rev?*%
%TF.SameCoordinates,Original*%
%TF.FileFunction,Paste,Top*%
%TF.FilePolarity,Positive*%
%FSLAX46Y46*%
G04 Gerber Fmt 4.6, Leading zero omitted, Abs format (unit mm)*
G04 Created by KiCad (PCBNEW 9.0.0) date 2025-10-06 07:12:43*
%MOMM*%
%LPD*%
G01*
G04 APERTURE LIST*
G04 Aperture macros list*
%AMRoundRect*
0 Rectangle with rounded corners*
0 $1 Rounding radius*
0 $2 $3 $4 $5 $6 $7 $8 $9 X,Y pos of 4 corners*
0 Add a 4 corners polygon primitive as box body*
4,1,4,$2,$3,$4,$5,$6,$7,$8,$9,$2,$3,0*
0 Add four circle primitives for the rounded corners*
1,1,$1+$1,$2,$3*
1,1,$1+$1,$4,$5*
1,1,$1+$1,$6,$7*
1,1,$1+$1,$8,$9*
0 Add four rect primitives between the rounded corners*
20,1,$1+$1,$2,$3,$4,$5,0*
20,1,$1+$1,$4,$5,$6,$7,0*
20,1,$1+$1,$6,$7,$8,$9,0*
20,1,$1+$1,$8,$9,$2,$3,0*%
G04 Aperture macros list end*
%ADD10RoundRect,0.150000X0.587500X0.150000X-0.587500X0.150000X-0.587500X-0.150000X0.587500X-0.150000X0*%
%ADD11RoundRect,0.250000X1.075000X-0.312500X1.075000X0.312500X-1.075000X0.312500X-1.075000X-0.312500X0*%
%ADD12RoundRect,0.250000X-0.325000X-0.650000X0.325000X-0.650000X0.325000X0.650000X-0.325000X0.650000X0*%
%ADD13RoundRect,0.250000X-1.075000X0.312500X-1.075000X-0.312500X1.075000X-0.312500X1.075000X0.312500X0*%
%ADD14RoundRect,0.250000X-0.650000X0.325000X-0.650000X-0.325000X0.650000X-0.325000X0.650000X0.325000X0*%
%ADD15RoundRect,0.150000X-0.512500X-0.150000X0.512500X-0.150000X0.512500X0.150000X-0.512500X0.150000X0*%
%ADD16RoundRect,0.150000X-0.587500X-0.150000X0.587500X-0.150000X0.587500X0.150000X-0.587500X0.150000X0*%
%ADD17RoundRect,0.250000X0.325000X0.650000X-0.325000X0.650000X-0.325000X-0.650000X0.325000X-0.650000X0*%
%ADD18RoundRect,0.250000X-0.312500X-1.075000X0.312500X-1.075000X0.312500X1.075000X-0.312500X1.075000X0*%
%ADD19RoundRect,0.250000X0.350000X-0.850000X0.350000X0.850000X-0.350000X0.850000X-0.350000X-0.850000X0*%
%ADD20RoundRect,0.250000X1.125000X-1.275000X1.125000X1.275000X-1.125000X1.275000X-1.125000X-1.275000X0*%
G04 APERTURE END LIST*
D10*
%TO.C,Q2*%
X186340000Y-103412500D03*
X186340000Y-101512500D03*
X184465000Y-102462500D03*
%TD*%
D11*
%TO.C,R13*%
X154402500Y-104387500D03*
X154402500Y-101462500D03*
%TD*%
D12*
%TO.C,C19*%
X133927500Y-112425000D03*
X136877500Y-112425000D03*
%TD*%
D11*
%TO.C,R22*%
X131402500Y-91350000D03*
X131402500Y-88425000D03*
%TD*%
D12*
%TO.C,C23*%
X152202500Y-110975000D03*
X155152500Y-110975000D03*
%TD*%
%TO.C,C21*%
X167927500Y-96462500D03*
X170877500Y-96462500D03*
%TD*%
D13*
%TO.C,R16*%
X129402500Y-129462500D03*
X129402500Y-132387500D03*
%TD*%
D11*
%TO.C,R23*%
X131402500Y-97850000D03*
X131402500Y-94925000D03*
%TD*%
%TO.C,R15*%
X141402500Y-108387500D03*
X141402500Y-105462500D03*
%TD*%
%TO.C,R21*%
X141377500Y-120350000D03*
X141377500Y-117425000D03*
%TD*%
D14*
%TO.C,C10*%
X167287500Y-109775000D03*
X167287500Y-112725000D03*
%TD*%
D12*
%TO.C,C24*%
X156790000Y-87975000D03*
X159740000Y-87975000D03*
%TD*%
%TO.C,C25*%
X161790000Y-74475000D03*
X164740000Y-74475000D03*
%TD*%
D15*
%TO.C,U7*%
X147902500Y-127075000D03*
X147902500Y-128025000D03*
X147902500Y-128975000D03*
X150177500Y-128975000D03*
X150177500Y-127075000D03*
%TD*%
%TO.C,U10*%
X134240000Y-117475000D03*
X134240000Y-118425000D03*
X134240000Y-119375000D03*
X136515000Y-119375000D03*
X136515000Y-117475000D03*
%TD*%
D14*
%TO.C,C26*%
X118402500Y-114950000D03*
X118402500Y-117900000D03*
%TD*%
D15*
%TO.C,U18*%
X157127500Y-93025000D03*
X157127500Y-93975000D03*
X157127500Y-94925000D03*
X159402500Y-94925000D03*
X159402500Y-93025000D03*
%TD*%
D12*
%TO.C,C17*%
X146927500Y-96425000D03*
X149877500Y-96425000D03*
%TD*%
D15*
%TO.C,U4*%
X142902500Y-88425000D03*
X142902500Y-89375000D03*
X142902500Y-90325000D03*
X145177500Y-90325000D03*
X145177500Y-88425000D03*
%TD*%
D12*
%TO.C,C16*%
X142427500Y-71425000D03*
X145377500Y-71425000D03*
%TD*%
D14*
%TO.C,C11*%
X181265000Y-81500000D03*
X181265000Y-84450000D03*
%TD*%
D11*
%TO.C,R24*%
X141402500Y-132387500D03*
X141402500Y-129462500D03*
%TD*%
D14*
%TO.C,C14*%
X118402500Y-103950000D03*
X118402500Y-106900000D03*
%TD*%
D15*
%TO.C,U6*%
X147127500Y-101525000D03*
X147127500Y-102475000D03*
X147127500Y-103425000D03*
X149402500Y-103425000D03*
X149402500Y-101525000D03*
%TD*%
D16*
%TO.C,Q1*%
X179527500Y-101512500D03*
X179527500Y-103412500D03*
X181402500Y-102462500D03*
%TD*%
D17*
%TO.C,C2*%
X132902500Y-81925000D03*
X129952500Y-81925000D03*
%TD*%
D14*
%TO.C,C13*%
X118402500Y-92925000D03*
X118402500Y-95875000D03*
%TD*%
D11*
%TO.C,R19*%
X179402500Y-97425000D03*
X179402500Y-94500000D03*
%TD*%
D12*
%TO.C,C20*%
X133952500Y-124425000D03*
X136902500Y-124425000D03*
%TD*%
%TO.C,C22*%
X147727500Y-121975000D03*
X150677500Y-121975000D03*
%TD*%
D13*
%TO.C,R17*%
X129377500Y-117500000D03*
X129377500Y-120425000D03*
%TD*%
%TO.C,R14*%
X129402500Y-105462500D03*
X129402500Y-108387500D03*
%TD*%
D14*
%TO.C,C4*%
X118402500Y-84450000D03*
X118402500Y-87400000D03*
%TD*%
D18*
%TO.C,R20*%
X159325000Y-109750000D03*
X162250000Y-109750000D03*
%TD*%
D15*
%TO.C,U11*%
X162265000Y-79475000D03*
X162265000Y-80425000D03*
X162265000Y-81375000D03*
X164540000Y-81375000D03*
X164540000Y-79475000D03*
%TD*%
D11*
%TO.C,R12*%
X149902500Y-79387500D03*
X149902500Y-76462500D03*
%TD*%
D19*
%TO.C,U3*%
X130695000Y-77625000D03*
X132975000Y-77625000D03*
D20*
X131450000Y-73000000D03*
X134500000Y-73000000D03*
X131450000Y-69650000D03*
X134500000Y-69650000D03*
D19*
X135255000Y-77625000D03*
%TD*%
D11*
%TO.C,R11*%
X149877500Y-91387500D03*
X149877500Y-88462500D03*
%TD*%
D15*
%TO.C,U9*%
X134127500Y-105425000D03*
X134127500Y-106375000D03*
X134127500Y-107325000D03*
X136402500Y-107325000D03*
X136402500Y-105425000D03*
%TD*%
%TO.C,U12*%
X134265000Y-129475000D03*
X134265000Y-130425000D03*
X134265000Y-131375000D03*
X136540000Y-131375000D03*
X136540000Y-129475000D03*
%TD*%
%TO.C,U5*%
X142627500Y-76425000D03*
X142627500Y-77375000D03*
X142627500Y-78325000D03*
X144902500Y-78325000D03*
X144902500Y-76425000D03*
%TD*%
D12*
%TO.C,C18*%
X133927500Y-100425000D03*
X136877500Y-100425000D03*
%TD*%
D15*
%TO.C,U17*%
X168627500Y-101462500D03*
X168627500Y-102412500D03*
X168627500Y-103362500D03*
X170902500Y-103362500D03*
X170902500Y-101462500D03*
%TD*%
%TO.C,U8*%
X152902500Y-115975000D03*
X152902500Y-116925000D03*
X152902500Y-117875000D03*
X155177500Y-117875000D03*
X155177500Y-115975000D03*
%TD*%
D18*
%TO.C,R18*%
X172802500Y-81475000D03*
X175727500Y-81475000D03*
%TD*%
D12*
%TO.C,C15*%
X142427500Y-83425000D03*
X145377500Y-83425000D03*
%TD*%
M02*
