M48
; DRILL file {KiCad 9.0.4} date 2025-11-04T22:38:37-0600
; FORMAT={-:-/ absolute / metric / decimal}
; #@! TF.CreationDate,2025-11-04T22:38:37-06:00
; #@! TF.GenerationSoftware,Kicad,Pcbnew,9.0.4
; #@! TF.FileFunction,Plated,1,2,PTH
FMAT,2
METRIC
; #@! TA.AperFunction,Plated,PTH,ViaDrill
T1C0.300
; #@! TA.AperFunction,Plated,PTH,ComponentDrill
T2C0.800
; #@! TA.AperFunction,Plated,PTH,ComponentDrill
T3C1.245
%
G90
G05
T1
X99.873Y-72.238
X99.873Y-76.297
X99.873Y-80.356
X99.873Y-84.416
X99.873Y-88.475
X99.873Y-92.535
X99.873Y-96.594
X99.873Y-100.653
X99.873Y-104.713
X99.873Y-108.772
X99.873Y-112.831
X99.873Y-116.891
X99.949Y-120.015
X101.143Y-114.452
X101.346Y-78.232
X101.448Y-87.325
X101.953Y-112.792
X102.184Y-123.012
X103.022Y-76.657
X103.81Y-100.787
X104.292Y-87.325
X104.8Y-78.181
X105.029Y-112.827
X105.486Y-114.579
X105.969Y-123.038
X106.07Y-115.824
X106.375Y-76.505
X106.528Y-70.155
X106.731Y-90.119
X106.832Y-112.776
X106.959Y-104.419
X107.061Y-102.718
X107.576Y-122.174
X107.696Y-118.77
X107.848Y-88.595
X107.95Y-113.843
X108.509Y-110.084
X108.585Y-97.384
X108.763Y-87.224
X108.763Y-92.202
X108.966Y-90.272
X109.22Y-120.701
X109.322Y-112.776
X109.322Y-117.094
X109.83Y-93.828
X110.744Y-105.029
X111.1Y-92.354
X111.43Y-101.93
X111.635Y-122.174
X111.658Y-115.773
X111.811Y-120.396
X112.573Y-79.146
X112.573Y-87.376
X112.776Y-88.798
X112.928Y-104.445
X112.979Y-91.542
X113.233Y-98.196
X113.309Y-94.158
X113.589Y-107.975
X113.665Y-106.299
X113.944Y-88.138
X113.995Y-89.611
X114.046Y-80.264
X114.249Y-120.244
X114.554Y-91.034
X114.554Y-113.538
X114.96Y-118.212
X115.695Y-122.174
X115.824Y-81.229
X115.976Y-90.729
X116.129Y-86.258
X116.256Y-107.01
X116.307Y-104.47
X116.484Y-99.212
X116.561Y-114.554
X116.637Y-79.451
X117.145Y-117.907
X117.196Y-84.379
X117.196Y-94.894
X117.196Y-120.04
X117.272Y-108.509
X117.323Y-96.85
X117.348Y-106.096
X117.704Y-122.022
X118.11Y-113.487
X118.161Y-69.799
X118.288Y-71.501
X118.567Y-85.293
X118.567Y-95.961
X118.669Y-81.077
X118.694Y-107.213
X119.329Y-114.605
X119.405Y-105.537
X119.736Y-118.161
X119.754Y-122.174
X120.091Y-82.448
X120.599Y-120.396
X120.701Y-104.242
X121.285Y-91.618
X121.31Y-122.276
X121.412Y-113.538
X121.564Y-79.731
X121.564Y-81.178
X121.691Y-105.689
X121.869Y-98.298
X121.971Y-94.234
X122.022Y-83.236
X122.479Y-85.75
X122.58Y-120.396
X122.707Y-91.643
X122.784Y-114.706
X123.368Y-105.181
X123.813Y-122.174
X124.104Y-83.083
X124.816Y-102.87
X124.866Y-98.501
X124.968Y-113.487
X124.993Y-105.639
X125.019Y-120.447
X125.044Y-89.027
X125.095Y-86.97
X125.374Y-117.602
X125.755Y-95.021
X125.832Y-112.014
X125.882Y-74.676
X125.984Y-114.605
X126.34Y-119.024
X126.797Y-113.487
X127.102Y-69.901
X127.457Y-95.86
X127.559Y-117.704
X127.873Y-122.174
X128.016Y-120.345
X128.092Y-105.664
X128.727Y-100.889
X129.134Y-118.872
X129.184Y-117.602
X129.413Y-104.242
X129.692Y-81.534
X130.429Y-85.954
X130.505Y-120.294
X130.912Y-104.343
X130.962Y-112.471
X131.166Y-93.98
X131.801Y-91.389
X131.932Y-122.174
X132.029Y-105.791
X132.74Y-116.332
X132.944Y-91.567
X133.248Y-71.018
X133.248Y-79.273
X133.299Y-98.349
X133.375Y-101.092
X133.502Y-102.819
X133.553Y-105.461
X133.756Y-115.265
X133.858Y-85.319
X134.01Y-94.996
X134.163Y-103.988
X134.468Y-98.908
X134.493Y-69.621
X134.976Y-91.059
X135.179Y-97.587
X135.179Y-119.888
X135.204Y-86.335
X135.23Y-116.383
X135.28Y-94.285
X135.433Y-105.461
X135.839Y-117.602
X135.992Y-122.174
X136.347Y-94.945
X136.373Y-118.821
X136.423Y-74.701
X136.601Y-88.189
X136.855Y-113.487
X137.109Y-105.562
X137.465Y-119.939
X137.668Y-69.596
X137.998Y-100.914
X138.024Y-92.304
X138.074Y-74.371
X138.201Y-84.734
X138.481Y-72.695
X138.481Y-115.062
X138.76Y-108.737
X138.836Y-103.683
X139.141Y-75.667
X139.192Y-105.715
X139.344Y-113.64
X139.929Y-119.888
X140.051Y-122.174
X140.157Y-103.734
X140.259Y-73.508
X140.386Y-90.805
X140.614Y-79.299
X140.614Y-89.484
X140.665Y-76.784
X141.173Y-82.575
X141.249Y-83.896
X141.326Y-112.522
X141.529Y-114.808
X141.757Y-69.596
X141.935Y-72.746
X141.935Y-74.32
X142.062Y-91.237
X142.215Y-118.466
X142.316Y-121.107
X142.494Y-85.115
X142.697Y-95.174
X142.799Y-98.323
X142.9Y-114.859
X143.205Y-96.977
X143.205Y-103.073
X143.256Y-91.11
X143.358Y-110.338
X143.586Y-117.754
X143.789Y-94.132
X144.094Y-119.71
X144.11Y-122.174
X144.932Y-79.121
X145.059Y-118.516
X145.466Y-83.693
X145.491Y-82.169
X145.491Y-120.929
X145.872Y-69.52
X146.152Y-106.02
X146.228Y-103.861
X146.634Y-108.179
X147.066Y-113.335
X147.117Y-110.338
X147.168Y-82.245
X147.168Y-83.668
X147.168Y-114.706
X147.422Y-105.893
X147.625Y-98.349
X147.691Y-103.835
X147.828Y-93.218
X148.17Y-122.174
X148.412Y-79.172
X148.463Y-83.109
X148.488Y-76.098
X148.692Y-72.593
X148.793Y-103.683
X149.098Y-77.521
X149.098Y-120.701
X150.266Y-108.864
X150.368Y-122.276
X150.825Y-120.802
X150.927Y-97.841
X151.079Y-96.418
X151.181Y-113.741
X151.282Y-72.644
X151.587Y-91.389
X151.74Y-102.718
X152.121Y-84.963
X152.229Y-122.174
X152.298Y-115.062
X152.502Y-74.219
X152.502Y-100.178
X152.933Y-80.213
X153.264Y-93.878
X153.467Y-116.18
X153.568Y-102.667
X153.619Y-100.736
X153.619Y-113.792
X153.822Y-95.453
X153.822Y-107.899
X153.899Y-85.877
X154.0Y-69.571
X154.0Y-89.256
X154.127Y-72.593
X154.127Y-97.282
X154.127Y-120.193
X154.229Y-84.201
X154.254Y-75.159
X154.737Y-115.011
X154.788Y-90.627
X154.889Y-108.915
X155.473Y-91.948
X155.626Y-99.136
X155.651Y-74.32
X155.702Y-120.142
X155.753Y-89.281
X155.804Y-100.889
X155.804Y-103.683
X155.804Y-113.843
X155.804Y-116.281
X155.854Y-122.784
X156.108Y-107.95
X156.159Y-83.515
X156.362Y-80.518
X156.515Y-106.553
X156.616Y-77.927
X156.845Y-97.333
X157.226Y-72.898
X157.378Y-75.387
X157.658Y-87.808
X157.734Y-106.528
X157.785Y-112.725
X157.886Y-104.089
X157.937Y-122.784
X157.988Y-120.244
X158.191Y-114.148
X158.293Y-115.824
X158.547Y-109.626
X158.852Y-97.587
X158.928Y-69.698
X158.953Y-74.422
X159.156Y-113.081
X159.207Y-111.252
X159.563Y-114.859
X159.664Y-76.657
X159.664Y-104.521
X159.69Y-121.564
X160.172Y-92.558
X160.426Y-85.547
X160.579Y-71.526
X160.604Y-109.245
X160.934Y-82.855
X160.934Y-88.494
X161.036Y-94.463
X161.087Y-90.932
X161.239Y-122.885
X161.341Y-103.734
X161.798Y-98.196
X161.849Y-108.255
X162.024Y-69.901
X162.027Y-85.268
X162.204Y-72.796
X162.357Y-92.558
X162.408Y-81.331
X162.408Y-86.766
X162.408Y-114.656
X162.509Y-109.576
X162.712Y-121.768
X162.763Y-78.791
X162.916Y-76.048
X163.22Y-80.162
X163.271Y-82.956
X163.576Y-71.679
X163.627Y-85.141
X163.728Y-119.075
X163.779Y-115.976
X163.855Y-87.605
X163.881Y-117.704
X163.982Y-122.936
X164.033Y-74.32
X164.186Y-109.474
X164.719Y-69.926
X164.998Y-107.544
X165.049Y-114.706
X165.137Y-97.993
X165.456Y-86.258
X165.456Y-88.494
X165.71Y-76.403
X165.71Y-115.875
X165.811Y-109.626
X166.624Y-86.97
X166.776Y-97.536
X166.776Y-114.3
X167.03Y-92.71
X167.183Y-79.197
X167.183Y-111.049
X167.284Y-82.652
X167.792Y-107.594
X168.021Y-76.708
X168.097Y-81.077
X168.097Y-115.418
X168.275Y-108.788
X168.453Y-85.903
X168.453Y-88.189
X168.453Y-91.186
X168.453Y-112.979
X168.605Y-92.456
X168.656Y-93.98
X168.91Y-82.601
X169.012Y-79.35
X169.316Y-110.998
X169.367Y-107.239
X169.621Y-103.226
X169.774Y-115.926
X169.824Y-77.064
X169.824Y-85.182
X169.824Y-89.242
X169.824Y-97.361
X169.824Y-101.42
X169.824Y-105.479
X169.824Y-109.539
X169.824Y-113.598
T2
X103.281Y-90.627
X103.281Y-93.167
X103.281Y-95.707
X103.302Y-106.197
X103.302Y-108.737
X103.302Y-111.277
T3
X112.259Y-110.965
X114.759Y-110.965
X117.259Y-110.965
X119.759Y-110.965
X122.259Y-110.965
X133.783Y-111.041
X136.283Y-111.041
X138.783Y-111.041
X149.766Y-111.269
X152.266Y-111.269
X154.766Y-111.269
X157.574Y-91.485
X157.574Y-93.985
X158.107Y-79.547
X158.107Y-82.047
M30
