%TF.GenerationSoftware,KiCad,Pcbnew,9.0.4*%
%TF.CreationDate,2025-11-03T23:40:34-06:00*%
%TF.ProjectId,BPSD-2025,42505344-2d32-4303-9235-2e6b69636164,rev?*%
%TF.SameCoordinates,Original*%
%TF.FileFunction,Legend,Bot*%
%TF.FilePolarity,Positive*%
%FSLAX46Y46*%
G04 Gerber Fmt 4.6, Leading zero omitted, Abs format (unit mm)*
G04 Created by KiCad (PCBNEW 9.0.4) date 2025-11-03 23:40:34*
%MOMM*%
%LPD*%
G01*
G04 APERTURE LIST*
%ADD10C,0.100000*%
%ADD11C,0.508000*%
G04 APERTURE END LIST*
D10*
X278659925Y-185097219D02*
X279136115Y-185097219D01*
X279136115Y-185097219D02*
X279136115Y-184097219D01*
X278374210Y-185049600D02*
X278231353Y-185097219D01*
X278231353Y-185097219D02*
X277993258Y-185097219D01*
X277993258Y-185097219D02*
X277898020Y-185049600D01*
X277898020Y-185049600D02*
X277850401Y-185001980D01*
X277850401Y-185001980D02*
X277802782Y-184906742D01*
X277802782Y-184906742D02*
X277802782Y-184811504D01*
X277802782Y-184811504D02*
X277850401Y-184716266D01*
X277850401Y-184716266D02*
X277898020Y-184668647D01*
X277898020Y-184668647D02*
X277993258Y-184621028D01*
X277993258Y-184621028D02*
X278183734Y-184573409D01*
X278183734Y-184573409D02*
X278278972Y-184525790D01*
X278278972Y-184525790D02*
X278326591Y-184478171D01*
X278326591Y-184478171D02*
X278374210Y-184382933D01*
X278374210Y-184382933D02*
X278374210Y-184287695D01*
X278374210Y-184287695D02*
X278326591Y-184192457D01*
X278326591Y-184192457D02*
X278278972Y-184144838D01*
X278278972Y-184144838D02*
X278183734Y-184097219D01*
X278183734Y-184097219D02*
X277945639Y-184097219D01*
X277945639Y-184097219D02*
X277802782Y-184144838D01*
X277374210Y-184097219D02*
X277374210Y-184906742D01*
X277374210Y-184906742D02*
X277326591Y-185001980D01*
X277326591Y-185001980D02*
X277278972Y-185049600D01*
X277278972Y-185049600D02*
X277183734Y-185097219D01*
X277183734Y-185097219D02*
X276993258Y-185097219D01*
X276993258Y-185097219D02*
X276898020Y-185049600D01*
X276898020Y-185049600D02*
X276850401Y-185001980D01*
X276850401Y-185001980D02*
X276802782Y-184906742D01*
X276802782Y-184906742D02*
X276802782Y-184097219D01*
X275707543Y-184097219D02*
X275136115Y-184097219D01*
X275421829Y-185097219D02*
X275421829Y-184097219D01*
X274802781Y-185097219D02*
X274802781Y-184430552D01*
X274802781Y-184097219D02*
X274850400Y-184144838D01*
X274850400Y-184144838D02*
X274802781Y-184192457D01*
X274802781Y-184192457D02*
X274755162Y-184144838D01*
X274755162Y-184144838D02*
X274802781Y-184097219D01*
X274802781Y-184097219D02*
X274802781Y-184192457D01*
X273898020Y-184430552D02*
X273898020Y-185240076D01*
X273898020Y-185240076D02*
X273945639Y-185335314D01*
X273945639Y-185335314D02*
X273993258Y-185382933D01*
X273993258Y-185382933D02*
X274088496Y-185430552D01*
X274088496Y-185430552D02*
X274231353Y-185430552D01*
X274231353Y-185430552D02*
X274326591Y-185382933D01*
X273898020Y-185049600D02*
X273993258Y-185097219D01*
X273993258Y-185097219D02*
X274183734Y-185097219D01*
X274183734Y-185097219D02*
X274278972Y-185049600D01*
X274278972Y-185049600D02*
X274326591Y-185001980D01*
X274326591Y-185001980D02*
X274374210Y-184906742D01*
X274374210Y-184906742D02*
X274374210Y-184621028D01*
X274374210Y-184621028D02*
X274326591Y-184525790D01*
X274326591Y-184525790D02*
X274278972Y-184478171D01*
X274278972Y-184478171D02*
X274183734Y-184430552D01*
X274183734Y-184430552D02*
X273993258Y-184430552D01*
X273993258Y-184430552D02*
X273898020Y-184478171D01*
X273040877Y-185049600D02*
X273136115Y-185097219D01*
X273136115Y-185097219D02*
X273326591Y-185097219D01*
X273326591Y-185097219D02*
X273421829Y-185049600D01*
X273421829Y-185049600D02*
X273469448Y-184954361D01*
X273469448Y-184954361D02*
X273469448Y-184573409D01*
X273469448Y-184573409D02*
X273421829Y-184478171D01*
X273421829Y-184478171D02*
X273326591Y-184430552D01*
X273326591Y-184430552D02*
X273136115Y-184430552D01*
X273136115Y-184430552D02*
X273040877Y-184478171D01*
X273040877Y-184478171D02*
X272993258Y-184573409D01*
X272993258Y-184573409D02*
X272993258Y-184668647D01*
X272993258Y-184668647D02*
X273469448Y-184763885D01*
X272564686Y-185097219D02*
X272564686Y-184430552D01*
X272564686Y-184621028D02*
X272517067Y-184525790D01*
X272517067Y-184525790D02*
X272469448Y-184478171D01*
X272469448Y-184478171D02*
X272374210Y-184430552D01*
X272374210Y-184430552D02*
X272278972Y-184430552D01*
X271374210Y-185097219D02*
X271707543Y-184621028D01*
X271945638Y-185097219D02*
X271945638Y-184097219D01*
X271945638Y-184097219D02*
X271564686Y-184097219D01*
X271564686Y-184097219D02*
X271469448Y-184144838D01*
X271469448Y-184144838D02*
X271421829Y-184192457D01*
X271421829Y-184192457D02*
X271374210Y-184287695D01*
X271374210Y-184287695D02*
X271374210Y-184430552D01*
X271374210Y-184430552D02*
X271421829Y-184525790D01*
X271421829Y-184525790D02*
X271469448Y-184573409D01*
X271469448Y-184573409D02*
X271564686Y-184621028D01*
X271564686Y-184621028D02*
X271945638Y-184621028D01*
X270517067Y-185097219D02*
X270517067Y-184573409D01*
X270517067Y-184573409D02*
X270564686Y-184478171D01*
X270564686Y-184478171D02*
X270659924Y-184430552D01*
X270659924Y-184430552D02*
X270850400Y-184430552D01*
X270850400Y-184430552D02*
X270945638Y-184478171D01*
X270517067Y-185049600D02*
X270612305Y-185097219D01*
X270612305Y-185097219D02*
X270850400Y-185097219D01*
X270850400Y-185097219D02*
X270945638Y-185049600D01*
X270945638Y-185049600D02*
X270993257Y-184954361D01*
X270993257Y-184954361D02*
X270993257Y-184859123D01*
X270993257Y-184859123D02*
X270945638Y-184763885D01*
X270945638Y-184763885D02*
X270850400Y-184716266D01*
X270850400Y-184716266D02*
X270612305Y-184716266D01*
X270612305Y-184716266D02*
X270517067Y-184668647D01*
X269612305Y-185049600D02*
X269707543Y-185097219D01*
X269707543Y-185097219D02*
X269898019Y-185097219D01*
X269898019Y-185097219D02*
X269993257Y-185049600D01*
X269993257Y-185049600D02*
X270040876Y-185001980D01*
X270040876Y-185001980D02*
X270088495Y-184906742D01*
X270088495Y-184906742D02*
X270088495Y-184621028D01*
X270088495Y-184621028D02*
X270040876Y-184525790D01*
X270040876Y-184525790D02*
X269993257Y-184478171D01*
X269993257Y-184478171D02*
X269898019Y-184430552D01*
X269898019Y-184430552D02*
X269707543Y-184430552D01*
X269707543Y-184430552D02*
X269612305Y-184478171D01*
X269183733Y-185097219D02*
X269183733Y-184430552D01*
X269183733Y-184097219D02*
X269231352Y-184144838D01*
X269231352Y-184144838D02*
X269183733Y-184192457D01*
X269183733Y-184192457D02*
X269136114Y-184144838D01*
X269136114Y-184144838D02*
X269183733Y-184097219D01*
X269183733Y-184097219D02*
X269183733Y-184192457D01*
X268707543Y-184430552D02*
X268707543Y-185097219D01*
X268707543Y-184525790D02*
X268659924Y-184478171D01*
X268659924Y-184478171D02*
X268564686Y-184430552D01*
X268564686Y-184430552D02*
X268421829Y-184430552D01*
X268421829Y-184430552D02*
X268326591Y-184478171D01*
X268326591Y-184478171D02*
X268278972Y-184573409D01*
X268278972Y-184573409D02*
X268278972Y-185097219D01*
X267374210Y-184430552D02*
X267374210Y-185240076D01*
X267374210Y-185240076D02*
X267421829Y-185335314D01*
X267421829Y-185335314D02*
X267469448Y-185382933D01*
X267469448Y-185382933D02*
X267564686Y-185430552D01*
X267564686Y-185430552D02*
X267707543Y-185430552D01*
X267707543Y-185430552D02*
X267802781Y-185382933D01*
X267374210Y-185049600D02*
X267469448Y-185097219D01*
X267469448Y-185097219D02*
X267659924Y-185097219D01*
X267659924Y-185097219D02*
X267755162Y-185049600D01*
X267755162Y-185049600D02*
X267802781Y-185001980D01*
X267802781Y-185001980D02*
X267850400Y-184906742D01*
X267850400Y-184906742D02*
X267850400Y-184621028D01*
X267850400Y-184621028D02*
X267802781Y-184525790D01*
X267802781Y-184525790D02*
X267755162Y-184478171D01*
X267755162Y-184478171D02*
X267659924Y-184430552D01*
X267659924Y-184430552D02*
X267469448Y-184430552D01*
X267469448Y-184430552D02*
X267374210Y-184478171D01*
X266136114Y-184573409D02*
X265802781Y-184573409D01*
X265659924Y-185097219D02*
X266136114Y-185097219D01*
X266136114Y-185097219D02*
X266136114Y-184097219D01*
X266136114Y-184097219D02*
X265659924Y-184097219D01*
X265088495Y-185097219D02*
X265183733Y-185049600D01*
X265183733Y-185049600D02*
X265231352Y-184954361D01*
X265231352Y-184954361D02*
X265231352Y-184097219D01*
X264326590Y-185049600D02*
X264421828Y-185097219D01*
X264421828Y-185097219D02*
X264612304Y-185097219D01*
X264612304Y-185097219D02*
X264707542Y-185049600D01*
X264707542Y-185049600D02*
X264755161Y-184954361D01*
X264755161Y-184954361D02*
X264755161Y-184573409D01*
X264755161Y-184573409D02*
X264707542Y-184478171D01*
X264707542Y-184478171D02*
X264612304Y-184430552D01*
X264612304Y-184430552D02*
X264421828Y-184430552D01*
X264421828Y-184430552D02*
X264326590Y-184478171D01*
X264326590Y-184478171D02*
X264278971Y-184573409D01*
X264278971Y-184573409D02*
X264278971Y-184668647D01*
X264278971Y-184668647D02*
X264755161Y-184763885D01*
X263421828Y-185049600D02*
X263517066Y-185097219D01*
X263517066Y-185097219D02*
X263707542Y-185097219D01*
X263707542Y-185097219D02*
X263802780Y-185049600D01*
X263802780Y-185049600D02*
X263850399Y-185001980D01*
X263850399Y-185001980D02*
X263898018Y-184906742D01*
X263898018Y-184906742D02*
X263898018Y-184621028D01*
X263898018Y-184621028D02*
X263850399Y-184525790D01*
X263850399Y-184525790D02*
X263802780Y-184478171D01*
X263802780Y-184478171D02*
X263707542Y-184430552D01*
X263707542Y-184430552D02*
X263517066Y-184430552D01*
X263517066Y-184430552D02*
X263421828Y-184478171D01*
X263136113Y-184430552D02*
X262755161Y-184430552D01*
X262993256Y-184097219D02*
X262993256Y-184954361D01*
X262993256Y-184954361D02*
X262945637Y-185049600D01*
X262945637Y-185049600D02*
X262850399Y-185097219D01*
X262850399Y-185097219D02*
X262755161Y-185097219D01*
X262421827Y-185097219D02*
X262421827Y-184430552D01*
X262421827Y-184621028D02*
X262374208Y-184525790D01*
X262374208Y-184525790D02*
X262326589Y-184478171D01*
X262326589Y-184478171D02*
X262231351Y-184430552D01*
X262231351Y-184430552D02*
X262136113Y-184430552D01*
X261659922Y-185097219D02*
X261755160Y-185049600D01*
X261755160Y-185049600D02*
X261802779Y-185001980D01*
X261802779Y-185001980D02*
X261850398Y-184906742D01*
X261850398Y-184906742D02*
X261850398Y-184621028D01*
X261850398Y-184621028D02*
X261802779Y-184525790D01*
X261802779Y-184525790D02*
X261755160Y-184478171D01*
X261755160Y-184478171D02*
X261659922Y-184430552D01*
X261659922Y-184430552D02*
X261517065Y-184430552D01*
X261517065Y-184430552D02*
X261421827Y-184478171D01*
X261421827Y-184478171D02*
X261374208Y-184525790D01*
X261374208Y-184525790D02*
X261326589Y-184621028D01*
X261326589Y-184621028D02*
X261326589Y-184906742D01*
X261326589Y-184906742D02*
X261374208Y-185001980D01*
X261374208Y-185001980D02*
X261421827Y-185049600D01*
X261421827Y-185049600D02*
X261517065Y-185097219D01*
X261517065Y-185097219D02*
X261659922Y-185097219D01*
X260898017Y-184430552D02*
X260898017Y-185097219D01*
X260898017Y-184525790D02*
X260850398Y-184478171D01*
X260850398Y-184478171D02*
X260755160Y-184430552D01*
X260755160Y-184430552D02*
X260612303Y-184430552D01*
X260612303Y-184430552D02*
X260517065Y-184478171D01*
X260517065Y-184478171D02*
X260469446Y-184573409D01*
X260469446Y-184573409D02*
X260469446Y-185097219D01*
X259993255Y-185097219D02*
X259993255Y-184430552D01*
X259993255Y-184097219D02*
X260040874Y-184144838D01*
X260040874Y-184144838D02*
X259993255Y-184192457D01*
X259993255Y-184192457D02*
X259945636Y-184144838D01*
X259945636Y-184144838D02*
X259993255Y-184097219D01*
X259993255Y-184097219D02*
X259993255Y-184192457D01*
X259088494Y-185049600D02*
X259183732Y-185097219D01*
X259183732Y-185097219D02*
X259374208Y-185097219D01*
X259374208Y-185097219D02*
X259469446Y-185049600D01*
X259469446Y-185049600D02*
X259517065Y-185001980D01*
X259517065Y-185001980D02*
X259564684Y-184906742D01*
X259564684Y-184906742D02*
X259564684Y-184621028D01*
X259564684Y-184621028D02*
X259517065Y-184525790D01*
X259517065Y-184525790D02*
X259469446Y-184478171D01*
X259469446Y-184478171D02*
X259374208Y-184430552D01*
X259374208Y-184430552D02*
X259183732Y-184430552D01*
X259183732Y-184430552D02*
X259088494Y-184478171D01*
X258707541Y-185049600D02*
X258612303Y-185097219D01*
X258612303Y-185097219D02*
X258421827Y-185097219D01*
X258421827Y-185097219D02*
X258326589Y-185049600D01*
X258326589Y-185049600D02*
X258278970Y-184954361D01*
X258278970Y-184954361D02*
X258278970Y-184906742D01*
X258278970Y-184906742D02*
X258326589Y-184811504D01*
X258326589Y-184811504D02*
X258421827Y-184763885D01*
X258421827Y-184763885D02*
X258564684Y-184763885D01*
X258564684Y-184763885D02*
X258659922Y-184716266D01*
X258659922Y-184716266D02*
X258707541Y-184621028D01*
X258707541Y-184621028D02*
X258707541Y-184573409D01*
X258707541Y-184573409D02*
X258659922Y-184478171D01*
X258659922Y-184478171D02*
X258564684Y-184430552D01*
X258564684Y-184430552D02*
X258421827Y-184430552D01*
X258421827Y-184430552D02*
X258326589Y-184478171D01*
X257231350Y-184097219D02*
X256659922Y-184097219D01*
X256945636Y-185097219D02*
X256945636Y-184097219D01*
X255945636Y-185049600D02*
X256040874Y-185097219D01*
X256040874Y-185097219D02*
X256231350Y-185097219D01*
X256231350Y-185097219D02*
X256326588Y-185049600D01*
X256326588Y-185049600D02*
X256374207Y-184954361D01*
X256374207Y-184954361D02*
X256374207Y-184573409D01*
X256374207Y-184573409D02*
X256326588Y-184478171D01*
X256326588Y-184478171D02*
X256231350Y-184430552D01*
X256231350Y-184430552D02*
X256040874Y-184430552D01*
X256040874Y-184430552D02*
X255945636Y-184478171D01*
X255945636Y-184478171D02*
X255898017Y-184573409D01*
X255898017Y-184573409D02*
X255898017Y-184668647D01*
X255898017Y-184668647D02*
X256374207Y-184763885D01*
X255040874Y-185097219D02*
X255040874Y-184573409D01*
X255040874Y-184573409D02*
X255088493Y-184478171D01*
X255088493Y-184478171D02*
X255183731Y-184430552D01*
X255183731Y-184430552D02*
X255374207Y-184430552D01*
X255374207Y-184430552D02*
X255469445Y-184478171D01*
X255040874Y-185049600D02*
X255136112Y-185097219D01*
X255136112Y-185097219D02*
X255374207Y-185097219D01*
X255374207Y-185097219D02*
X255469445Y-185049600D01*
X255469445Y-185049600D02*
X255517064Y-184954361D01*
X255517064Y-184954361D02*
X255517064Y-184859123D01*
X255517064Y-184859123D02*
X255469445Y-184763885D01*
X255469445Y-184763885D02*
X255374207Y-184716266D01*
X255374207Y-184716266D02*
X255136112Y-184716266D01*
X255136112Y-184716266D02*
X255040874Y-184668647D01*
X254564683Y-185097219D02*
X254564683Y-184430552D01*
X254564683Y-184525790D02*
X254517064Y-184478171D01*
X254517064Y-184478171D02*
X254421826Y-184430552D01*
X254421826Y-184430552D02*
X254278969Y-184430552D01*
X254278969Y-184430552D02*
X254183731Y-184478171D01*
X254183731Y-184478171D02*
X254136112Y-184573409D01*
X254136112Y-184573409D02*
X254136112Y-185097219D01*
X254136112Y-184573409D02*
X254088493Y-184478171D01*
X254088493Y-184478171D02*
X253993255Y-184430552D01*
X253993255Y-184430552D02*
X253850398Y-184430552D01*
X253850398Y-184430552D02*
X253755159Y-184478171D01*
X253755159Y-184478171D02*
X253707540Y-184573409D01*
X253707540Y-184573409D02*
X253707540Y-185097219D01*
D11*
%TO.C,J4*%
X127686100Y-111549695D02*
G75*
G02*
X126924100Y-111549695I-381000J0D01*
G01*
X126924100Y-111549695D02*
G75*
G02*
X127686100Y-111549695I381000J0D01*
G01*
%TO.C,J5*%
X156192895Y-88489600D02*
G75*
G02*
X155430895Y-88489600I-381000J0D01*
G01*
X155430895Y-88489600D02*
G75*
G02*
X156192895Y-88489600I381000J0D01*
G01*
%TO.C,J1*%
X163939367Y-111549695D02*
G75*
G02*
X163177367Y-111549695I-381000J0D01*
G01*
X163177367Y-111549695D02*
G75*
G02*
X163939367Y-111549695I381000J0D01*
G01*
%TO.C,J3*%
X156192895Y-79389600D02*
G75*
G02*
X155430895Y-79389600I-381000J0D01*
G01*
X155430895Y-79389600D02*
G75*
G02*
X156192895Y-79389600I381000J0D01*
G01*
%TO.C,J2*%
X142334767Y-111549695D02*
G75*
G02*
X141572767Y-111549695I-381000J0D01*
G01*
X141572767Y-111549695D02*
G75*
G02*
X142334767Y-111549695I381000J0D01*
G01*
%TD*%
M02*
