%TF.GenerationSoftware,KiCad,Pcbnew,9.0.4*%
%TF.CreationDate,2025-11-03T23:40:34-06:00*%
%TF.ProjectId,BPSD-2025,42505344-2d32-4303-9235-2e6b69636164,rev?*%
%TF.SameCoordinates,Original*%
%TF.FileFunction,Legend,Top*%
%TF.FilePolarity,Positive*%
%FSLAX46Y46*%
G04 Gerber Fmt 4.6, Leading zero omitted, Abs format (unit mm)*
G04 Created by KiCad (PCBNEW 9.0.4) date 2025-11-03 23:40:34*
%MOMM*%
%LPD*%
G01*
G04 APERTURE LIST*
%ADD10C,0.300000*%
%ADD11C,0.150000*%
%ADD12C,0.120000*%
%ADD13C,0.000000*%
%ADD14C,0.152400*%
%ADD15C,0.508000*%
G04 APERTURE END LIST*
D10*
G36*
X165612688Y-112522338D02*
G01*
X165673501Y-112583151D01*
X165742019Y-112720185D01*
X165742019Y-113201441D01*
X165089638Y-113201441D01*
X165089638Y-112720184D01*
X165158154Y-112583152D01*
X165218968Y-112522338D01*
X165356000Y-112453822D01*
X165475656Y-112453822D01*
X165612688Y-112522338D01*
G37*
G36*
X166660307Y-112427100D02*
G01*
X166721122Y-112487914D01*
X166789638Y-112624946D01*
X166789638Y-113201441D01*
X166042019Y-113201441D01*
X166042019Y-112709114D01*
X166118361Y-112480088D01*
X166171349Y-112427100D01*
X166308381Y-112358584D01*
X166523275Y-112358584D01*
X166660307Y-112427100D01*
G37*
G36*
X165707926Y-108522338D02*
G01*
X165768741Y-108583152D01*
X165837257Y-108720184D01*
X165837257Y-109296679D01*
X165089638Y-109296679D01*
X165089638Y-108720184D01*
X165158154Y-108583152D01*
X165218968Y-108522338D01*
X165356000Y-108453822D01*
X165570894Y-108453822D01*
X165707926Y-108522338D01*
G37*
G36*
X166411091Y-106540587D02*
G01*
X166565069Y-106617576D01*
X166713294Y-106765800D01*
X166789638Y-106994831D01*
X166789638Y-107296679D01*
X165089638Y-107296679D01*
X165089638Y-106994831D01*
X165165981Y-106765800D01*
X165314206Y-106617576D01*
X165468184Y-106540587D01*
X165815244Y-106453822D01*
X166064031Y-106453822D01*
X166411091Y-106540587D01*
G37*
G36*
X167311860Y-113723663D02*
G01*
X164567416Y-113723663D01*
X164567416Y-112684774D01*
X164789638Y-112684774D01*
X164789638Y-113351441D01*
X164792520Y-113380705D01*
X164814918Y-113434777D01*
X164856302Y-113476161D01*
X164910374Y-113498559D01*
X164939638Y-113501441D01*
X166939638Y-113501441D01*
X166968902Y-113498559D01*
X167022974Y-113476161D01*
X167064358Y-113434777D01*
X167086756Y-113380705D01*
X167089638Y-113351441D01*
X167089638Y-112589536D01*
X167086756Y-112560272D01*
X167084693Y-112555293D01*
X167084312Y-112549918D01*
X167073802Y-112522454D01*
X166978564Y-112331978D01*
X166970637Y-112319386D01*
X166969121Y-112315724D01*
X166965737Y-112311601D01*
X166962899Y-112307092D01*
X166959906Y-112304496D01*
X166950466Y-112292994D01*
X166855226Y-112197755D01*
X166843725Y-112188316D01*
X166841129Y-112185323D01*
X166836616Y-112182482D01*
X166832496Y-112179101D01*
X166828836Y-112177585D01*
X166816243Y-112169658D01*
X166625767Y-112074420D01*
X166598304Y-112063910D01*
X166592926Y-112063527D01*
X166587949Y-112061466D01*
X166558685Y-112058584D01*
X166272971Y-112058584D01*
X166243707Y-112061466D01*
X166238728Y-112063528D01*
X166233353Y-112063910D01*
X166205889Y-112074420D01*
X166015413Y-112169658D01*
X166002819Y-112177585D01*
X165999160Y-112179101D01*
X165995040Y-112182482D01*
X165990527Y-112185323D01*
X165987930Y-112188316D01*
X165976429Y-112197756D01*
X165881191Y-112292994D01*
X165862536Y-112315725D01*
X165860473Y-112320704D01*
X165856943Y-112324775D01*
X165851524Y-112336910D01*
X165807608Y-112292994D01*
X165796106Y-112283555D01*
X165793510Y-112280561D01*
X165788996Y-112277720D01*
X165784877Y-112274339D01*
X165781217Y-112272823D01*
X165768624Y-112264896D01*
X165578148Y-112169658D01*
X165550685Y-112159148D01*
X165545307Y-112158765D01*
X165540330Y-112156704D01*
X165511066Y-112153822D01*
X165320590Y-112153822D01*
X165291326Y-112156704D01*
X165286347Y-112158766D01*
X165280972Y-112159148D01*
X165253508Y-112169658D01*
X165063032Y-112264896D01*
X165050438Y-112272823D01*
X165046779Y-112274339D01*
X165042659Y-112277720D01*
X165038146Y-112280561D01*
X165035549Y-112283554D01*
X165024048Y-112292994D01*
X164928810Y-112388232D01*
X164919371Y-112399733D01*
X164916377Y-112402330D01*
X164913536Y-112406843D01*
X164910155Y-112410963D01*
X164908639Y-112414622D01*
X164900712Y-112427216D01*
X164805474Y-112617692D01*
X164794964Y-112645155D01*
X164794581Y-112650532D01*
X164792520Y-112655510D01*
X164789638Y-112684774D01*
X164567416Y-112684774D01*
X164567416Y-110589536D01*
X164789638Y-110589536D01*
X164789638Y-111065727D01*
X164792520Y-111094991D01*
X164794581Y-111099968D01*
X164794964Y-111105346D01*
X164805474Y-111132809D01*
X164900712Y-111323285D01*
X164908639Y-111335878D01*
X164910155Y-111339538D01*
X164913536Y-111343657D01*
X164916377Y-111348171D01*
X164919371Y-111350767D01*
X164928810Y-111362269D01*
X165024048Y-111457507D01*
X165035549Y-111466946D01*
X165038146Y-111469940D01*
X165042659Y-111472780D01*
X165046779Y-111476162D01*
X165050438Y-111477677D01*
X165063032Y-111485605D01*
X165253508Y-111580843D01*
X165280972Y-111591353D01*
X165286347Y-111591734D01*
X165291326Y-111593797D01*
X165320590Y-111596679D01*
X165511066Y-111596679D01*
X165540330Y-111593797D01*
X165545307Y-111591735D01*
X165550685Y-111591353D01*
X165578148Y-111580843D01*
X165768624Y-111485605D01*
X165781217Y-111477677D01*
X165784877Y-111476162D01*
X165788996Y-111472780D01*
X165793510Y-111469940D01*
X165796106Y-111466945D01*
X165807608Y-111457507D01*
X165902846Y-111362269D01*
X165912285Y-111350767D01*
X165915279Y-111348171D01*
X165918120Y-111343657D01*
X165921501Y-111339538D01*
X165923016Y-111335879D01*
X165930944Y-111323286D01*
X166026183Y-111132810D01*
X166027002Y-111130669D01*
X166027647Y-111129799D01*
X166032034Y-111117519D01*
X166036692Y-111105346D01*
X166036768Y-111104265D01*
X166037540Y-111102107D01*
X166128784Y-110737129D01*
X166205773Y-110583152D01*
X166266587Y-110522338D01*
X166403619Y-110453822D01*
X166523275Y-110453822D01*
X166660307Y-110522338D01*
X166721122Y-110583152D01*
X166789638Y-110720184D01*
X166789638Y-111136625D01*
X166702098Y-111399245D01*
X166695578Y-111427918D01*
X166699727Y-111486299D01*
X166725901Y-111538646D01*
X166770115Y-111576993D01*
X166825639Y-111595501D01*
X166884020Y-111591352D01*
X166936367Y-111565178D01*
X166974714Y-111520964D01*
X166986702Y-111494113D01*
X167081940Y-111208399D01*
X167085238Y-111193891D01*
X167086756Y-111190229D01*
X167087278Y-111184920D01*
X167088460Y-111179726D01*
X167088179Y-111175776D01*
X167089638Y-111160965D01*
X167089638Y-110684774D01*
X167086756Y-110655510D01*
X167084693Y-110650531D01*
X167084312Y-110645156D01*
X167073802Y-110617692D01*
X166978564Y-110427216D01*
X166970637Y-110414624D01*
X166969121Y-110410962D01*
X166965737Y-110406839D01*
X166962899Y-110402330D01*
X166959906Y-110399734D01*
X166950466Y-110388232D01*
X166855226Y-110292993D01*
X166843725Y-110283554D01*
X166841129Y-110280561D01*
X166836616Y-110277720D01*
X166832496Y-110274339D01*
X166828836Y-110272823D01*
X166816243Y-110264896D01*
X166625767Y-110169658D01*
X166598304Y-110159148D01*
X166592926Y-110158765D01*
X166587949Y-110156704D01*
X166558685Y-110153822D01*
X166368209Y-110153822D01*
X166338945Y-110156704D01*
X166333966Y-110158766D01*
X166328591Y-110159148D01*
X166301127Y-110169658D01*
X166110651Y-110264896D01*
X166098057Y-110272823D01*
X166094398Y-110274339D01*
X166090278Y-110277720D01*
X166085765Y-110280561D01*
X166083168Y-110283554D01*
X166071667Y-110292994D01*
X165976429Y-110388232D01*
X165966990Y-110399733D01*
X165963996Y-110402330D01*
X165961155Y-110406843D01*
X165957774Y-110410963D01*
X165956258Y-110414622D01*
X165948331Y-110427216D01*
X165853093Y-110617692D01*
X165852273Y-110619832D01*
X165851629Y-110620703D01*
X165847250Y-110632958D01*
X165842583Y-110645155D01*
X165842506Y-110646238D01*
X165841736Y-110648394D01*
X165750492Y-111013368D01*
X165673501Y-111167349D01*
X165612688Y-111228163D01*
X165475656Y-111296679D01*
X165356000Y-111296679D01*
X165218968Y-111228163D01*
X165158154Y-111167349D01*
X165089638Y-111030317D01*
X165089638Y-110613876D01*
X165177178Y-110351256D01*
X165183698Y-110322583D01*
X165179549Y-110264202D01*
X165153375Y-110211855D01*
X165109161Y-110173508D01*
X165053637Y-110155000D01*
X164995256Y-110159149D01*
X164942909Y-110185323D01*
X164904562Y-110229537D01*
X164892574Y-110256388D01*
X164797336Y-110542102D01*
X164794037Y-110556609D01*
X164792520Y-110560272D01*
X164791997Y-110565580D01*
X164790816Y-110570775D01*
X164791096Y-110574724D01*
X164789638Y-110589536D01*
X164567416Y-110589536D01*
X164567416Y-108684774D01*
X164789638Y-108684774D01*
X164789638Y-109446679D01*
X164792520Y-109475943D01*
X164814918Y-109530015D01*
X164856302Y-109571399D01*
X164910374Y-109593797D01*
X164939638Y-109596679D01*
X166939638Y-109596679D01*
X166968902Y-109593797D01*
X167022974Y-109571399D01*
X167064358Y-109530015D01*
X167086756Y-109475943D01*
X167086756Y-109417415D01*
X167064358Y-109363343D01*
X167022974Y-109321959D01*
X166968902Y-109299561D01*
X166939638Y-109296679D01*
X166137257Y-109296679D01*
X166137257Y-108684774D01*
X166134375Y-108655510D01*
X166132312Y-108650531D01*
X166131931Y-108645156D01*
X166121421Y-108617692D01*
X166026183Y-108427216D01*
X166018256Y-108414624D01*
X166016740Y-108410962D01*
X166013356Y-108406839D01*
X166010518Y-108402330D01*
X166007525Y-108399734D01*
X165998085Y-108388232D01*
X165902845Y-108292993D01*
X165891344Y-108283554D01*
X165888748Y-108280561D01*
X165884235Y-108277720D01*
X165880115Y-108274339D01*
X165876455Y-108272823D01*
X165863862Y-108264896D01*
X165673386Y-108169658D01*
X165645923Y-108159148D01*
X165640545Y-108158765D01*
X165635568Y-108156704D01*
X165606304Y-108153822D01*
X165320590Y-108153822D01*
X165291326Y-108156704D01*
X165286347Y-108158766D01*
X165280972Y-108159148D01*
X165253508Y-108169658D01*
X165063032Y-108264896D01*
X165050438Y-108272823D01*
X165046779Y-108274339D01*
X165042659Y-108277720D01*
X165038146Y-108280561D01*
X165035549Y-108283554D01*
X165024048Y-108292994D01*
X164928810Y-108388232D01*
X164919371Y-108399733D01*
X164916377Y-108402330D01*
X164913536Y-108406843D01*
X164910155Y-108410963D01*
X164908639Y-108414622D01*
X164900712Y-108427216D01*
X164805474Y-108617692D01*
X164794964Y-108645155D01*
X164794581Y-108650532D01*
X164792520Y-108655510D01*
X164789638Y-108684774D01*
X164567416Y-108684774D01*
X164567416Y-106970489D01*
X164789638Y-106970489D01*
X164789638Y-107446679D01*
X164792520Y-107475943D01*
X164814918Y-107530015D01*
X164856302Y-107571399D01*
X164910374Y-107593797D01*
X164939638Y-107596679D01*
X166939638Y-107596679D01*
X166968902Y-107593797D01*
X167022974Y-107571399D01*
X167064358Y-107530015D01*
X167086756Y-107475943D01*
X167089638Y-107446679D01*
X167089638Y-106970489D01*
X167088179Y-106955683D01*
X167088461Y-106951729D01*
X167087278Y-106946527D01*
X167086756Y-106941225D01*
X167085240Y-106937567D01*
X167081941Y-106923055D01*
X166986703Y-106637340D01*
X166974714Y-106610489D01*
X166971182Y-106606417D01*
X166969120Y-106601438D01*
X166950465Y-106578707D01*
X166759989Y-106388232D01*
X166748487Y-106378793D01*
X166745891Y-106375799D01*
X166741377Y-106372958D01*
X166737258Y-106369577D01*
X166733598Y-106368061D01*
X166721005Y-106360134D01*
X166530529Y-106264896D01*
X166528388Y-106264076D01*
X166527518Y-106263432D01*
X166515262Y-106259053D01*
X166503066Y-106254386D01*
X166501982Y-106254309D01*
X166499827Y-106253539D01*
X166118875Y-106158301D01*
X166113803Y-106157551D01*
X166111759Y-106156704D01*
X166100736Y-106155618D01*
X166089786Y-106153999D01*
X166087598Y-106154324D01*
X166082495Y-106153822D01*
X165796780Y-106153822D01*
X165791676Y-106154324D01*
X165789489Y-106153999D01*
X165778537Y-106155618D01*
X165767516Y-106156704D01*
X165765471Y-106157550D01*
X165760399Y-106158301D01*
X165379448Y-106253539D01*
X165377292Y-106254309D01*
X165376210Y-106254386D01*
X165364029Y-106259047D01*
X165351756Y-106263432D01*
X165350884Y-106264077D01*
X165348746Y-106264896D01*
X165158270Y-106360134D01*
X165145676Y-106368061D01*
X165142017Y-106369577D01*
X165137897Y-106372958D01*
X165133384Y-106375799D01*
X165130787Y-106378792D01*
X165119286Y-106388232D01*
X164928810Y-106578708D01*
X164910155Y-106601439D01*
X164908092Y-106606418D01*
X164904562Y-106610489D01*
X164892573Y-106637340D01*
X164797335Y-106923055D01*
X164794036Y-106937564D01*
X164792520Y-106941225D01*
X164791997Y-106946533D01*
X164790816Y-106951729D01*
X164791096Y-106955677D01*
X164789638Y-106970489D01*
X164567416Y-106970489D01*
X164567416Y-105931600D01*
X167311860Y-105931600D01*
X167311860Y-113723663D01*
G37*
D11*
X161236066Y-78042419D02*
X161236066Y-78756704D01*
X161236066Y-78756704D02*
X161188447Y-78899561D01*
X161188447Y-78899561D02*
X161093209Y-78994800D01*
X161093209Y-78994800D02*
X160950352Y-79042419D01*
X160950352Y-79042419D02*
X160855114Y-79042419D01*
X161617019Y-78042419D02*
X162236066Y-78042419D01*
X162236066Y-78042419D02*
X161902733Y-78423371D01*
X161902733Y-78423371D02*
X162045590Y-78423371D01*
X162045590Y-78423371D02*
X162140828Y-78470990D01*
X162140828Y-78470990D02*
X162188447Y-78518609D01*
X162188447Y-78518609D02*
X162236066Y-78613847D01*
X162236066Y-78613847D02*
X162236066Y-78851942D01*
X162236066Y-78851942D02*
X162188447Y-78947180D01*
X162188447Y-78947180D02*
X162140828Y-78994800D01*
X162140828Y-78994800D02*
X162045590Y-79042419D01*
X162045590Y-79042419D02*
X161759876Y-79042419D01*
X161759876Y-79042419D02*
X161664638Y-78994800D01*
X161664638Y-78994800D02*
X161617019Y-78947180D01*
X123509580Y-104292857D02*
X123557200Y-104340476D01*
X123557200Y-104340476D02*
X123604819Y-104483333D01*
X123604819Y-104483333D02*
X123604819Y-104578571D01*
X123604819Y-104578571D02*
X123557200Y-104721428D01*
X123557200Y-104721428D02*
X123461961Y-104816666D01*
X123461961Y-104816666D02*
X123366723Y-104864285D01*
X123366723Y-104864285D02*
X123176247Y-104911904D01*
X123176247Y-104911904D02*
X123033390Y-104911904D01*
X123033390Y-104911904D02*
X122842914Y-104864285D01*
X122842914Y-104864285D02*
X122747676Y-104816666D01*
X122747676Y-104816666D02*
X122652438Y-104721428D01*
X122652438Y-104721428D02*
X122604819Y-104578571D01*
X122604819Y-104578571D02*
X122604819Y-104483333D01*
X122604819Y-104483333D02*
X122652438Y-104340476D01*
X122652438Y-104340476D02*
X122700057Y-104292857D01*
X122700057Y-103911904D02*
X122652438Y-103864285D01*
X122652438Y-103864285D02*
X122604819Y-103769047D01*
X122604819Y-103769047D02*
X122604819Y-103530952D01*
X122604819Y-103530952D02*
X122652438Y-103435714D01*
X122652438Y-103435714D02*
X122700057Y-103388095D01*
X122700057Y-103388095D02*
X122795295Y-103340476D01*
X122795295Y-103340476D02*
X122890533Y-103340476D01*
X122890533Y-103340476D02*
X123033390Y-103388095D01*
X123033390Y-103388095D02*
X123604819Y-103959523D01*
X123604819Y-103959523D02*
X123604819Y-103340476D01*
X122604819Y-102721428D02*
X122604819Y-102626190D01*
X122604819Y-102626190D02*
X122652438Y-102530952D01*
X122652438Y-102530952D02*
X122700057Y-102483333D01*
X122700057Y-102483333D02*
X122795295Y-102435714D01*
X122795295Y-102435714D02*
X122985771Y-102388095D01*
X122985771Y-102388095D02*
X123223866Y-102388095D01*
X123223866Y-102388095D02*
X123414342Y-102435714D01*
X123414342Y-102435714D02*
X123509580Y-102483333D01*
X123509580Y-102483333D02*
X123557200Y-102530952D01*
X123557200Y-102530952D02*
X123604819Y-102626190D01*
X123604819Y-102626190D02*
X123604819Y-102721428D01*
X123604819Y-102721428D02*
X123557200Y-102816666D01*
X123557200Y-102816666D02*
X123509580Y-102864285D01*
X123509580Y-102864285D02*
X123414342Y-102911904D01*
X123414342Y-102911904D02*
X123223866Y-102959523D01*
X123223866Y-102959523D02*
X122985771Y-102959523D01*
X122985771Y-102959523D02*
X122795295Y-102911904D01*
X122795295Y-102911904D02*
X122700057Y-102864285D01*
X122700057Y-102864285D02*
X122652438Y-102816666D01*
X122652438Y-102816666D02*
X122604819Y-102721428D01*
X147400180Y-90457257D02*
X147447800Y-90504876D01*
X147447800Y-90504876D02*
X147495419Y-90647733D01*
X147495419Y-90647733D02*
X147495419Y-90742971D01*
X147495419Y-90742971D02*
X147447800Y-90885828D01*
X147447800Y-90885828D02*
X147352561Y-90981066D01*
X147352561Y-90981066D02*
X147257323Y-91028685D01*
X147257323Y-91028685D02*
X147066847Y-91076304D01*
X147066847Y-91076304D02*
X146923990Y-91076304D01*
X146923990Y-91076304D02*
X146733514Y-91028685D01*
X146733514Y-91028685D02*
X146638276Y-90981066D01*
X146638276Y-90981066D02*
X146543038Y-90885828D01*
X146543038Y-90885828D02*
X146495419Y-90742971D01*
X146495419Y-90742971D02*
X146495419Y-90647733D01*
X146495419Y-90647733D02*
X146543038Y-90504876D01*
X146543038Y-90504876D02*
X146590657Y-90457257D01*
X146590657Y-90076304D02*
X146543038Y-90028685D01*
X146543038Y-90028685D02*
X146495419Y-89933447D01*
X146495419Y-89933447D02*
X146495419Y-89695352D01*
X146495419Y-89695352D02*
X146543038Y-89600114D01*
X146543038Y-89600114D02*
X146590657Y-89552495D01*
X146590657Y-89552495D02*
X146685895Y-89504876D01*
X146685895Y-89504876D02*
X146781133Y-89504876D01*
X146781133Y-89504876D02*
X146923990Y-89552495D01*
X146923990Y-89552495D02*
X147495419Y-90123923D01*
X147495419Y-90123923D02*
X147495419Y-89504876D01*
X146828752Y-88647733D02*
X147495419Y-88647733D01*
X146447800Y-88885828D02*
X147162085Y-89123923D01*
X147162085Y-89123923D02*
X147162085Y-88504876D01*
X105582142Y-93859580D02*
X105534523Y-93907200D01*
X105534523Y-93907200D02*
X105391666Y-93954819D01*
X105391666Y-93954819D02*
X105296428Y-93954819D01*
X105296428Y-93954819D02*
X105153571Y-93907200D01*
X105153571Y-93907200D02*
X105058333Y-93811961D01*
X105058333Y-93811961D02*
X105010714Y-93716723D01*
X105010714Y-93716723D02*
X104963095Y-93526247D01*
X104963095Y-93526247D02*
X104963095Y-93383390D01*
X104963095Y-93383390D02*
X105010714Y-93192914D01*
X105010714Y-93192914D02*
X105058333Y-93097676D01*
X105058333Y-93097676D02*
X105153571Y-93002438D01*
X105153571Y-93002438D02*
X105296428Y-92954819D01*
X105296428Y-92954819D02*
X105391666Y-92954819D01*
X105391666Y-92954819D02*
X105534523Y-93002438D01*
X105534523Y-93002438D02*
X105582142Y-93050057D01*
X106534523Y-93954819D02*
X105963095Y-93954819D01*
X106248809Y-93954819D02*
X106248809Y-92954819D01*
X106248809Y-92954819D02*
X106153571Y-93097676D01*
X106153571Y-93097676D02*
X106058333Y-93192914D01*
X106058333Y-93192914D02*
X105963095Y-93240533D01*
X107105952Y-93383390D02*
X107010714Y-93335771D01*
X107010714Y-93335771D02*
X106963095Y-93288152D01*
X106963095Y-93288152D02*
X106915476Y-93192914D01*
X106915476Y-93192914D02*
X106915476Y-93145295D01*
X106915476Y-93145295D02*
X106963095Y-93050057D01*
X106963095Y-93050057D02*
X107010714Y-93002438D01*
X107010714Y-93002438D02*
X107105952Y-92954819D01*
X107105952Y-92954819D02*
X107296428Y-92954819D01*
X107296428Y-92954819D02*
X107391666Y-93002438D01*
X107391666Y-93002438D02*
X107439285Y-93050057D01*
X107439285Y-93050057D02*
X107486904Y-93145295D01*
X107486904Y-93145295D02*
X107486904Y-93192914D01*
X107486904Y-93192914D02*
X107439285Y-93288152D01*
X107439285Y-93288152D02*
X107391666Y-93335771D01*
X107391666Y-93335771D02*
X107296428Y-93383390D01*
X107296428Y-93383390D02*
X107105952Y-93383390D01*
X107105952Y-93383390D02*
X107010714Y-93431009D01*
X107010714Y-93431009D02*
X106963095Y-93478628D01*
X106963095Y-93478628D02*
X106915476Y-93573866D01*
X106915476Y-93573866D02*
X106915476Y-93764342D01*
X106915476Y-93764342D02*
X106963095Y-93859580D01*
X106963095Y-93859580D02*
X107010714Y-93907200D01*
X107010714Y-93907200D02*
X107105952Y-93954819D01*
X107105952Y-93954819D02*
X107296428Y-93954819D01*
X107296428Y-93954819D02*
X107391666Y-93907200D01*
X107391666Y-93907200D02*
X107439285Y-93859580D01*
X107439285Y-93859580D02*
X107486904Y-93764342D01*
X107486904Y-93764342D02*
X107486904Y-93573866D01*
X107486904Y-93573866D02*
X107439285Y-93478628D01*
X107439285Y-93478628D02*
X107391666Y-93431009D01*
X107391666Y-93431009D02*
X107296428Y-93383390D01*
X116120942Y-88141980D02*
X116073323Y-88189600D01*
X116073323Y-88189600D02*
X115930466Y-88237219D01*
X115930466Y-88237219D02*
X115835228Y-88237219D01*
X115835228Y-88237219D02*
X115692371Y-88189600D01*
X115692371Y-88189600D02*
X115597133Y-88094361D01*
X115597133Y-88094361D02*
X115549514Y-87999123D01*
X115549514Y-87999123D02*
X115501895Y-87808647D01*
X115501895Y-87808647D02*
X115501895Y-87665790D01*
X115501895Y-87665790D02*
X115549514Y-87475314D01*
X115549514Y-87475314D02*
X115597133Y-87380076D01*
X115597133Y-87380076D02*
X115692371Y-87284838D01*
X115692371Y-87284838D02*
X115835228Y-87237219D01*
X115835228Y-87237219D02*
X115930466Y-87237219D01*
X115930466Y-87237219D02*
X116073323Y-87284838D01*
X116073323Y-87284838D02*
X116120942Y-87332457D01*
X116501895Y-87332457D02*
X116549514Y-87284838D01*
X116549514Y-87284838D02*
X116644752Y-87237219D01*
X116644752Y-87237219D02*
X116882847Y-87237219D01*
X116882847Y-87237219D02*
X116978085Y-87284838D01*
X116978085Y-87284838D02*
X117025704Y-87332457D01*
X117025704Y-87332457D02*
X117073323Y-87427695D01*
X117073323Y-87427695D02*
X117073323Y-87522933D01*
X117073323Y-87522933D02*
X117025704Y-87665790D01*
X117025704Y-87665790D02*
X116454276Y-88237219D01*
X116454276Y-88237219D02*
X117073323Y-88237219D01*
X117978085Y-87237219D02*
X117501895Y-87237219D01*
X117501895Y-87237219D02*
X117454276Y-87713409D01*
X117454276Y-87713409D02*
X117501895Y-87665790D01*
X117501895Y-87665790D02*
X117597133Y-87618171D01*
X117597133Y-87618171D02*
X117835228Y-87618171D01*
X117835228Y-87618171D02*
X117930466Y-87665790D01*
X117930466Y-87665790D02*
X117978085Y-87713409D01*
X117978085Y-87713409D02*
X118025704Y-87808647D01*
X118025704Y-87808647D02*
X118025704Y-88046742D01*
X118025704Y-88046742D02*
X117978085Y-88141980D01*
X117978085Y-88141980D02*
X117930466Y-88189600D01*
X117930466Y-88189600D02*
X117835228Y-88237219D01*
X117835228Y-88237219D02*
X117597133Y-88237219D01*
X117597133Y-88237219D02*
X117501895Y-88189600D01*
X117501895Y-88189600D02*
X117454276Y-88141980D01*
X146607142Y-100529819D02*
X146273809Y-100053628D01*
X146035714Y-100529819D02*
X146035714Y-99529819D01*
X146035714Y-99529819D02*
X146416666Y-99529819D01*
X146416666Y-99529819D02*
X146511904Y-99577438D01*
X146511904Y-99577438D02*
X146559523Y-99625057D01*
X146559523Y-99625057D02*
X146607142Y-99720295D01*
X146607142Y-99720295D02*
X146607142Y-99863152D01*
X146607142Y-99863152D02*
X146559523Y-99958390D01*
X146559523Y-99958390D02*
X146511904Y-100006009D01*
X146511904Y-100006009D02*
X146416666Y-100053628D01*
X146416666Y-100053628D02*
X146035714Y-100053628D01*
X147559523Y-100529819D02*
X146988095Y-100529819D01*
X147273809Y-100529819D02*
X147273809Y-99529819D01*
X147273809Y-99529819D02*
X147178571Y-99672676D01*
X147178571Y-99672676D02*
X147083333Y-99767914D01*
X147083333Y-99767914D02*
X146988095Y-99815533D01*
X147892857Y-99529819D02*
X148559523Y-99529819D01*
X148559523Y-99529819D02*
X148130952Y-100529819D01*
X111208095Y-69867319D02*
X111208095Y-70676842D01*
X111208095Y-70676842D02*
X111255714Y-70772080D01*
X111255714Y-70772080D02*
X111303333Y-70819700D01*
X111303333Y-70819700D02*
X111398571Y-70867319D01*
X111398571Y-70867319D02*
X111589047Y-70867319D01*
X111589047Y-70867319D02*
X111684285Y-70819700D01*
X111684285Y-70819700D02*
X111731904Y-70772080D01*
X111731904Y-70772080D02*
X111779523Y-70676842D01*
X111779523Y-70676842D02*
X111779523Y-69867319D01*
X112160476Y-69867319D02*
X112779523Y-69867319D01*
X112779523Y-69867319D02*
X112446190Y-70248271D01*
X112446190Y-70248271D02*
X112589047Y-70248271D01*
X112589047Y-70248271D02*
X112684285Y-70295890D01*
X112684285Y-70295890D02*
X112731904Y-70343509D01*
X112731904Y-70343509D02*
X112779523Y-70438747D01*
X112779523Y-70438747D02*
X112779523Y-70676842D01*
X112779523Y-70676842D02*
X112731904Y-70772080D01*
X112731904Y-70772080D02*
X112684285Y-70819700D01*
X112684285Y-70819700D02*
X112589047Y-70867319D01*
X112589047Y-70867319D02*
X112303333Y-70867319D01*
X112303333Y-70867319D02*
X112208095Y-70819700D01*
X112208095Y-70819700D02*
X112160476Y-70772080D01*
X110948419Y-118418333D02*
X111662704Y-118418333D01*
X111662704Y-118418333D02*
X111805561Y-118465952D01*
X111805561Y-118465952D02*
X111900800Y-118561190D01*
X111900800Y-118561190D02*
X111948419Y-118704047D01*
X111948419Y-118704047D02*
X111948419Y-118799285D01*
X111281752Y-117513571D02*
X111948419Y-117513571D01*
X110900800Y-117751666D02*
X111615085Y-117989761D01*
X111615085Y-117989761D02*
X111615085Y-117370714D01*
X114012742Y-86916419D02*
X113679409Y-86440228D01*
X113441314Y-86916419D02*
X113441314Y-85916419D01*
X113441314Y-85916419D02*
X113822266Y-85916419D01*
X113822266Y-85916419D02*
X113917504Y-85964038D01*
X113917504Y-85964038D02*
X113965123Y-86011657D01*
X113965123Y-86011657D02*
X114012742Y-86106895D01*
X114012742Y-86106895D02*
X114012742Y-86249752D01*
X114012742Y-86249752D02*
X113965123Y-86344990D01*
X113965123Y-86344990D02*
X113917504Y-86392609D01*
X113917504Y-86392609D02*
X113822266Y-86440228D01*
X113822266Y-86440228D02*
X113441314Y-86440228D01*
X114965123Y-86916419D02*
X114393695Y-86916419D01*
X114679409Y-86916419D02*
X114679409Y-85916419D01*
X114679409Y-85916419D02*
X114584171Y-86059276D01*
X114584171Y-86059276D02*
X114488933Y-86154514D01*
X114488933Y-86154514D02*
X114393695Y-86202133D01*
X115917504Y-86916419D02*
X115346076Y-86916419D01*
X115631790Y-86916419D02*
X115631790Y-85916419D01*
X115631790Y-85916419D02*
X115536552Y-86059276D01*
X115536552Y-86059276D02*
X115441314Y-86154514D01*
X115441314Y-86154514D02*
X115346076Y-86202133D01*
X104192062Y-109746586D02*
X104763490Y-109746586D01*
X104477776Y-110746586D02*
X104477776Y-109746586D01*
X105096824Y-110746586D02*
X105096824Y-109746586D01*
X105096824Y-109746586D02*
X105477776Y-109746586D01*
X105477776Y-109746586D02*
X105573014Y-109794205D01*
X105573014Y-109794205D02*
X105620633Y-109841824D01*
X105620633Y-109841824D02*
X105668252Y-109937062D01*
X105668252Y-109937062D02*
X105668252Y-110079919D01*
X105668252Y-110079919D02*
X105620633Y-110175157D01*
X105620633Y-110175157D02*
X105573014Y-110222776D01*
X105573014Y-110222776D02*
X105477776Y-110270395D01*
X105477776Y-110270395D02*
X105096824Y-110270395D01*
X106239681Y-110175157D02*
X106144443Y-110127538D01*
X106144443Y-110127538D02*
X106096824Y-110079919D01*
X106096824Y-110079919D02*
X106049205Y-109984681D01*
X106049205Y-109984681D02*
X106049205Y-109937062D01*
X106049205Y-109937062D02*
X106096824Y-109841824D01*
X106096824Y-109841824D02*
X106144443Y-109794205D01*
X106144443Y-109794205D02*
X106239681Y-109746586D01*
X106239681Y-109746586D02*
X106430157Y-109746586D01*
X106430157Y-109746586D02*
X106525395Y-109794205D01*
X106525395Y-109794205D02*
X106573014Y-109841824D01*
X106573014Y-109841824D02*
X106620633Y-109937062D01*
X106620633Y-109937062D02*
X106620633Y-109984681D01*
X106620633Y-109984681D02*
X106573014Y-110079919D01*
X106573014Y-110079919D02*
X106525395Y-110127538D01*
X106525395Y-110127538D02*
X106430157Y-110175157D01*
X106430157Y-110175157D02*
X106239681Y-110175157D01*
X106239681Y-110175157D02*
X106144443Y-110222776D01*
X106144443Y-110222776D02*
X106096824Y-110270395D01*
X106096824Y-110270395D02*
X106049205Y-110365633D01*
X106049205Y-110365633D02*
X106049205Y-110556109D01*
X106049205Y-110556109D02*
X106096824Y-110651347D01*
X106096824Y-110651347D02*
X106144443Y-110698967D01*
X106144443Y-110698967D02*
X106239681Y-110746586D01*
X106239681Y-110746586D02*
X106430157Y-110746586D01*
X106430157Y-110746586D02*
X106525395Y-110698967D01*
X106525395Y-110698967D02*
X106573014Y-110651347D01*
X106573014Y-110651347D02*
X106620633Y-110556109D01*
X106620633Y-110556109D02*
X106620633Y-110365633D01*
X106620633Y-110365633D02*
X106573014Y-110270395D01*
X106573014Y-110270395D02*
X106525395Y-110222776D01*
X106525395Y-110222776D02*
X106430157Y-110175157D01*
X154468533Y-70863619D02*
X154135200Y-70387428D01*
X153897105Y-70863619D02*
X153897105Y-69863619D01*
X153897105Y-69863619D02*
X154278057Y-69863619D01*
X154278057Y-69863619D02*
X154373295Y-69911238D01*
X154373295Y-69911238D02*
X154420914Y-69958857D01*
X154420914Y-69958857D02*
X154468533Y-70054095D01*
X154468533Y-70054095D02*
X154468533Y-70196952D01*
X154468533Y-70196952D02*
X154420914Y-70292190D01*
X154420914Y-70292190D02*
X154373295Y-70339809D01*
X154373295Y-70339809D02*
X154278057Y-70387428D01*
X154278057Y-70387428D02*
X153897105Y-70387428D01*
X155420914Y-70863619D02*
X154849486Y-70863619D01*
X155135200Y-70863619D02*
X155135200Y-69863619D01*
X155135200Y-69863619D02*
X155039962Y-70006476D01*
X155039962Y-70006476D02*
X154944724Y-70101714D01*
X154944724Y-70101714D02*
X154849486Y-70149333D01*
X130156105Y-106261819D02*
X130156105Y-107071342D01*
X130156105Y-107071342D02*
X130203724Y-107166580D01*
X130203724Y-107166580D02*
X130251343Y-107214200D01*
X130251343Y-107214200D02*
X130346581Y-107261819D01*
X130346581Y-107261819D02*
X130537057Y-107261819D01*
X130537057Y-107261819D02*
X130632295Y-107214200D01*
X130632295Y-107214200D02*
X130679914Y-107166580D01*
X130679914Y-107166580D02*
X130727533Y-107071342D01*
X130727533Y-107071342D02*
X130727533Y-106261819D01*
X131727533Y-107261819D02*
X131156105Y-107261819D01*
X131441819Y-107261819D02*
X131441819Y-106261819D01*
X131441819Y-106261819D02*
X131346581Y-106404676D01*
X131346581Y-106404676D02*
X131251343Y-106499914D01*
X131251343Y-106499914D02*
X131156105Y-106547533D01*
X132108486Y-106357057D02*
X132156105Y-106309438D01*
X132156105Y-106309438D02*
X132251343Y-106261819D01*
X132251343Y-106261819D02*
X132489438Y-106261819D01*
X132489438Y-106261819D02*
X132584676Y-106309438D01*
X132584676Y-106309438D02*
X132632295Y-106357057D01*
X132632295Y-106357057D02*
X132679914Y-106452295D01*
X132679914Y-106452295D02*
X132679914Y-106547533D01*
X132679914Y-106547533D02*
X132632295Y-106690390D01*
X132632295Y-106690390D02*
X132060867Y-107261819D01*
X132060867Y-107261819D02*
X132679914Y-107261819D01*
X111142542Y-82274580D02*
X111094923Y-82322200D01*
X111094923Y-82322200D02*
X110952066Y-82369819D01*
X110952066Y-82369819D02*
X110856828Y-82369819D01*
X110856828Y-82369819D02*
X110713971Y-82322200D01*
X110713971Y-82322200D02*
X110618733Y-82226961D01*
X110618733Y-82226961D02*
X110571114Y-82131723D01*
X110571114Y-82131723D02*
X110523495Y-81941247D01*
X110523495Y-81941247D02*
X110523495Y-81798390D01*
X110523495Y-81798390D02*
X110571114Y-81607914D01*
X110571114Y-81607914D02*
X110618733Y-81512676D01*
X110618733Y-81512676D02*
X110713971Y-81417438D01*
X110713971Y-81417438D02*
X110856828Y-81369819D01*
X110856828Y-81369819D02*
X110952066Y-81369819D01*
X110952066Y-81369819D02*
X111094923Y-81417438D01*
X111094923Y-81417438D02*
X111142542Y-81465057D01*
X112094923Y-82369819D02*
X111523495Y-82369819D01*
X111809209Y-82369819D02*
X111809209Y-81369819D01*
X111809209Y-81369819D02*
X111713971Y-81512676D01*
X111713971Y-81512676D02*
X111618733Y-81607914D01*
X111618733Y-81607914D02*
X111523495Y-81655533D01*
X112999685Y-81369819D02*
X112523495Y-81369819D01*
X112523495Y-81369819D02*
X112475876Y-81846009D01*
X112475876Y-81846009D02*
X112523495Y-81798390D01*
X112523495Y-81798390D02*
X112618733Y-81750771D01*
X112618733Y-81750771D02*
X112856828Y-81750771D01*
X112856828Y-81750771D02*
X112952066Y-81798390D01*
X112952066Y-81798390D02*
X112999685Y-81846009D01*
X112999685Y-81846009D02*
X113047304Y-81941247D01*
X113047304Y-81941247D02*
X113047304Y-82179342D01*
X113047304Y-82179342D02*
X112999685Y-82274580D01*
X112999685Y-82274580D02*
X112952066Y-82322200D01*
X112952066Y-82322200D02*
X112856828Y-82369819D01*
X112856828Y-82369819D02*
X112618733Y-82369819D01*
X112618733Y-82369819D02*
X112523495Y-82322200D01*
X112523495Y-82322200D02*
X112475876Y-82274580D01*
X136276142Y-100791580D02*
X136228523Y-100839200D01*
X136228523Y-100839200D02*
X136085666Y-100886819D01*
X136085666Y-100886819D02*
X135990428Y-100886819D01*
X135990428Y-100886819D02*
X135847571Y-100839200D01*
X135847571Y-100839200D02*
X135752333Y-100743961D01*
X135752333Y-100743961D02*
X135704714Y-100648723D01*
X135704714Y-100648723D02*
X135657095Y-100458247D01*
X135657095Y-100458247D02*
X135657095Y-100315390D01*
X135657095Y-100315390D02*
X135704714Y-100124914D01*
X135704714Y-100124914D02*
X135752333Y-100029676D01*
X135752333Y-100029676D02*
X135847571Y-99934438D01*
X135847571Y-99934438D02*
X135990428Y-99886819D01*
X135990428Y-99886819D02*
X136085666Y-99886819D01*
X136085666Y-99886819D02*
X136228523Y-99934438D01*
X136228523Y-99934438D02*
X136276142Y-99982057D01*
X137228523Y-100886819D02*
X136657095Y-100886819D01*
X136942809Y-100886819D02*
X136942809Y-99886819D01*
X136942809Y-99886819D02*
X136847571Y-100029676D01*
X136847571Y-100029676D02*
X136752333Y-100124914D01*
X136752333Y-100124914D02*
X136657095Y-100172533D01*
X137704714Y-100886819D02*
X137895190Y-100886819D01*
X137895190Y-100886819D02*
X137990428Y-100839200D01*
X137990428Y-100839200D02*
X138038047Y-100791580D01*
X138038047Y-100791580D02*
X138133285Y-100648723D01*
X138133285Y-100648723D02*
X138180904Y-100458247D01*
X138180904Y-100458247D02*
X138180904Y-100077295D01*
X138180904Y-100077295D02*
X138133285Y-99982057D01*
X138133285Y-99982057D02*
X138085666Y-99934438D01*
X138085666Y-99934438D02*
X137990428Y-99886819D01*
X137990428Y-99886819D02*
X137799952Y-99886819D01*
X137799952Y-99886819D02*
X137704714Y-99934438D01*
X137704714Y-99934438D02*
X137657095Y-99982057D01*
X137657095Y-99982057D02*
X137609476Y-100077295D01*
X137609476Y-100077295D02*
X137609476Y-100315390D01*
X137609476Y-100315390D02*
X137657095Y-100410628D01*
X137657095Y-100410628D02*
X137704714Y-100458247D01*
X137704714Y-100458247D02*
X137799952Y-100505866D01*
X137799952Y-100505866D02*
X137990428Y-100505866D01*
X137990428Y-100505866D02*
X138085666Y-100458247D01*
X138085666Y-100458247D02*
X138133285Y-100410628D01*
X138133285Y-100410628D02*
X138180904Y-100315390D01*
X102756619Y-98678904D02*
X103566142Y-98678904D01*
X103566142Y-98678904D02*
X103661380Y-98631285D01*
X103661380Y-98631285D02*
X103709000Y-98583666D01*
X103709000Y-98583666D02*
X103756619Y-98488428D01*
X103756619Y-98488428D02*
X103756619Y-98297952D01*
X103756619Y-98297952D02*
X103709000Y-98202714D01*
X103709000Y-98202714D02*
X103661380Y-98155095D01*
X103661380Y-98155095D02*
X103566142Y-98107476D01*
X103566142Y-98107476D02*
X102756619Y-98107476D01*
X103756619Y-97583666D02*
X103756619Y-97393190D01*
X103756619Y-97393190D02*
X103709000Y-97297952D01*
X103709000Y-97297952D02*
X103661380Y-97250333D01*
X103661380Y-97250333D02*
X103518523Y-97155095D01*
X103518523Y-97155095D02*
X103328047Y-97107476D01*
X103328047Y-97107476D02*
X102947095Y-97107476D01*
X102947095Y-97107476D02*
X102851857Y-97155095D01*
X102851857Y-97155095D02*
X102804238Y-97202714D01*
X102804238Y-97202714D02*
X102756619Y-97297952D01*
X102756619Y-97297952D02*
X102756619Y-97488428D01*
X102756619Y-97488428D02*
X102804238Y-97583666D01*
X102804238Y-97583666D02*
X102851857Y-97631285D01*
X102851857Y-97631285D02*
X102947095Y-97678904D01*
X102947095Y-97678904D02*
X103185190Y-97678904D01*
X103185190Y-97678904D02*
X103280428Y-97631285D01*
X103280428Y-97631285D02*
X103328047Y-97583666D01*
X103328047Y-97583666D02*
X103375666Y-97488428D01*
X103375666Y-97488428D02*
X103375666Y-97297952D01*
X103375666Y-97297952D02*
X103328047Y-97202714D01*
X103328047Y-97202714D02*
X103280428Y-97155095D01*
X103280428Y-97155095D02*
X103185190Y-97107476D01*
X118846695Y-106896819D02*
X118846695Y-107706342D01*
X118846695Y-107706342D02*
X118894314Y-107801580D01*
X118894314Y-107801580D02*
X118941933Y-107849200D01*
X118941933Y-107849200D02*
X119037171Y-107896819D01*
X119037171Y-107896819D02*
X119227647Y-107896819D01*
X119227647Y-107896819D02*
X119322885Y-107849200D01*
X119322885Y-107849200D02*
X119370504Y-107801580D01*
X119370504Y-107801580D02*
X119418123Y-107706342D01*
X119418123Y-107706342D02*
X119418123Y-106896819D01*
X120322885Y-106896819D02*
X120132409Y-106896819D01*
X120132409Y-106896819D02*
X120037171Y-106944438D01*
X120037171Y-106944438D02*
X119989552Y-106992057D01*
X119989552Y-106992057D02*
X119894314Y-107134914D01*
X119894314Y-107134914D02*
X119846695Y-107325390D01*
X119846695Y-107325390D02*
X119846695Y-107706342D01*
X119846695Y-107706342D02*
X119894314Y-107801580D01*
X119894314Y-107801580D02*
X119941933Y-107849200D01*
X119941933Y-107849200D02*
X120037171Y-107896819D01*
X120037171Y-107896819D02*
X120227647Y-107896819D01*
X120227647Y-107896819D02*
X120322885Y-107849200D01*
X120322885Y-107849200D02*
X120370504Y-107801580D01*
X120370504Y-107801580D02*
X120418123Y-107706342D01*
X120418123Y-107706342D02*
X120418123Y-107468247D01*
X120418123Y-107468247D02*
X120370504Y-107373009D01*
X120370504Y-107373009D02*
X120322885Y-107325390D01*
X120322885Y-107325390D02*
X120227647Y-107277771D01*
X120227647Y-107277771D02*
X120037171Y-107277771D01*
X120037171Y-107277771D02*
X119941933Y-107325390D01*
X119941933Y-107325390D02*
X119894314Y-107373009D01*
X119894314Y-107373009D02*
X119846695Y-107468247D01*
X146382180Y-111422857D02*
X146429800Y-111470476D01*
X146429800Y-111470476D02*
X146477419Y-111613333D01*
X146477419Y-111613333D02*
X146477419Y-111708571D01*
X146477419Y-111708571D02*
X146429800Y-111851428D01*
X146429800Y-111851428D02*
X146334561Y-111946666D01*
X146334561Y-111946666D02*
X146239323Y-111994285D01*
X146239323Y-111994285D02*
X146048847Y-112041904D01*
X146048847Y-112041904D02*
X145905990Y-112041904D01*
X145905990Y-112041904D02*
X145715514Y-111994285D01*
X145715514Y-111994285D02*
X145620276Y-111946666D01*
X145620276Y-111946666D02*
X145525038Y-111851428D01*
X145525038Y-111851428D02*
X145477419Y-111708571D01*
X145477419Y-111708571D02*
X145477419Y-111613333D01*
X145477419Y-111613333D02*
X145525038Y-111470476D01*
X145525038Y-111470476D02*
X145572657Y-111422857D01*
X146477419Y-110470476D02*
X146477419Y-111041904D01*
X146477419Y-110756190D02*
X145477419Y-110756190D01*
X145477419Y-110756190D02*
X145620276Y-110851428D01*
X145620276Y-110851428D02*
X145715514Y-110946666D01*
X145715514Y-110946666D02*
X145763133Y-111041904D01*
X145810752Y-109613333D02*
X146477419Y-109613333D01*
X145429800Y-109851428D02*
X146144085Y-110089523D01*
X146144085Y-110089523D02*
X146144085Y-109470476D01*
X118539419Y-85478857D02*
X118063228Y-85812190D01*
X118539419Y-86050285D02*
X117539419Y-86050285D01*
X117539419Y-86050285D02*
X117539419Y-85669333D01*
X117539419Y-85669333D02*
X117587038Y-85574095D01*
X117587038Y-85574095D02*
X117634657Y-85526476D01*
X117634657Y-85526476D02*
X117729895Y-85478857D01*
X117729895Y-85478857D02*
X117872752Y-85478857D01*
X117872752Y-85478857D02*
X117967990Y-85526476D01*
X117967990Y-85526476D02*
X118015609Y-85574095D01*
X118015609Y-85574095D02*
X118063228Y-85669333D01*
X118063228Y-85669333D02*
X118063228Y-86050285D01*
X118539419Y-84526476D02*
X118539419Y-85097904D01*
X118539419Y-84812190D02*
X117539419Y-84812190D01*
X117539419Y-84812190D02*
X117682276Y-84907428D01*
X117682276Y-84907428D02*
X117777514Y-85002666D01*
X117777514Y-85002666D02*
X117825133Y-85097904D01*
X117967990Y-83955047D02*
X117920371Y-84050285D01*
X117920371Y-84050285D02*
X117872752Y-84097904D01*
X117872752Y-84097904D02*
X117777514Y-84145523D01*
X117777514Y-84145523D02*
X117729895Y-84145523D01*
X117729895Y-84145523D02*
X117634657Y-84097904D01*
X117634657Y-84097904D02*
X117587038Y-84050285D01*
X117587038Y-84050285D02*
X117539419Y-83955047D01*
X117539419Y-83955047D02*
X117539419Y-83764571D01*
X117539419Y-83764571D02*
X117587038Y-83669333D01*
X117587038Y-83669333D02*
X117634657Y-83621714D01*
X117634657Y-83621714D02*
X117729895Y-83574095D01*
X117729895Y-83574095D02*
X117777514Y-83574095D01*
X117777514Y-83574095D02*
X117872752Y-83621714D01*
X117872752Y-83621714D02*
X117920371Y-83669333D01*
X117920371Y-83669333D02*
X117967990Y-83764571D01*
X117967990Y-83764571D02*
X117967990Y-83955047D01*
X117967990Y-83955047D02*
X118015609Y-84050285D01*
X118015609Y-84050285D02*
X118063228Y-84097904D01*
X118063228Y-84097904D02*
X118158466Y-84145523D01*
X118158466Y-84145523D02*
X118348942Y-84145523D01*
X118348942Y-84145523D02*
X118444180Y-84097904D01*
X118444180Y-84097904D02*
X118491800Y-84050285D01*
X118491800Y-84050285D02*
X118539419Y-83955047D01*
X118539419Y-83955047D02*
X118539419Y-83764571D01*
X118539419Y-83764571D02*
X118491800Y-83669333D01*
X118491800Y-83669333D02*
X118444180Y-83621714D01*
X118444180Y-83621714D02*
X118348942Y-83574095D01*
X118348942Y-83574095D02*
X118158466Y-83574095D01*
X118158466Y-83574095D02*
X118063228Y-83621714D01*
X118063228Y-83621714D02*
X118015609Y-83669333D01*
X118015609Y-83669333D02*
X117967990Y-83764571D01*
X154754342Y-96517619D02*
X154421009Y-96041428D01*
X154182914Y-96517619D02*
X154182914Y-95517619D01*
X154182914Y-95517619D02*
X154563866Y-95517619D01*
X154563866Y-95517619D02*
X154659104Y-95565238D01*
X154659104Y-95565238D02*
X154706723Y-95612857D01*
X154706723Y-95612857D02*
X154754342Y-95708095D01*
X154754342Y-95708095D02*
X154754342Y-95850952D01*
X154754342Y-95850952D02*
X154706723Y-95946190D01*
X154706723Y-95946190D02*
X154659104Y-95993809D01*
X154659104Y-95993809D02*
X154563866Y-96041428D01*
X154563866Y-96041428D02*
X154182914Y-96041428D01*
X155706723Y-96517619D02*
X155135295Y-96517619D01*
X155421009Y-96517619D02*
X155421009Y-95517619D01*
X155421009Y-95517619D02*
X155325771Y-95660476D01*
X155325771Y-95660476D02*
X155230533Y-95755714D01*
X155230533Y-95755714D02*
X155135295Y-95803333D01*
X156087676Y-95612857D02*
X156135295Y-95565238D01*
X156135295Y-95565238D02*
X156230533Y-95517619D01*
X156230533Y-95517619D02*
X156468628Y-95517619D01*
X156468628Y-95517619D02*
X156563866Y-95565238D01*
X156563866Y-95565238D02*
X156611485Y-95612857D01*
X156611485Y-95612857D02*
X156659104Y-95708095D01*
X156659104Y-95708095D02*
X156659104Y-95803333D01*
X156659104Y-95803333D02*
X156611485Y-95946190D01*
X156611485Y-95946190D02*
X156040057Y-96517619D01*
X156040057Y-96517619D02*
X156659104Y-96517619D01*
X111675380Y-113825657D02*
X111723000Y-113873276D01*
X111723000Y-113873276D02*
X111770619Y-114016133D01*
X111770619Y-114016133D02*
X111770619Y-114111371D01*
X111770619Y-114111371D02*
X111723000Y-114254228D01*
X111723000Y-114254228D02*
X111627761Y-114349466D01*
X111627761Y-114349466D02*
X111532523Y-114397085D01*
X111532523Y-114397085D02*
X111342047Y-114444704D01*
X111342047Y-114444704D02*
X111199190Y-114444704D01*
X111199190Y-114444704D02*
X111008714Y-114397085D01*
X111008714Y-114397085D02*
X110913476Y-114349466D01*
X110913476Y-114349466D02*
X110818238Y-114254228D01*
X110818238Y-114254228D02*
X110770619Y-114111371D01*
X110770619Y-114111371D02*
X110770619Y-114016133D01*
X110770619Y-114016133D02*
X110818238Y-113873276D01*
X110818238Y-113873276D02*
X110865857Y-113825657D01*
X110865857Y-113444704D02*
X110818238Y-113397085D01*
X110818238Y-113397085D02*
X110770619Y-113301847D01*
X110770619Y-113301847D02*
X110770619Y-113063752D01*
X110770619Y-113063752D02*
X110818238Y-112968514D01*
X110818238Y-112968514D02*
X110865857Y-112920895D01*
X110865857Y-112920895D02*
X110961095Y-112873276D01*
X110961095Y-112873276D02*
X111056333Y-112873276D01*
X111056333Y-112873276D02*
X111199190Y-112920895D01*
X111199190Y-112920895D02*
X111770619Y-113492323D01*
X111770619Y-113492323D02*
X111770619Y-112873276D01*
X110770619Y-112016133D02*
X110770619Y-112206609D01*
X110770619Y-112206609D02*
X110818238Y-112301847D01*
X110818238Y-112301847D02*
X110865857Y-112349466D01*
X110865857Y-112349466D02*
X111008714Y-112444704D01*
X111008714Y-112444704D02*
X111199190Y-112492323D01*
X111199190Y-112492323D02*
X111580142Y-112492323D01*
X111580142Y-112492323D02*
X111675380Y-112444704D01*
X111675380Y-112444704D02*
X111723000Y-112397085D01*
X111723000Y-112397085D02*
X111770619Y-112301847D01*
X111770619Y-112301847D02*
X111770619Y-112111371D01*
X111770619Y-112111371D02*
X111723000Y-112016133D01*
X111723000Y-112016133D02*
X111675380Y-111968514D01*
X111675380Y-111968514D02*
X111580142Y-111920895D01*
X111580142Y-111920895D02*
X111342047Y-111920895D01*
X111342047Y-111920895D02*
X111246809Y-111968514D01*
X111246809Y-111968514D02*
X111199190Y-112016133D01*
X111199190Y-112016133D02*
X111151571Y-112111371D01*
X111151571Y-112111371D02*
X111151571Y-112301847D01*
X111151571Y-112301847D02*
X111199190Y-112397085D01*
X111199190Y-112397085D02*
X111246809Y-112444704D01*
X111246809Y-112444704D02*
X111342047Y-112492323D01*
X139217495Y-87516619D02*
X139217495Y-88326142D01*
X139217495Y-88326142D02*
X139265114Y-88421380D01*
X139265114Y-88421380D02*
X139312733Y-88469000D01*
X139312733Y-88469000D02*
X139407971Y-88516619D01*
X139407971Y-88516619D02*
X139598447Y-88516619D01*
X139598447Y-88516619D02*
X139693685Y-88469000D01*
X139693685Y-88469000D02*
X139741304Y-88421380D01*
X139741304Y-88421380D02*
X139788923Y-88326142D01*
X139788923Y-88326142D02*
X139788923Y-87516619D01*
X140169876Y-87516619D02*
X140836542Y-87516619D01*
X140836542Y-87516619D02*
X140407971Y-88516619D01*
X125201380Y-81579857D02*
X125249000Y-81627476D01*
X125249000Y-81627476D02*
X125296619Y-81770333D01*
X125296619Y-81770333D02*
X125296619Y-81865571D01*
X125296619Y-81865571D02*
X125249000Y-82008428D01*
X125249000Y-82008428D02*
X125153761Y-82103666D01*
X125153761Y-82103666D02*
X125058523Y-82151285D01*
X125058523Y-82151285D02*
X124868047Y-82198904D01*
X124868047Y-82198904D02*
X124725190Y-82198904D01*
X124725190Y-82198904D02*
X124534714Y-82151285D01*
X124534714Y-82151285D02*
X124439476Y-82103666D01*
X124439476Y-82103666D02*
X124344238Y-82008428D01*
X124344238Y-82008428D02*
X124296619Y-81865571D01*
X124296619Y-81865571D02*
X124296619Y-81770333D01*
X124296619Y-81770333D02*
X124344238Y-81627476D01*
X124344238Y-81627476D02*
X124391857Y-81579857D01*
X125296619Y-80627476D02*
X125296619Y-81198904D01*
X125296619Y-80913190D02*
X124296619Y-80913190D01*
X124296619Y-80913190D02*
X124439476Y-81008428D01*
X124439476Y-81008428D02*
X124534714Y-81103666D01*
X124534714Y-81103666D02*
X124582333Y-81198904D01*
X125296619Y-79675095D02*
X125296619Y-80246523D01*
X125296619Y-79960809D02*
X124296619Y-79960809D01*
X124296619Y-79960809D02*
X124439476Y-80056047D01*
X124439476Y-80056047D02*
X124534714Y-80151285D01*
X124534714Y-80151285D02*
X124582333Y-80246523D01*
X142723862Y-119109819D02*
X143295290Y-119109819D01*
X143009576Y-120109819D02*
X143009576Y-119109819D01*
X143628624Y-120109819D02*
X143628624Y-119109819D01*
X143628624Y-119109819D02*
X144009576Y-119109819D01*
X144009576Y-119109819D02*
X144104814Y-119157438D01*
X144104814Y-119157438D02*
X144152433Y-119205057D01*
X144152433Y-119205057D02*
X144200052Y-119300295D01*
X144200052Y-119300295D02*
X144200052Y-119443152D01*
X144200052Y-119443152D02*
X144152433Y-119538390D01*
X144152433Y-119538390D02*
X144104814Y-119586009D01*
X144104814Y-119586009D02*
X144009576Y-119633628D01*
X144009576Y-119633628D02*
X143628624Y-119633628D01*
X144676243Y-120109819D02*
X144866719Y-120109819D01*
X144866719Y-120109819D02*
X144961957Y-120062200D01*
X144961957Y-120062200D02*
X145009576Y-120014580D01*
X145009576Y-120014580D02*
X145104814Y-119871723D01*
X145104814Y-119871723D02*
X145152433Y-119681247D01*
X145152433Y-119681247D02*
X145152433Y-119300295D01*
X145152433Y-119300295D02*
X145104814Y-119205057D01*
X145104814Y-119205057D02*
X145057195Y-119157438D01*
X145057195Y-119157438D02*
X144961957Y-119109819D01*
X144961957Y-119109819D02*
X144771481Y-119109819D01*
X144771481Y-119109819D02*
X144676243Y-119157438D01*
X144676243Y-119157438D02*
X144628624Y-119205057D01*
X144628624Y-119205057D02*
X144581005Y-119300295D01*
X144581005Y-119300295D02*
X144581005Y-119538390D01*
X144581005Y-119538390D02*
X144628624Y-119633628D01*
X144628624Y-119633628D02*
X144676243Y-119681247D01*
X144676243Y-119681247D02*
X144771481Y-119728866D01*
X144771481Y-119728866D02*
X144961957Y-119728866D01*
X144961957Y-119728866D02*
X145057195Y-119681247D01*
X145057195Y-119681247D02*
X145104814Y-119633628D01*
X145104814Y-119633628D02*
X145152433Y-119538390D01*
X131991180Y-113368457D02*
X132038800Y-113416076D01*
X132038800Y-113416076D02*
X132086419Y-113558933D01*
X132086419Y-113558933D02*
X132086419Y-113654171D01*
X132086419Y-113654171D02*
X132038800Y-113797028D01*
X132038800Y-113797028D02*
X131943561Y-113892266D01*
X131943561Y-113892266D02*
X131848323Y-113939885D01*
X131848323Y-113939885D02*
X131657847Y-113987504D01*
X131657847Y-113987504D02*
X131514990Y-113987504D01*
X131514990Y-113987504D02*
X131324514Y-113939885D01*
X131324514Y-113939885D02*
X131229276Y-113892266D01*
X131229276Y-113892266D02*
X131134038Y-113797028D01*
X131134038Y-113797028D02*
X131086419Y-113654171D01*
X131086419Y-113654171D02*
X131086419Y-113558933D01*
X131086419Y-113558933D02*
X131134038Y-113416076D01*
X131134038Y-113416076D02*
X131181657Y-113368457D01*
X132086419Y-112416076D02*
X132086419Y-112987504D01*
X132086419Y-112701790D02*
X131086419Y-112701790D01*
X131086419Y-112701790D02*
X131229276Y-112797028D01*
X131229276Y-112797028D02*
X131324514Y-112892266D01*
X131324514Y-112892266D02*
X131372133Y-112987504D01*
X131086419Y-112082742D02*
X131086419Y-111463695D01*
X131086419Y-111463695D02*
X131467371Y-111797028D01*
X131467371Y-111797028D02*
X131467371Y-111654171D01*
X131467371Y-111654171D02*
X131514990Y-111558933D01*
X131514990Y-111558933D02*
X131562609Y-111511314D01*
X131562609Y-111511314D02*
X131657847Y-111463695D01*
X131657847Y-111463695D02*
X131895942Y-111463695D01*
X131895942Y-111463695D02*
X131991180Y-111511314D01*
X131991180Y-111511314D02*
X132038800Y-111558933D01*
X132038800Y-111558933D02*
X132086419Y-111654171D01*
X132086419Y-111654171D02*
X132086419Y-111939885D01*
X132086419Y-111939885D02*
X132038800Y-112035123D01*
X132038800Y-112035123D02*
X131991180Y-112082742D01*
X156616495Y-100419819D02*
X156616495Y-101229342D01*
X156616495Y-101229342D02*
X156664114Y-101324580D01*
X156664114Y-101324580D02*
X156711733Y-101372200D01*
X156711733Y-101372200D02*
X156806971Y-101419819D01*
X156806971Y-101419819D02*
X156997447Y-101419819D01*
X156997447Y-101419819D02*
X157092685Y-101372200D01*
X157092685Y-101372200D02*
X157140304Y-101324580D01*
X157140304Y-101324580D02*
X157187923Y-101229342D01*
X157187923Y-101229342D02*
X157187923Y-100419819D01*
X158140304Y-100419819D02*
X157664114Y-100419819D01*
X157664114Y-100419819D02*
X157616495Y-100896009D01*
X157616495Y-100896009D02*
X157664114Y-100848390D01*
X157664114Y-100848390D02*
X157759352Y-100800771D01*
X157759352Y-100800771D02*
X157997447Y-100800771D01*
X157997447Y-100800771D02*
X158092685Y-100848390D01*
X158092685Y-100848390D02*
X158140304Y-100896009D01*
X158140304Y-100896009D02*
X158187923Y-100991247D01*
X158187923Y-100991247D02*
X158187923Y-101229342D01*
X158187923Y-101229342D02*
X158140304Y-101324580D01*
X158140304Y-101324580D02*
X158092685Y-101372200D01*
X158092685Y-101372200D02*
X157997447Y-101419819D01*
X157997447Y-101419819D02*
X157759352Y-101419819D01*
X157759352Y-101419819D02*
X157664114Y-101372200D01*
X157664114Y-101372200D02*
X157616495Y-101324580D01*
X125708580Y-76468266D02*
X125756200Y-76515885D01*
X125756200Y-76515885D02*
X125803819Y-76658742D01*
X125803819Y-76658742D02*
X125803819Y-76753980D01*
X125803819Y-76753980D02*
X125756200Y-76896837D01*
X125756200Y-76896837D02*
X125660961Y-76992075D01*
X125660961Y-76992075D02*
X125565723Y-77039694D01*
X125565723Y-77039694D02*
X125375247Y-77087313D01*
X125375247Y-77087313D02*
X125232390Y-77087313D01*
X125232390Y-77087313D02*
X125041914Y-77039694D01*
X125041914Y-77039694D02*
X124946676Y-76992075D01*
X124946676Y-76992075D02*
X124851438Y-76896837D01*
X124851438Y-76896837D02*
X124803819Y-76753980D01*
X124803819Y-76753980D02*
X124803819Y-76658742D01*
X124803819Y-76658742D02*
X124851438Y-76515885D01*
X124851438Y-76515885D02*
X124899057Y-76468266D01*
X124899057Y-76087313D02*
X124851438Y-76039694D01*
X124851438Y-76039694D02*
X124803819Y-75944456D01*
X124803819Y-75944456D02*
X124803819Y-75706361D01*
X124803819Y-75706361D02*
X124851438Y-75611123D01*
X124851438Y-75611123D02*
X124899057Y-75563504D01*
X124899057Y-75563504D02*
X124994295Y-75515885D01*
X124994295Y-75515885D02*
X125089533Y-75515885D01*
X125089533Y-75515885D02*
X125232390Y-75563504D01*
X125232390Y-75563504D02*
X125803819Y-76134932D01*
X125803819Y-76134932D02*
X125803819Y-75515885D01*
X138854819Y-99042857D02*
X138378628Y-99376190D01*
X138854819Y-99614285D02*
X137854819Y-99614285D01*
X137854819Y-99614285D02*
X137854819Y-99233333D01*
X137854819Y-99233333D02*
X137902438Y-99138095D01*
X137902438Y-99138095D02*
X137950057Y-99090476D01*
X137950057Y-99090476D02*
X138045295Y-99042857D01*
X138045295Y-99042857D02*
X138188152Y-99042857D01*
X138188152Y-99042857D02*
X138283390Y-99090476D01*
X138283390Y-99090476D02*
X138331009Y-99138095D01*
X138331009Y-99138095D02*
X138378628Y-99233333D01*
X138378628Y-99233333D02*
X138378628Y-99614285D01*
X137950057Y-98661904D02*
X137902438Y-98614285D01*
X137902438Y-98614285D02*
X137854819Y-98519047D01*
X137854819Y-98519047D02*
X137854819Y-98280952D01*
X137854819Y-98280952D02*
X137902438Y-98185714D01*
X137902438Y-98185714D02*
X137950057Y-98138095D01*
X137950057Y-98138095D02*
X138045295Y-98090476D01*
X138045295Y-98090476D02*
X138140533Y-98090476D01*
X138140533Y-98090476D02*
X138283390Y-98138095D01*
X138283390Y-98138095D02*
X138854819Y-98709523D01*
X138854819Y-98709523D02*
X138854819Y-98090476D01*
X138854819Y-97138095D02*
X138854819Y-97709523D01*
X138854819Y-97423809D02*
X137854819Y-97423809D01*
X137854819Y-97423809D02*
X137997676Y-97519047D01*
X137997676Y-97519047D02*
X138092914Y-97614285D01*
X138092914Y-97614285D02*
X138140533Y-97709523D01*
X157781666Y-87313419D02*
X157781666Y-88027704D01*
X157781666Y-88027704D02*
X157734047Y-88170561D01*
X157734047Y-88170561D02*
X157638809Y-88265800D01*
X157638809Y-88265800D02*
X157495952Y-88313419D01*
X157495952Y-88313419D02*
X157400714Y-88313419D01*
X158734047Y-87313419D02*
X158257857Y-87313419D01*
X158257857Y-87313419D02*
X158210238Y-87789609D01*
X158210238Y-87789609D02*
X158257857Y-87741990D01*
X158257857Y-87741990D02*
X158353095Y-87694371D01*
X158353095Y-87694371D02*
X158591190Y-87694371D01*
X158591190Y-87694371D02*
X158686428Y-87741990D01*
X158686428Y-87741990D02*
X158734047Y-87789609D01*
X158734047Y-87789609D02*
X158781666Y-87884847D01*
X158781666Y-87884847D02*
X158781666Y-88122942D01*
X158781666Y-88122942D02*
X158734047Y-88218180D01*
X158734047Y-88218180D02*
X158686428Y-88265800D01*
X158686428Y-88265800D02*
X158591190Y-88313419D01*
X158591190Y-88313419D02*
X158353095Y-88313419D01*
X158353095Y-88313419D02*
X158257857Y-88265800D01*
X158257857Y-88265800D02*
X158210238Y-88218180D01*
X142544895Y-78906019D02*
X142544895Y-79715542D01*
X142544895Y-79715542D02*
X142592514Y-79810780D01*
X142592514Y-79810780D02*
X142640133Y-79858400D01*
X142640133Y-79858400D02*
X142735371Y-79906019D01*
X142735371Y-79906019D02*
X142925847Y-79906019D01*
X142925847Y-79906019D02*
X143021085Y-79858400D01*
X143021085Y-79858400D02*
X143068704Y-79810780D01*
X143068704Y-79810780D02*
X143116323Y-79715542D01*
X143116323Y-79715542D02*
X143116323Y-78906019D01*
X144116323Y-79906019D02*
X143544895Y-79906019D01*
X143830609Y-79906019D02*
X143830609Y-78906019D01*
X143830609Y-78906019D02*
X143735371Y-79048876D01*
X143735371Y-79048876D02*
X143640133Y-79144114D01*
X143640133Y-79144114D02*
X143544895Y-79191733D01*
X134554933Y-72743219D02*
X134221600Y-72267028D01*
X133983505Y-72743219D02*
X133983505Y-71743219D01*
X133983505Y-71743219D02*
X134364457Y-71743219D01*
X134364457Y-71743219D02*
X134459695Y-71790838D01*
X134459695Y-71790838D02*
X134507314Y-71838457D01*
X134507314Y-71838457D02*
X134554933Y-71933695D01*
X134554933Y-71933695D02*
X134554933Y-72076552D01*
X134554933Y-72076552D02*
X134507314Y-72171790D01*
X134507314Y-72171790D02*
X134459695Y-72219409D01*
X134459695Y-72219409D02*
X134364457Y-72267028D01*
X134364457Y-72267028D02*
X133983505Y-72267028D01*
X135412076Y-72076552D02*
X135412076Y-72743219D01*
X135173981Y-71695600D02*
X134935886Y-72409885D01*
X134935886Y-72409885D02*
X135554933Y-72409885D01*
X161663142Y-107490419D02*
X161329809Y-107014228D01*
X161091714Y-107490419D02*
X161091714Y-106490419D01*
X161091714Y-106490419D02*
X161472666Y-106490419D01*
X161472666Y-106490419D02*
X161567904Y-106538038D01*
X161567904Y-106538038D02*
X161615523Y-106585657D01*
X161615523Y-106585657D02*
X161663142Y-106680895D01*
X161663142Y-106680895D02*
X161663142Y-106823752D01*
X161663142Y-106823752D02*
X161615523Y-106918990D01*
X161615523Y-106918990D02*
X161567904Y-106966609D01*
X161567904Y-106966609D02*
X161472666Y-107014228D01*
X161472666Y-107014228D02*
X161091714Y-107014228D01*
X162044095Y-106585657D02*
X162091714Y-106538038D01*
X162091714Y-106538038D02*
X162186952Y-106490419D01*
X162186952Y-106490419D02*
X162425047Y-106490419D01*
X162425047Y-106490419D02*
X162520285Y-106538038D01*
X162520285Y-106538038D02*
X162567904Y-106585657D01*
X162567904Y-106585657D02*
X162615523Y-106680895D01*
X162615523Y-106680895D02*
X162615523Y-106776133D01*
X162615523Y-106776133D02*
X162567904Y-106918990D01*
X162567904Y-106918990D02*
X161996476Y-107490419D01*
X161996476Y-107490419D02*
X162615523Y-107490419D01*
X162948857Y-106490419D02*
X163567904Y-106490419D01*
X163567904Y-106490419D02*
X163234571Y-106871371D01*
X163234571Y-106871371D02*
X163377428Y-106871371D01*
X163377428Y-106871371D02*
X163472666Y-106918990D01*
X163472666Y-106918990D02*
X163520285Y-106966609D01*
X163520285Y-106966609D02*
X163567904Y-107061847D01*
X163567904Y-107061847D02*
X163567904Y-107299942D01*
X163567904Y-107299942D02*
X163520285Y-107395180D01*
X163520285Y-107395180D02*
X163472666Y-107442800D01*
X163472666Y-107442800D02*
X163377428Y-107490419D01*
X163377428Y-107490419D02*
X163091714Y-107490419D01*
X163091714Y-107490419D02*
X162996476Y-107442800D01*
X162996476Y-107442800D02*
X162948857Y-107395180D01*
X151904819Y-92913094D02*
X152714342Y-92913094D01*
X152714342Y-92913094D02*
X152809580Y-92865475D01*
X152809580Y-92865475D02*
X152857200Y-92817856D01*
X152857200Y-92817856D02*
X152904819Y-92722618D01*
X152904819Y-92722618D02*
X152904819Y-92532142D01*
X152904819Y-92532142D02*
X152857200Y-92436904D01*
X152857200Y-92436904D02*
X152809580Y-92389285D01*
X152809580Y-92389285D02*
X152714342Y-92341666D01*
X152714342Y-92341666D02*
X151904819Y-92341666D01*
X152904819Y-91341666D02*
X152904819Y-91913094D01*
X152904819Y-91627380D02*
X151904819Y-91627380D01*
X151904819Y-91627380D02*
X152047676Y-91722618D01*
X152047676Y-91722618D02*
X152142914Y-91817856D01*
X152142914Y-91817856D02*
X152190533Y-91913094D01*
X152333390Y-90770237D02*
X152285771Y-90865475D01*
X152285771Y-90865475D02*
X152238152Y-90913094D01*
X152238152Y-90913094D02*
X152142914Y-90960713D01*
X152142914Y-90960713D02*
X152095295Y-90960713D01*
X152095295Y-90960713D02*
X152000057Y-90913094D01*
X152000057Y-90913094D02*
X151952438Y-90865475D01*
X151952438Y-90865475D02*
X151904819Y-90770237D01*
X151904819Y-90770237D02*
X151904819Y-90579761D01*
X151904819Y-90579761D02*
X151952438Y-90484523D01*
X151952438Y-90484523D02*
X152000057Y-90436904D01*
X152000057Y-90436904D02*
X152095295Y-90389285D01*
X152095295Y-90389285D02*
X152142914Y-90389285D01*
X152142914Y-90389285D02*
X152238152Y-90436904D01*
X152238152Y-90436904D02*
X152285771Y-90484523D01*
X152285771Y-90484523D02*
X152333390Y-90579761D01*
X152333390Y-90579761D02*
X152333390Y-90770237D01*
X152333390Y-90770237D02*
X152381009Y-90865475D01*
X152381009Y-90865475D02*
X152428628Y-90913094D01*
X152428628Y-90913094D02*
X152523866Y-90960713D01*
X152523866Y-90960713D02*
X152714342Y-90960713D01*
X152714342Y-90960713D02*
X152809580Y-90913094D01*
X152809580Y-90913094D02*
X152857200Y-90865475D01*
X152857200Y-90865475D02*
X152904819Y-90770237D01*
X152904819Y-90770237D02*
X152904819Y-90579761D01*
X152904819Y-90579761D02*
X152857200Y-90484523D01*
X152857200Y-90484523D02*
X152809580Y-90436904D01*
X152809580Y-90436904D02*
X152714342Y-90389285D01*
X152714342Y-90389285D02*
X152523866Y-90389285D01*
X152523866Y-90389285D02*
X152428628Y-90436904D01*
X152428628Y-90436904D02*
X152381009Y-90484523D01*
X152381009Y-90484523D02*
X152333390Y-90579761D01*
X152604419Y-116377261D02*
X153318704Y-116377261D01*
X153318704Y-116377261D02*
X153461561Y-116424880D01*
X153461561Y-116424880D02*
X153556800Y-116520118D01*
X153556800Y-116520118D02*
X153604419Y-116662975D01*
X153604419Y-116662975D02*
X153604419Y-116758213D01*
X153604419Y-115377261D02*
X153604419Y-115948689D01*
X153604419Y-115662975D02*
X152604419Y-115662975D01*
X152604419Y-115662975D02*
X152747276Y-115758213D01*
X152747276Y-115758213D02*
X152842514Y-115853451D01*
X152842514Y-115853451D02*
X152890133Y-115948689D01*
X153775580Y-79694066D02*
X153823200Y-79741685D01*
X153823200Y-79741685D02*
X153870819Y-79884542D01*
X153870819Y-79884542D02*
X153870819Y-79979780D01*
X153870819Y-79979780D02*
X153823200Y-80122637D01*
X153823200Y-80122637D02*
X153727961Y-80217875D01*
X153727961Y-80217875D02*
X153632723Y-80265494D01*
X153632723Y-80265494D02*
X153442247Y-80313113D01*
X153442247Y-80313113D02*
X153299390Y-80313113D01*
X153299390Y-80313113D02*
X153108914Y-80265494D01*
X153108914Y-80265494D02*
X153013676Y-80217875D01*
X153013676Y-80217875D02*
X152918438Y-80122637D01*
X152918438Y-80122637D02*
X152870819Y-79979780D01*
X152870819Y-79979780D02*
X152870819Y-79884542D01*
X152870819Y-79884542D02*
X152918438Y-79741685D01*
X152918438Y-79741685D02*
X152966057Y-79694066D01*
X153870819Y-78741685D02*
X153870819Y-79313113D01*
X153870819Y-79027399D02*
X152870819Y-79027399D01*
X152870819Y-79027399D02*
X153013676Y-79122637D01*
X153013676Y-79122637D02*
X153108914Y-79217875D01*
X153108914Y-79217875D02*
X153156533Y-79313113D01*
X133634819Y-78681666D02*
X133158628Y-79014999D01*
X133634819Y-79253094D02*
X132634819Y-79253094D01*
X132634819Y-79253094D02*
X132634819Y-78872142D01*
X132634819Y-78872142D02*
X132682438Y-78776904D01*
X132682438Y-78776904D02*
X132730057Y-78729285D01*
X132730057Y-78729285D02*
X132825295Y-78681666D01*
X132825295Y-78681666D02*
X132968152Y-78681666D01*
X132968152Y-78681666D02*
X133063390Y-78729285D01*
X133063390Y-78729285D02*
X133111009Y-78776904D01*
X133111009Y-78776904D02*
X133158628Y-78872142D01*
X133158628Y-78872142D02*
X133158628Y-79253094D01*
X132634819Y-78348332D02*
X132634819Y-77729285D01*
X132634819Y-77729285D02*
X133015771Y-78062618D01*
X133015771Y-78062618D02*
X133015771Y-77919761D01*
X133015771Y-77919761D02*
X133063390Y-77824523D01*
X133063390Y-77824523D02*
X133111009Y-77776904D01*
X133111009Y-77776904D02*
X133206247Y-77729285D01*
X133206247Y-77729285D02*
X133444342Y-77729285D01*
X133444342Y-77729285D02*
X133539580Y-77776904D01*
X133539580Y-77776904D02*
X133587200Y-77824523D01*
X133587200Y-77824523D02*
X133634819Y-77919761D01*
X133634819Y-77919761D02*
X133634819Y-78205475D01*
X133634819Y-78205475D02*
X133587200Y-78300713D01*
X133587200Y-78300713D02*
X133539580Y-78348332D01*
X142729105Y-106033219D02*
X142729105Y-106842742D01*
X142729105Y-106842742D02*
X142776724Y-106937980D01*
X142776724Y-106937980D02*
X142824343Y-106985600D01*
X142824343Y-106985600D02*
X142919581Y-107033219D01*
X142919581Y-107033219D02*
X143110057Y-107033219D01*
X143110057Y-107033219D02*
X143205295Y-106985600D01*
X143205295Y-106985600D02*
X143252914Y-106937980D01*
X143252914Y-106937980D02*
X143300533Y-106842742D01*
X143300533Y-106842742D02*
X143300533Y-106033219D01*
X144300533Y-107033219D02*
X143729105Y-107033219D01*
X144014819Y-107033219D02*
X144014819Y-106033219D01*
X144014819Y-106033219D02*
X143919581Y-106176076D01*
X143919581Y-106176076D02*
X143824343Y-106271314D01*
X143824343Y-106271314D02*
X143729105Y-106318933D01*
X144919581Y-106033219D02*
X145014819Y-106033219D01*
X145014819Y-106033219D02*
X145110057Y-106080838D01*
X145110057Y-106080838D02*
X145157676Y-106128457D01*
X145157676Y-106128457D02*
X145205295Y-106223695D01*
X145205295Y-106223695D02*
X145252914Y-106414171D01*
X145252914Y-106414171D02*
X145252914Y-106652266D01*
X145252914Y-106652266D02*
X145205295Y-106842742D01*
X145205295Y-106842742D02*
X145157676Y-106937980D01*
X145157676Y-106937980D02*
X145110057Y-106985600D01*
X145110057Y-106985600D02*
X145014819Y-107033219D01*
X145014819Y-107033219D02*
X144919581Y-107033219D01*
X144919581Y-107033219D02*
X144824343Y-106985600D01*
X144824343Y-106985600D02*
X144776724Y-106937980D01*
X144776724Y-106937980D02*
X144729105Y-106842742D01*
X144729105Y-106842742D02*
X144681486Y-106652266D01*
X144681486Y-106652266D02*
X144681486Y-106414171D01*
X144681486Y-106414171D02*
X144729105Y-106223695D01*
X144729105Y-106223695D02*
X144776724Y-106128457D01*
X144776724Y-106128457D02*
X144824343Y-106080838D01*
X144824343Y-106080838D02*
X144919581Y-106033219D01*
X151108580Y-103919257D02*
X151156200Y-103966876D01*
X151156200Y-103966876D02*
X151203819Y-104109733D01*
X151203819Y-104109733D02*
X151203819Y-104204971D01*
X151203819Y-104204971D02*
X151156200Y-104347828D01*
X151156200Y-104347828D02*
X151060961Y-104443066D01*
X151060961Y-104443066D02*
X150965723Y-104490685D01*
X150965723Y-104490685D02*
X150775247Y-104538304D01*
X150775247Y-104538304D02*
X150632390Y-104538304D01*
X150632390Y-104538304D02*
X150441914Y-104490685D01*
X150441914Y-104490685D02*
X150346676Y-104443066D01*
X150346676Y-104443066D02*
X150251438Y-104347828D01*
X150251438Y-104347828D02*
X150203819Y-104204971D01*
X150203819Y-104204971D02*
X150203819Y-104109733D01*
X150203819Y-104109733D02*
X150251438Y-103966876D01*
X150251438Y-103966876D02*
X150299057Y-103919257D01*
X151203819Y-102966876D02*
X151203819Y-103538304D01*
X151203819Y-103252590D02*
X150203819Y-103252590D01*
X150203819Y-103252590D02*
X150346676Y-103347828D01*
X150346676Y-103347828D02*
X150441914Y-103443066D01*
X150441914Y-103443066D02*
X150489533Y-103538304D01*
X150203819Y-102109733D02*
X150203819Y-102300209D01*
X150203819Y-102300209D02*
X150251438Y-102395447D01*
X150251438Y-102395447D02*
X150299057Y-102443066D01*
X150299057Y-102443066D02*
X150441914Y-102538304D01*
X150441914Y-102538304D02*
X150632390Y-102585923D01*
X150632390Y-102585923D02*
X151013342Y-102585923D01*
X151013342Y-102585923D02*
X151108580Y-102538304D01*
X151108580Y-102538304D02*
X151156200Y-102490685D01*
X151156200Y-102490685D02*
X151203819Y-102395447D01*
X151203819Y-102395447D02*
X151203819Y-102204971D01*
X151203819Y-102204971D02*
X151156200Y-102109733D01*
X151156200Y-102109733D02*
X151108580Y-102062114D01*
X151108580Y-102062114D02*
X151013342Y-102014495D01*
X151013342Y-102014495D02*
X150775247Y-102014495D01*
X150775247Y-102014495D02*
X150680009Y-102062114D01*
X150680009Y-102062114D02*
X150632390Y-102109733D01*
X150632390Y-102109733D02*
X150584771Y-102204971D01*
X150584771Y-102204971D02*
X150584771Y-102395447D01*
X150584771Y-102395447D02*
X150632390Y-102490685D01*
X150632390Y-102490685D02*
X150680009Y-102538304D01*
X150680009Y-102538304D02*
X150775247Y-102585923D01*
X113809542Y-99286219D02*
X113476209Y-98810028D01*
X113238114Y-99286219D02*
X113238114Y-98286219D01*
X113238114Y-98286219D02*
X113619066Y-98286219D01*
X113619066Y-98286219D02*
X113714304Y-98333838D01*
X113714304Y-98333838D02*
X113761923Y-98381457D01*
X113761923Y-98381457D02*
X113809542Y-98476695D01*
X113809542Y-98476695D02*
X113809542Y-98619552D01*
X113809542Y-98619552D02*
X113761923Y-98714790D01*
X113761923Y-98714790D02*
X113714304Y-98762409D01*
X113714304Y-98762409D02*
X113619066Y-98810028D01*
X113619066Y-98810028D02*
X113238114Y-98810028D01*
X114761923Y-99286219D02*
X114190495Y-99286219D01*
X114476209Y-99286219D02*
X114476209Y-98286219D01*
X114476209Y-98286219D02*
X114380971Y-98429076D01*
X114380971Y-98429076D02*
X114285733Y-98524314D01*
X114285733Y-98524314D02*
X114190495Y-98571933D01*
X115666685Y-98286219D02*
X115190495Y-98286219D01*
X115190495Y-98286219D02*
X115142876Y-98762409D01*
X115142876Y-98762409D02*
X115190495Y-98714790D01*
X115190495Y-98714790D02*
X115285733Y-98667171D01*
X115285733Y-98667171D02*
X115523828Y-98667171D01*
X115523828Y-98667171D02*
X115619066Y-98714790D01*
X115619066Y-98714790D02*
X115666685Y-98762409D01*
X115666685Y-98762409D02*
X115714304Y-98857647D01*
X115714304Y-98857647D02*
X115714304Y-99095742D01*
X115714304Y-99095742D02*
X115666685Y-99190980D01*
X115666685Y-99190980D02*
X115619066Y-99238600D01*
X115619066Y-99238600D02*
X115523828Y-99286219D01*
X115523828Y-99286219D02*
X115285733Y-99286219D01*
X115285733Y-99286219D02*
X115190495Y-99238600D01*
X115190495Y-99238600D02*
X115142876Y-99190980D01*
X124832580Y-91967857D02*
X124880200Y-92015476D01*
X124880200Y-92015476D02*
X124927819Y-92158333D01*
X124927819Y-92158333D02*
X124927819Y-92253571D01*
X124927819Y-92253571D02*
X124880200Y-92396428D01*
X124880200Y-92396428D02*
X124784961Y-92491666D01*
X124784961Y-92491666D02*
X124689723Y-92539285D01*
X124689723Y-92539285D02*
X124499247Y-92586904D01*
X124499247Y-92586904D02*
X124356390Y-92586904D01*
X124356390Y-92586904D02*
X124165914Y-92539285D01*
X124165914Y-92539285D02*
X124070676Y-92491666D01*
X124070676Y-92491666D02*
X123975438Y-92396428D01*
X123975438Y-92396428D02*
X123927819Y-92253571D01*
X123927819Y-92253571D02*
X123927819Y-92158333D01*
X123927819Y-92158333D02*
X123975438Y-92015476D01*
X123975438Y-92015476D02*
X124023057Y-91967857D01*
X124023057Y-91586904D02*
X123975438Y-91539285D01*
X123975438Y-91539285D02*
X123927819Y-91444047D01*
X123927819Y-91444047D02*
X123927819Y-91205952D01*
X123927819Y-91205952D02*
X123975438Y-91110714D01*
X123975438Y-91110714D02*
X124023057Y-91063095D01*
X124023057Y-91063095D02*
X124118295Y-91015476D01*
X124118295Y-91015476D02*
X124213533Y-91015476D01*
X124213533Y-91015476D02*
X124356390Y-91063095D01*
X124356390Y-91063095D02*
X124927819Y-91634523D01*
X124927819Y-91634523D02*
X124927819Y-91015476D01*
X123927819Y-90682142D02*
X123927819Y-90063095D01*
X123927819Y-90063095D02*
X124308771Y-90396428D01*
X124308771Y-90396428D02*
X124308771Y-90253571D01*
X124308771Y-90253571D02*
X124356390Y-90158333D01*
X124356390Y-90158333D02*
X124404009Y-90110714D01*
X124404009Y-90110714D02*
X124499247Y-90063095D01*
X124499247Y-90063095D02*
X124737342Y-90063095D01*
X124737342Y-90063095D02*
X124832580Y-90110714D01*
X124832580Y-90110714D02*
X124880200Y-90158333D01*
X124880200Y-90158333D02*
X124927819Y-90253571D01*
X124927819Y-90253571D02*
X124927819Y-90539285D01*
X124927819Y-90539285D02*
X124880200Y-90634523D01*
X124880200Y-90634523D02*
X124832580Y-90682142D01*
X132720142Y-100759819D02*
X132386809Y-100283628D01*
X132148714Y-100759819D02*
X132148714Y-99759819D01*
X132148714Y-99759819D02*
X132529666Y-99759819D01*
X132529666Y-99759819D02*
X132624904Y-99807438D01*
X132624904Y-99807438D02*
X132672523Y-99855057D01*
X132672523Y-99855057D02*
X132720142Y-99950295D01*
X132720142Y-99950295D02*
X132720142Y-100093152D01*
X132720142Y-100093152D02*
X132672523Y-100188390D01*
X132672523Y-100188390D02*
X132624904Y-100236009D01*
X132624904Y-100236009D02*
X132529666Y-100283628D01*
X132529666Y-100283628D02*
X132148714Y-100283628D01*
X133672523Y-100759819D02*
X133101095Y-100759819D01*
X133386809Y-100759819D02*
X133386809Y-99759819D01*
X133386809Y-99759819D02*
X133291571Y-99902676D01*
X133291571Y-99902676D02*
X133196333Y-99997914D01*
X133196333Y-99997914D02*
X133101095Y-100045533D01*
X134529666Y-99759819D02*
X134339190Y-99759819D01*
X134339190Y-99759819D02*
X134243952Y-99807438D01*
X134243952Y-99807438D02*
X134196333Y-99855057D01*
X134196333Y-99855057D02*
X134101095Y-99997914D01*
X134101095Y-99997914D02*
X134053476Y-100188390D01*
X134053476Y-100188390D02*
X134053476Y-100569342D01*
X134053476Y-100569342D02*
X134101095Y-100664580D01*
X134101095Y-100664580D02*
X134148714Y-100712200D01*
X134148714Y-100712200D02*
X134243952Y-100759819D01*
X134243952Y-100759819D02*
X134434428Y-100759819D01*
X134434428Y-100759819D02*
X134529666Y-100712200D01*
X134529666Y-100712200D02*
X134577285Y-100664580D01*
X134577285Y-100664580D02*
X134624904Y-100569342D01*
X134624904Y-100569342D02*
X134624904Y-100331247D01*
X134624904Y-100331247D02*
X134577285Y-100236009D01*
X134577285Y-100236009D02*
X134529666Y-100188390D01*
X134529666Y-100188390D02*
X134434428Y-100140771D01*
X134434428Y-100140771D02*
X134243952Y-100140771D01*
X134243952Y-100140771D02*
X134148714Y-100188390D01*
X134148714Y-100188390D02*
X134101095Y-100236009D01*
X134101095Y-100236009D02*
X134053476Y-100331247D01*
X129928809Y-87967819D02*
X129595476Y-87491628D01*
X129357381Y-87967819D02*
X129357381Y-86967819D01*
X129357381Y-86967819D02*
X129738333Y-86967819D01*
X129738333Y-86967819D02*
X129833571Y-87015438D01*
X129833571Y-87015438D02*
X129881190Y-87063057D01*
X129881190Y-87063057D02*
X129928809Y-87158295D01*
X129928809Y-87158295D02*
X129928809Y-87301152D01*
X129928809Y-87301152D02*
X129881190Y-87396390D01*
X129881190Y-87396390D02*
X129833571Y-87444009D01*
X129833571Y-87444009D02*
X129738333Y-87491628D01*
X129738333Y-87491628D02*
X129357381Y-87491628D01*
X130309762Y-87063057D02*
X130357381Y-87015438D01*
X130357381Y-87015438D02*
X130452619Y-86967819D01*
X130452619Y-86967819D02*
X130690714Y-86967819D01*
X130690714Y-86967819D02*
X130785952Y-87015438D01*
X130785952Y-87015438D02*
X130833571Y-87063057D01*
X130833571Y-87063057D02*
X130881190Y-87158295D01*
X130881190Y-87158295D02*
X130881190Y-87253533D01*
X130881190Y-87253533D02*
X130833571Y-87396390D01*
X130833571Y-87396390D02*
X130262143Y-87967819D01*
X130262143Y-87967819D02*
X130881190Y-87967819D01*
X131500238Y-86967819D02*
X131595476Y-86967819D01*
X131595476Y-86967819D02*
X131690714Y-87015438D01*
X131690714Y-87015438D02*
X131738333Y-87063057D01*
X131738333Y-87063057D02*
X131785952Y-87158295D01*
X131785952Y-87158295D02*
X131833571Y-87348771D01*
X131833571Y-87348771D02*
X131833571Y-87586866D01*
X131833571Y-87586866D02*
X131785952Y-87777342D01*
X131785952Y-87777342D02*
X131738333Y-87872580D01*
X131738333Y-87872580D02*
X131690714Y-87920200D01*
X131690714Y-87920200D02*
X131595476Y-87967819D01*
X131595476Y-87967819D02*
X131500238Y-87967819D01*
X131500238Y-87967819D02*
X131405000Y-87920200D01*
X131405000Y-87920200D02*
X131357381Y-87872580D01*
X131357381Y-87872580D02*
X131309762Y-87777342D01*
X131309762Y-87777342D02*
X131262143Y-87586866D01*
X131262143Y-87586866D02*
X131262143Y-87348771D01*
X131262143Y-87348771D02*
X131309762Y-87158295D01*
X131309762Y-87158295D02*
X131357381Y-87063057D01*
X131357381Y-87063057D02*
X131405000Y-87015438D01*
X131405000Y-87015438D02*
X131500238Y-86967819D01*
X134852580Y-82176857D02*
X134900200Y-82224476D01*
X134900200Y-82224476D02*
X134947819Y-82367333D01*
X134947819Y-82367333D02*
X134947819Y-82462571D01*
X134947819Y-82462571D02*
X134900200Y-82605428D01*
X134900200Y-82605428D02*
X134804961Y-82700666D01*
X134804961Y-82700666D02*
X134709723Y-82748285D01*
X134709723Y-82748285D02*
X134519247Y-82795904D01*
X134519247Y-82795904D02*
X134376390Y-82795904D01*
X134376390Y-82795904D02*
X134185914Y-82748285D01*
X134185914Y-82748285D02*
X134090676Y-82700666D01*
X134090676Y-82700666D02*
X133995438Y-82605428D01*
X133995438Y-82605428D02*
X133947819Y-82462571D01*
X133947819Y-82462571D02*
X133947819Y-82367333D01*
X133947819Y-82367333D02*
X133995438Y-82224476D01*
X133995438Y-82224476D02*
X134043057Y-82176857D01*
X134947819Y-81224476D02*
X134947819Y-81795904D01*
X134947819Y-81510190D02*
X133947819Y-81510190D01*
X133947819Y-81510190D02*
X134090676Y-81605428D01*
X134090676Y-81605428D02*
X134185914Y-81700666D01*
X134185914Y-81700666D02*
X134233533Y-81795904D01*
X133947819Y-80605428D02*
X133947819Y-80510190D01*
X133947819Y-80510190D02*
X133995438Y-80414952D01*
X133995438Y-80414952D02*
X134043057Y-80367333D01*
X134043057Y-80367333D02*
X134138295Y-80319714D01*
X134138295Y-80319714D02*
X134328771Y-80272095D01*
X134328771Y-80272095D02*
X134566866Y-80272095D01*
X134566866Y-80272095D02*
X134757342Y-80319714D01*
X134757342Y-80319714D02*
X134852580Y-80367333D01*
X134852580Y-80367333D02*
X134900200Y-80414952D01*
X134900200Y-80414952D02*
X134947819Y-80510190D01*
X134947819Y-80510190D02*
X134947819Y-80605428D01*
X134947819Y-80605428D02*
X134900200Y-80700666D01*
X134900200Y-80700666D02*
X134852580Y-80748285D01*
X134852580Y-80748285D02*
X134757342Y-80795904D01*
X134757342Y-80795904D02*
X134566866Y-80843523D01*
X134566866Y-80843523D02*
X134328771Y-80843523D01*
X134328771Y-80843523D02*
X134138295Y-80795904D01*
X134138295Y-80795904D02*
X134043057Y-80748285D01*
X134043057Y-80748285D02*
X133995438Y-80700666D01*
X133995438Y-80700666D02*
X133947819Y-80605428D01*
X139152333Y-70742980D02*
X139104714Y-70790600D01*
X139104714Y-70790600D02*
X138961857Y-70838219D01*
X138961857Y-70838219D02*
X138866619Y-70838219D01*
X138866619Y-70838219D02*
X138723762Y-70790600D01*
X138723762Y-70790600D02*
X138628524Y-70695361D01*
X138628524Y-70695361D02*
X138580905Y-70600123D01*
X138580905Y-70600123D02*
X138533286Y-70409647D01*
X138533286Y-70409647D02*
X138533286Y-70266790D01*
X138533286Y-70266790D02*
X138580905Y-70076314D01*
X138580905Y-70076314D02*
X138628524Y-69981076D01*
X138628524Y-69981076D02*
X138723762Y-69885838D01*
X138723762Y-69885838D02*
X138866619Y-69838219D01*
X138866619Y-69838219D02*
X138961857Y-69838219D01*
X138961857Y-69838219D02*
X139104714Y-69885838D01*
X139104714Y-69885838D02*
X139152333Y-69933457D01*
X140057095Y-69838219D02*
X139580905Y-69838219D01*
X139580905Y-69838219D02*
X139533286Y-70314409D01*
X139533286Y-70314409D02*
X139580905Y-70266790D01*
X139580905Y-70266790D02*
X139676143Y-70219171D01*
X139676143Y-70219171D02*
X139914238Y-70219171D01*
X139914238Y-70219171D02*
X140009476Y-70266790D01*
X140009476Y-70266790D02*
X140057095Y-70314409D01*
X140057095Y-70314409D02*
X140104714Y-70409647D01*
X140104714Y-70409647D02*
X140104714Y-70647742D01*
X140104714Y-70647742D02*
X140057095Y-70742980D01*
X140057095Y-70742980D02*
X140009476Y-70790600D01*
X140009476Y-70790600D02*
X139914238Y-70838219D01*
X139914238Y-70838219D02*
X139676143Y-70838219D01*
X139676143Y-70838219D02*
X139580905Y-70790600D01*
X139580905Y-70790600D02*
X139533286Y-70742980D01*
X142174505Y-86952119D02*
X142174505Y-87761642D01*
X142174505Y-87761642D02*
X142222124Y-87856880D01*
X142222124Y-87856880D02*
X142269743Y-87904500D01*
X142269743Y-87904500D02*
X142364981Y-87952119D01*
X142364981Y-87952119D02*
X142555457Y-87952119D01*
X142555457Y-87952119D02*
X142650695Y-87904500D01*
X142650695Y-87904500D02*
X142698314Y-87856880D01*
X142698314Y-87856880D02*
X142745933Y-87761642D01*
X142745933Y-87761642D02*
X142745933Y-86952119D01*
X143745933Y-87952119D02*
X143174505Y-87952119D01*
X143460219Y-87952119D02*
X143460219Y-86952119D01*
X143460219Y-86952119D02*
X143364981Y-87094976D01*
X143364981Y-87094976D02*
X143269743Y-87190214D01*
X143269743Y-87190214D02*
X143174505Y-87237833D01*
X144079267Y-86952119D02*
X144745933Y-86952119D01*
X144745933Y-86952119D02*
X144317362Y-87952119D01*
X153033057Y-83778638D02*
X152985438Y-83873876D01*
X152985438Y-83873876D02*
X152890200Y-83969114D01*
X152890200Y-83969114D02*
X152747342Y-84111971D01*
X152747342Y-84111971D02*
X152699723Y-84207209D01*
X152699723Y-84207209D02*
X152699723Y-84302447D01*
X152937819Y-84254828D02*
X152890200Y-84350066D01*
X152890200Y-84350066D02*
X152794961Y-84445304D01*
X152794961Y-84445304D02*
X152604485Y-84492923D01*
X152604485Y-84492923D02*
X152271152Y-84492923D01*
X152271152Y-84492923D02*
X152080676Y-84445304D01*
X152080676Y-84445304D02*
X151985438Y-84350066D01*
X151985438Y-84350066D02*
X151937819Y-84254828D01*
X151937819Y-84254828D02*
X151937819Y-84064352D01*
X151937819Y-84064352D02*
X151985438Y-83969114D01*
X151985438Y-83969114D02*
X152080676Y-83873876D01*
X152080676Y-83873876D02*
X152271152Y-83826257D01*
X152271152Y-83826257D02*
X152604485Y-83826257D01*
X152604485Y-83826257D02*
X152794961Y-83873876D01*
X152794961Y-83873876D02*
X152890200Y-83969114D01*
X152890200Y-83969114D02*
X152937819Y-84064352D01*
X152937819Y-84064352D02*
X152937819Y-84254828D01*
X152937819Y-82873876D02*
X152937819Y-83445304D01*
X152937819Y-83159590D02*
X151937819Y-83159590D01*
X151937819Y-83159590D02*
X152080676Y-83254828D01*
X152080676Y-83254828D02*
X152175914Y-83350066D01*
X152175914Y-83350066D02*
X152223533Y-83445304D01*
X127991819Y-89636904D02*
X128801342Y-89636904D01*
X128801342Y-89636904D02*
X128896580Y-89589285D01*
X128896580Y-89589285D02*
X128944200Y-89541666D01*
X128944200Y-89541666D02*
X128991819Y-89446428D01*
X128991819Y-89446428D02*
X128991819Y-89255952D01*
X128991819Y-89255952D02*
X128944200Y-89160714D01*
X128944200Y-89160714D02*
X128896580Y-89113095D01*
X128896580Y-89113095D02*
X128801342Y-89065476D01*
X128801342Y-89065476D02*
X127991819Y-89065476D01*
X128420390Y-88446428D02*
X128372771Y-88541666D01*
X128372771Y-88541666D02*
X128325152Y-88589285D01*
X128325152Y-88589285D02*
X128229914Y-88636904D01*
X128229914Y-88636904D02*
X128182295Y-88636904D01*
X128182295Y-88636904D02*
X128087057Y-88589285D01*
X128087057Y-88589285D02*
X128039438Y-88541666D01*
X128039438Y-88541666D02*
X127991819Y-88446428D01*
X127991819Y-88446428D02*
X127991819Y-88255952D01*
X127991819Y-88255952D02*
X128039438Y-88160714D01*
X128039438Y-88160714D02*
X128087057Y-88113095D01*
X128087057Y-88113095D02*
X128182295Y-88065476D01*
X128182295Y-88065476D02*
X128229914Y-88065476D01*
X128229914Y-88065476D02*
X128325152Y-88113095D01*
X128325152Y-88113095D02*
X128372771Y-88160714D01*
X128372771Y-88160714D02*
X128420390Y-88255952D01*
X128420390Y-88255952D02*
X128420390Y-88446428D01*
X128420390Y-88446428D02*
X128468009Y-88541666D01*
X128468009Y-88541666D02*
X128515628Y-88589285D01*
X128515628Y-88589285D02*
X128610866Y-88636904D01*
X128610866Y-88636904D02*
X128801342Y-88636904D01*
X128801342Y-88636904D02*
X128896580Y-88589285D01*
X128896580Y-88589285D02*
X128944200Y-88541666D01*
X128944200Y-88541666D02*
X128991819Y-88446428D01*
X128991819Y-88446428D02*
X128991819Y-88255952D01*
X128991819Y-88255952D02*
X128944200Y-88160714D01*
X128944200Y-88160714D02*
X128896580Y-88113095D01*
X128896580Y-88113095D02*
X128801342Y-88065476D01*
X128801342Y-88065476D02*
X128610866Y-88065476D01*
X128610866Y-88065476D02*
X128515628Y-88113095D01*
X128515628Y-88113095D02*
X128468009Y-88160714D01*
X128468009Y-88160714D02*
X128420390Y-88255952D01*
X122891705Y-87465819D02*
X122891705Y-88275342D01*
X122891705Y-88275342D02*
X122939324Y-88370580D01*
X122939324Y-88370580D02*
X122986943Y-88418200D01*
X122986943Y-88418200D02*
X123082181Y-88465819D01*
X123082181Y-88465819D02*
X123272657Y-88465819D01*
X123272657Y-88465819D02*
X123367895Y-88418200D01*
X123367895Y-88418200D02*
X123415514Y-88370580D01*
X123415514Y-88370580D02*
X123463133Y-88275342D01*
X123463133Y-88275342D02*
X123463133Y-87465819D01*
X124463133Y-88465819D02*
X123891705Y-88465819D01*
X124177419Y-88465819D02*
X124177419Y-87465819D01*
X124177419Y-87465819D02*
X124082181Y-87608676D01*
X124082181Y-87608676D02*
X123986943Y-87703914D01*
X123986943Y-87703914D02*
X123891705Y-87751533D01*
X125415514Y-88465819D02*
X124844086Y-88465819D01*
X125129800Y-88465819D02*
X125129800Y-87465819D01*
X125129800Y-87465819D02*
X125034562Y-87608676D01*
X125034562Y-87608676D02*
X124939324Y-87703914D01*
X124939324Y-87703914D02*
X124844086Y-87751533D01*
X113834580Y-105467857D02*
X113882200Y-105515476D01*
X113882200Y-105515476D02*
X113929819Y-105658333D01*
X113929819Y-105658333D02*
X113929819Y-105753571D01*
X113929819Y-105753571D02*
X113882200Y-105896428D01*
X113882200Y-105896428D02*
X113786961Y-105991666D01*
X113786961Y-105991666D02*
X113691723Y-106039285D01*
X113691723Y-106039285D02*
X113501247Y-106086904D01*
X113501247Y-106086904D02*
X113358390Y-106086904D01*
X113358390Y-106086904D02*
X113167914Y-106039285D01*
X113167914Y-106039285D02*
X113072676Y-105991666D01*
X113072676Y-105991666D02*
X112977438Y-105896428D01*
X112977438Y-105896428D02*
X112929819Y-105753571D01*
X112929819Y-105753571D02*
X112929819Y-105658333D01*
X112929819Y-105658333D02*
X112977438Y-105515476D01*
X112977438Y-105515476D02*
X113025057Y-105467857D01*
X113929819Y-104515476D02*
X113929819Y-105086904D01*
X113929819Y-104801190D02*
X112929819Y-104801190D01*
X112929819Y-104801190D02*
X113072676Y-104896428D01*
X113072676Y-104896428D02*
X113167914Y-104991666D01*
X113167914Y-104991666D02*
X113215533Y-105086904D01*
X112929819Y-104182142D02*
X112929819Y-103515476D01*
X112929819Y-103515476D02*
X113929819Y-103944047D01*
X107679761Y-102613186D02*
X107346428Y-102136995D01*
X107108333Y-102613186D02*
X107108333Y-101613186D01*
X107108333Y-101613186D02*
X107489285Y-101613186D01*
X107489285Y-101613186D02*
X107584523Y-101660805D01*
X107584523Y-101660805D02*
X107632142Y-101708424D01*
X107632142Y-101708424D02*
X107679761Y-101803662D01*
X107679761Y-101803662D02*
X107679761Y-101946519D01*
X107679761Y-101946519D02*
X107632142Y-102041757D01*
X107632142Y-102041757D02*
X107584523Y-102089376D01*
X107584523Y-102089376D02*
X107489285Y-102136995D01*
X107489285Y-102136995D02*
X107108333Y-102136995D01*
X107965476Y-101613186D02*
X108298809Y-102613186D01*
X108298809Y-102613186D02*
X108632142Y-101613186D01*
X109394047Y-101613186D02*
X109203571Y-101613186D01*
X109203571Y-101613186D02*
X109108333Y-101660805D01*
X109108333Y-101660805D02*
X109060714Y-101708424D01*
X109060714Y-101708424D02*
X108965476Y-101851281D01*
X108965476Y-101851281D02*
X108917857Y-102041757D01*
X108917857Y-102041757D02*
X108917857Y-102422709D01*
X108917857Y-102422709D02*
X108965476Y-102517947D01*
X108965476Y-102517947D02*
X109013095Y-102565567D01*
X109013095Y-102565567D02*
X109108333Y-102613186D01*
X109108333Y-102613186D02*
X109298809Y-102613186D01*
X109298809Y-102613186D02*
X109394047Y-102565567D01*
X109394047Y-102565567D02*
X109441666Y-102517947D01*
X109441666Y-102517947D02*
X109489285Y-102422709D01*
X109489285Y-102422709D02*
X109489285Y-102184614D01*
X109489285Y-102184614D02*
X109441666Y-102089376D01*
X109441666Y-102089376D02*
X109394047Y-102041757D01*
X109394047Y-102041757D02*
X109298809Y-101994138D01*
X109298809Y-101994138D02*
X109108333Y-101994138D01*
X109108333Y-101994138D02*
X109013095Y-102041757D01*
X109013095Y-102041757D02*
X108965476Y-102089376D01*
X108965476Y-102089376D02*
X108917857Y-102184614D01*
X130541733Y-75899180D02*
X130494114Y-75946800D01*
X130494114Y-75946800D02*
X130351257Y-75994419D01*
X130351257Y-75994419D02*
X130256019Y-75994419D01*
X130256019Y-75994419D02*
X130113162Y-75946800D01*
X130113162Y-75946800D02*
X130017924Y-75851561D01*
X130017924Y-75851561D02*
X129970305Y-75756323D01*
X129970305Y-75756323D02*
X129922686Y-75565847D01*
X129922686Y-75565847D02*
X129922686Y-75422990D01*
X129922686Y-75422990D02*
X129970305Y-75232514D01*
X129970305Y-75232514D02*
X130017924Y-75137276D01*
X130017924Y-75137276D02*
X130113162Y-75042038D01*
X130113162Y-75042038D02*
X130256019Y-74994419D01*
X130256019Y-74994419D02*
X130351257Y-74994419D01*
X130351257Y-74994419D02*
X130494114Y-75042038D01*
X130494114Y-75042038D02*
X130541733Y-75089657D01*
X131398876Y-75327752D02*
X131398876Y-75994419D01*
X131160781Y-74946800D02*
X130922686Y-75661085D01*
X130922686Y-75661085D02*
X131541733Y-75661085D01*
X160951942Y-96517619D02*
X160618609Y-96041428D01*
X160380514Y-96517619D02*
X160380514Y-95517619D01*
X160380514Y-95517619D02*
X160761466Y-95517619D01*
X160761466Y-95517619D02*
X160856704Y-95565238D01*
X160856704Y-95565238D02*
X160904323Y-95612857D01*
X160904323Y-95612857D02*
X160951942Y-95708095D01*
X160951942Y-95708095D02*
X160951942Y-95850952D01*
X160951942Y-95850952D02*
X160904323Y-95946190D01*
X160904323Y-95946190D02*
X160856704Y-95993809D01*
X160856704Y-95993809D02*
X160761466Y-96041428D01*
X160761466Y-96041428D02*
X160380514Y-96041428D01*
X161332895Y-95612857D02*
X161380514Y-95565238D01*
X161380514Y-95565238D02*
X161475752Y-95517619D01*
X161475752Y-95517619D02*
X161713847Y-95517619D01*
X161713847Y-95517619D02*
X161809085Y-95565238D01*
X161809085Y-95565238D02*
X161856704Y-95612857D01*
X161856704Y-95612857D02*
X161904323Y-95708095D01*
X161904323Y-95708095D02*
X161904323Y-95803333D01*
X161904323Y-95803333D02*
X161856704Y-95946190D01*
X161856704Y-95946190D02*
X161285276Y-96517619D01*
X161285276Y-96517619D02*
X161904323Y-96517619D01*
X162285276Y-95612857D02*
X162332895Y-95565238D01*
X162332895Y-95565238D02*
X162428133Y-95517619D01*
X162428133Y-95517619D02*
X162666228Y-95517619D01*
X162666228Y-95517619D02*
X162761466Y-95565238D01*
X162761466Y-95565238D02*
X162809085Y-95612857D01*
X162809085Y-95612857D02*
X162856704Y-95708095D01*
X162856704Y-95708095D02*
X162856704Y-95803333D01*
X162856704Y-95803333D02*
X162809085Y-95946190D01*
X162809085Y-95946190D02*
X162237657Y-96517619D01*
X162237657Y-96517619D02*
X162856704Y-96517619D01*
X104444895Y-83300219D02*
X104444895Y-84109742D01*
X104444895Y-84109742D02*
X104492514Y-84204980D01*
X104492514Y-84204980D02*
X104540133Y-84252600D01*
X104540133Y-84252600D02*
X104635371Y-84300219D01*
X104635371Y-84300219D02*
X104825847Y-84300219D01*
X104825847Y-84300219D02*
X104921085Y-84252600D01*
X104921085Y-84252600D02*
X104968704Y-84204980D01*
X104968704Y-84204980D02*
X105016323Y-84109742D01*
X105016323Y-84109742D02*
X105016323Y-83300219D01*
X105921085Y-83633552D02*
X105921085Y-84300219D01*
X105682990Y-83252600D02*
X105444895Y-83966885D01*
X105444895Y-83966885D02*
X106063942Y-83966885D01*
X146427419Y-116397272D02*
X145951228Y-116730605D01*
X146427419Y-116968700D02*
X145427419Y-116968700D01*
X145427419Y-116968700D02*
X145427419Y-116587748D01*
X145427419Y-116587748D02*
X145475038Y-116492510D01*
X145475038Y-116492510D02*
X145522657Y-116444891D01*
X145522657Y-116444891D02*
X145617895Y-116397272D01*
X145617895Y-116397272D02*
X145760752Y-116397272D01*
X145760752Y-116397272D02*
X145855990Y-116444891D01*
X145855990Y-116444891D02*
X145903609Y-116492510D01*
X145903609Y-116492510D02*
X145951228Y-116587748D01*
X145951228Y-116587748D02*
X145951228Y-116968700D01*
X145427419Y-116111557D02*
X146427419Y-115778224D01*
X146427419Y-115778224D02*
X145427419Y-115444891D01*
X145427419Y-115206795D02*
X145427419Y-114540129D01*
X145427419Y-114540129D02*
X146427419Y-114968700D01*
X153579533Y-74826019D02*
X153246200Y-74349828D01*
X153008105Y-74826019D02*
X153008105Y-73826019D01*
X153008105Y-73826019D02*
X153389057Y-73826019D01*
X153389057Y-73826019D02*
X153484295Y-73873638D01*
X153484295Y-73873638D02*
X153531914Y-73921257D01*
X153531914Y-73921257D02*
X153579533Y-74016495D01*
X153579533Y-74016495D02*
X153579533Y-74159352D01*
X153579533Y-74159352D02*
X153531914Y-74254590D01*
X153531914Y-74254590D02*
X153484295Y-74302209D01*
X153484295Y-74302209D02*
X153389057Y-74349828D01*
X153389057Y-74349828D02*
X153008105Y-74349828D01*
X153960486Y-73921257D02*
X154008105Y-73873638D01*
X154008105Y-73873638D02*
X154103343Y-73826019D01*
X154103343Y-73826019D02*
X154341438Y-73826019D01*
X154341438Y-73826019D02*
X154436676Y-73873638D01*
X154436676Y-73873638D02*
X154484295Y-73921257D01*
X154484295Y-73921257D02*
X154531914Y-74016495D01*
X154531914Y-74016495D02*
X154531914Y-74111733D01*
X154531914Y-74111733D02*
X154484295Y-74254590D01*
X154484295Y-74254590D02*
X153912867Y-74826019D01*
X153912867Y-74826019D02*
X154531914Y-74826019D01*
X132529342Y-98168619D02*
X132196009Y-97692428D01*
X131957914Y-98168619D02*
X131957914Y-97168619D01*
X131957914Y-97168619D02*
X132338866Y-97168619D01*
X132338866Y-97168619D02*
X132434104Y-97216238D01*
X132434104Y-97216238D02*
X132481723Y-97263857D01*
X132481723Y-97263857D02*
X132529342Y-97359095D01*
X132529342Y-97359095D02*
X132529342Y-97501952D01*
X132529342Y-97501952D02*
X132481723Y-97597190D01*
X132481723Y-97597190D02*
X132434104Y-97644809D01*
X132434104Y-97644809D02*
X132338866Y-97692428D01*
X132338866Y-97692428D02*
X131957914Y-97692428D01*
X132910295Y-97263857D02*
X132957914Y-97216238D01*
X132957914Y-97216238D02*
X133053152Y-97168619D01*
X133053152Y-97168619D02*
X133291247Y-97168619D01*
X133291247Y-97168619D02*
X133386485Y-97216238D01*
X133386485Y-97216238D02*
X133434104Y-97263857D01*
X133434104Y-97263857D02*
X133481723Y-97359095D01*
X133481723Y-97359095D02*
X133481723Y-97454333D01*
X133481723Y-97454333D02*
X133434104Y-97597190D01*
X133434104Y-97597190D02*
X132862676Y-98168619D01*
X132862676Y-98168619D02*
X133481723Y-98168619D01*
X134338866Y-97501952D02*
X134338866Y-98168619D01*
X134100771Y-97121000D02*
X133862676Y-97835285D01*
X133862676Y-97835285D02*
X134481723Y-97835285D01*
X130633419Y-117908766D02*
X131347704Y-117908766D01*
X131347704Y-117908766D02*
X131490561Y-117956385D01*
X131490561Y-117956385D02*
X131585800Y-118051623D01*
X131585800Y-118051623D02*
X131633419Y-118194480D01*
X131633419Y-118194480D02*
X131633419Y-118289718D01*
X130728657Y-117480194D02*
X130681038Y-117432575D01*
X130681038Y-117432575D02*
X130633419Y-117337337D01*
X130633419Y-117337337D02*
X130633419Y-117099242D01*
X130633419Y-117099242D02*
X130681038Y-117004004D01*
X130681038Y-117004004D02*
X130728657Y-116956385D01*
X130728657Y-116956385D02*
X130823895Y-116908766D01*
X130823895Y-116908766D02*
X130919133Y-116908766D01*
X130919133Y-116908766D02*
X131061990Y-116956385D01*
X131061990Y-116956385D02*
X131633419Y-117527813D01*
X131633419Y-117527813D02*
X131633419Y-116908766D01*
X139322980Y-81999057D02*
X139370600Y-82046676D01*
X139370600Y-82046676D02*
X139418219Y-82189533D01*
X139418219Y-82189533D02*
X139418219Y-82284771D01*
X139418219Y-82284771D02*
X139370600Y-82427628D01*
X139370600Y-82427628D02*
X139275361Y-82522866D01*
X139275361Y-82522866D02*
X139180123Y-82570485D01*
X139180123Y-82570485D02*
X138989647Y-82618104D01*
X138989647Y-82618104D02*
X138846790Y-82618104D01*
X138846790Y-82618104D02*
X138656314Y-82570485D01*
X138656314Y-82570485D02*
X138561076Y-82522866D01*
X138561076Y-82522866D02*
X138465838Y-82427628D01*
X138465838Y-82427628D02*
X138418219Y-82284771D01*
X138418219Y-82284771D02*
X138418219Y-82189533D01*
X138418219Y-82189533D02*
X138465838Y-82046676D01*
X138465838Y-82046676D02*
X138513457Y-81999057D01*
X138513457Y-81618104D02*
X138465838Y-81570485D01*
X138465838Y-81570485D02*
X138418219Y-81475247D01*
X138418219Y-81475247D02*
X138418219Y-81237152D01*
X138418219Y-81237152D02*
X138465838Y-81141914D01*
X138465838Y-81141914D02*
X138513457Y-81094295D01*
X138513457Y-81094295D02*
X138608695Y-81046676D01*
X138608695Y-81046676D02*
X138703933Y-81046676D01*
X138703933Y-81046676D02*
X138846790Y-81094295D01*
X138846790Y-81094295D02*
X139418219Y-81665723D01*
X139418219Y-81665723D02*
X139418219Y-81046676D01*
X139418219Y-80094295D02*
X139418219Y-80665723D01*
X139418219Y-80380009D02*
X138418219Y-80380009D01*
X138418219Y-80380009D02*
X138561076Y-80475247D01*
X138561076Y-80475247D02*
X138656314Y-80570485D01*
X138656314Y-80570485D02*
X138703933Y-80665723D01*
X103553419Y-89212657D02*
X103077228Y-89545990D01*
X103553419Y-89784085D02*
X102553419Y-89784085D01*
X102553419Y-89784085D02*
X102553419Y-89403133D01*
X102553419Y-89403133D02*
X102601038Y-89307895D01*
X102601038Y-89307895D02*
X102648657Y-89260276D01*
X102648657Y-89260276D02*
X102743895Y-89212657D01*
X102743895Y-89212657D02*
X102886752Y-89212657D01*
X102886752Y-89212657D02*
X102981990Y-89260276D01*
X102981990Y-89260276D02*
X103029609Y-89307895D01*
X103029609Y-89307895D02*
X103077228Y-89403133D01*
X103077228Y-89403133D02*
X103077228Y-89784085D01*
X103553419Y-88260276D02*
X103553419Y-88831704D01*
X103553419Y-88545990D02*
X102553419Y-88545990D01*
X102553419Y-88545990D02*
X102696276Y-88641228D01*
X102696276Y-88641228D02*
X102791514Y-88736466D01*
X102791514Y-88736466D02*
X102839133Y-88831704D01*
X102886752Y-87403133D02*
X103553419Y-87403133D01*
X102505800Y-87641228D02*
X103220085Y-87879323D01*
X103220085Y-87879323D02*
X103220085Y-87260276D01*
X123032142Y-98779819D02*
X122698809Y-98303628D01*
X122460714Y-98779819D02*
X122460714Y-97779819D01*
X122460714Y-97779819D02*
X122841666Y-97779819D01*
X122841666Y-97779819D02*
X122936904Y-97827438D01*
X122936904Y-97827438D02*
X122984523Y-97875057D01*
X122984523Y-97875057D02*
X123032142Y-97970295D01*
X123032142Y-97970295D02*
X123032142Y-98113152D01*
X123032142Y-98113152D02*
X122984523Y-98208390D01*
X122984523Y-98208390D02*
X122936904Y-98256009D01*
X122936904Y-98256009D02*
X122841666Y-98303628D01*
X122841666Y-98303628D02*
X122460714Y-98303628D01*
X123984523Y-98779819D02*
X123413095Y-98779819D01*
X123698809Y-98779819D02*
X123698809Y-97779819D01*
X123698809Y-97779819D02*
X123603571Y-97922676D01*
X123603571Y-97922676D02*
X123508333Y-98017914D01*
X123508333Y-98017914D02*
X123413095Y-98065533D01*
X124317857Y-97779819D02*
X124936904Y-97779819D01*
X124936904Y-97779819D02*
X124603571Y-98160771D01*
X124603571Y-98160771D02*
X124746428Y-98160771D01*
X124746428Y-98160771D02*
X124841666Y-98208390D01*
X124841666Y-98208390D02*
X124889285Y-98256009D01*
X124889285Y-98256009D02*
X124936904Y-98351247D01*
X124936904Y-98351247D02*
X124936904Y-98589342D01*
X124936904Y-98589342D02*
X124889285Y-98684580D01*
X124889285Y-98684580D02*
X124841666Y-98732200D01*
X124841666Y-98732200D02*
X124746428Y-98779819D01*
X124746428Y-98779819D02*
X124460714Y-98779819D01*
X124460714Y-98779819D02*
X124365476Y-98732200D01*
X124365476Y-98732200D02*
X124317857Y-98684580D01*
X135843180Y-91422457D02*
X135890800Y-91470076D01*
X135890800Y-91470076D02*
X135938419Y-91612933D01*
X135938419Y-91612933D02*
X135938419Y-91708171D01*
X135938419Y-91708171D02*
X135890800Y-91851028D01*
X135890800Y-91851028D02*
X135795561Y-91946266D01*
X135795561Y-91946266D02*
X135700323Y-91993885D01*
X135700323Y-91993885D02*
X135509847Y-92041504D01*
X135509847Y-92041504D02*
X135366990Y-92041504D01*
X135366990Y-92041504D02*
X135176514Y-91993885D01*
X135176514Y-91993885D02*
X135081276Y-91946266D01*
X135081276Y-91946266D02*
X134986038Y-91851028D01*
X134986038Y-91851028D02*
X134938419Y-91708171D01*
X134938419Y-91708171D02*
X134938419Y-91612933D01*
X134938419Y-91612933D02*
X134986038Y-91470076D01*
X134986038Y-91470076D02*
X135033657Y-91422457D01*
X135033657Y-91041504D02*
X134986038Y-90993885D01*
X134986038Y-90993885D02*
X134938419Y-90898647D01*
X134938419Y-90898647D02*
X134938419Y-90660552D01*
X134938419Y-90660552D02*
X134986038Y-90565314D01*
X134986038Y-90565314D02*
X135033657Y-90517695D01*
X135033657Y-90517695D02*
X135128895Y-90470076D01*
X135128895Y-90470076D02*
X135224133Y-90470076D01*
X135224133Y-90470076D02*
X135366990Y-90517695D01*
X135366990Y-90517695D02*
X135938419Y-91089123D01*
X135938419Y-91089123D02*
X135938419Y-90470076D01*
X135033657Y-90089123D02*
X134986038Y-90041504D01*
X134986038Y-90041504D02*
X134938419Y-89946266D01*
X134938419Y-89946266D02*
X134938419Y-89708171D01*
X134938419Y-89708171D02*
X134986038Y-89612933D01*
X134986038Y-89612933D02*
X135033657Y-89565314D01*
X135033657Y-89565314D02*
X135128895Y-89517695D01*
X135128895Y-89517695D02*
X135224133Y-89517695D01*
X135224133Y-89517695D02*
X135366990Y-89565314D01*
X135366990Y-89565314D02*
X135938419Y-90136742D01*
X135938419Y-90136742D02*
X135938419Y-89517695D01*
X126481105Y-78093219D02*
X127052533Y-78093219D01*
X126766819Y-79093219D02*
X126766819Y-78093219D01*
X127385867Y-79093219D02*
X127385867Y-78093219D01*
X127385867Y-78093219D02*
X127766819Y-78093219D01*
X127766819Y-78093219D02*
X127862057Y-78140838D01*
X127862057Y-78140838D02*
X127909676Y-78188457D01*
X127909676Y-78188457D02*
X127957295Y-78283695D01*
X127957295Y-78283695D02*
X127957295Y-78426552D01*
X127957295Y-78426552D02*
X127909676Y-78521790D01*
X127909676Y-78521790D02*
X127862057Y-78569409D01*
X127862057Y-78569409D02*
X127766819Y-78617028D01*
X127766819Y-78617028D02*
X127385867Y-78617028D01*
X128909676Y-79093219D02*
X128338248Y-79093219D01*
X128623962Y-79093219D02*
X128623962Y-78093219D01*
X128623962Y-78093219D02*
X128528724Y-78236076D01*
X128528724Y-78236076D02*
X128433486Y-78331314D01*
X128433486Y-78331314D02*
X128338248Y-78378933D01*
X129528724Y-78093219D02*
X129623962Y-78093219D01*
X129623962Y-78093219D02*
X129719200Y-78140838D01*
X129719200Y-78140838D02*
X129766819Y-78188457D01*
X129766819Y-78188457D02*
X129814438Y-78283695D01*
X129814438Y-78283695D02*
X129862057Y-78474171D01*
X129862057Y-78474171D02*
X129862057Y-78712266D01*
X129862057Y-78712266D02*
X129814438Y-78902742D01*
X129814438Y-78902742D02*
X129766819Y-78997980D01*
X129766819Y-78997980D02*
X129719200Y-79045600D01*
X129719200Y-79045600D02*
X129623962Y-79093219D01*
X129623962Y-79093219D02*
X129528724Y-79093219D01*
X129528724Y-79093219D02*
X129433486Y-79045600D01*
X129433486Y-79045600D02*
X129385867Y-78997980D01*
X129385867Y-78997980D02*
X129338248Y-78902742D01*
X129338248Y-78902742D02*
X129290629Y-78712266D01*
X129290629Y-78712266D02*
X129290629Y-78474171D01*
X129290629Y-78474171D02*
X129338248Y-78283695D01*
X129338248Y-78283695D02*
X129385867Y-78188457D01*
X129385867Y-78188457D02*
X129433486Y-78140838D01*
X129433486Y-78140838D02*
X129528724Y-78093219D01*
D12*
%TO.C,C20*%
X124198000Y-104343652D02*
X124198000Y-102921148D01*
X126018000Y-104343652D02*
X126018000Y-102921148D01*
%TO.C,C24*%
X144162400Y-90881548D02*
X144162400Y-92304052D01*
X145982400Y-90881548D02*
X145982400Y-92304052D01*
%TO.C,C18*%
X105682515Y-94519767D02*
X107105019Y-94519767D01*
X105682515Y-96339767D02*
X107105019Y-96339767D01*
%TO.C,C25*%
X116273200Y-90551348D02*
X116273200Y-91973852D01*
X118093200Y-90551348D02*
X118093200Y-91973852D01*
D13*
%TO.C,G\u002A\u002A\u002A*%
G36*
X165868549Y-100250001D02*
G01*
X165868549Y-104750554D01*
X165418494Y-104750554D01*
X164968439Y-104750554D01*
X164968439Y-100250001D01*
X164968439Y-95749447D01*
X165418494Y-95749447D01*
X165868549Y-95749447D01*
X165868549Y-100250001D01*
G37*
G36*
X170031561Y-100250001D02*
G01*
X170031561Y-104750554D01*
X169581506Y-104750554D01*
X169131451Y-104750554D01*
X169131451Y-100250001D01*
X169131451Y-95749447D01*
X169581506Y-95749447D01*
X170031561Y-95749447D01*
X170031561Y-100250001D01*
G37*
G36*
X168941584Y-101392720D02*
G01*
X168941584Y-101726745D01*
X168568881Y-101726745D01*
X168196179Y-101726745D01*
X168196179Y-101596651D01*
X168196179Y-101466557D01*
X168491528Y-101466557D01*
X168786877Y-101466557D01*
X168786877Y-101262625D01*
X168786877Y-101058694D01*
X168864230Y-101058694D01*
X168941584Y-101058694D01*
X168941584Y-101392720D01*
G37*
G36*
X166878421Y-97191237D02*
G01*
X166898754Y-97196882D01*
X166940947Y-97208640D01*
X166943011Y-97259494D01*
X166945074Y-97310347D01*
X166921914Y-97305742D01*
X166900045Y-97300999D01*
X166874114Y-97294862D01*
X166867110Y-97293113D01*
X166835465Y-97285090D01*
X166833399Y-97234544D01*
X166832576Y-97208868D01*
X166834255Y-97193088D01*
X166840848Y-97185816D01*
X166854766Y-97185662D01*
X166878421Y-97191237D01*
G37*
G36*
X166876604Y-101017688D02*
G01*
X166895238Y-101022464D01*
X166940947Y-101034082D01*
X166943031Y-101085970D01*
X166943908Y-101112451D01*
X166943346Y-101127612D01*
X166940537Y-101134183D01*
X166934674Y-101134893D01*
X166928967Y-101133539D01*
X166913158Y-101129778D01*
X166889684Y-101124705D01*
X166872384Y-101121170D01*
X166831949Y-101113121D01*
X166831949Y-101061295D01*
X166831994Y-101035469D01*
X166833871Y-101019797D01*
X166840191Y-101012678D01*
X166853565Y-101012509D01*
X166876604Y-101017688D01*
G37*
G36*
X167867054Y-97725529D02*
G01*
X167901918Y-97725828D01*
X167926388Y-97726557D01*
X167942299Y-97727903D01*
X167951487Y-97730054D01*
X167955786Y-97733200D01*
X167957033Y-97737528D01*
X167957087Y-97739536D01*
X167956524Y-97744366D01*
X167953608Y-97747941D01*
X167946507Y-97750451D01*
X167933383Y-97752083D01*
X167912403Y-97753025D01*
X167881731Y-97753466D01*
X167839532Y-97753594D01*
X167819961Y-97753600D01*
X167772869Y-97753542D01*
X167738005Y-97753243D01*
X167713535Y-97752515D01*
X167697624Y-97751169D01*
X167688436Y-97749017D01*
X167684136Y-97745871D01*
X167682890Y-97741543D01*
X167682835Y-97739536D01*
X167683399Y-97734706D01*
X167686314Y-97731130D01*
X167693416Y-97728620D01*
X167706539Y-97726988D01*
X167727519Y-97726046D01*
X167758191Y-97725605D01*
X167800390Y-97725477D01*
X167819961Y-97725471D01*
X167867054Y-97725529D01*
G37*
G36*
X167768561Y-98342516D02*
G01*
X167777589Y-98355387D01*
X167784081Y-98374647D01*
X167793473Y-98392004D01*
X167812785Y-98404172D01*
X167843127Y-98411545D01*
X167885613Y-98414517D01*
X167897089Y-98414619D01*
X167926217Y-98414879D01*
X167944030Y-98416087D01*
X167953273Y-98418888D01*
X167956690Y-98423924D01*
X167957087Y-98428683D01*
X167956357Y-98434248D01*
X167952725Y-98438113D01*
X167944030Y-98440587D01*
X167928111Y-98441978D01*
X167902807Y-98442594D01*
X167865955Y-98442746D01*
X167858638Y-98442747D01*
X167819680Y-98442643D01*
X167792624Y-98442124D01*
X167775310Y-98440882D01*
X167765575Y-98438608D01*
X167761259Y-98434993D01*
X167760200Y-98429728D01*
X167760188Y-98428683D01*
X167763298Y-98417259D01*
X167767619Y-98414619D01*
X167769675Y-98409880D01*
X167764103Y-98398990D01*
X167756434Y-98381984D01*
X167753334Y-98362741D01*
X167755267Y-98346954D01*
X167759391Y-98341274D01*
X167768561Y-98342516D01*
G37*
G36*
X168493283Y-99333982D02*
G01*
X168557396Y-99334426D01*
X168617783Y-99335004D01*
X168672853Y-99335688D01*
X168721012Y-99336452D01*
X168760667Y-99337269D01*
X168790225Y-99338112D01*
X168808094Y-99338955D01*
X168812103Y-99339360D01*
X168838907Y-99350130D01*
X168866663Y-99372120D01*
X168892893Y-99402912D01*
X168914918Y-99439679D01*
X168938068Y-99486686D01*
X168940156Y-99808570D01*
X168942244Y-100130455D01*
X168569212Y-100130455D01*
X168196179Y-100130455D01*
X168196179Y-100000361D01*
X168196179Y-99870267D01*
X168491528Y-99870267D01*
X168786877Y-99870267D01*
X168786877Y-99772696D01*
X168786575Y-99725039D01*
X168785426Y-99689150D01*
X168783070Y-99662742D01*
X168779145Y-99643527D01*
X168773289Y-99629217D01*
X168765140Y-99617525D01*
X168761741Y-99613694D01*
X168745356Y-99596014D01*
X168470768Y-99596014D01*
X168196179Y-99596014D01*
X168196176Y-99464162D01*
X168196173Y-99332310D01*
X168493283Y-99333982D01*
G37*
G36*
X167821871Y-98717657D02*
G01*
X167827113Y-98721604D01*
X167829641Y-98731803D01*
X167830445Y-98751216D01*
X167830509Y-98769741D01*
X167830509Y-98822481D01*
X167893798Y-98822481D01*
X167923758Y-98822621D01*
X167942360Y-98823543D01*
X167952311Y-98825997D01*
X167956317Y-98830735D01*
X167957084Y-98838511D01*
X167957087Y-98840062D01*
X167957087Y-98857642D01*
X167823477Y-98857642D01*
X167689867Y-98857642D01*
X167689867Y-98787321D01*
X167690060Y-98755315D01*
X167690979Y-98734826D01*
X167693132Y-98723309D01*
X167697028Y-98718217D01*
X167703178Y-98717005D01*
X167703931Y-98717000D01*
X167711122Y-98718245D01*
X167715341Y-98723925D01*
X167717366Y-98736954D01*
X167717973Y-98760247D01*
X167717996Y-98769741D01*
X167717996Y-98822481D01*
X167756672Y-98822481D01*
X167795349Y-98822481D01*
X167795349Y-98769741D01*
X167795568Y-98742914D01*
X167796884Y-98727189D01*
X167800283Y-98719603D01*
X167806754Y-98717194D01*
X167812929Y-98717000D01*
X167821871Y-98717657D01*
G37*
G36*
X167055791Y-97234688D02*
G01*
X167076188Y-97238814D01*
X167106643Y-97245199D01*
X167145321Y-97253444D01*
X167190388Y-97263147D01*
X167240010Y-97273906D01*
X167292350Y-97285320D01*
X167345577Y-97296988D01*
X167397854Y-97308509D01*
X167447347Y-97319482D01*
X167492222Y-97329505D01*
X167530644Y-97338177D01*
X167560779Y-97345097D01*
X167580792Y-97349864D01*
X167582102Y-97350191D01*
X167590746Y-97353495D01*
X167595655Y-97360193D01*
X167597873Y-97373638D01*
X167598442Y-97397183D01*
X167598450Y-97402756D01*
X167597895Y-97428896D01*
X167595794Y-97443792D01*
X167591490Y-97450237D01*
X167587073Y-97451219D01*
X167578192Y-97449741D01*
X167557121Y-97445529D01*
X167525397Y-97438917D01*
X167484555Y-97430238D01*
X167436133Y-97419826D01*
X167381665Y-97408015D01*
X167322690Y-97395137D01*
X167260742Y-97381527D01*
X167197357Y-97367518D01*
X167134073Y-97353444D01*
X167072424Y-97339638D01*
X167051703Y-97334973D01*
X167043374Y-97331910D01*
X167038620Y-97325242D01*
X167036454Y-97311683D01*
X167035888Y-97287946D01*
X167035880Y-97282314D01*
X167036420Y-97255988D01*
X167038472Y-97240914D01*
X167042682Y-97234305D01*
X167047286Y-97233223D01*
X167055791Y-97234688D01*
G37*
G36*
X167897136Y-98484213D02*
G01*
X167926205Y-98501286D01*
X167947900Y-98526627D01*
X167960760Y-98557699D01*
X167963325Y-98591968D01*
X167954134Y-98626895D01*
X167951293Y-98632724D01*
X167934488Y-98653396D01*
X167909371Y-98671880D01*
X167881476Y-98684795D01*
X167859693Y-98688811D01*
X167859368Y-98688871D01*
X167842468Y-98685826D01*
X167820488Y-98678165D01*
X167811898Y-98674308D01*
X167781854Y-98653372D01*
X167762687Y-98626702D01*
X167753790Y-98596677D01*
X167754389Y-98572362D01*
X167782701Y-98572362D01*
X167783998Y-98598186D01*
X167798963Y-98623139D01*
X167805194Y-98629801D01*
X167823198Y-98645306D01*
X167840197Y-98652206D01*
X167859693Y-98653554D01*
X167892315Y-98647734D01*
X167917184Y-98630317D01*
X167928216Y-98615034D01*
X167933452Y-98595043D01*
X167932295Y-98569753D01*
X167925585Y-98545929D01*
X167918156Y-98533884D01*
X167893935Y-98516422D01*
X167865255Y-98509534D01*
X167836053Y-98512907D01*
X167810264Y-98526228D01*
X167794831Y-98543680D01*
X167782701Y-98572362D01*
X167754389Y-98572362D01*
X167754554Y-98565679D01*
X167764368Y-98536087D01*
X167782624Y-98510281D01*
X167808713Y-98490641D01*
X167842026Y-98479546D01*
X167862154Y-98477945D01*
X167897136Y-98484213D01*
G37*
G36*
X167949178Y-96699673D02*
G01*
X167953218Y-96703964D01*
X167955586Y-96714088D01*
X167956722Y-96732475D01*
X167957070Y-96761557D01*
X167957087Y-96776136D01*
X167957087Y-96853489D01*
X167823477Y-96853489D01*
X167689867Y-96853489D01*
X167689867Y-96776136D01*
X167690029Y-96742283D01*
X167690809Y-96720062D01*
X167692650Y-96707042D01*
X167695993Y-96700791D01*
X167701281Y-96698878D01*
X167703931Y-96698783D01*
X167710613Y-96699840D01*
X167714766Y-96704797D01*
X167716983Y-96716331D01*
X167717859Y-96737118D01*
X167717996Y-96762072D01*
X167717996Y-96825361D01*
X167756672Y-96825361D01*
X167795349Y-96825361D01*
X167795349Y-96762072D01*
X167795489Y-96732112D01*
X167796410Y-96713510D01*
X167798864Y-96703559D01*
X167803603Y-96699553D01*
X167811378Y-96698786D01*
X167812929Y-96698783D01*
X167821251Y-96699287D01*
X167826419Y-96702603D01*
X167829183Y-96711437D01*
X167830295Y-96728497D01*
X167830509Y-96756488D01*
X167830509Y-96762072D01*
X167830509Y-96825361D01*
X167879734Y-96825361D01*
X167928959Y-96825361D01*
X167928959Y-96762072D01*
X167929194Y-96732002D01*
X167930296Y-96713318D01*
X167932859Y-96703341D01*
X167937478Y-96699396D01*
X167943023Y-96698783D01*
X167949178Y-96699673D01*
G37*
G36*
X167054612Y-101060183D02*
G01*
X167075646Y-101064428D01*
X167107315Y-101071097D01*
X167148074Y-101079857D01*
X167196381Y-101090376D01*
X167250692Y-101102323D01*
X167309464Y-101115364D01*
X167323377Y-101118467D01*
X167382656Y-101131680D01*
X167437566Y-101143881D01*
X167486610Y-101154739D01*
X167528290Y-101163924D01*
X167561108Y-101171107D01*
X167583567Y-101175958D01*
X167594168Y-101178147D01*
X167594788Y-101178240D01*
X167596531Y-101184701D01*
X167597824Y-101201803D01*
X167598431Y-101226124D01*
X167598450Y-101231455D01*
X167598116Y-101258453D01*
X167596679Y-101274025D01*
X167593483Y-101280804D01*
X167587876Y-101281419D01*
X167586143Y-101280955D01*
X167576670Y-101278632D01*
X167555064Y-101273636D01*
X167522928Y-101266329D01*
X167481862Y-101257071D01*
X167433468Y-101246225D01*
X167379347Y-101234149D01*
X167321100Y-101221206D01*
X167317165Y-101220334D01*
X167258704Y-101207349D01*
X167204263Y-101195213D01*
X167155443Y-101184286D01*
X167113846Y-101174928D01*
X167081074Y-101167500D01*
X167058726Y-101162362D01*
X167048405Y-101159873D01*
X167048187Y-101159811D01*
X167041523Y-101155496D01*
X167037745Y-101145393D01*
X167036123Y-101126403D01*
X167035880Y-101107445D01*
X167036601Y-101080382D01*
X167039074Y-101065009D01*
X167043770Y-101059011D01*
X167045754Y-101058694D01*
X167054612Y-101060183D01*
G37*
G36*
X167867460Y-97803343D02*
G01*
X167892076Y-97805130D01*
X167909585Y-97808725D01*
X167923452Y-97814641D01*
X167927376Y-97816918D01*
X167949225Y-97837876D01*
X167961785Y-97866238D01*
X167964353Y-97898273D01*
X167956228Y-97930246D01*
X167950691Y-97940790D01*
X167937409Y-97956861D01*
X167918919Y-97967953D01*
X167892861Y-97974781D01*
X167856880Y-97978060D01*
X167825944Y-97978628D01*
X167795184Y-97978409D01*
X167775858Y-97977378D01*
X167765337Y-97974972D01*
X167760991Y-97970630D01*
X167760188Y-97964563D01*
X167761318Y-97957676D01*
X167766557Y-97953492D01*
X167778678Y-97951347D01*
X167800453Y-97950577D01*
X167818912Y-97950499D01*
X167849269Y-97949602D01*
X167876774Y-97947225D01*
X167896377Y-97943840D01*
X167899117Y-97943011D01*
X167919769Y-97928985D01*
X167931836Y-97906361D01*
X167933527Y-97878856D01*
X167932579Y-97873619D01*
X167926369Y-97855840D01*
X167915394Y-97843618D01*
X167897386Y-97836019D01*
X167870074Y-97832110D01*
X167831191Y-97830955D01*
X167828945Y-97830953D01*
X167797362Y-97830752D01*
X167777268Y-97829797D01*
X167766090Y-97827563D01*
X167761254Y-97823522D01*
X167760189Y-97817149D01*
X167760188Y-97816889D01*
X167761132Y-97810553D01*
X167765641Y-97806471D01*
X167776230Y-97804153D01*
X167795415Y-97803110D01*
X167825712Y-97802852D01*
X167832267Y-97802851D01*
X167867460Y-97803343D01*
G37*
G36*
X167957087Y-97489896D02*
G01*
X167953451Y-97503991D01*
X167946643Y-97507476D01*
X167941070Y-97509601D01*
X167943102Y-97517904D01*
X167950132Y-97530330D01*
X167961822Y-97561992D01*
X167962440Y-97596762D01*
X167951988Y-97629080D01*
X167950093Y-97632360D01*
X167925016Y-97660705D01*
X167892133Y-97678095D01*
X167858638Y-97683226D01*
X167856511Y-97682867D01*
X167822959Y-97677210D01*
X167793080Y-97660820D01*
X167770491Y-97636544D01*
X167756680Y-97606873D01*
X167753239Y-97575228D01*
X167782826Y-97575228D01*
X167785139Y-97596164D01*
X167797226Y-97620580D01*
X167817888Y-97640807D01*
X167842606Y-97653112D01*
X167856511Y-97655150D01*
X167885543Y-97648730D01*
X167910640Y-97631646D01*
X167928462Y-97607163D01*
X167935668Y-97578545D01*
X167935683Y-97577797D01*
X167932198Y-97559788D01*
X167923374Y-97539655D01*
X167922445Y-97538087D01*
X167902440Y-97516291D01*
X167877947Y-97505436D01*
X167851669Y-97504378D01*
X167826313Y-97511972D01*
X167804584Y-97527075D01*
X167789186Y-97548541D01*
X167782826Y-97575228D01*
X167753239Y-97575228D01*
X167753137Y-97574294D01*
X167761351Y-97541295D01*
X167767143Y-97530330D01*
X167775336Y-97515300D01*
X167775583Y-97508672D01*
X167770633Y-97507476D01*
X167762259Y-97501356D01*
X167760188Y-97489896D01*
X167760188Y-97472315D01*
X167858638Y-97472315D01*
X167957087Y-97472315D01*
X167957087Y-97489896D01*
G37*
G36*
X167955241Y-96900439D02*
G01*
X167957087Y-96911591D01*
X167954992Y-96922170D01*
X167946821Y-96931044D01*
X167929750Y-96940604D01*
X167914895Y-96947303D01*
X167872702Y-96965601D01*
X167872702Y-97021958D01*
X167872702Y-97078314D01*
X167914895Y-97099613D01*
X167938498Y-97112546D01*
X167951553Y-97122889D01*
X167956674Y-97133007D01*
X167957087Y-97137817D01*
X167956547Y-97143211D01*
X167953857Y-97146167D01*
X167947416Y-97146129D01*
X167935620Y-97142546D01*
X167916867Y-97134865D01*
X167889555Y-97122532D01*
X167852080Y-97104994D01*
X167841213Y-97099857D01*
X167825353Y-97092360D01*
X167785754Y-97073365D01*
X167750712Y-97056082D01*
X167722148Y-97041496D01*
X167701981Y-97030594D01*
X167692130Y-97024361D01*
X167691487Y-97023605D01*
X167692853Y-97022553D01*
X167760421Y-97022553D01*
X167765994Y-97027010D01*
X167780207Y-97035309D01*
X167798961Y-97045325D01*
X167818159Y-97054932D01*
X167833705Y-97062007D01*
X167841213Y-97064453D01*
X167842993Y-97058065D01*
X167844211Y-97041476D01*
X167844574Y-97022650D01*
X167844574Y-96980848D01*
X167802613Y-96999796D01*
X167781196Y-97009988D01*
X167765995Y-97018214D01*
X167760421Y-97022553D01*
X167692853Y-97022553D01*
X167697002Y-97019357D01*
X167713029Y-97010295D01*
X167737324Y-96997523D01*
X167767640Y-96982143D01*
X167801732Y-96965257D01*
X167837353Y-96947967D01*
X167872256Y-96931377D01*
X167904197Y-96916589D01*
X167930929Y-96904706D01*
X167948254Y-96897567D01*
X167955241Y-96900439D01*
G37*
G36*
X167920969Y-97190218D02*
G01*
X167944120Y-97206179D01*
X167958960Y-97229266D01*
X167964382Y-97256705D01*
X167959284Y-97285723D01*
X167942558Y-97313547D01*
X167942295Y-97313848D01*
X167927277Y-97328679D01*
X167914421Y-97337569D01*
X167910430Y-97338705D01*
X167899094Y-97334363D01*
X167897888Y-97322960D01*
X167906569Y-97306934D01*
X167914501Y-97297988D01*
X167927910Y-97281710D01*
X167935414Y-97267032D01*
X167935991Y-97263457D01*
X167929856Y-97241532D01*
X167914111Y-97225400D01*
X167892859Y-97219159D01*
X167882221Y-97220083D01*
X167872069Y-97223967D01*
X167860387Y-97232486D01*
X167845163Y-97247309D01*
X167824381Y-97270110D01*
X167805414Y-97291753D01*
X167788125Y-97310348D01*
X167774632Y-97320266D01*
X167760356Y-97324131D01*
X167748024Y-97324641D01*
X167726064Y-97322253D01*
X167710167Y-97312778D01*
X167701040Y-97303005D01*
X167685398Y-97275719D01*
X167683789Y-97247871D01*
X167696206Y-97219681D01*
X167704799Y-97208698D01*
X167718394Y-97194045D01*
X167726534Y-97188941D01*
X167732625Y-97192012D01*
X167735940Y-97196147D01*
X167741168Y-97207260D01*
X167736369Y-97218006D01*
X167732364Y-97222675D01*
X167716885Y-97246008D01*
X167715208Y-97266640D01*
X167724668Y-97282088D01*
X167737733Y-97292602D01*
X167747135Y-97296512D01*
X167754987Y-97291699D01*
X167770085Y-97278654D01*
X167790128Y-97259471D01*
X167808996Y-97240255D01*
X167833125Y-97215435D01*
X167850397Y-97199213D01*
X167863424Y-97189792D01*
X167874821Y-97185376D01*
X167887204Y-97184167D01*
X167890612Y-97184155D01*
X167920969Y-97190218D01*
G37*
G36*
X167053451Y-99380674D02*
G01*
X167076762Y-99384927D01*
X167088621Y-99387513D01*
X167123782Y-99395657D01*
X167127828Y-99441336D01*
X167135941Y-99487255D01*
X167152521Y-99525342D01*
X167179068Y-99559712D01*
X167192493Y-99572825D01*
X167207015Y-99583886D01*
X167224563Y-99593615D01*
X167247067Y-99602731D01*
X167276457Y-99611954D01*
X167314663Y-99622004D01*
X167363614Y-99633601D01*
X167398034Y-99641397D01*
X167443445Y-99651615D01*
X167485750Y-99661205D01*
X167522470Y-99669600D01*
X167551122Y-99676230D01*
X167569227Y-99680528D01*
X167572079Y-99681239D01*
X167598450Y-99687974D01*
X167598450Y-99736927D01*
X167597570Y-99765020D01*
X167594729Y-99780789D01*
X167589623Y-99785876D01*
X167589415Y-99785881D01*
X167580751Y-99784398D01*
X167559898Y-99780168D01*
X167528392Y-99773522D01*
X167487766Y-99764791D01*
X167439557Y-99754304D01*
X167385298Y-99742393D01*
X167326524Y-99729387D01*
X167311777Y-99726108D01*
X167252397Y-99712914D01*
X167197386Y-99700730D01*
X167148238Y-99689883D01*
X167106449Y-99680701D01*
X167073515Y-99673514D01*
X167050930Y-99668650D01*
X167040192Y-99666436D01*
X167039526Y-99666335D01*
X167037742Y-99659892D01*
X167036443Y-99642915D01*
X167035885Y-99618932D01*
X167035880Y-99616290D01*
X167036113Y-99590400D01*
X167037448Y-99575809D01*
X167040843Y-99569755D01*
X167047254Y-99569475D01*
X167051703Y-99570585D01*
X167069575Y-99574735D01*
X167091669Y-99578964D01*
X167093391Y-99579256D01*
X167119256Y-99583586D01*
X167088439Y-99550493D01*
X167052862Y-99503838D01*
X167030824Y-99454996D01*
X167023168Y-99415319D01*
X167021796Y-99393749D01*
X167023169Y-99382750D01*
X167028554Y-99378906D01*
X167036768Y-99378694D01*
X167053451Y-99380674D01*
G37*
G36*
X168271513Y-100195261D02*
G01*
X168347370Y-100197260D01*
X168350886Y-100443384D01*
X168351930Y-100511972D01*
X168353022Y-100567894D01*
X168354334Y-100612549D01*
X168356036Y-100647335D01*
X168358300Y-100673650D01*
X168361298Y-100692892D01*
X168365200Y-100706460D01*
X168370177Y-100715751D01*
X168376402Y-100722165D01*
X168384044Y-100727098D01*
X168385745Y-100728023D01*
X168399879Y-100731923D01*
X168422457Y-100734536D01*
X168441758Y-100735217D01*
X168484329Y-100735217D01*
X168486171Y-100466238D01*
X168488012Y-100197260D01*
X168632171Y-100195221D01*
X168693220Y-100194857D01*
X168742441Y-100195639D01*
X168779149Y-100197542D01*
X168802664Y-100200543D01*
X168805921Y-100201326D01*
X168843759Y-100218830D01*
X168878017Y-100248896D01*
X168907290Y-100290193D01*
X168914918Y-100304630D01*
X168938068Y-100351637D01*
X168940153Y-100677037D01*
X168942238Y-101002437D01*
X168864557Y-101002437D01*
X168786877Y-101002437D01*
X168786838Y-100772135D01*
X168786596Y-100707120D01*
X168785919Y-100649225D01*
X168784847Y-100599815D01*
X168783418Y-100560255D01*
X168781672Y-100531909D01*
X168779649Y-100516143D01*
X168779463Y-100515417D01*
X168769199Y-100489247D01*
X168754076Y-100472634D01*
X168731316Y-100463804D01*
X168698141Y-100460984D01*
X168694217Y-100460964D01*
X168646402Y-100460964D01*
X168644560Y-100729943D01*
X168642719Y-100998921D01*
X168484496Y-100998921D01*
X168431887Y-100998794D01*
X168391408Y-100998328D01*
X168361127Y-100997391D01*
X168339111Y-100995856D01*
X168323428Y-100993591D01*
X168312146Y-100990468D01*
X168304165Y-100986820D01*
X168267815Y-100959849D01*
X168235477Y-100921936D01*
X168218718Y-100894341D01*
X168199695Y-100858279D01*
X168197676Y-100525771D01*
X168195656Y-100193263D01*
X168271513Y-100195261D01*
G37*
G36*
X167225747Y-97513244D02*
G01*
X167225747Y-97563096D01*
X167199377Y-97567870D01*
X167162634Y-97578273D01*
X167137086Y-97595131D01*
X167121392Y-97620157D01*
X167114207Y-97655067D01*
X167113388Y-97677655D01*
X167117850Y-97722244D01*
X167132035Y-97759804D01*
X167157662Y-97794145D01*
X167172468Y-97808725D01*
X167221691Y-97844513D01*
X167279369Y-97869760D01*
X167344122Y-97883979D01*
X167394518Y-97887116D01*
X167441294Y-97883561D01*
X167476861Y-97872248D01*
X167502208Y-97852425D01*
X167518323Y-97823336D01*
X167525938Y-97786856D01*
X167527330Y-97761084D01*
X167524258Y-97740311D01*
X167515349Y-97717292D01*
X167511057Y-97708302D01*
X167482402Y-97665314D01*
X167443585Y-97631053D01*
X167417645Y-97616240D01*
X167405572Y-97609931D01*
X167398661Y-97602863D01*
X167395472Y-97591278D01*
X167394566Y-97571420D01*
X167394518Y-97555897D01*
X167394751Y-97530232D01*
X167396099Y-97515881D01*
X167399539Y-97510090D01*
X167406047Y-97510111D01*
X167410340Y-97511314D01*
X167457964Y-97532144D01*
X167503782Y-97563973D01*
X167544426Y-97603823D01*
X167576526Y-97648716D01*
X167585691Y-97666284D01*
X167601966Y-97713219D01*
X167610613Y-97765352D01*
X167611310Y-97817778D01*
X167603737Y-97865594D01*
X167599596Y-97878894D01*
X167576909Y-97922184D01*
X167543203Y-97958727D01*
X167510548Y-97980880D01*
X167484948Y-97989632D01*
X167449737Y-97995009D01*
X167408967Y-97996974D01*
X167366690Y-97995491D01*
X167326957Y-97990523D01*
X167296069Y-97982821D01*
X167222059Y-97951882D01*
X167159032Y-97913479D01*
X167107388Y-97868098D01*
X167067529Y-97816224D01*
X167039855Y-97758342D01*
X167024767Y-97694937D01*
X167021900Y-97650994D01*
X167026600Y-97594908D01*
X167040976Y-97549014D01*
X167065086Y-97513247D01*
X167098986Y-97487539D01*
X167142733Y-97471824D01*
X167178281Y-97466801D01*
X167225747Y-97463393D01*
X167225747Y-97513244D01*
G37*
G36*
X166287687Y-98810628D02*
G01*
X166286459Y-98829846D01*
X166284095Y-98858653D01*
X166280778Y-98894850D01*
X166276689Y-98936240D01*
X166276417Y-98938895D01*
X166256455Y-99178556D01*
X166245041Y-99422363D01*
X166242207Y-99666687D01*
X166247981Y-99907901D01*
X166262393Y-100142375D01*
X166266186Y-100186712D01*
X166288416Y-100394724D01*
X166317139Y-100596422D01*
X166352141Y-100791200D01*
X166393204Y-100978453D01*
X166440114Y-101157574D01*
X166492655Y-101327958D01*
X166550610Y-101488999D01*
X166613763Y-101640090D01*
X166681900Y-101780627D01*
X166754804Y-101910004D01*
X166832259Y-102027614D01*
X166914050Y-102132851D01*
X166988266Y-102213572D01*
X167056977Y-102282282D01*
X167055833Y-102333265D01*
X167055342Y-102353270D01*
X167054509Y-102385075D01*
X167053394Y-102426420D01*
X167052060Y-102475047D01*
X167050569Y-102528697D01*
X167048982Y-102585112D01*
X167048496Y-102602243D01*
X167046862Y-102656528D01*
X167045184Y-102706476D01*
X167043537Y-102750299D01*
X167041993Y-102786211D01*
X167040627Y-102812424D01*
X167039512Y-102827150D01*
X167039120Y-102829529D01*
X167034566Y-102833205D01*
X167024832Y-102830035D01*
X167008778Y-102819240D01*
X166985266Y-102800044D01*
X166953156Y-102771668D01*
X166949355Y-102768230D01*
X166860445Y-102679162D01*
X166775752Y-102577169D01*
X166695490Y-102462809D01*
X166619872Y-102336640D01*
X166549114Y-102199220D01*
X166483429Y-102051106D01*
X166423031Y-101892858D01*
X166368135Y-101725031D01*
X166318955Y-101548185D01*
X166275704Y-101362878D01*
X166238597Y-101169666D01*
X166207848Y-100969109D01*
X166185239Y-100777409D01*
X166161927Y-100478472D01*
X166152433Y-100177779D01*
X166156738Y-99876102D01*
X166174823Y-99574211D01*
X166206670Y-99272877D01*
X166224250Y-99145959D01*
X166230629Y-99104550D01*
X166237985Y-99059416D01*
X166245950Y-99012552D01*
X166254154Y-98965953D01*
X166262230Y-98921612D01*
X166269809Y-98881526D01*
X166276521Y-98847689D01*
X166281998Y-98822096D01*
X166285872Y-98806742D01*
X166287599Y-98803196D01*
X166287687Y-98810628D01*
G37*
G36*
X167689377Y-102053023D02*
G01*
X167692236Y-102053210D01*
X167720162Y-102054811D01*
X167757980Y-102056659D01*
X167803159Y-102058661D01*
X167853171Y-102060722D01*
X167905486Y-102062749D01*
X167957573Y-102064648D01*
X168006902Y-102066325D01*
X168050945Y-102067686D01*
X168087170Y-102068639D01*
X168113049Y-102069088D01*
X168120833Y-102069099D01*
X168143443Y-102070170D01*
X168159420Y-102075159D01*
X168169761Y-102086031D01*
X168175466Y-102104753D01*
X168177531Y-102133292D01*
X168176956Y-102173613D01*
X168176760Y-102179249D01*
X168175516Y-102208851D01*
X168173878Y-102226942D01*
X168171071Y-102236073D01*
X168166319Y-102238792D01*
X168158977Y-102237681D01*
X168147538Y-102236478D01*
X168124339Y-102235260D01*
X168091686Y-102234103D01*
X168051882Y-102233085D01*
X168007232Y-102232282D01*
X167990842Y-102232065D01*
X167940133Y-102231556D01*
X167901598Y-102231483D01*
X167873349Y-102231965D01*
X167853499Y-102233121D01*
X167840161Y-102235069D01*
X167831448Y-102237930D01*
X167825472Y-102241823D01*
X167824633Y-102242560D01*
X167819559Y-102248385D01*
X167815811Y-102256764D01*
X167813117Y-102269877D01*
X167811204Y-102289902D01*
X167809799Y-102319017D01*
X167808632Y-102359402D01*
X167808307Y-102373164D01*
X167806811Y-102422052D01*
X167804791Y-102458251D01*
X167802119Y-102483131D01*
X167798665Y-102498060D01*
X167796095Y-102502895D01*
X167789680Y-102507842D01*
X167778529Y-102511171D01*
X167760219Y-102513172D01*
X167732325Y-102514131D01*
X167699554Y-102514342D01*
X167656659Y-102514104D01*
X167625915Y-102512085D01*
X167605409Y-102506328D01*
X167593230Y-102494876D01*
X167587465Y-102475771D01*
X167586202Y-102447055D01*
X167587529Y-102406771D01*
X167587819Y-102399964D01*
X167589406Y-102361314D01*
X167591285Y-102313755D01*
X167593254Y-102262431D01*
X167595116Y-102212489D01*
X167595740Y-102195356D01*
X167597623Y-102146205D01*
X167600009Y-102109407D01*
X167604049Y-102083266D01*
X167610896Y-102066084D01*
X167621700Y-102056165D01*
X167637614Y-102051813D01*
X167659789Y-102051331D01*
X167689377Y-102053023D01*
G37*
G36*
X166881174Y-101198565D02*
G01*
X166926883Y-101209885D01*
X166927786Y-101342054D01*
X166928214Y-101383662D01*
X166928864Y-101420201D01*
X166929674Y-101449436D01*
X166930582Y-101469132D01*
X166931524Y-101477054D01*
X166931548Y-101477082D01*
X166938784Y-101479138D01*
X166958392Y-101483908D01*
X166989007Y-101491078D01*
X167029266Y-101500337D01*
X167077806Y-101511374D01*
X167133263Y-101523877D01*
X167194273Y-101537533D01*
X167254122Y-101550845D01*
X167319437Y-101565352D01*
X167380789Y-101579019D01*
X167436762Y-101591529D01*
X167485939Y-101602562D01*
X167526902Y-101611801D01*
X167558235Y-101618926D01*
X167578519Y-101623619D01*
X167586143Y-101625496D01*
X167592406Y-101629480D01*
X167596146Y-101638672D01*
X167597961Y-101655985D01*
X167598449Y-101684334D01*
X167598450Y-101685500D01*
X167598143Y-101713440D01*
X167596821Y-101729903D01*
X167593881Y-101737471D01*
X167588717Y-101738726D01*
X167586143Y-101738114D01*
X167576873Y-101735859D01*
X167555751Y-101730994D01*
X167524420Y-101723883D01*
X167484527Y-101714894D01*
X167437715Y-101704391D01*
X167385631Y-101692740D01*
X167329919Y-101680308D01*
X167272223Y-101667460D01*
X167214190Y-101654561D01*
X167157464Y-101641978D01*
X167103689Y-101630076D01*
X167054511Y-101619221D01*
X167011575Y-101609779D01*
X166976526Y-101602115D01*
X166951008Y-101596596D01*
X166936667Y-101593587D01*
X166934141Y-101593135D01*
X166932959Y-101599801D01*
X166931931Y-101618340D01*
X166931119Y-101646557D01*
X166930587Y-101682262D01*
X166930399Y-101722814D01*
X166930116Y-101764056D01*
X166929332Y-101800253D01*
X166928138Y-101829137D01*
X166926628Y-101848439D01*
X166924940Y-101855867D01*
X166916104Y-101855974D01*
X166898429Y-101853448D01*
X166876670Y-101849266D01*
X166855582Y-101844404D01*
X166839917Y-101839840D01*
X166834694Y-101837315D01*
X166834143Y-101829913D01*
X166833705Y-101809850D01*
X166833384Y-101778533D01*
X166833183Y-101737365D01*
X166833109Y-101687751D01*
X166833165Y-101631094D01*
X166833355Y-101568800D01*
X166833636Y-101510837D01*
X166835465Y-101187245D01*
X166881174Y-101198565D01*
G37*
G36*
X167173775Y-96644055D02*
G01*
X167199860Y-96648349D01*
X167235445Y-96654969D01*
X167278431Y-96663477D01*
X167326721Y-96673433D01*
X167378218Y-96684400D01*
X167430824Y-96695937D01*
X167482441Y-96707607D01*
X167530973Y-96718971D01*
X167568563Y-96728144D01*
X167598450Y-96735613D01*
X167598450Y-96784003D01*
X167597924Y-96810000D01*
X167595884Y-96824811D01*
X167591638Y-96831287D01*
X167586698Y-96832393D01*
X167576836Y-96830919D01*
X167555240Y-96826773D01*
X167523896Y-96820367D01*
X167484794Y-96812113D01*
X167439919Y-96802423D01*
X167400299Y-96793716D01*
X167336397Y-96779792D01*
X167284599Y-96769161D01*
X167243363Y-96761719D01*
X167211145Y-96757360D01*
X167186401Y-96755980D01*
X167167589Y-96757473D01*
X167153166Y-96761735D01*
X167141589Y-96768660D01*
X167133789Y-96775595D01*
X167122706Y-96788013D01*
X167116539Y-96800376D01*
X167113896Y-96817359D01*
X167113386Y-96843638D01*
X167113388Y-96844158D01*
X167117889Y-96891642D01*
X167132026Y-96931339D01*
X167157263Y-96966907D01*
X167166201Y-96976309D01*
X167181628Y-96990376D01*
X167198668Y-97002589D01*
X167219082Y-97013589D01*
X167244628Y-97024013D01*
X167277067Y-97034501D01*
X167318158Y-97045693D01*
X167369659Y-97058225D01*
X167429157Y-97071806D01*
X167598450Y-97109704D01*
X167598450Y-97160915D01*
X167597786Y-97185654D01*
X167596036Y-97203718D01*
X167593556Y-97211654D01*
X167593175Y-97211761D01*
X167585375Y-97210194D01*
X167565342Y-97205877D01*
X167534567Y-97199141D01*
X167494540Y-97190312D01*
X167446753Y-97179722D01*
X167392694Y-97167698D01*
X167333856Y-97154570D01*
X167313649Y-97150052D01*
X167039396Y-97088710D01*
X167037295Y-97040467D01*
X167035194Y-96992224D01*
X167063051Y-96996679D01*
X167084481Y-97000816D01*
X167101624Y-97005309D01*
X167103829Y-97006087D01*
X167107704Y-97004754D01*
X167101672Y-96994273D01*
X167090141Y-96979946D01*
X167054792Y-96929399D01*
X167032208Y-96875807D01*
X167023628Y-96829731D01*
X167024213Y-96775983D01*
X167034702Y-96729973D01*
X167054399Y-96692663D01*
X167082606Y-96665013D01*
X167118626Y-96647986D01*
X167159287Y-96642526D01*
X167173775Y-96644055D01*
G37*
G36*
X167287201Y-99847871D02*
G01*
X167295671Y-99849108D01*
X167352326Y-99857922D01*
X167352326Y-100071036D01*
X167352326Y-100284149D01*
X167389683Y-100288817D01*
X167432506Y-100288493D01*
X167468843Y-100276699D01*
X167497316Y-100254297D01*
X167516550Y-100222151D01*
X167521458Y-100206300D01*
X167526406Y-100160090D01*
X167520476Y-100113480D01*
X167504891Y-100069498D01*
X167480876Y-100031169D01*
X167449656Y-100001519D01*
X167434953Y-99992520D01*
X167424772Y-99986247D01*
X167418978Y-99978276D01*
X167416341Y-99964851D01*
X167415634Y-99942214D01*
X167415615Y-99933375D01*
X167416609Y-99906732D01*
X167419353Y-99889620D01*
X167422984Y-99884331D01*
X167436135Y-99888799D01*
X167456234Y-99900635D01*
X167480062Y-99917489D01*
X167504401Y-99937010D01*
X167526035Y-99956845D01*
X167534599Y-99965883D01*
X167554469Y-99991584D01*
X167574353Y-100022629D01*
X167586655Y-100045646D01*
X167596712Y-100068506D01*
X167603261Y-100088853D01*
X167607202Y-100111207D01*
X167609434Y-100140089D01*
X167610414Y-100165192D01*
X167610669Y-100211274D01*
X167608021Y-100244824D01*
X167603183Y-100265068D01*
X167582651Y-100308850D01*
X167556839Y-100342496D01*
X167536887Y-100360006D01*
X167496989Y-100381968D01*
X167450062Y-100393818D01*
X167398115Y-100396219D01*
X167343158Y-100389831D01*
X167287200Y-100375319D01*
X167267940Y-100367617D01*
X167232251Y-100353345D01*
X167180322Y-100324571D01*
X167133420Y-100289660D01*
X167093556Y-100249274D01*
X167062740Y-100204076D01*
X167062482Y-100203598D01*
X167039425Y-100148938D01*
X167025823Y-100090259D01*
X167024481Y-100068644D01*
X167113388Y-100068644D01*
X167117032Y-100109211D01*
X167126753Y-100141966D01*
X167148407Y-100178255D01*
X167177863Y-100211981D01*
X167211484Y-100239712D01*
X167245633Y-100258019D01*
X167252118Y-100260221D01*
X167267940Y-100265013D01*
X167267940Y-100106316D01*
X167267940Y-99947620D01*
X167228568Y-99947620D01*
X167185896Y-99952298D01*
X167153364Y-99966555D01*
X167130650Y-99990729D01*
X167117435Y-100025157D01*
X167113388Y-100068644D01*
X167024481Y-100068644D01*
X167022174Y-100031487D01*
X167028976Y-99976546D01*
X167032150Y-99964600D01*
X167051264Y-99923444D01*
X167081154Y-99890348D01*
X167120756Y-99865776D01*
X167169006Y-99850195D01*
X167224842Y-99844071D01*
X167287201Y-99847871D01*
G37*
G36*
X166120000Y-99311206D02*
G01*
X166118194Y-99330419D01*
X166114874Y-99359093D01*
X166110299Y-99394999D01*
X166104792Y-99435442D01*
X166071177Y-99721999D01*
X166049990Y-100012212D01*
X166041300Y-100303681D01*
X166045178Y-100594006D01*
X166061694Y-100880785D01*
X166062436Y-100889923D01*
X166084297Y-101108171D01*
X166113511Y-101320198D01*
X166149860Y-101525235D01*
X166193125Y-101722512D01*
X166243089Y-101911261D01*
X166299533Y-102090711D01*
X166362239Y-102260093D01*
X166430990Y-102418638D01*
X166505568Y-102565576D01*
X166566877Y-102670407D01*
X166627847Y-102761538D01*
X166693365Y-102847032D01*
X166761964Y-102925351D01*
X166832176Y-102994959D01*
X166902532Y-103054318D01*
X166971566Y-103101893D01*
X166988414Y-103111747D01*
X167028848Y-103134511D01*
X167027661Y-103212951D01*
X167027100Y-103240424D01*
X167026100Y-103279342D01*
X167024740Y-103327098D01*
X167023097Y-103381081D01*
X167021248Y-103438683D01*
X167019271Y-103497296D01*
X167018871Y-103508820D01*
X167016371Y-103575386D01*
X167013967Y-103628761D01*
X167011595Y-103669818D01*
X167009191Y-103699427D01*
X167006691Y-103718463D01*
X167004032Y-103727796D01*
X167002787Y-103729057D01*
X166992235Y-103727438D01*
X166972298Y-103720226D01*
X166945825Y-103708763D01*
X166915666Y-103694392D01*
X166884671Y-103678453D01*
X166855690Y-103662289D01*
X166837948Y-103651444D01*
X166749612Y-103586919D01*
X166664317Y-103509148D01*
X166582314Y-103418670D01*
X166503855Y-103316022D01*
X166429189Y-103201742D01*
X166358567Y-103076370D01*
X166292240Y-102940444D01*
X166230457Y-102794501D01*
X166173471Y-102639080D01*
X166121530Y-102474720D01*
X166074886Y-102301958D01*
X166033789Y-102121334D01*
X165998489Y-101933385D01*
X165978275Y-101804098D01*
X165964744Y-101706035D01*
X165953420Y-101614026D01*
X165944098Y-101525268D01*
X165936569Y-101436957D01*
X165930629Y-101346287D01*
X165926071Y-101250456D01*
X165922688Y-101146658D01*
X165920273Y-101032088D01*
X165919949Y-101011630D01*
X165919998Y-100763415D01*
X165928028Y-100524591D01*
X165944283Y-100292804D01*
X165969010Y-100065696D01*
X166002456Y-99840914D01*
X166044866Y-99616101D01*
X166084225Y-99439642D01*
X166094298Y-99397938D01*
X166103406Y-99361526D01*
X166111029Y-99332388D01*
X166116643Y-99312506D01*
X166119727Y-99303863D01*
X166120034Y-99303682D01*
X166120000Y-99311206D01*
G37*
G36*
X167910559Y-98028000D02*
G01*
X167933750Y-98028715D01*
X167947620Y-98030408D01*
X167954543Y-98033488D01*
X167956889Y-98038365D01*
X167957087Y-98041917D01*
X167956162Y-98048191D01*
X167951727Y-98052260D01*
X167941296Y-98054598D01*
X167922382Y-98055678D01*
X167892500Y-98055974D01*
X167883250Y-98055981D01*
X167849234Y-98056297D01*
X167826265Y-98057565D01*
X167811335Y-98060267D01*
X167801435Y-98064884D01*
X167795349Y-98070045D01*
X167783049Y-98090525D01*
X167782929Y-98112420D01*
X167793801Y-98132764D01*
X167814482Y-98148591D01*
X167828959Y-98154118D01*
X167849585Y-98157843D01*
X167877929Y-98160477D01*
X167906105Y-98161423D01*
X167932528Y-98161799D01*
X167947852Y-98163421D01*
X167955039Y-98167108D01*
X167957047Y-98173679D01*
X167957087Y-98175527D01*
X167956073Y-98182082D01*
X167951283Y-98186211D01*
X167940102Y-98188469D01*
X167919911Y-98189410D01*
X167890740Y-98189591D01*
X167849543Y-98190531D01*
X167820275Y-98193758D01*
X167800902Y-98199879D01*
X167789388Y-98209505D01*
X167784105Y-98221505D01*
X167783228Y-98247853D01*
X167795038Y-98268549D01*
X167819270Y-98283427D01*
X167855658Y-98292320D01*
X167900605Y-98295073D01*
X167928702Y-98295364D01*
X167945562Y-98296707D01*
X167954011Y-98299805D01*
X167956871Y-98305360D01*
X167957087Y-98309137D01*
X167956357Y-98314702D01*
X167952725Y-98318568D01*
X167944030Y-98321041D01*
X167928111Y-98322432D01*
X167902807Y-98323048D01*
X167865955Y-98323200D01*
X167858638Y-98323201D01*
X167819680Y-98323097D01*
X167792624Y-98322578D01*
X167775310Y-98321336D01*
X167765575Y-98319062D01*
X167761259Y-98315447D01*
X167760200Y-98310182D01*
X167760188Y-98309137D01*
X167764536Y-98297726D01*
X167770633Y-98295073D01*
X167776206Y-98292947D01*
X167774173Y-98284645D01*
X167767143Y-98272218D01*
X167754523Y-98241071D01*
X167755484Y-98212018D01*
X167769958Y-98186019D01*
X167773712Y-98182018D01*
X167784858Y-98169498D01*
X167788685Y-98162215D01*
X167787672Y-98161463D01*
X167778415Y-98155372D01*
X167768187Y-98140119D01*
X167759246Y-98120226D01*
X167753852Y-98100219D01*
X167753182Y-98092359D01*
X167758455Y-98068686D01*
X167773712Y-98048408D01*
X167782980Y-98039609D01*
X167791832Y-98033766D01*
X167803266Y-98030274D01*
X167820282Y-98028527D01*
X167845881Y-98027922D01*
X167875677Y-98027852D01*
X167910559Y-98028000D01*
G37*
G36*
X167156201Y-102321267D02*
G01*
X167187906Y-102322447D01*
X167212462Y-102326603D01*
X167236716Y-102335306D01*
X167255298Y-102344015D01*
X167305955Y-102374315D01*
X167347730Y-102410291D01*
X167379390Y-102450327D01*
X167399703Y-102492807D01*
X167407434Y-102536114D01*
X167407408Y-102543455D01*
X167406923Y-102560486D01*
X167406151Y-102589302D01*
X167405153Y-102627628D01*
X167403987Y-102673189D01*
X167402711Y-102723709D01*
X167401396Y-102776440D01*
X167399997Y-102827452D01*
X167398465Y-102873781D01*
X167396884Y-102913590D01*
X167395334Y-102945046D01*
X167393898Y-102966312D01*
X167392656Y-102975554D01*
X167392535Y-102975757D01*
X167387509Y-102973726D01*
X167382276Y-102958323D01*
X167376949Y-102930236D01*
X167371641Y-102890153D01*
X167366464Y-102838762D01*
X167362797Y-102794036D01*
X167358419Y-102741003D01*
X167353979Y-102699954D01*
X167348996Y-102668817D01*
X167342992Y-102645518D01*
X167335486Y-102627985D01*
X167326001Y-102614145D01*
X167319588Y-102607178D01*
X167305418Y-102600361D01*
X167290592Y-102607584D01*
X167275118Y-102628840D01*
X167259002Y-102664121D01*
X167252978Y-102680444D01*
X167231226Y-102753301D01*
X167215602Y-102831548D01*
X167205921Y-102916983D01*
X167201996Y-103011404D01*
X167203640Y-103116608D01*
X167204845Y-103143716D01*
X167209018Y-103210475D01*
X167214595Y-103265677D01*
X167222055Y-103311802D01*
X167231876Y-103351327D01*
X167244539Y-103386730D01*
X167257028Y-103413734D01*
X167278092Y-103449476D01*
X167303600Y-103483947D01*
X167330368Y-103513278D01*
X167355211Y-103533599D01*
X167356198Y-103534219D01*
X167382299Y-103550350D01*
X167377964Y-103610738D01*
X167376665Y-103635622D01*
X167375448Y-103671588D01*
X167374381Y-103715653D01*
X167373531Y-103764835D01*
X167372965Y-103816152D01*
X167372826Y-103838138D01*
X167372403Y-103884920D01*
X167371644Y-103926645D01*
X167370617Y-103961381D01*
X167369388Y-103987196D01*
X167368023Y-104002159D01*
X167367077Y-104005150D01*
X167361304Y-103999673D01*
X167349821Y-103984946D01*
X167334559Y-103963529D01*
X167324578Y-103948813D01*
X167274009Y-103879764D01*
X167223500Y-103824540D01*
X167172791Y-103782909D01*
X167121622Y-103754634D01*
X167100512Y-103746868D01*
X167062193Y-103734789D01*
X167066655Y-103611539D01*
X167067675Y-103581333D01*
X167069002Y-103538815D01*
X167070588Y-103485733D01*
X167072381Y-103423836D01*
X167074333Y-103354872D01*
X167076394Y-103280588D01*
X167078514Y-103202734D01*
X167080644Y-103123056D01*
X167082042Y-103069879D01*
X167084183Y-102988236D01*
X167086361Y-102905884D01*
X167088523Y-102824776D01*
X167090617Y-102746865D01*
X167092588Y-102674104D01*
X167094385Y-102608447D01*
X167095955Y-102551846D01*
X167097244Y-102506255D01*
X167097826Y-102486213D01*
X167102685Y-102320959D01*
X167156201Y-102321267D01*
G37*
G36*
X167963865Y-102291314D02*
G01*
X168003063Y-102292087D01*
X168052930Y-102293355D01*
X168114848Y-102295085D01*
X168147021Y-102296006D01*
X168220374Y-102298146D01*
X168280973Y-102300035D01*
X168330126Y-102301780D01*
X168369138Y-102303484D01*
X168399317Y-102305253D01*
X168421968Y-102307192D01*
X168438399Y-102309407D01*
X168449915Y-102312003D01*
X168457824Y-102315084D01*
X168463432Y-102318756D01*
X168466690Y-102321737D01*
X168471268Y-102333987D01*
X168474420Y-102360010D01*
X168476143Y-102399585D01*
X168476433Y-102452493D01*
X168475289Y-102518516D01*
X168472707Y-102597432D01*
X168470846Y-102642356D01*
X168468067Y-102688097D01*
X168464373Y-102719884D01*
X168459766Y-102737683D01*
X168457744Y-102740806D01*
X168450761Y-102744219D01*
X168436742Y-102746536D01*
X168414034Y-102747839D01*
X168380984Y-102748209D01*
X168335941Y-102747730D01*
X168323111Y-102747496D01*
X168197650Y-102745074D01*
X168193613Y-102824849D01*
X168191975Y-102860676D01*
X168190174Y-102905778D01*
X168188387Y-102955367D01*
X168186791Y-103004660D01*
X168186185Y-103025367D01*
X168182793Y-103146110D01*
X168228989Y-103186668D01*
X168256056Y-103212613D01*
X168283875Y-103243028D01*
X168310667Y-103275525D01*
X168334653Y-103307711D01*
X168354053Y-103337197D01*
X168367088Y-103361592D01*
X168371980Y-103378506D01*
X168371982Y-103378786D01*
X168367774Y-103377854D01*
X168356767Y-103368381D01*
X168342096Y-103353221D01*
X168293659Y-103303514D01*
X168249209Y-103265422D01*
X168207086Y-103237680D01*
X168165926Y-103219128D01*
X168131305Y-103207005D01*
X168135521Y-103129652D01*
X168136901Y-103098069D01*
X168138239Y-103056100D01*
X168139444Y-103007423D01*
X168140425Y-102955717D01*
X168141094Y-102904661D01*
X168141128Y-102901108D01*
X168142519Y-102749918D01*
X168029949Y-102747991D01*
X167984827Y-102747073D01*
X167950610Y-102747182D01*
X167925790Y-102749994D01*
X167908858Y-102757185D01*
X167898303Y-102770429D01*
X167892617Y-102791403D01*
X167890291Y-102821780D01*
X167889816Y-102863238D01*
X167889762Y-102903606D01*
X167889230Y-102954381D01*
X167888023Y-102992849D01*
X167886014Y-103020758D01*
X167883081Y-103039854D01*
X167879213Y-103051650D01*
X167868549Y-103068009D01*
X167856069Y-103080164D01*
X167845429Y-103084968D01*
X167842003Y-103083694D01*
X167841426Y-103076117D01*
X167841254Y-103055958D01*
X167841453Y-103024693D01*
X167841991Y-102983798D01*
X167842837Y-102934748D01*
X167843958Y-102879019D01*
X167845321Y-102818088D01*
X167846895Y-102753429D01*
X167848647Y-102686519D01*
X167850546Y-102618833D01*
X167852557Y-102551847D01*
X167854651Y-102487037D01*
X167855719Y-102455896D01*
X167857664Y-102405955D01*
X167859663Y-102368224D01*
X167861912Y-102340851D01*
X167864608Y-102321983D01*
X167867946Y-102309766D01*
X167871991Y-102302511D01*
X167875245Y-102298903D01*
X167879484Y-102296019D01*
X167886091Y-102293827D01*
X167896449Y-102292293D01*
X167911942Y-102291384D01*
X167933953Y-102291069D01*
X167963865Y-102291314D01*
G37*
G36*
X167049303Y-100431314D02*
G01*
X167069396Y-100434860D01*
X167099700Y-100440896D01*
X167138483Y-100449029D01*
X167184013Y-100458864D01*
X167234556Y-100470006D01*
X167288381Y-100482063D01*
X167343754Y-100494639D01*
X167398943Y-100507340D01*
X167452216Y-100519773D01*
X167501840Y-100531542D01*
X167546082Y-100542254D01*
X167583210Y-100551514D01*
X167611491Y-100558928D01*
X167629193Y-100564101D01*
X167632072Y-100565116D01*
X167691945Y-100594700D01*
X167741399Y-100633712D01*
X167780588Y-100682304D01*
X167809668Y-100740630D01*
X167809964Y-100741411D01*
X167818041Y-100771208D01*
X167824043Y-100809726D01*
X167827659Y-100852178D01*
X167828581Y-100893774D01*
X167826501Y-100929728D01*
X167823302Y-100948167D01*
X167805878Y-100993064D01*
X167779398Y-101027909D01*
X167744850Y-101051886D01*
X167703223Y-101064178D01*
X167681077Y-101065687D01*
X167661739Y-101065726D01*
X167661739Y-101012985D01*
X167662157Y-100985773D01*
X167663850Y-100969789D01*
X167667476Y-100962212D01*
X167673693Y-100960222D01*
X167674045Y-100960218D01*
X167696313Y-100954122D01*
X167718139Y-100938496D01*
X167734784Y-100917206D01*
X167739230Y-100907085D01*
X167744639Y-100877154D01*
X167745066Y-100840047D01*
X167740981Y-100801552D01*
X167732854Y-100767457D01*
X167726649Y-100752317D01*
X167698562Y-100712643D01*
X167659797Y-100681239D01*
X167611811Y-100659267D01*
X167608701Y-100658283D01*
X167584511Y-100651053D01*
X167565650Y-100645861D01*
X167556095Y-100643801D01*
X167555992Y-100643799D01*
X167556441Y-100649012D01*
X167563457Y-100662568D01*
X167573486Y-100678438D01*
X167596852Y-100724055D01*
X167609665Y-100773739D01*
X167612076Y-100824653D01*
X167604235Y-100873962D01*
X167586294Y-100918829D01*
X167558722Y-100956096D01*
X167524083Y-100981619D01*
X167480117Y-100998942D01*
X167428966Y-101008007D01*
X167383886Y-101008605D01*
X167372772Y-101008753D01*
X167313676Y-101001124D01*
X167253820Y-100985060D01*
X167206105Y-100965756D01*
X167169785Y-100944670D01*
X167132349Y-100916279D01*
X167097912Y-100884207D01*
X167070588Y-100852079D01*
X167061750Y-100838637D01*
X167039271Y-100789524D01*
X167025876Y-100736589D01*
X167023070Y-100696093D01*
X167113234Y-100696093D01*
X167116206Y-100737997D01*
X167126358Y-100771918D01*
X167145540Y-100802887D01*
X167157878Y-100817498D01*
X167190938Y-100845607D01*
X167233397Y-100869089D01*
X167281926Y-100887173D01*
X167333198Y-100899085D01*
X167383886Y-100904055D01*
X167430661Y-100901310D01*
X167470195Y-100890077D01*
X167470351Y-100890006D01*
X167498882Y-100869920D01*
X167517689Y-100841001D01*
X167526309Y-100805002D01*
X167524278Y-100763675D01*
X167513804Y-100725589D01*
X167492684Y-100687009D01*
X167460575Y-100651469D01*
X167420552Y-100622190D01*
X167409240Y-100616006D01*
X167373789Y-100602097D01*
X167329937Y-100591049D01*
X167283226Y-100583881D01*
X167239197Y-100581612D01*
X167225244Y-100582178D01*
X167181788Y-100588850D01*
X167149989Y-100602525D01*
X167128718Y-100624354D01*
X167116843Y-100655485D01*
X167113234Y-100696093D01*
X167023070Y-100696093D01*
X167022230Y-100683972D01*
X167028995Y-100635816D01*
X167029158Y-100635227D01*
X167043767Y-100603432D01*
X167067534Y-100573500D01*
X167093611Y-100552514D01*
X167113263Y-100540562D01*
X167074572Y-100531903D01*
X167035880Y-100523245D01*
X167035880Y-100478455D01*
X167036646Y-100454851D01*
X167038643Y-100437528D01*
X167041154Y-100430654D01*
X167049303Y-100431314D01*
G37*
G36*
X167049354Y-95987166D02*
G01*
X167069499Y-95990728D01*
X167099860Y-95996784D01*
X167138707Y-96004939D01*
X167184310Y-96014799D01*
X167234938Y-96025970D01*
X167288861Y-96038059D01*
X167344349Y-96050670D01*
X167399673Y-96063412D01*
X167453101Y-96075888D01*
X167502904Y-96087706D01*
X167547352Y-96098471D01*
X167584714Y-96107790D01*
X167613261Y-96115268D01*
X167631262Y-96120511D01*
X167634255Y-96121555D01*
X167691730Y-96150498D01*
X167741123Y-96190302D01*
X167780965Y-96239499D01*
X167809645Y-96296261D01*
X167817912Y-96326594D01*
X167824039Y-96365547D01*
X167827711Y-96408325D01*
X167828612Y-96450135D01*
X167826428Y-96486182D01*
X167823302Y-96503870D01*
X167805878Y-96548767D01*
X167779398Y-96583612D01*
X167744850Y-96607590D01*
X167703223Y-96619881D01*
X167681077Y-96621390D01*
X167661739Y-96621429D01*
X167661739Y-96568688D01*
X167662157Y-96541476D01*
X167663850Y-96525492D01*
X167667476Y-96517916D01*
X167673693Y-96515925D01*
X167674045Y-96515921D01*
X167696313Y-96509825D01*
X167718139Y-96494200D01*
X167734784Y-96472909D01*
X167739230Y-96462789D01*
X167744639Y-96432857D01*
X167745066Y-96395750D01*
X167740981Y-96357255D01*
X167732854Y-96323161D01*
X167726649Y-96308021D01*
X167698562Y-96268346D01*
X167659797Y-96236942D01*
X167611811Y-96214970D01*
X167608701Y-96213987D01*
X167579462Y-96205202D01*
X167562015Y-96201118D01*
X167554780Y-96202086D01*
X167556172Y-96208462D01*
X167564609Y-96220599D01*
X167566721Y-96223380D01*
X167591870Y-96266511D01*
X167606956Y-96314768D01*
X167612060Y-96365258D01*
X167607261Y-96415085D01*
X167592640Y-96461357D01*
X167568276Y-96501179D01*
X167558722Y-96511799D01*
X167524059Y-96537342D01*
X167480067Y-96554675D01*
X167428874Y-96563742D01*
X167401253Y-96564108D01*
X167372610Y-96564487D01*
X167313404Y-96556853D01*
X167253384Y-96540786D01*
X167204651Y-96521088D01*
X167167119Y-96499135D01*
X167128830Y-96469551D01*
X167094041Y-96436122D01*
X167067010Y-96402633D01*
X167061353Y-96393662D01*
X167039161Y-96345042D01*
X167025899Y-96292399D01*
X167022515Y-96243886D01*
X167113365Y-96243886D01*
X167114902Y-96278088D01*
X167119918Y-96309691D01*
X167126353Y-96329597D01*
X167143000Y-96355814D01*
X167167971Y-96383260D01*
X167196749Y-96407430D01*
X167217440Y-96420355D01*
X167258766Y-96437389D01*
X167305653Y-96449661D01*
X167354387Y-96456797D01*
X167401253Y-96458425D01*
X167442539Y-96454172D01*
X167470351Y-96445710D01*
X167498882Y-96425623D01*
X167517689Y-96396704D01*
X167526309Y-96360705D01*
X167524278Y-96319378D01*
X167513804Y-96281292D01*
X167493043Y-96243267D01*
X167461635Y-96208059D01*
X167422980Y-96179260D01*
X167411040Y-96172691D01*
X167390697Y-96164396D01*
X167362320Y-96155349D01*
X167331701Y-96147378D01*
X167328658Y-96146693D01*
X167275433Y-96138409D01*
X167227037Y-96137708D01*
X167185237Y-96144227D01*
X167151800Y-96157605D01*
X167128494Y-96177480D01*
X167121473Y-96189112D01*
X167115494Y-96212442D01*
X167113365Y-96243886D01*
X167022515Y-96243886D01*
X167022242Y-96239973D01*
X167028863Y-96192006D01*
X167029158Y-96190931D01*
X167043767Y-96159136D01*
X167067534Y-96129203D01*
X167093611Y-96108217D01*
X167113263Y-96096265D01*
X167074572Y-96087607D01*
X167035880Y-96078948D01*
X167035880Y-96034158D01*
X167036645Y-96010581D01*
X167038641Y-95993311D01*
X167041154Y-95986491D01*
X167049354Y-95987166D01*
G37*
G36*
X167153427Y-98079448D02*
G01*
X167177391Y-98082765D01*
X167209041Y-98088579D01*
X167250069Y-98097098D01*
X167302169Y-98108534D01*
X167335817Y-98116065D01*
X167383582Y-98126580D01*
X167427060Y-98135735D01*
X167464296Y-98143153D01*
X167493333Y-98148455D01*
X167512215Y-98151263D01*
X167518729Y-98151447D01*
X167525263Y-98142125D01*
X167528094Y-98122940D01*
X167528128Y-98120238D01*
X167528128Y-98092637D01*
X167558015Y-98099836D01*
X167581294Y-98107485D01*
X167595609Y-98118824D01*
X167602974Y-98136990D01*
X167605407Y-98165122D01*
X167605482Y-98173674D01*
X167604642Y-98199925D01*
X167601240Y-98216911D01*
X167593954Y-98229377D01*
X167588221Y-98235619D01*
X167567366Y-98250609D01*
X167543659Y-98254032D01*
X167536592Y-98253330D01*
X167535451Y-98257913D01*
X167541221Y-98271098D01*
X167552652Y-98290031D01*
X167552662Y-98290047D01*
X167569296Y-98317862D01*
X167584926Y-98348496D01*
X167592487Y-98366025D01*
X167601956Y-98399336D01*
X167608101Y-98438750D01*
X167610664Y-98479593D01*
X167609386Y-98517190D01*
X167604007Y-98546869D01*
X167602717Y-98550654D01*
X167583282Y-98585947D01*
X167556484Y-98610993D01*
X167524129Y-98626207D01*
X167488024Y-98632005D01*
X167457014Y-98629396D01*
X167449977Y-98628804D01*
X167411794Y-98617019D01*
X167375281Y-98597066D01*
X167342247Y-98569361D01*
X167314498Y-98534321D01*
X167293840Y-98492360D01*
X167289302Y-98478505D01*
X167283461Y-98454030D01*
X167277010Y-98419743D01*
X167270657Y-98379831D01*
X167265114Y-98338486D01*
X167264145Y-98330233D01*
X167259547Y-98293002D01*
X167254848Y-98260102D01*
X167250503Y-98234393D01*
X167248136Y-98223911D01*
X167321142Y-98223911D01*
X167323474Y-98233372D01*
X167324009Y-98234806D01*
X167327689Y-98248687D01*
X167332527Y-98272774D01*
X167337819Y-98303333D01*
X167341621Y-98327981D01*
X167349728Y-98379162D01*
X167357638Y-98418503D01*
X167366080Y-98448198D01*
X167375784Y-98470440D01*
X167387481Y-98487423D01*
X167398258Y-98498258D01*
X167426584Y-98515847D01*
X167457014Y-98522700D01*
X167486084Y-98518734D01*
X167510326Y-98503869D01*
X167513118Y-98500935D01*
X167521400Y-98490350D01*
X167526078Y-98479150D01*
X167527857Y-98463429D01*
X167527442Y-98439283D01*
X167526762Y-98425298D01*
X167522595Y-98383924D01*
X167514340Y-98351207D01*
X167506980Y-98333642D01*
X167478984Y-98288655D01*
X167444111Y-98255707D01*
X167401674Y-98234209D01*
X167385672Y-98229471D01*
X167354359Y-98221925D01*
X167334533Y-98218365D01*
X167324145Y-98218967D01*
X167321142Y-98223911D01*
X167248136Y-98223911D01*
X167246968Y-98218737D01*
X167245941Y-98216034D01*
X167229922Y-98199378D01*
X167205389Y-98188018D01*
X167177287Y-98183165D01*
X167150560Y-98186030D01*
X167140304Y-98190157D01*
X167123852Y-98206693D01*
X167112612Y-98235239D01*
X167106967Y-98274595D01*
X167106356Y-98296605D01*
X167110200Y-98343833D01*
X167122078Y-98381200D01*
X167142985Y-98411021D01*
X167162975Y-98428249D01*
X167181683Y-98440558D01*
X167196826Y-98448351D01*
X167202190Y-98449779D01*
X167207485Y-98453763D01*
X167210505Y-98467100D01*
X167211645Y-98491870D01*
X167211683Y-98499478D01*
X167211456Y-98525248D01*
X167210129Y-98539691D01*
X167206736Y-98545544D01*
X167200310Y-98545545D01*
X167195861Y-98544269D01*
X167143140Y-98521118D01*
X167099424Y-98487557D01*
X167065126Y-98444314D01*
X167040662Y-98392118D01*
X167026445Y-98331696D01*
X167022891Y-98263775D01*
X167023929Y-98242561D01*
X167031079Y-98188818D01*
X167044517Y-98146598D01*
X167064920Y-98114525D01*
X167092965Y-98091225D01*
X167100578Y-98086957D01*
X167110725Y-98082382D01*
X167121786Y-98079466D01*
X167135456Y-98078418D01*
X167153427Y-98079448D01*
G37*
G36*
X167009956Y-98642283D02*
G01*
X167062791Y-98654003D01*
X167112837Y-98676728D01*
X167156865Y-98708476D01*
X167191645Y-98747265D01*
X167198687Y-98758114D01*
X167208554Y-98774430D01*
X167214894Y-98784720D01*
X167215811Y-98786125D01*
X167221032Y-98782791D01*
X167232552Y-98771727D01*
X167241396Y-98762365D01*
X167258243Y-98747380D01*
X167277864Y-98737635D01*
X167302496Y-98732893D01*
X167334375Y-98732917D01*
X167375739Y-98737471D01*
X167415615Y-98743943D01*
X167449883Y-98749826D01*
X167480984Y-98754865D01*
X167505181Y-98758473D01*
X167517580Y-98759980D01*
X167539203Y-98759439D01*
X167557835Y-98755081D01*
X167568964Y-98748216D01*
X167570321Y-98744654D01*
X167576215Y-98739324D01*
X167584385Y-98738096D01*
X167590787Y-98739061D01*
X167594884Y-98743654D01*
X167597188Y-98754419D01*
X167598206Y-98773903D01*
X167598448Y-98804651D01*
X167598450Y-98808417D01*
X167598450Y-98878738D01*
X167575595Y-98878737D01*
X167559695Y-98877601D01*
X167533648Y-98874515D01*
X167501160Y-98869960D01*
X167468355Y-98864818D01*
X167415441Y-98856401D01*
X167373040Y-98851274D01*
X167339957Y-98850648D01*
X167315000Y-98855734D01*
X167296975Y-98867742D01*
X167284689Y-98887882D01*
X167276948Y-98917366D01*
X167272559Y-98957404D01*
X167270327Y-99009206D01*
X167269179Y-99066847D01*
X167268610Y-99112052D01*
X167268452Y-99152136D01*
X167268684Y-99185106D01*
X167269285Y-99208966D01*
X167270235Y-99221720D01*
X167270810Y-99223312D01*
X167278596Y-99224775D01*
X167298125Y-99228879D01*
X167327413Y-99235193D01*
X167364479Y-99243289D01*
X167407340Y-99252737D01*
X167433195Y-99258473D01*
X167478391Y-99268488D01*
X167518860Y-99277392D01*
X167552630Y-99284758D01*
X167577729Y-99290156D01*
X167592185Y-99293158D01*
X167594901Y-99293633D01*
X167596549Y-99300110D01*
X167597790Y-99317321D01*
X167598414Y-99341940D01*
X167598450Y-99349890D01*
X167598021Y-99376017D01*
X167596884Y-99395690D01*
X167595257Y-99405583D01*
X167594731Y-99406147D01*
X167587520Y-99404667D01*
X167568114Y-99400455D01*
X167538039Y-99393851D01*
X167498825Y-99385195D01*
X167452000Y-99374828D01*
X167399093Y-99363091D01*
X167341631Y-99350323D01*
X167281143Y-99336867D01*
X167219158Y-99323061D01*
X167177642Y-99313804D01*
X167157203Y-99309247D01*
X167096807Y-99295765D01*
X167039499Y-99282955D01*
X166986807Y-99271159D01*
X166940259Y-99260716D01*
X166901384Y-99251967D01*
X166871709Y-99245253D01*
X166852763Y-99240914D01*
X166847346Y-99239633D01*
X166831098Y-99235638D01*
X166832859Y-99047829D01*
X166923241Y-99047829D01*
X166923438Y-99083900D01*
X166924018Y-99113768D01*
X166925007Y-99135050D01*
X166926429Y-99145361D01*
X166926934Y-99145959D01*
X166935028Y-99147467D01*
X166955623Y-99151812D01*
X166987504Y-99158731D01*
X167029455Y-99167954D01*
X167080260Y-99179218D01*
X167138703Y-99192256D01*
X167150712Y-99194943D01*
X167177642Y-99200972D01*
X167175299Y-99038097D01*
X167174460Y-98985536D01*
X167173528Y-98945036D01*
X167172319Y-98914596D01*
X167170650Y-98892213D01*
X167168339Y-98875886D01*
X167165202Y-98863610D01*
X167161056Y-98853386D01*
X167157843Y-98847094D01*
X167130483Y-98809022D01*
X167095385Y-98782556D01*
X167052200Y-98767494D01*
X167013513Y-98763544D01*
X166988158Y-98764263D01*
X166971359Y-98768501D01*
X166957752Y-98777767D01*
X166955487Y-98779841D01*
X166940902Y-98798829D01*
X166930630Y-98821247D01*
X166930427Y-98821959D01*
X166928663Y-98834683D01*
X166927102Y-98857896D01*
X166925769Y-98889212D01*
X166924691Y-98926248D01*
X166923894Y-98966619D01*
X166923402Y-99007941D01*
X166923241Y-99047829D01*
X166832859Y-99047829D01*
X166833282Y-99002689D01*
X166833905Y-98939201D01*
X166834533Y-98888134D01*
X166835283Y-98847846D01*
X166836268Y-98816696D01*
X166837604Y-98793039D01*
X166839406Y-98775236D01*
X166841788Y-98761642D01*
X166844866Y-98750615D01*
X166848754Y-98740515D01*
X166852175Y-98732771D01*
X166876985Y-98691522D01*
X166908642Y-98662554D01*
X166947284Y-98645788D01*
X166993047Y-98641145D01*
X167009956Y-98642283D01*
G37*
G36*
X167729861Y-102670383D02*
G01*
X167739069Y-102683630D01*
X167747742Y-102699412D01*
X167759518Y-102734522D01*
X167763803Y-102779441D01*
X167760642Y-102832107D01*
X167750084Y-102890454D01*
X167742741Y-102918688D01*
X167734044Y-102946354D01*
X167722134Y-102980255D01*
X167708074Y-103017773D01*
X167692926Y-103056291D01*
X167677755Y-103093188D01*
X167663623Y-103125846D01*
X167651595Y-103151647D01*
X167642732Y-103167971D01*
X167640094Y-103171493D01*
X167635532Y-103182736D01*
X167633610Y-103200468D01*
X167633610Y-103200646D01*
X167635325Y-103214669D01*
X167642384Y-103226007D01*
X167657663Y-103238331D01*
X167668983Y-103245818D01*
X167694555Y-103264862D01*
X167720661Y-103288681D01*
X167744565Y-103314263D01*
X167763527Y-103338596D01*
X167774809Y-103358668D01*
X167776414Y-103364008D01*
X167778058Y-103393120D01*
X167771387Y-103415409D01*
X167757827Y-103428869D01*
X167738801Y-103431495D01*
X167730151Y-103429128D01*
X167709989Y-103416382D01*
X167687574Y-103394367D01*
X167665468Y-103366678D01*
X167646232Y-103336908D01*
X167632430Y-103308652D01*
X167626621Y-103285505D01*
X167626578Y-103283800D01*
X167623505Y-103268070D01*
X167616103Y-103263325D01*
X167607095Y-103270965D01*
X167605835Y-103273151D01*
X167598826Y-103299338D01*
X167600186Y-103332624D01*
X167609001Y-103369539D01*
X167624359Y-103406616D01*
X167645344Y-103440385D01*
X167652059Y-103448722D01*
X167673720Y-103469164D01*
X167701859Y-103489336D01*
X167720566Y-103499980D01*
X167742536Y-103511139D01*
X167758965Y-103519760D01*
X167766354Y-103524008D01*
X167766385Y-103524034D01*
X167766973Y-103531382D01*
X167767445Y-103551182D01*
X167767792Y-103581823D01*
X167768004Y-103621693D01*
X167768072Y-103669181D01*
X167767988Y-103722675D01*
X167767783Y-103772841D01*
X167766501Y-104019215D01*
X167790412Y-104019215D01*
X167814324Y-104019215D01*
X167818633Y-103953621D01*
X167826694Y-103891011D01*
X167841983Y-103828408D01*
X167863282Y-103769014D01*
X167889376Y-103716032D01*
X167919048Y-103672664D01*
X167929970Y-103660437D01*
X167960557Y-103634686D01*
X168001257Y-103608960D01*
X168048272Y-103585368D01*
X168097806Y-103566014D01*
X168103590Y-103564124D01*
X168129444Y-103556424D01*
X168151689Y-103551651D01*
X168174816Y-103549339D01*
X168203316Y-103549018D01*
X168238372Y-103550090D01*
X168292357Y-103553565D01*
X168333539Y-103559462D01*
X168363036Y-103568200D01*
X168381968Y-103580198D01*
X168391451Y-103595876D01*
X168393079Y-103608116D01*
X168388761Y-103621718D01*
X168374670Y-103637536D01*
X168356160Y-103652460D01*
X168325352Y-103676739D01*
X168303570Y-103697855D01*
X168287578Y-103719534D01*
X168274138Y-103745499D01*
X168272900Y-103748269D01*
X168268427Y-103759245D01*
X168264822Y-103770927D01*
X168261932Y-103785078D01*
X168259604Y-103803463D01*
X168257686Y-103827844D01*
X168256024Y-103859983D01*
X168254465Y-103901646D01*
X168252855Y-103954593D01*
X168251849Y-103990790D01*
X168250378Y-104045475D01*
X168249022Y-104097343D01*
X168247835Y-104144227D01*
X168246869Y-104183963D01*
X168246180Y-104214385D01*
X168245820Y-104233325D01*
X168245793Y-104235452D01*
X168245404Y-104272371D01*
X168198631Y-104272371D01*
X168151857Y-104272371D01*
X168156894Y-104050859D01*
X168161931Y-103829347D01*
X168032289Y-103829347D01*
X167902647Y-103829347D01*
X167898376Y-103869782D01*
X167896943Y-103888527D01*
X167895288Y-103918713D01*
X167893525Y-103957722D01*
X167891766Y-104002935D01*
X167890127Y-104051734D01*
X167889401Y-104076195D01*
X167887600Y-104133876D01*
X167886535Y-104179028D01*
X167887242Y-104213187D01*
X167890753Y-104237884D01*
X167898101Y-104254654D01*
X167910319Y-104265030D01*
X167928440Y-104270546D01*
X167953498Y-104272734D01*
X167986526Y-104273129D01*
X168022135Y-104273203D01*
X168059687Y-104273440D01*
X168092208Y-104273542D01*
X168117126Y-104273510D01*
X168131870Y-104273342D01*
X168134648Y-104273203D01*
X168136167Y-104279656D01*
X168137514Y-104298197D01*
X168138624Y-104326851D01*
X168139430Y-104363642D01*
X168139865Y-104406594D01*
X168139922Y-104429814D01*
X168140016Y-104481422D01*
X168140390Y-104520851D01*
X168141185Y-104549987D01*
X168142541Y-104570716D01*
X168144598Y-104584922D01*
X168147495Y-104594491D01*
X168151374Y-104601308D01*
X168152800Y-104603161D01*
X168169069Y-104614859D01*
X168186908Y-104613359D01*
X168204724Y-104599166D01*
X168215613Y-104583240D01*
X168223149Y-104563640D01*
X168230716Y-104533156D01*
X168237836Y-104494957D01*
X168244034Y-104452216D01*
X168248834Y-104408102D01*
X168251759Y-104365786D01*
X168252436Y-104338043D01*
X168253750Y-104310252D01*
X168257323Y-104294437D01*
X168262602Y-104291161D01*
X168269035Y-104300986D01*
X168273967Y-104316109D01*
X168276394Y-104329210D01*
X168277838Y-104347948D01*
X168278285Y-104373866D01*
X168277722Y-104408509D01*
X168276136Y-104453420D01*
X168273514Y-104510143D01*
X168272054Y-104538753D01*
X168268991Y-104596184D01*
X168266370Y-104641181D01*
X168264000Y-104675364D01*
X168261694Y-104700349D01*
X168259263Y-104717755D01*
X168256518Y-104729198D01*
X168253272Y-104736297D01*
X168249335Y-104740669D01*
X168248437Y-104741367D01*
X168242606Y-104744225D01*
X168232809Y-104746396D01*
X168217578Y-104747918D01*
X168195450Y-104748826D01*
X168164956Y-104749160D01*
X168124631Y-104748954D01*
X168073009Y-104748248D01*
X168016860Y-104747237D01*
X167945582Y-104745822D01*
X167886972Y-104744487D01*
X167839638Y-104743087D01*
X167802186Y-104741478D01*
X167773223Y-104739516D01*
X167751356Y-104737054D01*
X167735190Y-104733950D01*
X167723333Y-104730058D01*
X167714391Y-104725233D01*
X167706971Y-104719330D01*
X167702003Y-104714548D01*
X167681372Y-104693917D01*
X167685744Y-104583351D01*
X167688655Y-104511026D01*
X167691193Y-104451465D01*
X167693451Y-104403377D01*
X167695524Y-104365472D01*
X167697504Y-104336456D01*
X167699487Y-104315040D01*
X167701564Y-104299930D01*
X167703831Y-104289837D01*
X167706381Y-104283467D01*
X167707658Y-104281455D01*
X167715118Y-104274799D01*
X167727535Y-104271052D01*
X167748238Y-104269581D01*
X167770179Y-104269576D01*
X167823477Y-104270297D01*
X167823477Y-104232657D01*
X167823477Y-104195017D01*
X167743952Y-104195017D01*
X167703011Y-104195716D01*
X167674496Y-104197923D01*
X167656835Y-104201800D01*
X167651210Y-104204682D01*
X167646495Y-104209501D01*
X167642760Y-104217508D01*
X167639723Y-104230648D01*
X167637103Y-104250869D01*
X167634618Y-104280116D01*
X167631989Y-104320335D01*
X167630279Y-104349589D01*
X167627370Y-104400494D01*
X167624505Y-104439033D01*
X167620617Y-104466863D01*
X167614635Y-104485637D01*
X167605493Y-104497012D01*
X167592121Y-104502641D01*
X167573451Y-104504181D01*
X167548415Y-104503285D01*
X167531644Y-104502360D01*
X167500572Y-104499941D01*
X167472621Y-104496404D01*
X167452428Y-104492382D01*
X167447959Y-104490940D01*
X167427562Y-104482878D01*
X167432906Y-104319609D01*
X167434575Y-104269958D01*
X167436264Y-104222194D01*
X167437867Y-104179067D01*
X167439283Y-104143331D01*
X167440406Y-104117736D01*
X167440768Y-104110632D01*
X167442153Y-104083757D01*
X167443199Y-104060220D01*
X167443623Y-104047343D01*
X167444210Y-104034609D01*
X167446587Y-104025044D01*
X167452505Y-104018237D01*
X167463713Y-104013772D01*
X167481961Y-104011237D01*
X167509001Y-104010219D01*
X167546582Y-104010303D01*
X167596454Y-104011076D01*
X167597089Y-104011087D01*
X167736867Y-104013508D01*
X167741464Y-103933734D01*
X167743005Y-103899096D01*
X167744301Y-103854793D01*
X167745260Y-103805223D01*
X167745789Y-103754786D01*
X167745860Y-103723866D01*
X167745660Y-103593772D01*
X167682981Y-103563929D01*
X167631655Y-103535002D01*
X167587944Y-103501331D01*
X167554086Y-103464894D01*
X167534421Y-103432562D01*
X167524537Y-103397892D01*
X167521446Y-103355323D01*
X167525132Y-103309261D01*
X167535056Y-103265761D01*
X167545257Y-103238985D01*
X167560430Y-103206107D01*
X167577879Y-103172818D01*
X167584515Y-103161296D01*
X167600891Y-103133010D01*
X167616939Y-103103589D01*
X167633985Y-103070423D01*
X167653351Y-103030903D01*
X167676361Y-102982418D01*
X167689716Y-102953849D01*
X167712052Y-102891491D01*
X167725133Y-102821988D01*
X167728379Y-102749267D01*
X167725829Y-102709959D01*
X167723753Y-102683301D01*
X167724926Y-102670191D01*
X167729861Y-102670383D01*
G37*
D12*
%TO.C,R17*%
X145805767Y-102732430D02*
X145805767Y-104179904D01*
X148515767Y-102732430D02*
X148515767Y-104179904D01*
%TO.C,U3*%
X111470000Y-71357500D02*
X117890000Y-71357500D01*
X111470000Y-78257500D02*
X117890000Y-78257500D01*
X117890000Y-71357500D02*
X117890000Y-71627500D01*
X117890000Y-78257500D02*
X117890000Y-77987500D01*
X119960000Y-78417500D02*
X119280000Y-78417500D01*
X119620000Y-77947500D01*
X119960000Y-78417500D01*
G36*
X119960000Y-78417500D02*
G01*
X119280000Y-78417500D01*
X119620000Y-77947500D01*
X119960000Y-78417500D01*
G37*
D14*
%TO.C,J4*%
X112979500Y-113342695D02*
X112979500Y-122054894D01*
X112979500Y-122054894D02*
X117094300Y-122054906D01*
X117094300Y-122054906D02*
X117094300Y-123502706D01*
X117094300Y-123502706D02*
X122555300Y-123502706D01*
X122555300Y-122054906D02*
X126670100Y-122054894D01*
X122555300Y-123502706D02*
X122555300Y-122054906D01*
X126670100Y-113342695D02*
X112979500Y-113342695D01*
X126670100Y-122054894D02*
X126670100Y-113342695D01*
D15*
X127686100Y-111549695D02*
G75*
G02*
X126924100Y-111549695I-381000J0D01*
G01*
X126924100Y-111549695D02*
G75*
G02*
X127686100Y-111549695I381000J0D01*
G01*
D12*
%TO.C,R11*%
X110973063Y-88281600D02*
X112420537Y-88281600D01*
X110973063Y-90991600D02*
X112420537Y-90991600D01*
%TO.C,TP8*%
X106403967Y-111939767D02*
G75*
G02*
X104503967Y-111939767I-950000J0D01*
G01*
X104503967Y-111939767D02*
G75*
G02*
X106403967Y-111939767I950000J0D01*
G01*
%TO.C,R1*%
X149046263Y-70155000D02*
X150493737Y-70155000D01*
X149046263Y-72865000D02*
X150493737Y-72865000D01*
%TO.C,U12*%
X127942200Y-103683200D02*
X127942200Y-102883200D01*
X127942200Y-103683200D02*
X127942200Y-104483200D01*
X131062200Y-103683200D02*
X131062200Y-102883200D01*
X131062200Y-103683200D02*
X131062200Y-104483200D01*
X127992200Y-104983200D02*
X127662200Y-105223200D01*
X127662200Y-104743200D01*
X127992200Y-104983200D01*
G36*
X127992200Y-104983200D02*
G01*
X127662200Y-105223200D01*
X127662200Y-104743200D01*
X127992200Y-104983200D01*
G37*
%TO.C,C15*%
X112649052Y-83240200D02*
X111226548Y-83240200D01*
X112649052Y-85060200D02*
X111226548Y-85060200D01*
%TO.C,C19*%
X137609200Y-104292852D02*
X137609200Y-102870348D01*
X139429200Y-104292852D02*
X139429200Y-102870348D01*
%TO.C,U9*%
X106241367Y-97933767D02*
X105441367Y-97933767D01*
X106241367Y-97933767D02*
X107041367Y-97933767D01*
X106241367Y-101053767D02*
X105441367Y-101053767D01*
X106241367Y-101053767D02*
X107041367Y-101053767D01*
X104941367Y-97983767D02*
X104701367Y-97653767D01*
X105181367Y-97653767D01*
X104941367Y-97983767D01*
G36*
X104941367Y-97983767D02*
G01*
X104701367Y-97653767D01*
X105181367Y-97653767D01*
X104941367Y-97983767D01*
G37*
%TO.C,U6*%
X118352300Y-103861000D02*
X118352300Y-103061000D01*
X118352300Y-103861000D02*
X118352300Y-104661000D01*
X121472300Y-103861000D02*
X121472300Y-103061000D01*
X121472300Y-103861000D02*
X121472300Y-104661000D01*
X118402300Y-105161000D02*
X118072300Y-105401000D01*
X118072300Y-104921000D01*
X118402300Y-105161000D01*
G36*
X118402300Y-105161000D02*
G01*
X118072300Y-105401000D01*
X118072300Y-104921000D01*
X118402300Y-105161000D01*
G37*
%TO.C,C14*%
X150259619Y-109861367D02*
X148837115Y-109861367D01*
X150259619Y-111681367D02*
X148837115Y-111681367D01*
%TO.C,R18*%
X120713663Y-83709600D02*
X122161137Y-83709600D01*
X120713663Y-86419600D02*
X122161137Y-86419600D01*
%TO.C,R12*%
X155176263Y-97245000D02*
X156623737Y-97245000D01*
X155176263Y-99955000D02*
X156623737Y-99955000D01*
%TO.C,C26*%
X108323000Y-112039748D02*
X108323000Y-113462252D01*
X110143000Y-112039748D02*
X110143000Y-113462252D01*
%TO.C,U7*%
X139626200Y-91465800D02*
X139626200Y-90665800D01*
X139626200Y-91465800D02*
X139626200Y-92265800D01*
X142746200Y-91465800D02*
X142746200Y-90665800D01*
X142746200Y-91465800D02*
X142746200Y-92265800D01*
X139676200Y-92765800D02*
X139346200Y-93005800D01*
X139346200Y-92525800D01*
X139676200Y-92765800D01*
G36*
X139676200Y-92765800D02*
G01*
X139346200Y-93005800D01*
X139346200Y-92525800D01*
X139676200Y-92765800D01*
G37*
%TO.C,C11*%
X122072452Y-80141400D02*
X120649948Y-80141400D01*
X122072452Y-81961400D02*
X120649948Y-81961400D01*
%TO.C,TP9*%
X144935767Y-117527767D02*
G75*
G02*
X143035767Y-117527767I-950000J0D01*
G01*
X143035767Y-117527767D02*
G75*
G02*
X144935767Y-117527767I950000J0D01*
G01*
%TO.C,C13*%
X128871600Y-112014348D02*
X128871600Y-113436852D01*
X130691600Y-112014348D02*
X130691600Y-113436852D01*
%TO.C,U5*%
X154979100Y-103683200D02*
X154979100Y-102883200D01*
X154979100Y-103683200D02*
X154979100Y-104483200D01*
X158099100Y-103683200D02*
X158099100Y-102883200D01*
X158099100Y-103683200D02*
X158099100Y-104483200D01*
X155029100Y-104983200D02*
X154699100Y-105223200D01*
X154699100Y-104743200D01*
X155029100Y-104983200D01*
G36*
X155029100Y-104983200D02*
G01*
X154699100Y-105223200D01*
X154699100Y-104743200D01*
X155029100Y-104983200D01*
G37*
%TO.C,C2*%
X122202500Y-75615748D02*
X122202500Y-77038252D01*
X124022500Y-75615748D02*
X124022500Y-77038252D01*
%TO.C,R21*%
X143230737Y-97172000D02*
X141783263Y-97172000D01*
X143230737Y-99882000D02*
X141783263Y-99882000D01*
D14*
%TO.C,J5*%
X157604895Y-89124600D02*
X157604895Y-95322200D01*
X157604895Y-95322200D02*
X166317094Y-95322200D01*
X166317094Y-89124600D02*
X157604895Y-89124600D01*
X166317094Y-94953900D02*
X167764906Y-94953900D01*
X166317094Y-95322200D02*
X166317094Y-94953900D01*
X166317106Y-89492900D02*
X166317094Y-89124600D01*
X167764906Y-89492900D02*
X166317106Y-89492900D01*
X167764906Y-94953900D02*
X167764906Y-89492900D01*
D15*
X156192895Y-88489600D02*
G75*
G02*
X155430895Y-88489600I-381000J0D01*
G01*
X155430895Y-88489600D02*
G75*
G02*
X156192895Y-88489600I381000J0D01*
G01*
D12*
%TO.C,U1*%
X143100000Y-73390000D02*
X141150000Y-73390000D01*
X143100000Y-73390000D02*
X145050000Y-73390000D01*
X143100000Y-78510000D02*
X141150000Y-78510000D01*
X143100000Y-78510000D02*
X145050000Y-78510000D01*
X146040000Y-78745000D02*
X145560000Y-78745000D01*
X145800000Y-78415000D01*
X146040000Y-78745000D01*
G36*
X146040000Y-78745000D02*
G01*
X145560000Y-78745000D01*
X145800000Y-78415000D01*
X146040000Y-78745000D01*
G37*
%TO.C,R4*%
X136883737Y-73345000D02*
X135436263Y-73345000D01*
X136883737Y-76055000D02*
X135436263Y-76055000D01*
%TO.C,R23*%
X161370400Y-104457737D02*
X161370400Y-103010263D01*
X164080400Y-104457737D02*
X164080400Y-103010263D01*
%TO.C,U18*%
X148059000Y-91465800D02*
X148059000Y-90665800D01*
X148059000Y-91465800D02*
X148059000Y-92265800D01*
X151179000Y-91465800D02*
X151179000Y-90665800D01*
X151179000Y-91465800D02*
X151179000Y-92265800D01*
X148109000Y-92765800D02*
X147779000Y-93005800D01*
X147779000Y-92525800D01*
X148109000Y-92765800D01*
G36*
X148109000Y-92765800D02*
G01*
X147779000Y-93005800D01*
X147779000Y-92525800D01*
X148109000Y-92765800D01*
G37*
D14*
%TO.C,J1*%
X154236567Y-113342695D02*
X154236567Y-122054894D01*
X154236567Y-122054894D02*
X155849467Y-122054906D01*
X155849467Y-122054906D02*
X155849467Y-123502706D01*
X155849467Y-123502706D02*
X161310467Y-123502706D01*
X161310467Y-122054906D02*
X162923367Y-122054894D01*
X161310467Y-123502706D02*
X161310467Y-122054906D01*
X162923367Y-113342695D02*
X154236567Y-113342695D01*
X162923367Y-122054894D02*
X162923367Y-113342695D01*
D15*
X163939367Y-111549695D02*
G75*
G02*
X163177367Y-111549695I-381000J0D01*
G01*
X163177367Y-111549695D02*
G75*
G02*
X163939367Y-111549695I381000J0D01*
G01*
D12*
%TO.C,C1*%
X149158748Y-78370000D02*
X150581252Y-78370000D01*
X149158748Y-80190000D02*
X150581252Y-80190000D01*
%TO.C,R3*%
X137107064Y-77730000D02*
X135652936Y-77730000D01*
X137107064Y-79550000D02*
X135652936Y-79550000D01*
%TO.C,U10*%
X141034500Y-103556200D02*
X141034500Y-102756200D01*
X141034500Y-103556200D02*
X141034500Y-104356200D01*
X144154500Y-103556200D02*
X144154500Y-102756200D01*
X144154500Y-103556200D02*
X144154500Y-104356200D01*
X141084500Y-104856200D02*
X140754500Y-105096200D01*
X140754500Y-104616200D01*
X141084500Y-104856200D01*
G36*
X141084500Y-104856200D02*
G01*
X140754500Y-105096200D01*
X140754500Y-104616200D01*
X141084500Y-104856200D01*
G37*
%TO.C,C16*%
X152353600Y-104267052D02*
X152353600Y-102844548D01*
X154173600Y-104267052D02*
X154173600Y-102844548D01*
%TO.C,R15*%
X109610767Y-99506304D02*
X109610767Y-98058830D01*
X112320767Y-99506304D02*
X112320767Y-98058830D01*
%TO.C,C23*%
X125790000Y-90613748D02*
X125790000Y-92036252D01*
X127610000Y-90613748D02*
X127610000Y-92036252D01*
%TO.C,R16*%
X132439800Y-102807063D02*
X132439800Y-104254537D01*
X135149800Y-102807063D02*
X135149800Y-104254537D01*
%TO.C,R20*%
X130391063Y-83531800D02*
X131838537Y-83531800D01*
X130391063Y-86241800D02*
X131838537Y-86241800D01*
%TO.C,C10*%
X131851452Y-80370000D02*
X130428948Y-80370000D01*
X131851452Y-82190000D02*
X130428948Y-82190000D01*
%TO.C,C5*%
X143701252Y-70460000D02*
X142278748Y-70460000D01*
X143701252Y-72280000D02*
X142278748Y-72280000D01*
%TO.C,U17*%
X143306800Y-83403000D02*
X142506800Y-83403000D01*
X143306800Y-83403000D02*
X144106800Y-83403000D01*
X143306800Y-86523000D02*
X142506800Y-86523000D01*
X143306800Y-86523000D02*
X144106800Y-86523000D01*
X142006800Y-83453000D02*
X141766800Y-83123000D01*
X142246800Y-83123000D01*
X142006800Y-83453000D01*
G36*
X142006800Y-83453000D02*
G01*
X141766800Y-83123000D01*
X142246800Y-83123000D01*
X142006800Y-83453000D01*
G37*
%TO.C,Q1*%
X149377400Y-82006000D02*
X148727400Y-82006000D01*
X149377400Y-82006000D02*
X150027400Y-82006000D01*
X149377400Y-85126000D02*
X148727400Y-85126000D01*
X149377400Y-85126000D02*
X150027400Y-85126000D01*
X148214900Y-82056000D02*
X147974900Y-81726000D01*
X148454900Y-81726000D01*
X148214900Y-82056000D01*
G36*
X148214900Y-82056000D02*
G01*
X147974900Y-81726000D01*
X148454900Y-81726000D01*
X148214900Y-82056000D01*
G37*
%TO.C,U8*%
X129227500Y-91275000D02*
X129227500Y-90475000D01*
X129227500Y-91275000D02*
X129227500Y-92075000D01*
X132347500Y-91275000D02*
X132347500Y-90475000D01*
X132347500Y-91275000D02*
X132347500Y-92075000D01*
X129277500Y-92575000D02*
X128947500Y-92815000D01*
X128947500Y-92335000D01*
X129277500Y-92575000D01*
G36*
X129277500Y-92575000D02*
G01*
X128947500Y-92815000D01*
X128947500Y-92335000D01*
X129277500Y-92575000D01*
G37*
%TO.C,U11*%
X119876300Y-91338800D02*
X119876300Y-90538800D01*
X119876300Y-91338800D02*
X119876300Y-92138800D01*
X122996300Y-91338800D02*
X122996300Y-90538800D01*
X122996300Y-91338800D02*
X122996300Y-92138800D01*
X119926300Y-92638800D02*
X119596300Y-92878800D01*
X119596300Y-92398800D01*
X119926300Y-92638800D01*
G36*
X119926300Y-92638800D02*
G01*
X119596300Y-92878800D01*
X119596300Y-92398800D01*
X119926300Y-92638800D01*
G37*
%TO.C,C17*%
X114627767Y-104548419D02*
X114627767Y-103125915D01*
X116447767Y-104548419D02*
X116447767Y-103125915D01*
D14*
%TO.C,J3*%
X157604895Y-80024600D02*
X157604895Y-86222200D01*
X157604895Y-86222200D02*
X166317094Y-86222200D01*
X166317094Y-80024600D02*
X157604895Y-80024600D01*
X166317094Y-85853900D02*
X167764906Y-85853900D01*
X166317094Y-86222200D02*
X166317094Y-85853900D01*
X166317106Y-80392900D02*
X166317094Y-80024600D01*
X167764906Y-80392900D02*
X166317106Y-80392900D01*
X167764906Y-85853900D02*
X167764906Y-80392900D01*
D15*
X156192895Y-79389600D02*
G75*
G02*
X155430895Y-79389600I-381000J0D01*
G01*
X155430895Y-79389600D02*
G75*
G02*
X156192895Y-79389600I381000J0D01*
G01*
D12*
%TO.C,RV6*%
X101792600Y-103298367D02*
X111542600Y-103298367D01*
X101792600Y-108348367D02*
X101792600Y-103298367D01*
X111542600Y-103298367D02*
X111542600Y-108348367D01*
X111542600Y-108348367D02*
X101792600Y-108348367D01*
%TO.C,C4*%
X128701748Y-72394400D02*
X130124252Y-72394400D01*
X128701748Y-74214400D02*
X130124252Y-74214400D01*
%TO.C,R22*%
X162198737Y-97295000D02*
X160751263Y-97295000D01*
X162198737Y-100005000D02*
X160751263Y-100005000D01*
%TO.C,U4*%
X106058000Y-85116500D02*
X105258000Y-85116500D01*
X106058000Y-85116500D02*
X106858000Y-85116500D01*
X106058000Y-88236500D02*
X105258000Y-88236500D01*
X106058000Y-88236500D02*
X106858000Y-88236500D01*
X104758000Y-85166500D02*
X104518000Y-84836500D01*
X104998000Y-84836500D01*
X104758000Y-85166500D01*
G36*
X104758000Y-85166500D02*
G01*
X104518000Y-84836500D01*
X104998000Y-84836500D01*
X104758000Y-85166500D01*
G37*
%TO.C,RV7*%
X146936367Y-113785906D02*
X151986367Y-113785906D01*
X146936367Y-123535906D02*
X146936367Y-113785906D01*
X151986367Y-113785906D02*
X151986367Y-123535906D01*
X151986367Y-123535906D02*
X146936367Y-123535906D01*
%TO.C,R2*%
X149216263Y-74275000D02*
X150663737Y-74275000D01*
X149216263Y-76985000D02*
X150663737Y-76985000D01*
%TO.C,R24*%
X129997337Y-97527600D02*
X128549863Y-97527600D01*
X129997337Y-100237600D02*
X128549863Y-100237600D01*
D14*
%TO.C,J2*%
X132631967Y-113342695D02*
X132631967Y-122054894D01*
X132631967Y-122054894D02*
X134244867Y-122054906D01*
X134244867Y-122054906D02*
X134244867Y-123502706D01*
X134244867Y-123502706D02*
X139705867Y-123502706D01*
X139705867Y-122054906D02*
X141318767Y-122054894D01*
X139705867Y-123502706D02*
X139705867Y-122054906D01*
X141318767Y-113342695D02*
X132631967Y-113342695D01*
X141318767Y-122054894D02*
X141318767Y-113342695D01*
D15*
X142334767Y-111549695D02*
G75*
G02*
X141572767Y-111549695I-381000J0D01*
G01*
X141572767Y-111549695D02*
G75*
G02*
X142334767Y-111549695I381000J0D01*
G01*
D12*
%TO.C,C21*%
X142570148Y-80497000D02*
X143992652Y-80497000D01*
X142570148Y-82317000D02*
X143992652Y-82317000D01*
%TO.C,R14*%
X107086537Y-89131500D02*
X105639063Y-89131500D01*
X107086537Y-91841500D02*
X105639063Y-91841500D01*
%TO.C,R13*%
X120167537Y-97629200D02*
X118720063Y-97629200D01*
X120167537Y-100339200D02*
X118720063Y-100339200D01*
%TO.C,C22*%
X136885000Y-90550948D02*
X136885000Y-91973452D01*
X138705000Y-90550948D02*
X138705000Y-91973452D01*
%TO.C,TP10*%
X129093000Y-76428600D02*
G75*
G02*
X127193000Y-76428600I-950000J0D01*
G01*
X127193000Y-76428600D02*
G75*
G02*
X129093000Y-76428600I950000J0D01*
G01*
%TD*%
M02*
